<svg xmlns="http://www.w3.org/2000/svg" viewBox="0 0 792 792"><defs><style>.cls-1{fill:#8c6239;}.cls-2{fill:#74c0e3;}.cls-3{fill:#754c24;}.cls-4{fill:#528ea3;}.cls-5{fill:#3e6576;}.cls-6{fill:#603813;}.cls-7{fill:#224c5b;}.cls-8{fill:#42210b;}</style></defs><title>3b1b_vector_logo</title><g id="spikes"><path class="cls-1" d="M638.54,396A242.89,242.89,0,1,1,567.4,224.25,242.12,242.12,0,0,1,638.54,396Z"/><path class="cls-2" d="M395.66,153.11V396H152.77A242.88,242.88,0,1,0,395.66,153.11Z"/><polygon class="cls-3" points="316.86 205.77 337.29 278.56 357.72 351.35 374.31 344.47 390.9 337.6 353.88 271.68 316.86 205.77"/><polygon class="cls-4" points="205.42 474.8 278.21 454.37 351 433.93 344.13 417.34 337.26 400.75 271.34 437.77 205.42 474.8"/><polygon class="cls-3" points="379.5 190.73 376.44 266.27 373.38 341.81 391.28 340.4 409.18 338.99 394.34 264.86 379.5 190.73"/><polygon class="cls-3" points="347.59 195.78 356.38 270.87 365.18 345.96 382.64 341.77 400.1 337.58 373.84 266.68 347.59 195.78"/><polygon class="cls-3" points="288.07 220.44 319.64 289.13 351.2 357.83 366.52 348.45 381.83 339.06 334.95 279.75 288.07 220.44"/><polygon class="cls-3" points="261.93 239.43 303.86 302.34 345.78 365.25 359.44 353.59 373.09 341.93 317.51 290.68 261.93 239.43"/><polygon class="cls-3" points="239.08 262.27 290.33 317.85 341.58 373.43 353.25 359.78 364.91 346.12 302 304.2 239.08 262.27"/><polygon class="cls-3" points="220.09 288.41 279.41 335.29 338.72 382.17 348.1 366.86 357.49 351.55 288.79 319.98 220.09 288.41"/><polygon class="cls-3" points="205.42 317.2 271.34 354.23 337.26 391.25 344.13 374.66 351 358.07 278.21 337.63 205.42 317.2"/><polygon class="cls-3" points="195.44 347.93 266.34 374.19 337.23 400.44 341.43 382.98 345.62 365.52 270.53 356.73 195.44 347.93"/><polygon class="cls-3" points="190.38 379.85 264.52 394.69 338.65 409.53 340.06 391.62 341.47 373.72 265.92 376.78 190.38 379.85"/><polygon class="cls-4" points="220.09 503.59 288.79 472.02 357.49 440.45 348.1 425.14 338.72 409.83 279.41 456.71 220.09 503.59"/><polygon class="cls-4" points="239.08 529.73 302 487.8 364.91 445.88 353.25 432.22 341.58 418.57 290.33 474.15 239.08 529.73"/><polygon class="cls-4" points="261.93 552.57 317.51 501.32 373.09 450.07 359.44 438.41 345.78 426.75 303.86 489.66 261.93 552.57"/><polygon class="cls-4" points="288.07 571.57 334.95 512.25 381.83 452.94 366.52 443.55 351.2 434.17 319.64 502.87 288.07 571.57"/><polygon class="cls-4" points="316.86 586.23 353.88 520.32 390.9 454.4 374.31 447.53 357.72 440.65 337.29 513.44 316.86 586.23"/><polygon class="cls-4" points="347.59 596.22 373.84 525.32 400.1 454.42 382.64 450.23 365.18 446.04 356.38 521.13 347.59 596.22"/><polygon class="cls-4" points="379.5 601.27 394.34 527.14 409.18 453.01 391.28 451.6 373.38 450.19 376.44 525.73 379.5 601.27"/><polygon class="cls-4" points="411.81 601.27 414.87 525.73 417.93 450.19 400.03 451.6 382.13 453.01 396.97 527.14 411.81 601.27"/><polygon class="cls-4" points="443.73 596.22 434.93 521.13 426.14 446.04 408.68 450.23 391.21 454.42 417.47 525.32 443.73 596.22"/><polygon class="cls-4" points="474.45 586.23 454.02 513.44 433.59 440.65 417 447.53 400.41 454.4 437.43 520.32 474.45 586.23"/><polygon class="cls-4" points="503.24 571.57 471.68 502.87 440.11 434.17 424.8 443.55 409.49 452.94 456.36 512.25 503.24 571.57"/><polygon class="cls-4" points="529.38 552.57 487.46 489.66 445.53 426.75 431.88 438.41 418.22 450.07 473.8 501.32 529.38 552.57"/><polygon class="cls-4" points="552.23 529.73 500.98 474.15 449.73 418.57 438.06 432.22 426.4 445.88 489.32 487.8 552.23 529.73"/><polygon class="cls-4" points="571.22 503.59 511.91 456.71 452.59 409.83 443.21 425.14 433.83 440.45 502.52 472.02 571.22 503.59"/><polygon class="cls-4" points="585.89 474.8 519.97 437.77 454.06 400.75 447.18 417.34 440.31 433.93 513.1 454.37 585.89 474.8"/><polygon class="cls-4" points="595.88 444.07 524.98 417.81 454.08 391.56 449.89 409.02 445.69 426.48 520.78 435.27 595.88 444.07"/><polygon class="cls-4" points="600.93 412.15 526.8 397.31 452.67 382.47 451.26 400.38 449.85 418.28 525.39 415.22 600.93 412.15"/><polygon class="cls-4" points="600.93 379.85 525.39 376.78 449.85 373.72 451.26 391.62 452.67 409.53 526.8 394.69 600.93 379.85"/><polygon class="cls-4" points="595.88 347.93 520.78 356.73 445.69 365.52 449.89 382.98 454.08 400.44 524.98 374.19 595.88 347.93"/><polygon class="cls-4" points="585.89 317.2 513.1 337.63 440.31 358.07 447.18 374.66 454.06 391.25 519.97 354.23 585.89 317.2"/><polygon class="cls-4" points="571.22 288.41 502.52 319.98 433.83 351.55 443.21 366.86 452.59 382.17 511.91 335.29 571.22 288.41"/><polygon class="cls-4" points="552.23 262.27 489.32 304.2 426.4 346.12 438.06 359.78 449.73 373.43 500.98 317.85 552.23 262.27"/><polygon class="cls-4" points="529.38 239.43 473.8 290.68 418.22 341.93 431.88 353.59 445.53 365.25 487.46 302.34 529.38 239.43"/><polygon class="cls-4" points="503.24 220.44 456.36 279.75 409.49 339.06 424.8 348.45 440.11 357.83 471.68 289.13 503.24 220.44"/><polygon class="cls-4" points="474.45 205.77 437.43 271.68 400.41 337.6 417 344.47 433.59 351.35 454.02 278.56 474.45 205.77"/><polygon class="cls-4" points="443.73 195.78 417.47 266.68 391.21 337.58 408.68 341.77 426.14 345.96 434.93 270.87 443.73 195.78"/><polygon class="cls-4" points="411.81 190.73 396.97 264.86 382.13 338.99 400.03 340.4 417.94 341.81 414.87 266.27 411.81 190.73"/><polygon class="cls-4" points="190.38 412.15 265.92 415.22 341.47 418.28 340.06 400.38 338.65 382.47 264.52 397.31 190.38 412.15"/><polygon class="cls-4" points="195.44 444.07 270.53 435.27 345.62 426.48 341.43 409.02 337.23 391.56 266.34 417.81 195.44 444.07"/><polygon class="cls-3" points="316.86 205.77 337.29 278.56 357.72 351.35 366.02 347.91 374.31 344.47 345.59 275.12 316.86 205.77"/><polygon class="cls-5" points="395.66 159.32 385.34 245.61 375.01 331.89 395.66 331.89 416.3 331.89 405.98 245.61 395.66 159.32"/><polygon class="cls-5" points="158.98 396 245.27 406.32 331.55 416.64 331.55 396 331.55 375.36 245.27 385.68 158.98 396"/><polygon class="cls-6" points="331.55 396 331.55 385.68 331.55 375.36 245.27 385.68 158.98 396 158.98 396 158.99 396 245.27 396 331.55 396"/><polygon class="cls-5" points="161.89 433.02 248.73 429.72 335.57 426.42 332.34 406.03 329.11 385.64 245.5 409.33 161.89 433.02"/><polygon class="cls-5" points="170.56 469.14 255.82 452.29 341.07 435.44 334.69 415.81 328.31 396.18 249.44 432.66 170.56 469.14"/><polygon class="cls-5" points="184.78 503.45 266.34 473.47 347.91 443.49 338.54 425.1 329.17 406.71 256.97 455.08 184.78 503.45"/><polygon class="cls-5" points="204.18 535.12 280.05 492.75 355.93 450.38 343.79 433.68 331.66 416.98 267.92 476.05 204.18 535.12"/><polygon class="cls-5" points="228.3 563.36 296.61 509.64 364.92 455.93 350.33 441.33 335.73 426.73 282.02 495.04 228.3 563.36"/><polygon class="cls-5" points="256.54 587.48 315.61 523.74 374.68 460 357.98 447.86 341.28 435.73 298.91 511.6 256.54 587.48"/><polygon class="cls-5" points="288.21 606.88 336.58 534.68 384.94 462.49 366.55 453.12 348.16 443.75 318.19 525.31 288.21 606.88"/><polygon class="cls-5" points="322.52 621.09 359 542.22 395.48 463.35 375.85 456.97 356.22 450.59 339.37 535.84 322.52 621.09"/><polygon class="cls-5" points="358.63 629.76 382.32 546.15 406.01 462.55 385.63 459.32 365.24 456.09 361.94 542.92 358.63 629.76"/><polygon class="cls-5" points="395.66 632.68 405.98 546.39 416.3 460.11 395.66 460.11 375.01 460.11 385.34 546.39 395.66 632.68"/><polygon class="cls-5" points="432.68 629.76 429.38 542.92 426.07 456.09 405.69 459.32 385.3 462.55 408.99 546.15 432.68 629.76"/><polygon class="cls-5" points="468.79 621.09 451.94 535.84 435.1 450.59 415.47 456.97 395.83 463.35 432.31 542.22 468.79 621.09"/><polygon class="cls-5" points="503.11 606.88 473.13 525.31 443.15 443.75 424.76 453.12 406.37 462.49 454.74 534.68 503.11 606.88"/><polygon class="cls-5" points="534.77 587.48 492.4 511.6 450.04 435.73 433.34 447.86 416.64 460 475.7 523.74 534.77 587.48"/><polygon class="cls-5" points="563.01 563.36 509.3 495.05 455.58 426.73 440.99 441.33 426.39 455.93 494.7 509.64 563.01 563.36"/><polygon class="cls-5" points="587.13 535.12 523.39 476.05 459.65 416.98 447.52 433.68 435.39 450.38 511.26 492.75 587.13 535.12"/><polygon class="cls-5" points="606.54 503.45 534.34 455.08 462.14 406.71 452.77 425.1 443.4 443.49 524.97 473.47 606.54 503.45"/><polygon class="cls-5" points="620.75 469.14 541.88 432.66 463 396.18 456.62 415.81 450.25 435.44 535.5 452.29 620.75 469.14"/><polygon class="cls-5" points="629.42 433.02 545.81 409.33 462.2 385.64 458.97 406.03 455.74 426.42 542.58 429.72 629.42 433.02"/><polygon class="cls-5" points="632.33 396 546.05 385.68 459.76 375.36 459.76 396 459.76 416.64 546.05 406.32 632.33 396"/><polygon class="cls-5" points="629.42 358.98 542.58 362.28 455.74 365.58 458.97 385.97 462.2 406.36 545.81 382.67 629.42 358.98"/><polygon class="cls-5" points="620.75 322.86 535.5 339.71 450.25 356.56 456.62 376.19 463 395.82 541.88 359.34 620.75 322.86"/><polygon class="cls-5" points="606.54 288.55 524.97 318.53 443.4 348.51 452.77 366.9 462.14 385.29 534.34 336.92 606.54 288.55"/><polygon class="cls-5" points="587.13 256.88 511.26 299.25 435.39 341.62 447.52 358.32 459.65 375.02 523.39 315.95 587.13 256.88"/><polygon class="cls-5" points="563.01 228.65 494.7 282.36 426.39 336.07 440.99 350.67 455.58 365.27 509.3 296.96 563.01 228.65"/><polygon class="cls-5" points="534.77 204.53 475.7 268.26 416.64 332 433.34 344.14 450.04 356.27 492.4 280.4 534.77 204.53"/><polygon class="cls-5" points="503.11 185.12 454.74 257.32 406.37 329.51 424.76 338.88 443.15 348.25 473.13 266.69 503.11 185.12"/><polygon class="cls-5" points="468.79 170.91 432.31 249.78 395.83 328.65 415.47 335.03 435.1 341.41 451.94 256.16 468.79 170.91"/><polygon class="cls-5" points="432.68 162.24 408.99 245.85 385.3 329.45 405.69 332.68 426.07 335.91 429.38 249.08 432.68 162.24"/><polygon class="cls-6" points="358.63 162.24 361.94 249.08 365.24 335.91 385.63 332.68 406.01 329.45 382.32 245.85 358.63 162.24"/><polygon class="cls-6" points="322.52 170.91 339.37 256.16 356.22 341.41 375.85 335.03 395.48 328.65 359 249.78 322.52 170.91"/><polygon class="cls-6" points="288.21 185.12 318.19 266.69 348.16 348.25 366.55 338.88 384.94 329.51 336.58 257.32 288.21 185.12"/><polygon class="cls-6" points="256.54 204.53 298.91 280.4 341.28 356.27 357.98 344.14 374.68 332 315.61 268.26 256.54 204.53"/><polygon class="cls-6" points="228.3 228.65 282.02 296.96 335.73 365.27 350.33 350.67 364.92 336.07 296.61 282.36 228.3 228.65"/><polygon class="cls-6" points="204.18 256.88 267.92 315.95 331.66 375.02 343.79 358.32 355.93 341.62 280.05 299.25 204.18 256.88"/><polygon class="cls-6" points="184.78 288.55 256.97 336.92 329.17 385.29 338.54 366.9 347.91 348.51 266.34 318.53 184.78 288.55"/><polygon class="cls-6" points="170.56 322.86 249.44 359.34 328.31 395.82 334.69 376.19 341.07 356.56 255.82 339.71 170.56 322.86"/><polygon class="cls-6" points="161.89 358.98 245.5 382.67 329.11 406.36 332.34 385.97 335.57 365.58 248.73 362.28 161.89 358.98"/><polygon class="cls-6" points="395.66 159.32 385.34 245.61 375.01 331.89 385.34 331.89 395.66 331.89 395.66 245.61 395.66 159.32"/><polygon class="cls-7" points="215.66 424.51 282.52 421.96 349.39 419.42 346.9 403.72 344.42 388.02 280.04 406.27 215.66 424.51"/><polygon points="340.69 393.85 342.37 404.44 344.05 415.03 298.94 416.74 253.84 418.46 297.27 406.16 340.69 393.85"/><polygon class="cls-7" points="222.34 452.31 287.98 439.34 353.62 426.37 348.71 411.25 343.8 396.14 283.07 424.23 222.34 452.31"/><polygon points="341.03 402.48 344.35 412.67 347.66 422.87 303.38 431.62 259.1 440.37 300.07 421.42 341.03 402.48"/><polygon class="cls-7" points="233.28 478.74 296.08 455.65 358.89 432.57 351.68 418.41 344.46 404.25 288.87 441.49 233.28 478.74"/><polygon points="342.72 410.94 347.58 420.49 352.45 430.05 310.09 445.62 267.73 461.18 305.22 436.06 342.72 410.94"/><polygon class="cls-7" points="248.22 503.12 306.64 470.5 365.06 437.87 355.72 425.01 346.38 412.16 297.3 457.64 248.22 503.12"/><polygon points="345.71 419.04 352.01 427.71 358.31 436.38 318.9 458.39 279.5 480.39 312.6 449.72 345.71 419.04"/><polygon class="cls-7" points="266.79 524.86 319.39 483.5 371.99 442.14 360.75 430.9 349.51 419.67 308.15 472.26 266.79 524.86"/><polygon points="349.93 426.57 357.51 434.15 365.09 441.73 329.61 469.63 294.13 497.53 322.03 462.05 349.93 426.57"/><polygon class="cls-7" points="288.54 543.44 334.02 494.36 379.5 445.28 366.64 435.93 353.79 426.59 321.16 485.01 288.54 543.44"/><polygon points="355.27 433.35 363.94 439.65 372.62 445.95 341.94 479.05 311.26 512.16 333.27 472.75 355.27 433.35"/><polygon class="cls-7" points="312.92 558.38 350.17 502.79 387.41 447.2 373.25 439.98 359.09 432.76 336 495.57 312.92 558.38"/><polygon points="361.61 439.2 371.16 444.07 380.71 448.94 355.59 486.44 330.47 523.93 346.04 481.57 361.61 439.2"/><polygon class="cls-7" points="339.34 569.32 367.43 508.59 395.52 447.86 380.4 442.94 365.29 438.03 352.31 503.68 339.34 569.32"/><polygon points="368.79 444 378.98 447.31 389.18 450.63 370.23 491.59 351.29 532.55 360.04 488.28 368.79 444"/><polygon class="cls-7" points="367.15 576 385.39 511.62 403.63 447.24 387.94 444.75 372.24 442.27 369.69 509.13 367.15 576"/><polygon points="376.63 447.61 387.22 449.29 397.8 450.96 385.5 494.39 373.2 537.81 374.91 492.71 376.63 447.61"/><polygon class="cls-7" points="395.66 578.24 403.6 511.8 411.55 445.36 395.66 445.36 379.76 445.36 387.71 511.8 395.66 578.24"/><polygon points="384.94 449.95 395.66 449.95 406.38 449.95 401.02 494.77 395.66 539.58 390.3 494.77 384.94 449.95"/><polygon class="cls-7" points="424.17 576 421.62 509.13 419.08 442.27 403.38 444.75 387.68 447.24 405.92 511.62 424.17 576"/><polygon points="393.51 450.96 404.1 449.29 414.68 447.61 416.4 492.71 418.12 537.81 405.81 494.39 393.51 450.96"/><polygon class="cls-7" points="451.97 569.32 439 503.68 426.02 438.03 410.91 442.94 395.79 447.86 423.88 508.59 451.97 569.32"/><polygon points="402.13 450.63 412.33 447.31 422.52 444 431.27 488.28 440.02 532.55 421.08 491.59 402.13 450.63"/><polygon class="cls-7" points="478.39 558.38 455.31 495.57 432.23 432.76 418.07 439.98 403.9 447.2 441.15 502.79 478.39 558.38"/><polygon points="410.6 448.94 420.15 444.07 429.7 439.2 445.27 481.57 460.84 523.93 435.72 486.44 410.6 448.94"/><polygon class="cls-7" points="502.77 543.44 470.15 485.01 437.53 426.59 424.67 435.93 411.81 445.28 457.29 494.36 502.77 543.44"/><polygon points="418.7 445.95 427.37 439.65 436.04 433.35 458.05 472.75 480.05 512.16 449.37 479.05 418.7 445.95"/><polygon class="cls-7" points="524.52 524.86 483.16 472.26 441.8 419.67 430.56 430.9 419.32 442.14 471.92 483.5 524.52 524.86"/><polygon points="426.23 441.73 433.81 434.15 441.39 426.57 469.29 462.05 497.18 497.53 461.7 469.63 426.23 441.73"/><polygon class="cls-7" points="543.09 503.12 494.01 457.64 444.93 412.16 435.59 425.01 426.25 437.87 484.67 470.5 543.09 503.12"/><polygon points="433 436.38 439.31 427.71 445.61 419.04 478.71 449.72 511.81 480.39 472.41 458.39 433 436.38"/><polygon class="cls-7" points="558.03 478.74 502.44 441.49 446.85 404.25 439.64 418.41 432.42 432.57 495.23 455.65 558.03 478.74"/><polygon points="438.86 430.05 443.73 420.49 448.6 410.94 486.09 436.06 523.59 461.18 481.22 445.62 438.86 430.05"/><polygon class="cls-7" points="568.98 452.31 508.25 424.23 447.51 396.14 442.6 411.25 437.69 426.37 503.33 439.34 568.98 452.31"/><polygon points="443.65 422.87 446.97 412.67 450.28 402.48 491.25 421.42 532.21 440.37 487.93 431.62 443.65 422.87"/><polygon class="cls-7" points="575.65 424.51 511.27 406.27 446.9 388.02 444.41 403.72 441.92 419.42 508.79 421.96 575.65 424.51"/><polygon points="447.27 415.03 448.94 404.44 450.62 393.85 494.05 406.16 537.47 418.46 492.37 416.74 447.27 415.03"/><polygon class="cls-7" points="577.9 396 511.46 388.05 445.02 380.11 445.02 396 445.02 411.89 511.46 403.95 577.9 396"/><polygon points="449.61 385.28 494.42 390.64 539.24 396 494.42 401.36 449.61 406.72 449.61 396 449.61 385.28"/><polygon class="cls-7" points="575.65 367.49 508.79 370.04 441.92 372.58 444.41 388.28 446.9 403.98 511.27 385.73 575.65 367.49"/><polygon points="447.27 376.97 492.37 375.25 537.47 373.54 494.05 385.84 450.62 398.15 448.94 387.56 447.27 376.97"/><polygon class="cls-7" points="568.98 339.69 503.33 352.66 437.69 365.63 442.6 380.75 447.51 395.86 508.25 367.77 568.98 339.69"/><polygon points="443.65 369.13 487.93 360.38 532.21 351.63 491.25 370.58 450.28 389.52 446.97 379.33 443.65 369.13"/><polygon class="cls-7" points="558.03 313.26 495.23 336.35 432.42 359.43 439.64 373.59 446.85 387.75 502.44 350.51 558.03 313.26"/><polygon points="438.86 361.95 481.22 346.38 523.59 330.82 486.09 355.94 448.6 381.06 443.73 371.51 438.86 361.95"/><polygon class="cls-7" points="543.09 288.88 484.67 321.5 426.25 354.13 435.59 366.99 444.93 379.85 494.01 334.36 543.09 288.88"/><polygon points="433 355.61 472.41 333.61 511.81 311.61 478.71 342.28 445.61 372.96 439.31 364.29 433 355.61"/><polygon class="cls-7" points="524.52 267.14 471.92 308.5 419.32 349.86 430.56 361.1 441.8 372.33 483.16 319.74 524.52 267.14"/><polygon points="426.23 350.27 461.7 322.37 497.18 294.47 469.29 329.95 441.39 365.43 433.81 357.85 426.23 350.27"/><polygon class="cls-7" points="502.77 248.56 457.29 297.64 411.81 346.72 424.67 356.07 437.53 365.41 470.15 306.99 502.77 248.56"/><polygon points="418.7 346.05 449.37 312.95 480.05 279.84 458.05 319.25 436.04 358.65 427.37 352.35 418.7 346.05"/><polygon class="cls-7" points="478.39 233.62 441.15 289.21 403.9 344.8 418.07 352.02 432.23 359.24 455.31 296.43 478.39 233.62"/><polygon points="410.6 343.06 435.72 305.56 460.84 268.07 445.27 310.43 429.7 352.8 420.15 347.93 410.6 343.06"/><polygon class="cls-7" points="451.97 222.68 423.88 283.41 395.79 344.14 410.91 349.06 426.03 353.97 439 288.32 451.97 222.68"/><polygon points="402.13 341.38 421.08 300.41 440.02 259.45 431.27 303.72 422.52 348 412.33 344.69 402.13 341.38"/><polygon class="cls-7" points="424.17 216 405.92 280.38 387.68 344.76 403.38 347.25 419.08 349.73 421.62 282.87 424.17 216"/><polygon points="393.51 341.04 405.81 297.61 418.12 254.19 416.4 299.29 414.68 344.39 404.1 342.71 393.51 341.04"/><polygon class="cls-7" points="395.66 213.76 387.71 280.2 379.76 346.64 395.66 346.64 411.55 346.64 403.6 280.2 395.66 213.76"/><polygon points="384.94 342.05 390.3 297.23 395.66 252.42 401.02 297.23 406.38 342.05 395.66 342.05 384.94 342.05"/><polygon class="cls-8" points="339.34 222.68 352.31 288.32 365.29 353.97 380.4 349.06 395.52 344.14 367.43 283.41 339.34 222.68"/><polygon class="cls-8" points="312.92 233.62 336 296.43 359.09 359.24 373.25 352.02 387.41 344.8 350.17 289.21 312.92 233.62"/><polygon class="cls-8" points="288.54 248.56 321.16 306.99 353.79 365.41 366.64 356.07 379.5 346.72 334.02 297.64 288.54 248.56"/><polygon class="cls-8" points="266.79 267.14 308.15 319.74 349.51 372.33 360.75 361.1 371.99 349.86 319.39 308.5 266.79 267.14"/><polygon class="cls-8" points="248.22 288.88 297.3 334.36 346.38 379.84 355.72 366.99 365.06 354.13 306.64 321.5 248.22 288.88"/><polygon class="cls-8" points="233.28 313.26 288.87 350.51 344.46 387.75 351.68 373.59 358.89 359.43 296.08 336.35 233.28 313.26"/><polygon class="cls-8" points="222.34 339.69 283.07 367.77 343.8 395.86 348.71 380.75 353.62 365.63 287.98 352.66 222.34 339.69"/><polygon class="cls-8" points="215.66 367.49 280.04 385.73 344.42 403.98 346.9 388.28 349.39 372.58 282.52 370.04 215.66 367.49"/><polygon class="cls-8" points="213.42 396 279.86 403.95 346.3 411.89 346.3 396 346.3 380.11 279.86 388.05 213.42 396"/><polygon class="cls-8" points="395.66 213.76 387.71 280.2 379.76 346.64 387.71 346.64 395.66 346.64 395.66 280.2 395.66 213.76"/><polygon points="395.66 318.03 395.66 285.23 395.66 252.42 390.3 297.24 384.94 342.05 395.66 342.05 406.38 342.05 404.94 330.04 403.5 318.03 399.58 318.03 395.66 318.03"/><polygon class="cls-8" points="367.15 216 369.69 282.87 372.24 349.73 387.94 347.25 403.63 344.76 385.39 280.38 367.15 216"/><polygon points="373.2 254.19 385.5 297.61 397.81 341.04 387.22 342.71 376.63 344.39 374.91 299.29 373.2 254.19"/><polygon points="351.29 259.45 370.23 300.41 389.18 341.38 378.98 344.69 368.79 348 360.04 303.72 351.29 259.45"/><polygon points="330.47 268.07 355.59 305.56 380.71 343.06 371.16 347.93 361.61 352.8 346.04 310.43 330.47 268.07"/><polygon points="311.26 279.84 341.94 312.95 372.62 346.05 363.94 352.35 355.27 358.65 333.27 319.25 311.26 279.84"/><polygon points="294.13 294.47 329.61 322.37 365.09 350.27 357.51 357.85 349.93 365.43 322.03 329.95 294.13 294.47"/><polygon points="279.5 311.61 318.9 333.61 358.31 355.62 352.01 364.29 345.71 372.96 312.6 342.28 279.5 311.61"/><polygon points="267.73 330.82 310.09 346.38 352.45 361.95 347.58 371.5 342.72 381.06 305.22 355.94 267.73 330.82"/><polygon points="259.1 351.63 303.38 360.38 347.66 369.13 344.35 379.33 341.03 389.52 300.07 370.58 259.1 351.63"/><polygon points="253.84 373.54 298.94 375.25 344.05 376.97 342.37 387.56 340.69 398.15 297.27 385.84 253.84 373.54"/><polygon class="cls-7" points="213.42 396 279.86 403.95 346.3 411.89 346.3 403.95 346.3 396 279.86 396 213.42 396"/><polygon points="252.08 396 296.89 390.64 341.7 385.28 341.7 396 341.7 406.72 296.89 401.36 252.08 396"/><polygon points="319.89 387.89 319.89 391.94 319.89 396 285.98 396 252.08 396 296.89 401.36 341.7 406.72 341.7 396 341.7 385.28 330.8 386.58 319.89 387.89"/><path d="M513,396a117.31,117.31,0,1,1-34.36-82.95A116.95,116.95,0,0,1,513,396Z"/></g></svg>