<?xml version="1.0" encoding="UTF-8" standalone="no"?>
<!-- Created with Inkscape (http://www.inkscape.org/) -->
<svg
   xmlns:svg="http://www.w3.org/2000/svg"
   xmlns="http://www.w3.org/2000/svg"
   version="1.0"
   width="90"
   height="90"
   id="svg2">
  <defs
     id="defs4" />
  <g
     transform="translate(-350.80819,-487.40469)"
     id="layer1">
    <path
       d="M 374.5278,575.25682 C 368.93995,570.23656 371.99703,562.05931 381.22097,557.35361 C 384.29789,555.78388 386.56741,555.10447 390.62675,555.22466 C 393.08899,555.2878 395.92066,556.70708 395.92066,556.70708 C 395.92066,538.65214 395.85245,504.42692 395.85245,487.55581 C 396.85273,487.56144 397.4926,487.54933 398.89339,487.54933 C 398.89339,488.54187 398.88004,489.25553 398.88004,490.13535 C 398.88004,490.99273 398.94038,491.54941 399.02324,492.08822 C 399.9919,498.38745 401.40243,500.86712 408.44529,508.65196 C 417.35249,518.49754 419.93965,524.42792 419.88674,532.3035 C 419.83753,539.69157 413.33879,555.51593 411.86117,554.85939 C 413.91582,549.3234 416.68649,543.35095 417.4234,538.35346 C 418.32396,532.24613 415.84291,523.62679 411.85007,519.07921 C 408.56648,515.3394 401.00353,511.99454 398.94053,511.99454 C 398.94053,511.99454 398.85296,548.36682 398.85296,562.15685 C 398.85296,564.53156 396.7017,568.55744 395.48989,570.00494 C 389.96358,576.60606 379.35623,579.5948 374.5278,575.25682 z "
       style="fill:#000000"
       id="path2239" />
  </g>
</svg>
