<?xml version="1.0" encoding="UTF-8" standalone="no"?>
<svg width="572px" height="167px" viewBox="0 0 572 167" version="1.1" xmlns="http://www.w3.org/2000/svg" xmlns:xlink="http://www.w3.org/1999/xlink">
    <!-- Generator: Sketch 41.2 (35397) - http://www.bohemiancoding.com/sketch -->
    <title>affirm_logo_indigo</title>
    <desc>Created with Sketch.</desc>
    <defs></defs>
    <g id="Page-1" stroke="none" stroke-width="1" fill="none" fill-rule="evenodd">
        <g id="affirm_logo_indigo" fill="#0FA0EA">
            <path d="M298.3915,0.0025 C288.7035,0.0025 280.8205,7.8835 280.8205,17.5715 C280.8205,27.2575 288.7035,35.1385 298.3915,35.1385 C308.0795,35.1385 315.9625,27.2575 315.9625,17.5715 C315.9625,7.8835 308.0795,0.0025 298.3915,0.0025 Z M283.2952,165.999 L313.2842,165.999 L313.2842,46.685 L283.2952,46.685 L283.2952,165.999 Z M403.474,43.6161 C388.499,43.6161 371.227,54.4201 365.543,67.9541 L365.543,46.6851 L337.086,46.6851 L337.086,165.9991 L367.074,165.9991 L367.074,110.5911 C367.074,87.1381 376.081,74.0461 395.689,73.6861 L412.436,44.3031 C410.7,43.8701 405.057,43.6161 403.474,43.6161 Z M524.0442,43.695 C511.1742,43.695 499.6332,48.533 491.5492,57.316 L491.1332,57.766 L490.7222,57.313 C482.7382,48.531 471.2412,43.695 458.3582,43.695 C430.7802,43.695 410.7612,63.803 410.7612,91.506 L410.7612,166.038 L440.2772,166.038 L440.2772,90.867 C440.2772,79.237 447.3732,71.724 458.3582,71.724 C469.3472,71.724 476.4472,79.237 476.4472,90.867 L476.4472,166.038 L505.9552,166.038 L505.9552,90.867 C505.9552,79.237 513.0552,71.724 524.0442,71.724 C535.0332,71.724 542.1332,79.237 542.1332,90.867 L542.1332,166.038 L571.6412,166.038 L571.6412,91.506 C571.6412,63.803 551.6222,43.695 524.0442,43.695 Z M246.986,35.6916 C246.986,31.7546 247.514,27.0406 250.882,24.4536 C254.572,21.5876 259.972,22.1136 264.34,22.3336 L270.165,0.6106 L267.059,0.4466 C254.537,-0.2234 241.371,-1.1524 230.388,6.1076 C221.082,12.2596 216.938,22.8476 216.938,33.7206 L216.938,46.6846 L181.177,46.6846 L181.177,35.6916 C181.177,31.7686 181.695,27.1136 184.997,24.4956 C188.688,21.5706 194.154,22.1136 198.531,22.3336 L204.355,0.6106 L201.249,0.4466 C188.633,-0.2284 175.331,-1.1494 164.337,6.3016 C155.215,12.4836 151.179,22.9776 151.179,33.7206 L151.179,46.6846 L137.652,46.6846 L137.652,68.3706 L151.179,68.3706 L151.179,165.9986 L181.177,165.9986 L181.177,68.3706 L216.938,68.3706 L216.938,165.9986 L246.939,165.9986 L246.939,68.3706 L267.708,68.3706 L267.708,46.6846 L246.986,46.6846 L246.986,35.6916 Z M122.427,166.0111 L122.409,60.6541 C122.322,51.8381 115.658,44.6051 107.086,43.6181 C101.353,43.2511 95.267,45.3491 91.679,49.9941 L0,165.9991 L22.596,165.9991 C31.614,165.9891 38.778,161.3071 44.202,154.3011 L94.981,90.0701 L94.981,166.0111 L122.427,166.0111 Z" id="affirm_logo"></path>
        </g>
    </g>
</svg>