<svg xmlns="http://www.w3.org/2000/svg" xmlns:xlink="http://www.w3.org/1999/xlink" width="100" height="100" viewBox="0 0 100 100"><g transform="translate(50 50) scale(0.69 0.69) rotate(0) translate(-50 -50)" style="fill:#333333"><svg fill="#333333" xmlns="http://www.w3.org/2000/svg" xmlns:xlink="http://www.w3.org/1999/xlink" version="1.1" x="0px" y="0px" viewBox="0 0 90 90" style="enable-background:new 0 0 90 90;" xml:space="preserve"><path d="M68.8944702,68.4815063c3.6032104-12.4006958,2.0466919-27.7338257-8.7888794-35.3445435  c-0.1633911-3.6977539-2.5025024-6.9570923-6.0541382-9.038208l3.7494507-7.0688477  c0.7223511-1.3673096,0.4299927-1.5823364-0.6535034-0.4816284l-6.0800171,6.1746216  c-1.2985229-0.4472046-2.6831055-0.74823-4.1450195-0.8944092l-1.5307007-10.5001221  c-0.2235718-1.5307617-0.5847778-1.5307617-0.8084106,0l-1.5392456,10.5001221  c-1.4534302,0.1461792-2.8464966,0.4472046-4.1364136,0.8944092l-6.0800171-6.1746216  c-1.0834961-1.100708-1.3845215-0.8856812-0.6535645,0.4816284l3.7408447,7.0688477  c-2.7862549,1.6339111-4.8415527,4.0074463-5.6671753,6.7507324c-12.2371826,7.1635132-12.9595947,23.3394165-8.0147705,35.5078735  c1.0232544,2.5283203,5.1854858,1.4189453,4.1449585-1.1437988c-3.9472046-9.7088623-4.3513794-22.2041626,3.8439941-29.0581055  c0.8170166,2.8551025,2.958313,5.3232422,5.8908081,6.9829102c1.0834961,5.8132935,1.840332,11.7127075,2.0897217,17.5947876  c0.180603,3.9559326,0.6621704,9.4424438-1.4190063,13.0285034c-1.6080933,2.7518311-5.8649292,1.6253052-8.6082153,1.6253052  c-2.769104,0-2.769104,4.2998047,0,4.2998047c3.6033325,0,8.2814941,0.9116211,11.059082-1.9779053  c3.1045532-3.2248535,3.2851563-8.8231812,3.3453369-13.0025635c0.008606-0.3526001,0.008606-0.7052002,0.008606-1.0578003  c0-6.2261353-0.7052002-12.5297241-1.7800903-18.7128296c1.3328857,0.2924194,2.7260742,0.4644165,4.1793823,0.4644165  c0.5418091,0,1.0834961-0.0258179,1.6080933-0.0687866c-1.0319214,6.0540771-1.7113037,12.2200928-1.7113037,18.2999878  c0,0.3612061,0,0.7138062,0.008606,1.0750122c0.0601807,4.1879883,0.2407837,9.77771,3.3452759,13.0025635  c2.7776489,2.8895264,7.4558105,1.9779053,11.0591431,1.9779053c2.769104,0,2.769104-4.2998047,0-4.2998047  c-2.6143188,0-6.828125,1.0750122-8.487915-1.4102783c-2.2960815-3.4312744-1.7113037-9.3563843-1.5393066-13.2435303  c0.2321777-5.4606934,0.8944092-10.9472656,1.8574829-16.3564453c3.5861206-1.2469482,6.4324951-3.5516357,7.9031372-6.4067383  c1.0233154,0.8944092,1.9779053,1.8660889,2.8206787,2.9324951c6.0283203,7.6193237,5.4692993,17.5776367,2.8894043,26.4352417  C63.9668579,69.9949951,68.1204834,71.130188,68.8944702,68.4815063z M44.9874878,35.0976563  c-2.5197144,0-4.5664063-2.0466919-4.5664063-4.5663452c0-2.5197144,2.0466919-4.5664063,4.5664063-4.5664063  s4.5664063,2.0466919,4.5664063,4.5664063C49.553894,33.0509644,47.5072021,35.0976563,44.9874878,35.0976563z"></path><circle cx="44.9874725" cy="30.5313263" r="1.4017334"></circle></svg></g></svg>