<?xml version="1.0" encoding="utf-8"?>
<!-- Generator: Adobe Illustrator 19.1.0, SVG Export Plug-In . SVG Version: 6.00 Build 0)  -->
<!DOCTYPE svg PUBLIC "-//W3C//DTD SVG 1.1//EN" "http://www.w3.org/Graphics/SVG/1.1/DTD/svg11.dtd">
<svg version="1.1" id="Layer_1" xmlns="http://www.w3.org/2000/svg" xmlns:xlink="http://www.w3.org/1999/xlink" x="0px" y="0px"
	 viewBox="0 0 730 280" enable-background="new 0 0 730 280" xml:space="preserve" width="730" height="280" preserveAspectRatio="none">
<g>
	<g>
		<polygon fill="#008445" points="126.2,10.5 91.8,30.3 126.2,50.1 160.5,30.3 		"/>
		<polygon fill="#008445" points="88,32.5 53.7,52.3 88,72.1 122.3,52.3 		"/>
		<polygon fill="#008445" points="164.3,32.5 130,52.3 164.3,72.1 198.6,52.3 		"/>
		<polygon fill="#008445" points="202.4,54.5 168.1,74.3 202.4,94.1 236.7,74.3 		"/>
		<polygon fill="#008445" points="49.9,54.5 15.6,74.3 49.9,94.1 84.2,74.3 		"/>
		<polygon fill="#C3DD89" points="13.7,205.3 48,225.1 48,185.5 13.7,165.7 		"/>
		<polygon fill="#C3DD89" points="51.8,227.3 86.1,247.2 86.1,207.5 51.8,187.7 		"/>
		<polygon fill="#C3DD89" points="13.7,161.3 48,181.1 48,141.5 13.7,121.7 		"/>
		<polygon fill="#C3DD89" points="13.7,117.3 48,137.1 48,97.4 13.7,77.6 		"/>
		<polygon fill="#C3DD89" points="89.9,249.4 124.3,269.2 124.3,229.5 89.9,209.7 		"/>
		<polygon fill="#1F3E7C" points="238.7,205.3 204.3,225.1 204.3,185.5 238.7,165.7 		"/>
		<polygon fill="#1F3E7C" points="200.5,227.3 166.2,247.2 166.2,207.5 200.5,187.7 		"/>
		<polygon fill="#1F3E7C" points="238.7,161.3 204.3,181.1 204.3,141.5 238.7,121.7 		"/>
		<polygon fill="#1F3E7C" points="238.7,117.3 204.3,137.1 204.3,97.4 238.7,77.6 		"/>
		<polygon fill="#1F3E7C" points="162.4,249.4 128.1,269.2 128.1,229.5 162.4,209.7 		"/>
		<polygon fill="#008445" points="126.2,226.2 160.5,206.4 126.2,186.6 91.8,206.4 		"/>
		<polygon fill="#008445" points="164.3,204.2 198.6,184.4 164.3,164.6 130,184.4 		"/>
		<polygon fill="#008445" points="88,204.2 122.3,184.4 88,164.6 53.7,184.4 		"/>
		<polygon fill="#C3DD89" points="200.5,97.4 166.2,77.6 166.2,117.3 200.5,137.1 		"/>
		<polygon fill="#C3DD89" points="162.4,75.4 128.1,55.6 128.1,95.2 162.4,115.1 		"/>
		<polygon fill="#C3DD89" points="200.5,141.5 166.2,121.7 166.2,161.3 200.5,181.1 		"/>
		<polygon fill="#1F3E7C" points="51.8,97.4 86.1,77.6 86.1,117.3 51.8,137.1 		"/>
		<polygon fill="#1F3E7C" points="89.9,75.4 124.3,55.6 124.3,95.2 89.9,115.1 		"/>
		<polygon fill="#1F3E7C" points="51.8,141.5 86.1,121.7 86.1,161.3 51.8,181.1 		"/>
		<polygon fill="#1F3E7C" points="162.4,161.3 162.4,121.7 128.1,141.5 128.1,181.1 		"/>
		<polygon fill="#C3DD89" points="89.9,161.3 124.2,181.1 124.2,141.5 89.9,121.7 		"/>
		<polygon fill="#008445" points="126.2,98.5 91.8,118.4 126.2,138.2 160.5,118.4 		"/>
	</g>
	<g>
		<path fill="#1F3E7C" d="M322.9,75.7h25.6l54,126.9h-29l-11.5-28.3h-53.3l-11.5,28.3h-28.3L322.9,75.7z M352,149.9L335.3,109
			l-16.7,40.9H352z"/>
		<path fill="#1F3E7C" d="M400.8,154.9v-0.4c0-27.7,22.3-50.2,52.4-50.2c29.9,0,52,22.1,52,49.9v0.4c0,27.7-22.3,50.2-52.4,50.2
			C423,204.8,400.8,182.7,400.8,154.9z M478.2,154.9v-0.4c0-14.2-10.3-26.6-25.4-26.6c-15.7,0-25,12.1-25,26.3v0.4
			c0,14.2,10.3,26.6,25.4,26.6C468.9,181.2,478.2,169.2,478.2,154.9z"/>
		<path fill="#1F3E7C" d="M514.4,76.6h51.5c30.1,0,48.3,17.8,48.3,43.6v0.4c0,29.2-22.7,44.3-51,44.3h-21.1v37.8h-27.7V76.6z
			 M564.1,140.2c13.9,0,22-8.3,22-19.1v-0.4c0-12.4-8.6-19.1-22.5-19.1h-21.4v38.5H564.1z"/>
		<path fill="#1F3E7C" d="M616.2,184.3l16.4-19.6c11.3,9.4,23.2,15.3,37.6,15.3c11.3,0,18.2-4.5,18.2-11.9v-0.4
			c0-7-4.3-10.6-25.4-16c-25.4-6.5-41.8-13.5-41.8-38.5v-0.4c0-22.9,18.4-38,44.1-38c18.4,0,34,5.8,46.8,16l-14.4,20.9
			c-11.2-7.7-22.1-12.4-32.8-12.4c-10.6,0-16.2,4.9-16.2,11v0.4c0,8.3,5.4,11,27.2,16.6c25.6,6.7,40,15.8,40,37.8v0.4
			c0,25-19.1,39.1-46.3,39.1C650.5,204.5,631.3,197.8,616.2,184.3z"/>
	</g>
</g>
</svg>
