<?xml version="1.0" encoding="utf-8"?>
<!-- Generator: Adobe Illustrator 21.0.2, SVG Export Plug-In . SVG Version: 6.00 Build 0)  -->
<svg version="1.1" id="Layer_1" xmlns="http://www.w3.org/2000/svg" xmlns:xlink="http://www.w3.org/1999/xlink" x="0px" y="0px"
	 viewBox="0 0 16 16" style="enable-background:new 0 0 16 16;" xml:space="preserve">
<path d="M8,0C3.6,0,0,3.6,0,8s3.6,8,8,8s8-3.6,8-8S12.4,0,8,0z M8,2c1.3,0,2.5,0.4,3.5,1.1C9.9,4.6,8.4,6.2,6.9,7.7
	C5.6,9,4.4,10.2,3.1,11.5c-0.3-0.4-0.6-0.9-0.8-1.6C2.1,9.3,2,8.6,2,8C2,4.7,4.7,2,8,2z M12.9,4.5C13.6,5.5,14,6.7,14,8
	c0,3.3-2.7,6-6,6c-1.3,0-2.5-0.4-3.5-1.1L12.9,4.5z"/>
</svg>
