<?xml version="1.0" encoding="utf-8"?>
<!-- Generator: Adobe Illustrator 21.0.2, SVG Export Plug-In . SVG Version: 6.00 Build 0)  -->
<svg version="1.1" id="Layer_1" xmlns="http://www.w3.org/2000/svg" xmlns:xlink="http://www.w3.org/1999/xlink" x="0px" y="0px"
	 viewBox="0 0 100 125" style="enable-background:new 0 0 100 125;" xml:space="preserve">
<path d="M7.1,27.2L51,5l43.9,22.2c1.9,1,1.2,3.8-0.9,3.8h-4v4c0,1.1-0.9,2-2,2H14c-1.1,0-2-0.9-2-2v-4H8C5.9,31,5.2,28.2,7.1,27.2z
	 M94,83H8c-1.1,0-2,0.9-2,2v10h90V85C96,83.9,95.1,83,94,83z M27,41h-9c-0.6,0-1,0.4-1,1v27h-3c-1.1,0-2,0.9-2,2v8h78v-8
	c0-1.1-0.9-2-2-2h-3V42c0-0.6-0.4-1-1-1h-9c-0.6,0-1,0.4-1,1v27h-8V42c0-0.6-0.4-1-1-1h-9c-0.6,0-1,0.4-1,1v27h-8V42
	c0-0.6-0.4-1-1-1h-9c-0.6,0-1,0.4-1,1v27h-8V42C28,41.4,27.6,41,27,41z"/>
</svg>
