<?xml version="1.0" encoding="utf-8"?>
<!-- Generator: Adobe Illustrator 23.0.2, SVG Export Plug-In . SVG Version: 6.00 Build 0)  -->
<svg version="1.0" id="Layer_1" xmlns="http://www.w3.org/2000/svg" xmlns:xlink="http://www.w3.org/1999/xlink" x="0px" y="0px"
	 viewBox="0 0 1920 1080" style="enable-background:new 0 0 1920 1080;" xml:space="preserve">
<style type="text/css">
	.st0{fill-rule:evenodd;clip-rule:evenodd;fill:#FFFFFF;}
</style>
<g>
	<path d="M705.49,431.32c1.6,0,3,0.07,4.22,0.17c4.65,0.4,6.59,1.37,6.59,1.37l1.79-7.54l2.85-12.02c0,0,1.25,5.17,2.59,12.15
		c0.94,4.88,1.92,10.65,2.56,16.16c1.09,9.43,13.18,7.87,27.25,4.68c5.89-1.33,12.12-2.95,18.05-4.17
		c7.53-1.54,12.81-7.07,16.47-13.37c6.11-10.5,7.71-23.17,7.71-23.17h87.17h98.62c0,0-54.72,16.57-78.09,51.97
		c-10.1,15.3-14.34,34.11-5.8,56.62c0,0-57.55-8.76-110.09,5.22c-36.62,9.74-70.8,30.52-81.37,73.01h0
		c-10.73-43.11-45.77-63.88-82.99-73.44c-52.09-13.37-108.47-4.79-108.47-4.79c7.08-18.66,5.37-34.77-1.17-48.45
		c-19.61-41.04-82.73-60.15-82.73-60.15h119.12h66.68c0,0,1.55,12.23,7.4,22.62c3.67,6.53,9.04,12.33,16.79,13.92
		c7.11,1.46,14.67,3.5,21.54,4.93c12.53,2.61,22.76,3.2,23.75-5.44c0.65-5.61,1.66-11.49,2.61-16.43
		c1.32-6.84,2.54-11.88,2.54-11.88l2.67,11.26l1.97,8.3c0,0,2.06-1.03,7.03-1.41c1.11-0.08,2.37-0.14,3.77-0.14H705.49z"/>
</g>
</svg>
