<?xml version="1.0" encoding="utf-8"?>
<!-- Generator: Adobe Illustrator 24.1.0, SVG Export Plug-In . SVG Version: 6.00 Build 0)  -->
<svg version="1.1" xmlns="http://www.w3.org/2000/svg" xmlns:xlink="http://www.w3.org/1999/xlink" x="0px" y="0px"
	 viewBox="0 0 100 100" style="enable-background:new 0 0 100 100;" xml:space="preserve">
<style type="text/css">
	.st0{fill:#666666;}
	.st1{fill:#FF9900;}
</style>
<g id="Layer_1">
	<path d="M85.4,39c-0.1-1.5,0-2.9,0.2-3.9c0.2-1.4,0.4-3-0.8-4.4c-0.7-0.8-1.8-1.3-2.9-1.3H70.5v-4.4c1.9-1.4,3.2-3.2,3.2-5.5
		c0-3.7-3-6.8-6.8-6.8c-0.5,0-0.9,0-1.3,0.1c-1.9-4.3-6.2-7.3-11.1-7.3c-1.4,0-2.7,0.2-4,0.7c-2.3-3.7-6.4-6-10.8-6
		c-5.6,0-10.5,3.6-12.1,8.8c-3.5,0.2-7,2.3-9.1,5.4c-2,2.9-2.4,6.3-1.1,9.3c0.3,0.8,0.7,1.5,1.2,2.1v57.7c0,0.8-0.2,1.6-0.5,2.3
		c-0.7,1.5-1.1,3.1-1.1,4.7c0,8.4,17.3,9.6,27.7,9.6s27.7-1.3,27.7-9.6c0-1.6-0.4-3.2-1.1-4.7c-0.3-0.7-0.5-1.5-0.5-2.3v-2.9
		c0.3,0,0.5-0.1,0.8-0.2c4.7-2,8.7-5.5,11.6-10.1c3.1-5,3.4-10.9,3.4-14.9C86.2,54.8,85.9,43.9,85.4,39z M21.6,16.6
		c1.5-2.2,4.1-3.7,6.4-3.7c0.2,0,0.5,0,0.8,0c1,0.1,2-0.6,2.1-1.6c0.8-4.2,4.4-7.2,8.7-7.2c3.6,0,6.8,2.1,8.1,5.4
		c0.2,0.5,0.6,0.9,1.2,1.1c0.5,0.2,1.1,0.1,1.6-0.1c1.2-0.7,2.6-1,4-1c3.8,0,7.1,2.7,7.9,6.4c0.1,0.6,0.6,1.2,1.2,1.4
		c0.6,0.2,1.3,0.2,1.8-0.2c0.5-0.3,1-0.4,1.5-0.4c1.6,0,2.8,1.3,2.8,2.8c0,3.5-8.9,5.2-14.7,6.4c-3.8,0.7-7,1.4-8.9,2.4
		c-6.9,3.9-6,11.2-5.2,17c0.3,2.1,0.6,4.1,0.5,5.8c-0.2,3.6-2.1,5.9-3.8,5.9c-1.3,0-2.5-1.4-3.2-3.7c-0.9-2.6-0.5-5.3-0.1-8.2
		c0.5-3.4,0.9-6.8-0.4-10.6c-1.5-4.3-4.9-6.1-7.8-7.7c-2.3-1.3-4.4-2.4-5.3-4.5C19.8,19.8,20.9,17.7,21.6,16.6z M23.2,48.1V36.4h0.1
		v-6.7c0.3,0.2,0.6,0.3,0.9,0.5c2.7,1.4,4.9,2.7,6,5.6c0.5,1.3,0.6,2.6,0.7,4c-2.3-0.3-4.1-0.7-5.4-1L23.2,48.1z M44.4,40.5
		c-0.3-4.2,0.3-7.1,3.6-8.9c1.3-0.7,4.5-1.4,7.7-2c3.2-0.6,6.7-1.3,9.8-2.4v10.5C63.7,38.8,57.2,40.5,44.4,40.5z M76.5,66.4
		C75,69,72.9,71,70.5,72.5V36.8H78c0,0.9,0,1.9,0.1,2.9c0.5,4.5,0.7,14.8,0.7,15.7C78.9,60.4,78.1,63.8,76.5,66.4z"/>
	<path class="st0" d="M21.6,16.6c1.5-2.2,4.1-3.7,6.4-3.7c0.2,0,0.5,0,0.8,0c1,0.1,2-0.6,2.1-1.6c0.8-4.2,4.4-7.3,8.7-7.3
		c3.6,0,6.8,2.1,8.1,5.4c0.2,0.5,0.6,0.9,1.2,1.1c0.5,0.2,1.1,0.1,1.6-0.1c1.2-0.7,2.6-1,4-1c3.8,0,7.1,2.7,7.9,6.4
		c0.1,0.6,0.6,1.2,1.2,1.4c0.6,0.2,1.3,0.2,1.8-0.2c0.5-0.3,1-0.4,1.5-0.4c1.6,0,2.8,1.3,2.8,2.8c0,3.5-8.9,5.2-14.7,6.4
		c-3.8,0.7-7,1.4-8.9,2.4c-6.9,3.9-6,11.2-5.2,17c0.3,2.1,0.6,4.1,0.5,5.8c-0.2,3.6-2.1,5.9-3.8,5.9c-1.3,0-2.5-1.4-3.2-3.7
		c-0.9-2.6-0.5-5.3-0.1-8.2c0.5-3.4,0.9-6.8-0.4-10.6c-1.5-4.3-4.9-6.1-7.8-7.7c-2.3-1.3-4.4-2.4-5.3-4.5
		C19.8,19.8,20.9,17.7,21.6,16.6z"/>
</g>
<g id="Layer_2">
	<path class="st1" d="M23.2,38.1c0.2,17.7-0.1,35.3,0.1,53c2.3,1.5,6.1,2.2,10.1,3c6.2,1.2,18.6,1.2,24.3-0.5
		c3.7-1.1,6.4-2.3,8.2-3.6c-0.2-17.4,0-35.2-0.2-52.5c-2.6,1-5.6,1.7-7.2,2c-8.3,1.3-14,1-14,1c0.3,1.2,0.7,2.9,1,7.1
		c0.1,2,0.3,4.5-1,6.8c-0.4,0.7-2.6,4.6-6.4,4.9c-2.5,0.2-4.8-1.6-6.1-3.6c-0.5-0.7-1.5-2.5-1.8-5.5c-0.4-4.2,0.7-6.7,0.7-7.6
		c0.1-1.1,0.1-2,0.2-2.7C28.5,39.5,25.8,38.5,23.2,38.1z"/>
</g>
</svg>
