<?xml version="1.0" encoding="utf-8"?>
<!-- Generator: Adobe Illustrator 24.2.3, SVG Export Plug-In . SVG Version: 6.00 Build 0)  -->
<svg version="1.0" id="Layer_1" xmlns="http://www.w3.org/2000/svg" xmlns:xlink="http://www.w3.org/1999/xlink" x="0px" y="0px"
	 viewBox="0 0 1920 1080" style="enable-background:new 0 0 1920 1080;" xml:space="preserve">
<style type="text/css">
	.st0{fill:#FFFFFF;}
	.st1{fill:#999999;}
	.st2{fill:#333333;}
</style>
<g>
	<path class="st0" d="M1020,785.3c-10.6-0.2-20.8-0.1-30.8-0.8c-10-0.8-20-2.4-30-3.9c-4.8-0.7-9.6-1.5-14.2-2.6
		c-7.4-1.8-14.8-3.9-22.1-6.1c-5.3-1.6-10.6-3.2-15.7-5.3c-11.1-4.8-22.3-9.6-33.2-14.9c-14.4-7.1-28-15.8-40.7-25.6
		c-7.4-5.7-14.9-11.4-21.7-17.8c-8.7-8.2-17.1-16.9-25-25.9c-6.6-7.6-12.6-15.8-18.4-24c-5.6-8-10.8-16.3-15.8-24.7
		c-3-5-5.5-10.3-7.9-15.7c-4-9-8-18.1-11.5-27.3c-2.5-6.6-4.7-13.3-6.5-20.1c-2.6-9.8-5.1-19.7-6.9-29.6c-1.7-9-3-18.1-3.6-27.2
		c-0.7-9.8-0.6-19.7-0.6-29.6c0-6.7,0.4-13.4,0.9-20.1c0.4-5.3,1.2-10.6,2-15.8c1.1-7,2.2-14,3.7-20.9c1.6-7.3,3.4-14.5,5.6-21.6
		c2.8-9,5.8-18,9.4-26.7c3.7-9.1,8.1-17.9,12.5-26.7c3.1-6.2,6.7-12.1,10.3-18c2.6-4.3,5.5-8.4,8.3-12.5c3-4.3,5.8-8.8,9.1-12.8
		c6.9-8.3,14-16.5,21.3-24.5c5.1-5.5,10.5-10.8,16.2-15.7c6.9-6,14.1-11.9,21.5-17.2c7.8-5.7,15.8-11,24.1-15.9
		c8.2-4.9,16.7-9.5,25.4-13.5c10.3-4.8,20.9-9.1,31.6-12.9c8.3-3,16.9-5.2,25.5-7.2c10.1-2.3,20.4-4.3,30.6-6
		c6.4-1.1,12.8-1.6,19.3-1.9c9.5-0.4,19.1-0.6,28.6-0.3c7.7,0.2,15.5,1,23.2,1.9c9,1.1,17.9,2.4,26.8,4c5.6,1,11.2,2.2,16.7,3.8
		c9.6,2.7,19.4,5.2,28.6,9.3c8.1,3.6,16.5,6.6,24.6,10.3c5.9,2.7,11.5,5.9,17.1,9.1c13,7.5,25.3,16,37.1,25.3
		c4.2,3.3,8.3,6.8,12.3,10.4c5.7,5.3,11.4,10.7,16.8,16.4c7.4,7.7,14.5,15.7,20.8,24.4c4.1,5.6,8.6,11,12.4,16.8
		c4.1,6.1,7.7,12.6,11.3,19c3.7,6.7,7.5,13.4,10.6,20.4c3.9,8.8,7.4,17.9,10.8,27c2.2,5.8,4,11.8,5.6,17.8c1.8,6.9,3.3,14,4.8,21
		c1.3,6.1,2.6,12.2,3.3,18.3c1.1,9.9,1.7,19.8,2.4,29.8c0.4,5.9,0.8,11.9,0.5,17.8c-0.3,8.3-1.2,16.6-2,24.9
		c-0.6,6.1-1.3,12.1-2.2,18.1c-0.4,2.5-1.2,5-1.7,7.5c-0.5,2.1-0.7,4.3-1.2,6.4c-1.3,5.5-2.5,10.9-3.9,16.4
		c-1.1,4.1-2.3,8.2-3.7,12.2c-2.4,6.7-4.9,13.4-7.7,20c-3,7.1-6.4,14.1-9.8,21.1c-2.2,4.6-4.5,9.2-6.9,13.6
		c-1.5,2.8-3.6,5.2-5.3,7.9c-1.9,3.1-3.6,6.3-5.5,9.4c-1.1,1.7-2.2,3.4-3.5,5c-4,5.3-8,10.6-12.3,15.7c-5.8,6.9-11.9,13.7-18,20.3
		c-4.6,4.9-9.3,9.7-14.3,14.2c-4.8,4.3-10,8.2-15.1,12.2c-2.6,2.1-5.2,4.4-8,6.4c-5.3,3.8-10.8,7.3-16.2,11c-2.1,1.4-4.1,3-6.2,4.3
		c-3.2,1.9-6.4,3.7-9.7,5.4c-5.6,2.9-11.2,5.9-16.9,8.6c-6.1,2.8-12.2,5.5-18.5,7.9c-6.9,2.7-13.8,5.3-20.9,7.4
		c-7.5,2.2-15.2,4-22.8,5.7c-5.8,1.3-11.6,2.5-17.4,3.4c-5.8,0.9-11.6,1.6-17.4,2.2C1033.1,784.3,1026.3,784.8,1020,785.3z"/>
	<path class="st1" d="M1015.4,192.9c71.7,1.2,137.8,26.2,193.6,76.5c55.4,50,88.2,112.4,96.1,186.8c8.7,82.4-12.5,156.6-65.6,220.7
		c-52.7,63.7-120.9,99.8-203.1,107.1c-76.8,6.8-146.3-14.2-207.3-61.7c-58.1-45.3-94.4-104.6-108.7-176.7
		c-11.6-58.4-5.4-115.5,17.8-170.5c23.2-55,59.4-99.6,109.2-132.5C897.3,209.7,952.4,193.6,1015.4,192.9z"/>
	<path class="st2" d="M1017.1,774.7c-77.8-0.9-140.6-24.8-194.2-71.8c-57.6-50.5-89.6-114.9-96-190.8
		c-6.2-73.8,13.8-141.3,60.2-199.3c51.2-64.2,118.5-101.4,200.7-107.8c76.4-6,145.3,15.6,204.7,64.5
		c58.2,47.9,92.7,109.7,101.7,184.5c10.2,85-13.3,160.7-69.9,224.6C1168,742.3,1095.6,773,1017.1,774.7z"/>
	<path class="st1" d="M1091.4,590c-15.8,0.4-31.7,0.9-47.5,1c-20.8,0.2-41.6,0.2-62.5,0.2c-11.7-0.1-23.5-0.3-35.2-0.8
		c-12.1-0.5-24.1-1.5-36.2-2.3c-9.3-0.7-18.7-1.3-28-2.3c-9.6-1.1-19.2-2.4-28.8-3.9c-12.1-1.8-24.1-3.8-36.1-5.9
		c-3.5-0.6-7-1.4-10.4-2.2c-1.9-0.5-2.2-1.9-0.9-3.1c2.5-2.2,5.1-4.6,7.9-6.2c11.1-6.3,20.5-14.6,28.6-24.5
		c11-13.4,19.3-28.4,25.7-44.4c3.2-7.9,5.2-16.3,7.4-24.6c2.2-8.1,4.1-16.3,5.8-24.5c1.9-9.6,3.5-19.2,5.1-28.9
		c0.9-5.1,1.6-10.3,2.4-15.4c0.6-3.8,1.1-4,4.7-3.2c4.6,1,9.2,1.8,13.9,2.3c12.1,1.3,24.2,2.4,36.3,3.4c10.5,0.9,21,1.6,31.5,2.3
		c4.4,0.3,8.9,0.4,13.3,0.6c10.9,0.4,21.8,1,32.7,1.1c9.2,0.1,18.4-0.1,27.6-0.6c12.8-0.6,25.5-1.2,38.2-2.4
		c9-0.8,17.9-2.5,26.9-3.8c6.2-0.9,12.4-2,18.6-3c2.2-0.4,3.3,0.3,3.6,2.8c1.2,9.7,2.7,19.4,4.3,29.1c1,6.2,2.3,12.4,3.6,18.5
		c2.3,10.1,4.4,20.3,7.3,30.3c3.4,11.5,6.8,23.1,13.3,33.4c3.6,5.7,6.5,11.8,10.3,17.3c5.6,8.2,12.1,15.7,19.9,22
		c5,4,10,8.1,15,12.1c2.3,1.8,4.7,3.4,6.9,5.2c1.7,1.5,1.2,2.5-1,3c-6,1.2-12,2.7-18,3.9c-11.3,2.2-22.6,4.4-34,6.2
		c-10.2,1.6-20.4,2.6-30.6,3.6c-12.1,1.2-24.1,2.3-36.2,3.3c-1.8,0.2-3.6,0-5.4,0C1091.4,589.8,1091.4,589.9,1091.4,590z"/>
	<path class="st1" d="M788.4,608c0.9-2.6,2.6-7.5,4.3-12.4c1.2-3.5,2.5-7.1,3.8-10.6c1-2.8,2.6-3.7,5.4-3.1c9.3,2,18.6,4.3,28,6
		c10,1.9,20.1,3.5,30.1,4.8c11,1.4,22,2.5,33,3.5c7.8,0.7,15.7,1.1,23.5,1.7c10.9,0.7,21.8,1.5,32.8,2.2c1,0.1,1.9,0,2.9,0.1
		c19.9,0.4,39.8,0.9,59.7,1.2c6.3,0.1,12.6,0,18.9,0c5.1,0,10.1,0,15.2-0.1c13.3-0.3,26.6-0.6,39.8-1.2c11.1-0.5,22.1-1.3,33.1-2.3
		c10.7-1,21.4-2.5,32-3.9c10.5-1.4,20.9-2.7,31.3-4.6c11.5-2.1,23-4.9,34.4-7.3c1.6-0.4,3.3-0.8,4.9-1.1c1.5-0.2,3-0.6,3.7,1.8
		c1.8,6.2,4.1,12.3,6.2,18.4c0.7,2.1,1.8,4.1,2.1,6.3c0.8,5.5-2.8,9.4-9.3,11.7c-5.8,2-12.1,2.8-18.1,4.1c-2.6,0.6-5.2,1.2-7.9,1.7
		c-7.6,1.3-15.2,2.7-22.8,3.8c-6.5,1-13,1.7-19.6,2.5c-6.8,0.8-13.6,1.6-20.4,2.3c-5.3,0.5-10.6,0.8-16,1.1
		c-8.4,0.6-16.8,1.3-25.2,1.7c-11.9,0.5-23.7,0.9-35.6,1.1c-12.8,0.3-25.7,0.5-38.5,0.7c-7.7,0.1-15.3,0.3-23,0.2
		c-10.8,0-21.6-0.1-32.4-0.4c-10.8-0.4-21.5-1.1-32.3-1.7c-5.5-0.3-10.9-0.1-16.4-0.5c-9.7-0.8-19.4-1.9-29.1-2.8
		c-7.4-0.7-14.9-1.1-22.3-1.8c-6.6-0.7-13.3-1.5-19.9-2.5c-8.7-1.3-17.3-2.7-25.9-4.3c-6.5-1.2-13-2.8-19.5-4.2
		c-1.4-0.3-2.7-0.7-4.1-0.9C790.2,618.1,788.4,615.9,788.4,608z"/>
	<path class="st1" d="M1132.1,365.9c0.6,6.4,1.2,12.8,1.9,19.1c0.2,2.2-0.4,3.4-2.9,3.8c-7.4,1.1-14.7,2.6-22.1,3.9
		c-5,0.9-10.1,1.8-15.1,2.5c-4.9,0.7-9.7,1.1-14.6,1.5c-10.9,0.9-21.7,2-32.6,2.6c-7.6,0.4-15.2,0-22.8-0.1
		c-8.5-0.1-16.9,0-25.3-0.3c-7.8-0.3-15.5-1-23.3-1.4c-8.8-0.5-17.6-0.8-26.3-1.4c-6.3-0.4-12.7-1.2-19-1.9
		c-5.4-0.5-10.8-0.9-16.2-1.5c-5.9-0.7-11.8-1.6-17.7-2.6c-6-1-5.8-1.1-5-7.3c0.7-5.5,0.9-11.1,1.3-16.7c0.1-1.8,0.3-3.6,0.5-5.4
		c0.2-2,1.7-1.8,3-1.7c8.9,0.9,17.8,2.1,26.7,2.8c13.2,1.1,26.5,2.1,39.7,2.9c13.7,0.9,27.3,1.8,41,2.2c13,0.4,26,0.3,39,0
		c9.6-0.2,19.1-0.9,28.6-1.7c8.8-0.7,17.6-1.7,26.4-2.7c8.4-0.9,16.9-1.9,25.3-3c2.2-0.3,4.3-1,6.5-1.5c1.5-0.3,2.8-0.7,2.8,1.7
		c0,2.1,0.4,4.1,0.6,6.2C1132.3,365.8,1132.2,365.8,1132.1,365.9z"/>
	<path class="st1" d="M1131.1,343.7c0.1,5.6-0.6,4.9-6.7,5.9c-9.8,1.5-19.7,2.7-29.5,3.8c-10.5,1.1-21.1,2-31.7,2.6
		c-10.9,0.6-21.9,0.9-32.8,1.1c-11.5,0.2-23,0.4-34.5,0.3c-10.4-0.1-20.9-0.5-31.3-1c-6.4-0.3-12.8-1.1-19.3-1.6
		c-5.9-0.5-11.9-0.8-17.8-1.6c-7.7-1-15.4-2.3-23-3.5c-2.6-0.4-5.2-0.9-7.8-1.3c-2.7-0.4-3.8-1.8-3.3-4.4c0.2-1.4,0.2-2.9,0.6-4.2
		c1.1-3,2.4-5.6,6-6.6c8.1-2.1,16.2-4.6,24.3-6.6c5.4-1.3,10.9-2.2,16.3-3.2c2.8-0.5,5.6-1,8.4-1.4c2.4-0.3,3.9,1.3,3.8,4.2
		c-0.1,2.5,0.4,3.3,3.2,3.1c9-0.4,18-0.4,27-0.5c2.2,0,3.8,0.3,3.5,3.1c-0.2,1.9,1.3,1.5,2.3,1.5c12.1,0,24.2,0,36.4,0
		c3.7,0,7.4,0.3,11,0.6c1.6,0.1,2.9,0,2.5-2.2c-0.4-2.1,0.8-2.5,2.6-2.4c9,0.4,18,0.8,27,1.2c3.9,0.1,3.9,0.1,4.1-3.7
		c0.2-3.5,1.2-4.4,4.6-3.7c9.8,2,19.7,3.9,29.4,6.2c6.1,1.4,12,3.3,17.9,5.3C1129,336.4,1131.8,339,1131.1,343.7z"/>
	<path class="st1" d="M1041.8,654.6c-1,5-1.7,10-3,14.9c-1.6,5.6-4.5,10.5-10.1,13.3c-0.5,0.3-0.8,1.7-0.7,2.5
		c0.4,2.2,0.9,4.4,1.6,6.6c0.5,1.7,0.1,2.3-1.8,2.3c-10.6-0.1-21.1-0.1-31.7,0c-2.3,0-2.2-1.2-1.9-2.7c0.4-1.9,0.9-3.8,1.4-5.7
		c0.5-1.8,0.5-3.1-1.7-4c-3.9-1.6-6-5.1-7.3-8.9c-1.2-3.4-2.2-7-2.8-10.5c-0.7-4.2-0.8-8.5-1.1-12.8c-0.2-2.2,0.7-3,3-3
		c8.3,0.3,16.7,0.4,25,0.5c9.5,0.1,19,0.1,28.5,0c1.7,0,2.2,0.3,2.1,2c-0.2,1.8,0,3.6,0,5.4C1041.4,654.5,1041.6,654.6,1041.8,654.6
		z"/>
	<path class="st1" d="M1059.8,322.1c-6.6,0-13.2-0.1-19.8,0c-1.8,0-1.7-0.9-1.8-2.1c-0.2-7.4,1.5-14.4,3.5-21.4
		c1.6-5.7,0.3-7.7-5.5-8.7c-0.7-0.1-1.5-1.1-2-1.8c-0.4-0.6-0.4-1.4-0.5-2.2c-0.2-7.9-0.5-15.8-0.7-23.6c-0.1-4.7-0.1-4.7,4.8-3.9
		c5.9,1,11.9,1.9,17.8,3c0.7,0.1,1.7,1.5,1.6,2.1c-0.7,2.7,1.1,3.1,3,3.6c5.5,1.5,10.1,4.2,13.7,8.8c2.4,3,2.7,6.3,2.6,9.7
		c-0.1,5.5-2.5,10.4-5.9,14.6c-2.9,3.5-3.9,7.4-3.7,11.8c0.1,3,0.1,6-0.1,9c0,0.6-1,1.5-1.6,1.6c-1.8,0.2-3.6,0.1-5.4,0.1
		C1059.8,322.5,1059.8,322.3,1059.8,322.1z"/>
	<path class="st1" d="M979,322.7c-5.4,0-10.8,0-16.2,0c-4.1,0-4.3-0.2-4.1-4.4c0.1-3-0.1-6.1,0.1-9.1c0.4-4.2-1.7-7.6-3.9-10.6
		c-2.9-3.9-4.7-8-5.2-12.7c-0.5-5,1.9-13.1,8-15.9c2.9-1.3,5.8-2.6,8.8-3.7c1.6-0.6,2.9-1.3,3.3-3.3c0.2-1.1,2.1-2.3,3.3-2.5
		c6.2-1.1,12.5-1.9,18.7-2.8c1.9-0.3,2,1.1,2,2.3c-0.3,6.7-0.7,13.3-1.1,20c-0.2,2.5-0.4,5.1-0.9,7.6c-0.1,0.7-1.1,1.5-1.9,1.8
		c-1,0.4-2.1,0.4-3.2,0.5c-2,0.3-3,1.6-2.8,3.6c0.4,4.1,0.9,8.2,1.3,12.4c0.5,4.8,1.1,9.6,1.5,14.3c0,0.6-1.1,1.7-1.7,1.8
		c-1.9,0.2-4,0.1-5.9,0.1C979,322.3,979,322.5,979,322.7z"/>
	<path class="st1" d="M1013.3,325.6c-4.2,0-8.4-0.2-12.6,0.1c-2.6,0.1-3.3-0.8-3.1-3.2c0.7-11.9,1.3-23.7,1.7-35.6
		c0.3-8.9,0.5-17.8,0.5-26.7c0-2.6,1-3.6,3.4-3.6c6.6,0.1,13.3,0.2,19.9,0.4c2.3,0.1,3.2,1,3.2,3.7c0,7.7,0.7,15.3,1,23
		c0.3,6.6,0.4,13.2,0.7,19.8c0.3,6.2,0.7,12.5,1.1,18.7c0.2,2.6-0.8,3.7-3.6,3.5C1021.5,325.4,1017.4,325.6,1013.3,325.6
		L1013.3,325.6z"/>
	<path d="M1094.1,540.7c-0.5-9.4-1-18.9-1.4-28.3c-0.1-2.1,0.2-4.2,0-6.3c-0.2-1.9,0.8-2.5,2.3-2.8c1.6-0.3,3.2-0.3,4.8-0.6
		c4.8-1.2,5.1,3.3,6.7,5.6c2.8,4.2,5,8.8,7.5,13.3c0.3,0.5,0.9,0.8,1.4,1.2c0.3-0.5,0.7-0.9,0.9-1.5c1.7-5.7,3.4-11.5,5-17.2
		c0.6-2.3,1.5-4.1,4.4-3.7c0.1,0,0.2,0,0.3,0c7.2-1.3,7.2-1.1,8.2,5.8c1,7.4,2.6,14.8,3.9,22.2c0.9,5.5,1.6,11,2.4,16.5
		c0.2,1.5-0.3,2.1-1.7,2.2c-2.8,0.3-5.7,0.7-8.5,0.9c-0.6,0-1.7-0.8-1.8-1.3c-0.7-5.2-1.2-10.5-1.8-15.7c-0.1-0.6-0.7-1.2-1-1.8
		c-0.4,0.5-1,0.9-1.1,1.4c-1.6,5.4-3,10.8-4.6,16.2c-0.3,0.9-1.3,2.3-1.7,2.3c-1.1-0.3-2.4-1-2.9-1.9c-2.3-4.2-4.4-8.6-6.7-12.8
		c-0.7-1.3-1.9-2.3-2.9-3.4c-0.2,1.4-0.7,2.9-0.6,4.3c0.2,4.6,0.5,9.2,0.7,13.9c0,0.6-0.8,1.6-1.3,1.7c-2.7,0.3-5.4,0.4-8.1,0.6
		c-1.7,0.2-2.2-0.6-2.2-2.1c0-2.9,0-5.7,0-8.6L1094.1,540.7z"/>
	<path d="M970.7,447.5c0.6,3.1-0.7,6.2-3.6,8.7c-1.4,1.3-1.1,2.4,0.2,3.2c6.3,4.3,5.9,17.3-0.9,22.1c-3.3,2.3-6.9,1.7-10.4,1.6
		c-4.2-0.2-8.4-0.8-12.7-1.2c-2.7-0.3-5.4-0.5-8.1-1.1c-0.5-0.1-1.2-1.3-1.2-1.9c0.1-3.6,0.3-7.2,0.5-10.8
		c0.4-7.8,0.9-15.5,1.4-23.3c0.2-3.8,0.7-7.7,0.9-11.5c0.1-1.4,0.6-1.8,1.9-1.7c5.6,0.5,11.2,1,16.8,1.5c2,0.2,4,0,5.9,0.5
		C967,434.8,971.1,439.4,970.7,447.5z"/>
	<path d="M999.7,484.4c-6.3,0-12.5,0-18.8,0c-1.8,0-2.4-0.7-2.3-2.4c0.4-5.7,0.8-11.5,1.1-17.2c0-0.6,0-1.1,0-1.7
		c0.2-8.6,0.4-17.1,0.5-25.7c0-2.1,1-2.9,3-2.8c8.9,0.2,17.9,0.4,26.8,0.4c1.5,0,1.8,0.4,1.8,1.7c0,2.5,0,5,0.1,7.4
		c0.1,1.5-0.6,1.9-2,1.9c-5-0.1-9.9,0-14.9-0.1c-2,0-2.6,0.7-2.7,2.7c-0.1,6.5-0.2,6.5,6.3,6.5c3.9,0,7.7,0,11.6,0
		c1.6,0,2.2,0.6,2.2,2.2c-0.2,9.4,1.5,7.5-7.3,7.7c-3.8,0.1-7.6,0-11.4,0c-1.4,0-2,0.4-2,1.9c-0.3,6.4-0.4,6.5,6,6.7
		c4.1,0.2,8.2,0,12.2,0c1.7,0,2.7,0.4,2.5,2.4c-0.2,2.9,1,6.6-0.5,8.3c-1.2,1.5-5.3,0.7-8,0.8c-1.4,0.1-2.9,0-4.3,0
		C999.7,484.7,999.7,484.6,999.7,484.4z"/>
	<path d="M1053.7,547.5c0-7.6,0.1-15.2,0-22.8c-0.1-5.3-0.3-10.5-0.6-15.8c-0.1-1.7,0.1-2.6,2.4-2.7c8.3-0.4,16.5-1.1,24.7-1.8
		c2.6-0.2,3.5,0.7,3.3,3.1c-0.1,0.9-0.1,1.9,0,2.8c0.3,5.1,0.3,5.2-4.8,5.5c-3.7,0.2-7.4,0.5-11.1,0.5c-1.9,0-2.6,0.6-2.5,2.5
		c0.1,0.8,0,1.5,0,2.3c0,1.9,0.6,3,2.9,2.8c4.7-0.5,9.4-0.8,14.1-1.1c0.6,0,1.8,0.5,1.9,0.8c0.2,2.1,0.2,4.3,0.3,6.4
		c0.1,1.5-0.6,1.9-2,2c-4.1,0.2-8.1,0.7-12.2,0.9c-3.5,0.2-4.6,1.3-4.2,4.7c0.1,1,0.1,2,0.1,3c0.1,2.2,1.7,2,3.1,1.9
		c4.2-0.4,8.5-0.8,12.7-1.4c3.9-0.6,4-0.6,4.2,3.3c0.1,2,0.3,4.1,0.2,6.1c0,0.4-0.7,1.1-1.2,1.2c-4.4,0.5-8.8,0.9-13.3,1.2
		c-5.2,0.3-10.4,0.3-15.6,0.7c-1.6,0.1-1.8-0.3-1.8-1.6c0-1.6,0-3.2,0-4.8C1054.1,547.5,1053.9,547.5,1053.7,547.5z"/>
	<path d="M968.8,541.5c3.7,1.1,7,2.3,10.4,2.9c2.2,0.4,4.8,0.4,6.9-0.2c1.3-0.4,3.2-2.2,3.1-3.4c0-1.3-1.6-3-3-3.7
		c-3.4-1.7-7.2-2.7-10.5-4.5c-6.4-3.4-8.8-10.9-5.8-17.6c3.1-7,11.2-11.3,19-10c1.1,0.2,2.3,0.3,3.4,0.4c4.1,0.5,5.5,2.1,5.1,6
		c-0.1,1.6-0.4,3.2-0.4,4.8c0,1.9-0.4,2.4-2.4,1.9c-2.6-0.7-5.4-0.9-8.1-1.2c-2.8-0.3-4.1,1.6-4.4,3.9c-0.3,2.2,1.4,3,3.4,3.7
		c3.8,1.2,7.8,2.4,11.1,4.6c5,3.2,6.4,8.7,5.2,14.1c-1.2,5.5-4.4,9.8-10.3,11.6c-5.6,1.7-11.2,1.3-16.8,0.3
		c-0.6-0.1-1.3-0.3-1.9-0.4c-3.8-0.4-4.7-1.2-4.6-5C968.4,547,968.7,544.2,968.8,541.5z"/>
	<path d="M899.5,549.2c-5.3-0.3-10.4-1-14.8-4.2c-0.5-0.3-1.2-1-1.1-1.4c0.4-3.1,0.9-6.1,1.6-9.2c0.4-1.9,1.2-1.7,2.4-0.4
		c2.9,3.1,11.4,5.4,14.1,3.7c1.3-0.8,2.6-2.4,2.8-3.8c0.1-1-1.4-2.5-2.5-3.3c-3-2-6.4-3.5-9.4-5.5c-6.2-4.2-6-12.2-3.9-17.8
		c2.2-5.8,6.7-8.6,12.7-8.6c3.8,0,7.6,0.9,11.4,1.7c0.7,0.1,1.6,1.5,1.6,2.3c0,2.7-0.3,5.4-0.5,8.2c-0.2,2.3-1.7,0.9-2.5,0.8
		c-2.7-0.4-5.5-1.3-8.2-1.5c-1.1-0.1-3.1,1-3.3,1.9c-0.4,1.2,0.1,3.2,1,4.2c1.2,1.4,3,2.5,4.8,3.3c4.6,2.1,9.1,4.7,10.7,9.7
		c1.6,5.3,0.2,10.2-3.3,14.5C909.4,548.3,904.5,548.9,899.5,549.2z"/>
	<path d="M969.7,507.1c-4.3,5.3-8,9.9-11.8,14.4c-3,3.6-6.1,7-8.9,10.7c-0.9,1.2-1,3.2-1,4.8c-0.2,4.6-0.2,9.2-0.2,13.8
		c0,1.7-0.4,2.5-2.2,2.2c-3.3-0.4-6.6-0.7-9.8-1.2c-2.3-0.4-1-2.3-1-3.5c0.2-4,0.4-8.1,1-12.1c0.5-3.3-1-5.9-2.5-8.5
		c-4.8-8-9.7-15.8-14.6-23.8c-0.1-0.2,0.6-1.4,0.8-1.4c4.1,0.3,8.3,0.6,12.4,1.3c0.8,0.1,1.6,1.4,2.2,2.3c2.4,4,4.7,8,7.1,12
		c1.4,2.3,3,2.4,4.6,0.3c2.5-3.2,4.9-6.4,7.4-9.6c1.2-1.5,2.5-2.6,4.8-2.4C961.5,507,965.2,507,969.7,507.1z"/>
	<path d="M1019.4,508.2c8.1-0.5,16.2-1,24.2-1.5c2.2-0.2,3.4,0.6,3.2,2.9c0,1,0,1.9,0,2.9c0,5.9,0,5.9-6.1,6.1
		c-1.7,0.1-3.4,0.1-5.1,0.1c-4.5,0-3.8,0.2-3.9,3.8c-0.2,9.8,0,19.5,0.2,29.3c0,2.3-0.1,3.5-2.9,3.3c-2.4-0.2-4.9,0.2-7.3,0.4
		c-1.5,0.1-1.9-0.3-2-1.9c-0.1-10.3-0.3-20.6-0.5-30.9c-0.1-3.3-0.4-3.7-4-3.9c-3.2-0.1-6.5-0.1-9.7,0c-1.5,0-2.1-0.4-1.9-1.9
		c0.1-1,0.1-2.1,0.1-3.1c0.1-5.9,0.1-5.9,5.8-5.8c3.2,0,6.4,0,9.7,0C1019.4,508,1019.4,508.1,1019.4,508.2z"/>
	<path d="M1065.4,451.9c-0.3-5.3-0.4-10.6-0.8-15.9c-0.1-1.8,0.5-2.3,2.2-2.3c2.8,0,5.7-0.3,8.5-0.5c1.6-0.1,2.3,0.3,2.3,2.2
		c0,6.7,0.2,13.5,0.3,20.2c0.1,3.9,0.3,7.7,0.5,11.6c0.1,1.6,0.4,2.4,2.4,2.2c5.8-0.7,11.7-1.1,17.5-1.8c2.2-0.2,3.4,0,3.1,2.7
		c-0.2,1.9,0.2,4,0.5,5.9c0.4,2.7-0.8,3.8-3.3,4c-5.7,0.4-11.3,0.8-17,1.2c-4.5,0.3-9.1,0.6-13.6,1.1c-1.9,0.2-2.3-0.3-2.3-2.1
		c0.1-4.2,0.1-8.4,0-12.6c-0.2-5.3-0.5-10.6-0.7-15.9C1065.1,452,1065.3,451.9,1065.4,451.9z"/>
	<path d="M1023.5,462.3c0-8.5,0-17,0.1-25.6c0-0.6,1-1.6,1.6-1.6c3.1-0.2,6.3-0.2,9.4,0c0.5,0,1.3,1.1,1.4,1.8
		c0.2,5.8,0.2,11.7,0.3,17.5c0.1,5.2,0.3,10.4,0.3,15.7c0,1.8,0.9,2.3,2.5,2.2c5.3-0.4,10.7-0.5,16-1c2.1-0.2,3,0.1,2.8,2.4
		c-0.2,2.3-0.1,4.6,0.1,6.9c0.1,2-0.9,2.7-2.7,2.7c-5.8,0.2-11.6,0.3-17.3,0.6c-4.2,0.2-8.5,0.6-12.7,0.7c-0.4,0-1.1-1.1-1.1-1.6
		c-0.1-6.9,0-13.7,0-20.6C1023.8,462.3,1023.6,462.3,1023.5,462.3z"/>
	<path class="st1" d="M946,467.4c0-6.4,0-6.4,6.7-5.4c4.9,0.7,6.3,2.3,5.9,6.7c-0.2,2.6-2,4.3-4.5,4.4c-0.9,0-1.9-0.1-2.8-0.2
		C946.1,472.7,946.1,472.7,946,467.4z"/>
	<path class="st1" d="M951.7,453.4c-5.4-0.3-6-1-5-6.3c0.7-3.9,1.5-4.4,5.5-3.7c0.6,0.1,1.3,0.2,1.9,0.3c3.6,0.4,5.2,1.9,5,5.1
		c-0.2,2.8-2.5,4.7-5.7,4.6C952.8,453.4,952.3,453.4,951.7,453.4z"/>
</g>
</svg>
