<svg xmlns="http://www.w3.org/2000/svg" xmlns:xlink="http://www.w3.org/1999/xlink" version="1.1" x="0px" y="0px" viewBox="0 0 100 100" enable-background="new 0 0 100 100" xml:space="preserve"><path d="M97.059,46.172c-1.338-0.345-2.667-0.558-3.943-0.678l0.66-12.075c-0.01-0.48-0.8-0.518-4.188-0.453  c-4.641,0.09-7.555,3.855-8.036,8.489c-0.214,2.058-1.002,4.368-1.002,4.368c-6.425-1.304-15.995-1.733-19.19-1.844  c-0.003-0.02,0.002-0.032,0.027-0.019c0.074,0.037,0.204-0.019,0.204-0.019s-0.613-0.316-0.818-0.204  c-0.204,0.111-0.632,0.074-1.078,0.019c-0.183-0.023-0.32-0.083-0.42-0.147c-0.001-0.163-0.085-0.377-0.137-0.43  c-0.06-0.06-0.402-0.217-0.777-0.245c0.453-0.374,0.74-0.926,0.74-1.543c0-1.125-0.952-2.038-2.127-2.038  c-0.999,0-1.835,0.661-2.063,1.55c-0.009,0-0.015,0.001-0.015,0.001c-0.034,0.144-0.049,0.279-0.052,0.406c0,0.003,0,0.006,0,0.009  c-0.001,0.072,0.002,0.14,0.008,0.206c0.012,0.175,0.044,0.329,0.089,0.46c0.004,0.012,0.009,0.024,0.013,0.037  c0.016,0.043,0.031,0.087,0.048,0.125c0.143,0.342,0.38,0.637,0.68,0.858c-0.2-0.017-0.424-0.024-0.501,0.024  c-0.149,0.093-0.186,0.279,0.056,0.372c0.242,0.093,0.223,0.353,0.167,0.427c-0.03,0.04-0.015,0.153,0.066,0.242  c-0.248,0.133-0.527,0.299-0.853,0.507c-0.177,0.112-0.333,0.206-0.477,0.288c-1.173-0.465-2.057-1.173-2.808-1.374  c-0.821-0.219-5.11-0.438-10.691-0.606l-0.252-3.937c3.332-1.226,7.757-3.604,8.356-6.331c0.001,0.002,0.002,0.004,0.003,0.007  c0.019-0.075,0.036-0.15,0.049-0.226c0.674-3.874-15.414-4.211-20.636-4.211c-4.47,0-8.382,0.248-8.889,2.326  c-0.11,0.37-0.108,0.801,0.023,1.301c0.842,3.201,2.021,6.149,5.475,6.823c0.26,0.051,0.54,0.102,0.833,0.153l0.246,3.817  c-1.663-0.014-3.294-0.022-4.852-0.022c-6.764,0-11.089,0.46-13.435,1.831v-0.014c0,0-1.721,0.006-2.072,0.498  c-0.046,0.064-0.085,0.231-0.118,0.472c0.018-0.883,0.059-1.623,0.13-2.135c0.433-3.119,0.866-8.232,0.433-9.011  c-0.433-0.78-1.04,0.607-1.04,0.607S4.863,44.09,4.549,45.497c-0.104,0.468-0.16,0.932-0.188,1.395  C3.734,46.854,2.5,47.534,2.5,48.133c0,0.641,1.319,1.713,1.913,1.382c0.017,0.277,0.035,0.555,0.05,0.835  c0.087,1.646-0.347,10.912,0.433,12.299s0.866-0.866,0.866-2.859c0-1.018-0.181-4.5-0.3-8.079c0.06,0.336,0.133,0.564,0.22,0.632  c0.54,0.416,1.88,0.44,1.88,0.44v-0.039c3.118,2.652,9.018,4.578,13.082,5.472c-0.049,0.053-0.092,0.106-0.125,0.157  c0-0.001-0.001-0.001-0.002-0.002c-0.008,0.012-0.011,0.024-0.019,0.036c-0.016,0.027-0.03,0.053-0.041,0.08  c-0.012,0.027-0.022,0.053-0.03,0.079c-0.007,0.024-0.014,0.048-0.017,0.072c-0.004,0.024-0.006,0.048-0.007,0.071  c0,0.009,0.001,0.018,0.001,0.027c0.001,0.046,0.009,0.091,0.022,0.134c0.001,0.003,0.002,0.007,0.003,0.01  c0.171,0.507,1.135,0.793,1.866,0.61c0.025-0.006,0.05-0.013,0.074-0.021c0.019-0.006,0.038-0.009,0.056-0.016  c0.981-0.338,2.691-0.528,4.763-0.616l-1.002,2.17c-2.943,0.082-5.306,2.488-5.306,5.451c0,3.015,2.444,5.459,5.459,5.459  c3.015,0,5.459-2.444,5.459-5.459c0-1.628-0.716-3.085-1.846-4.085l2.444-3.555c0.572,0.004,1.154,0.008,1.744,0.012  c5.533,0.153,11.035,0.586,12.167,0.736c0.118,0.016,0.328-0.008,0.493-0.084c0.005-0.002,0.01-0.004,0.014-0.007  c0.014-0.007,0.028-0.014,0.041-0.022c0.012-0.007,0.024-0.014,0.035-0.021c0.007-0.005,0.014-0.01,0.02-0.015  c0.016-0.012,0.031-0.024,0.044-0.038c0.002-0.002,0.004-0.004,0.006-0.006c0.114-0.118,0.128-0.295-0.098-0.545  c7.895-0.69,37.87-7.447,40.233-8.092c2.49-0.679,6.904-1.358,7.131-1.924s-1.245-0.906-1.245-0.906l0.031-0.567  c2.065-0.126,3.716-0.328,4.078-0.478C98.028,46.475,97.059,46.172,97.059,46.172z M36.323,42.774l1.835-3.129  c0.099-0.024,0.2-0.049,0.306-0.077l0.209,3.264C37.906,42.812,37.121,42.792,36.323,42.774z M37.236,39.819  c0.084-0.009,0.178-0.023,0.277-0.039l-1.744,2.982c-0.189-0.004-0.378-0.008-0.567-0.012l1.703-2.904  C37.022,39.838,37.134,39.83,37.236,39.819z M35.995,39.868l-1.674,2.863c-1.363-0.027-2.75-0.051-4.14-0.072l-0.209-3.241  C32.179,39.678,34.426,39.862,35.995,39.868z M39.599,42.857c-0.09-0.003-0.181-0.005-0.272-0.008l-0.222-3.465  c0.087-0.026,0.177-0.055,0.266-0.084L39.599,42.857z M26.566,38.953c0.87,0.138,1.825,0.271,2.802,0.393l0.213,3.306  c-0.929-0.013-1.858-0.024-2.779-0.033L26.566,38.953z M59.945,44.143c-0.176,0.103-0.35,0.2-0.52,0.288  c-0.042-0.12-0.161-0.363-0.463-0.557C59.322,43.928,59.65,44.03,59.945,44.143z"></path></svg>