<?xml version="1.0" encoding="utf-8"?>
<!-- Generator: Adobe Illustrator 21.0.2, SVG Export Plug-In . SVG Version: 6.00 Build 0)  -->
<svg version="1.1"
	 id="Layer_1" xmlns:cc="http://creativecommons.org/ns#" xmlns:dc="http://purl.org/dc/elements/1.1/" xmlns:rdf="http://www.w3.org/1999/02/22-rdf-syntax-ns#"
	 xmlns="http://www.w3.org/2000/svg" xmlns:xlink="http://www.w3.org/1999/xlink" x="0px" y="0px" viewBox="0 0 65.4 64"
	 style="enable-background:new 0 0 65.4 64;" xml:space="preserve">
<style type="text/css">
	.st0{fill:#F7931A;}
	.st1{fill:#FFFFFF;}
</style>
<g transform="translate(-289.60744,-317.50471)">
	<path class="st0" d="M353.6,349.8c-0.2,17.7-14.6,31.9-32.3,31.7c-17.7-0.2-31.9-14.6-31.7-32.3c0.2-17.7,14.6-31.9,32.3-31.7
		C339.6,317.7,353.8,332.1,353.6,349.8L353.6,349.8z"/>
	<path class="st1" d="M334.3,341.8c-0.4-4.3-4.1-5.8-8.7-6.2l0.1-5.9l-3.6,0l-0.1,5.8c-1,0-1.9,0-2.9,0l0.1-5.8l-3.6,0l-0.1,5.9
		c-0.8,0-1.6,0-2.3,0l0,0l-5,0l0,3.9c0,0,2.7,0,2.6,0c1.5,0,1.9,0.9,2.1,1.6l-0.1,6.8c0.1,0,0.2,0,0.4,0c-0.1,0-0.2,0-0.4,0
		l-0.1,9.5c-0.1,0.5-0.3,1.2-1.4,1.2c0,0-2.6,0-2.6,0l-0.8,4.3l4.7,0c0.9,0,1.7,0,2.6,0l-0.1,6l3.6,0l0.1-5.9c1,0,2,0,2.9,0.1
		l-0.1,5.9l3.6,0l0.1-6c6.1-0.3,10.4-1.8,10.9-7.5c0.5-4.6-1.7-6.7-5.1-7.5C333.2,346.8,334.5,344.9,334.3,341.8L334.3,341.8z
		 M329.1,354.6c0,4.5-7.7,3.9-10.2,3.9l0.1-8C321.4,350.5,329.1,349.9,329.1,354.6L329.1,354.6z M327.5,343.3c0,4.1-6.5,3.6-8.5,3.5
		l0.1-7.2C321.1,339.7,327.5,339.1,327.5,343.3z"/>
</g>
</svg>
