<?xml version="1.0" encoding="utf-8"?>
<!-- Generator: Adobe Illustrator 22.1.0, SVG Export Plug-In . SVG Version: 6.00 Build 0)  -->
<svg version="1.1"
	 id="Layer_1" xmlns:cc="http://creativecommons.org/ns#" xmlns:dc="http://purl.org/dc/elements/1.1/" xmlns:inkscape="http://www.inkscape.org/namespaces/inkscape" xmlns:rdf="http://www.w3.org/1999/02/22-rdf-syntax-ns#" xmlns:sodipodi="http://sodipodi.sourceforge.net/DTD/sodipodi-0.dtd" xmlns:svg="http://www.w3.org/2000/svg"
	 xmlns="http://www.w3.org/2000/svg" xmlns:xlink="http://www.w3.org/1999/xlink" x="0px" y="0px" viewBox="0 0 100 100"
	 style="enable-background:new 0 0 100 100;" xml:space="preserve">
<g transform="translate(0,-952.36216)">
	<path d="M54.7,957.4c-5,0-10,0.9-14.7,2.5c-10.7,3.6-20,11.3-25,22.5c-4,9.1-4.3,19.4-1.1,28.4c3.1,9.1,9.7,17,19.3,21.1
		c0.2,0.1,0.5,0.2,0.7,0.3c7.6,3,16.1,3.1,23.5,0.4c7.5-2.7,13.9-8.2,17.3-16.3c2.6-6.3,2.7-13.5,0.5-19.8
		c-2.3-6.3-7-11.8-13.8-14.6c-1.3-0.5-2.6-0.9-3.9-1.2c1.6,0.2,3.2,0.6,4.8,1.2c6.8,2.6,11.6,8,14.2,14.4c2.5,6.5,2.7,14,0.2,20.8
		c-0.1,0.2-0.2,0.4-0.2,0.6c-3.5,8.7-10.5,14.8-18.8,17.9c-8.3,3.1-17.9,3.1-26.5-0.5c-10.6-4.5-18.1-13.2-21.7-23.4
		c-3.7-10.2-3.5-22,1-32.4c1.5-3.8,3.5-7.4,5.9-10.7c0,0,0.1-0.1,0.1-0.1c0,0,0-0.1,0-0.2c0,0-0.1,0-0.1,0c0,0-0.1,0.1-0.1,0.1
		c-2.7,3.1-5.1,6.6-6.9,10.3c-4.8,10.7-5.2,22.9-1.5,33.6c3.6,10.7,11.3,20,22.5,25c9.1,4,19.4,4.3,28.4,1.1
		c9.1-3.1,17-9.7,21.1-19.3c0.1-0.2,0.2-0.5,0.3-0.7c3-7.6,3.1-16.1,0.4-23.5c-1.1-3.1-2.7-6-4.8-8.6c-2.9-3.7-6.8-6.7-11.5-8.7
		c-6.3-2.6-13.5-2.7-19.8-0.5c-6.3,2.3-11.8,7-14.6,13.8c-0.5,1.3-0.9,2.6-1.2,3.9c0.2-1.6,0.6-3.2,1.2-4.8
		c2.6-6.8,8-11.6,14.4-14.2c6.5-2.5,14-2.7,20.8-0.2c0.2,0.1,0.4,0.2,0.6,0.2c8.7,3.5,14.8,10.5,17.9,18.8
		c3.1,8.3,3.1,17.9-0.5,26.5c-4.5,10.6-13.2,18.1-23.4,21.7c-10.2,3.7-22,3.5-32.4-1c-3.8-1.5-7.4-3.5-10.7-5.9c0,0-0.1-0.1-0.1-0.1
		c0,0-0.1,0-0.2,0c0,0,0,0.1,0,0.1c0,0,0.1,0.1,0.1,0.1c3.1,2.7,6.6,5.1,10.3,6.9c10.7,4.8,22.9,5.2,33.6,1.5
		c10.7-3.6,20-11.3,25-22.5c4-9.1,4.3-19.4,1.1-28.4c-3.1-9.1-9.7-17-19.3-21.1c-0.2-0.1-0.5-0.2-0.7-0.3c-3.8-1.5-7.8-2.3-11.8-2.3
		c-4,0-8,0.6-11.7,2c-7.5,2.7-13.9,8.2-17.3,16.3c-1.6,3.9-2.3,8.2-2,12.3c0.2,2.6,0.7,5.1,1.6,7.5c2.3,6.3,7,11.8,13.8,14.6
		c1.3,0.5,2.6,0.9,3.9,1.2c-1.6-0.2-3.2-0.6-4.8-1.2c-6.8-2.6-11.6-8-14.2-14.4c-2.5-6.5-2.7-14-0.2-20.8c0.1-0.2,0.2-0.4,0.2-0.6
		c3.5-8.7,10.5-14.8,18.8-17.9c8.3-3.1,17.9-3,26.5,0.5c10.6,4.5,18.1,13.2,21.7,23.4c3.7,10.2,3.5,22-1,32.4
		c-1.5,3.8-3.5,7.4-5.9,10.7c0,0-0.1,0.1-0.1,0.1c0,0,0,0.1,0,0.2c0,0,0.1,0,0.2,0c0,0,0.1-0.1,0.1-0.1c2.7-3.1,5.1-6.6,6.9-10.3
		c4.8-10.7,5.2-22.9,1.5-33.6c-2-5.8-5.1-11.2-9.3-15.7c-3.6-3.8-8-7-13.2-9.3c-9.1-4-19.4-4.3-28.4-1.1c-9.1,3.1-17,9.7-21.1,19.3
		c-0.1,0.2-0.2,0.5-0.3,0.7c-3,7.6-3.1,16.1-0.4,23.5c2.7,7.5,8.2,13.9,16.3,17.3c6.3,2.6,13.5,2.7,19.8,0.5
		c6.3-2.3,11.8-7,14.6-13.8c0.5-1.3,0.9-2.6,1.2-3.9c-0.2,1.6-0.6,3.2-1.2,4.8c-2.6,6.8-8,11.6-14.4,14.2c-6.5,2.5-14,2.7-20.8,0.2
		c-0.2-0.1-0.4-0.2-0.6-0.2c-8.7-3.5-14.8-10.5-17.9-18.8c-3.1-8.3-3-17.9,0.5-26.5c4.5-10.6,13.2-18.1,23.4-21.7
		c10.2-3.7,22-3.5,32.4,1c3.8,1.5,7.4,3.5,10.7,5.9c0,0,0.1,0.1,0.1,0.1c0,0,0.1,0,0.2,0c0,0,0-0.1,0-0.1c0,0-0.1-0.1-0.1-0.1
		c-3.1-2.7-6.6-5.1-10.3-6.9C67.6,958.6,61.1,957.3,54.7,957.4L54.7,957.4z"/>
</g>
</svg>
