<svg xmlns="http://www.w3.org/2000/svg" xmlns:xlink="http://www.w3.org/1999/xlink" version="1.1" x="0px" y="0px" viewBox="0 0 50 50" style="enable-background:new 0 0 50 50;" xml:space="preserve"><path d="M2.3271484,17.4384766l3.1484375,18.4213867l14.6298828-0.097168l2.1875-10.9267578h5.2441406l2.0478516,11.0117188  l13.0078125,0.1757813l2.7802734-17.4077148l0.0058594-0.0605469c0.0117188-0.331543,0.0214844-2.0078125-0.9619141-2.4345703  c-1.2011719-0.5195313-4.7871094-0.8496094-8.3662109-0.7675781c-6.7294922,0.1557617-8.2226563,0.6728516-8.7597656,1.0483398  c-0.4902344,0.3427734-0.5664063,1.3583984-0.5439453,2.1513672l0.03125,0.9833984h-3.8320313l0.3740234-2.1665039  c0.0205078-0.6875-0.0302734-1.8964844-0.6005859-2.2709961c-0.6015625-0.3945313-2.2802734-0.9379883-9.8876953-1.1030273  c-4.03125-0.0878906-8.0986328,0.2612305-9.4501953,0.8110352c-1.0869141,0.4423828-1.0742188,2.2158203-1.0615234,2.5668945   M43.8783569,21.6295166c-0.3687744,0.1887207-1.2155151,0.446228-1.7318726,0.5819092  c-0.1162109,0.0302734-0.1943359,0.1396484-0.1855469,0.2592773c0,0,0.0390625,0.5498047,0.0830078,1.0664063  c0.0449219,0.5097656,0.0673828,0.765625-0.5556641,0.8862305c-0.2080078,0.0405273-0.3574219,0.0224609-0.4628906-0.0517578  c-0.1757813-0.1240234-0.2412109-0.4233398-0.2822266-0.7001953c-0.0791016-0.5332031-0.1689453-0.987793-0.1689453-0.987793  c-0.0263672-0.1337891-0.1582031-0.2211914-0.2900391-0.1977539c-0.0175781,0.003418-1.7978516,0.3256836-4.2216835,0.3256836  c-2.879879,0-4.3496056-0.4384766-4.364254-0.4433594c-0.0800781-0.0234375-0.1640625-0.0078125-0.2285156,0.043457  c-0.0644531,0.0507813-0.0996094,0.1303711-0.09375,0.2124023c0,0,0.0410156,0.6357422,0.0595703,0.9550781l0.0078125,0.1098633  c0.0175781,0.2631836,0.0351563,0.5117188-0.0673828,0.621582c-0.0742188,0.0805664-0.2421875,0.1240234-0.4853516,0.1264648  c-0.0195313,0-0.0371094,0.000494-0.0546875,0.000494c-0.6689453,0-0.6738281-0.1333065-0.7050781-0.8906307L30.125,23.3984375  c-0.0224609-0.5249023,0.0039063-1.0976563,0.0048828-1.1035156c0.0048828-0.1137695-0.0664063-0.2167969-0.1748047-0.2509766  c-0.8144531-0.2548828-1.7822266-0.6508789-1.9287109-0.8466797c-0.0249634-0.0336304-0.0645142-0.0423584-0.0999756-0.059021  l-0.1210938-0.7392578l-0.045105-1.4533081c1.6894531,0.3765869,5.5411987,0.6295166,9.2163696,0.6295166  c2.9815063,0,5.8283081-0.1693115,7.321106-0.571167L43.8783569,21.6295166z M32.5887451,33.4047852  c-0.0020752-0.008667,0.0041504-0.0168457,0.0010986-0.0253906c-0.109375-0.300293-1.0439453-5.3291016-1.4492188-8.4775391  c-0.000061-0.0002441-0.0003052-0.0004272-0.0003662-0.0006714c0.2575073-0.0361938,0.4703979-0.107666,0.6029053-0.2512817  c0.2480469-0.2680664,0.2236328-0.6376953,0.1992188-0.9951172l-0.0068359-0.1054688  c-0.0097656-0.1640625-0.0253906-0.4125977-0.0390625-0.6152344c0.6005859,0.1352539,1.9814453,0.3774414,4.1660118,0.3774414  c1.9687538,0,3.4921913-0.2036133,4.0664101-0.2929688c0.0322266,0.1787109,0.0771484,0.440918,0.1201172,0.7260742  c0.0566406,0.3813477,0.1582031,0.8022461,0.4873047,1.0351563c0.1500854,0.1063843,0.3318481,0.1589355,0.5401611,0.1618042  c-0.4144287,2.8991699-1.5233154,7.4540405-1.8391113,8.5560913C37.3762207,33.3634033,34.6553345,33.3121948,32.5887451,33.4047852  z M28.3691406,23.8359375H28.368103l-0.3317261-2.0258179c0.4712524,0.2677002,1.1824341,0.5202637,1.5866699,0.652771  c-0.0068359,0.2192383-0.0136719,0.5947266,0.0019531,0.9575195l0.0068359,0.1469727  c0.0282593,0.7137451,0.0640259,1.2822876,1.024292,1.3551025c-0.0009155,0.0154419-0.0136108,0.0269775-0.0115967,0.0428467  c0.364563,2.8366699,1.215332,7.5681152,1.4417725,8.4658203c-0.7862549,0.0472412-1.4439697,0.1190796-1.8920898,0.2188721  L28.3691406,23.8359375z M36.0742188,16.3530273c3.7363281-0.0888672,7.0292969,0.2880859,7.9443359,0.6850586  c0.2208862,0.0962524,0.3704834,0.831543,0.3602905,1.427124c-2.8342285,0.9021606-13.7420654,0.7297974-16.6311646-0.0306396  c-0.007019-0.5358276,0.0609741-1.1138916,0.1156006-1.2133789C28.2382813,16.9594727,29.8037109,16.4980469,36.0742188,16.3530273z   M21.3695068,24.3513184l-1.8251343,9.1216431c-0.5073242-0.1205444-1.2930298-0.2080688-2.2421875-0.2667847  c0.2763062-0.9890747,1.3389893-6.0609741,1.7667847-9.0749512c0.9477539-0.1119995,0.9814453-0.6963501,1.0130615-1.4202881  l0.0068359-0.1552734c0.0185547-0.3911133,0.0097656-0.7958984,0.0019531-1.0283203  c0.432312-0.1330566,1.3295288-0.4274292,1.8757324-0.7320557l-0.6101074,3.4976807  C21.3527832,24.31427,21.3678589,24.3307495,21.3695068,24.3513184z M17.7333984,23.8422852  c0.1703491,0.1847534,0.4535522,0.2736206,0.8286743,0.2955933c-0.4887085,3.4154663-1.6538086,8.7337036-1.7681274,9.024231  c-0.0022583,0.0053711,0.001709,0.0106812-0.0001221,0.0161133c-2.3666992-0.1157188-5.5108032-0.076355-7.8652954,0.0586548  c-0.0002441-0.0008545,0.0004883-0.0016479,0.0001831-0.0025024c-0.2747192-0.8360596-1.326416-5.8283081-1.8098145-9.1032715  c0.1470337-0.0274048,0.2838135-0.0715332,0.3977051-0.1520996c0.3496094-0.2475586,0.4599609-0.6835938,0.5224609-1.078125  c0.0488281-0.3154297,0.1035156-0.6040039,0.140625-0.7944336c0.6220703,0.0908203,2.3964844,0.3173828,4.640625,0.3173828  c2.5332031,0,4.1103516-0.2700195,4.7607422-0.4111328c-0.0146484,0.2202148-0.0341797,0.4985352-0.0449219,0.6806641  l-0.0078125,0.1132813C17.5009766,23.1772461,17.4736328,23.5610352,17.7333984,23.8422852z M21.7955322,20.3198853  c-0.3795166,0.2279053-1.2634277,0.5579834-2.0328369,0.7841187c-0.1113281,0.0327148-0.1855469,0.137207-0.1796875,0.2529297  c0.0009766,0.0063477,0.0322266,0.6166992,0.0058594,1.175293l-0.0068359,0.1572266  c-0.0341797,0.8051758-0.0498047,0.9536133-0.8955078,0.965332c-0.2939453-0.0024414-0.4960938-0.0551758-0.5849609-0.1513672  c-0.1132813-0.1225586-0.0947266-0.3842773-0.0751953-0.6611328l0.0078125-0.1176758  c0.0214844-0.3393555,0.0693359-1.0175781,0.0693359-1.0175781c0.0058594-0.081543-0.0283203-0.1606445-0.0917969-0.2119141  c-0.0625-0.0507813-0.1494141-0.065918-0.2265625-0.0458984c-0.0166016,0.0048828-1.6884766,0.4746094-4.9648438,0.4746094  c-2.7490234,0-4.7763672-0.34375-4.7958984-0.3476563c-0.1347656-0.0229492-0.2597656,0.0639648-0.2871094,0.1948242  c0,0-0.1035156,0.4838867-0.1923828,1.0522461c-0.0458984,0.2910156-0.1201172,0.6079102-0.3173828,0.7475586  c-0.1279297,0.0913086-0.3222656,0.1132813-0.5703125,0.0683594c-0.7314453-0.1328125-0.7060547-0.4091797-0.6542969-0.965332  c0.0507813-0.543457,0.09375-1.1298828,0.09375-1.1298828c0.0087891-0.1220703-0.0712891-0.2319336-0.1894531-0.2612305  c-0.6117554-0.1509399-1.6273804-0.4429932-2.019104-0.6484985l-0.4804688-2.812561  c1.6652832,0.4413452,4.9464111,0.6246338,8.3726196,0.6246338c4.1755981,0,8.5560303-0.270813,10.4598999-0.673645  L21.7955322,20.3198853z M3.7587891,15.7329102c1.046875-0.4267578,4.8017578-0.831543,9.0517578-0.7373047  c7.1347656,0.1542969,8.9267578,0.6547852,9.328125,0.9116211c0.1106567,0.1428833,0.1957397,0.8067017,0.1889038,1.336731  c-3.2103882,0.8258667-15.8425903,1.0149536-19.0074463,0.0316162C3.3088989,16.7015381,3.4518433,15.857605,3.7587891,15.7329102z   M3.9887085,21.2230225c0.5199585,0.2040405,1.234314,0.3999023,1.5933228,0.4927979  c-0.0166016,0.2182617-0.0458984,0.5751953-0.078125,0.9179688c-0.0498047,0.5415039-0.1181641,1.2827148,1.0634766,1.4975586  c0.0166016,0.0030518,0.0310059,0.0020142,0.0473633,0.0045776c0.4544067,3.1090698,1.4542236,7.9500732,1.8031006,9.1326294  c-1.0181274,0.0679932-1.842041,0.1550293-2.3276978,0.255249L3.9887085,21.2230225z M6.3173828,34.8540039L6.1705933,33.994751  c1.8036499-0.460022,11.3959351-0.4897461,13.2816162-0.0610352l-0.1670532,0.8348389L6.3173828,34.8540039z M21.9433594,23.8359375  l0.5755615-3.2998047h4.8014526l0.5403442,3.2998047H21.9433594z M30.4189453,34.8583984l-0.1380005-0.7420654  c1.7562866-0.368042,9.9135132-0.2902222,11.5840454,0.1204834l-0.1237793,0.7749023L30.4189453,34.8583984z M41.9397583,33.7683716  c-0.4394531-0.0898438-1.1402588-0.1697388-1.9923096-0.2347412c0.3625488-1.3104248,1.4592896-5.8566895,1.8477173-8.6792603  c0.8322754-0.2566528,0.7883301-0.8872681,0.7468262-1.3665771c-0.0273438-0.3134766-0.0527344-0.6425781-0.0673828-0.847168  c0.3041992-0.0844727,0.8675537-0.25,1.3104248-0.4268188L41.9397583,33.7683716z"></path></svg>