<svg height='100px' width='100px'  fill="#000000" xmlns="http://www.w3.org/2000/svg" xmlns:xlink="http://www.w3.org/1999/xlink" version="1.1" x="0px" y="0px" viewBox="0 0 100 100" style="enable-background:new 0 0 100 100;" xml:space="preserve"><style type="text/css">
	.st0{display:none;}
	.st1{display:inline;opacity:0.3;fill:#000000;}
</style><g class="st0"></g><g><g><path d="M92.8,22h-7.1c-11.5-4-24-4-35.5,0h-0.5c-11.5-4-24-4-35.5,0H7.2C6,22,5,23,5,24.2V77c0,1.2,1,2,2.2,2h38.5    c1,1,2.5,1.6,4.3,1.6s3.3-0.6,4.3-1.6h38.5c1.2,0,2.2-0.8,2.2-2V24.2C95,23,94,22,92.8,22z M85,73.7c-12-3.8-23-3.8-34,0V24.3    c11-4.1,22-4.1,34,0V73.7z M49,73.7c-6-1.9-11.4-2.9-17-2.9c-5.6,0-11,1-17,2.9V24.3c12-4.1,23-4.1,34,0V73.7z M48.3,76H15.7    C26.3,72,37.7,72,48.3,76z M84.3,76H51.7C62.2,72,73.7,72,84.3,76z M8,25h5v51H8V25z M92,76h-5V25h5V76z"></path><path d="M43.6,31.2c-7.5-3-15.8-3-23.3,0c-0.5,0.2-0.7,0.7-0.5,1.2s0.7,0.7,1.2,0.5c7.1-2.8,14.9-2.8,21.9,0    c0.1,0,0.2,0.1,0.3,0.1c0.4,0,0.7-0.2,0.8-0.6C44.3,32,44.1,31.4,43.6,31.2z"></path><path d="M43.6,38.8c-7.5-3-15.8-3-23.3,0c-0.5,0.2-0.7,0.7-0.5,1.2s0.7,0.7,1.2,0.5c7.1-2.8,14.9-2.8,21.9,0    c0.1,0,0.2,0.1,0.3,0.1c0.4,0,0.7-0.2,0.8-0.6C44.3,39.6,44.1,39,43.6,38.8z"></path><path d="M43.6,46.4c-7.5-3-15.8-3-23.3,0c-0.5,0.2-0.7,0.7-0.5,1.2s0.7,0.7,1.2,0.5c7.1-2.8,14.9-2.8,21.9,0    c0.1,0,0.2,0.1,0.3,0.1c0.4,0,0.7-0.2,0.8-0.6C44.3,47.2,44.1,46.6,43.6,46.4z"></path><path d="M43.6,61.6c-7.5-3-15.8-3-23.3,0c-0.5,0.2-0.7,0.7-0.5,1.2c0.2,0.5,0.7,0.7,1.2,0.5c7.1-2.8,14.9-2.8,21.9,0    c0.1,0,0.2,0.1,0.3,0.1c0.4,0,0.7-0.2,0.8-0.6C44.3,62.3,44.1,61.8,43.6,61.6z"></path><path d="M43.6,54c-7.5-3-15.8-3-23.3,0c-0.5,0.2-0.7,0.7-0.5,1.2s0.7,0.7,1.2,0.5c7.1-2.8,14.9-2.8,21.9,0c0.1,0,0.2,0.1,0.3,0.1    c0.4,0,0.7-0.2,0.8-0.6C44.3,54.8,44.1,54.2,43.6,54z"></path><path d="M79.6,31.2c-7.5-3-15.8-3-23.3,0c-0.5,0.2-0.7,0.7-0.5,1.2c0.2,0.5,0.7,0.7,1.2,0.5c7.1-2.8,14.9-2.8,21.9,0    c0.1,0,0.2,0.1,0.3,0.1c0.4,0,0.7-0.2,0.8-0.6C80.3,32,80.1,31.4,79.6,31.2z"></path><path d="M79.6,38.8c-7.5-3-15.8-3-23.3,0c-0.5,0.2-0.7,0.7-0.5,1.2c0.2,0.5,0.7,0.7,1.2,0.5c7.1-2.8,14.9-2.8,21.9,0    c0.1,0,0.2,0.1,0.3,0.1c0.4,0,0.7-0.2,0.8-0.6C80.3,39.6,80.1,39,79.6,38.8z"></path><path d="M79.6,46.4c-7.5-3-15.8-3-23.3,0c-0.5,0.2-0.7,0.7-0.5,1.2c0.2,0.5,0.7,0.7,1.2,0.5c7.1-2.8,14.9-2.8,21.9,0    c0.1,0,0.2,0.1,0.3,0.1c0.4,0,0.7-0.2,0.8-0.6C80.3,47.2,80.1,46.6,79.6,46.4z"></path><path d="M79.6,61.6c-7.5-3-15.8-3-23.3,0c-0.5,0.2-0.7,0.7-0.5,1.2c0.2,0.5,0.7,0.7,1.2,0.5c7.1-2.8,14.9-2.8,21.9,0    c0.1,0,0.2,0.1,0.3,0.1c0.4,0,0.7-0.2,0.8-0.6C80.3,62.3,80.1,61.8,79.6,61.6z"></path><path d="M79.6,54c-7.5-3-15.8-3-23.3,0c-0.5,0.2-0.7,0.7-0.5,1.2c0.2,0.5,0.7,0.7,1.2,0.5c7.1-2.8,14.9-2.8,21.9,0    c0.1,0,0.2,0.1,0.3,0.1c0.4,0,0.7-0.2,0.8-0.6C80.3,54.8,80.1,54.2,79.6,54z"></path></g></g></svg>