<svg xmlns="http://www.w3.org/2000/svg" xmlns:xlink="http://www.w3.org/1999/xlink" version="1.1" x="0px" y="0px" viewBox="0 0 1000 780.724" enable-background="new 0 0 1000 780.724" xml:space="preserve"><path d="M580.466,56.026c3.275,2.375,15.604-1.272,24.611-3.934c20.177-5.962,47.786-14.139,71.729,3.74  c12.674,9.472,15.649,8.876,21.072,7.751c10.592-2.179,22.025-3.13,45.731,8.831c28.114,14.197,38.902,38.646,46.027,54.827  c2.411,5.481,5.722,12.981,7.663,14.301c10.904-1.893,21.104,0.55,29.977,5.355c6.191-6.916,16.521-15.47,30.482-16.273  c16.433-0.791,32.102,8.727,46.877,28.703c5.046,6.824,18.213,11.939,30.392,16.434c-14.568-24.69-33.01-48.142-55.391-60.516  c-33.301-18.417-43.088-28.531-50.223-35.917c-5.791-5.985-9.285-9.598-26.979-16.696c-6.712-2.684-14.637-5.929-23.348-9.484  C738.369,36.521,670.212,8.676,648.737,6.154c-13.442-1.594-31.837-0.791-49.634,0c-6.999,0.309-13.72,0.573-20.086,0.7  c-0.185,1.135-0.379,2.259-0.93,3.336C577.915,10.522,562.001,42.518,580.466,56.026z"></path><path d="M356.966,668.299c-22.991-5.906-36.307-9.415-42.972-12.8c-11.075-5.619-33.779-4.666-60.722,2.581  c-4.137,1.111-9.215,2.832-14.938,4.771c-27.276,9.196-68.501,23.131-96.812,4.645c-0.702-0.459-1.345-0.792-2.022-1.204  c8.858,20.331,30.068,52.132,78.118,61.846c34.377,6.96,58.277,8.53,74.098,9.588c22.485,1.491,37.342,2.487,42.557,20.193  c2.792,9.461,5.446,14.954,7.905,16.329c1.519,0.851,4.321,0.402,6.4-0.114c3.966-1.261,12.605-13.681,17.763-21.09  c11.515-16.533,22.245-32.223,37.871-31.615c11.144,0.286,19.303-1.262,22.75-2.087c2.851-1.537,5.263-3.646,7.112-6.468  c3.747-5.745,4.516-12.638,3.734-17.833C428.513,686.715,380.532,674.354,356.966,668.299z"></path><path d="M991.901,332.628c-6.029-20.607-8.892-35.539-10.984-46.445c-1.918-10.022-3.193-16.65-5.64-21.64  c-1-2.052-2.643-6.272-4.859-12.121c-3.908-10.287-10.078-26.456-18.396-44.3c-4.733-3.44-16.087-7.648-22.817-10.126  c-15.741-5.791-33.599-12.362-43.019-25.103c-6.779-9.174-16.937-20.011-27.057-19.415c-5.885,0.332-10.872,4.449-14.204,8.073  c4.034,4.989,7.284,10.459,9.412,16.043c8.628,22.683,1.273,44.816-19.179,57.763c-10.799,6.846-24.691,10.895-40.225,10.895  c-27.265,0.011-59.586-12.466-89.185-44.163c-4.331-4.632-4.067-11.891,0.575-16.204c4.632-4.312,11.902-4.07,16.235,0.574  c35.87,38.394,77.601,43.91,100.282,29.542c15.087-9.553,12.755-23.062,10.02-30.252c-4.769-12.545-18.131-24.151-32.481-21.847  c-18.199,2.982-25.747-13.898-31.723-27.453c-6.504-14.747-14.592-33.107-35.367-43.588c-18.532-9.358-24.749-8.062-30.734-6.835  c-10.858,2.248-20.037,2.683-39.49-11.857c-14.685-10.952-33.367-5.448-51.439-0.104c-16.615,4.92-32.286,9.53-44.707,0.447  c-27.368-20.01-17.601-54.414-12.029-68.497c-8.975-0.883-24.358,1.835-38.077,4.289c-15.041,2.695-29.322,5.264-39.583,4.29  c-2.792-0.252-5.975-0.62-9.547-1.044c-13.271-1.56-32.781-3.739-57.92-2.248c13.063,10.585,19.866,22.822,23.577,29.702  c0.275,0.517,0.516,0.998,0.757,1.434c3.436,0.906,7.078-0.367,13.777-3.154c9.054-3.75,21.417-8.898,34.928-0.493  c11.777,7.327,14.329,18.371,16.386,27.236c2.043,8.761,3.504,15.091,12.353,20.561c7.271,4.496,13.464,11.273,20.014,18.452  c18.234,19.966,37.101,40.596,84.438,24.828c6.009-2.007,12.523,1.25,14.533,7.247c2.012,5.998-1.238,12.5-7.261,14.506  c-14.19,4.726-26.633,6.709-37.594,6.709c-36.525,0-56.645-22.042-71.101-37.855c-5.434-5.951-10.581-11.583-15.131-14.403  c-16.97-10.505-20.244-24.599-22.635-34.885c-1.827-7.889-2.769-10.837-6.158-12.947c-3-1.881-5.687-1.228-13.948,2.213  c-9.031,3.738-21.394,8.854-35.377,1.422c-3.952-2.098-5.744-5.424-8.228-10.024c-5.468-10.159-15.694-28.806-44.602-35.091  c-20.004,4.175-32.425,9.599-41.042,14.886c13.674,3.143,28.677,9.266,39.088,21.077c15.017,17.03-1.298,34.725-11.042,45.298  c-3.746,4.048-10.674,11.571-10.95,14.495c0.091,0,0.609,0.677,2.069,1.709c6.491,4.598,19.565,0.401,32.745-4.852  c22.6-9.002,54.92-7.707,76.2,15.47c2.804,3.05,5.986,5.401,9.215,6.812c38.306,16.708,51.314,46.021,36.641,82.557  c-1.171,2.912-0.978,4.094-0.978,4.104c2.392,3.074,19.04,5.093,27.967,6.182c16.28,1.984,33.126,4.036,45.188,12.155  c28.313,19.083,59.873,91.972,42.422,139.059c-8.583,23.176-6.859,31.708-6.205,33.635c4.044,3.084,5.677,8.601,3.63,13.509  c-1.838,4.416-6.113,7.075-10.615,7.075c-1.472,0-2.967-0.287-4.413-0.883c-6.95-2.878-21.244-14.622-3.952-61.283  c13.136-35.482-12.155-97.556-33.746-112.098c-7.48-5.045-22.163-6.823-35.112-8.405c-19.222-2.34-37.376-4.553-45.04-17.478  c-4.022-6.789-4.182-14.896-0.494-24.104c10.145-25.241,2.815-41.089-24.52-53.004c-6.227-2.717-11.939-6.869-16.959-12.339  c-13.88-15.115-35.469-15.734-50.738-9.656c-17.902,7.133-38.319,13.761-54.565,2.26c-6.974-4.932-10.893-10.999-11.616-18.006  c-1.333-12.659,8.353-23.164,16.901-32.441c3.769-4.094,10.801-11.72,10.938-14.575c-13.305-14.874-41.812-17.03-53.071-16.56  c-29.862,8.463-88.931,31.307-107.303,59.965l-1.632,2.546l-2.665,1.41c-12.501,6.605-52.554,59.059-70.203,85.423  c-4.768,7.133-14.121,24.897-23.163,42.075c-10.376,19.714-21.095,40.08-27.542,49.575c-7.605,11.182-18.017,36.754-26.886,61.456  c2.481,3.784,4.149,8.291,5.55,12.179c3.183,8.865,5.595,14.025,7.824,13.486c6.664-1.262,8.17-4.611,10.801-23.934  c2.159-15.986,5.146-37.901,20.98-58.21c31.942-40.998,61.86-42.787,87.069-38.337c0.195-5.263-1.413-15.046-2.458-21.353  c-1.746-10.608-3.401-20.631-2.354-28.762c3.86-29.953,40.971-71.157,68.5-75.996c11.778-2.076,21.946,2.591,27.071,12.5  c8.168,15.792,16.567,19.083,18.556,19.655l0.414-0.022c54.84-2.328,112.656-0.562,126.042,30.274  c3.803,8.762,8.33,12.351,14.603,17.316c10.491,8.314,23.554,18.658,32.171,52.855c7.86,31.238,6.183,53.302-5.02,68.29  c-7.32,9.794-18.167,14.461-31.345,14.461c-0.172,0-0.334,0-0.506,0c-6.124,0-11.202-3.44-11.466-9.576  c-0.265-6.33,4.642-10.986,10.984-11.262c6.216-0.263,10.766-2.086,13.904-6.284c3.859-5.184,9.157-18.428,1.158-50.194  c-6.72-26.662-15.211-33.291-24.173-40.401c-7.181-5.687-15.316-12.086-21.406-26.123c-4.067-9.369-25.346-19.759-103.958-16.457  l-1.678,0.081c-0.172,0-0.345-0.091-0.529-0.091c-0.206,0-0.403,0.103-0.608,0.091c-2.218-0.126-22.038-2.11-37.562-32.099  c-0.883-0.756-4.755-0.814-12.131,3.464c-17.087,9.942-37.929,34.472-40.226,52.442c-0.632,4.794,0.896,13.991,2.228,22.098  c2.896,17.511,5.631,34.06-3.895,43.313c-3.24,3.143-9.008,6.502-18.418,4.713c-18.429-3.542-40.363-4.495-66.847,29.484  c-12.029,15.435-14.328,32.316-16.351,47.212c-2.469,18.2-5.274,38.818-29.264,43.383c-1.896,0.355-3.7,0.527-5.377,0.527  c-12.029,0.011-19.038-8.498-23.439-17.029c-0.804,2.018-1.62,4.06-2.527,6.261C16.593,408.188,7.677,429.921,7,459.151  c1.585-0.493,3.229-0.895,4.997-1.054c6.872-0.631,17.086,1.456,27.208,14.896c3.377,4.473,11.777,7.638,20.452,7.385  c9.124-0.115,16.902-3.452,20.819-8.922c3.493-4.908,7.032-14.094,10.778-23.817c10.892-28.326,27.333-71.169,70.454-61.17  c6.182,1.433,10.031,7.591,8.607,13.761c-1.437,6.182-7.596,10-13.789,8.578c-21.979-5.069-31.608,15.332-43.821,47.04  c-4.274,11.124-8.318,24.358-13.523,31.652c-8.285,11.571-22.589,21.26-39.238,21.26c-0.241,0-0.494,0-0.735,0  c-15.994,0-30.631-9.035-38.341-19.266c-3.711-4.92-6.264-7.225-6.837-7.248c-1.38,0.126-3.597,1.984-5.297,4.025  c1.494,10.218,4.009,21.17,7.858,32.937c2.849,8.702,5.492,16.937,7.986,24.7c0.022,0.057,0.034,0.114,0.057,0.184  c2.137-2.43,4.492-4.689,7.422-6.433c6.469-3.854,17.442-6.95,32.942,0.173c5.767,2.638,8.284,9.46,5.629,15.205  c-2.654,5.744-9.502,8.257-15.235,5.619c-5.159-2.373-9.054-2.82-11.57-1.308c-4.883,2.912-7.744,13.026-8.548,19.313  c12.776,37.647,22.531,57.671,40.616,63.416c11.754,3.738,20.613,3.279,29.976,2.81c13.317-0.7,28.472-1.456,48.234,11.433  c18.958,12.374,53.795,0.62,76.844-7.177c6.262-2.112,11.812-3.991,16.338-5.195c23.52-6.308,55.967-11.583,77.108-0.873  c4.745,2.409,21.796,6.801,38.296,11.033c34.929,8.99,61.804,16.41,78.578,24.746c2.229-3.749,5.169-7.327,8.882-10.516  c11.547-9.92,31.93-17.041,54.438-7.315c8.042,3.474,16.144,7.786,23.991,11.938c22.175,11.777,43.098,22.922,65.363,18.989  c14.052-2.522,24.877-0.653,34.423,0.964c16.168,2.738,31.459,5.274,67.147-14.334c27.611-20.884,29.415-22.489,33.872-50.563  c1.953-12.362-0.103-16.157-2.943-21.41c-4.665-8.59-8.167-17.156-4.065-35.08c2.126-9.334,0.505-17.443-4.836-24.128  c-7.779-9.748-21.144-14.116-30.943-14.116c-6.353,0-11.488-5.127-11.488-11.468c0-6.342,5.136-11.468,11.488-11.468  c18.684,0,37.883,8.922,48.925,22.74c9.777,12.236,12.982,27.282,9.261,43.52c-2.506,10.963-0.953,13.83,1.871,19.048  c3.643,6.697,8.595,15.851,5.425,35.883c-0.979,6.136-1.965,11.273-3.081,15.895c17.614-11.583,25.669-20.252,23.9-28.533  c-3.7-17.245,4.468-28.06,10.455-35.813c4.677-6.054,6.894-9.599,6.365-14.599c-1.885-17.648-14.178-54.322-48.292-76.696  c-18.944-12.431-32.998-15.412-45.81-26.88c0,0-0.012,0-0.023,0c0,0,0,1.674-0.01,1.674c-13.122-4.358-24.922-2.568-39.25,2.524  c-34.584,12.328-78.936-2.718-118.573-40.298c-17.465-16.548-28.001-16.834-47.132-17.339c-3.286-0.092-6.744-0.184-10.409-0.355  c-5.136-0.39-15.305,3.566-25.323,7.236c-22.958,8.394-51.51,18.841-75.442,7.569c-13.075-6.159-22.761-17.971-28.805-35.115  c-11.569-32.832-12.536-62.67-13.26-84.459c-0.458-14.06-0.987-30-5.078-30.768c-6.229-1.169-10.353-7.156-9.169-13.382  c1.172-6.216,7.112-10.321,13.409-9.163c22.221,4.151,22.991,27.671,23.807,52.557c0.712,21.433,1.586,48.107,11.972,77.602  c3.988,11.296,9.514,18.486,16.925,21.973c15.269,7.167,38.812-1.434,57.737-8.36c10.903-3.979,20.485-7.34,28.896-8.257  c38.329-34.874,29.666-58.853,29.276-59.873c-2.275-5.804,0.436-12.489,6.18-14.897c5.769-2.42,12.318,0.046,14.881,5.722  c0.619,1.422,13.099,30.756-19.303,69.85c14.638,1.479,28.998,6.067,46.659,22.81c25.658,24.312,64.032,46.318,95.032,35.333  c15.166-5.402,28.484-6.446,41.42-4.221c1.402-2.465,3.058-5.103,4.93-8.051c5.354-8.429,15.339-24.093,12.248-30.779  c-2.665-5.756-0.138-12.568,5.63-15.218c5.745-2.66,12.593-0.125,15.234,5.62c8.056,17.465-3.642,36.812-12.844,51.295  c21.784-2.008,63.468-11.972,75.074-49.851c1.85-6.043,8.308-9.472,14.337-7.614c6.069,1.858,9.494,8.269,7.632,14.323  c-11.572,37.81-44.501,54.976-72.687,62.006c4.653,2.889,9.457,5.985,14.468,9.277c12.008,7.878,21.554,17.236,29.447,26.995  c11.731,1.114,44.66,3.532,68.227-1.754c15.545-3.487,24.369-7.511,32.896-11.41c7.848-3.578,15.947-7.283,27.875-9.829  c21.002-4.495,56.196-26.891,61.366-50.423c2.997-13.647,0.724-19.908-0.725-24.094c-0.264-0.71-0.252-1.295-0.446-1.972  c-3.563-1.136-7.412-2.844-11.342-5.734c-13.283-9.781-21.544-27.694-24.59-53.255c-1.883-15.883-7.121-27.179-15.533-33.566  c-9.721-7.374-21.187-6.009-21.326-5.986c-6.294,0.986-12.144-3.326-13.108-9.588c-0.965-6.26,3.333-12.121,9.605-13.085  c2.103-0.343,21.29-2.831,38.733,10.391c13.568,10.287,21.796,26.823,24.448,49.128c3.769,31.72,15.708,40.228,23.187,40.492  C988.983,374.612,1000.737,362.765,991.901,332.628z M602.468,570.044c4.826-4.116,12.076-3.553,16.191,1.25  c9.247,10.78,22.267,28.279,24.427,43.35c9.329-0.666,21.886,0.492,32.515,10.757c4.563,4.414,4.676,11.672,0.267,16.214  c-2.266,2.328-5.254,3.499-8.265,3.499c-2.883,0-5.755-1.067-7.985-3.223c-5.756-5.562-13.166-4.862-21.542-3.486  c-5.272,0.859-13.236,2.167-17.981-4.909c-2.067-3.084-3.62-8.199,0.402-15.216c-0.138-5.195-9.111-20.15-19.292-32.075  C597.081,581.387,597.642,574.161,602.468,570.044z M333.459,446.663c25.955,27.914,48.475,52.167,73.568,46.331  c45.131-10.379,95.697-17.019,128.478,12.269c0.069,0.058,0.093,0.149,0.163,0.208c36.675,31.008,30.146,70.939,21.495,87.785  c-2.032,3.968-6.066,6.238-10.237,6.238c-1.759,0-3.549-0.402-5.226-1.262c-5.632-2.867-7.871-9.747-5.021-15.367  c0.688-1.388,15.956-33.348-16.213-60.193c-0.059-0.046-0.07-0.115-0.128-0.161c-0.045-0.046-0.113-0.058-0.159-0.104  c-25.106-22.441-70.893-15.492-107.983-6.949c-18.704,4.301-34.962-0.779-50.186-10.791c-0.449,9.494-1.861,19.277-5.148,26.078  c-2.275,4.724-5.377,8.188-9.054,10.757c12.053,30.95,52.921,36.065,60.574,36.065c0.045,0,0.091,0,0.138,0  c4.25,0,9.168,1.697,12.293,5.332c4.114,4.828,3.527,13.005-1.297,17.11c-2.746,2.328-7.101,4.129-11.996,4.129  c-13.431,0-31.01-6.445-31.251-6.537c-26.426-9.806-44.317-27.362-51.417-50.033c-11.593,0.103-24.369-2.478-35.872-4.828  c-10.203-2.087-24.175-4.896-28.781-3.418c-3.631,2.064-8.458,17.546-10.514,24.163c-1.77,5.723-3.412,10.55-5.331,14.541  c-7.021,25.114,9.604,41.755,10.317,42.453c4.492,4.404,4.642,11.64,0.252,16.181c-2.262,2.341-5.274,3.532-8.284,3.532  c-2.837,0-5.665-1.031-7.872-3.13c-1.137-1.079-27.54-26.662-16.498-65.492c0.127-0.47,0.459-0.814,0.643-1.263  c0.184-0.436,0.195-0.906,0.438-1.317c1.184-2.042,2.872-7.489,4.366-12.294c4.997-16.09,10.673-34.334,25.242-39.14  c10.444-3.452,24.415-0.597,40.594,2.708c15.533,3.165,38.984,7.935,42.58,0.526c3.356-6.95,3.643-25.527,2.517-35.4  c-7.376-7.134-14.66-14.966-22.048-22.913c-6.952-7.477-14.086-15.137-21.509-22.465c-1.827-1.801-3.527-3.625-5.147-5.458  c-6.86,22.854-21.981,51.398-59.402,51.398c-10.662,0-20.659-2.902-30.333-5.712c-14.408-4.196-26.852-7.797-39.698-2.041  c-1.437,0.654-3.056,1.72-4.17,4.782c-4.699,12.856,4.699,40.653,11.708,55.172c2.757,5.711,0.356,12.567-5.355,15.321  c-1.607,0.779-3.32,1.146-4.998,1.146c-4.262,0-8.354-2.386-10.34-6.469c-2.299-4.725-22.119-46.926-12.616-72.979  c2.998-8.246,8.664-14.427,16.373-17.879c20.567-9.242,39.146-3.841,55.519,0.929c8.501,2.477,16.521,4.805,23.91,4.805  c27.76,0,36.41-25.619,41.616-53.313c0.207-1.089,0.391-2.042,0.575-2.97c-8.917-22.58-7.917-46.146-6.882-69.197  c0.436-9.839,0.885-20.011,0.608-30.206c-0.965-35.194-21.773-35.779-21.991-35.779c-6.342-0.057-11.444-7.053-11.387-13.382  c0.058-6.296,5.183-13.177,11.49-13.177c0.035,0,0.071,0,0.104,0c14.938,0,43.512,14.243,44.775,59.896  c0.299,11.021-0.183,22.523-0.642,32.764c-1.506,33.737-2.689,60.835,22.427,85.593  C318.913,430.815,326.277,438.945,333.459,446.663z M917.46,417.788c-0.023,6.319-5.16,10.699-11.489,10.699  c-0.012,0-0.023,0-0.035,0c-6.352,0-11.479-4.438-11.442-10.769c0.021-7.477-1.804-8.555-16.374-12.545  c-11.374-3.119-25.543-6.824-34.916-20.527c-28.484-41.56-70.341-45.756-107.28-49.552c-33.631-3.44-71.731-7.316-71.388-51.364  c0.336-42.328,0.336-42.305-33.652-57.098c-42.857-18.647-42.088-38.704-40.834-44.415c1.344-6.192,7.479-10.092,13.674-8.75  c5.686,1.25,9.466,6.502,8.994,12.144c0.403,1.331,3.873,9.793,27.335,20.011c41.903,18.223,47.877,24.392,47.454,78.325  c-0.175,21.387,12.258,24.473,50.76,28.417c37.722,3.864,89.391,9.174,123.884,59.517c4.628,6.755,12.695,8.969,22.037,11.525  C897.481,387.043,917.554,391.813,917.46,417.788z"></path></svg>