<?xml version="1.0" encoding="utf-8"?>
<!-- Generator: Adobe Illustrator 19.1.0, SVG Export Plug-In . SVG Version: 6.00 Build 0)  -->
<svg version="1.1" id="Layer_1" xmlns="http://www.w3.org/2000/svg" xmlns:xlink="http://www.w3.org/1999/xlink" x="0px" y="0px"
	 viewBox="0 0 899.8 1080" style="enable-background:new 0 0 899.8 1080;" xml:space="preserve">
<style type="text/css">
	.st0{fill:none;stroke:#000000;stroke-miterlimit:10;}
</style>
<polygon class="st0" points="683.4,975.6 671.8,978.7 654.4,980.2 646.7,984.6 639.2,978.5 638.5,975.3 637.3,980.5 634.1,979.3 
	632.5,976.2 630.8,979.6 627.6,974.8 624.9,974.4 625.7,979.6 621,978.1 608.5,969.2 614.2,980.5 599.2,985.7 583.3,986.8 
	566.9,987.3 569.9,992 573.6,991.3 573.4,999.4 565.9,999.5 557.8,996 552.8,997.4 542.1,995 538.5,999.7 510,984.9 505.5,988.9 
	489.3,990.3 485.3,996 478.8,997.1 474.6,990.8 476.5,998.5 472,1004.1 470.6,1012.6 468.2,1015.4 469.6,1018.6 472.2,1020.1 
	461.7,1030.8 462.2,1037.4 457.2,1039.3 448.3,1035.3 446,1030.1 436.2,1029.5 431.7,1026.6 430.5,1024.3 427.5,1027.4 
	421.9,1023.6 410.6,1023.4 405.9,1026.9 395.9,1027.3 395.6,1024.3 390.3,1027.3 388.1,1037.9 385.3,1035.8 374.5,1044.6 
	372.4,1038.6 369.7,1045.1 372,1054.3 368.2,1059.6 364.3,1058.7 361.7,1064.1 358,1059.6 357.5,1055.9 350,1049.4 341.3,1047.3 
	338.9,1052.9 331.2,1055.7 330.5,1051.4 330.8,1045.4 335.5,1041.2 339.2,1038.1 346,1039.3 349.8,1035 353.7,1035.3 361.7,1026.9 
	367.1,1018.4 371.8,1016.8 373.4,1003.9 379.9,1004.1 380.2,999.2 385.3,1000.2 389.1,998.1 390.7,991.7 395.9,989.1 398.2,983.3 
	403.4,981 403.9,973.2 403.2,966.9 406.9,955.5 409,955.5 416.7,958.7 427.7,951 425.6,945.4 425.2,937.4 453.5,932 461,934.4 
	473,934.3 478.8,939.2 495.2,936 500.4,937.4 505.2,933.6 503.8,925 507.4,917.5 512.5,913.2 524.5,904.3 509.7,905 507.2,899.9 
	495.4,907.9 494,915.1 475.7,917.9 468.3,915.6 456.1,904.1 450.7,894.7 440.6,895.2 440.4,899.2 433.4,898.5 430.5,901.3 
	425.1,901.6 421.6,898.7 420.2,894 425.6,890.6 428.9,892 432,889.4 428.2,886.8 419.1,887 416.1,878.8 419.9,874.9 419.6,870.6 
	417.7,874 413.4,878.8 410.9,877.1 412.4,880.5 403,880.5 396.4,882.8 392.1,889.7 389.3,891.6 384.7,890.5 378.5,895.6 
	371.2,892.4 372.4,886.4 379.1,884.6 364.3,882.9 365.3,885 362.8,884.9 359.5,881.1 362.8,878.3 368.3,876.1 366.6,868.5 355,868 
	354.9,863.8 370.1,856.3 371.9,850.3 376.1,851 377.1,853.4 395.7,840.2 406,839.1 415.3,830.8 420.2,830.7 428,824.2 436.6,803.9 
	435.6,796.6 432,789.2 433.7,781.8 436.7,780.6 436.2,776.8 430.5,766.5 432,766.1 430.8,760.1 427,756.1 419.9,757 413.1,759.8 
	407.8,764.7 408.4,769.4 405.2,768.8 402.5,766 392.6,770.5 390.2,768.2 394,761.7 401.3,754.1 404.4,753.9 418.6,741.9 
	418.1,733.5 423.9,729.2 416.7,732.6 409.2,727 407.4,727.2 405.9,721 400.7,720 395.8,714.3 399.9,713.5 403.2,715 402.7,710.9 
	402.7,703 404.4,702 411.5,701.8 412.3,699.9 414.3,701.7 421.2,701.9 428.2,715.1 432.4,712.2 437.4,713.5 432.4,719.9 
	432.7,722.2 437.7,721.7 442.2,717.6 443.8,717.5 447.4,714.9 450,714.8 450.5,712 454.3,711.4 459.5,714.8 468.7,714.6 
	472.8,711.3 478.8,708.8 485.2,709.1 499.7,721.6 496.9,711.1 492.7,706.3 499.9,699.9 506.4,700.2 501.5,694.2 497.8,686.3 
	501.6,679.4 502.4,674.6 508.4,669.3 501.6,663.8 502.4,646.4 511.6,644 513,639.4 510.5,632.9 516.9,627.7 517.3,622.7 
	513.9,616.7 518.6,613.6 517.7,611.1 515.4,614.6 510.9,616 508.4,620.8 505,620.3 503.4,614.7 501.7,613.8 501.7,617.2 494,632.6 
	492,633.4 487.4,626.7 487.3,620.8 489.2,619.2 492.1,611.4 490.3,609.7 487.9,616.8 487,615.6 484.7,617.8 477.2,607 477.4,600.3 
	467.7,584.9 464,583.7 467.4,573.4 468,564 472.6,557.8 476.2,546.4 479.5,539.9 481.5,538.4 478.5,537.2 470.8,544.6 470.5,530.7 
	467.8,528.1 467.2,529.4 469.1,531.1 468.9,537.7 466.7,540.1 462.3,540.2 458.9,540.6 443.2,552.3 436.7,551.5 436,545.8 
	432.4,551.7 428.7,549.6 426.6,541.8 423.1,544.6 418.7,543.9 414.3,538.2 414.5,546.3 417.7,547 416.5,559.5 412.8,562 
	405.7,557.4 386.3,541.4 379.1,546.4 379.5,552.9 381.8,560 383.7,561.4 383.3,567.4 377.5,563.5 377.5,556 375.5,554.4 375.5,552 
	366.1,542.7 366,539.7 363.2,535.4 363.5,528.5 365.6,525.2 368.7,524.5 370.9,527 371.1,533.5 374.3,536.8 375.8,533.1 
	371.2,522.8 375.6,512.2 376.5,509.1 383.6,501.3 385.9,488.6 390.7,479.3 393.9,476.8 397.3,475.8 399.7,468.2 397.3,459.9 
	386.7,451.7 383.5,446.8 383.5,442 384.8,437.4 382.5,432.8 382.2,423.6 386.1,417 390.8,416.1 393.4,418.5 403,418.5 395.2,415.3 
	394.3,412.5 389.9,410.2 387.3,405.3 388.8,410.7 386.4,414.1 384.7,413.5 383.1,405.6 385.8,398.1 382.1,400.2 381.4,405.5 
	381.8,413.5 379.3,420.7 376.8,427.6 372.8,424.8 371.3,418.1 368,415.9 370.7,423.8 365.5,421.9 369.3,424.7 370.5,428.3 
	374,430.2 374.5,443.3 369.3,437.7 369.5,437 366.8,434.3 366.7,429.1 364.6,428.6 361.1,424.7 364.3,419.7 362.6,416.6 361.7,421 
	359.6,423.3 362,430.9 358.3,429.5 356,429.5 352.3,420.7 354,416.7 353.1,411.6 355.6,408.9 361.4,398.1 370.4,392.1 370.2,389 
	378.8,382.1 370.4,385.4 364.4,394.1 360.2,396.8 354.3,404.5 349.6,411.4 347.3,409.5 346.5,416.4 348.2,420.3 350.2,427.2 
	353.8,432.5 354.7,439.1 348,442.1 344,455 344.8,460.5 343.5,462.1 341.6,471.1 339.8,475 338.2,477.4 336.1,477.1 341.7,484.5 
	338.7,490.5 332.4,490.2 329.9,492.7 326.1,493.5 323.9,488.3 324.2,481.7 329.2,475.5 329.1,460.8 331.2,456.6 331.8,447.9 
	344.9,433.1 344.5,430.3 343.8,432.5 341.1,436.2 337.4,437.5 332.5,434.6 332.5,429 334.2,424.7 337.1,421.3 336.4,419.4 
	333.5,422.8 332.7,417.6 337.1,411.6 336.4,409.9 331.5,417.2 329.9,419 329.7,414.4 336.6,403.5 329.1,403.2 337.5,401.7 
	340.6,402.6 339.4,395.1 341.8,391.9 342.1,389.7 337.1,394.7 336.9,393.2 339.6,384 343.1,382.4 342.8,380.2 336.5,382.7 
	336.5,378 334.7,390.1 332.1,384.8 334.2,375.7 340.5,371.1 339.4,367.3 340.5,363.2 344.2,364.3 344,359.7 348.7,357 348.4,348.4 
	355.9,336.8 356.1,334.7 363.4,330.4 359.9,328.7 366.5,318.3 367.4,316.9 367.1,312.9 365.1,317.5 358.6,325.9 346.4,338 
	343.2,340.2 340.8,346.1 335,351.5 331,352.8 323.9,348.9 318.7,347.2 316.1,347 310.7,339 316.1,332.3 310.7,333.4 302.4,330.2 
	301.6,331.3 297.7,330.9 296.3,332.9 296.1,326.2 303.8,321.3 306,322.9 313.1,320.8 317.4,321.8 320.4,314.1 324.5,313 
	326.1,308.7 317.9,308.4 315.7,306.1 319.8,298.6 310.7,298.5 320.3,296.9 323.3,291.9 328.5,292.3 330.1,296 334.5,297.4 
	333.6,294.5 332,294.5 330.7,289.7 327.2,289.5 324.4,288 329.4,280.4 336.1,279.4 338,282.4 342.3,282.3 339.4,280.1 338.1,278 
	332.1,276.4 333.3,266.7 323.1,274.9 323.2,278 313.2,290.8 308.8,290.9 307.4,287.3 310,285.9 310.9,278.9 314.7,273.7 
	311.1,273.5 309.7,269.4 303.6,277.9 303,272.5 291.9,273.8 291.1,269.7 288,272.1 278.9,259.6 283,254.5 288.7,257.6 283.9,252.1 
	280.2,252.6 278.8,246.6 277.3,248.6 276.3,246.2 273.3,247.3 273.2,254.1 264.2,249.9 261.9,243.7 263.7,232.8 267,238.3 
	271,238.6 273.1,235 270.5,229 267.8,227.8 269.8,221 273.2,226.6 274,228.6 288.1,234.4 284.4,227 286.8,223.4 284.5,222.5 
	284.5,215 289,209.3 294.1,212.9 295.6,216.9 299.1,219.8 301.4,226.6 300.5,244.4 306.5,260 311.1,261.1 308.6,256.8 311.5,255.1 
	315.9,258.2 314.6,262 318,265.3 326.6,261.1 331.8,253.2 338.4,252.2 334.2,247.9 326.9,252.3 323.2,252.2 318.6,236.9 321,224.2 
	330.9,230.4 332.5,227.8 323,214.1 323.8,210.3 331.5,210.4 331.1,207.5 325.3,205.3 322.9,198.2 326.1,189.8 331,189.2 
	331.6,193.8 334.4,200.8 337.2,198.5 336.9,193.1 333.4,187.7 335.1,182.3 340.6,186.7 341.3,190.1 346,190 347.3,185.9 
	352.2,187.2 356.7,191.1 360,190.9 350.6,184.1 352.5,182.2 353.9,183.4 360.1,183.2 363.3,187.1 367.3,189.1 361.6,182.8 
	359.3,177.6 355.1,176.2 352,170.4 348.4,169.9 345.3,162.3 346.8,161 356.7,163.6 358.5,157.7 356.4,156.7 355,154.2 355.4,151.3 
	348.6,143.4 350.9,140.7 356.9,142.9 366.4,141.3 367.9,139.1 364.2,128.7 369.6,118.4 374.9,118.8 366.5,113.1 370.5,107.1 
	372.5,105.6 374.8,96.3 378.6,97.9 379.6,97.1 386.5,100.5 386.5,106 388.2,105.4 390.7,100.8 396.6,105.6 391.6,118 395.4,115.2 
	401.6,105.9 401.4,103 405.1,102.2 411.7,105.5 414,109.5 418.4,106.3 423.7,108.4 426.3,106.3 429.5,106 433,103 433.5,104.6 
	435.8,104.5 438.8,99.4 439.3,103.4 453.8,103 456.5,102.4 462.1,97.1 469.7,97.2 471.3,99.1 476,98.4 478.4,99.4 481.4,96.6 
	477.5,93 482.2,90.5 484.2,93 490.7,93.2 493,91.3 493.8,91.4 493.7,94.6 502.9,93.2 502.4,99.4 496.6,111.4 497.3,115.3 
	502.1,114.1 497.2,126.5 491.3,136.5 483,138 476.9,144.7 472.9,152.8 466.3,156.8 460.8,162.8 453.1,166.9 450.4,170.2 450.9,173 
	442.1,177.7 439.5,182 438,190 429.7,190.9 422.2,190 417.6,186.1 420.7,190.3 427,191.3 428.6,193 433.3,193.7 436.7,196.5 
	444,191.2 447.6,194.8 451.1,192.7 452.3,189.5 455,189.5 453.7,194.3 445.1,204.1 442.3,210.9 438.3,210.3 439.4,205.9 
	433.8,206.7 430.3,211.3 423.9,211.8 419.6,214.6 417.2,218.4 417.6,220.7 424.8,213.7 434.7,214.4 438.9,212.6 434.1,223.1 
	428.2,226.3 425.4,231.7 416.1,232.9 414.2,235.1 429.7,235.3 435.8,227.5 438.7,221.4 449.7,222.6 460,214.9 462.6,216.5 
	467.2,217.2 464.4,213.6 471.7,213.8 473.1,209.4 486.6,206 488.7,209.3 498.5,211.9 498.5,214 506.2,213.5 509.9,211.2 
	511.2,208.8 514.7,210.7 520.3,211 533.1,212.2 536.2,214 547.7,213.5 550.7,210.1 557.3,212.8 561.9,210.9 562.8,209 572.7,211.4 
	581.4,221 583.4,233.7 582.3,242.2 574.3,252.1 569.7,257.7 565.6,271 565.2,282.3 562.5,289.3 556.7,297.7 556,309.1 550.4,317.5 
	541.7,323.6 541.6,330.1 538.4,333.4 538.4,341.3 533.1,346.7 530,346.8 521.5,357.6 515.7,355.6 510.7,357.1 506.2,359.7 
	501.2,358.6 488,369.1 488,370.4 506.7,361.3 512.5,358.3 516.7,360 517.6,364.2 513.5,369.9 525.9,373.3 529.2,377.9 532.3,379.5 
	522,387.6 514.9,390.2 509.9,386.6 505.9,387.8 495.8,398.6 491.8,404.5 485.4,405.1 481.5,407.5 465.3,406.7 459.4,405.4 
	457.3,403.4 455.6,402 455.8,403.9 457.4,406.4 459.1,409.7 469.1,410.2 473.5,412.1 482.9,411.8 486,414.5 494.7,414.1 
	500.8,418.2 510.5,413.6 513.5,409.7 514.1,407.1 517.5,404.4 528,405.1 531.9,408.2 532.9,408.8 532.9,411.5 536.7,411.3 
	551.3,419.8 559.3,420.3 561.1,420.7 560.8,424.4 565.7,426.3 566.2,430.6 570.5,437.8 568.9,439.7 578.7,448 578.2,449.7 
	584.3,452.8 585.2,457 588.3,456.1 593.2,459.9 596.8,475.8 597.3,480.2 595.3,482.5 596.2,484.3 596.5,487.6 599.1,490.1 
	598.6,496.3 600.9,500 601.1,510.4 603.1,511.8 602.8,514.1 605.9,517.9 606.9,523.7 609.9,526.8 611.7,541.5 615.8,553.7 
	621.4,559.1 624.1,567.1 650,576.3 659.3,583.9 664.4,586.1 671.3,597.7 674.3,608.1 680.6,613.8 684.9,620.4 689.4,621.1 
	695.3,626.1 688.7,626.7 686.4,630.3 686.2,637.3 689.3,647 692.3,653.6 698,662.6 707,673.2 709.3,680.9 701.3,676.6 695.8,678 
	691.6,676.8 681.7,666 671.4,669.9 664.7,669.7 660.5,667.5 657,667.5 654.1,670.5 646.5,670.8 646.5,672 682.4,671.8 688.6,679.5 
	698.5,685.9 698.5,688 709,693.2 715.9,703.3 716.8,710.5 722.5,724.8 722.1,735.8 721.3,739.7 709.8,744.6 707.7,748.8 
	705.9,750.9 705.6,758.1 711.3,760.3 713.9,766 721.9,766.8 724.1,769.2 724.2,765 729.6,762.9 727.8,761.7 730.4,757.1 
	731.5,751.9 735.3,748.3 745.9,747.8 758.1,749 762.2,748 762.8,749.7 780.7,753.2 788.7,756.3 793.1,759.9 800.6,766.1 
	808.3,773.3 811.3,781.5 813,798.5 811.7,810.7 810.3,815.3 808.7,820.4 805.5,823.3 805.5,834 799.8,844.1 803.1,840.7 802.2,845 
	799.2,846 791.7,853.3 786.5,858.9 781.7,853.9 778.7,853.1 780.8,857.7 769.9,858.6 782.3,859.9 781.5,870.7 776.5,875.4 
	766.8,877.1 764.5,873.4 764.5,875 752.3,880.4 749.2,879.8 749.3,882.6 749.8,884.7 751.8,883.3 760,880.4 760.9,886.6 760,892 
	752.9,893.3 754.7,894.1 755.8,895.4 758.2,893.7 761.6,893.4 750.1,904.2 749.7,902.6 741.5,901.6 740,904.6 730.4,905.1 
	725.5,910.1 726,910.5 729.3,907.5 743,907.5 746.2,911.9 743.6,912.9 742.2,911.9 737.6,914.7 738.4,918.3 741,916.5 746,917.2 
	748,912 753.2,913 753.1,914.1 757.1,913.8 761.3,917.7 760.4,920.7 757.6,921.7 757.9,922.5 765,922.5 766.7,919.2 783,918.4 
	792.6,916.8 792.7,923.4 789.7,924 790.8,932.8 790.3,938.2 788.4,944.4 776.4,949 772.6,951.1 769.4,950.7 762.8,958.5 
	762.2,967.2 752.1,963.8 739.5,972 727.8,974.8 715.5,985.4 693.7,977.3 "/>
</svg>
