<?xml version="1.0" encoding="UTF-8" standalone="no"?>
<!-- Generator: Adobe Illustrator 19.1.0, SVG Export Plug-In . SVG Version: 6.00 Build 0)  -->

<svg
   xmlns:dc="http://purl.org/dc/elements/1.1/"
   xmlns:cc="http://creativecommons.org/ns#"
   xmlns:rdf="http://www.w3.org/1999/02/22-rdf-syntax-ns#"
   xmlns:svg="http://www.w3.org/2000/svg"
   xmlns="http://www.w3.org/2000/svg"
   xmlns:sodipodi="http://sodipodi.sourceforge.net/DTD/sodipodi-0.dtd"
   xmlns:inkscape="http://www.inkscape.org/namespaces/inkscape"
   version="1.1"
   id="Layer_1"
   x="0px"
   y="0px"
   viewBox="0 0 960 480"
   xml:space="preserve"
   sodipodi:docname="Bubbles_thought_stretched.svg"
   width="960"
   height="480"
   inkscape:version="0.92.2 5c3e80d, 2017-08-06"><metadata
     id="metadata17"><rdf:RDF><cc:Work
         rdf:about=""><dc:format>image/svg+xml</dc:format><dc:type
           rdf:resource="http://purl.org/dc/dcmitype/StillImage" /><dc:title /></cc:Work></rdf:RDF></metadata><defs
     id="defs15" /><sodipodi:namedview
     pagecolor="#ffffff"
     bordercolor="#666666"
     borderopacity="1"
     objecttolerance="10"
     gridtolerance="10"
     guidetolerance="10"
     inkscape:pageopacity="0"
     inkscape:pageshadow="2"
     inkscape:window-width="1679"
     inkscape:window-height="959"
     id="namedview13"
     showgrid="false"
     inkscape:zoom="1.4142136"
     inkscape:cx="37.193162"
     inkscape:cy="302.66098"
     inkscape:window-x="0"
     inkscape:window-y="0"
     inkscape:window-maximized="0"
     inkscape:current-layer="Layer_1" /><style
     type="text/css"
     id="style2">
	.st0{fill:#FFFFFF;stroke:#000000;stroke-miterlimit:10;}
	.st1{fill:none;stroke:#000000;stroke-miterlimit:10;}
</style><circle
     class="st1"
     cx="175.6198"
     cy="265.17157"
     r="22.6"
     id="circle4"
     style="fill:none;stroke:#000000;stroke-miterlimit:10" /><circle
     class="st1"
     cx="154.22641"
     cy="313.9071"
     r="13.2"
     id="circle6"
     style="fill:none;stroke:#000000;stroke-miterlimit:10" /><circle
     class="st1"
     cx="142.92538"
     cy="350.46347"
     r="7"
     id="circle8"
     style="fill:none;stroke:#000000;stroke-miterlimit:10" /><path
     class="st1"
     d="m 733.99779,28.333243 c 7.53961,-1 60.55669,-2.418553 89.68663,0.04454 41.95982,3.547935 41.35162,17.903896 37.74937,34.642641 -3.10991,14.451145 -25.38207,14.129825 -26.13603,15.929825 v 0 c 27.14259,4.5 37.67189,28.220821 36.41528,40.620821 -1.00528,9.1 -0.79444,18.8 -26.1778,27.7 v 0 c 21.36223,6.8 32.0832,55.93973 26.91741,65.69328 -2.75143,11.82132 -29.6558,19.6 -83.94099,27.2 -20.60827,19.4 -129.84905,14.13324 -185.44923,9.1835 -23.54464,-2.09604 -45.72243,-4.7981 -65.32542,-9.1981 v 0 c -20.35695,5.6 -28.07246,5.57762 -54.24119,7.56256 -46.61097,3.53554 -167.27666,9.19899 -188.8902,-6.20101 v 0 c -56.54708,0 -77.86179,1.14024 -103.07834,-20.15976 v 0 c -48.2535,-14.71562 -44.09076,-58.40179 -44.09076,-79.50179 0,-9.7 7.28829,-18.7 20.10563,-26.2 v 0 c -6.78565,-5.5 -17.66387,-20.462061 -17.66387,-26.962061 0,-21.9 1.71649,-51.313709 55.75036,-52.913709 v 0 c 18.34638,-14.6 64.35248,-15.358848 108.27378,-14.446951 59.60089,1.237437 64.24617,10.422718 75.05295,11.822718 v 0 c 19.10034,-8.3 46.9969,-13.5 77.65798,-13.5 32.16901,0 60.81953,5.7 80.17119,14.8 v 0 c 15.07922,-4.7 23.51695,-7.6 39.87542,-10.074874 36.69754,-5.103301 139.04426,-12.04163 147.33783,3.95837 z"
     id="path10"
     inkscape:connector-curvature="0"
     style="fill:none;stroke:#000000;stroke-width:1.58530867;stroke-miterlimit:10"
     sodipodi:nodetypes="csscccccccsccsccccsccsccsccscccc" /></svg>