<svg xmlns="http://www.w3.org/2000/svg" xmlns:xlink="http://www.w3.org/1999/xlink" version="1.1" x="0px" y="0px" viewBox="0 0 512 512" enable-background="new 0 0 512 512" xml:space="preserve"><path d="M390.626,201.978c-3.897-11.338-10.716-21.761-20.472-28.877c-9.793-7.143-22.103-10.621-34.161-10.591  c-8.385,0.017-16.837,1.756-24.638,4.805c-1.904-22.824-11.15-45.267-25.757-62.873c-16.163-19.483-38.647-32.208-62.789-39.093  c-3.092-0.882-6.21-1.647-9.339-2.386c-3.035-0.716-6-1.353-9.141-1.209c-5.838,0.267-11.398,3-15.288,7.35  c-3.823,4.275-5.741,10.406-5.307,16.106c0.436,5.723,3.346,11.249,6.212,16.11c0.332,0.563,0.67,1.122,1.015,1.676  c-5.296,0.097-10.362,0.234-15.27,2.455c-4.141,1.875-7.765,4.837-10.41,8.535c-6.184,8.644-6.288,20.357-0.517,29.228  c4.313,6.63,10.262,12.185,16.567,16.891c8.188,6.112,17.358,10.903,26.961,14.369c4.324,1.561,8.884,3.13,13.428,3.897  c1.782,0.301,3.557,0.647,5.328,1.009c8.388,1.712,16.701,3.857,24.839,6.515c6.478,2.116,12.872,4.565,18.975,7.607  c-19.756,16.032-37.424,34.624-52.448,55.156c-15.097,20.632-27.455,43.114-37.006,66.822  c-9.541,23.683-15.995,48.494-19.917,73.704c-0.086,0.555-0.229,0.406-0.731,0.472c-0.333,0.043-0.666,0.088-0.998,0.136  c-0.656,0.095-1.31,0.198-1.963,0.313c-1.376,0.239-2.745,0.522-4.102,0.854c-2.485,0.605-4.932,1.373-7.306,2.327  c-4.443,1.785-8.619,4.237-12.248,7.37c-7.381,6.374-12.024,15.24-14.081,24.695c-1.303,5.993-1.725,12.287-1.093,18.396  c0.176,1.708,0.473,3.405,0.722,5.104c0.089,0.61-0.148,1.417,0.537,1.417c4.194,0,8.389,0,12.583,0c8.979,0,17.959,0,26.938,0  c11.989,0,23.979,0,35.968,0c13.223,0,26.446,0,39.67,0c12.682,0,25.364,0,38.045,0c10.364,0,20.729,0,31.094,0  c6.271,0,12.543,0,18.815,0c1.046,0,2.092,0,3.139,0c3.258,0,6.2-2.14,7.17-5.261c0.769-2.477-0.051-4.961-0.907-7.303  c-0.897-2.455-2.103-4.795-3.59-6.945c-1.314-1.9-2.844-3.648-4.539-5.218c-0.74-0.686-1.512-1.338-2.31-1.955  c0.486-1.508,0.929-3.03,1.296-4.571c1.18-4.955,1.851-10.098,2.502-15.146c1.145-8.875,1.581-17.811,1.04-26.748  c-1.342-22.18-7.383-43.901-12.649-65.388c-1.53-6.22-2.517-12.484-2.339-18.903c0.158-5.729,0.484-11.677,2.786-17.009  c2.112-4.895,5.997-8.626,10.868-10.75c4.255-1.855,8.8-2.336,13.376-2.571c12.01-0.618,24.277-3.744,34.483-10.238  c9.994-6.358,17.268-16.475,19.145-28.278C393.989,216.613,393.04,209.007,390.626,201.978  C389.539,198.816,393.7,210.928,390.626,201.978z M157.07,437.481c-8.529,0-17.058,0-25.587,0c0.1-7.779,1.953-15.808,6.528-22.213  c5.097-7.137,13.157-10.982,21.612-12.535C158.253,414.271,157.423,425.869,157.07,437.481z M223.933,165.788  c-16.906-3.828-33.903-12.284-45.393-25.559c-1.904-2.2-3.85-4.626-4.713-7.444c-1.492-4.873,0.081-10.294,3.926-13.625  c4.249-3.68,9.81-3.417,15.106-3.453c1.502-0.01,3.005,0.002,4.508,0.038c0.735,0.018,1.471,0.041,2.206,0.069  c0.364,0.014,0.728,0.029,1.091,0.046c0.327,0.365,0.656,0.728,0.988,1.088c2.137,2.325,4.377,4.553,6.715,6.676  c4.62,4.195,9.603,7.997,14.866,11.35c2.698,1.719,5.47,3.335,8.289,4.848c1.647,0.884,3.39,1.6,5.073,2.415  c10.892,5.273,21.485,11.263,31.483,18.086c8.001,5.46,15.779,11.507,22.37,18.638c-2.562,1.727-5.083,3.504-7.566,5.341  c-0.298,0.221-0.597,0.442-0.896,0.662c-0.263-0.151-0.525-0.3-0.789-0.449c-0.529-0.298-1.063-0.591-1.598-0.88  c-1.17-0.63-2.352-1.238-3.544-1.825c-4.614-2.273-9.374-4.248-14.203-6.015c-8.465-3.097-17.157-5.576-25.938-7.6  C231.954,167.284,227.956,166.379,223.933,165.788C196.286,159.528,225.108,165.96,223.933,165.788z M309.54,438.005  c-2.251,0-4.502,0-6.754,0c-1.467,0-2.934,0-4.4,0c-0.415,0-0.829,0-1.244,0c-0.384,0-0.314,0.01-0.314-0.414  c0-9.153-4.915-17.693-13.618-21.148c-5.315-2.11-11.38-1.491-16.986-1.491c-2.933,0-5.866,0-8.8,0c-2.544,0-4.97-0.108-6.786-2.241  c-3.057-3.59-1.11-9.331,3.497-10.327c1.787-0.386,3.835-0.143,5.643-0.143c5.178,0,10.355,0,15.534,0  c0.869,0,1.739,0.033,2.606,0.103c0.738,0.06,1.475,0.143,2.207,0.25c0.492,0.071,2.055,0.59,2.361,0.242  c1.396-1.587,2.707-3.25,3.921-4.98c3.088-4.404,5.822-9.458,6.817-14.793c2.005-10.753-4.607-21.497-14.626-25.483  c-7.955-3.165-16.755-0.923-24.681,1.292c-7.857,2.196-15.453,5.362-22.454,9.562c-8.07,4.839-15.283,11.043-21.271,18.302  c-3.435,4.164-6.188,8.66-9.023,13.231c-2.639,4.255-9.115,3.953-11.232-0.639c-1.303-2.827-0.091-5.221,1.357-7.669  c1.359-2.3,2.808-4.547,4.344-6.732c2.876-4.092,6.061-7.965,9.533-11.564c6.197-6.425,13.3-11.95,21.018-16.431  c11.802-6.85,25.129-11.45,38.649-13.354c10.369-1.46,21.012,1.692,28.919,8.557c8.067,7.003,12.863,17.384,12.517,28.105  c-0.334,10.286-5.482,20.001-11.719,27.949c4.882,3.313,8.844,7.889,11.445,13.183C308.586,426.633,309.54,432.187,309.54,438.005z   M340.617,203.499c-3.912,0-6.956-3.424-6.956-7.249s3.044-7.249,6.956-7.249s6.955,3.425,6.955,7.249  S344.529,203.499,340.617,203.499z"></path></svg>