<svg xmlns="http://www.w3.org/2000/svg" xmlns:xlink="http://www.w3.org/1999/xlink" version="1.1" x="0px" y="0px" viewBox="0 0 100 100" enable-background="new 0 0 100 100" xml:space="preserve"><g><rect x="20.012" y="30.563" width="40.047" height="7.806"></rect><rect x="17.637" y="12.916" width="44.799" height="16.969"></rect><rect x="22.049" y="39.048" width="35.975" height="9.163"></rect><polygon points="60.06,12.237 60.06,8.843 43.09,8.843 36.981,8.843 20.012,8.843 20.012,12.237  "></polygon><path d="M83.816,44.479c-2.036,0-6.448-1.358-7.806,7.127c-1.357,8.484-9.842,7.127-9.842,7.127   c-8.472,0-10.738-8.086-11.131-9.842H25.034c-0.392,1.756-2.659,9.842-11.13,9.842c-9.502,0-8.712,9.503-8.712,9.503   s-0.016,6.108-0.016,14.254s4.655,8.824,4.655,8.824s75.683,0,80.773,0c5.09,0,5.43-4.412,5.43-4.412s0-21.721,0-30.884   C96.034,46.854,85.853,44.479,83.816,44.479z M14.244,80.905c-1.874,0-3.394-1.52-3.394-3.395c0-1.873,1.52-3.394,3.394-3.394   s3.394,1.521,3.394,3.394C17.637,79.386,16.118,80.905,14.244,80.905z M83.478,49.003c1.5,0,2.715,1.215,2.715,2.714   c0,1.5-1.215,2.715-2.715,2.715c-1.499,0-2.715-1.215-2.715-2.715C80.763,50.219,81.979,49.003,83.478,49.003z M88.681,84.299   H61.983V72.76h26.697V84.299z"></path></g></svg>