<?xml version="1.0" encoding="utf-8"?>
<!-- Generator: Adobe Illustrator 21.0.2, SVG Export Plug-In . SVG Version: 6.00 Build 0)  -->
<svg version="1.1" id="Layer_1" xmlns="http://www.w3.org/2000/svg" xmlns:xlink="http://www.w3.org/1999/xlink" x="0px" y="0px"
	 viewBox="0 0 1920 1080" style="enable-background:new 0 0 1920 1080;" xml:space="preserve">
<style type="text/css">
	.st0{fill:#FFFFFF;stroke:#000000;stroke-miterlimit:10;}
</style>
<path class="st0" d="M904.5,457.1c-8,0.5-15.7-2.3-15.7-2.3c0,0-3-1-5.9-2.5c-16.3-8.4-26.4-25.2-26.4-25.2
	c-2.1-3.6-8.3-14.3-9.2-27.9c-1.6-26.1,17.9-48.9,36.7-61.3c22.6-15,62.1-23.5,79.3,0c0,0,1.5,62.5-1.5,69.6
	c-9.1,21.8-24.1,33.1-30.8,38.1C924,450.6,916,456.4,904.5,457.1z"/>
<path class="st0" d="M899.6,459.9c-0.8,13.7-2.2,30.9-4.6,50.7c-3,24.9-4.6,38.3-9.2,55.3c-3.5,12.9-9,29.6-18.4,48.4"/>
<polyline class="st0" points="920.3,450.6 941.1,482.9 961.8,549.8 982.6,609.7 "/>
<path class="st0" d="M895,464.6c-23.5,1.3-42.6,0.8-55.7,0c-22.1-1.3-38.1-3.7-61.8,0c-10.9,1.7-19.7,4.2-25.4,6"/>
<polyline class="st0" points="756.6,468.5 724.4,549.2 717.4,604.5 "/>
<polyline class="st0" points="758.9,470.8 765.9,505.4 779.7,535.3 800.4,574.5 "/>
<path class="st0" d="M852.2,429.2c-17.3,4.3-31.2,4.2-33-0.3c-1.9-4.6,8.6-14.8,25.7-24.1"/>
<path class="st0" d="M845.5,392.3c-16.8-5.9-28.3-13.7-27.4-18.4c1-4.9,15.3-7.7,34.7-6"/>
<path class="st0" d="M755.1,467.5c-8.9-0.3-21.3,0.8-30.8,8.8c-16.4,14-8.5,35.9-22,45.4c-14.1,10-41.7-0.8-57.1-14.6
	c-50.7-45.6,13.3-214.7,66.5-215.7c45.6-0.8,82.1,119,89.6,144.5"/>
</svg>
