<svg xmlns="http://www.w3.org/2000/svg" xmlns:xlink="http://www.w3.org/1999/xlink" version="1.1" x="0px" y="0px" viewBox="0 0 5 5" enable-background="new 0 0 5 5" xml:space="preserve"><g><g><path fill="#000000" d="M0.602,1.607c-0.06,0-0.117-0.022-0.159-0.065c-0.087-0.087-0.087-0.231,0-0.319    c0.042-0.042,0.099-0.065,0.159-0.065s0.116,0.022,0.159,0.065c0.088,0.088,0.088,0.231,0,0.319    C0.718,1.585,0.662,1.607,0.602,1.607z M0.602,1.295c-0.023,0-0.045,0.009-0.062,0.024c-0.034,0.035-0.034,0.09,0,0.125    C0.557,1.461,0.579,1.47,0.602,1.47c0.023,0,0.045-0.009,0.062-0.026c0.034-0.035,0.034-0.09,0-0.125    C0.647,1.304,0.625,1.295,0.602,1.295z"></path></g><g><path fill="#000000" d="M1.451,3.226c-0.038,0-0.068-0.03-0.068-0.068V2.26L0.693,1.571c-0.027-0.027-0.027-0.07,0-0.097    c0.027-0.027,0.07-0.027,0.097,0L1.5,2.183c0.013,0.012,0.02,0.03,0.02,0.048v0.926C1.52,3.195,1.489,3.226,1.451,3.226z"></path></g><g><path fill="#000000" d="M1.172,1.697c-0.06,0-0.116-0.023-0.159-0.065C0.971,1.589,0.948,1.533,0.948,1.473    s0.023-0.117,0.066-0.16c0.042-0.042,0.099-0.065,0.159-0.065c0.061,0,0.117,0.022,0.159,0.065    c0.042,0.043,0.066,0.099,0.066,0.16S1.374,1.589,1.332,1.632C1.289,1.673,1.233,1.697,1.172,1.697z M1.172,1.385    c-0.023,0-0.045,0.009-0.062,0.026C1.094,1.428,1.085,1.449,1.085,1.473c0,0.023,0.009,0.045,0.025,0.062    C1.127,1.551,1.149,1.56,1.172,1.56c0.023,0,0.046-0.009,0.062-0.026C1.251,1.518,1.26,1.496,1.26,1.473    c0-0.024-0.009-0.045-0.026-0.062C1.218,1.394,1.196,1.385,1.172,1.385z"></path></g><g><path fill="#000000" d="M1.893,2.936c-0.038,0-0.069-0.03-0.069-0.067V2.221l-0.56-0.56c-0.026-0.027-0.026-0.07,0-0.097    c0.027-0.027,0.07-0.027,0.097,0l0.58,0.579c0.013,0.014,0.021,0.03,0.021,0.048v0.677C1.961,2.906,1.93,2.936,1.893,2.936z"></path></g><g><path fill="#000000" d="M1.083,1.127c-0.061,0-0.117-0.024-0.159-0.066C0.881,1.018,0.858,0.962,0.858,0.902    c0-0.061,0.023-0.117,0.066-0.159C0.966,0.7,1.022,0.677,1.083,0.677c0.06,0,0.116,0.023,0.159,0.066    c0.042,0.042,0.066,0.099,0.066,0.159c0,0.06-0.024,0.116-0.066,0.158C1.199,1.103,1.143,1.127,1.083,1.127z M1.083,0.815    c-0.023,0-0.046,0.009-0.062,0.024C1.004,0.856,0.995,0.877,0.995,0.902c0,0.022,0.009,0.045,0.025,0.061    C1.037,0.981,1.06,0.99,1.083,0.99c0.023,0,0.045-0.009,0.062-0.027C1.161,0.947,1.17,0.925,1.17,0.902    c0-0.025-0.009-0.046-0.026-0.063C1.128,0.824,1.106,0.815,1.083,0.815z"></path></g><g><path fill="#000000" d="M2.514,2.402c-0.018,0-0.035-0.007-0.048-0.02L1.174,1.091c-0.027-0.027-0.027-0.071,0-0.098    c0.026-0.026,0.07-0.026,0.097,0l1.291,1.291c0.027,0.027,0.027,0.07,0,0.098C2.549,2.395,2.531,2.402,2.514,2.402z"></path></g><g><path fill="#000000" d="M2.703,2.11c-0.018,0-0.035-0.007-0.049-0.019L1.72,1.157c-0.026-0.027-0.026-0.071,0-0.098    c0.027-0.027,0.071-0.027,0.097,0l0.934,0.934c0.027,0.027,0.027,0.071,0,0.098C2.737,2.103,2.72,2.11,2.703,2.11z"></path></g><g><path fill="#000000" d="M1.653,1.217c-0.06,0-0.116-0.024-0.159-0.065c-0.087-0.088-0.087-0.231,0-0.319    c0.043-0.042,0.1-0.066,0.159-0.066c0.06,0,0.117,0.023,0.159,0.066c0.042,0.043,0.066,0.099,0.066,0.16    c0,0.06-0.023,0.117-0.066,0.159C1.77,1.193,1.713,1.217,1.653,1.217z M1.653,0.905c-0.023,0-0.045,0.009-0.062,0.024    c-0.034,0.035-0.034,0.09,0,0.125C1.608,1.071,1.63,1.08,1.653,1.08c0.023,0,0.045-0.009,0.062-0.026    c0.017-0.017,0.025-0.039,0.025-0.062c0-0.023-0.009-0.046-0.025-0.063C1.699,0.914,1.677,0.905,1.653,0.905z"></path></g><g><path fill="#000000" d="M4.398,2.087c-0.06,0-0.116-0.022-0.159-0.065c-0.088-0.087-0.088-0.231,0-0.319    c0.042-0.042,0.099-0.065,0.159-0.065s0.117,0.022,0.159,0.065c0.087,0.087,0.087,0.231,0,0.319    C4.515,2.065,4.458,2.087,4.398,2.087z M4.398,1.775c-0.023,0-0.045,0.009-0.062,0.026c-0.035,0.035-0.035,0.09,0,0.125    c0.016,0.016,0.038,0.025,0.062,0.025S4.444,1.941,4.46,1.926c0.034-0.035,0.034-0.09,0-0.125    C4.444,1.785,4.422,1.775,4.398,1.775z"></path></g><g><path fill="#000000" d="M3.465,3.76c-0.018,0-0.035-0.007-0.048-0.02C3.286,3.61,2.981,3.308,2.965,3.287    C2.942,3.26,2.944,3.22,2.97,3.195l1.24-1.24c0.027-0.027,0.07-0.027,0.097,0c0.027,0.027,0.027,0.07,0,0.097L3.114,3.245    c0.084,0.084,0.269,0.268,0.4,0.398c0.027,0.026,0.027,0.07,0,0.097C3.5,3.753,3.483,3.76,3.465,3.76z"></path></g><g><path fill="#000000" d="M3.828,2.177c-0.06,0-0.116-0.022-0.159-0.065c-0.087-0.087-0.087-0.23,0-0.319    c0.042-0.042,0.099-0.065,0.159-0.065c0.06,0,0.117,0.023,0.16,0.065c0.087,0.089,0.087,0.231,0,0.319    C3.944,2.155,3.888,2.177,3.828,2.177z M3.828,1.865c-0.023,0-0.045,0.009-0.062,0.026c-0.034,0.035-0.034,0.09,0,0.125    c0.016,0.016,0.039,0.025,0.062,0.025c0.023,0,0.045-0.009,0.062-0.026c0.034-0.034,0.034-0.089,0-0.124    C3.873,1.875,3.851,1.865,3.828,1.865z"></path></g><g><path fill="#000000" d="M3.318,4.046c-0.018,0-0.035-0.007-0.049-0.019L2.725,3.481C2.711,3.468,2.704,3.45,2.704,3.432V3.008    c0-0.018,0.007-0.036,0.021-0.048l0.915-0.915c0.026-0.027,0.07-0.027,0.097,0c0.026,0.027,0.026,0.069,0,0.097L2.842,3.036v0.368    l0.524,0.524c0.027,0.027,0.027,0.072,0,0.099C3.353,4.039,3.336,4.046,3.318,4.046z"></path></g><g><path fill="#000000" d="M3.917,1.607c-0.06,0-0.116-0.022-0.159-0.065C3.717,1.5,3.693,1.442,3.693,1.383    c0-0.061,0.024-0.117,0.066-0.16c0.042-0.042,0.099-0.065,0.159-0.065c0.061,0,0.117,0.022,0.159,0.065    c0.088,0.088,0.088,0.231,0,0.319C4.034,1.585,3.978,1.607,3.917,1.607z M3.917,1.295c-0.023,0-0.045,0.009-0.062,0.024    C3.839,1.338,3.83,1.359,3.83,1.383c0,0.022,0.009,0.045,0.026,0.062C3.873,1.461,3.895,1.47,3.917,1.47    c0.023,0,0.045-0.009,0.062-0.026c0.034-0.035,0.034-0.09,0-0.125C3.963,1.304,3.941,1.295,3.917,1.295z"></path></g><g><path fill="#000000" d="M3.093,4.287c-0.018,0-0.035-0.006-0.048-0.02L2.489,3.713c-0.013-0.014-0.02-0.03-0.02-0.05v-0.9    c0-0.018,0.007-0.036,0.02-0.049l1.24-1.239c0.027-0.027,0.071-0.027,0.097,0c0.027,0.027,0.027,0.07,0,0.097l-1.22,1.22v0.844    L3.142,4.17c0.026,0.027,0.026,0.07,0,0.097C3.128,4.281,3.11,4.287,3.093,4.287z"></path></g><g><path fill="#000000" d="M2.273,3.535c-0.039,0-0.069-0.031-0.069-0.069V2.572c0-0.018,0.008-0.036,0.021-0.048L3.2,1.549    c0.027-0.027,0.07-0.027,0.097,0c0.027,0.027,0.027,0.069,0,0.097L2.342,2.602v0.864C2.342,3.504,2.311,3.535,2.273,3.535z"></path></g><g><path fill="#000000" d="M3.347,1.697c-0.06,0-0.117-0.023-0.159-0.065c-0.087-0.089-0.087-0.231,0-0.319    C3.23,1.271,3.287,1.248,3.347,1.248c0.06,0,0.116,0.022,0.159,0.065c0.042,0.043,0.065,0.099,0.065,0.16S3.549,1.589,3.506,1.632    C3.463,1.673,3.407,1.697,3.347,1.697z M3.347,1.385c-0.023,0-0.045,0.009-0.062,0.026c-0.034,0.034-0.034,0.089,0,0.124    C3.302,1.551,3.324,1.56,3.347,1.56c0.023,0,0.045-0.009,0.062-0.026c0.016-0.017,0.025-0.038,0.025-0.062    c0-0.024-0.009-0.045-0.025-0.062C3.392,1.394,3.37,1.385,3.347,1.385z"></path></g><g><path fill="#000000" d="M1.474,3.973c-0.018,0-0.035-0.007-0.049-0.021c-0.027-0.027-0.026-0.069,0-0.096l0.793-0.788    c0.027-0.027,0.07-0.027,0.097,0s0.027,0.07,0,0.097L1.522,3.954C1.509,3.966,1.492,3.973,1.474,3.973z"></path></g><g><path fill="#000000" d="M1.474,3.621c-0.018,0-0.035-0.007-0.049-0.02c-0.027-0.027-0.027-0.071,0-0.098l0.789-0.789    c0.027-0.027,0.071-0.027,0.097,0c0.027,0.027,0.027,0.071,0,0.098L1.522,3.601C1.509,3.614,1.492,3.621,1.474,3.621z"></path></g><g><path fill="#000000" d="M1.474,4.323c-0.018,0-0.035-0.007-0.049-0.02c-0.027-0.027-0.026-0.071,0-0.097l0.799-0.79    c0.027-0.026,0.07-0.026,0.097,0.001c0.026,0.027,0.026,0.071-0.001,0.098L1.522,4.303C1.509,4.316,1.492,4.323,1.474,4.323z"></path></g></g></svg>