<svg width="796" height="1126" viewBox="0 0 796 1126" fill="none" xmlns="http://www.w3.org/2000/svg">
<path d="M398.279 165.327C375.048 165.327 355.485 145.764 355.485 122.534C355.485 99.3026 375.048 79.7397 398.279 79.7397C421.51 79.7397 441.073 99.3026 441.073 122.534C441.073 145.764 421.51 165.327 398.279 165.327ZM398.279 104.193C388.497 104.193 379.939 112.752 379.939 122.534C379.939 132.315 388.497 140.874 398.279 140.874C408.06 140.874 416.619 132.315 416.619 122.534C416.619 112.752 408.06 104.193 398.279 104.193Z" fill="#333333"/>
<path d="M741.852 110.307H618.361H520.547C514.433 49.1731 461.858 0.265869 398.279 0.265869C334.699 0.265869 283.347 49.1731 276.011 110.307H178.196H54.7056C25.3613 110.307 0.907715 134.761 0.907715 164.105V1071.33C0.907715 1100.68 25.3613 1125.13 54.7056 1125.13H741.852C771.196 1125.13 795.65 1100.68 795.65 1071.33V164.105C795.65 134.761 771.196 110.307 741.852 110.307ZM135.403 189.781V177.554C135.403 173.886 136.625 168.996 137.848 165.328C142.739 148.21 159.856 134.761 178.196 134.761H300.464V122.534C300.464 118.866 300.464 113.975 301.687 110.307C307.8 62.6225 349.372 24.7195 398.279 24.7195C447.186 24.7195 488.757 62.6225 494.87 110.307C494.87 113.975 496.093 118.866 496.093 122.534V134.761H618.361C637.924 134.761 653.819 148.21 658.71 165.328C659.932 168.996 661.155 173.886 661.155 177.554V189.781V220.348H135.403V189.781ZM685.609 189.781H716.176V1045.66H80.3819V189.781H110.949V244.802H685.609V189.781ZM771.196 1071.33C771.196 1087.23 757.747 1100.68 741.852 1100.68H54.7056C38.8108 1100.68 25.3613 1087.23 25.3613 1071.33V164.105C25.3613 148.21 38.8108 134.761 54.7056 134.761H125.621C118.285 143.319 113.394 154.324 110.949 165.328H69.3778C62.0417 165.328 55.9283 171.441 55.9283 178.777V1055.44C55.9283 1062.77 62.0417 1068.89 69.3778 1068.89H725.957C733.293 1068.89 739.406 1062.77 739.406 1055.44V178.777C739.406 171.441 733.293 165.328 725.957 165.328H684.386C681.94 154.324 677.05 143.319 669.714 134.761H740.629C756.524 134.761 769.973 148.21 769.973 164.105V1071.33H771.196Z" fill="#333333"/>
</svg>
