<?xml version="1.0" encoding="UTF-8" standalone="no"?>
<!-- Created with Inkscape (http://www.inkscape.org/) -->
<svg
   xmlns:dc="http://purl.org/dc/elements/1.1/"
   xmlns:cc="http://creativecommons.org/ns#"
   xmlns:rdf="http://www.w3.org/1999/02/22-rdf-syntax-ns#"
   xmlns:svg="http://www.w3.org/2000/svg"
   xmlns="http://www.w3.org/2000/svg"
   xmlns:sodipodi="http://sodipodi.sourceforge.net/DTD/sodipodi-0.dtd"
   xmlns:inkscape="http://www.inkscape.org/namespaces/inkscape"
   width="240"
   height="260"
   id="svg2"
   sodipodi:version="0.32"
   inkscape:version="0.46"
   version="1.0"
   sodipodi:docbase="C:\Documents and Settings\Flanker\Desktop\Temporanei\SVG\Piacentine SVG"
   sodipodi:docname="SuitClubs.svg"
   inkscape:output_extension="org.inkscape.output.svg.inkscape">
  <defs
     id="defs4" />
  <sodipodi:namedview
     id="base"
     pagecolor="#ffffff"
     bordercolor="#666666"
     borderopacity="1.0"
     inkscape:pageopacity="0.0"
     inkscape:pageshadow="2"
     inkscape:zoom="0.98994949"
     inkscape:cx="184.52216"
     inkscape:cy="135.80548"
     inkscape:document-units="px"
     inkscape:current-layer="layer1"
     inkscape:showpageshadow="false"
     width="240px"
     height="260px"
     inkscape:window-width="1280"
     inkscape:window-height="885"
     inkscape:window-x="22"
     inkscape:window-y="0"
     showgrid="false" />
  <metadata
     id="metadata7">
    <rdf:RDF>
      <cc:Work
         rdf:about="">
        <dc:format>image/svg+xml</dc:format>
        <dc:type
           rdf:resource="http://purl.org/dc/dcmitype/StillImage" />
      </cc:Work>
    </rdf:RDF>
  </metadata>
  <g
     inkscape:label="Livello 1"
     inkscape:groupmode="layer"
     id="layer1"
     transform="translate(-288.15635,-348.0625)">
    <path
       style="fill:#000000;fill-opacity:1;stroke:none;stroke-width:2;stroke-linecap:square;stroke-linejoin:round;stroke-miterlimit:3.9994173;stroke-dasharray:none;stroke-opacity:1"
       d="M 408.15639,368.79905 C 379.39014,368.79906 356.02769,392.16149 356.02769,420.92775 C 356.02772,441.41782 367.85955,459.15021 385.07688,467.65086 C 390.25818,470.20901 384.60395,476.8313 380.79941,472.53939 C 371.24485,461.76088 357.31062,454.95947 341.78513,454.95947 C 313.01888,454.95946 289.65635,478.32191 289.65635,507.08817 C 289.65635,535.85443 313.01903,559.16987 341.78513,559.16987 C 370.33092,559.16987 393.61306,536.20881 393.91384,507.74624 C 393.96721,502.69704 401.7167,502.17398 401.7167,508.96838 C 401.7167,519.66771 391.43054,576.49172 385.92297,587.32595 C 391.9345,585.8101 401.95338,584.55266 408.15639,584.55265 C 414.35941,584.55266 424.37829,585.8101 430.38982,587.32595 C 424.88225,576.49172 414.59609,519.66771 414.59609,508.96838 C 414.59609,502.17398 422.34558,502.69704 422.39895,507.74624 C 422.69973,536.20881 445.98193,559.16987 474.52765,559.16987 C 503.29392,559.16987 526.65632,535.85443 526.65635,507.08817 C 526.65635,478.32191 503.29392,454.95946 474.52765,454.95947 C 459.00226,454.95947 445.06794,461.76088 435.51338,472.53939 C 431.70884,476.8313 426.05461,470.20901 431.23591,467.65086 C 448.45324,459.15021 460.28507,441.41782 460.28509,420.92775 C 460.28509,392.16149 436.92265,368.79906 408.15639,368.79905 z"
       id="path3211" />
  </g>
</svg>
