<svg height='100px' width='100px'  fill="#000000" xmlns="http://www.w3.org/2000/svg" xmlns:xlink="http://www.w3.org/1999/xlink" version="1.1" x="0px" y="0px" viewBox="0 0 32 32" enable-background="new 0 0 32 32" xml:space="preserve"><circle cx="11.02" cy="17.758" r="2.093"></circle><circle cx="20.981" cy="17.758" r="2.093"></circle><rect x="14.02" y="22.925" width="3.961" height="1.351"></rect><path d="M29.834,18.944c0-1.432-0.961-2.637-2.273-3.012c-0.176-3.418-3.004-6.146-6.464-6.146H16.9V6.955  c0.703-0.337,1.193-1.05,1.193-1.883c0-1.155-0.937-2.093-2.093-2.093s-2.093,0.938-2.093,2.093c0,0.833,0.489,1.546,1.193,1.883  v2.831h-4.197c-3.46,0-6.288,2.729-6.464,6.146c-1.311,0.374-2.273,1.58-2.273,3.012c0,1.426,0.953,2.627,2.256,3.007v0.588  c0,3.574,2.907,6.481,6.481,6.481h10.194c3.574,0,6.482-2.907,6.482-6.481v-0.588C28.882,21.571,29.834,20.37,29.834,18.944z   M25.779,22.539c0,2.581-2.1,4.682-4.682,4.682H10.903c-2.581,0-4.681-2.101-4.681-4.682v-6.271c0-2.582,2.1-4.682,4.681-4.682  h10.194c2.582,0,4.682,2.1,4.682,4.682V22.539z"></path></svg>