<svg height='100px' width='100px'  fill="#000000" xmlns="http://www.w3.org/2000/svg" xmlns:xlink="http://www.w3.org/1999/xlink" xml:space="preserve" version="1.1" style="shape-rendering:geometricPrecision;text-rendering:geometricPrecision;image-rendering:optimizeQuality;" viewBox="0 0 809 824" x="0px" y="0px" fill-rule="evenodd" clip-rule="evenodd"><defs><style type="text/css">
   
    .fil0 {fill:#000000}
   
  </style></defs><g><path class="fil0" d="M33 782c27,-31 57,-60 85,-89 6,-7 4,-7 3,-17 -1,-7 8,-22 8,-22 9,16 24,29 40,38 2,1 -21,9 -24,9 -8,0 -9,-2 -15,4 -29,28 -57,58 -88,84 -4,4 -41,36 -42,35 -2,-2 30,-38 33,-42z"></path><path class="fil0" d="M131 652c0,-1 41,-43 45,-47 9,-10 9,-9 10,-8 6,10 25,32 39,39 1,1 -7,8 -8,9 -5,5 -43,44 -46,45 -2,0 -18,-13 -20,-15 -9,-8 -13,-13 -20,-23z"></path><path class="fil0" d="M189 594c-1,-1 53,-59 54,-55 2,5 7,12 15,20 8,8 19,17 24,18 2,0 -51,55 -54,56 -3,0 -15,-9 -24,-19 -8,-9 -14,-17 -15,-20z"></path><path class="fil0" d="M248 533c1,-2 6,-7 7,-5 1,4 11,14 14,18 4,3 20,20 23,16 0,-2 0,3 0,3 -1,3 -3,6 -5,7 -6,3 -19,-11 -24,-15 -4,-4 -17,-18 -15,-24z"></path><path class="fil0" d="M260 523c0,-2 6,-7 7,-6 1,4 11,14 14,17 2,2 18,19 20,17 1,0 1,-1 1,-1 0,0 1,6 -4,9 -6,3 -20,-13 -25,-17 -3,-3 -15,-15 -13,-19z"></path><path class="fil0" d="M272 513c0,-2 6,-9 8,-5 4,7 8,10 13,16 4,4 9,8 13,12 2,1 5,4 6,1 1,-1 2,9 -5,10 -5,1 -17,-12 -21,-16 -3,-3 -14,-14 -14,-18z"></path><path class="fil0" d="M284 502c0,-3 7,-9 8,-6 1,5 10,14 14,18 3,3 13,14 17,11 1,-1 2,8 -5,10 -5,1 -15,-10 -18,-14 -4,-3 -16,-15 -16,-19z"></path><path class="fil0" d="M296 491c-1,-4 3,-6 6,-7 1,0 1,0 1,1 4,6 24,33 32,29 0,0 0,0 0,0 2,4 -1,9 -5,9 -5,1 -15,-9 -20,-14 -3,-4 -13,-14 -14,-18z"></path><path class="fil0" d="M307 479c-1,-4 3,-6 7,-7 0,0 0,0 0,0 0,5 9,15 13,19 3,3 15,17 18,11 0,0 4,5 0,8 -8,5 -20,-9 -25,-14 -3,-3 -12,-14 -13,-17z"></path><path class="fil0" d="M317 467c-1,-1 1,-4 2,-5 2,-2 4,-2 4,-2 2,4 13,16 14,18 7,7 18,18 20,14 1,-1 3,10 -6,7 -5,-1 -13,-8 -19,-14 -3,-3 -14,-14 -15,-18z"></path><path class="fil0" d="M328 455c-1,-5 5,-8 6,-6 4,8 10,12 17,20 9,8 19,16 20,12 1,-2 3,8 -5,9 -5,1 -15,-8 -21,-15 -4,-4 -16,-16 -17,-20z"></path><path class="fil0" d="M375 414c1,2 10,15 12,17 5,6 10,10 17,13 1,0 -23,36 -27,35 -4,0 -14,-7 -23,-15 -7,-7 -14,-16 -16,-19 -3,-8 36,-35 37,-31z"></path><path class="fil0" d="M381 410c5,-8 16,-9 22,-16 8,-10 13,-13 22,-20 29,-23 68,-68 94,-96 20,-21 28,-30 34,-37 5,-7 11,-16 18,-21 2,-1 1,4 1,6 -1,3 -14,13 -13,15 1,0 1,1 2,1 0,0 0,0 2,-2 3,-3 7,-8 13,-14 3,-3 32,-33 33,-32 2,2 7,6 8,8 0,1 0,1 0,1 0,1 0,1 0,2 -1,3 -22,25 -26,30 -4,5 -4,5 -4,5 2,2 4,2 6,1 1,0 -43,39 -53,50 -31,32 -66,65 -95,99 -7,9 -15,17 -22,25 -4,4 -12,23 -16,24 -8,3 -31,-22 -26,-29z"></path><path class="fil0" d="M580 218c-5,5 -5,5 -5,1 1,-73 1,-179 83,-209 32,-12 76,-17 106,7 26,21 46,63 45,95 -2,110 -109,123 -203,126 -14,1 -14,0 -10,-4 5,-7 20,-22 24,-29 0,-1 0,-2 0,-2 0,-3 -12,-12 -12,-12 -5,3 -23,22 -28,27z"></path></g></svg>