<svg xmlns="http://www.w3.org/2000/svg" xmlns:xlink="http://www.w3.org/1999/xlink" version="1.1" x="0px" y="0px" viewBox="0 0 100 100" style="enable-background:new 0 0 100 100;" xml:space="preserve"><path d="M64,36v2l-1-1v-1h-1v1h-1v-2h1l-1-1h1L64,36z M55,30h-1l1,1l1,1l2-1l-1-1H55z M43,39l2,1l-1-2h-1l-1,1H43z M33,51h-1l2,1h1  L33,51z M35,53h2v-1h-1L35,53z M33,54l1-1h-1V54z M78,50c0,15.4-12.6,28-28,28S22,65.4,22,50s12.6-28,28-28S78,34.6,78,50z M68,33v2  l-1,1h1l1-1v-1L68,33l-1-2h-1l1,2H68z M73,42h1h0.7c-0.1-0.3-0.2-0.7-0.3-1H74l-1-1V42z M43,75L43,75l-2-3l-2-5l-2-1l-3-3l-1-2l1-2  v-2l-1,1l-2-1l-1-2h-1l-1-1h-1l-2-2v-1l-1-1.5c0,0.2,0,0.3,0,0.5C24,61.9,32.1,72,43,75z M50,76c5.2,0,10-1.5,14-4.1V71l2-3v-1l1-2  h1v-3l-1-1l1-2l-1-1l-2,1h-2l-2-1l-1-2l-1-1v-1l1-1v-2l1-3h1l1-2l1-1h2l1-1h2l1,2l1,1h1l1-1l1,1h1l-1-2h-1l-1-2l-1,2l-1-1l1-1l-3-2  c0,0,0,0-1,0s-1,0-1,0l1,1h-1v2h-1l-1,1v-1h-2v-2l1-1h2v-1l-1-1l-1-1h1l1-2h1v-2h-1l-1-2l1-1l-1-2l0.3-0.7  c-3.1-2.1-6.7-3.5-10.6-4.1L53,25l2,1l-1,1v2l-2,1h-2l-1,2l-1,1l-2-1l-1-3l1-2l-1-1h-2v-1l0,0c-0.5,0.1-1,0.3-1.4,0.4L41,26h-1  c-1.3,0.6-2.6,1.2-3.8,2H37l1-1h3l1,1l-1,1h1l1,1l-1,1l-1,1h-1l-1-1h-1l2-1l-1-1l-2,1v1h-2l-3,2v1l1,1h1v2h1v-1l2-2l-1-1l1-1h2v1  l1,1l1-1l1,2l2,1l-1,2v-1l-1,1h-2l-1,1h1l1,1l-3,1h-1v1l-2,1l-1,2l-2,2l1,2l-1,1l-1-1l-1-1h-2l-1,2v2l1,1l1-1l2-1l-1,1v2h1v1l1,2h1  l1-1l2-1l1,1h3l2,2h2l2,2l3,1l2,1l1,2l-2,1v3l-2,1h-1v2l-2,2v1l-1,1l0.4,0.4C46.2,75.8,48.1,76,50,76z"></path></svg>