<svg xmlns="http://www.w3.org/2000/svg" xmlns:xlink="http://www.w3.org/1999/xlink" version="1.1" x="0px" y="0px" viewBox="0 0 100 100" style="enable-background:new 0 0 100 100;" xml:space="preserve"><path d="M76.3,35.8c-2-4.9-5.2-9.2-9.1-12.7c-6.8-6.4-12.6-10-12.9-20.6h-3.4v71.3C46.9,70.1,39.8,69.2,33,72  c-8.6,3.6-13.4,11.8-10.7,18.4c2.7,6.6,11.9,9,20.5,5.4c6.9-2.9,11.4-8.7,11.4-14.3l0-56.7c0.8,0.3,1.6,0.7,2.4,1  c2,0.9,3.9,2,5.7,3.2c3.6,2.4,6.7,5.5,9,9.1c2.2,3.7,3.5,8,3.4,12.5c-0.1,4.5-1.3,9.1-3.5,13.2c-0.1,0.2-0.1,0.5,0.1,0.6  c0.2,0.2,0.5,0.1,0.7-0.1c2.9-3.9,5-8.5,5.9-13.5C78.9,46,78.3,40.7,76.3,35.8z"></path></svg>