<?xml version="1.0" encoding="utf-8"?>
<!-- Generator: Adobe Illustrator 17.0.2, SVG Export Plug-In . SVG Version: 6.00 Build 0)  -->
<!DOCTYPE svg PUBLIC "-//W3C//DTD SVG 1.1//EN" "http://www.w3.org/Graphics/SVG/1.1/DTD/svg11.dtd">
<svg version="1.1" id="Layer_1" xmlns="http://www.w3.org/2000/svg" xmlns:xlink="http://www.w3.org/1999/xlink" x="0px" y="0px"
	 width="428.5px" height="56.4px" viewBox="0 0 428.5 56.4" enable-background="new 0 0 428.5 56.4" xml:space="preserve">
<g>
	<path fill="#333333" d="M109.1,32.9v4.4h-13V19.1h12.7v4.4h-7.7V26h6.6v4h-6.6v2.9H109.1z"/>
	<path fill="#333333" d="M130.3,37.2v-9.6l-3.1,6.7h-2.7l-3-6.7v9.6h-5V19.1h5.5l3.9,8.6l3.9-8.6h5.4v18.2H130.3z"/>
	<path fill="#333333" d="M156.5,32.9v4.4h-13V19.1h12.7v4.4h-7.7V26h6.6v4h-6.6v2.9H156.5z"/>
	<path fill="#333333" d="M164,37.2V19.1h8.4c0.9,0,1.7,0.2,2.5,0.5c0.7,0.4,1.4,0.8,1.9,1.4c0.5,0.6,1,1.3,1.3,2
		c0.3,0.8,0.5,1.5,0.5,2.3c0,1.1-0.2,2-0.7,3c-0.5,0.9-1.1,1.7-1.9,2.2l4.1,6.7h-5.6l-3.5-5.6H169v5.6H164z M169,27.3h3.2
		c0.3,0,0.6-0.2,0.9-0.5c0.3-0.3,0.4-0.8,0.4-1.4c0-0.6-0.2-1.1-0.5-1.4c-0.3-0.3-0.6-0.5-0.9-0.5h-3V27.3z"/>
	<path fill="#333333" d="M184.9,37.2l6.8-18.2h4l6.8,18.2h-5.3l-1.1-3.6h-4.8l-1.1,3.6H184.9z M193.7,24.3l-1.7,6.1h3.3L193.7,24.3z
		"/>
	<path fill="#333333" d="M209,37.2V19.1h5v13.8h8.2v4.4H209z"/>
	<path fill="#333333" d="M229.2,37.2V19.1h7c1.5,0,2.8,0.2,4,0.7c1.1,0.5,2.1,1.1,2.9,1.9c0.8,0.8,1.3,1.8,1.7,2.9
		c0.4,1.1,0.6,2.3,0.6,3.5c0,1.4-0.2,2.6-0.7,3.8c-0.4,1.1-1.1,2.1-1.9,2.9c-0.8,0.8-1.8,1.4-2.9,1.8c-1.1,0.4-2.4,0.7-3.8,0.7
		H229.2z M240.3,28.1c0-0.7-0.1-1.3-0.3-1.9c-0.2-0.6-0.5-1.1-0.8-1.5c-0.3-0.4-0.8-0.7-1.3-1c-0.5-0.2-1.1-0.3-1.7-0.3h-2v9.5h2
		c0.6,0,1.2-0.1,1.7-0.4c0.5-0.2,0.9-0.6,1.3-1c0.3-0.4,0.6-0.9,0.8-1.5C240.2,29.4,240.3,28.8,240.3,28.1z"/>
	<path fill="#333333" d="M252.2,28c0-1.1,0.2-2.2,0.6-3.3c0.4-1.1,0.9-2.1,1.7-2.9c0.7-0.9,1.6-1.6,2.7-2.1c1.1-0.5,2.3-0.8,3.7-0.8
		c1.6,0,3,0.4,4.1,1.1c1.1,0.7,2,1.7,2.6,2.9l-1.4,0.9c-0.3-0.6-0.6-1.1-1.1-1.5c-0.4-0.4-0.9-0.7-1.3-1c-0.5-0.3-1-0.4-1.5-0.5
		s-1-0.2-1.5-0.2c-1.1,0-2.1,0.2-2.9,0.7c-0.8,0.4-1.5,1-2.1,1.7s-1,1.5-1.3,2.4c-0.3,0.9-0.4,1.8-0.4,2.7c0,1,0.2,2,0.5,2.9
		c0.4,0.9,0.8,1.7,1.4,2.4c0.6,0.7,1.3,1.3,2.2,1.7c0.8,0.4,1.7,0.6,2.7,0.6c0.5,0,1-0.1,1.6-0.2c0.5-0.1,1.1-0.3,1.6-0.6
		c0.5-0.3,1-0.6,1.4-1c0.4-0.4,0.8-0.9,1.1-1.5l1.5,0.8c-0.3,0.7-0.7,1.3-1.2,1.8c-0.5,0.5-1.1,1-1.8,1.3c-0.6,0.4-1.3,0.6-2.1,0.8
		c-0.7,0.2-1.4,0.3-2.1,0.3c-1.2,0-2.4-0.3-3.4-0.8c-1-0.5-1.9-1.3-2.7-2.1c-0.7-0.9-1.3-1.9-1.8-3C252.4,30.3,252.2,29.2,252.2,28z
		"/>
	<path fill="#333333" d="M276.2,37.2V19.1h1.8v16.6h10.5v1.6H276.2z"/>
	<path fill="#333333" d="M302.6,37.4c-1.3,0-2.4-0.3-3.5-0.8c-1.1-0.5-2-1.2-2.7-2.1c-0.7-0.9-1.3-1.8-1.7-3
		c-0.4-1.1-0.6-2.2-0.6-3.4c0-1.2,0.2-2.4,0.7-3.5c0.4-1.1,1-2.1,1.8-2.9c0.8-0.9,1.7-1.5,2.7-2c1-0.5,2.2-0.8,3.4-0.8
		c1.3,0,2.4,0.3,3.5,0.8c1,0.5,1.9,1.2,2.7,2.1c0.7,0.9,1.3,1.9,1.7,3c0.4,1.1,0.6,2.2,0.6,3.4c0,1.2-0.2,2.4-0.7,3.5
		c-0.4,1.1-1,2.1-1.8,2.9c-0.8,0.8-1.7,1.5-2.7,2C305,37.1,303.8,37.4,302.6,37.4z M295.9,28.1c0,1,0.2,1.9,0.5,2.9
		c0.3,0.9,0.8,1.7,1.4,2.4c0.6,0.7,1.3,1.3,2.1,1.7c0.8,0.4,1.7,0.6,2.7,0.6c1,0,2-0.2,2.8-0.7c0.8-0.4,1.5-1,2.1-1.7
		c0.6-0.7,1-1.5,1.3-2.4c0.3-0.9,0.5-1.8,0.5-2.8c0-1-0.2-1.9-0.5-2.9c-0.3-0.9-0.8-1.7-1.4-2.4c-0.6-0.7-1.3-1.3-2.1-1.7
		c-0.8-0.4-1.7-0.6-2.7-0.6c-1,0-2,0.2-2.8,0.7c-0.8,0.4-1.5,1-2.1,1.7c-0.6,0.7-1,1.5-1.3,2.4C296,26.3,295.9,27.2,295.9,28.1z"/>
	<path fill="#333333" d="M327.1,35.8c1.1,0,2.1-0.2,2.9-0.7c0.8-0.4,1.4-1,1.8-1.7c0.4-0.7,0.8-1.5,0.9-2.4c0.2-0.9,0.3-1.8,0.3-2.7
		v-9.2h1.8v9.2c0,1.2-0.1,2.4-0.4,3.5c-0.3,1.1-0.7,2.1-1.3,2.9c-0.6,0.8-1.4,1.5-2.4,2c-1,0.5-2.2,0.7-3.6,0.7
		c-1.5,0-2.7-0.3-3.6-0.8c-1-0.5-1.8-1.2-2.4-2.1c-0.6-0.9-1-1.8-1.3-2.9c-0.3-1.1-0.4-2.2-0.4-3.4v-9.2h1.8v9.2
		c0,1,0.1,1.9,0.3,2.8c0.2,0.9,0.5,1.7,1,2.4c0.5,0.7,1.1,1.3,1.8,1.7C325,35.5,326,35.8,327.1,35.8z"/>
	<path fill="#333333" d="M344.2,37.2V19.1h6.1c1.5,0,2.7,0.2,3.8,0.7s2,1.1,2.7,1.9c0.7,0.8,1.3,1.8,1.6,2.9
		c0.4,1.1,0.5,2.3,0.5,3.5c0,1.4-0.2,2.6-0.6,3.8c-0.4,1.1-1,2.1-1.7,2.9s-1.7,1.4-2.7,1.8c-1.1,0.4-2.3,0.7-3.6,0.7H344.2z
		 M357.3,28.1c0-1.1-0.2-2.1-0.5-3c-0.3-0.9-0.8-1.7-1.3-2.4c-0.6-0.7-1.3-1.2-2.2-1.6c-0.9-0.4-1.8-0.5-2.9-0.5H346v15h4.4
		c1.1,0,2.1-0.2,3-0.6s1.6-0.9,2.2-1.6c0.6-0.7,1-1.5,1.3-2.4C357.1,30.2,357.3,29.2,357.3,28.1z"/>
	<path fill="#333333" d="M367,37.2V19.1h5v13.8h8.2v4.4H367z"/>
	<path fill="#333333" d="M385.4,37.2l6.8-18.2h4l6.8,18.2h-5.3l-1.1-3.6h-4.8l-1.1,3.6H385.4z M394.2,24.3l-1.7,6.1h3.3L394.2,24.3z
		"/>
	<path fill="#333333" d="M424.9,32.6c0,0.8-0.2,1.5-0.5,2.1c-0.3,0.6-0.8,1.1-1.4,1.4s-1.3,0.7-2.1,0.8c-0.8,0.2-1.6,0.3-2.5,0.3
		h-8.9V19.1H420c0.6,0,1.2,0.1,1.7,0.4c0.5,0.3,1,0.6,1.3,1.1c0.4,0.4,0.6,0.9,0.8,1.5c0.2,0.6,0.3,1.1,0.3,1.7
		c0,0.9-0.2,1.7-0.6,2.4c-0.4,0.8-1.1,1.4-2,1.8c1,0.3,1.9,0.8,2.5,1.6C424.6,30.3,424.9,31.3,424.9,32.6z M414.5,23.3v2.8h3.4
		c0.3,0,0.7-0.1,0.9-0.3c0.3-0.2,0.4-0.6,0.4-1.1c0-0.5-0.1-0.8-0.4-1.1c-0.2-0.2-0.5-0.3-0.8-0.3H414.5z M419.9,31.5
		c0-0.4-0.1-0.8-0.4-1.1c-0.2-0.3-0.5-0.4-0.9-0.4h-4.1v3h3.9c0.4,0,0.8-0.1,1-0.4S419.9,32,419.9,31.5z"/>
</g>
<g>
	<path fill="#333333" d="M16.6,34.3v5.6H0V16.6h16.3v5.6H6.4v3.3h8.5v5.2H6.4v3.7H16.6z"/>
	<path fill="#333333" d="M24.5,28c0-1.4,0.3-2.8,0.8-4.2c0.5-1.4,1.2-2.6,2.2-3.7s2.2-2,3.5-2.7c1.4-0.7,3-1,4.7-1
		c2.1,0,3.9,0.5,5.4,1.4c1.6,0.9,2.7,2.2,3.4,3.7L39.8,25c-0.2-0.6-0.5-1-0.8-1.4c-0.3-0.4-0.7-0.7-1-0.9c-0.4-0.2-0.8-0.4-1.2-0.5
		c-0.4-0.1-0.8-0.1-1.1-0.1c-0.8,0-1.5,0.2-2.1,0.5c-0.6,0.4-1.1,0.8-1.4,1.4c-0.4,0.6-0.7,1.2-0.8,2c-0.2,0.7-0.3,1.5-0.3,2.2
		c0,0.8,0.1,1.6,0.3,2.3c0.2,0.7,0.5,1.4,0.9,2c0.4,0.6,0.9,1,1.5,1.4c0.6,0.3,1.2,0.5,2,0.5c0.4,0,0.8,0,1.1-0.1
		c0.4-0.1,0.8-0.3,1.1-0.5c0.4-0.2,0.7-0.5,1-0.9c0.3-0.4,0.5-0.8,0.7-1.3l5.2,3.1c-0.3,0.9-0.8,1.6-1.5,2.3
		c-0.7,0.7-1.4,1.2-2.3,1.7c-0.9,0.5-1.8,0.8-2.7,1c-1,0.2-1.9,0.4-2.8,0.4c-1.6,0-3.1-0.3-4.5-1c-1.4-0.7-2.5-1.6-3.5-2.7
		c-1-1.1-1.7-2.4-2.3-3.9C24.8,31,24.5,29.5,24.5,28z"/>
	<path fill="#333333" d="M54.3,39.9V16.6h6.4v17.7h10.6v5.6H54.3z"/>
	<g>
		<path fill="#439271" d="M46.8,13.5c-1.6-1.9-3.5-3.4-5.4-4.8c-1.3,0.9-2.6,1.7-3.8,2.4c-0.2,0.1-0.4,0.2-0.6,0.4
			c2.8,1.7,5.5,3.5,8,5.7c1.9,1.8,3.2,3.3,4.1,5c0.5,1,0.9,1.9,1.2,2.8c0.2,0.5,0.3,1.1,0.4,1.7c0,0,0,0,0,0l0.1,0
			C50.8,20.6,49.6,16.7,46.8,13.5z"/>
		<path fill="#439271" d="M33.3,3.6c-1.8-1.1-3.7-2.3-5.4-3.6h-5.6c0.4,0.5,0.8,1.1,1.2,1.6C25.2,3.5,27,5,28.9,6.4
			c1.3-0.9,2.6-1.7,3.8-2.4C32.9,3.8,33.1,3.7,33.3,3.6z"/>
		<path fill="#439271" d="M42.4,0c-2.2,1.6-4.5,3-6.8,4.4c-0.2,0.1-0.3,0.2-0.5,0.3l0,0c-0.5,0.3-1,0.6-1.4,0.9
			c-1,0.6-2,1.3-3.1,1.9l0,0l0,0c-2.5,1.6-5,3.5-7.1,6c-2.8,3.2-4,7.2-4.1,13.2l0.1,0c0,0,0,0,0,0c0.1-0.6,0.3-1.1,0.4-1.7
			c0.3-0.9,0.7-1.8,1.2-2.8c0.9-1.7,2.2-3.2,4.1-5c2.9-2.6,6.2-4.6,9.4-6.5c0.2-0.1,0.3-0.2,0.5-0.3l0,0c0.5-0.3,1-0.6,1.4-0.9
			C40,7.4,43.8,5,46.8,1.6c0.4-0.5,0.8-1,1.2-1.6H42.4z"/>
		<g>
			<path fill="#439271" d="M23.5,43c1.6,1.9,3.5,3.4,5.4,4.8c1.3-0.9,2.6-1.7,3.8-2.4c0.2-0.1,0.4-0.2,0.6-0.4
				c-2.8-1.7-5.5-3.5-8-5.7c-1.9-1.8-3.2-3.3-4.1-5c-0.5-1-0.9-1.9-1.2-2.8c-0.2-0.5-0.3-1.1-0.4-1.7c0,0,0,0,0,0l-0.1,0
				C19.5,35.8,20.7,39.7,23.5,43z"/>
			<path fill="#439271" d="M37,52.8c1.8,1.1,3.7,2.3,5.4,3.6H48c-0.4-0.5-0.8-1.1-1.2-1.6c-1.6-1.9-3.5-3.4-5.4-4.8
				c-1.3,0.9-2.6,1.7-3.8,2.4C37.4,52.6,37.2,52.7,37,52.8z"/>
			<path fill="#439271" d="M27.9,56.4c2.2-1.6,4.5-3,6.8-4.4c0.2-0.1,0.3-0.2,0.5-0.3l0,0c0.5-0.3,1-0.6,1.4-0.9
				c1-0.6,2-1.3,3.1-1.9l0,0l0,0c2.5-1.6,5-3.5,7.1-6c2.8-3.2,4-7.2,4.1-13.2l-0.1,0c0,0,0,0,0,0c-0.1,0.6-0.3,1.1-0.4,1.7
				c-0.3,0.9-0.7,1.8-1.2,2.8c-0.9,1.7-2.2,3.2-4.1,5c-2.9,2.6-6.2,4.6-9.4,6.5c-0.2,0.1-0.3,0.2-0.5,0.3l0,0
				c-0.5,0.3-1,0.6-1.4,0.9c-3.4,2.1-7.2,4.4-10.2,7.9c-0.4,0.5-0.8,1-1.2,1.6H27.9z"/>
		</g>
	</g>
</g>
</svg>
