<?xml version="1.0" encoding="utf-8"?>
<!-- Generator: Adobe Illustrator 21.0.2, SVG Export Plug-In . SVG Version: 6.00 Build 0)  -->
<svg version="1.1" id="Layer_1" xmlns="http://www.w3.org/2000/svg" xmlns:xlink="http://www.w3.org/1999/xlink" x="0px" y="0px"
	 viewBox="0 0 256 417" style="enable-background:new 0 0 256 417;" xml:space="preserve">
<style type="text/css">
	.st0{fill:#343434;}
	.st1{fill:#8C8C8C;}
	.st2{fill:#3C3C3B;}
	.st3{fill:#141414;}
	.st4{fill:#393939;}
</style>
<g>
	<path class="st0" d="M128,0l-2.8,9.5v275.7l2.8,2.8l128-75.6C214.6,143.8,173.3,75.2,132,6.7C130.6,4.5,129.3,2.2,128,0z"/>
	<path class="st1" d="M128,0c-1.2,1.9-2.3,3.8-3.5,5.7C83,74.6,41.5,143.5,0,212.3c42.7,25.2,85.3,50.4,128,75.6V154.2V0z"/>
	<polygon class="st2" points="128,312.2 126.4,314.1 126.4,412.3 128,416.9 256,236.6 	"/>
	<polygon class="st1" points="128,416.9 128,312.2 0,236.6 	"/>
	<polygon class="st3" points="128,288 255.9,212.3 128,154.2 	"/>
	<polygon class="st4" points="0,212.3 128,288 128,154.2 	"/>
</g>
</svg>
