<?xml version="1.0" encoding="UTF-8" standalone="no"?>
<!DOCTYPE svg PUBLIC "-//W3C//DTD SVG 20010904//EN"
              "http://www.w3.org/TR/2001/REC-SVG-20010904/DTD/svg10.dtd">

<svg xmlns="http://www.w3.org/2000/svg"
     width="13.2917in" height="2.98611in"
     viewBox="0 0 957 215">
  <path id="Selection"
        fill="none" stroke="black" stroke-width="1"
        d="M 792.00,103.70
           C 788.57,105.34 781.90,111.14 779.38,114.17
             777.09,116.92 775.05,120.97 771.90,122.57
             768.81,124.13 765.30,123.50 762.00,124.03
             752.20,125.59 747.43,125.92 738.00,129.74
             731.82,132.25 713.60,135.78 715.36,124.00
             715.98,119.85 720.62,112.76 722.87,109.00
             722.87,109.00 741.09,82.00 741.09,82.00
             741.09,82.00 746.01,75.00 746.01,75.00
             750.14,67.82 749.80,59.13 763.00,52.00
             763.00,52.00 765.00,62.00 765.00,62.00
             759.53,65.16 752.84,76.43 749.21,82.00
             740.53,95.31 726.15,108.11 726.00,125.00
             726.00,125.00 736.00,125.00 736.00,125.00
             736.56,113.57 747.23,101.24 756.04,94.54
             759.37,92.01 763.66,88.47 767.87,91.25
             769.28,92.18 770.29,93.49 770.62,95.17
             772.44,104.51 760.35,112.01 758.00,120.00
             767.92,119.77 768.23,117.77 773.75,110.42
             773.75,110.42 780.20,102.00 780.20,102.00
             784.06,96.67 788.93,91.26 796.00,92.00
             796.00,92.00 795.00,97.00 795.00,97.00
             795.00,97.00 801.00,96.00 801.00,96.00
             806.82,100.26 812.95,95.61 818.00,92.21
             821.68,89.74 824.18,87.87 826.00,93.00
             821.83,96.15 814.07,103.34 811.98,108.00
             808.89,114.86 817.14,114.18 820.99,112.24
             831.97,106.71 830.68,89.45 848.00,89.00
             844.15,97.62 835.60,105.64 835.00,114.00
             846.90,113.88 847.65,111.18 857.00,106.17
             861.13,103.96 864.01,103.59 867.33,99.87
             873.33,93.16 875.31,78.72 888.00,82.00
             888.00,82.00 880.50,92.00 880.50,92.00
             880.50,92.00 879.71,102.00 879.71,102.00
             879.71,102.00 878.00,109.00 878.00,109.00
             881.27,109.00 888.04,108.77 890.91,109.54
             895.18,110.69 898.25,114.00 904.00,113.69
             910.67,113.32 912.52,104.76 918.00,104.24
             920.55,104.00 923.94,106.64 926.00,108.00
             924.60,110.80 923.58,111.72 921.78,114.13
             916.04,121.81 916.71,119.90 908.00,121.66
             904.28,122.42 901.91,123.36 898.00,122.54
             891.40,121.17 884.74,116.42 878.00,116.77
             871.60,117.11 868.19,119.66 862.00,120.98
             860.21,121.37 857.36,122.06 856.05,120.26
             854.42,118.03 857.41,115.44 859.06,114.34
             864.64,110.64 868.61,113.47 870.00,105.00
             859.53,106.36 854.73,113.36 847.00,116.85
             837.97,120.95 829.06,117.01 822.00,116.85
             820.06,116.77 817.93,117.49 816.00,117.74
             812.72,118.54 806.11,120.33 803.60,117.74
             800.34,114.06 804.21,107.21 805.00,103.00
             800.77,103.51 794.60,102.46 792.00,103.70 Z
           M 650.78,84.00
           C 652.68,75.97 661.24,69.36 667.58,64.72
             670.96,62.24 673.57,60.00 678.00,59.57
             681.27,59.25 686.06,61.38 690.00,62.00
             692.41,66.41 697.14,69.20 696.40,75.00
             696.09,77.46 694.50,79.55 692.96,81.41
             684.41,91.69 675.24,92.24 665.00,97.91
             658.95,101.27 653.48,106.28 647.00,108.93
             642.64,110.71 634.29,110.24 628.43,117.18
             622.87,123.77 624.99,131.53 634.00,132.40
             643.75,133.35 653.94,129.29 661.99,123.90
             670.57,118.16 672.84,110.34 683.00,106.00
             683.00,106.00 686.00,108.00 686.00,108.00
             683.83,111.78 681.89,114.53 678.87,117.72
             677.15,119.53 675.64,120.72 674.45,123.04
             672.15,127.51 673.16,131.82 679.00,130.90
             680.21,130.71 681.87,130.18 683.00,129.72
             692.38,125.94 693.60,120.06 700.09,114.19
             701.85,112.61 706.42,109.17 708.85,109.29
             712.74,109.49 711.16,113.94 710.09,116.00
             707.98,120.59 697.81,130.22 710.09,129.00
             708.24,131.68 702.34,136.50 698.99,136.14
             695.39,135.76 692.53,132.30 688.00,133.17
             680.07,134.70 666.04,146.10 663.00,132.00
             655.47,132.68 655.27,134.10 649.00,136.18
             642.37,138.38 626.29,140.26 620.00,136.98
             612.00,132.81 613.45,125.36 617.55,119.00
             623.18,110.25 634.71,104.48 645.00,104.00
             645.00,104.00 641.00,98.00 641.00,98.00
             641.00,98.00 650.78,96.00 650.78,96.00
             650.83,92.25 649.67,87.44 650.78,84.00 Z
           M 658.43,80.09
           C 657.21,84.63 658.69,95.37 665.02,94.35
             671.42,93.32 683.36,87.86 687.49,82.96
             688.51,81.74 690.89,78.39 691.58,77.00
             697.42,65.32 681.25,64.43 673.99,65.53
             669.11,67.55 659.86,74.76 658.43,80.09 Z
           M 118.00,181.64
           C 104.82,183.60 114.67,166.25 104.98,166.93
             100.05,167.27 83.84,176.79 80.33,180.32
             77.81,182.86 74.94,188.59 71.84,189.72
             67.42,191.32 67.07,185.60 65.27,183.13
             63.25,180.37 59.32,178.76 56.00,178.34
             46.88,177.19 38.50,191.26 31.10,188.40
             29.01,187.59 27.93,185.99 26.45,184.43
             24.26,182.15 21.92,180.60 22.83,177.00
             25.55,166.17 40.51,167.14 49.00,167.00
             50.97,166.96 52.84,166.99 54.68,166.16
             59.18,164.12 67.07,152.76 71.98,148.28
             78.89,142.00 84.33,131.75 89.82,124.09
             89.82,124.09 104.37,106.00 104.37,106.00
             104.37,106.00 111.48,96.00 111.48,96.00
             115.48,91.00 127.58,80.21 133.00,76.45
             138.37,72.73 150.34,67.15 156.96,68.35
             162.97,69.44 167.99,75.99 164.83,81.91
             163.18,84.99 158.85,88.02 156.00,90.00
             158.61,85.86 163.83,81.45 162.65,76.06
             161.74,71.89 158.35,72.16 155.00,72.58
             148.64,73.38 140.25,75.84 135.00,79.56
             131.33,82.17 114.17,98.66 111.63,102.04
             111.63,102.04 108.04,108.00 108.04,108.00
             108.04,108.00 99.39,120.00 99.39,120.00
             99.39,120.00 93.75,127.00 93.75,127.00
             93.75,127.00 81.52,144.82 81.52,144.82
             81.52,144.82 75.30,151.18 75.30,151.18
             75.30,151.18 69.79,159.00 69.79,159.00
             65.48,164.02 62.58,164.00 62.00,171.00
             73.23,170.17 72.28,176.89 79.00,175.07
             79.00,175.07 92.00,168.31 92.00,168.31
             92.00,168.31 111.00,160.43 111.00,160.43
             116.26,156.66 120.26,150.47 122.52,148.49
             124.44,146.81 125.86,146.54 128.00,145.45
             133.05,142.90 134.73,140.39 140.98,141.67
             144.14,142.31 146.22,144.57 149.00,146.00
             144.11,153.91 135.08,156.41 127.00,160.05
             124.81,161.03 120.93,162.09 119.31,163.56
             115.80,166.75 117.14,171.83 121.06,173.98
             123.60,175.37 129.01,175.00 132.00,175.00
             130.01,177.57 121.30,181.15 118.00,181.64 Z
           M 374.31,80.02
           C 380.87,71.67 391.37,71.35 401.00,71.92
             405.98,72.21 409.04,71.92 413.91,73.99
             416.56,75.11 417.72,76.40 420.08,77.89
             424.24,80.52 426.66,81.26 429.22,85.80
             433.90,93.10 431.57,102.52 429.22,110.00
             426.96,115.89 424.95,118.25 420.00,122.00
             421.64,115.80 422.62,117.20 424.59,112.91
             426.72,108.28 429.25,97.13 428.00,92.09
             426.80,87.27 422.41,84.33 418.58,81.78
             418.58,81.78 413.00,78.13 413.00,78.13
             404.38,74.06 390.63,75.18 382.04,78.99
             374.80,82.20 377.97,90.19 370.00,95.00
             370.87,90.23 371.32,83.82 374.31,80.02 Z
           M 155.00,91.00
           C 155.00,91.00 151.00,93.00 151.00,93.00
             151.00,93.00 155.00,91.00 155.00,91.00 Z
           M 129.00,103.50
           C 134.80,101.53 144.44,94.62 150.00,95.00
             140.41,100.44 123.28,111.65 112.00,109.00
             119.64,102.96 122.85,105.58 129.00,103.50 Z
           M 281.88,112.00
           C 276.28,119.63 268.52,127.63 266.00,136.91
             269.03,136.93 278.30,134.95 280.01,136.91
             282.62,139.71 278.69,147.53 278.00,151.00
             281.81,150.46 290.80,148.92 293.83,147.01
             302.71,141.40 309.28,131.13 320.96,132.05
             324.10,132.30 329.23,136.28 333.00,138.00
             329.32,144.80 315.33,154.11 326.17,158.78
             327.40,159.31 328.70,159.44 330.00,159.80
             330.00,159.80 336.00,159.80 336.00,159.80
             334.28,162.51 333.77,162.47 330.98,163.69
             320.49,168.29 316.77,160.86 309.00,161.56
             304.55,162.21 293.13,165.13 289.81,161.56
             287.45,159.11 289.62,154.03 289.81,151.00
             289.81,151.00 260.00,162.00 260.00,162.00
             262.11,152.55 270.34,153.24 272.00,143.00
             265.41,143.37 257.85,147.29 253.38,152.18
             250.50,155.32 249.19,159.32 244.96,162.43
             238.46,167.21 240.13,160.95 230.00,166.33
             226.13,168.38 213.09,171.47 211.89,164.81
             211.25,161.20 218.31,153.90 220.00,147.00
             211.01,147.72 203.31,156.78 197.93,163.42
             193.10,169.40 195.58,171.70 187.00,172.00
             188.48,161.40 195.79,161.48 197.00,151.15
             195.28,151.01 192.62,150.94 191.00,151.15
             188.27,151.90 178.26,157.28 176.26,159.26
             173.19,162.32 171.89,167.14 167.82,170.12
             165.05,172.15 152.37,176.03 149.00,175.50
             146.50,175.11 144.60,173.59 142.00,173.76
             138.09,173.43 137.55,175.61 133.00,173.76
             133.00,173.76 143.70,167.49 143.70,167.49
             146.13,165.30 146.21,162.84 149.34,159.01
             153.20,154.29 159.54,149.44 165.00,146.71
             170.81,143.81 178.13,140.61 181.00,149.00
             181.00,149.00 210.00,140.00 210.00,140.00
             210.46,141.39 210.60,142.96 212.31,143.31
             214.95,144.28 226.87,135.75 229.34,143.31
             230.44,146.43 227.26,149.63 225.45,152.00
             222.06,156.44 221.33,157.44 221.00,163.00
             226.74,162.95 235.11,162.22 239.90,158.87
             243.03,156.68 250.41,145.75 253.28,142.04
             253.28,142.04 260.78,132.99 260.78,132.99
             268.84,121.44 275.39,108.56 286.00,99.00
             288.70,104.36 285.01,107.73 281.88,112.00 Z
           M 760.72,108.00
           C 761.96,106.06 764.00,102.05 760.72,100.84
             753.72,98.30 746.41,113.71 746.00,119.00
             752.70,118.06 757.21,113.60 760.72,108.00 Z
           M 476.05,136.00
           C 481.35,129.02 480.74,121.44 491.00,120.00
             491.00,120.00 487.12,131.00 487.12,131.00
             486.09,135.12 486.53,140.26 484.99,144.00
             483.27,148.22 475.37,156.26 470.99,157.84
             468.60,158.46 465.51,158.09 463.00,157.84
             463.00,157.84 465.00,151.00 465.00,151.00
             459.20,152.58 454.36,155.34 448.00,154.70
             442.81,154.19 441.80,150.70 437.96,150.93
             434.21,151.15 430.80,155.27 418.00,157.00
             417.00,149.31 419.43,146.68 422.75,140.00
             426.75,131.95 428.89,125.14 439.00,124.00
             438.87,134.06 436.64,130.62 432.81,135.30
             430.09,138.61 426.49,145.72 426.00,150.00
             433.82,148.58 443.93,144.27 446.00,136.00
             446.00,136.00 459.00,127.00 459.00,127.00
             463.72,137.06 451.83,137.00 450.00,149.00
             461.52,148.99 469.04,145.23 476.05,136.00 Z
           M 420.00,124.00
           C 420.00,124.00 402.62,151.90 402.62,151.90
             402.62,151.90 396.00,157.06 396.00,157.06
             396.00,157.06 379.83,162.00 379.83,162.00
             378.90,158.16 378.21,156.95 379.83,153.00
             380.54,150.57 383.48,146.39 383.10,144.14
             382.70,141.72 373.42,134.28 367.00,136.93
             362.01,139.00 354.26,146.38 350.79,150.58
             345.79,156.62 346.33,161.12 337.00,160.00
             337.00,160.00 343.63,149.44 343.63,149.44
             343.63,149.44 349.69,141.91 349.69,141.91
             353.65,135.81 354.92,131.10 362.00,128.00
             362.00,128.00 363.00,129.00 363.00,129.00
             363.00,129.00 362.00,135.00 362.00,135.00
             367.27,133.81 372.08,130.32 376.00,130.51
             382.12,130.81 383.30,135.77 388.09,136.45
             393.19,137.17 397.49,133.93 402.00,132.18
             407.12,130.20 409.17,131.82 411.96,130.69
             414.83,129.53 416.44,126.49 418.00,124.00
             418.00,124.00 420.00,124.00 420.00,124.00 Z
           M 302.93,144.87
           C 297.22,150.26 297.07,151.28 297.00,159.00
             300.29,159.00 305.00,159.38 307.87,157.69
             311.09,155.79 311.38,153.04 312.91,150.04
             315.71,144.56 317.43,146.01 318.00,139.00
             310.30,139.17 308.55,139.57 302.93,144.87 Z
           M 389.71,147.05
           C 388.37,149.08 386.30,152.97 388.75,155.00
             390.93,156.81 394.46,155.21 396.42,153.87
             401.68,150.27 405.06,145.31 406.00,139.00
             400.34,139.60 392.97,142.11 389.71,147.05 Z
           M 130.00,156.30
           C 133.78,154.44 134.25,154.46 137.98,153.18
             143.80,151.18 143.53,147.06 140.71,145.76
             138.26,144.63 135.30,146.00 133.00,146.85
             126.47,149.28 121.56,151.36 121.00,159.00
             125.63,158.67 125.90,158.33 130.00,156.30 Z
           M 160.17,153.85
           C 158.65,154.86 157.15,156.57 156.06,158.02
             155.14,159.24 154.26,160.54 153.74,162.00
             149.54,173.70 170.02,167.07 170.42,160.16
             170.53,158.13 168.77,157.00 168.00,152.00
             165.11,152.14 162.70,152.18 160.17,153.85 Z
           M 32.00,175.00
           C 32.06,176.64 31.92,179.04 33.02,180.40
             35.07,182.91 41.86,181.68 43.00,175.00
             43.00,175.00 32.00,175.00 32.00,175.00 Z" />
</svg>
