<svg height='100px' width='100px'  fill="#000000" xmlns="http://www.w3.org/2000/svg" xmlns:xlink="http://www.w3.org/1999/xlink" version="1.1" x="0px" y="0px" viewBox="0 0 100 100" style="enable-background:new 0 0 100 100;" xml:space="preserve"><title>icons saved for noun</title><path d="M97.5,78H26.1V65.9H16V78H2.5V14.4l12.4,12.4V14.4l12.4,12.4V14.4l12.4,12.4l0,0v20.9h6.1l2.2-36.2h7.4l2.2,36.2h5.5  l2.2-36.2h7.4l2.2,36.2h5.5l2.2-36.2h7.4l2.2,36.2h5.4V78z M13.9,54H7.9v5.9h5.9L13.9,54L13.9,54z M13.9,43.2H7.9v5.9h5.9L13.9,43.2  L13.9,43.2z M13.9,32.4H7.9v5.9h5.9L13.9,32.4L13.9,32.4z M24,54h-6v5.9h6V54z M24,43.2h-6v5.9h6V43.2L24,43.2z M24,32.4h-6v5.9h6  V32.4L24,32.4z M34.1,54h-5.9v5.9h5.9V54z M34.1,43.2h-5.9v5.9h5.9V43.2L34.1,43.2z M34.1,32.4h-5.9v5.9h5.9V32.4L34.1,32.4z   M51.6,54h-5.9v5.9h5.9V54z M61.7,54h-5.9v5.9h5.9V54z M71.8,54h-5.9v5.9h5.9V54z M81.9,54H76v5.9h5.9V54z M92.1,54h-5.9v5.9h5.9  L92.1,54L92.1,54z"></path></svg>