<?xml version="1.0" encoding="utf-8"?>
<!-- Generator: Adobe Illustrator 21.0.2, SVG Export Plug-In . SVG Version: 6.00 Build 0)  -->
<svg version="1.1" id="Layer_1" xmlns="http://www.w3.org/2000/svg" xmlns:xlink="http://www.w3.org/1999/xlink" x="0px" y="0px"
	 viewBox="0 0 1000 1302.5" style="enable-background:new 0 0 1000 1302.5;" xml:space="preserve">
<style type="text/css">
	.st0{fill:#FFFFFF;}
</style>
<path d="M481.2,14.1c-15.3,8.1-41.4,41.1-58,73.5c-20.4,40-27.1,72.2-27.1,128v39.2l104.6-0.4l104.4-0.7l-0.2-38.3
	c-0.4-53.8-8.1-89.3-27.8-128c-15.3-30.4-44.9-67.2-59.3-74.2C507.7,8.7,491,8.9,481.2,14.1z"/>
<path d="M396.1,291.4c0.2,1.1,7.9,16.4,17.1,34.6l16.9,32.8l70,0.7l70,0.4l17.1-33.7c9.2-18.6,16.9-34.4,16.9-35
	s-46.8-1.3-103.9-1.3C442.9,289.8,396.1,290.5,396.1,291.4z"/>
<path d="M311.8,368c-13.1,10.5-32,34.1-40.5,51.6c-9,18.6-15.3,45.1-15.3,64.3v16l69.6-0.4l69.4-0.7l-0.7-16.9
	c-1.1-33-13.1-65-34.4-91.9c-10.1-12.9-30-30.2-34.8-30.2C323.6,359.9,317.7,363.6,311.8,368z"/>
<path d="M661.9,368c-13.1,10.5-32,34.1-40.5,51.6c-9,18.6-15.3,45.1-15.3,64.3v16l69.6-0.4l69.4-0.7l-0.7-16.9
	c-1.1-33-13.1-65-34.4-91.9c-10.1-12.9-30-30.2-34.8-30.2C673.7,359.9,667.8,363.6,661.9,368z"/>
<path d="M431.1,657.4V1180l69.6-0.4l69.4-0.7l0.7-522.1l0.4-261.9h-70h-70L431.1,657.4L431.1,657.4z"/>
<path d="M256,727.4V1180l69.6-0.4l69.4-0.7l0.7-452.1l0.4-191.9h-70h-70V727.4z"/>
<path d="M606.1,727.4V1180l69.6-0.4l69.4-0.7l0.7-452.1l0.4-191.9h-70h-70L606.1,727.4L606.1,727.4z"/>
<path d="M229.1,1231.4c-4.4,9.2-8.1,17.1-8.1,17.5c0,0.7,15.3,1.1,33.9,1.1c18.6,0,33.9-0.7,33.9-1.3c0-0.7-3.5-8.5-8.1-17.5
	l-7.9-16.2h-17.7h-17.9L229.1,1231.4z"/>
<path d="M299.1,1231.4c-4.4,9.2-8.1,17.1-8.1,17.5c0,0.7,15.3,1.1,33.9,1.1c18.6,0,33.9-0.4,33.9-1.1c0-0.7-3.5-8.5-8.1-17.5
	l-7.9-16.4h-17.7h-17.9L299.1,1231.4z"/>
<path d="M369.2,1231.4c-4.4,9.2-8.1,17.1-8.1,17.5c0,0.7,15.3,1.1,33.9,1.1c18.6,0,33.9-0.7,33.9-1.8c0-0.9-3.7-8.8-8.1-17.5
	l-8.3-15.8H395h-17.7L369.2,1231.4z"/>
<path d="M474.2,1231.4c-4.4,9.2-8.1,17.1-8.1,17.5c0,0.7,15.3,1.1,33.9,1.1c18.6,0,33.9-0.4,33.9-1.1c0-0.7-3.5-8.5-8.1-17.5
	l-7.9-16.4h-17.7h-17.9L474.2,1231.4z"/>
<path d="M579.2,1231.4c-4.4,9.2-8.1,17.1-8.1,17.5c0,0.7,15.3,1.1,33.9,1.1c18.6,0,33.9-0.7,33.9-1.3c0-0.7-3.5-8.5-8.1-17.5
	L623,1215h-17.7h-17.9L579.2,1231.4z"/>
<path d="M649.2,1231.4c-4.4,9.2-8.1,17.1-8.1,17.5c0,0.7,15.3,1.1,33.9,1.1c18.6,0,33.9-0.4,33.9-1.1c0-0.7-3.5-8.5-8.1-17.5
	L693,1215h-17.7h-17.9L649.2,1231.4z"/>
<path d="M719.2,1231.4c-4.4,9.2-8.1,17.1-8.1,17.5c0,0.7,15.3,1.1,33.9,1.1c18.6,0,33.9-0.7,33.9-1.8c0-0.9-3.7-8.8-8.1-17.5
	l-8.3-15.8H745h-17.7L719.2,1231.4z"/>
<path class="st0" d="M478.6,909.5v49.3l1.7,1.8h54.2V947h-20.3l-1.4-1.3v-36.1c0-9.1-3-13.4-10.8-13.4h-12.5
	C481.6,896.1,478.6,900.4,478.6,909.5 M498.6,909.5c3.7,0,4.4,2,4.4,6.2v29.8l-1.7,1.5h-11.6l-1.5-1.3v-29.9c0-4.3,0.8-6.2,4.4-6.2
	H498.6z"/>
<polyline class="st0" points="488.8,871.3 510.1,859.5 512.2,860.2 512.2,886.1 522.3,892.8 522.3,854.1 524.3,851.5 534.5,845.5 
	534.5,829.9 477.9,864.1 "/>
<polyline class="st0" points="523.5,716.1 508.4,716.1 506.9,714.7 506.9,688.6 497.3,688.6 497.3,730 534.5,730 534.5,669 525,669 
	525,714.7 "/>
<rect x="478.6" y="668.3" class="st0" width="10.5" height="61.7"/>
<path class="st0" d="M488.5,798.8v-49.7c-7.8,0.8-10,4.7-10,14.6v35.6c0,11.2,2.7,14.8,13.2,14.8h29.5c10.5,0,13.2-3.6,13.2-14.8
	v-35.6c0-10.1-2.3-14-10.5-14.2v49.3l-1.7,1.5h-32.7"/>
<path class="st0" d="M500.4,993.8v36.1l-1.5,1.1h-9.6l-1-1.1v-48.7l-2-0.7c-5.3,1.7-7.8,6-7.8,13.9v33.8c0,11.2,2.7,14.8,13.2,14.8
	h6.2c10.5,0,13.2-3.6,13.2-14.8v-36.1l1.2-1.1h10l1.6,0.9v41.3h0v10.8c0,0,0.8,1.2,1.1,1.2c7.4-0.9,9.4-5,9.4-14.7v-36.9
	c0-11.2-2.7-14.9-13.2-14.9h-7.7C503.1,978.9,500.4,982.6,500.4,993.8"/>
<path class="st0" d="M478.3,629.5v20.3l2.6,1.1l20.3-22.5c-3.1-4.3-6.2-8.9-9.2-14"/>
<path class="st0" d="M516.6,611.3l17.9-19.8V571l-2.4-0.9l-26.8,29.6C508.9,603.6,512.7,607.5,516.6,611.3"/>
<path class="st0" d="M534.5,632.5v18.4l-3,1.6c-14.9-12.5-78.9-68.3-85.7-189.6C445.7,462.8,450,564.6,534.5,632.5"/>
</svg>
