<?xml version="1.0" encoding="utf-8"?>
<!-- Generator: Adobe Illustrator 21.0.2, SVG Export Plug-In . SVG Version: 6.00 Build 0)  -->
<svg version="1.1" id="Layer_1" xmlns="http://www.w3.org/2000/svg" xmlns:xlink="http://www.w3.org/1999/xlink" x="0px" y="0px"
	 viewBox="0 0 100 100" style="enable-background:new 0 0 100 100;" xml:space="preserve">
<style type="text/css">
	.st0{fill:#7F7F7F;}
</style>
<g>
	<path d="M51.1,62.9l7.3-5.4c-0.1-0.1-0.2-0.2-0.4-0.3c-0.2-0.2-0.4-0.3-0.6-0.5c-0.3-0.2-0.6-0.5-1-0.7s-0.8-0.4-1.2-0.6
		c-1.8-0.8-3.8-1-5.8-0.6c-0.9,0.2-1.8,0.4-2.6,0.8c-0.6,0.3-1.2,0.6-1.7,1l0,0c-0.1,0.1-0.2,0.2-0.3,0.2l0,0
		c-0.1,0.1-0.3,0.2-0.4,0.3c-0.2,0.1-0.3,0.3-0.4,0.4l0,0L51.1,62.9z M13.8,21.4c-0.2,0.1-0.4,0.2-0.6,0.3c-0.6,0.4-1.1,0.7-1.7,1.1
		c-1.2,0.8-2.4,1.7-3.6,2.7c-1.1,0.9-2.1,1.8-3,2.9l-0.1,0.1C17.6,38,30.4,47.5,43.1,57c0.1-0.1,0.2-0.2,0.3-0.3c0,0,0,0,0.1-0.1
		s0.2-0.1,0.2-0.2l0,0l0,0l0,0c0.1-0.1,0.2-0.2,0.3-0.3l0,0l0,0l0,0L13.8,21.4z M57.5,55.4L57.5,55.4c0.1,0.1,0.2,0.2,0.3,0.3
		c0,0,0.1,0,0.1,0.1c0.1,0.1,0.1,0.1,0.2,0.2c0,0,0,0,0.1,0l0,0c0.2,0.1,0.4,0.3,0.5,0.5c0.1,0.1,0.1,0.1,0.2,0.2s0.1,0.1,0.2,0.2
		l0,0l0.1,0.1l38.1-28.4l-1.2-1.3l0,0l-0.5-0.6l-0.8-0.9l-0.1,0.1C92.7,27.4,58.4,54.5,57.5,55.4z M44.9,55.5
		c0.2-0.1,0.4-0.3,0.6-0.4L21.9,15.7c-0.2,0.1-0.5,0.2-0.7,0.3c-1.5,0.6-2.9,1.3-4.4,2.1c-1,0.5-2,1.1-2.9,1.8L13.8,20l0.5,0.5
		L44.9,55.5z M56.5,54.8L84.7,17c-0.2-0.2-0.3-0.3-0.5-0.5c-1.8-1.9-3.8-3.6-6-5.1l-0.1-0.1L78,11.2L56,54.5
		C56.1,54.6,56.3,54.7,56.5,54.8z M46.4,54.6c0.2-0.1,0.5-0.2,0.7-0.3L30.2,10.8c-0.2,0-0.5,0.1-0.7,0.1c-2.6,0.6-5.1,1.3-7.5,2.4
		l-0.2,0.1l-0.1,0.1l0.8,1.3L46.4,54.6z M55,54.1l21.2-41.7c-0.2-0.1-0.4-0.3-0.6-0.4c-1.3-0.9-2.7-1.8-4.1-2.6
		c-1-0.6-2-1.1-3.1-1.5l-0.1-0.1L54.4,53.9h0.1C54.7,54,54.8,54.1,55,54.1z M48.1,54c0.1,0,0.3-0.1,0.4-0.1L38.9,8.1
		c-0.3,0-0.6,0-0.9,0.1c-1.4,0.1-2.9,0.3-4.3,0.5c-1,0.2-1.9,0.4-2.9,0.6h-0.1L48.1,54z M53.4,53.7L67.1,8.4
		c-0.3-0.1-0.5-0.2-0.8-0.4c-1.3-0.6-2.6-1.1-3.9-1.6c-0.9-0.3-1.8-0.6-2.7-0.8h-0.1l-6.8,48C53,53.6,53.2,53.7,53.4,53.7z
		 M49.5,53.6c0.2,0,0.4-0.1,0.6-0.1L48.8,6.8c-0.2,0-0.5-0.1-0.7-0.1c-1.6-0.2-3.2-0.3-4.8-0.3c-1.1,0-2.3,0-3.4,0.1h-0.2L49.5,53.6
		z M51.9,53.5l6.6-46.7c-0.2-0.1-0.5-0.1-0.7-0.2c-2.5-0.8-5.1-1.3-7.7-1.6h-0.2h-0.1v1.5l0,0l1.4,47.1
		C51.4,53.5,51.6,53.5,51.9,53.5z M60,51.8c0.7-0.6,31.6-29,31.6-29c-0.2-0.2-0.3-0.5-0.5-0.7c-0.9-1.2-1.7-2.3-2.7-3.4
		c-0.7-0.7-1.3-1.5-2.1-2.1l-0.1-0.1L60,51.8z M77.5,37.9c0.9-0.7,17.1-13.3,17.1-13.3l0,0c0,0-0.8-1.3-1.3-1.9l0,0L77.5,37.9z
		 M97,26.5l1.5,1.7c0.1,0.1,0.1,0.1,0.1,0.2c0,0.2,0,0.3-0.1,0.5L98.4,29L59.5,58l0,0l-8.1,6c-0.1,0-0.1,0.1-0.2,0.1s-0.1,0-0.1,0
		H51c-0.1,0-0.1,0-0.2-0.1l-7.9-5.9l0,0L3.8,29c-0.1-0.1-0.1-0.1-0.2-0.2v-0.1c0-0.1,0-0.2,0-0.3c0-0.1,0.1-0.1,0.1-0.2
		C3.8,28.1,3.8,28,3.9,28c0.5-0.5,1-1,1.5-1.5C6.2,25.7,7,25,7.9,24.3c1.3-1,2.6-1.9,3.9-2.8c0.4-0.3,0.9-0.6,1.3-0.8l-0.4-0.5
		l-0.1-0.1c0-0.1,0-0.1-0.1-0.2c0-0.1,0-0.2,0.1-0.3c0-0.1,0.1-0.1,0.1-0.1c0.1-0.1,0.2-0.2,0.3-0.3c1-0.8,2.1-1.4,3.3-2
		c1.6-0.9,3.3-1.7,5-2.3l-0.7-1.2c0-0.1-0.1-0.1-0.1-0.2s0-0.3,0.1-0.4s0.1-0.1,0.2-0.1c0.1-0.1,0.2-0.1,0.4-0.2
		c1-0.5,2.1-0.9,3.1-1.3c1.4-0.5,2.8-0.9,4.2-1.2c0.4-0.1,0.9-0.2,1.4-0.3l-0.3-0.8c0-0.1,0-0.1,0-0.2s0.1-0.3,0.2-0.4
		s0.1-0.1,0.2-0.1s0.2-0.1,0.4-0.1c1-0.3,2.1-0.5,3.1-0.7c1.4-0.2,2.7-0.4,4.1-0.5c0.4,0,0.8-0.1,1.3-0.1l-0.2-0.8
		c0-0.1,0-0.1,0-0.2s0.1-0.3,0.2-0.3s0.1,0,0.2-0.1c0.1,0,0.3,0,0.4-0.1c1.3-0.2,2.6-0.2,3.9-0.2c1.8,0,3.7,0.2,5.5,0.4V4.4
		c0-0.1,0-0.1,0-0.2C49,4.1,49.1,4,49.2,3.9c0.1,0,0.1,0,0.2,0s0.3,0,0.4,0C50.9,4,52,4.1,53.2,4.3c1.4,0.3,2.9,0.6,4.3,1
		c0.4,0.1,0.9,0.3,1.3,0.4l0.1-0.8c0-0.1,0-0.1,0.1-0.2s0.2-0.2,0.3-0.2s0.1,0,0.2,0s0.2,0,0.4,0.1c1,0.2,2,0.5,2.9,0.9
		C64,5.9,65.3,6.4,66.5,7c0.4,0.2,0.7,0.3,1.1,0.5L67.7,7V6.9c0.1-0.1,0.1-0.1,0.1-0.2c0.1-0.1,0.2-0.1,0.4-0.1h0.1
		c0.1,0,0.3,0.1,0.4,0.1c1.2,0.5,2.4,1.1,3.5,1.7c1.6,0.9,3.1,1.9,4.6,3l0.6-1.3c0-0.1,0.1-0.1,0.1-0.2c0.1-0.1,0.2-0.1,0.4-0.1
		c0.1,0,0.1,0,0.2,0.1s0.2,0.1,0.4,0.2c1,0.6,1.9,1.3,2.7,2c1.1,0.9,2.2,1.9,3.3,2.9c0.3,0.3,0.7,0.7,1,1l0.5-0.6
		c0.1-0.1,0.1-0.1,0.1-0.1c0.1-0.1,0.3-0.1,0.4-0.1s0.1,0,0.2,0.1s0.2,0.2,0.3,0.3c0.9,0.8,1.7,1.6,2.5,2.5c1.1,1.3,2.1,2.6,3.1,4
		l0.6-0.5c0.1,0,0.1-0.1,0.2-0.1c0.1-0.1,0.3,0,0.5,0l0.1,0.1c0.1,0.1,0.2,0.3,0.3,0.4C95.1,23.4,96.1,25,97,26.5z"/>
</g>
<path class="st0" d="M13.7,21.4c-0.2,0.1-0.4,0.2-0.6,0.3c-0.6,0.4-1.1,0.7-1.7,1.1c-1.2,0.8-2.4,1.7-3.6,2.7
	c-1.1,0.9-2.1,1.8-3,2.9l-0.1,0.1C17.5,38,30.3,47.5,43,57c0.1-0.1,0.2-0.2,0.3-0.3c0,0,0,0,0.1-0.1s0.2-0.1,0.2-0.2l0,0l0,0l0,0
	c0.1-0.1,0.2-0.2,0.3-0.3l0,0l0,0l0,0L13.7,21.4z"/>
<path class="st0" d="M57.4,55.4L57.4,55.4c0.1,0.1,0.2,0.2,0.3,0.3c0,0,0.1,0,0.1,0.1c0.1,0.1,0.1,0.1,0.2,0.2c0,0,0,0,0.1,0l0,0
	c0.2,0.1,0.4,0.3,0.5,0.5c0.1,0.1,0.1,0.1,0.2,0.2s0.1,0.1,0.2,0.2l0,0l0.1,0.1l38.1-28.4L96,27.3l0,0l-0.5-0.6l-0.8-0.9l-0.1,0.1
	C92.6,27.4,58.3,54.5,57.4,55.4z"/>
<path class="st0" d="M44.8,55.5c0.2-0.1,0.4-0.3,0.6-0.4L21.8,15.7c-0.2,0.1-0.5,0.2-0.7,0.3c-1.5,0.6-2.9,1.3-4.4,2.1
	c-1,0.5-2,1.1-2.9,1.8L13.7,20l0.5,0.5L44.8,55.5z"/>
<path class="st0" d="M56.4,54.8L84.6,17c-0.2-0.2-0.3-0.3-0.5-0.5c-1.8-1.9-3.8-3.6-6-5.1L78,11.3l-0.1-0.1l-22,43.3
	C56,54.6,56.2,54.7,56.4,54.8z"/>
<path class="st0" d="M21.7,13.4L21.7,13.4l0.7,1.4l23.9,39.8c0.2-0.1,0.5-0.2,0.7-0.3L30.1,10.8c-0.2,0-0.5,0.1-0.7,0.1
	c-2.6,0.6-5.1,1.3-7.5,2.4L21.7,13.4"/>
<path class="st0" d="M54.9,54.1l21.2-41.7c-0.2-0.1-0.4-0.3-0.6-0.4c-1.3-0.9-2.7-1.8-4.1-2.6c-1-0.6-2-1.1-3.1-1.5l-0.1-0.1
	L54.3,53.9h0.1C54.6,54,54.7,54.1,54.9,54.1z"/>
<path class="st0" d="M48,54c0.1,0,0.3-0.1,0.4-0.1L38.8,8.1c-0.3,0-0.6,0-0.9,0.1c-1.4,0.1-2.9,0.3-4.3,0.5c-1,0.2-1.9,0.4-2.9,0.6
	h-0.1L48,54z"/>
<path class="st0" d="M53.3,53.7L67,8.4c-0.3-0.1-0.5-0.2-0.8-0.4c-1.3-0.6-2.6-1.1-3.9-1.6c-0.9-0.3-1.8-0.6-2.7-0.8h-0.1l-6.8,48
	C52.9,53.6,53.1,53.7,53.3,53.7z"/>
<path class="st0" d="M49.4,53.6c0.2,0,0.4-0.1,0.6-0.1L48.7,6.8c-0.2,0-0.5-0.1-0.7-0.1c-1.6-0.2-3.2-0.3-4.8-0.3
	c-1.1,0-2.3,0-3.4,0.1h-0.2L49.4,53.6z"/>
<path class="st0" d="M49.7,5v1.5l0,0l1.4,47.1c0.2-0.1,0.4-0.1,0.7-0.1l6.6-46.7c-0.2-0.1-0.5-0.1-0.7-0.2C55.2,5.8,52.6,5.3,50,5
	L49.7,5L49.7,5"/>
<path class="st0" d="M59.9,51.8c0.7-0.6,31.6-29,31.6-29c-0.2-0.2-0.3-0.5-0.5-0.7c-0.9-1.2-1.7-2.3-2.7-3.4
	c-0.7-0.7-1.3-1.5-2.1-2.1l-0.1-0.1L59.9,51.8z"/>
<path class="st0" d="M77.4,37.9c0.9-0.7,17.1-13.3,17.1-13.3l0,0c0,0-0.8-1.3-1.3-1.9l0,0L77.4,37.9z"/>
</svg>
