<svg height='100px' width='100px'  fill="#000000" xmlns="http://www.w3.org/2000/svg" xmlns:xlink="http://www.w3.org/1999/xlink" version="1.1" x="0px" y="0px" viewBox="0 0 100 100" enable-background="new 0 0 100 100" xml:space="preserve"><g><path d="M20.125,24.885v49.74h-5.5v2.5h5.5v1.82H9.969v2.5h80.575v-2.5h-9.672v-1.82h5.503v-2.5h-5.503V24.856   c1.87-1.754,2.919-3.82,3.101-6.159c0.381-4.928-3.248-9.211-3.402-9.391l-0.967-1.124l-0.944,1.142   c-2.669,3.226-3.831,6.427-3.455,9.513c0.381,3.126,2.252,5.201,3.168,6.048v49.74H51.749V24.856c1.869-1.754,2.919-3.82,3.1-6.159   c0.382-4.928-3.247-9.21-3.401-9.391L50.48,8.182l-0.945,1.142c-2.668,3.226-3.831,6.427-3.455,9.513   c0.381,3.125,2.251,5.201,3.168,6.048v49.74H22.625v-49.77c1.87-1.753,2.919-3.82,3.1-6.159c0.381-4.928-3.248-9.21-3.402-9.391   l-0.966-1.124l-0.945,1.142c-2.668,3.226-3.831,6.427-3.454,9.513C17.338,21.963,19.208,24.038,20.125,24.885z M78.372,77.125v1.82   H51.749v-1.82H78.372z M49.249,77.125v1.82H22.625v-1.82H49.249z"></path><path d="M23.27,36.226l0.21,1.287l1.277-0.264c9.004-1.86,10.227-11.418,10.238-11.515l0.222-1.894l-1.826,0.552   C22.039,27.825,23.256,36.143,23.27,36.226z"></path><path d="M33.391,36.042c-11.353,3.432-10.135,11.75-10.122,11.833l0.21,1.287l1.277-0.264c9.004-1.86,10.227-11.418,10.238-11.515   l0.222-1.894L33.391,36.042z"></path><path d="M33.391,47.691C22.039,51.124,23.256,59.44,23.27,59.524l0.21,1.287l1.277-0.264c9.004-1.859,10.227-11.418,10.238-11.515   l0.222-1.894L33.391,47.691z"></path><path d="M23.27,71.174l0.21,1.287l1.277-0.264c9.004-1.859,10.227-11.418,10.238-11.515l0.222-1.894l-1.826,0.552   C22.039,62.772,23.256,71.09,23.27,71.174z"></path><path d="M17.926,37.249l1.277,0.264l0.21-1.287c0.014-0.083,1.231-8.401-10.122-11.833L7.466,23.84l0.222,1.894   C7.7,25.831,8.922,35.389,17.926,37.249z"></path><path d="M17.926,48.898l1.277,0.264l0.21-1.287c0.014-0.083,1.231-8.401-10.122-11.833L7.466,35.49l0.222,1.894   C7.7,37.48,8.922,47.039,17.926,48.898z"></path><path d="M17.926,60.548l1.277,0.264l0.21-1.287c0.014-0.084,1.231-8.4-10.122-11.833l-1.826-0.552l0.222,1.894   C7.7,49.13,8.922,58.688,17.926,60.548z"></path><path d="M17.926,72.197l1.277,0.264l0.21-1.287c0.014-0.084,1.231-8.401-10.122-11.833l-1.826-0.552l0.222,1.894   C7.7,60.779,8.922,70.338,17.926,72.197z"></path><path d="M52.395,36.226l0.21,1.287l1.276-0.264c9.003-1.86,10.227-11.418,10.237-11.515l0.223-1.894l-1.825,0.552   C51.162,27.825,52.381,36.143,52.395,36.226z"></path><path d="M62.516,36.042c-11.354,3.432-10.135,11.75-10.121,11.833l0.21,1.287l1.276-0.264c9.003-1.86,10.227-11.418,10.237-11.515   l0.223-1.894L62.516,36.042z"></path><path d="M62.516,47.691C51.162,51.124,52.381,59.44,52.395,59.524l0.21,1.287l1.276-0.264c9.003-1.859,10.227-11.418,10.237-11.515   l0.223-1.894L62.516,47.691z"></path><path d="M52.395,71.174l0.21,1.287l1.276-0.264c9.003-1.859,10.227-11.418,10.237-11.515l0.223-1.894l-1.825,0.552   C51.162,62.772,52.381,71.09,52.395,71.174z"></path><path d="M47.05,37.249l1.277,0.264l0.21-1.287c0.014-0.083,1.231-8.401-10.122-11.833l-1.826-0.552l0.222,1.894   C36.823,25.831,38.046,35.389,47.05,37.249z"></path><path d="M47.05,48.898l1.277,0.264l0.21-1.287c0.014-0.083,1.231-8.401-10.122-11.833l-1.826-0.552l0.222,1.894   C36.823,37.48,38.046,47.039,47.05,48.898z"></path><path d="M47.05,60.548l1.277,0.264l0.21-1.287c0.014-0.084,1.231-8.4-10.122-11.833l-1.826-0.552l0.222,1.894   C36.823,49.13,38.046,58.688,47.05,60.548z"></path><path d="M47.05,72.197l1.277,0.264l0.21-1.287c0.014-0.084,1.231-8.401-10.122-11.833l-1.826-0.552l0.222,1.894   C36.823,60.779,38.046,70.338,47.05,72.197z"></path><path d="M81.518,36.226l0.209,1.287l1.277-0.264c9.004-1.86,10.227-11.418,10.237-11.515l0.223-1.894l-1.825,0.552   C80.286,27.825,81.504,36.143,81.518,36.226z"></path><path d="M81.518,47.875l0.209,1.287l1.277-0.264c9.004-1.86,10.227-11.418,10.237-11.515l0.223-1.894l-1.825,0.552   C80.286,39.474,81.504,47.792,81.518,47.875z"></path><path d="M81.518,59.524l0.209,1.287l1.277-0.264c9.004-1.859,10.227-11.418,10.237-11.515l0.223-1.894l-1.825,0.552   C80.286,51.124,81.504,59.44,81.518,59.524z"></path><path d="M81.518,71.174l0.209,1.287l1.277-0.264c9.004-1.859,10.227-11.418,10.237-11.515l0.223-1.894l-1.825,0.552   C80.286,62.772,81.504,71.09,81.518,71.174z"></path><path d="M76.173,37.249l1.277,0.264l0.209-1.287c0.014-0.083,1.231-8.401-10.121-11.833l-1.825-0.552l0.223,1.894   C65.946,25.831,67.169,35.389,76.173,37.249z"></path><path d="M76.173,48.898l1.277,0.264l0.209-1.287c0.014-0.083,1.231-8.401-10.121-11.833l-1.825-0.552l0.223,1.894   C65.946,37.48,67.169,47.039,76.173,48.898z"></path><path d="M76.173,60.548l1.277,0.264l0.209-1.287c0.014-0.084,1.231-8.4-10.121-11.833l-1.825-0.552l0.223,1.894   C65.946,49.129,67.169,58.688,76.173,60.548z"></path><path d="M76.173,72.197l1.277,0.264l0.209-1.287c0.014-0.084,1.231-8.401-10.121-11.833l-1.825-0.552l0.223,1.894   C65.946,60.779,67.169,70.338,76.173,72.197z"></path><rect x="6.875" y="84" width="86.25" height="2.5"></rect><rect x="9.969" y="88.625" width="80.575" height="2.5"></rect></g></svg>