<svg height='100px' width='100px'  fill="#000000" xmlns:xlink="http://www.w3.org/1999/xlink" xmlns="http://www.w3.org/2000/svg" stroke-width="0.501" stroke-linejoin="bevel" fill-rule="evenodd" version="1.1" overflow="visible" viewBox="0 0 75 75" x="0px" y="0px"><g fill="none" stroke="black" font-family="Times New Roman" font-size="16" transform="scale(1 -1)"><g transform="translate(0 -75)"><g><path d="M 55.423,2.236 C 55.08,2.579 54.935,2.972 54.98,3.439 C 55.053,4.202 56.106,4.289 57.704,4.336 C 58.537,4.36 59.397,4.386 60.075,4.605 C 61.587,5.094 62.659,6.3 63.018,7.914 C 63.44,9.806 62.764,11.855 61.257,13.262 C 60.732,13.755 57.081,15.93 56.32,15.861 C 56.141,15.846 55.988,15.728 55.927,15.559 C 55.576,14.587 50.652,11.221 47.009,9.957 C 39.795,6.893 28.191,3.813 26.076,6.258 C 25.873,6.493 25.795,6.728 25.831,6.998 C 25.932,7.755 26.91,8.768 28.727,10.006 C 28.838,10.027 28.934,10.091 28.999,10.189 C 29.591,10.582 30.192,10.955 30.727,11.284 C 31.298,11.636 31.791,11.939 32.14,12.188 C 35.44,14.546 35.522,14.758 35.602,14.963 C 35.693,15.199 35.576,15.464 35.34,15.556 C 35.121,15.641 34.876,15.546 34.769,15.342 C 34.654,15.203 34.081,14.701 31.606,12.934 C 31.284,12.704 30.803,12.408 30.246,12.065 C 29.712,11.736 29.113,11.364 28.516,10.969 C 26.594,11.466 24.893,12.229 23.47,13.253 C 21.504,14.648 20.036,16.506 19.103,18.776 C 18.031,21.362 17.686,24.405 18.06,27.819 C 18.402,27.755 18.757,27.74 19.101,27.789 C 20.726,28.029 21.402,29.564 22.055,31.049 C 22.515,32.091 22.99,33.169 23.761,33.625 C 23.979,33.754 24.052,34.035 23.923,34.253 C 23.794,34.47 23.513,34.543 23.295,34.414 C 22.269,33.808 21.734,32.594 21.217,31.419 C 20.638,30.104 20.091,28.862 18.971,28.696 C 18.626,28.649 18.266,28.686 17.934,28.795 C 17.857,28.857 17.766,28.902 17.66,28.902 C 17.659,28.902 17.658,28.901 17.656,28.901 C 17.111,29.158 16.254,29.852 16.812,31.588 C 17.391,33.407 18.193,34.741 20.809,36.614 C 21,36.769 22.593,37.683 22.795,37.775 C 22.822,37.787 22.848,37.802 22.873,37.819 C 25.917,39.937 25.574,42.779 24.584,45.562 C 24.371,45.463 24.162,45.37 23.954,45.278 C 23.304,44.991 22.691,44.719 21.958,44.246 C 21.881,44.197 21.794,44.173 21.709,44.173 C 21.559,44.173 21.412,44.247 21.324,44.384 C 21.186,44.596 21.248,44.88 21.461,45.017 C 22.254,45.529 22.929,45.828 23.582,46.117 C 23.805,46.216 24.029,46.315 24.259,46.423 C 24.184,46.613 24.107,46.801 24.029,46.989 C 23.633,46.899 23.194,46.81 22.74,46.718 C 21.959,46.561 21.153,46.398 20.454,46.207 C 20.414,46.196 20.373,46.191 20.333,46.191 C 20.131,46.191 19.947,46.325 19.891,46.528 C 19.825,46.773 19.968,47.025 20.213,47.092 C 20.942,47.291 21.763,47.457 22.558,47.618 C 22.945,47.695 23.322,47.771 23.668,47.848 C 23.666,47.854 23.663,47.861 23.66,47.868 C 23.149,49.074 22.666,50.213 22.416,51.274 C 22.383,51.414 22.357,51.54 22.327,51.673 C 22.744,51.404 23.262,51.252 23.833,51.252 C 23.997,51.252 24.166,51.264 24.337,51.29 C 25.511,51.461 26.986,52.305 27.282,54.121 C 27.322,54.371 27.153,54.606 26.903,54.647 C 26.653,54.689 26.417,54.518 26.377,54.268 C 26.161,52.942 25.072,52.323 24.205,52.197 C 23.372,52.076 22.655,52.362 22.382,52.927 C 22.316,53.062 22.191,53.143 22.054,53.169 C 21.885,54.354 21.876,55.254 21.872,56.127 C 21.868,56.816 21.865,57.528 21.783,58.366 C 21.664,59.574 21.439,60.949 21.222,62.279 C 20.833,64.659 20.43,67.121 20.677,68.416 C 20.715,68.619 20.78,68.629 20.831,68.637 C 21.917,68.812 25.446,65.602 25.773,65.004 C 25.836,64.868 25.961,64.773 26.108,64.747 C 26.254,64.722 26.405,64.769 26.51,64.874 C 27.386,65.745 31.282,66.823 33.375,67.403 C 34.079,67.597 34.669,67.761 35.041,67.881 C 35.219,67.939 35.344,68.099 35.357,68.286 L 35.364,68.392 C 35.658,72.745 36.189,74.069 36.605,74.38 C 38.039,74.339 43.336,67.064 45.351,64.296 L 45.625,63.92 C 50.899,56.684 57.518,45.925 59.963,39.362 C 60.951,36.707 61.725,31.066 61.495,28.188 C 61.334,26.211 60.166,20.337 59.578,19.813 C 59.447,19.72 59.376,19.545 59.388,19.385 C 59.389,19.361 59.369,19.287 59.356,19.238 C 59.307,19.057 59.234,18.785 59.388,18.492 C 59.426,18.419 59.484,18.357 59.554,18.314 C 63.696,15.782 67.669,12.833 66.817,7.127 C 66.317,3.813 63.725,1.681 59.706,1.279 C 57.839,1.094 56.198,1.462 55.423,2.236 Z M 10.546,10.341 C 9.422,10.678 9.051,11.042 8.938,11.288 C 8.882,11.411 8.827,11.619 9,12.012 C 9.335,12.784 11.296,13.866 13.026,14.82 C 13.863,15.282 14.729,15.759 15.433,16.212 C 15.764,16.427 16.227,16.693 16.675,16.949 C 17.934,17.671 18.189,17.836 18.277,18.101 C 18.312,18.205 18.301,18.309 18.266,18.404 C 19.194,16.153 20.624,14.285 22.506,12.835 C 19.144,11.106 12.987,9.608 10.546,10.341 Z M 36.561,27.277 C 37.973,27.938 38.112,29.145 38.245,30.314 C 38.406,31.716 38.572,33.168 40.871,34.247 C 41.101,34.354 41.199,34.627 41.091,34.856 C 40.984,35.085 40.711,35.184 40.482,35.076 C 37.719,33.78 37.506,31.916 37.335,30.418 C 37.198,29.226 37.077,28.531 36.173,28.107 C 35.246,27.675 33.969,27.379 33.153,28.431 C 31.3,30.827 33.574,33.564 34.316,34.348 C 35.552,35.661 36.755,36.479 37.618,36.591 C 37.869,36.624 38.046,36.854 38.013,37.105 C 37.981,37.357 37.751,37.535 37.5,37.5 C 36.109,37.319 34.637,36.028 33.649,34.977 C 31.861,33.09 30.601,30.232 32.428,27.87 C 32.978,27.161 33.742,26.801 34.638,26.801 C 35.23,26.801 35.879,26.959 36.561,27.277 Z M 47.885,49.524 C 47.983,49.757 47.873,50.026 47.64,50.124 C 46.959,50.409 45.539,50.399 43.894,50.358 C 43.572,50.35 43.284,50.343 43.061,50.343 C 42.808,50.343 42.603,50.138 42.603,49.885 C 42.603,49.632 42.808,49.426 43.061,49.426 C 43.29,49.426 43.586,49.433 43.916,49.441 C 44.967,49.467 46.73,49.51 47.286,49.278 C 47.344,49.254 47.404,49.242 47.462,49.242 C 47.641,49.242 47.812,49.348 47.885,49.524 Z M 30.588,49.872 C 30.969,50.042 31.323,50.448 31.518,50.966 C 31.837,50.719 32.208,50.561 32.585,50.529 C 32.633,50.525 32.678,50.524 32.724,50.524 C 33.275,50.524 33.768,50.806 34.093,51.312 C 34.229,51.526 34.168,51.809 33.954,51.946 C 33.742,52.082 33.457,52.02 33.321,51.807 C 33.152,51.543 32.93,51.421 32.663,51.444 C 32.255,51.478 31.823,51.829 31.622,52.281 C 31.595,52.426 31.553,52.577 31.483,52.745 C 31.394,52.959 31.159,53.073 30.934,53.009 C 30.711,52.946 30.57,52.725 30.607,52.496 C 30.632,52.338 30.682,52.191 30.737,52.047 C 30.737,52.045 30.736,52.044 30.737,52.043 C 30.847,51.409 30.508,50.84 30.216,50.711 C 30.144,50.679 30.105,50.675 30.034,50.766 C 29.878,50.966 29.59,51.001 29.39,50.845 C 29.191,50.69 29.155,50.401 29.31,50.202 C 29.529,49.922 29.825,49.774 30.141,49.774 C 30.288,49.774 30.439,49.806 30.588,49.872 Z M 42.566,51.192 C 43.097,51.372 43.721,51.409 44.381,51.447 C 45.066,51.487 45.774,51.528 46.416,51.742 C 46.656,51.822 46.786,52.082 46.705,52.322 C 46.626,52.562 46.366,52.693 46.125,52.612 C 45.599,52.436 44.981,52.4 44.328,52.362 C 43.636,52.322 42.92,52.281 42.272,52.061 C 42.032,51.98 41.903,51.719 41.985,51.48 C 42.049,51.288 42.228,51.168 42.419,51.168 C 42.468,51.168 42.517,51.176 42.566,51.192 Z M 37.409,54.302 C 38.945,54.648 39.754,55.927 39.574,57.725 C 39.549,57.977 39.326,58.164 39.072,58.136 C 38.82,58.11 38.636,57.886 38.661,57.634 C 38.842,55.839 37.827,55.336 37.207,55.196 C 36.158,54.959 34.958,55.43 34.689,56.183 C 34.604,56.421 34.342,56.545 34.103,56.46 C 33.864,56.375 33.74,56.113 33.825,55.874 C 34.18,54.882 35.374,54.217 36.637,54.217 C 36.894,54.217 37.153,54.244 37.409,54.302 Z" fill="#000000" stroke-width="0.611" stroke-linejoin="miter" stroke="none" marker-start="none" marker-end="none" stroke-miterlimit="79.8403193612775"></path></g></g></g></svg>