<svg xmlns="http://www.w3.org/2000/svg" xmlns:xlink="http://www.w3.org/1999/xlink" width="100" height="100" viewBox="0 0 100 100"><rect width="100%" height="100%" fill="#FFFFFF"></rect><g transform="translate(50 50) scale(0.69 0.69) rotate(0) translate(-50 -50)" style="fill:#333333"><svg fill="#333333" xmlns="http://www.w3.org/2000/svg" xmlns:xlink="http://www.w3.org/1999/xlink" version="1.1" x="0px" y="0px" viewBox="0 0 33 33" enable-background="new 0 0 33 33" xml:space="preserve"><g><path d="M23.947,14.992c-0.107-0.684-0.143-1.373-0.148-1.957c0.424-0.453,0.678-1.107,0.738-1.984   c0.066-0.988-0.23-1.613-0.598-2.012C23.992,7.807,24.041,0.5,16.498,0.5S9.004,7.809,9.059,9.039   c-0.369,0.398-0.664,1.023-0.598,2.012c0.061,0.877,0.314,1.531,0.738,1.984c-0.006,0.584-0.041,1.273-0.15,1.957   c-0.268,1.684-0.973,3.299-0.953,3.383c0.076,0.303,1.863-0.875,3.475-1.125c1.244,1.613,2.947,2.508,4.928,2.508   c1.982,0,3.684-0.895,4.928-2.508c1.613,0.25,3.4,1.428,3.477,1.125C24.922,18.291,24.217,16.676,23.947,14.992z M16.498,18.529   c-3.848,0-5.154-3.926-5.537-5.613l-0.082-0.357l-0.354-0.1c-0.225-0.061-0.75-0.207-0.838-1.492   c-0.025-0.389,0.027-0.658,0.117-0.855c0.102,0.127,0.197,0.299,0.271,0.557c0.314,1.068,0.771,0.564,0.771,0.564   c-0.26-2.447,3.191-4.98,5.65-4.98c2.461,0,3.867-0.686,3.867-0.686s2.045,3.219,1.783,5.666c0,0,0.459,0.504,0.771-0.564   c0.076-0.258,0.172-0.428,0.273-0.557c0.09,0.197,0.143,0.467,0.117,0.855c-0.088,1.285-0.613,1.432-0.838,1.492l-0.355,0.1   l-0.08,0.357C21.652,14.604,20.348,18.529,16.498,18.529z"></path><path d="M6.514,26.963c0.098,0.36,0.189,0.7,0.24,1.019c0.121,0.793,0.396,1.305,0.836,1.564c0.213,0.125,0.453,0.188,0.727,0.188   c0.271,0,0.576-0.062,0.918-0.187c0.238-0.087,0.361-0.352,0.275-0.591c-0.088-0.239-0.354-0.364-0.592-0.275   c-0.277,0.101-0.65,0.194-0.859,0.071c-0.182-0.107-0.318-0.423-0.395-0.911c-0.057-0.369-0.16-0.751-0.26-1.119   c-0.422-1.557-0.584-2.465,0.971-3.032c1.553-0.568,2.016,0.23,2.697,1.692c0.16,0.347,0.328,0.704,0.521,1.023   c0.256,0.423,0.355,0.752,0.285,0.952c-0.064,0.185-0.301,0.352-0.701,0.499c-0.24,0.088-0.363,0.353-0.275,0.591   c0.088,0.24,0.354,0.363,0.592,0.275c0.682-0.25,1.092-0.597,1.254-1.061c0.17-0.482,0.051-1.05-0.365-1.735   c-0.168-0.276-0.318-0.596-0.475-0.935c-0.57-1.224-1.342-2.87-3.488-2.281c-0.127-0.571-0.189-1.119-0.219-1.613   c-0.297,0.154-0.59,0.321-0.883,0.502c0.045,0.458,0.115,0.945,0.234,1.448C5.717,23.998,6.172,25.696,6.514,26.963z"></path><path d="M21.641,25.384c-0.887,0.526-1.199,1.641-0.697,2.487c0.504,0.85,1.629,1.116,2.516,0.59   c0.889-0.524,1.201-1.637,0.699-2.488c-0.008-0.014-0.02-0.023-0.027-0.036c1.021-1.38,1.42-2.989,1.555-4.335   c-0.293-0.181-0.586-0.348-0.883-0.502c-0.074,1.264-0.391,2.867-1.357,4.216C22.902,25.04,22.223,25.04,21.641,25.384z    M22.93,27.563c-0.369,0.22-0.838,0.108-1.047-0.246c-0.209-0.352-0.078-0.815,0.289-1.034c0.371-0.219,0.84-0.108,1.049,0.245   C23.43,26.882,23.299,27.344,22.93,27.563z"></path><path d="M29.23,22.453c-2.021-2.849-6.973-4.29-7.184-4.35L21.51,17.95l-0.203,0.521c-0.197,0.503-0.502,1.037-0.855,1.573   c-1.156,0.887-2.453,1.087-3.951,1.087s-2.795-0.201-3.951-1.088c-0.354-0.535-0.658-1.069-0.855-1.572L11.49,17.95l-0.537,0.153   c-0.209,0.06-5.162,1.501-7.184,4.35c-1.182,1.665-1.715,4.636-1.715,6.213v0.225l0.146,0.172C2.318,29.203,5.236,32.5,16.5,32.5   c11.266,0,14.182-3.297,14.301-3.438l0.145-0.172v-0.225C30.945,27.089,30.414,24.118,29.23,22.453z M16.5,31.271   c-9.232,0-12.514-2.271-13.211-2.862c0.057-1.477,0.568-3.955,1.482-5.244c1.424-2.005,4.74-3.284,6.012-3.715   c1.424,2.935,5.141,6.282,5.307,6.432l0.41,0.367l0.41-0.367c0.168-0.149,3.883-3.497,5.309-6.432   c1.271,0.431,4.586,1.71,6.01,3.715c0.914,1.289,1.426,3.767,1.482,5.243C29.004,29.006,25.719,31.271,16.5,31.271z"></path></g></svg></g></svg>