<svg xmlns="http://www.w3.org/2000/svg" xmlns:xlink="http://www.w3.org/1999/xlink" version="1.1" x="0px" y="0px" viewBox="0 0 100 100" enable-background="new 0 0 100 100" xml:space="preserve"><g><path fill="none" d="M37.868,37.664c0.1-0.098,0.205-0.186,0.304-0.283c-0.477-0.21-0.773-0.331-0.773-0.331   C37.59,37.237,37.713,37.458,37.868,37.664z"></path><path fill="none" d="M64.902,36.969c0.115-0.147,0.186-0.311,0.319-0.449c0,0-0.214,0.096-0.537,0.253   C64.758,36.837,64.832,36.904,64.902,36.969z"></path><path d="M53.552,66.843c0.054-0.071,0.089-0.151,0.153-0.217c0,0-0.102,0.046-0.26,0.122   C53.482,66.779,53.518,66.812,53.552,66.843z"></path><path d="M76.337,54.083C72.459,32.391,42.55,5,42.55,5c6.902,14.696-7.574,32.44-7.574,32.44   c-5.703,5.454-8.988,10.232-10.508,14.411c-1.214,2.879-1.92,6.014-1.999,9.306c-0.21,8.94,4.234,16.942,11.202,21.883   c-0.499-1.396-0.753-2.897-0.716-4.457c0.038-1.598,0.379-3.119,0.97-4.516c0.738-2.029,2.332-4.349,5.101-6.996   c0,0,7.025-8.615,3.675-15.747c0,0,14.518,13.297,16.401,23.826c0.404,1.274,0.612,2.63,0.58,4.034   c-0.079,3.228-1.394,6.148-3.497,8.357c11.988-2.634,21.054-12.802,21.346-25.147C77.599,59.503,77.171,56.708,76.337,54.083z    M37.868,37.664c-0.155-0.206-0.278-0.427-0.469-0.613c0,0,0.296,0.12,0.773,0.331C38.074,37.477,37.968,37.566,37.868,37.664z    M64.902,36.969c-0.07-0.065-0.144-0.131-0.218-0.196c0.323-0.156,0.537-0.253,0.537-0.253   C65.088,36.657,65.017,36.822,64.902,36.969z"></path><path d="M40.428,67.181c0.05-0.048,0.1-0.09,0.148-0.137c-0.231-0.102-0.375-0.16-0.375-0.16   C40.293,66.974,40.354,67.081,40.428,67.181z"></path><path d="M51.603,94.98c0.159,0.012,0.261,0.02,0.261,0.02c-0.063-0.011-0.098-0.024-0.153-0.036   C51.677,94.97,51.641,94.975,51.603,94.98z"></path><path d="M38.361,94.958c0,0,0.144-0.009,0.375-0.026c-0.049-0.008-0.099-0.014-0.148-0.022   C38.513,94.926,38.452,94.944,38.361,94.958z"></path></g></svg>