<svg xmlns="http://www.w3.org/2000/svg" xmlns:xlink="http://www.w3.org/1999/xlink" version="1.1" x="0px" y="0px" viewBox="0 0 100 100" enable-background="new 0 0 100 100" xml:space="preserve"><path d="M95.259,51.835c-0.21-0.246-0.522-0.371-0.851-0.344c-6.315,0.574-13.45-4.244-20.814-9.673  c-8.267-6.097-16.865,0.915-18.149,2.041c-15.299,5.603-28.127-5.003-31.009-7.653c0.427-7.86-3.003-11.488-3.161-11.65  c-0.248-0.253-0.611-0.355-0.955-0.271c-0.344,0.085-0.617,0.346-0.718,0.686c-0.572,1.922-1.364,4.098-2.031,5.489  c-1.779-0.262-3.853,0.259-5.584,1.436c-1.814,1.233-2.955,2.989-3.129,4.816c-0.235,2.47-3.492,4.843-4.727,5.549  c-0.339,0.194-0.534,0.567-0.5,0.956s0.291,0.723,0.659,0.854c20.799,7.445,23.347,29.461,23.371,29.683  c0.054,0.509,0.483,0.896,0.995,0.896h3.12c0.272,0,0.532-0.111,0.721-0.307s0.289-0.46,0.278-0.732  c-0.049-1.278,0.488-5.63,3.498-8.759c2.25-2.338,5.417-3.524,9.414-3.524c11.422,0,11.886,12.086,11.9,12.601  c0.015,0.542,0.459,0.974,0.999,0.974c0.009,0,0.018,0,0.027,0l3.204-0.084c0.426-0.011,0.798-0.292,0.927-0.698  c2.929-9.254,0.032-19.252-1.542-23.551c1.971,1.012,4.268,2.604,6.211,5.067c4.893,6.204,9.743,7.234,9.853,7.251  c1.813,0.552,3.535,0.828,5.158,0.828c1.374,0,2.668-0.222,3.896-0.617c0.002,0,0.003,0.001,0.005,0.001  c0.188,0,0.365-0.072,0.528-0.175c0.581-0.218,1.15-0.467,1.696-0.776c5.277-2.992,6.861-9.158,6.926-9.419  C95.549,52.413,95.47,52.081,95.259,51.835z M8.867,43.844c4.34,0.156,12.36,1.219,16.731,6.655  c4.328,5.382,3.148,11.91,2.089,15.268C25.269,58.954,20.01,49.319,8.867,43.844z M77.754,60.95  c-0.043-0.009-4.374-0.974-8.774-6.553c-4.905-6.219-11.717-7.402-12.005-7.45c-0.551-0.087-1.06,0.279-1.149,0.824  s0.279,1.06,0.824,1.149c0.022,0.004,0.792,0.142,1.96,0.544c0.716,1.679,5.317,13.118,2.426,23.372l-1.54,0.041  c-0.236-1.987-1.111-6.521-4.257-9.798c-0.021-0.04-0.027-0.084-0.053-0.121c-0.104-0.149-2.647-3.685-10.064-5.867  c-0.528-0.155-1.085,0.147-1.242,0.677c-0.156,0.53,0.147,1.086,0.677,1.242c0.352,0.104,0.686,0.212,1.014,0.321  c-4.508,0.023-8.125,1.411-10.744,4.133c-2.935,3.05-3.84,7.025-4.022,9.184h-1.291c-0.137-0.816-0.401-2.151-0.862-3.82  c0.499-1.028,5.19-11.265-1.498-19.582c-5.256-6.537-14.76-7.404-19.134-7.435c1.324-1.25,2.639-2.955,2.825-4.912  c0.117-1.232,0.942-2.454,2.262-3.352c1.018-0.692,2.199-1.086,3.276-1.142c-0.053,0.279,0.001,0.576,0.194,0.813  c0.348,0.429,0.979,0.493,1.407,0.146c1.055-0.857,2.175-3.709,2.894-5.824c0.94,1.823,2.077,5.25,1.387,10.482  c-0.072,0.547,0.313,1.05,0.86,1.122c0.044,0.006,0.088,0.009,0.132,0.009c0.379,0,0.716-0.218,0.884-0.545  c4.464,3.761,17.183,12.664,32.177,7.058c0.125-0.047,0.241-0.119,0.338-0.211c0.328-0.311,8.089-7.506,15.607-2.126  c0.001,0.009-0.003,0.018-0.001,0.028c1.108,7.551,8.678,15.213,11.941,18.208C82.277,61.869,80.128,61.669,77.754,60.95z   M87.545,60.415c-0.341,0.192-0.691,0.362-1.051,0.512c-1.959-1.72-9.584-8.756-11.773-15.813  c6.508,4.684,12.507,8.337,18.369,8.426C92.378,55.351,90.72,58.621,87.545,60.415z"></path></svg>