<?xml version="1.0" encoding="utf-8"?>
<!-- Generator: Adobe Illustrator 21.0.2, SVG Export Plug-In . SVG Version: 6.00 Build 0)  -->
<svg version="1.1" id="Layer_1" xmlns="http://www.w3.org/2000/svg" xmlns:xlink="http://www.w3.org/1999/xlink" x="0px" y="0px"
	 viewBox="0 0 100 100" style="enable-background:new 0 0 100 100;" xml:space="preserve">
<style type="text/css">
	.st0{fill:none;stroke:#000000;stroke-width:2;stroke-linecap:round;stroke-linejoin:round;stroke-miterlimit:10;}
	.st1{fill:none;stroke:#000000;stroke-linecap:round;stroke-linejoin:round;stroke-miterlimit:10;}
</style>
<path class="st0" d="M54.9,46.2c0,0-0.4-2.7-5.5-2.7c-5.8,0.1-8.2,7.8-4.6,13.5c3.8,6.4,13.5,2.9,15.2,0"/>
<path class="st0" d="M65.2,52.4c0,0,4.1-3.9,4.1-12.6s-6.9-12.9-6.9-12.9"/>
<path class="st1" d="M74.1,44c0.3-1.5,0.6-3.3,0.6-5.3c0-8.7-6.9-12.9-6.9-12.9"/>
<path class="st1" d="M70.6,51.3c0,0,0.8-0.7,1.7-2.3"/>
<path class="st0" d="M49.4,49.9c0,0,0.4,2.7,5.5,2.7c5.8-0.1,8.2-7.8,4.6-13.5c-3.8-6.4-13.5-2.9-15.2,0"/>
<path class="st0" d="M39.2,43.7c0,0-4.1,3.9-4.1,12.6s6.9,12.9,6.9,12.9"/>
<path class="st1" d="M33,66c1.9,2.8,4.1,4.1,4.1,4.1"/>
<path class="st1" d="M34.4,44.7c0,0-4.1,3.9-4.1,12.6"/>
<path class="st1" d="M57,63.2c0,0,3.8-0.9,5.4-3.2"/>
<path class="st1" d="M46.9,67.1c0,0,2.4,1.9,4.7,2.1"/>
<path class="st1" d="M41.2,33.9c0,0,3-3,5.6-3.1"/>
</svg>
