<svg height='100px' width='100px'  fill="#000000" xmlns="http://www.w3.org/2000/svg" xmlns:xlink="http://www.w3.org/1999/xlink" version="1.1" x="0px" y="0px" viewBox="0 0 64 64" style="enable-background:new 0 0 64 64;" xml:space="preserve"><style type="text/css">
	.st0{display:none;}
	.st1{display:inline;}
	.st2{fill:none;stroke:#000000;stroke-width:0.1;stroke-miterlimit:10;}
</style><g class="st0"><g class="st1"><line class="st2" x1="32" y1="2" x2="32" y2="62"></line><line class="st2" x1="62" y1="32" x2="2" y2="32"></line><line class="st2" x1="2" y1="2" x2="62" y2="62"></line><rect x="10" y="10" class="st2" width="44" height="44"></rect><line class="st2" x1="62" y1="2" x2="2" y2="62"></line><line class="st2" x1="2" y1="32" x2="32" y2="2"></line><line class="st2" x1="32" y1="2" x2="62" y2="32"></line><line class="st2" x1="62" y1="32" x2="32" y2="62"></line><line class="st2" x1="32" y1="62" x2="2" y2="32"></line><circle class="st2" cx="32" cy="32" r="21"></circle></g></g><path d="M62,22V12H36v10h-2v10h2v10h-2v10h2v10h26V52h-2V42h2V32h-2V22H62z M40,60h-2v-6h2V60z M44,60h-2v-6h2V60z M56,60h-2v-6h2  V60z M60,60h-2v-6h2V60z M58,44v6h-2v-6H58z M54,44v6h-2v-6H54z M42,44v6h-2v-6H42z M36,44h2v6h-2V44z M56,34v6h-2v-6H56z M44,34v6  h-2v-6H44z M40,34v6h-2v-6H40z M60,40h-2v-6h2V40z M58,24v6h-2v-6H58z M54,24v6h-2v-6H54z M42,24v6h-2v-6H42z M36,24h2v6h-2V24z   M58,14h2v6h-2V14z M54,14h2v6h-2V14z M42,14h2v6h-2V14z M38,14h2v6h-2V14z"></path><path d="M4,42H2v10h2v10h26V52h-2V42h2V32H17H4V42z M8,60H6v-6h2V60z M12,60h-2v-6h2V60z M24,60h-2v-6h2V60z M28,60h-2v-6h2V60z   M26,44v6h-2v-6H26z M22,44v6h-2v-6H22z M10,44v6H8v-6H10z M4,44h2v6H4V44z M26,34h2v6h-2V34z M22,34h2v6h-2V34z M10,34h2v6h-2V34z   M6,34h2v6H6V34z"></path><path d="M18,24c1.1,0,2-0.9,2-2s-0.9-2-2-2V24z"></path><path d="M14,16c0,1.1,0.9,2,2,2v-4C14.9,14,14,14.9,14,16z"></path><path d="M30,19c0-7.2-5.8-13-13-13S4,11.8,4,19s5.8,13,13,13S30,26.2,30,19z M22,22c0,2.2-1.8,4-4,4v2h-2v-2c-2.2,0-4-1.8-4-4h2  c0,1.1,0.9,2,2,2v-4c-2.2,0-4-1.8-4-4s1.8-4,4-4v-2h2v2c2.2,0,4,1.8,4,4h-2c0-1.1-0.9-2-2-2v4C20.2,18,22,19.8,22,22z"></path></svg>