<?xml version="1.0" encoding="utf-8"?>
<!-- Generator: Adobe Illustrator 21.0.2, SVG Export Plug-In . SVG Version: 6.00 Build 0)  -->
<svg version="1.1" id="Layer_1" xmlns="http://www.w3.org/2000/svg" xmlns:xlink="http://www.w3.org/1999/xlink" x="0px" y="0px"
	 viewBox="0 0 272 92" style="enable-background:new 0 0 272 92;" xml:space="preserve">
<style type="text/css">
	.st0{fill:#EA4335;}
	.st1{fill:#FBBC05;}
	.st2{fill:#4285F4;}
	.st3{fill:#34A853;}
</style>
<path class="st0" d="M115.8,47.2c0,12.8-10,22.2-22.2,22.2S71.2,60,71.2,47.2c0-5.2,1.6-9.8,4.4-13.5c0.9-1.1,3.3-4.1,7.5-6.3
	c1.3-0.7,5.1-2.5,10.3-2.4c1.4,0,11.5,0.3,17.9,8.7C114.1,37.4,115.8,42,115.8,47.2z M106,47.2c0-8-5.8-13.4-12.5-13.4
	S81,39.2,81,47.2c0,7.9,5.8,13.4,12.5,13.4S106,55.1,106,47.2z"/>
<path class="st1" d="M163.8,47.2c0,12.8-10,22.2-22.2,22.2s-22.2-9.4-22.2-22.2c0-5.2,1.6-9.8,4.4-13.4c0.8-1.1,2.8-3.5,6.1-5.5
	c4.9-3,9.7-3.2,11.8-3.2c1.3,0,11.5,0.2,17.9,8.7C162.1,37.4,163.8,42,163.8,47.2z M154,47.2c0-8-5.8-13.4-12.5-13.4
	S129,39.2,129,47.2c0,7.9,5.8,13.4,12.5,13.4S154,55.1,154,47.2z"/>
<path class="st2" d="M209.8,26.3v39.8c0,16.4-9.7,23.1-21.1,23.1c-10.8,0-17.2-7.2-19.7-13.1l8.5-3.5c1.5,3.6,5.2,7.9,11.2,7.9
	c7.3,0,11.8-4.5,11.8-13v-3.2h-0.3c-2.2,2.7-6.4,5-11.7,5c-11.1,0-21.2-9.7-21.2-22.1c0-9,5.8-16.7,12.2-20c1.4-0.7,4.6-2.4,9-2.2
	c6.2,0.2,10.4,3.8,11.7,5h0.3v-3.6L209.8,26.3L209.8,26.3z M201.2,47.3c0-7.8-5.2-13.5-11.8-13.5c-6.7,0-12.4,5.7-12.4,13.5
	c0,7.7,5.6,13.4,12.4,13.4C196,60.6,201.2,55,201.2,47.3z"/>
<path class="st3" d="M225,3v65h-9.5c0-16.6,0-33.3,0-49.9c0-5,0-10,0-15.1C218.7,3,221.8,3,225,3z"/>
<path class="st0" d="M262,54.5l7.6,5c-2.4,3.6-8.3,9.8-18.5,9.8c-12.6,0-22-9.7-22-22.2C229.1,34,238.6,25,250,25
	c1,0,3.6,0.1,6.5,1.1c8.3,2.9,11.8,11.3,12.5,13c0.3,0.8,0.7,1.7,1,2.5l-29.6,12.3c2.3,4.5,5.8,6.7,10.8,6.7
	C256.1,60.6,259.5,58.2,262,54.5L262,54.5z M238.7,46.5l19.8-8.2c-1.1-2.8-4.4-4.7-8.2-4.7C245.4,33.6,238.5,37.9,238.7,46.5z"/>
<path class="st2" d="M35.3,41.4V32H67c0.3,1.6,0.5,3.6,0.5,5.7c0,7.1-1.9,15.8-8.2,22c-6,6.3-13.8,9.7-24,9.7
	c-19,0-34.9-15.5-34.9-34.4c0-17.2,14.3-27.7,15-28.2c8.5-5.9,17.3-6.2,19.9-6.2c6.5,0,11.4,1.8,12.8,2.4c4.3,1.7,7.8,4.2,10.8,7.1
	l-6.6,6.6c-4-3.8-9.5-6.7-17-6.7c-13.9,0-24.7,11.2-24.7,25s10.8,25,24.7,25c9,0,14.1-3.6,17.4-6.9c2.7-2.7,4.4-6.5,5.1-11.7
	L35.3,41.4z"/>
</svg>
