<?xml version="1.0" encoding="utf-8"?>
<!-- Generator: Adobe Illustrator 21.0.2, SVG Export Plug-In . SVG Version: 6.00 Build 0)  -->
<svg version="1.1" id="Layer_1" xmlns="http://www.w3.org/2000/svg" xmlns:xlink="http://www.w3.org/1999/xlink" x="0px" y="0px"
	 viewBox="0 0 100 125" style="enable-background:new 0 0 100 125;" xml:space="preserve">
<g>
	<path d="M19.1,48.5h61.8c0.4,0,0.7-0.3,0.7-0.7v-4.1c0-0.4-0.3-0.7-0.7-0.7h-5.3c-1.8-9.8-9.1-17.6-18.6-20.3v-1.3
		c0-0.4-0.3-0.7-0.7-0.7h-3.8v-1.5c0-0.4-0.3-0.7-0.7-0.7h-0.9v-7.4h7.9c0.6,0,1-0.5,1-1v-5c0-0.6-0.5-1-1-1h-7.9v-1
		c0-0.3-0.3-0.6-0.6-0.6h-0.6c-0.3,0-0.6,0.3-0.6,0.6v15.4h-1c-0.4,0-0.7,0.3-0.7,0.7v1.5h-3.8c-0.4,0-0.7,0.3-0.7,0.7v1.3
		C33.4,25.3,26.2,33.2,24.3,43H19c-0.4,0-0.7,0.3-0.7,0.7v4.1C18.4,48.1,18.7,48.5,19.1,48.5z"/>
	<path d="M88.8,92h-3.2v-4.8c0-0.4-0.3-0.7-0.7-0.7h-3.3V51c0-0.4-0.3-0.7-0.7-0.7H19.1c-0.4,0-0.7,0.3-0.7,0.7v35.5h-3.3
		c-0.4,0-0.7,0.3-0.7,0.7V92h-3.2c-0.4,0-0.7,0.3-0.7,0.7v4.1c0,0.4,0.3,0.7,0.7,0.7h77.7c0.4,0,0.7-0.3,0.7-0.7v-4.1
		C89.5,92.3,89.2,92,88.8,92z M47,55.8h6.1v30.8H47V55.8z M41.5,86.5h-6.1V55.7h6.1V86.5z M58.5,55.8h6.1v30.8h-6.1V55.8z
		 M70.1,55.8h6.1v30.8h-6.1V55.8z M23.9,55.8H30v30.8h-6.1V55.8z"/>
</g>
</svg>
