<?xml version="1.0" encoding="utf-8"?>
<!-- Generator: Adobe Illustrator 21.0.2, SVG Export Plug-In . SVG Version: 6.00 Build 0)  -->
<svg version="1.1" id="Layer_1" xmlns="http://www.w3.org/2000/svg" xmlns:xlink="http://www.w3.org/1999/xlink" x="0px" y="0px"
	 viewBox="0 0 146 125" style="enable-background:new 0 0 146 125;" xml:space="preserve">
<style type="text/css">
	.st0{fill:none;}
</style>
<g>
	<path class="st0" d="M51.3,70.2c-0.1-0.1-0.1-0.2-0.2-0.3c-1.4,0.8-2.7,1.6-4.1,2.4c0.1,0.1,0.1,0.2,0.2,0.4
		C48.6,71.8,50,71,51.3,70.2z"/>
	<path class="st0" d="M60.5,65.8c-0.1-0.1-0.1-0.2-0.2-0.3c-1.9,1.2-3.9,2.3-5.8,3.5c0.1,0.1,0.1,0.2,0.2,0.3
		C56.6,68.1,58.5,66.9,60.5,65.8z"/>
	<path class="st0" d="M47,72.2c1.4-0.8,2.7-1.6,4.1-2.4c-0.1-0.1-0.1-0.2-0.2-0.3c-1.3,0.8-2.7,1.6-4,2.4C46.9,72,47,72.1,47,72.2z"
		/>
	<path class="st0" d="M60,65.1c-1.9,1.2-3.9,2.3-5.8,3.5c0.1,0.1,0.1,0.2,0.2,0.3c1.9-1.2,3.9-2.3,5.8-3.5
		C60.2,65.3,60.1,65.2,60,65.1z"/>
	<path class="st0" d="M53.9,68.8c-0.7,0.4-1.5,0.9-2.2,1.3c0.1,0.1,0.1,0.2,0.2,0.3c0.7-0.4,1.5-0.9,2.2-1.3
		C54.1,69,54,68.9,53.9,68.8z"/>
	<path class="st0" d="M51.6,70.6c-0.1-0.1-0.1-0.2-0.2-0.3c-1.3,0.8-2.7,1.6-4,2.5c0.1,0.1,0.1,0.2,0.2,0.3
		C48.9,72.3,50.2,71.5,51.6,70.6z"/>
	<path class="st0" d="M51.7,70c0.7-0.4,1.5-0.9,2.2-1.3c-0.1-0.1-0.1-0.2-0.2-0.2c-0.7,0.4-1.5,0.9-2.2,1.3
		C51.6,69.8,51.6,69.9,51.7,70z"/>
	<path class="st0" d="M59.9,64.1c0.1,0.1,0.1,0.2,0.2,0.3c0.9-0.5,1.8-1,2.6-1.6c-0.1-0.1-0.1-0.2-0.2-0.3
		C61.7,63.1,60.8,63.6,59.9,64.1z"/>
	<path class="st0" d="M53.9,68.1c2-1.2,3.9-2.3,5.9-3.5c-0.1-0.1-0.1-0.2-0.2-0.3c-1.9,1.2-3.9,2.3-5.8,3.5
		C53.8,67.9,53.9,68,53.9,68.1z"/>
	<path class="st0" d="M51.4,69.6c0.7-0.4,1.5-0.9,2.2-1.3c-0.1-0.1-0.1-0.2-0.2-0.3c-0.7,0.4-1.5,0.9-2.2,1.3
		C51.3,69.4,51.4,69.5,51.4,69.6z"/>
	<path class="st0" d="M51.2,69.2c0.7-0.4,1.5-0.9,2.2-1.3c-0.1-0.1-0.1-0.2-0.2-0.3c-0.7,0.4-1.5,0.9-2.2,1.3
		C51.1,69,51.1,69.1,51.2,69.2z"/>
	<path class="st0" d="M46.8,71.8c1.4-0.8,2.7-1.6,4.1-2.4c-0.1-0.1-0.1-0.2-0.2-0.3c-1.3,0.8-2.7,1.6-4,2.4
		C46.7,71.6,46.7,71.7,46.8,71.8z"/>
	<path class="st0" d="M63.3,63.7c-0.9,0.5-1.8,1.1-2.7,1.6c0.1,0.1,0.1,0.2,0.2,0.3c0.9-0.5,1.8-1.1,2.7-1.6
		C63.4,63.9,63.4,63.8,63.3,63.7z"/>
	<path class="st0" d="M51.6,70.7c-1.4,0.8-2.7,1.6-4.1,2.5c0.1,0.1,0.1,0.2,0.2,0.3c1.4-0.8,2.7-1.7,4.1-2.5
		C51.8,70.9,51.7,70.8,51.6,70.7z"/>
	<path class="st0" d="M56.1,72.1C56.1,72.1,56.1,72.1,56.1,72.1c-0.6-0.9-1.1-1.7-1.6-2.6c-0.7,0.5-1.5,0.9-2.2,1.4
		c0.5,0.9,1,1.8,1.6,2.6C54.5,73,55.3,72.6,56.1,72.1z"/>
	<path class="st0" d="M62.8,63c-0.9,0.5-1.8,1-2.6,1.6c0,0.1,0.1,0.1,0.1,0.2c0.9-0.5,1.8-1.1,2.6-1.6C62.9,63.1,62.9,63,62.8,63z"
		/>
	<path class="st0" d="M63.3,63.1c0.1,0.1,0.1,0.2,0.2,0.3c4.7-2.8,9.4-5.6,14.1-8.4c8.2-4.9,16.4-9.8,24.6-14.6
		c-0.1-0.1-0.1-0.2-0.2-0.3C89.1,47.8,76.2,55.4,63.3,63.1z"/>
	<path class="st0" d="M101.7,39.6c-7.8,4.7-15.5,9.3-23.3,14c-5.1,3.1-10.2,6.1-15.3,9.2c0,0,0,0,0,0c0,0.1,0.1,0.1,0.1,0.2
		c5.1-3,10.2-6.1,15.3-9.1c7.8-4.6,15.6-9.3,23.3-13.9C101.8,39.9,101.8,39.7,101.7,39.6z"/>
	<path class="st0" d="M76.9,53.9c-4.7,2.8-9.4,5.7-14.1,8.5c0.1,0.1,0.1,0.2,0.2,0.3c12.9-7.7,25.7-15.5,38.6-23.2
		c-0.1-0.1-0.1-0.2-0.2-0.3C93.3,44.1,85.1,49,76.9,53.9z"/>
	<path class="st0" d="M53.7,67.7c2-1.2,3.9-2.3,5.9-3.5c-0.1-0.1-0.1-0.2-0.2-0.3c-2,1.2-3.9,2.3-5.9,3.5
		C53.6,67.5,53.6,67.6,53.7,67.7z"/>
	<path class="st0" d="M54.2,69.2c-0.7,0.4-1.5,0.9-2.2,1.3c0.1,0.1,0.1,0.2,0.2,0.3c0.7-0.5,1.5-0.9,2.2-1.4
		C54.3,69.4,54.3,69.3,54.2,69.2z"/>
	<path class="st0" d="M108.1,28.6C108.1,28.6,108.1,28.6,108.1,28.6c-0.3,0.1-0.7,0.3-1,0.4c-0.2,0.1-0.6,0.3-0.6,0.6
		c-0.1,0.6,0.4,0.4,0.7,0.4c0,0,0.1,0,0.1,0c0.1-0.2,0.3-0.3,0.5-0.4C108.1,29.4,108.7,28.9,108.1,28.6z"/>
	<path class="st0" d="M110.2,40.9c0.1-0.1,0.3-0.1,0.4-0.2c0,0-0.1,0-0.1,0c-0.2-0.3-0.4-0.6-0.5-0.9c-0.2,0.1-0.4,0.2-0.6,0.3
		C109.7,40.3,109.9,40.6,110.2,40.9C110.2,40.9,110.2,40.9,110.2,40.9z"/>
	<path class="st0" d="M106.9,42.6c0.2-0.1,0.3-0.2,0.5-0.3c0,0,0,0,0,0c-0.1-0.3-0.3-0.5-0.5-0.8c-0.2,0.1-0.4,0.2-0.5,0.3
		c0,0,0,0,0,0C106.6,42.1,106.7,42.3,106.9,42.6z"/>
	<path class="st0" d="M105.3,30.6C105.2,30.6,105.2,30.6,105.3,30.6c-0.3,0.2-0.5,0.3-0.8,0.4c-0.1,0.1-0.2,0.1-0.4,0.2
		c-0.1,0.1-0.2,0.2-0.3,0.3c-0.1,0.3,0,0.4,0.3,0.4c0.1,0,0.1,0,0.1,0.1c0.3-0.2,0.7-0.4,1-0.6c0.1-0.1,0.2-0.1,0.3-0.2
		c0.1-0.1,0.1,0,0.1-0.2C105.7,30.8,105.4,30.7,105.3,30.6z"/>
	<path class="st0" d="M108.1,29.8C108.1,29.8,108.1,29.8,108.1,29.8c-0.1,0.1-0.3,0.2-0.4,0.2c0.3,0.2,0.5,0.6,0.6,0.9
		c0.1-0.1,0.2-0.1,0.3-0.2C108.4,30.4,108.2,30.1,108.1,29.8z"/>
	<path class="st0" d="M113.6,39c0.2-0.1,0.3-0.2,0.5-0.2c-0.3-0.3-0.6-0.7-0.7-1.1c-0.1,0.1-0.3,0.2-0.4,0.2
		C113.2,38.3,113.5,38.7,113.6,39z"/>
	<path class="st0" d="M107,42.9c-0.1,0.1-0.2,0.2-0.2,0.3c-0.1,0.2,0,0.4,0.4,0.4c0,0,0.1,0,0.1,0c0.3-0.1,0.5-0.2,0.7-0.3
		c0.1-0.1,0.2-0.2,0.3-0.3c0.1-0.1,0.1-0.2,0.2-0.3c0.1-0.2,0-0.4-0.3-0.5c0,0-0.1,0-0.1,0c-0.2,0.1-0.5,0.3-0.7,0.4
		C107.2,42.7,107.1,42.8,107,42.9z"/>
	<path class="st0" d="M114.2,39c-0.1,0.1-0.3,0.1-0.4,0.2c0,0-0.1,0.1-0.1,0.1c-0.2,0.2-0.2,0.4,0,0.6c0,0,0,0,0.1,0
		c0.4,0.1,0.8-0.1,1.1-0.4c0.1-0.1,0.3-0.2,0.4-0.4c0.1-0.2,0-0.8-0.3-0.6C114.6,38.8,114.4,38.9,114.2,39z"/>
	<path class="st0" d="M101.9,33.8c0.2,0.3,0.4,0.6,0.6,0.9c0.1-0.1,0.3-0.1,0.4-0.2c-0.2-0.3-0.4-0.6-0.5-0.9
		C102.2,33.6,102.1,33.7,101.9,33.8z"/>
	<path class="st0" d="M102.4,33.3L102.4,33.3c0.2-0.1,0.3-0.3,0.3-0.4c0,0,0,0,0,0c0-0.2-0.4-0.4-0.6-0.3c-0.1,0-0.2,0-0.2,0.1
		c-0.2,0.1-0.4,0.1-0.6,0.3c-0.2,0.1-0.4,0.4-0.4,0.7c0,0.2,0.1,0.3,0.3,0.4c0.1,0,0.3-0.1,0.5-0.2c0-0.1,0.1-0.1,0.1-0.1
		c0.2-0.1,0.3-0.2,0.5-0.3c0,0,0,0,0,0C102.2,33.3,102.3,33.2,102.4,33.3z"/>
	<path class="st0" d="M102.2,40.5c-12.9,7.7-25.8,15.3-38.6,23c0.1,0.1,0.1,0.2,0.2,0.3c4.1-2.4,8.1-4.8,12.2-7.3
		c8.8-5.2,17.6-10.5,26.4-15.7C102.4,40.7,102.3,40.6,102.2,40.5z"/>
	<path class="st0" d="M101.4,39c-0.1-0.1-0.1-0.2-0.2-0.3c-8.8,5.3-17.6,10.6-26.4,15.9c-4.1,2.5-8.2,4.9-12.2,7.4
		c0.1,0.1,0.1,0.2,0.2,0.3C75.7,54.6,88.5,46.8,101.4,39z"/>
	<path class="st0" d="M61.3,67.2c-0.3-0.4-0.5-0.9-0.8-1.3c-1.9,1.2-3.9,2.3-5.8,3.5c0.2,0.4,0.5,0.8,0.7,1.2
		C57.3,69.3,59.3,68.3,61.3,67.2C61.3,67.2,61.3,67.2,61.3,67.2z"/>
	<path class="st0" d="M65.2,66.6c-0.5-0.9-1.1-1.7-1.6-2.6c-0.9,0.5-1.8,1.1-2.7,1.6c0.5,0.9,1.1,1.8,1.6,2.7
		C63.3,67.8,64.3,67.2,65.2,66.6C65.2,66.7,65.2,66.7,65.2,66.6z"/>
	<path class="st0" d="M63.2,63.6c-0.1-0.1-0.1-0.2-0.2-0.3c-0.9,0.5-1.8,1.1-2.6,1.6c0.1,0.1,0.1,0.2,0.2,0.3
		C61.5,64.7,62.4,64.1,63.2,63.6z"/>
	<path class="st0" d="M46.9,73.6c-0.2,0.1-0.3,0-0.1-0.1c0.1-0.1,0.2-0.1,0.3-0.2c-0.1-0.1-0.1-0.2-0.2-0.3
		c-0.1,0.1-0.2,0.1-0.3,0.2c-0.2,0.1-0.3,0-0.1-0.1c0.1-0.1,0.2-0.1,0.3-0.2c-0.1-0.1-0.1-0.2-0.2-0.4c-0.1,0.1-0.2,0.1-0.3,0.2
		c-0.2,0.1-0.3,0-0.1-0.1c0.1-0.1,0.2-0.1,0.3-0.2c-0.1-0.1-0.1-0.2-0.2-0.3c-0.1,0.1-0.2,0.1-0.3,0.2c-0.2,0.1-0.3,0-0.1-0.1
		c0.1-0.1,0.2-0.1,0.4-0.2c-0.1-0.1-0.1-0.2-0.2-0.3c-0.1,0.1-0.3,0.1-0.4,0.2c-0.2,0.1-0.3,0-0.1-0.1c0.1-0.1,0.3-0.2,0.4-0.2
		c-0.6-1.1-1.1-2.1-1.5-3.2c-0.5,0.2-1.1,0.5-1.6,0.7c1.8,2.7,3.5,5.6,5.1,8.4c0.4-0.3,0.8-0.5,1.2-0.7c-0.6-1-1.3-1.9-1.9-3
		c-0.1,0.1-0.2,0.1-0.3,0.2c-0.2,0.1-0.3,0-0.1-0.1c0.1-0.1,0.2-0.1,0.3-0.2c-0.1-0.1-0.1-0.2-0.2-0.3C47.1,73.5,47,73.5,46.9,73.6z
		"/>
	<path class="st0" d="M59.6,63.6c0.9-0.5,1.7-1,2.6-1.6c-0.6-0.9-1.1-1.8-1.5-2.7c-0.3,0.3-0.8,0.5-1.2,0.8c-0.5,0.3-1,0.6-1.4,0.9
		c0,0-0.1,0-0.1,0C58.6,61.9,59.1,62.8,59.6,63.6z"/>
	<path class="st0" d="M59.9,64c0.9-0.5,1.8-1,2.6-1.6c-0.1-0.1-0.1-0.2-0.2-0.3c-0.9,0.5-1.7,1-2.6,1.6C59.8,63.8,59.8,63.9,59.9,64
		z"/>
	<path class="st0" d="M59.9,64.8c-1.9,1.2-3.9,2.3-5.8,3.5c0,0.1,0.1,0.2,0.1,0.2c1.9-1.2,3.9-2.3,5.8-3.5
		C59.9,64.9,59.9,64.8,59.9,64.8z"/>
	<path class="st0" d="M60.3,76.7c0-2.7,0.9-4.4,3.8-4.7c3.9-0.5,8,0.8,10.5-3.2c0,0,0,0,0,0c0,0-2.6,0.2-3,0.1
		c-0.9-0.2-1.6-0.8-2.1-1.5c-1.4-1.8-0.9-4,0-5.9c-0.9,0.6-1.8,1.1-2.6,1.8c0.9,1.9-0.1,3.7-1.4,5c-1.1,1.1-2.3,2.1-3.3,3.3
		c-1.2,1.4-2,2.9-2.9,4.5c-0.9,1.5-2.2,2.6-3.9,1.4c-1.3-0.9-2.4-2.7-2.2-4.4c0,0,0-0.1,0.1-0.1c-0.4-0.6-0.8-1.3-1.3-1.9
		c-1.4,0.8-2.7,1.7-4.1,2.5c0.6,1,1.2,2,1.8,3.1c0,0,0,0.1,0,0.1c0,0.1,0,0.1,0,0.2c-0.4,0.3-0.9,0.6-1.4,0.8c-0.1,0-0.1,0-0.1-0.1
		c0,0,0,0,0,0c-1.8-2.8-3.6-5.7-5.1-8.7c0-0.1,0.1-0.1,0.1-0.1c0,0,0,0,0,0.1c0,0,0,0,0,0c0.4-0.4,1.1-0.7,1.7-0.8c0,0,0,0,0.1,0
		c0,0,0,0,0,0c0.1,0,0.1,0.1,0.1,0.1c0.6,1,1.2,2.1,1.8,3.1c1.4-0.8,2.7-1.6,4-2.4c-0.5-0.9-1-1.9-1.5-2.8c0-0.1,0-0.1,0-0.1
		c0,0,0-0.1,0-0.1c0.7-0.5,1.4-1,2.2-1.3c0.1-0.1,0.2,0.1,0.1,0.2c-0.7,0.5-1.5,0.9-2.2,1.3c0.6,0.9,1.1,1.8,1.7,2.7
		c0.7-0.4,1.5-0.9,2.2-1.3c-0.6-0.9-1.1-1.8-1.6-2.7c0-0.1,0.1-0.2,0.1-0.1c0.6,0.9,1.2,1.8,1.8,2.7c2-1.2,3.9-2.3,5.9-3.5
		c-0.5-0.9-1-1.9-1.5-2.8c0-0.1,0.1-0.2,0.1-0.1c0,0,0-0.1,0-0.1c0.5-0.3,0.9-0.6,1.4-0.9c0.4-0.2,0.8-0.5,1.3-0.7
		c0-0.1,0.1-0.1,0.1,0c0.1,0.1,0.2,0.3,0.3,0.4c0,0,0,0,0,0c0.3,0.2,0.5,0.7,0.7,1.1c0,0,0,0,0,0c2.4-1.5,4.8-3,7.2-4.4
		c-1-2.1-2.5-4-4.7-4.9c-2.4-1-5.2-0.4-6.8,1.7c-1.7,2.3-2.1,6.8-5.7,7c-1.2,0-2.4-0.5-3.5-1c-2.1-1-4.1-1.7-6.4-1.1
		c-4.1,1-8.2,4.5-9.1,8.6c-0.9,3.9,0.3,7.9,2.3,11.3c1.9,3.2,4.4,6.7,7.7,8.5C49.2,90.1,60.3,84.4,60.3,76.7z M43.9,72.4
		C43.9,72.4,44,72.3,43.9,72.4c0.4,0.5,0.7,1.1,0.9,1.7c0,0.1-0.1,0.2-0.2,0.1C44.4,73.6,44.1,73,43.9,72.4z M44.4,74.5
		c-0.4-0.4-0.6-1-0.7-1.5c0-0.1,0.1-0.1,0.1,0c0.1,0.5,0.4,1,0.7,1.4C44.6,74.5,44.5,74.6,44.4,74.5z M44.9,83.3
		c-0.7-0.3-0.8-1.5-0.2-1.9c0.3-0.4,1-0.6,1.4-0.3c0,0,0,0,0,0c0.3,0.2,0.5,0.6,0.4,1c0,0,0,0,0,0C46.5,83,45.6,83.7,44.9,83.3z
		 M49.9,81.2c-1-0.1-1.4-1.2-0.9-2c0.1-0.2,0.2-0.4,0.4-0.5c0.5-0.3,1.1-0.2,1.4,0.3c0,0,0,0,0,0c0.1,0.1,0.1,0.2,0.1,0.3
		c0,0,0,0,0,0C51.6,80.2,50.9,81.3,49.9,81.2z M53.4,80c0.4-0.2,0.9-0.1,1.2,0.3c0.7,0.6,0.5,1.8-0.5,1.9c-0.9,0.2-1.6-0.8-1.1-1.5
		C53.1,80.4,53.2,80.2,53.4,80z M49.3,85.1c-0.7-0.1-1-1-0.7-1.6c0-0.1,0-0.3,0.1-0.4c0.2-0.3,0.8-0.6,1.1-0.3c0,0,0,0,0,0
		c0.4,0,0.6,0.4,0.6,0.8c0,0,0,0,0,0C50.8,84.4,50.1,85.3,49.3,85.1z"/>
	<path class="st0" d="M50.4,80.2c0.4-0.2,0.5-0.7,0.4-1.1c0,0,0,0,0,0c-0.6-0.7-1.9-0.1-1.3,0.8C49.6,80.2,50,80.4,50.4,80.2z"/>
	<path class="st0" d="M51,79.8c-0.1,0.3-0.2,0.5-0.5,0.6c-0.5,0.3-1.1,0.1-1.4-0.4c-0.1-0.1-0.1-0.3-0.2-0.5
		c-0.1,0.6,0.2,1.2,0.8,1.3C50.6,81.1,51.1,80.5,51,79.8z"/>
	<path class="st0" d="M45.1,82.6c0.4,0.3,1,0,1.1-0.4c0.1-0.4-0.2-0.8-0.5-1c0,0,0,0,0-0.1c-0.3,0-0.6,0-0.8,0.3
		C44.6,81.9,44.8,82.4,45.1,82.6z"/>
	<path class="st0" d="M45.1,82.9c-0.4-0.2-0.6-0.7-0.5-1.2c-0.3,0.5-0.2,1.2,0.4,1.4c0.4,0.2,1,0,1.2-0.4C45.8,83,45.4,83,45.1,82.9
		z"/>
	<path class="st0" d="M49.2,84.4c-0.3-0.1-0.5-0.4-0.5-0.7c-0.1,0.5,0.2,1.1,0.7,1.2c0.5,0.1,1-0.3,1.1-0.8
		C50.1,84.5,49.6,84.6,49.2,84.4z"/>
	<path class="st0" d="M54.3,81.6c-0.4,0.3-0.9,0.1-1.1-0.3c0,0,0-0.1,0-0.1c0,0.5,0.4,0.9,1,0.9c0.8-0.1,1-0.9,0.6-1.5
		C54.8,80.9,54.6,81.4,54.3,81.6z"/>
	<path class="st0" d="M49.2,84.1c0.3,0.2,0.7,0.2,1-0.1c0.3-0.3,0.1-0.9-0.4-0.9c-0.1,0-0.1-0.1-0.1-0.2c-0.2,0-0.5,0-0.7,0.2
		C48.8,83.5,48.9,83.9,49.2,84.1z"/>
	<path class="st0" d="M53.4,81.1c0.4,0.6,1.2,0.1,1.1-0.5c0,0-0.1,0-0.1-0.1c-0.2-0.3-0.7-0.4-0.9-0.2
		C53.3,80.5,53.3,80.9,53.4,81.1z"/>
	<path class="st0" d="M101,37.9c0.2,0.2,0.3,0.4,0.4,0.6c0.8-0.5,1.6-1,2.4-1.4c0.1-0.1,0.2,0,0,0.1c-0.8,0.5-1.6,1-2.4,1.5
		c0.1,0.1,0.1,0.2,0.2,0.3c2-1.2,4.1-2.4,6.1-3.7c0.1-0.1,0.2,0,0,0.1c-2,1.2-4.1,2.5-6.1,3.7c0.1,0.1,0.1,0.2,0.2,0.3
		c2.8-1.7,5.7-3.4,8.5-5.1c0.1-0.1,0.2,0,0,0.1c-2.8,1.7-5.7,3.4-8.5,5.1c0.1,0.1,0.1,0.3,0.2,0.4c2.9-1.7,5.7-3.4,8.6-5.1
		c0.1-0.1,0.2,0,0,0.1c-2.8,1.7-5.7,3.4-8.5,5.1c0.1,0.1,0.1,0.2,0.2,0.3c2-1.2,4.1-2.4,6.1-3.6c0.1-0.1,0.2,0,0,0.1
		c-2,1.2-4.1,2.5-6.1,3.7c0.1,0.1,0.1,0.2,0.2,0.3c0.8-0.5,1.6-1,2.4-1.4c0.1-0.1,0.2,0,0,0.1c-0.8,0.5-1.6,1-2.4,1.5
		c0.1,0.2,0.2,0.3,0.3,0.5c0,0,0,0,0,0c0,0,0,0,0,0c0.1-0.1,0.2,0.1,0.1,0.1c0.8-0.1,1.7,0.1,2.4,0.6c0,0,0,0,0,0
		c2.8-1.8,5.7-3.4,8.6-5c-0.5-1.3-1-2.6-1.7-3.8c-0.5-0.8-1.4-2.9-2.4-3c0,0,0,0,0,0c-1.6,0.8-2.8,1.9-4.3,2.9c0,0-0.1,0.1-0.1,0.1
		c0,0-0.1,0.1-0.1,0.1c-1.3,0.8-2.6,1.5-3.9,2.3c0,0,0,0,0,0c0,0.1,0.1,0.2,0.1,0.2c0,0.1,0,0.1-0.1,0.1
		C101.5,36.7,101.3,37.3,101,37.9C101,37.9,101,37.9,101,37.9z M112.8,36.8c0-0.5,0-0.9-0.3-1.3c-0.1-0.1,0.1-0.2,0.1-0.1
		c0.3,0.4,0.4,0.9,0.3,1.4C113,36.9,112.8,36.9,112.8,36.8z M113,34.9c0.3,0.4,0.5,1,0.5,1.5c0,0.1-0.2,0.1-0.2,0
		c0-0.5-0.1-1-0.4-1.4C112.8,34.9,112.9,34.8,113,34.9z"/>
	<path class="st0" d="M54.7,76.6c1.4,1.4,2.8,1.3,4-0.4c0.9-1.3,1.5-2.7,2.4-4c1.9-2.5,6.8-5.2,5.5-8.8c-0.7,0.5-1.4,1.1-2,1.6
		c0.3,0.5,0.6,1,0.9,1.5c0,0.1,0,0.1,0,0.2c0.1,0,0.1,0.1,0,0.1c-0.9,0.7-2,1.2-2.9,1.8c0,0,0,0-0.1,0c-0.1,0-0.1,0-0.2,0
		c-0.3-0.4-0.5-0.8-0.8-1.2c0,0,0,0,0,0c-2,1.1-3.9,2.3-5.9,3.3c0.2,0.4,0.5,0.8,0.7,1.2c0,0,0,0.1,0,0.1c0.1,0,0.1,0.2,0,0.2
		c-0.8,0.5-1.6,1-2.5,1.4c-0.1,0-0.1,0-0.1,0c0,0-0.1,0-0.1,0c-0.1-0.1-0.2-0.2-0.2-0.3C53.3,74.6,53.9,75.7,54.7,76.6z"/>
	<path class="st0" d="M61.9,61c0,0.1,0.1,0.2,0.1,0.2c0.2,0.2,0.3,0.5,0.5,0.7c12.9-7.7,25.7-15.6,38.6-23.3
		c-0.1-0.2-0.2-0.4-0.3-0.7C87.9,45.7,74.8,53.1,61.9,61C62,61,61.9,61,61.9,61z"/>
	<path class="st0" d="M105.8,32.7c-0.2-0.3-0.4-0.7-0.5-1c-0.2,0.1-0.4,0.2-0.6,0.3c0,0,0.1,0,0.1,0c0.2,0.4,0.4,0.7,0.7,1
		c0,0,0.1,0,0.1-0.1C105.6,32.8,105.7,32.7,105.8,32.7z"/>
	<path class="st0" d="M73,59c3.3-2,6.7-4,10-6c6.6-3.9,13.1-8,19.8-11.7c-0.1-0.1-0.2-0.3-0.3-0.5c-12.8,7.7-25.8,15.3-38.6,23
		c0.2,0.3,0.4,0.6,0.6,0.9C67,62.5,70,60.8,73,59z"/>
	<path d="M57.4,83.5c1.2-1.2,2.4-2.6,2.9-4.2c0.3-0.8,0.3-1.7,0.3-2.5c0-2.1,0.8-3.8,3-4.3c2.2-0.5,4.5,0.2,6.7-0.3
		c2-0.4,3.6-1.4,4.6-3.2c0.1-0.1,0-0.2-0.1-0.2c-0.2-0.9-1.7,0-2.2,0c-2,0-3.6-1.8-3.7-3.8c-0.1-1.3,0.5-2.5,0.8-3.6
		c1.6-1,3.2-1.9,4.7-2.8c3.1-1.9,6.2-3.7,9.3-5.6c6.4-3.8,12.9-7.5,19.2-11.5c0,0,0,0.1,0.1,0.1c0.8,0,1.6,0.2,2.3,0.7
		c0.1,0.1,0.2,0,0.2,0c0,0,0,0,0,0c0.3-0.1,0.5-0.3,0.7-0.4c0,0.4,0.2,0.7,0.4,1c-0.1,0.1-0.3,0.3-0.3,0.5c-0.1,0.4,0.4,0.8,0.7,0.6
		c0,0,0,0,0,0c0.6-0.2,1.3-0.4,1.5-1c0.1-0.2,0.1-0.5-0.1-0.7c-0.1-0.1-0.2-0.1-0.4-0.1c0,0,0-0.1-0.1-0.1c-0.1,0.1-0.3,0.1-0.5,0.2
		c0,0,0,0,0-0.1c-0.2-0.3-0.3-0.5-0.5-0.8c0.7-0.4,1.4-0.8,2.1-1.2c0.2,0.3,0.4,0.6,0.6,0.9c-0.2,0.1-0.3,0.2-0.4,0.4
		c-0.2,0.4,0.2,0.7,0.6,0.8c0.1,0,0.2-0.2,0.1-0.2c-0.2-0.1-0.6-0.3-0.3-0.7c0,0,0.1-0.1,0.2-0.1c0,0,0.1,0,0.1-0.1
		c0.1,0,0.1-0.1,0.2-0.1c0.3-0.2,0.6-0.4,0.9-0.6c0,0,0,0,0,0c0.9,0.3-0.8,1.4-1,1.6c-0.1,0.1,0,0.2,0.1,0.2
		c0.5-0.2,1.1-0.7,1.3-1.2c0.1-0.3,0-0.7-0.3-0.7c0,0,0-0.1-0.1-0.1c-0.2,0.1-0.3,0.2-0.5,0.3c0,0,0-0.1,0-0.1
		c-0.2-0.3-0.4-0.6-0.5-0.9c0.9-0.5,1.7-1,2.6-1.5c0.2,0.4,0.4,0.8,0.6,1.1c-0.1,0.1-0.1,0.1-0.2,0.2c-0.1,0.3,0,0.7,0.3,0.7
		c0,0,0,0,0,0c0.6,0.2,1.5-0.4,1.7-1c0.2-0.4-0.2-0.9-0.6-0.7c0,0-0.1,0-0.1,0c-0.1,0.1-0.2,0.2-0.4,0.3c-0.2-0.4-0.5-0.7-0.7-1.1
		c0.2-0.1,0.5-0.3,0.7-0.4c0.1,0,0.1-0.1,0.1-0.1c0,0,0.1-0.1,0-0.1c-0.5-1.9-1.4-3.6-2.5-5.2c-0.4-0.5-1.1-2-1.8-1.8
		c0-0.1-0.1-0.1-0.2-0.1c-0.4,0.2-0.7,0.4-1,0.6c-0.2-0.3-0.4-0.6-0.6-0.9c0,0,0,0,0,0c0.1-0.1,0.3-0.2,0.3-0.4
		c0.1-0.3,0-0.7-0.4-0.8c0,0,0,0,0,0c0,0,0-0.1,0-0.1c-0.6,0.2-1.7,0.4-1.9,1.1c-0.1,0.6,0.4,0.8,0.8,0.7c0,0.1,0.1,0.2,0.1,0.1
		c0.1-0.1,0.2-0.2,0.3-0.2c0.1,0.2,0.2,0.3,0.3,0.5c0.1,0.1,0.2,0.3,0.2,0.4c-0.7,0.5-1.4,1-2,1.5c-0.2-0.3-0.4-0.6-0.6-0.9
		c0.1-0.1,0.3-0.2,0.4-0.2c0,0,0.1-0.1,0.1-0.1c0-0.3-0.2-0.7-0.5-0.8c0,0,0,0,0,0c0,0,0-0.1,0,0c0,0-0.1,0-0.1,0c0,0,0,0,0,0
		c-0.4,0.1-0.7,0.3-1.1,0.5c-0.2,0.1-0.5,0.3-0.6,0.6c-0.1,0.3,0.3,0.7,0.6,0.6c0,0,0,0.1,0.1,0.1c0.1,0,0.3-0.1,0.4-0.1
		c0,0,0,0,0,0.1c0.1,0.4,0.3,0.7,0.6,1.1c-0.7,0.4-1.4,0.8-2.1,1.2c-0.2-0.3-0.4-0.6-0.6-0.9c0.4-0.3,0.6-0.6,0.2-0.9
		c-0.1-0.2-0.3-0.3-0.5-0.3c-0.4,0-1,0.2-1.3,0.5c-0.3,0.2-0.4,0.5-0.4,0.8c0.1,0.3,0.3,0.6,0.6,0.6c0.1,0,0.1,0,0.1-0.1
		c0.1,0,0.2-0.1,0.4-0.1c0.2,0.3,0.3,0.6,0.5,0.9c-0.3,0.2-0.7,0.4-1,0.7c0,0,0,0,0,0.1c0,0-0.1,0.1-0.1,0.1c0,0.7-0.2,1.4-0.4,2.1
		c-10.7,5.8-21.1,12.1-31.5,18.4c-1.3-2.9-3.8-5.4-7.1-5.5c-4-0.1-5.2,2.8-6.7,5.9c-0.7,1.6-2,3.3-4,3.3c-1.3,0-2.4-0.7-3.5-1.2
		c-1.6-0.7-3.3-1.3-5.1-1.1c-3.5,0.4-7.4,3.1-9.3,6.1c-4.1,6.8,0.7,15.1,5.4,20.1c2.4,2.6,5.5,4.4,9.1,4.1
		C51.6,87.7,54.9,85.8,57.4,83.5z M108.2,42.2c0.3,0.1,0.4,0.2,0.3,0.5c0,0.1-0.1,0.2-0.2,0.3c-0.1,0.1-0.2,0.2-0.3,0.3
		c-0.2,0.1-0.5,0.2-0.7,0.3c0,0-0.1,0-0.1,0c-0.4,0-0.5-0.1-0.4-0.4c0-0.1,0.1-0.2,0.2-0.3c0.1-0.1,0.3-0.2,0.4-0.3
		c0.2-0.1,0.5-0.3,0.7-0.4C108.1,42.2,108.1,42.3,108.2,42.2z M115.1,39.2c-0.1,0.2-0.2,0.3-0.4,0.4c-0.3,0.3-0.7,0.5-1.1,0.4
		c0,0,0,0-0.1,0c-0.2-0.2-0.1-0.4,0-0.6c0,0,0.1,0,0.1-0.1c0.1-0.1,0.3-0.2,0.4-0.2c0.3-0.1,0.5-0.3,0.6-0.5
		C115.1,38.4,115.2,38.9,115.1,39.2z M113.4,37.7c0.2,0.4,0.4,0.8,0.7,1.1c-0.2,0.1-0.3,0.1-0.5,0.2c-0.2-0.4-0.4-0.7-0.7-1
		C113.1,37.9,113.3,37.8,113.4,37.7z M110,39.7c0.1,0.3,0.3,0.7,0.5,0.9c0,0,0,0,0.1,0c-0.1,0.1-0.3,0.1-0.4,0.2c0,0,0,0,0,0
		c-0.2-0.3-0.5-0.6-0.7-0.9C109.6,39.9,109.8,39.8,110,39.7z M107,41.4c0.1,0.3,0.3,0.5,0.5,0.8c0,0,0,0,0,0
		c-0.2,0.1-0.4,0.2-0.5,0.3c-0.2-0.3-0.4-0.5-0.5-0.9c0,0,0,0,0,0C106.6,41.6,106.8,41.5,107,41.4z M107.2,30
		c-0.3,0-0.7,0.2-0.7-0.4c0-0.3,0.4-0.4,0.6-0.6c0.3-0.2,0.6-0.3,1-0.5c0,0,0,0.1,0,0.1c0.6,0.3,0,0.8-0.4,1
		C107.6,29.7,107.4,29.9,107.2,30C107.3,30,107.2,30,107.2,30z M107.7,30c0.1-0.1,0.3-0.2,0.4-0.2c0,0,0,0,0,0
		c0.2,0.3,0.3,0.6,0.5,0.9c-0.1,0.1-0.2,0.1-0.3,0.2C108.2,30.6,107.9,30.2,107.7,30z M105.6,31.2c-0.1,0.1-0.2,0.1-0.3,0.2
		c-0.3,0.2-0.7,0.3-1,0.6c0-0.1-0.1-0.1-0.1-0.1c-0.3,0-0.4-0.1-0.3-0.4c0.1-0.1,0.2-0.2,0.3-0.3c0.1-0.1,0.2-0.1,0.4-0.2
		c0.3-0.1,0.6-0.3,0.8-0.4c0,0,0,0,0,0c0.2,0.1,0.4,0.3,0.4,0.5C105.7,31.2,105.7,31.2,105.6,31.2z M101.8,33.6
		c-0.1,0-0.1,0-0.1,0.1c-0.2,0.1-0.4,0.1-0.5,0.2c-0.2,0-0.3-0.2-0.3-0.4c0-0.3,0.1-0.5,0.4-0.7c0.2-0.1,0.4-0.2,0.6-0.3
		c0.1,0,0.1-0.1,0.2-0.1c0.2,0,0.5,0.1,0.6,0.3c0,0,0,0,0,0c0,0.1-0.1,0.3-0.3,0.4l0,0c-0.1-0.1-0.2,0-0.1,0.1c0,0,0,0,0,0
		C102.1,33.4,102,33.5,101.8,33.6z M102.5,34.7c-0.2-0.3-0.4-0.6-0.6-0.9c0.2-0.1,0.3-0.1,0.5-0.2c0.1,0.3,0.3,0.6,0.5,0.9
		C102.8,34.5,102.6,34.6,102.5,34.7z M47.1,73.9c-0.2,0.1-0.1,0.2,0.1,0.1c0.1-0.1,0.2-0.1,0.3-0.2c0.6,1,1.2,2,1.9,3
		c-0.4,0.2-0.8,0.5-1.2,0.7c-1.6-2.8-3.3-5.7-5.1-8.4c0.5-0.2,1.1-0.5,1.6-0.7c0.5,1.1,1,2.2,1.5,3.2c-0.1,0.1-0.3,0.2-0.4,0.2
		c-0.2,0.1-0.2,0.2,0.1,0.1c0.1-0.1,0.3-0.1,0.4-0.2c0.1,0.1,0.1,0.2,0.2,0.3c-0.1,0.1-0.2,0.1-0.4,0.2c-0.2,0.1-0.2,0.2,0.1,0.1
		c0.1-0.1,0.2-0.1,0.3-0.2c0.1,0.1,0.1,0.2,0.2,0.3c-0.1,0.1-0.2,0.1-0.3,0.2c-0.2,0.1-0.2,0.2,0.1,0.1c0.1-0.1,0.2-0.1,0.3-0.2
		c0.1,0.1,0.1,0.2,0.2,0.4c-0.1,0.1-0.2,0.1-0.3,0.2c-0.2,0.1-0.2,0.3,0.1,0.1c0.1-0.1,0.2-0.1,0.3-0.2c0.1,0.1,0.1,0.2,0.2,0.3
		c-0.1,0.1-0.2,0.1-0.3,0.2c-0.2,0.1-0.2,0.2,0.1,0.1c0.1-0.1,0.2-0.1,0.3-0.2c0.1,0.1,0.1,0.2,0.2,0.3
		C47.3,73.8,47.2,73.8,47.1,73.9z M59.5,60.1c0.4-0.2,0.8-0.4,1.2-0.8c0.5,0.9,1,1.8,1.5,2.7c-0.9,0.5-1.7,1-2.6,1.6
		c-0.5-0.9-1.1-1.7-1.6-2.6c0,0,0.1,0,0.1,0C58.6,60.7,59,60.4,59.5,60.1z M62.3,62.2c0.1,0.1,0.1,0.2,0.2,0.3
		c-0.9,0.5-1.8,1-2.6,1.6c-0.1-0.1-0.1-0.2-0.2-0.3C60.6,63.2,61.4,62.7,62.3,62.2z M74.8,54.6c8.8-5.3,17.6-10.6,26.4-15.9
		c0.1,0.1,0.1,0.2,0.2,0.3c-12.9,7.7-25.7,15.5-38.6,23.2c-0.1-0.1-0.1-0.2-0.2-0.3C66.7,59.5,70.8,57.1,74.8,54.6z M63.8,63.8
		c-0.1-0.1-0.1-0.2-0.2-0.3c12.9-7.7,25.8-15.3,38.6-23c0.1,0.1,0.1,0.2,0.2,0.3C93.6,46,84.8,51.3,76,56.5
		C71.9,59,67.8,61.4,63.8,63.8z M62.4,68.3c-0.5-0.9-1-1.8-1.6-2.7c0.9-0.5,1.8-1.1,2.7-1.6c0.6,0.8,1.1,1.7,1.6,2.6
		c0,0,0,0.1,0.1,0.1C64.3,67.2,63.3,67.8,62.4,68.3z M55.4,70.6c-0.2-0.4-0.5-0.8-0.7-1.2c1.9-1.2,3.9-2.3,5.8-3.5
		c0.3,0.4,0.5,0.9,0.8,1.3c0,0,0,0,0,0C59.3,68.3,57.3,69.3,55.4,70.6z M63,63.3c0.1,0.1,0.1,0.2,0.2,0.3c-0.9,0.5-1.8,1.1-2.7,1.6
		c-0.1-0.1-0.1-0.2-0.2-0.3C61.3,64.3,62.1,63.8,63,63.3z M60.3,64.8c0-0.1-0.1-0.1-0.1-0.2c0.9-0.5,1.8-1,2.6-1.6
		c0,0.1,0.1,0.1,0.1,0.2C62.1,63.7,61.2,64.2,60.3,64.8z M54,68.2c2-1.2,3.9-2.3,5.8-3.5c0,0.1,0.1,0.1,0.1,0.2
		c-1.9,1.2-3.9,2.3-5.8,3.5C54.1,68.4,54.1,68.3,54,68.2z M53.9,68.7c-0.7,0.4-1.5,0.9-2.2,1.3c-0.1-0.1-0.1-0.2-0.2-0.3
		c0.7-0.4,1.5-0.9,2.2-1.3C53.8,68.5,53.8,68.6,53.9,68.7z M60.1,64.5c-0.1-0.1-0.1-0.2-0.2-0.3c0.9-0.5,1.8-1,2.6-1.6
		c0.1,0.1,0.1,0.2,0.2,0.3C61.9,63.4,61,63.9,60.1,64.5z M59.8,64.7c-1.9,1.2-3.9,2.3-5.9,3.5c-0.1-0.1-0.1-0.2-0.2-0.3
		c2-1.2,3.9-2.3,5.8-3.5C59.7,64.4,59.7,64.5,59.8,64.7z M53.7,68.3c-0.7,0.4-1.5,0.9-2.2,1.3c-0.1-0.1-0.1-0.2-0.2-0.3
		c0.7-0.4,1.5-0.9,2.2-1.3C53.5,68.1,53.6,68.2,53.7,68.3z M51.1,69.8c-1.4,0.8-2.7,1.6-4.1,2.4c-0.1-0.1-0.1-0.2-0.2-0.3
		c1.4-0.8,2.7-1.6,4-2.4C50.9,69.6,51,69.7,51.1,69.8z M51.1,69.9c0.1,0.1,0.1,0.2,0.2,0.3c-1.3,0.8-2.7,1.6-4,2.5
		c-0.1-0.1-0.1-0.2-0.2-0.4C48.4,71.5,49.8,70.7,51.1,69.9z M51.4,70.3c0.1,0.1,0.1,0.2,0.2,0.3c-1.4,0.8-2.7,1.6-4.1,2.5
		c-0.1-0.1-0.1-0.2-0.2-0.3C48.7,72,50,71.1,51.4,70.3z M51.7,70.1c0.7-0.4,1.5-0.9,2.2-1.3c0.1,0.1,0.1,0.2,0.2,0.3
		c-0.7,0.4-1.5,0.9-2.2,1.3C51.9,70.3,51.8,70.2,51.7,70.1z M54.2,68.6c1.9-1.2,3.9-2.3,5.8-3.5c0.1,0.1,0.1,0.2,0.2,0.3
		c-1.9,1.2-3.9,2.3-5.8,3.5C54.4,68.8,54.3,68.7,54.2,68.6z M60.3,65.5c0.1,0.1,0.1,0.2,0.2,0.3c-1.9,1.2-3.9,2.3-5.8,3.5
		c-0.1-0.1-0.1-0.2-0.2-0.3C56.4,67.8,58.4,66.7,60.3,65.5z M60.8,65.6c-0.1-0.1-0.1-0.2-0.2-0.3c0.9-0.5,1.8-1.1,2.7-1.6
		c0.1,0.1,0.1,0.2,0.2,0.3C62.6,64.5,61.7,65,60.8,65.6z M77.6,55c-4.7,2.8-9.4,5.6-14.1,8.4c-0.1-0.1-0.1-0.2-0.2-0.3
		c12.9-7.7,25.8-15.3,38.7-23c0.1,0.1,0.1,0.2,0.2,0.3C94,45.3,85.8,50.2,77.6,55z M78.6,53.9c-5.1,3-10.2,6.1-15.3,9.1
		c0-0.1-0.1-0.1-0.1-0.2c0,0,0,0,0,0c5.1-3.1,10.2-6.1,15.3-9.2c7.8-4.7,15.5-9.3,23.3-14c0.1,0.1,0.1,0.3,0.2,0.4
		C94.1,44.6,86.3,49.3,78.6,53.9z M63.1,62.7c-0.1-0.1-0.1-0.2-0.2-0.3c4.7-2.8,9.4-5.6,14.1-8.5c8.2-4.9,16.3-9.8,24.5-14.8
		c0.1,0.1,0.1,0.2,0.2,0.3C88.8,47.2,75.9,55,63.1,62.7z M59.5,64.2c-1.9,1.2-3.9,2.3-5.9,3.5c-0.1-0.1-0.1-0.2-0.2-0.3
		c2-1.2,3.9-2.3,5.9-3.5C59.4,64,59.5,64.1,59.5,64.2z M53.4,67.9c-0.7,0.4-1.5,0.9-2.2,1.3c-0.1-0.1-0.1-0.2-0.2-0.3
		c0.7-0.4,1.5-0.9,2.2-1.3C53.3,67.7,53.3,67.8,53.4,67.9z M50.8,69.4c-1.3,0.8-2.7,1.6-4.1,2.4c-0.1-0.1-0.1-0.2-0.2-0.3
		c1.4-0.8,2.7-1.6,4-2.4C50.7,69.2,50.8,69.3,50.8,69.4z M47.6,73.2c1.3-0.8,2.7-1.6,4.1-2.5c0.1,0.1,0.1,0.2,0.2,0.3
		c-1.4,0.8-2.7,1.6-4.1,2.5C47.7,73.4,47.6,73.3,47.6,73.2z M52,70.5c0.7-0.4,1.5-0.9,2.2-1.3c0.1,0.1,0.1,0.2,0.2,0.3
		c-0.7,0.4-1.5,0.9-2.2,1.4C52.1,70.7,52,70.6,52,70.5z M54.4,69.6c0.5,0.8,1.1,1.7,1.6,2.5c0,0,0,0,0,0c-0.8,0.4-1.6,0.9-2.3,1.4
		c-0.5-0.9-1-1.8-1.6-2.6C53,70.5,53.7,70,54.4,69.6z M53.6,73.7c0,0,0.1,0.1,0.1,0c0,0,0.1,0.1,0.1,0c0.9-0.4,1.7-0.9,2.5-1.4
		c0.1-0.1,0.1-0.2,0-0.2c0,0,0-0.1,0-0.1c-0.2-0.4-0.5-0.8-0.7-1.2c2-1,3.9-2.2,5.9-3.3c0,0,0,0,0,0c0.3,0.4,0.5,0.8,0.8,1.2
		c0,0.1,0.1,0.1,0.2,0c0,0,0,0,0.1,0c1-0.6,2-1.1,2.9-1.8c0.1,0,0-0.1,0-0.1c0,0,0-0.1,0-0.2c-0.3-0.5-0.6-1-0.9-1.5
		c0.6-0.6,1.3-1.1,2-1.6c1.4,3.6-3.6,6.3-5.5,8.8c-1,1.3-1.6,2.7-2.4,4c-1.1,1.7-2.6,1.8-4,0.4c-0.8-0.9-1.4-2-1.4-3.2
		C53.4,73.5,53.5,73.6,53.6,73.7z M64.4,64.8c-0.2-0.3-0.4-0.6-0.6-0.9c12.9-7.7,25.8-15.3,38.6-23c0.1,0.2,0.2,0.3,0.3,0.5
		c-6.7,3.8-13.2,7.8-19.8,11.7c-3.3,2-6.7,4-10,6C70,60.8,67,62.5,64.4,64.8z M104.8,32C104.7,31.9,104.7,31.9,104.8,32
		c0.1-0.1,0.3-0.2,0.5-0.3c0.2,0.3,0.4,0.7,0.5,1c-0.1,0.1-0.2,0.1-0.3,0.2c0,0-0.1,0-0.1,0.1C105.2,32.6,105,32.3,104.8,32z
		 M101.5,36c0,0,0.1-0.1,0.1-0.1c0-0.1,0-0.2-0.1-0.2c0,0,0,0,0,0c1.3-0.8,2.7-1.4,3.9-2.3c0,0,0.1,0,0.1-0.1c0,0,0.1-0.1,0.1-0.1
		c1.4-1,2.7-2.1,4.3-2.9c0,0,0,0,0,0c1,0.1,1.9,2.2,2.4,3c0.7,1.2,1.2,2.5,1.7,3.8c-2.9,1.6-5.8,3.2-8.6,5c0,0,0,0,0,0
		c-0.7-0.5-1.5-0.7-2.4-0.6c0.1-0.1,0-0.2-0.1-0.1c0,0,0,0,0,0c0,0,0,0,0,0c-0.1-0.2-0.2-0.3-0.3-0.5c0.8-0.5,1.6-1,2.4-1.5
		c0.1-0.1,0.1-0.1,0-0.1c-0.8,0.5-1.6,1-2.4,1.4c-0.1-0.1-0.1-0.2-0.2-0.3c2-1.2,4.1-2.4,6.1-3.7c0.1-0.1,0.1-0.1,0-0.1
		c-2,1.2-4.1,2.4-6.1,3.6c-0.1-0.1-0.1-0.2-0.2-0.3c2.8-1.7,5.7-3.4,8.5-5.1c0.1-0.1,0.1-0.1,0-0.1c-2.9,1.7-5.7,3.4-8.6,5.1
		c-0.1-0.1-0.1-0.3-0.2-0.4c2.8-1.7,5.7-3.4,8.5-5.1c0.1-0.1,0.1-0.1,0-0.1c-2.8,1.7-5.7,3.4-8.5,5.1c-0.1-0.1-0.1-0.2-0.2-0.3
		c2-1.2,4.1-2.5,6.1-3.7c0.1-0.1,0.1-0.1,0-0.1c-2,1.2-4.1,2.4-6.1,3.7c-0.1-0.1-0.1-0.2-0.2-0.3c0.8-0.5,1.6-1,2.4-1.5
		c0.1-0.1,0.1-0.1,0-0.1c-0.8,0.5-1.6,1-2.4,1.4c-0.1-0.2-0.3-0.4-0.4-0.6c0,0,0,0,0-0.1C101.3,37.3,101.5,36.7,101.5,36z M100.9,38
		c0.1,0.2,0.2,0.4,0.3,0.7c-12.9,7.7-25.7,15.5-38.6,23.3c-0.2-0.2-0.3-0.5-0.5-0.7c0-0.1-0.1-0.1-0.1-0.2c0,0,0,0,0,0
		C74.8,53.1,87.9,45.7,100.9,38z M42.8,86.5c-3.3-1.8-5.8-5.3-7.7-8.5c-2-3.4-3.3-7.4-2.3-11.3c1-4.1,5.1-7.6,9.1-8.6
		c2.3-0.6,4.4,0.1,6.4,1.1c1.1,0.5,2.2,1,3.5,1c3.7-0.1,4-4.7,5.7-7c1.6-2.1,4.4-2.7,6.8-1.7c2.2,0.9,3.7,2.8,4.7,4.9
		c-2.4,1.5-4.8,3-7.2,4.4c0,0,0,0,0,0c-0.2-0.4-0.5-0.9-0.7-1.1c0,0,0,0,0,0c-0.1-0.1-0.2-0.3-0.3-0.4c0-0.1-0.1,0-0.1,0
		c-0.5,0.1-0.9,0.4-1.3,0.7c-0.5,0.3-1,0.6-1.4,0.9c0,0,0,0.1,0,0.1c-0.1-0.1-0.2,0-0.1,0.1c0.5,0.9,1,1.9,1.5,2.8
		c-2,1.2-3.9,2.3-5.9,3.5c-0.6-0.9-1.1-1.8-1.8-2.7c-0.1-0.1-0.2,0-0.1,0.1c0.5,0.9,1,1.8,1.6,2.7c-0.7,0.4-1.5,0.9-2.2,1.3
		c-0.5-0.9-1.1-1.8-1.7-2.7c0.8-0.3,1.5-0.8,2.2-1.3c0.1-0.1,0-0.3-0.1-0.2c-0.7,0.4-1.5,0.8-2.2,1.3c0,0,0,0.1,0,0.1
		c0,0-0.1,0.1,0,0.1c0.5,0.9,1,1.9,1.5,2.8c-1.3,0.8-2.7,1.6-4,2.4c-0.6-1.1-1.2-2.1-1.8-3.1c0-0.1,0-0.1-0.1-0.1c0,0,0,0,0,0
		c0,0,0,0-0.1,0c-0.6,0.1-1.2,0.4-1.7,0.8c0,0,0,0,0,0c0,0,0,0,0-0.1c0-0.1-0.1,0-0.1,0.1c1.5,3,3.3,5.9,5.1,8.7c0,0,0,0,0,0
		c0,0.1,0.1,0.1,0.1,0.1c0.5-0.2,1-0.5,1.4-0.8c0.1,0,0.1-0.1,0-0.2c0,0,0-0.1,0-0.1c-0.6-1-1.2-2-1.8-3.1c1.4-0.8,2.7-1.7,4.1-2.5
		c0.4,0.6,0.8,1.3,1.3,1.9c0,0-0.1,0-0.1,0.1c-0.2,1.7,0.9,3.4,2.2,4.4c1.6,1.1,3,0,3.9-1.4c0.9-1.6,1.7-3.1,2.9-4.5
		c1-1.2,2.2-2.2,3.3-3.3c1.4-1.4,2.3-3.2,1.4-5c0.8-0.6,1.7-1.2,2.6-1.8c-0.9,1.9-1.4,4.1,0,5.9c0.5,0.7,1.3,1.2,2.1,1.5
		c0.4,0.1,3-0.1,3-0.1c0,0,0,0,0,0c-2.5,3.9-6.6,2.7-10.5,3.2c-2.9,0.3-3.8,2.1-3.8,4.7C60.3,84.4,49.2,90.1,42.8,86.5z"/>
	<path d="M51,79.4C51,79.4,51,79.4,51,79.4c0-0.1-0.1-0.2-0.1-0.3c0,0,0,0,0,0c-0.3-0.5-1-0.6-1.4-0.3c-0.2,0.1-0.3,0.3-0.4,0.5
		c-0.5,0.8-0.1,1.9,0.9,2C50.9,81.3,51.6,80.2,51,79.4z M50.7,79.1C50.7,79.1,50.7,79.1,50.7,79.1c0.2,0.4,0,0.9-0.4,1.1
		c-0.4,0.2-0.8,0-1-0.3C48.9,79,50.1,78.4,50.7,79.1z M49.8,80.9c-0.6-0.2-0.9-0.7-0.8-1.3c0,0.2,0.1,0.3,0.2,0.5
		c0.3,0.5,0.9,0.7,1.4,0.4c0.2-0.1,0.4-0.4,0.5-0.6C51.1,80.5,50.6,81.1,49.8,80.9z"/>
	<path d="M53,80.7c-0.4,0.7,0.3,1.7,1.1,1.5c0.9-0.2,1.2-1.4,0.5-1.9c-0.3-0.4-0.8-0.5-1.2-0.3C53.2,80.2,53.1,80.4,53,80.7z
		 M54.1,82c-0.6,0.1-0.9-0.4-1-0.9c0,0,0,0.1,0,0.1c0.2,0.4,0.7,0.6,1.1,0.3c0.3-0.2,0.5-0.6,0.4-1C55.1,81.1,54.9,82,54.1,82z
		 M54.5,80.5C54.5,80.5,54.5,80.6,54.5,80.5c0.2,0.7-0.6,1.2-1,0.6c-0.2-0.3-0.2-0.6,0.1-0.8C53.8,80.1,54.3,80.2,54.5,80.5z"/>
	<path d="M50.6,83.7C50.6,83.7,50.6,83.7,50.6,83.7c0-0.4-0.3-0.7-0.7-0.8c0,0,0,0,0,0c-0.3-0.3-0.9-0.1-1.1,0.3
		c-0.1,0.1-0.1,0.3-0.1,0.4c-0.4,0.6-0.1,1.5,0.7,1.6C50.1,85.3,50.8,84.4,50.6,83.7z M49,83.2c0.2-0.2,0.4-0.3,0.7-0.2
		c0,0.1,0,0.2,0.1,0.2c0.5,0,0.7,0.5,0.4,0.9c-0.3,0.3-0.7,0.3-1,0.1C48.9,83.9,48.8,83.5,49,83.2z M49.3,84.9
		c-0.5-0.1-0.7-0.7-0.7-1.2c0.1,0.3,0.3,0.5,0.5,0.7c0.4,0.2,0.9,0.1,1.2-0.3C50.3,84.6,49.9,85.1,49.3,84.9z"/>
	<path d="M46.5,82.3C46.5,82.2,46.5,82.2,46.5,82.3c0.1-0.4-0.1-0.8-0.4-1.1c0,0,0,0,0,0c-0.4-0.4-1.1-0.2-1.4,0.3
		c-0.7,0.4-0.5,1.6,0.2,1.9C45.6,83.7,46.5,83,46.5,82.3z M45.7,81.2C45.7,81.2,45.7,81.2,45.7,81.2c0.4,0.2,0.7,0.6,0.6,1
		c-0.1,0.5-0.7,0.7-1.1,0.4c-0.4-0.2-0.5-0.8-0.2-1.1C45.1,81.2,45.4,81.2,45.7,81.2z M44.9,83.1c-0.5-0.3-0.6-0.9-0.4-1.4
		c-0.1,0.4,0.1,0.9,0.5,1.2c0.3,0.2,0.8,0.1,1.1-0.1C45.9,83.1,45.3,83.4,44.9,83.1z"/>
	<path d="M44.8,74.1c-0.3-0.6-0.5-1.1-0.8-1.7c0-0.1-0.1,0-0.1,0c0.2,0.6,0.5,1.2,0.8,1.8C44.7,74.3,44.8,74.2,44.8,74.1z"/>
	<path d="M44.5,74.4c-0.3-0.4-0.6-0.9-0.7-1.4c0-0.1-0.1,0-0.1,0c0.1,0.5,0.3,1.1,0.7,1.5C44.5,74.6,44.6,74.5,44.5,74.4z"/>
	<path d="M112.8,35c0.3,0.5,0.4,0.9,0.4,1.4c0,0.1,0.2,0.1,0.2,0c0-0.5-0.2-1.1-0.5-1.5C112.9,34.8,112.8,34.9,112.8,35z"/>
	<path d="M112.6,35.5c0.2,0.4,0.3,0.8,0.3,1.3c0,0.1,0.2,0.1,0.2,0c0.1-0.5-0.1-1-0.3-1.4C112.6,35.3,112.5,35.4,112.6,35.5z"/>
</g>
</svg>
