<svg xmlns="http://www.w3.org/2000/svg" xmlns:xlink="http://www.w3.org/1999/xlink" version="1.1" x="0px" y="0px" viewBox="0 0 100 100" style="enable-background:new 0 0 100 100;" xml:space="preserve"><path d="M53.7,95c-0.2,0-0.5,0-0.7-0.1c-0.6-0.2-1.2-0.6-1.4-1.2c-1.3-2.7-6.5-7.2-10.2-9c-5.2-2.4-25.7-17.8-30.3-25.2  C7.3,53.4,9.2,48.9,12,46.9c3.1-2.3,8.5-2.2,12.3,2.3c2.4,2.8,4,4.5,5.1,5.6c-1.4-4.6-6.1-12-10.4-18.7c-3.7-5.8-7.5-11.8-10.2-17.3  C7.2,15.5,7.3,12,9.2,9.2C11,6.4,14.4,4.8,17.9,5c3.5,0.2,6.4,2.3,8.1,5.7c1.6,3.2,5.9,10.8,9.7,17.1c0.8-1.7,2.2-3,4.1-3.9  c2.2-1.1,4.4-1.3,6.5-0.5c1,0.4,1.9,0.9,2.7,1.6c0.9-1.6,2.3-2.9,4.4-3.9c2.1-1,4.2-1.2,6.2-0.4c1.1,0.4,2.1,1.1,2.9,1.8  c0.8-1.7,2.1-2.7,3.5-3.4c1.7-0.9,3.6-1,5.3-0.4c4.2,1.5,7.1,7,10,13.1c3.7,8,5.2,16.1,6.6,23.3c1.2,6.3,2.2,11.7,4.3,15.7  c0.6,1.1,0.2,2.6-0.9,3.2L54.9,94.7C54.6,94.9,54.2,95,53.7,95z M16.7,50.2c-0.7,0-1.4,0.2-1.9,0.6c-1.5,1.1-1.3,3.4,0.4,6.2  c4,6.5,23.6,21.3,28.3,23.4c3.6,1.7,8.4,5.5,11.1,9l32.2-18.3c-1.8-4.3-2.8-9.5-3.8-15c-1.3-6.9-2.7-14.8-6.2-22.2  c-1.6-3.4-4.5-9.7-7.2-10.6c-0.4-0.1-0.8-0.2-1.6,0.2c-1.3,0.6-2.7,2.2,0.1,8.3c1,2.3,0.1,3.4-0.9,3.8c-0.6,0.3-1.3,0.3-1.9,0.1  c-1.1-0.4-1.4-1.2-1.9-2.5c-0.8-1.9-2.9-6.9-5.5-7.9c-0.5-0.2-1.2-0.3-2.4,0.2c-1.4,0.7-2.3,1.5-2.5,2.4c-0.3,0.9,0,2,0.3,2.9  c0.3,0.6,0.5,1.1,0.8,1.6c0.2,0.4,0.4,0.7,0.5,0.9c0.6,0.9,1,1.7,0.7,2.8c-0.2,0.6-0.7,1.2-1.3,1.5c-0.6,0.3-1.3,0.3-1.9,0.1  c-1.1-0.4-1.5-1.2-2.1-2.7c-0.1-0.2-0.1-0.3-0.2-0.5c-0.3-0.5-0.6-1.1-0.9-1.8c-1-2-2.5-4.2-4.3-4.9c-0.5-0.2-1.4-0.4-2.8,0.3  c-1.1,0.5-1.7,1.2-2,2.1c-0.7,2.3,1.1,5.7,1.7,7c0.5,0.9,0.8,1.6,0.5,2.6c-0.2,0.6-0.7,1.1-1.2,1.4c-2,1-3.1-0.9-3.7-1.8  c-0.4-0.6-0.9-1.5-1.6-2.5c-1.3-2.1-3-5-4.8-8.1c-1.6-2.8-7.1-12.2-9.1-16.2c-1.2-2.3-2.9-2.9-4.1-3c-1.7-0.1-3.5,0.7-4.4,2.1  c-0.9,1.3-0.9,3,0,4.8c2.6,5.3,6.3,11.2,9.9,16.9c7.8,12.3,12.5,20,11.4,25.2c-0.3,1.3-1.1,2.2-2.3,2.5c-2.1,0.5-4.6-0.8-11.6-9  C19.4,50.8,17.9,50.2,16.7,50.2z"></path></svg>