<svg xmlns="http://www.w3.org/2000/svg" xmlns:xlink="http://www.w3.org/1999/xlink" xml:space="preserve" version="1.1" style="shape-rendering:geometricPrecision;text-rendering:geometricPrecision;image-rendering:optimizeQuality;" viewBox="0 0 50000 50000" x="0px" y="0px" fill-rule="evenodd" clip-rule="evenodd"><defs><style type="text/css">
   
    .fil0 {fill:black;fill-rule:nonzero}
   
  </style></defs><g><path class="fil0" d="M44535 8713c726,606 1062,1185 1162,1877 96,658 -33,1385 -238,2334 -359,1664 -772,3314 -1186,4964 -583,2326 -1166,4653 -1587,6974 -118,649 146,781 573,995 90,45 185,93 280,144 2587,1387 4642,5190 5135,9156 225,1801 129,3643 -382,5316 -516,1687 -1455,3199 -2915,4321 -2407,1850 -6216,2623 -11858,1335 -2805,-640 -5610,-1364 -8381,-2210 -2771,-846 -5505,-1813 -8167,-2938 -2413,-1019 -7066,-3258 -10670,-5772 -2397,-1673 -4341,-3479 -4897,-5164 -519,-1571 45,-2680 1028,-3502 921,-772 2203,-1265 3259,-1656l0 0c898,-333 1648,-508 2276,-655 1688,-394 2393,-559 2728,-3699 290,-2717 246,-5578 202,-8394 -26,-1705 -52,-3394 -4,-5028 26,-884 424,-1503 1012,-1956 552,-425 1265,-691 1979,-892 4259,-1201 10800,-1348 16937,-461 5530,799 10750,2440 13714,4911zm465 1976c-75,-514 -338,-955 -914,-1436 -2857,-2381 -7949,-3972 -13365,-4754 -6048,-874 -12477,-734 -16647,442 -643,181 -1275,414 -1740,771 -429,331 -720,780 -738,1418 -48,1624 -22,3305 4,5001 44,2841 88,5726 -205,8476 -389,3639 -1237,3837 -3268,4311 -606,141 -1328,310 -2191,630l-1 0c-1003,372 -2220,838 -3051,1535 -772,646 -1216,1514 -810,2742 502,1521 2345,3214 4630,4808 3555,2480 8154,4692 10540,5701 2639,1115 5350,2073 8098,2912 2748,839 5537,1559 8332,2197 5411,1235 9025,524 11276,-1206 1334,-1025 2194,-2414 2669,-3968 480,-1571 568,-3314 355,-5027 -467,-3757 -2374,-7339 -4766,-8621 -95,-51 -181,-95 -263,-136 -718,-359 -1162,-582 -951,-1747 431,-2372 1013,-4697 1596,-7021 413,-1648 826,-3295 1180,-4939 189,-877 309,-1541 230,-2089zm-32612 -5019c-996,904 -928,1836 -115,2731 1920,2116 7532,4066 13597,5196 6084,1134 12594,1433 16281,243 2139,-690 3272,-1897 2672,-3756l670 -215c753,2334 -581,3819 -3127,4641 -3800,1226 -10441,931 -16623,-221 -6199,-1156 -11967,-3183 -13991,-5414 -1107,-1220 -1198,-2491 162,-3726l474 521zm-9070 21080c-966,1018 -975,1733 -409,2269 982,933 3476,1513 6014,2104 1612,375 3240,754 4562,1246 6482,2412 8906,3879 12406,5999 1647,997 3535,2139 6215,3601 4304,2348 7724,2749 10237,1946 1504,-480 2687,-1396 3540,-2582 860,-1196 1388,-2669 1578,-4256 384,-3202 -614,-6846 -3050,-9584l526 -469c2575,2895 3630,6748 3224,10136 -203,1700 -775,3287 -1707,4583 -939,1305 -2241,2312 -3899,2842 -2684,857 -6293,452 -10786,-1998 -2682,-1464 -4583,-2614 -6241,-3619 -3466,-2098 -5866,-3551 -12289,-5941 -1266,-471 -2879,-846 -4476,-1218 -2631,-612 -5216,-1214 -6340,-2280 -879,-834 -934,-1874 385,-3264l510 485zm6911 -3944c57,-186 255,-290 441,-232 185,58 289,255 231,441 -243,776 -514,1546 -814,2309 -303,767 -635,1524 -999,2271 -85,175 -296,248 -471,163 -175,-86 -248,-297 -162,-472 358,-736 683,-1476 976,-2219 294,-747 559,-1501 798,-2261zm31763 1950c24,-192 200,-329 392,-304 193,24 329,200 305,392 -313,2453 -529,4166 -687,5942 -155,1757 -247,3524 -308,6068 -5,194 -166,347 -360,343 -194,-5 -348,-166 -343,-360 62,-2587 154,-4366 308,-6111 153,-1726 374,-3470 693,-5970z"></path></g></svg>