<?xml version="1.0" encoding="iso-8859-1"?>
<!-- Generator: Adobe Illustrator 16.0.0, SVG Export Plug-In . SVG Version: 6.00 Build 0)  -->
<!DOCTYPE svg PUBLIC "-//W3C//DTD SVG 1.1//EN" "http://www.w3.org/Graphics/SVG/1.1/DTD/svg11.dtd">
<svg xmlns="http://www.w3.org/2000/svg" xmlns:xlink="http://www.w3.org/1999/xlink" version="1.1" id="Capa_1" x="0px" y="0px" width="512px" height="512px" viewBox="0 0 410.335 410.335" style="enable-background:new 0 0 410.335 410.335;" xml:space="preserve">
<g>
	<g>
		<path d="M112.125,405.231c19.109,0,19.534-61.218,10.419-124.158c-9.117-62.94-23.874-85.955-35.163-85.955    c-11.281,0-18.667,12.15-18.667,12.15c-8.253,64.251,23.762,178.206,23.762,178.206    C97.839,406.642,112.125,405.231,112.125,405.231z" fill="#FFFFFF"/>
		<path d="M322.557,387.943c0,0,27.783-115.065,17.164-178.964c0,0-7.826-11.875-19.111-11.457    c-11.277,0.413-25.187,23.961-31.963,87.202c-6.77,63.229-4.076,124.386,15.012,123.673    C303.65,408.397,317.985,409.287,322.557,387.943z" fill="#FFFFFF"/>
		<path d="M6.49,242.145c0.112,15.854,3.312,38.968,17.085,63.245c0,0,4.262,39.061,14.068,52.521    c5.551,7.614,14.325,13.28,20.895,16.759c2.449,3.867,31.009,27.515,31.009,27.515s-17.356-51.219-24.744-102.009    c-7.377-50.774-4.771-91.598-4.771-91.598l-17.805,18.663c0,0-2.419,3.041-3.739,15.016l-3.212,2.785c0,0-2.606-3.735-7.087-7.759    c-4.336-3.896-7.071-11.181-5.268-17.412c1.791-6.231,1.116-15.954-1.517-21.706c-2.637-5.755-4.577-19.941-1.978-31.302    c5.496-24.077,21.81-65.359,70.128-104.355c0,0,13.064-4.426,70.976-19.53c74.889-19.535,130.54,17.883,130.54,17.883    s21.624,7.52,25.965,4.472c0,0,55.037,35.61,72.434,102.576c2.934,11.281,1.339,25.465-1.896,31.336    c-3.233,5.873-4.3,15.309-2.384,21.055c1.911,5.759,0.408,13.088-2.689,16.983c-1.903,2.396-3.711,5.166-4.473,7.759l-5.534-3.146    c0,0-2.276-11.068-4.231-13.677c-1.956-2.604-16.603-12.363-16.603-12.363s7.935,52.638-19.857,177.217    c0,0,33.435-16.491,46.014-36.464c12.595-19.969,11.293-49.055,11.293-49.055s16.911-33.418,15.616-57.735    c-0.344-6.436-0.745-11.686-1.149-15.917c-0.854-8.776,0.016-20.246,2.897-25.76c2.857-5.511,5.129-19.468,3.065-30.941    c-5.241-29.044-23.251-83.126-84.905-129.025c0,0-37.121-47.093-126.537-46.231c-89.432,0.861-113.731,45.58-113.731,45.58    S15.913,86.626,0.817,176.561c-1.923,11.492-0.2,26.243,2.565,32.779C6.145,215.876,6.421,230.492,6.49,242.145z" fill="#FFFFFF"/>
	</g>
</g>
<g>
</g>
<g>
</g>
<g>
</g>
<g>
</g>
<g>
</g>
<g>
</g>
<g>
</g>
<g>
</g>
<g>
</g>
<g>
</g>
<g>
</g>
<g>
</g>
<g>
</g>
<g>
</g>
<g>
</g>
</svg>
