<?xml version="1.0" encoding="utf-8"?>
<!-- Generator: Adobe Illustrator 19.1.0, SVG Export Plug-In . SVG Version: 6.00 Build 0)  -->
<svg version="1.1" xmlns="http://www.w3.org/2000/svg" xmlns:xlink="http://www.w3.org/1999/xlink" x="0px" y="0px"
	 viewBox="0 0 500 500" style="enable-background:new 0 0 500 500;" xml:space="preserve">
<g id="Layer_1">
	<g>
		<path d="M446.9,304.2c1.1,28.4-0.1,21.6,0,48.2c0,14.1-7.7,24.3-9.1,26.4c-4.6,6.8-9.6,10.8-11.4,12.1
			c-3.5,2.6-13.7,10.4-27.7,9.7c-3.8-0.2-9.8-0.5-15.1-4.6c-5.7-4.3-8.9-11.4-9-19.5c-0.2-13.9,0-144.6,0-144.6
			c0-66.6-55.5-120.4-122-120.4c-66.5,0-119,53.9-119,120.4v144.6c0.1,1.7,0.2,4.2-0.3,7c-0.7,4-2.3,8-4,10.4
			c-5.1,7.1-17,6.6-19.8,6.7c-26.1,0.7-47.8-30.2-48-44.1c-0.3-13.8,0-24.7,0.4-51.8c0.4-27,21-48.7,47.7-48.7v-24.1
			c0-79.9,64.7-144.6,144.6-144.6s143.2,64.6,143.2,144.5c0,0-0.3,24.2,1.4,24.2C427.2,256,445.9,275.8,446.9,304.2z"/>
	</g>
</g>
<g id="Layer_2">
</g>
</svg>
