<svg xmlns="http://www.w3.org/2000/svg" xmlns:xlink="http://www.w3.org/1999/xlink" version="1.1" x="0px" y="0px" viewBox="0 0 100 100" enable-background="new 0 0 100 100" xml:space="preserve"><g><path fill-rule="evenodd" clip-rule="evenodd" d="M88.628,54.898l-0.361-0.759h-0.435h-8.351c-1.409,0-2.711-0.579-3.651-1.518   c-0.94-0.904-1.519-2.206-1.519-3.616c0-0.904,0.253-1.771,0.651-2.494c0.433-0.796,1.048-1.447,1.807-1.917h0.036   c-2.603-1.049-5.17-1.663-7.338-1.663h-1.52H42.535H10.107v1.807L42.1,46.692c1.373,2.458,4.157,5.278,7.989,8.206H88.628z"></path><path fill-rule="evenodd" clip-rule="evenodd" d="M54.61,38.413h2.747v-1.989h35.285v-1.446H57.176   c-0.182-0.325-0.471-0.542-0.759-0.542h-0.869c-0.325,0-0.578,0.217-0.758,0.542H19.288v1.446H54.61V38.413z"></path><path fill-rule="evenodd" clip-rule="evenodd" d="M41.992,42.389h28.705c-3.651-2.133-8.712-3.435-14.352-3.435   C50.705,38.955,45.607,40.256,41.992,42.389z"></path><path fill-rule="evenodd" clip-rule="evenodd" d="M83.495,64.623v-3.687h5.025c0.866-1.735,0.902-3.506,0.325-5.242H50.306   c3.869,2.965,8.134,5.315,10.664,5.315v3.614h1.446v-3.614l19.631-0.073v3.687H83.495z"></path><polygon fill-rule="evenodd" clip-rule="evenodd" points="16.866,42.498 10.324,33.641 6.238,33.641 10.324,42.498  "></polygon><polygon fill-rule="evenodd" clip-rule="evenodd" points="7.286,50.958 10.721,51.066 16.36,45.499 10.179,45.246  "></polygon><path fill-rule="evenodd" clip-rule="evenodd" d="M75.107,48.933c0,2.531,2.096,4.627,4.627,4.627h7.845   c-1.698-3.507-5.928-6.688-10.303-8.532C75.975,45.861,75.107,47.306,75.107,48.933z"></path><rect x="47.451" y="65.021" fill-rule="evenodd" clip-rule="evenodd" width="46.311" height="1.338"></rect></g></svg>