<?xml version="1.0" encoding="utf-8"?>
<!-- Generator: Adobe Illustrator 21.0.2, SVG Export Plug-In . SVG Version: 6.00 Build 0)  -->
<svg version="1.1" id="Layer_1" xmlns="http://www.w3.org/2000/svg" xmlns:xlink="http://www.w3.org/1999/xlink" x="0px" y="0px"
	 viewBox="0 0 62.6 59.6" style="enable-background:new 0 0 62.6 59.6;" xml:space="preserve">
<title>house 3</title>
<g>
	<g>
		<path d="M31.3,7.3L6.5,30.4c0.2,0,0.3,0,0.5,0h2.2v23.8c0,2.9,2.4,5.3,5.3,5.3h6.8V44.8c0-1.7,1.4-3.1,3.1-3.1H38
			c1.7,0,3.1,1.4,3.1,3.1v14.9H48c2.9,0,5.3-2.4,5.3-5.3V30.5h2.2c0.2,0,0.3,0,0.5-0.1L31.3,7.3z"/>
		<path d="M2,32c-1.1,0-2-0.9-2-2c0-0.5,0.2-1,0.6-1.4c4.6-4.3,9.1-8.5,13.7-12.8C20,10.5,25.6,5.3,31.3,0c5,4.7,10,9.4,15.1,14
			c5.2,4.8,10.4,9.7,15.6,14.5c0.8,0.7,0.8,2,0.1,2.8c-0.8,0.8-2,0.9-2.8,0.1l-27.9-26l-27.9,26C3,31.8,2.5,32,2,32z"/>
		<polygon points="53.4,18.7 53.4,7.6 48.1,7.6 48.1,13.8 		"/>
	</g>
</g>
<path d="M14.3,6.5"/>
</svg>
