<?xml version="1.0" encoding="utf-8"?>
<!-- Generator: Adobe Illustrator 23.0.4, SVG Export Plug-In . SVG Version: 6.00 Build 0)  -->
<svg version="1.1" id="Layer_1" xmlns="http://www.w3.org/2000/svg" xmlns:xlink="http://www.w3.org/1999/xlink" x="0px" y="0px"
	 viewBox="0 0 300 206" style="enable-background:new 0 0 300 206;" xml:space="preserve">
<style type="text/css">
	.st0{clip-path:url(#SVGID_2_);fill:none;stroke:#D92624;stroke-width:18;}
	.st1{clip-path:url(#SVGID_4_);fill:#F4F12B;}
	.st2{clip-path:url(#SVGID_6_);fill:#61B72F;}
	.st3{clip-path:url(#SVGID_8_);fill:#0093DD;}
	.st4{clip-path:url(#SVGID_10_);}
</style>
<g id="Loop_lower_right" transform="scale(-1)">
	<g>
		<defs>
			<path id="SVGID_1_" d="M253,103l-13-32c-26,0-54.8,21.8-82.2,42.4C125.2,137.9,94,161,60,161l180,32c51.9,0,94-40.3,94-90
				s-42.1-90-94-90L150,0C206.9,0,253,46.1,253,103z"/>
		</defs>
		<clipPath id="SVGID_2_">
			<use xlink:href="#SVGID_1_"  style="overflow:visible;"/>
		</clipPath>
		<path class="st0" d="M150,103c30-22.5,60-45,90-45c26,0,47,20.1,47,45s-21,45-47,45C210,148,180,125.5,150,103"/>
	</g>
</g>
<g>
	<g>
		<defs>
			<path id="SVGID_3_" d="M274,103h26c0,32-26.9,58-60,58c-34,0-65.2-23.2-97.8-47.6C114.8,92.9,86,71,60,71c-18.8,0-34,14.3-34,32
				c0,68.5,55.5,124,124,124S274,171.5,274,103"/>
		</defs>
		<clipPath id="SVGID_4_">
			<use xlink:href="#SVGID_3_"  style="overflow:visible;"/>
		</clipPath>
		<path class="st1" d="M231,103c0,11.2-2.3,21.8-6.4,31.5c-6.1,14.5-16.4,26.9-29.4,35.6c-12.9,8.7-28.5,13.8-45.3,13.8
			c-11.2,0-21.8-2.3-31.5-6.4c-14.5-6.1-26.9-16.4-35.6-29.4C74.1,135.3,69,119.8,69,103c0-11.2,2.3-21.8,6.4-31.5
			c6.1-14.5,16.4-26.9,29.4-35.6C117.7,27.1,133.2,22,150,22V4c-13.6,0-26.7,2.8-38.5,7.8c-17.8,7.5-32.9,20.1-43.5,35.9
			C57.2,63.4,51,82.5,51,103c0,13.6,2.8,26.7,7.8,38.5c7.5,17.8,20.1,32.9,35.9,43.5c15.8,10.7,34.9,16.9,55.4,16.9
			c13.6,0,26.7-2.8,38.5-7.8c17.8-7.5,32.9-20.1,43.5-35.9c10.7-15.8,16.9-34.9,16.9-55.4H231L231,103z"/>
	</g>
	<g>
		<defs>
			<path id="SVGID_5_" d="M26,103H0c0-32,26.9-58,60-58c34,0,65.2,23.1,97.8,47.6C185.2,113.2,214,135,240,135c18.8,0,34-14.3,34-32
				c0-68.5-55.5-124-124-124S26,34.5,26,103"/>
		</defs>
		<clipPath id="SVGID_6_">
			<use xlink:href="#SVGID_5_"  style="overflow:visible;"/>
		</clipPath>
		<path class="st2" d="M69,103c0-11.2,2.3-21.8,6.4-31.5c6.1-14.5,16.4-26.9,29.4-35.6C117.7,27.1,133.2,22,150,22
			c11.2,0,21.8,2.3,31.5,6.4c14.5,6.1,26.9,16.4,35.6,29.4C225.9,70.7,231,86.2,231,103c0,11.2-2.3,21.8-6.4,31.5
			c-6.1,14.5-16.4,26.9-29.4,35.6c-12.9,8.7-28.5,13.8-45.3,13.8v18c13.6,0,26.7-2.8,38.5-7.8c17.8-7.5,32.9-20.1,43.5-35.9
			c10.7-15.8,16.9-34.9,16.9-55.4c0-13.6-2.8-26.7-7.8-38.5c-7.5-17.8-20.1-32.9-35.9-43.5C189.6,10.2,170.5,4,150,4
			c-13.6,0-26.7,2.8-38.5,7.8c-17.8,7.5-32.9,20.1-43.5,35.9C57.2,63.4,51,82.5,51,103H69L69,103z"/>
	</g>
	<g>
		<defs>
			<path id="SVGID_7_" d="M47,103l13,32c26,0,54.8-21.8,82.2-42.4C174.8,68.1,206,45,240,45L60,13c-51.9,0-94,40.3-94,90
				c0,49.7,42.1,90,94,90l90,13C93.1,206,47,159.9,47,103z"/>
		</defs>
		<clipPath id="SVGID_8_">
			<use xlink:href="#SVGID_7_"  style="overflow:visible;"/>
		</clipPath>
		<path class="st3" d="M144.6,95.8c-15,11.3-29.7,22.3-44,30.3c-7.1,4-14.1,7.3-20.9,9.5c-6.8,2.2-13.3,3.4-19.7,3.4
			c-10.6,0-20.1-4.1-27-10.7c-3.4-3.3-6.2-7.2-8.1-11.4C23,112.6,22,107.9,22,103c0-4.9,1-9.6,2.9-13.9c2.8-6.4,7.6-11.9,13.7-15.9
			C44.7,69.3,52,67,60,67c6.4,0,12.9,1.2,19.7,3.4c10.2,3.3,20.8,9,31.7,16c10.9,7,22,15.3,33.2,23.8l10.8-14.4
			c-15-11.2-30.3-22.7-46-31.6c-7.9-4.4-15.9-8.2-24.1-10.9C77.1,50.6,68.6,49,60,49c-15.3,0-29.3,6-39.5,15.7
			c-5.1,4.9-9.2,10.7-12.1,17.2C5.6,88.3,4,95.5,4,103c0,7.5,1.6,14.7,4.5,21.2c4.3,9.7,11.4,17.9,20.4,23.7
			c8.9,5.8,19.7,9.1,31.2,9.1c8.6,0,17.1-1.6,25.3-4.3c12.3-4.1,24.2-10.5,35.8-18c11.6-7.5,23-16.1,34.3-24.5L144.6,95.8
			L144.6,95.8z"/>
	</g>
	<g>
		<defs>
			<circle id="SVGID_9_" cx="150" cy="103" r="77"/>
		</defs>
		<clipPath id="SVGID_10_">
			<use xlink:href="#SVGID_9_"  style="overflow:visible;"/>
		</clipPath>
		<path class="st4" d="M60,157c8.6,0,17.1-1.6,25.3-4.3c12.3-4.1,24.2-10.5,35.8-18c11.6-7.5,23-16.1,34.3-24.5
			c15-11.3,29.7-22.3,44-30.3c7.1-4,14.1-7.3,20.9-9.5c6.8-2.2,13.3-3.4,19.7-3.4V49c-8.6,0-17.1,1.6-25.3,4.3
			c-12.3,4.1-24.2,10.5-35.8,18c-11.6,7.5-23,16.1-34.3,24.5c-15,11.3-29.7,22.3-44,30.3c-7.1,4-14.1,7.3-20.9,9.5
			c-6.8,2.2-13.3,3.4-19.7,3.4V157L60,157z"/>
	</g>
</g>
</svg>
