<?xml version="1.0" encoding="utf-8"?>
<!-- Generator: Adobe Illustrator 23.0.4, SVG Export Plug-In . SVG Version: 6.00 Build 0)  -->
<svg version="1.0" xmlns="http://www.w3.org/2000/svg" xmlns:xlink="http://www.w3.org/1999/xlink" x="0px" y="0px"
	 viewBox="0 0 1920 1080" style="enable-background:new 0 0 1920 1080;" xml:space="preserve">
<style type="text/css">
	.st0{display:none;}
	.st1{fill:none;stroke:#2ECFFF;stroke-miterlimit:10;}
</style>
<g id="Layer_2" class="st0">
	
		<image style="display:inline;overflow:visible;" width="2560" height="1440" xlink:href="../../../../Dropbox/3Blue1Brown Team Folder/videos/windmill/images/AskWhatsOnTest.png"  transform="matrix(0.75 0 0 0.75 0.4006 -0.9327)">
	</image>
</g>
<g id="Layer_1">
	<path class="st1" d="M334.9,398.2c104.2,0.2,208.4,0.4,312.6,0.5c223.2,0.4,446.5,0.8,669.7,1.2"/>
	<path class="st1" d="M1338.5,400.6c31.6,0,63.2,0,94.7,0c139.5,0,279,0,418.5,0"/>
	<path class="st1" d="M67.3,449.3c72.6-0.4,145.2-0.7,217.9-1.1c36.9-0.2,73.8-0.4,110.7-0.6"/>
	<path class="st1" d="M422.2,448c98.1,0,196.2,0,294.3,0c377.8,0,755.7,0,1133.5,0"/>
	<path class="st1" d="M66.6,500.5c128.6-0.1,257.1-0.2,385.7-0.3c465.9-0.4,931.9-0.8,1397.8-1.2"/>
	<path class="st1" d="M68.3,551.3c131-0.4,262.1-0.9,393.1-1.3c35-0.1,69.9-0.2,104.9-0.4"/>
	<path class="st1" d="M596.7,547.9c87.9,0,175.9,0,263.8,0c329.3,0,658.5,0,987.8,0"/>
	<path class="st1" d="M69.9,598.1c215.7,0,431.5,0,647.2,0c90.3,0,180.5,0,270.8,0"/>
	<path class="st1" d="M1011.7,598.7c96.5,0,193.1,0,289.6,0c108.4,0,216.8,0,325.2,0"/>
	<path class="st1" d="M64.9,647.9c203.7,0.2,407.4,0.4,611.2,0.6c391.9,0.4,783.8,0.7,1175.7,1.1"/>
	<path class="st1" d="M69.9,702.1c217.4-0.4,434.8-0.8,652.2-1.2c97.6-0.2,195.3-0.3,292.9-0.5"/>
</g>
</svg>
