<?xml version="1.0" encoding="utf-8"?>
<!-- Generator: Adobe Illustrator 23.0.3, SVG Export Plug-In . SVG Version: 6.00 Build 0)  -->
<svg version="1.1" id="Layer_1" xmlns="http://www.w3.org/2000/svg" xmlns:xlink="http://www.w3.org/1999/xlink" x="0px" y="0px"
	 viewBox="0 0 2560 1440" style="enable-background:new 0 0 2560 1440;" xml:space="preserve">
<style type="text/css">
	.st0{display:none;}
	.st1{fill:none;stroke:#000000;stroke-miterlimit:10;}
</style>
<g class="st0">
	
		<image style="display:inline;overflow:visible;enable-background:new    ;" width="994" height="1500" xlink:href="7ABFC0E400A81BC3.jpeg"  transform="matrix(0.9668 0 0 0.9668 785.9869 6.4415)">
	</image>
</g>
<g>
	<polygon class="st1" points="1397.1,551.8 1393.8,553.9 1392.9,566.6 1384.2,586.2 1366.3,602.1 1349.6,611.7 1327.8,618.4 
		1285.3,625.8 1253.3,630.4 1226.9,638 1205.1,648.3 1185.1,663.5 1173.6,678.5 1170.1,696 1172.6,705.1 1177,711 1184.4,714.3 
		1190.8,714.9 1202.1,713 1212.3,707.1 1225.8,691.2 1232.5,679.8 1234.1,666.6 1230.6,649.8 1219.5,632.4 1197.9,625.6 
		1177.9,627.1 1162,635 1142.8,650 1125,677 1112.3,707.3 1105.5,744.5 1101.7,795.3 1100.3,842.6 1097.5,904.9 1094.2,972.2 
		1087.5,1028.4 1076.6,1066.3 1061.8,1093.1 1048.1,1107.5 1042.3,1111.4 1036.1,1113.4 1027.2,1114.1 1019.3,1106.2 1018.4,1098.1 
		1019.5,1089.2 1028.7,1068.5 1049.6,1044.6 1073.8,1026.5 1085.3,1019.5 1111,1012.5 1126.3,1019.1 1132.2,1034.1 1138.2,1041.1 
		1144.2,1040.6 1147.8,1036.9 1149.2,1029.1 1143.5,1018.8 1135.6,1012.5 1122.3,1008.6 1109.3,1008.6 1078.8,1018.2 1051.1,1034.5 
		1030.4,1051.3 1016.7,1067.2 1006.2,1082.7 1001,1097.3 1000.1,1107.9 1003,1114.7 1008.2,1120.6 1015.8,1123.4 1025.8,1122.1 
		1043.1,1116.2 1056.3,1106.6 1070.3,1092.9 1081,1077.9 1091.8,1057.4 1101.7,1030.6 1105.8,1016.7 1111.5,991.8 1117.8,945.9 
		1120.6,900.8 1121.3,845.9 1120.8,785.4 1120.5,750 1124.1,704.3 1134.6,675.5 1150.2,652 1168.3,639.3 1192.3,635.2 1208.6,642.8 
		1219.9,656.8 1223.5,666.8 1223.9,678.5 1218.4,693.4 1207.3,703.8 1201.3,706.6 1193.8,707.3 1187.6,703.6 1184.7,695.5 
		1184.5,685.5 1187.7,675.9 1200.1,659.6 1212.5,652.4 1246.3,639.8 1272.7,634.1 1305.6,629.8 1334.8,623.2 1362.7,611.2 
		1385.5,594.2 1400.3,575.9 1404.5,562 1403.6,553.5 	"/>
</g>
</svg>
