<svg height='100px' width='100px'  fill="#000000" xmlns="http://www.w3.org/2000/svg" xmlns:xlink="http://www.w3.org/1999/xlink" version="1.1" x="0px" y="0px" viewBox="0 0 100 100" enable-background="new 0 0 100 100" xml:space="preserve"><g><path d="M64.6,15.4c0-5.6-5.8-9.7-13-9.7c-7.2,0-13,4.1-13,9.7c0,5,4.6,9.1,10.7,9.9L48.9,64c0,0.8-0.3,1.6-1,2   c-0.3,0.2-0.5,0.5-0.5,0.8c0,0.5,0.6,1,1.5,1.3l0,4.6c-0.1,0-0.2,0-0.3,0h-4.3c-0.1,0-0.3,0.1-0.3,0.1c-0.1,0.1-0.1,0.2-0.1,0.3   c0,0.6-0.5,1.1-1.1,1.1h-3.3c-0.3,0-0.6-0.1-0.7-0.3c-0.2-0.2-0.3-0.5-0.3-0.7c0-0.3-0.2-0.5-0.5-0.5h-1.8c-0.4,0-0.7,0.3-0.7,0.7   V76c0,0.3,0.2,0.5,0.5,0.5h1.1c0.3,0,0.5,0.2,0.5,0.5v1.3c0,0.3-0.2,0.5-0.5,0.5h-1.1c-0.3,0-0.5,0.2-0.5,0.5v1.3   c0,0.3,0.2,0.5,0.5,0.5h1.1c0.3,0,0.5,0.2,0.5,0.5v1.3c0,0.3-0.2,0.5-0.5,0.5h-1.1c-0.3,0-0.5,0.2-0.5,0.5v1.7   c0,0.7,0.5,1.2,1.2,1.2h1.4c0.3,0,0.5-0.2,0.5-0.5v-1.1c0-0.3,0.3-0.6,0.6-0.6h3.4c0.3,0,0.6,0.3,0.6,0.6v1.1   c0,0.3,0.2,0.5,0.5,0.5h5.1c0.1,0,0.1,0,0.2,0l0,5.5c0,1.3,1,2.3,2.3,2.3h1.2c1.3,0,2.3-1,2.3-2.3l-0.2-24.1   c0.9-0.3,1.5-0.8,1.5-1.3c0-0.3-0.2-0.6-0.5-0.8c-0.6-0.5-1-1.2-1-2l-0.3-38.7C60,24.5,64.6,20.3,64.6,15.4z M56.9,20.9   c-1.5,0.1-3.6-1.6-4.3-2.1c-0.5-0.6-1.3-0.5-2,0c-0.7,0.5-2.8,2.1-4.3,2.1c-2.9-0.1-4.5-3.1-4.5-5.4c0-3.5,4.4-6.6,9.7-6.6   c5.4,0,9.7,3.1,9.7,6.6C61.3,17.8,59.8,20.8,56.9,20.9z"></path></g></svg>