<?xml version="1.0" encoding="utf-8"?>
<!-- Generator: Adobe Illustrator 19.1.0, SVG Export Plug-In . SVG Version: 6.00 Build 0)  -->
<svg version="1.1" id="Layer_1" xmlns="http://www.w3.org/2000/svg" xmlns:xlink="http://www.w3.org/1999/xlink" x="0px" y="0px"
	 viewBox="-255 347 100 100" style="enable-background:new -255 347 100 100;" xml:space="preserve">
<style type="text/css">
	.st0{fill:#FFD527;}
</style>
<path class="st0" d="M-205.1,375.5c-9.3,0-16.8,7.5-16.8,16.8c0,3.1,0.6,6.4,2.2,8.4c6.8,8.4,5.2,11.6,5.9,15.7
	c0.6,3.4,1.3,4.2,3.9,4.2c1.1,0,2.9,0,4.8,0c1.9,0,3.7,0,4.8,0c2.6,0,3.3-0.8,3.9-4.2c0.7-4-0.9-6.9,5.9-15.7
	c1.5-1.8,2.2-5.3,2.2-8.4C-188.3,383-195.8,375.5-205.1,375.5z"/>
<path class="st0" d="M-185.7,363.9c1.5-2.7-2.6-5.1-4.2-2.4c-0.8,1.4-6.7,11.5-6.7,11.5l4.2,2.4
	C-192.4,375.4-187.2,366.4-185.7,363.9C-185.7,363.9-185.7,363.9-185.7,363.9L-185.7,363.9L-185.7,363.9z"/>
<path class="st0" d="M-176.4,373.2L-176.4,373.2L-176.4,373.2C-176.4,373.3-176.4,373.3-176.4,373.2c-2.1,1.2-11.2,6.5-11.2,6.5
	l2.4,4.2c0,0,9.1-5.2,11.2-6.5C-171.3,375.9-173.7,371.7-176.4,373.2z"/>
<path class="st0" d="M-202.5,358.1c0,0.7,0,12.8,0,12.8h-4.8c0,0,0-12.1,0-12.8C-207.4,355-202.5,355-202.5,358.1z"/>
<path class="st0" d="M-224.3,363.9c-1.5-2.7,2.6-5.1,4.2-2.4c0.8,1.4,6.7,11.5,6.7,11.5l-4.2,2.4
	C-217.6,375.4-222.8,366.4-224.3,363.9C-224.3,363.9-224.3,363.9-224.3,363.9L-224.3,363.9L-224.3,363.9z"/>
<path class="st0" d="M-233.6,373.3L-233.6,373.3L-233.6,373.3C-234.3,373-233.6,373.3-233.6,373.3c2.1,1.2,11.2,6.5,11.2,6.5
	l-2.4,4.2c0,0-9.1-5.2-11.2-6.5C-238.6,376.1-236.3,371.7-233.6,373.3z"/>
<path class="st0" d="M-199.7,424.1h-10.9c-0.7,0-1.2-0.5-1.2-1.2l0,0c0-0.7,0.5-1.2,1.2-1.2h10.9c0.7,0,1.2,0.5,1.2,1.2l0,0
	C-198.5,423.6-199,424.1-199.7,424.1z"/>
<path class="st0" d="M-200.2,427.4h-9.6c-0.7,0-1.2-0.5-1.2-1.2l0,0c0-0.7,0.5-1.2,1.2-1.2h9.6c0.7,0,1.2,0.5,1.2,1.2l0,0
	C-199,426.9-199.5,427.4-200.2,427.4z"/>
<path class="st0" d="M-201.3,430.8h-7.3c-0.7,0-1.2-0.5-1.2-1.2l0,0c0-0.7,0.5-1.2,1.2-1.2h7.3c0.7,0,1.2,0.5,1.2,1.2l0,0
	C-200.1,430.3-200.7,430.8-201.3,430.8z"/>
</svg>
