<svg xmlns="http://www.w3.org/2000/svg" xmlns:xlink="http://www.w3.org/1999/xlink" version="1.0" x="0px" y="0px" viewBox="0 0 100 100" enable-background="new 0 0 100 100" xml:space="preserve"><path fill="none" stroke="#000000" stroke-width="2" stroke-linecap="round" stroke-linejoin="round" stroke-miterlimit="10" d="  M43.256,76.999c-0.002-6.46-2.465-12.924-7.396-17.857c-3.623-3.617-5.858-8.616-5.858-14.142c0-11.045,8.953-20,19.998-20  s19.999,8.954,19.999,20c0,5.525-2.236,10.524-5.856,14.142c-4.934,4.934-7.396,11.397-7.4,17.857H43.256z"></path><path fill="none" stroke="#000000" stroke-width="2" stroke-linecap="round" stroke-linejoin="round" stroke-miterlimit="10" d="  M56.741,76.999H43.254v10.5c0,1.375,1.127,2.501,2.501,2.501h8.485c1.375,0,2.501-1.126,2.501-2.501V76.999z"></path><path fill="none" stroke="#000000" stroke-width="2" stroke-linecap="round" stroke-linejoin="round" stroke-miterlimit="10" d="  M41.159,36.16c-4.882,4.881-4.882,12.795,0.002,17.68C36.277,48.955,36.277,41.041,41.159,36.16z"></path><path fill="none" stroke="#000000" stroke-width="2" stroke-linecap="round" stroke-linejoin="round" stroke-miterlimit="10" d="  M49.999,10v7.5V10z"></path><path fill="none" stroke="#000000" stroke-width="2" stroke-linecap="round" stroke-linejoin="round" stroke-miterlimit="10" d="  M36.606,12.663l2.872,6.932L36.606,12.663z"></path><path fill="none" stroke="#000000" stroke-width="2" stroke-linecap="round" stroke-linejoin="round" stroke-miterlimit="10" d="  M24.596,34.478l-6.932-2.873L24.596,34.478z"></path><path fill="none" stroke="#000000" stroke-width="2" stroke-linecap="round" stroke-linejoin="round" stroke-miterlimit="10" d="  M75.403,55.521l6.932,2.873L75.403,55.521z"></path><path fill="none" stroke="#000000" stroke-width="2" stroke-linecap="round" stroke-linejoin="round" stroke-miterlimit="10" d="  M63.394,12.663l-2.869,6.932L63.394,12.663z"></path><path fill="none" stroke="#000000" stroke-width="2" stroke-linecap="round" stroke-linejoin="round" stroke-miterlimit="10" d="  M24.596,55.521l-6.932,2.873L24.596,55.521z"></path><path fill="none" stroke="#000000" stroke-width="2" stroke-linecap="round" stroke-linejoin="round" stroke-miterlimit="10" d="  M82.338,31.605l-6.932,2.873L82.338,31.605z"></path><path fill="none" stroke="#000000" stroke-width="2" stroke-linecap="round" stroke-linejoin="round" stroke-miterlimit="10" d="  M22.501,45H10H22.501z"></path><path fill="none" stroke="#000000" stroke-width="2" stroke-linecap="round" stroke-linejoin="round" stroke-miterlimit="10" d="  M90,45H77.498H90z"></path><path fill="none" stroke="#000000" stroke-width="2" stroke-linecap="round" stroke-linejoin="round" stroke-miterlimit="10" d="  M30.556,64.443l-8.841,8.842L30.556,64.443z"></path><path fill="none" stroke="#000000" stroke-width="2" stroke-linecap="round" stroke-linejoin="round" stroke-miterlimit="10" d="  M78.283,16.715l-8.837,8.837L78.283,16.715z"></path><path fill="none" stroke="#000000" stroke-width="2" stroke-linecap="round" stroke-linejoin="round" stroke-miterlimit="10" d="  M78.283,73.281l-8.837-8.841L78.283,73.281z"></path><path fill="none" stroke="#000000" stroke-width="2" stroke-linecap="round" stroke-linejoin="round" stroke-miterlimit="10" d="  M21.717,16.711l8.839,8.841L21.717,16.711z"></path></svg>