<?xml version="1.0" encoding="iso-8859-1"?>
<!-- Generator: Adobe Illustrator 17.1.0, SVG Export Plug-In . SVG Version: 6.00 Build 0)  -->
<!DOCTYPE svg PUBLIC "-//W3C//DTD SVG 1.1//EN" "http://www.w3.org/Graphics/SVG/1.1/DTD/svg11.dtd">
<svg xmlns="http://www.w3.org/2000/svg" xmlns:xlink="http://www.w3.org/1999/xlink" version="1.1" id="Capa_1" x="0px" y="0px" viewBox="0 0 511 511" style="enable-background:new 0 0 511 511;" xml:space="preserve" width="512px" height="512px">
<g>
	<path d="M383.5,496h-9.151l-11.787-129.658c2.614-1.171,4.438-3.792,4.438-6.842c0-3.528-2.44-6.479-5.722-7.279L349.531,223h1.969   c4.142,0,7.5-3.358,7.5-7.5s-3.358-7.5-7.5-7.5h-3.333l-5.066-55.727c0.048-0.464,0.057-0.939,0.015-1.421   c-0.478-5.518,0.055-14.9,8.947-15.881c3.878-0.289,6.937-3.52,6.937-7.472c0-4.142-3.358-7.5-7.5-7.5h-0.147   c-0.006,0-0.013,0-0.019,0H343V95.5c0-4.142-3.358-7.5-7.5-7.5H295V55h0.5c4.142,0,7.5-3.358,7.5-7.5s-3.358-7.5-7.5-7.5h-1.223   C291.231,24.225,278.775,11.769,263,8.723V7.5c0-4.142-3.358-7.5-7.5-7.5S248,3.358,248,7.5v1.223   C232.225,11.769,219.769,24.225,216.724,40H215.5c-4.142,0-7.5,3.358-7.5,7.5s3.358,7.5,7.5,7.5h0.5v33h-40.5   c-4.142,0-7.5,3.358-7.5,7.5V120h-8.497c-0.258,0-0.513,0.013-0.766,0.039c-0.084,0.008-0.166,0.026-0.249,0.038   c-0.162,0.022-0.325,0.042-0.484,0.074c-0.178,0.036-0.351,0.085-0.524,0.133c-0.061,0.017-0.124,0.029-0.184,0.047   c-0.213,0.065-0.42,0.143-0.624,0.226c-0.019,0.008-0.038,0.013-0.057,0.021c-0.211,0.088-0.417,0.187-0.618,0.293   c-0.011,0.006-0.024,0.011-0.035,0.017c-0.186,0.1-0.366,0.21-0.542,0.325c-0.026,0.017-0.053,0.031-0.079,0.048   c-0.154,0.103-0.3,0.215-0.446,0.329c-0.045,0.035-0.093,0.067-0.138,0.103c-0.122,0.099-0.235,0.207-0.35,0.314   c-0.063,0.058-0.129,0.112-0.189,0.172c-0.093,0.092-0.178,0.191-0.266,0.288c-0.075,0.083-0.153,0.161-0.224,0.247   c-0.071,0.085-0.134,0.177-0.201,0.265c-0.079,0.104-0.161,0.206-0.235,0.314c-0.059,0.086-0.109,0.178-0.164,0.267   c-0.072,0.117-0.148,0.231-0.214,0.352c-0.058,0.105-0.106,0.217-0.158,0.325c-0.053,0.11-0.111,0.217-0.159,0.329   c-0.068,0.16-0.125,0.326-0.182,0.492c-0.023,0.066-0.051,0.129-0.072,0.196c-0.183,0.584-0.288,1.201-0.323,1.836   c-0.036,0.656,0.004,1.299,0.131,1.917c0.014,0.067,0.035,0.13,0.05,0.197c0.04,0.172,0.08,0.345,0.132,0.512   c0.039,0.126,0.089,0.248,0.134,0.372c0.038,0.104,0.071,0.209,0.114,0.31c0.06,0.144,0.131,0.282,0.2,0.421   c0.038,0.077,0.071,0.156,0.111,0.231c0.073,0.136,0.157,0.266,0.238,0.397c0.046,0.074,0.087,0.151,0.135,0.223   c0.078,0.116,0.165,0.226,0.249,0.338c0.061,0.081,0.118,0.165,0.182,0.243c0.075,0.092,0.158,0.177,0.238,0.266   c0.082,0.091,0.161,0.186,0.248,0.273c0.069,0.069,0.143,0.131,0.215,0.198c0.105,0.098,0.209,0.198,0.32,0.291   c0.064,0.053,0.133,0.099,0.198,0.15c0.125,0.097,0.249,0.195,0.38,0.285c0.067,0.045,0.138,0.083,0.206,0.126   c0.135,0.086,0.27,0.173,0.411,0.25c0.09,0.049,0.184,0.089,0.276,0.135c0.125,0.062,0.248,0.126,0.377,0.182   c0.147,0.063,0.3,0.113,0.451,0.167c0.079,0.028,0.155,0.061,0.236,0.086c0.477,0.149,0.974,0.253,1.486,0.305   c4.834,0.497,10.368,3.657,9.289,15.879c0,0.001,0,0.002,0,0.003L162.833,208H159.5c-4.142,0-7.5,3.358-7.5,7.5s3.358,7.5,7.5,7.5   h1.969l-11.747,129.221c-3.282,0.799-5.722,3.75-5.722,7.279c0,3.05,1.824,5.67,4.438,6.842L136.651,496H127.5   c-4.142,0-7.5,3.358-7.5,7.5s3.358,7.5,7.5,7.5h15.998c0.004,0,0.007,0,0.011,0c0.003,0,0.007,0,0.01,0h223.961   c0.003,0,0.007,0,0.01,0c0.004,0,0.007,0,0.011,0H383.5c4.142,0,7.5-3.358,7.5-7.5S387.642,496,383.5,496z M182.94,144   c-0.339-3.276-1.09-6.29-2.213-9h149.664c-1.108,2.71-1.851,5.724-2.186,9H182.94z M255.5,23c10.894,0,20.146,7.149,23.321,17   h-46.643C235.355,30.149,244.606,23,255.5,23z M231,55h49v33h-17V71.5c0-4.142-3.358-7.5-7.5-7.5s-7.5,3.358-7.5,7.5V88h-17V55z    M183,103h145v17H183V103z M182.349,159h146.301l4.455,49h-155.21L182.349,159z M334.469,223l11.727,129H164.804l11.727-129   H334.469z M163.44,367H347.56l11.727,129H151.713L163.44,367z" fill="#FFFFFF"/>
	<path d="M255.5,408c-4.142,0-7.5,3.358-7.5,7.5v24c0,4.142,3.358,7.5,7.5,7.5s7.5-3.358,7.5-7.5v-24   C263,411.358,259.642,408,255.5,408z" fill="#FFFFFF"/>
	<path d="M255.5,335c4.142,0,7.5-3.358,7.5-7.5v-16c0-4.142-3.358-7.5-7.5-7.5s-7.5,3.358-7.5,7.5v16   C248,331.642,251.358,335,255.5,335z" fill="#FFFFFF"/>
	<path d="M255.5,271c4.142,0,7.5-3.358,7.5-7.5v-16c0-4.142-3.358-7.5-7.5-7.5s-7.5,3.358-7.5,7.5v16   C248,267.642,251.358,271,255.5,271z" fill="#FFFFFF"/>
	<path d="M255.5,168c-4.142,0-7.5,3.358-7.5,7.5v16c0,4.142,3.358,7.5,7.5,7.5s7.5-3.358,7.5-7.5v-16   C263,171.358,259.642,168,255.5,168z" fill="#FFFFFF"/>
</g>
<g>
</g>
<g>
</g>
<g>
</g>
<g>
</g>
<g>
</g>
<g>
</g>
<g>
</g>
<g>
</g>
<g>
</g>
<g>
</g>
<g>
</g>
<g>
</g>
<g>
</g>
<g>
</g>
<g>
</g>
</svg>
