<svg height='100px' width='100px'  fill="#000000" xmlns="http://www.w3.org/2000/svg" xmlns:xlink="http://www.w3.org/1999/xlink" version="1.1" x="0px" y="0px" viewBox="0 0 100 100" enable-background="new 0 0 100 100" xml:space="preserve"><path d="M14.818,74.533c-3.516,0-6.375,2.86-6.375,6.375c0,3.516,2.859,6.375,6.375,6.375s6.375-2.859,6.375-6.375  C21.193,77.394,18.334,74.533,14.818,74.533z M14.818,84.283c-1.861,0-3.375-1.514-3.375-3.375c0-1.86,1.514-3.375,3.375-3.375  s3.375,1.515,3.375,3.375C18.193,82.77,16.68,84.283,14.818,84.283z M97.575,45.938c0.243-2.754-0.518-5.181-2.2-7.019  c-2.083-2.275-5.332-3.313-7.468-3.313l-8.255-0.001c-6.194,0-12.389,0-18.582-0.005c1.189-4.047,2.12-11.401,0.288-20.884  c-0.988-5.123-4.16-8.434-8.081-8.434c-0.009,0-0.114,0.001-0.123,0.001c-3.47,0.062-6.566,2.741-6.903,5.976  c-0.279,2.698-0.95,6.614-1.594,9.311C42.815,29.279,33.42,39.353,26.731,43.85c-0.51-1.926-2.267-3.35-4.351-3.35h-15.5  c-2.481,0-4.5,2.019-4.5,4.5v43.667c0,2.481,2.019,4.5,4.5,4.5h15.5c1.761,0,3.289-1.018,4.027-2.494  c4.116,2.046,8.757,3.044,14.116,3.044c0.283,0,0.568-0.003,0.854-0.009c2.867-0.055,7.748-0.081,14.921-0.081  c4.796,0,9.805,0.012,13.995,0.021c4.358,0.011,7.831,0.019,9.261,0.01c4.321-0.028,7.714-2.345,9.307-6.354  c1.278-3.213,0.307-5.777-1.165-7.53c2.029-0.694,4.331-2.223,5.186-5.576c0.811-3.185-0.3-5.586-1.815-7.196  c2.133-0.737,3.9-2.152,4.683-5.063c0.881-3.29-0.308-6.328-3.219-8.544C94.727,52.289,97.204,50.126,97.575,45.938z M23.881,88.667  c0,0.827-0.673,1.5-1.5,1.5h-15.5c-0.827,0-1.5-0.673-1.5-1.5V45c0-0.827,0.673-1.5,1.5-1.5h15.5c0.827,0,1.5,0.673,1.5,1.5V88.667z   M94.587,45.674c-0.465,5.246-5.823,5.839-5.878,5.844c-0.682,0.066-1.231,0.587-1.336,1.265c-0.104,0.677,0.264,1.339,0.894,1.607  c2.145,0.916,5.592,3.012,4.585,6.771c-0.62,2.309-1.991,3.177-5.642,3.575c-0.686,0.075-1.231,0.607-1.323,1.291  c-0.093,0.684,0.293,1.342,0.935,1.595c0.172,0.068,4.202,1.716,3.153,5.836c-0.917,3.601-4.542,3.887-5.732,3.887h-0.007  c-0.711-0.04-1.35,0.434-1.527,1.124c-0.177,0.689,0.155,1.409,0.795,1.722c0.17,0.083,4.135,2.072,2.571,6.006  c-1.532,3.855-4.755,4.451-6.539,4.463c-1.427,0.009-4.891,0.002-9.234-0.01c-4.192-0.01-9.204-0.021-14.002-0.021  c-7.191,0-12.091,0.027-14.978,0.082c-5.584,0.097-10.335-0.945-14.44-3.195V47.297c7.114-4.193,18.476-15.742,20.694-25.03  c0.67-2.807,1.368-6.886,1.66-9.697c0.179-1.716,2.034-3.251,4.042-3.286c2.416,0,4.433,2.356,5.136,6.003  c2.078,10.756,0.449,18.378-0.841,21.187c-0.213,0.464-0.176,1.005,0.101,1.435c0.275,0.431,0.75,0.69,1.262,0.691  c6.904,0.007,13.812,0.007,20.718,0.007l8.255,0.001c1.204,0,3.695,0.635,5.255,2.338C94.277,42.162,94.757,43.754,94.587,45.674z   M80.345,30.188c6.059-2.341,12.32-7.579,13.231-13.843c1.322-9.089-8.244-13.211-13.231-7.31  c-4.988-5.901-14.555-1.779-13.233,7.31C68.022,22.608,74.286,27.847,80.345,30.188z"></path></svg>