<svg height='100px' width='100px'  fill="#000000" xmlns="http://www.w3.org/2000/svg" xmlns:xlink="http://www.w3.org/1999/xlink" version="1.1" x="0px" y="0px" viewBox="0 0 100 100" enable-background="new 0 0 100 100" xml:space="preserve"><g><rect x="49.594" y="68.979" width="1.798" height="1.719"></rect><rect x="49.594" y="78.046" width="1.798" height="1.719"></rect><rect x="49.594" y="87.111" width="1.798" height="1.719"></rect><path d="M81.093,79.688c-0.227-8.394-4.006-12.476-9.831-15.335c1.754-4.59,14.603-40.663-9.054-53.985   c-9.626-5.423-23.126-1.364-26.49,4.01c-5.902,3.552-15.641,23.293-4.315,49.206c-6.774,2.906-11.267,6.932-11.507,16.106   c-0.264,9.887,1.571,12.507,1.78,12.773l0.271,0.341h28.521h0.053h28.518l0.271-0.341C79.517,92.196,81.351,89.576,81.093,79.688z    M36.798,15.832l0.225-0.123l0.128-0.223c2.504-4.39,14.998-8.721,24.177-3.553c22.215,12.512,10.104,46.909,8.298,51.667   c-0.395-0.17-0.791-0.337-1.2-0.498l-0.834-0.33c-3.955-1.555-7.37-2.897-8.441-5.8c-0.806-2.188-0.053-3.819,0.169-4.224   c3.237-2.789,5.733-6.848,6.352-11.025c1.25-0.288,2.476-1.573,3.164-3.376c0.973-2.53,0.528-4.953-1.027-5.633   c-0.604-0.267-1.305-0.229-1.977,0.107v-1.151c0-5.919-7.41-6.13-13.946-6.317c-8.745-0.249-10.816-2.324-13.188-5.713   l-0.772-1.104l-0.722,1.138c-2.312,3.638-2.366,9.809-2.205,13.069c-0.612-0.26-1.266-0.274-1.815-0.031   c-1.562,0.684-2.005,3.106-1.032,5.636c0.693,1.804,1.923,3.088,3.171,3.376c0.618,4.11,3.153,8.177,6.404,10.986   c0.255,0.535,0.876,2.177,0.11,4.261c-1.072,2.901-4.483,4.244-8.436,5.801l-0.33,0.13C22.558,38.866,30.854,19.047,36.798,15.832z    M50.502,61.982c-3.721,0-6.541-2.905-7.289-3.757c0.104-0.211,0.225-0.406,0.309-0.633c0.442-1.202,0.52-2.298,0.446-3.222   c2.036,1.271,4.224,2.035,6.334,2.035h0.381c2.133,0,4.317-0.736,6.343-1.977c-0.077,0.901-0.002,1.973,0.439,3.164   c0.084,0.23,0.209,0.43,0.312,0.643C57.023,59.099,54.228,61.982,50.502,61.982z M36.948,34.69   c-0.01-0.087-0.903-8.072,1.142-12.846c2.727,3.466,5.795,5.081,13.741,5.307c7.37,0.209,12.201,0.638,12.201,4.52v5.86   l1.622-2.205c0.506-0.686,1.01-0.982,1.428-0.966c0.463,0.203,0.729,1.639,0.073,3.345c-0.592,1.548-1.541,2.274-2.078,2.274   c-0.002,0-0.006,0-0.009,0l-1.003-0.23l-0.093,1.025c-0.616,6.853-7.324,13.835-13.29,13.835h-0.381   c-5.309,0-12.63-6.514-13.286-13.835l-0.171-1.016l-1.002,0.229c-0.458,0-1.417-0.726-2.016-2.285   c-0.656-1.703-0.39-3.14,0.195-3.367c0.287,0,0.804,0.307,1.31,0.992l2.005,2.718L36.948,34.69z M42.233,59.825   c1.11,1.164,3.562,3.328,6.839,3.843c-0.963,1.411-2.654,2.644-4.409,2.644c-1.267,0-2.412-0.641-3.41-1.903   C39.914,62.716,41.329,60.782,42.233,59.825z M58.762,59.829c0.899,0.959,2.311,2.901,0.985,4.579   c-0.997,1.263-2.146,1.903-3.41,1.903c-1.753-0.002-3.444-1.232-4.408-2.644C55.203,63.153,57.65,60.995,58.762,59.829z    M78.071,91.006H50.52h-0.053H22.915c-0.427-0.955-1.417-3.985-1.222-11.271c0.229-8.732,4.582-12.199,11.532-14.961l0.833-0.33   c1.732-0.681,3.414-1.356,4.899-2.166c-0.158,1.061,0.042,2.181,0.885,3.248c1.688,2.135,3.555,2.584,4.821,2.584   c2.366,0,4.557-1.547,5.839-3.378c1.281,1.831,3.471,3.376,5.835,3.378c1.267,0,3.131-0.449,4.821-2.584   c0.839-1.064,1.043-2.181,0.887-3.237c1.481,0.806,3.158,1.478,4.888,2.159l0.828,0.326c6.947,2.76,11.299,6.228,11.534,14.961   C79.486,87.045,78.487,90.071,78.071,91.006z"></path></g></svg>