<?xml version="1.0" encoding="utf-8"?><!DOCTYPE svg PUBLIC "-//W3C//DTD SVG 1.1//EN" "http://www.w3.org/Graphics/SVG/1.1/DTD/svg11.dtd"><svg version="1.1" xmlns="http://www.w3.org/2000/svg" xmlns:xlink="http://www.w3.org/1999/xlink" x="0px" y="0px" viewBox="0 0 68 100" enable-background="new 0 0 68 100" xml:space="preserve"><path d="M60.5,41.338V26.5C60.5,11.888,48.611,0,34,0S7.5,11.888,7.5,26.5v14.838L0,42v55l34,3l34-3V42L60.5,41.338z M38,77.5h-4h-4
	l2.291-8.396C30.94,68.461,30,67.096,30,65.5c0-2.21,1.791-4,4-4c2.21,0,4,1.79,4,4c0,1.596-0.939,2.961-2.289,3.603L38,77.5z
	 M52.5,40.633L34,39l-18.5,1.633V26.5C15.5,16.299,23.799,8,34,8s18.5,8.299,18.5,18.5V40.633z"></path></svg>