<svg height='100px' width='100px'  fill="#000000" xmlns="http://www.w3.org/2000/svg" xmlns:xlink="http://www.w3.org/1999/xlink" version="1.1" x="0px" y="0px" viewBox="0 0 100 100" enable-background="new 0 0 100 100" xml:space="preserve"><g><path d="M97.304,85.979l-21.18-21.179c-3.174,1.076-6.747,0.599-9.562-1.423c13.208-14.863,12.698-37.707-1.54-51.947   c-14.774-14.775-38.815-14.775-53.59,0c-14.775,14.776-14.775,38.816,0,53.592c14.239,14.239,37.084,14.748,51.944,1.54   c2.021,2.813,2.499,6.387,1.424,9.562l21.178,21.179c3.128,3.128,8.198,3.128,11.327-0.001   C100.431,94.176,100.431,89.106,97.304,85.979z M38.228,67.175C22.265,67.172,9.28,54.188,9.28,38.227   C9.281,22.266,22.265,9.28,38.226,9.28c15.962,0,28.946,12.985,28.947,28.947C67.172,54.188,54.188,67.173,38.228,67.175z"></path><path d="M38.226,12.105c-14.307,0-25.945,11.64-25.946,25.946C12.28,52.36,23.919,63.997,38.228,64   c14.307-0.002,25.944-11.64,25.945-25.947C64.172,23.745,52.534,12.105,38.226,12.105z M57.008,41.812   c-1.763,0-3.19-1.428-3.19-3.188c0-8.811-7.167-15.981-15.981-15.981c-1.762,0-3.189-1.429-3.189-3.19   c0-1.763,1.428-3.189,3.19-3.191c12.328,0,22.358,10.031,22.358,22.362C60.198,40.385,58.77,41.814,57.008,41.812z"></path></g></svg>