<svg xmlns="http://www.w3.org/2000/svg" xmlns:xlink="http://www.w3.org/1999/xlink" width="100" height="100" viewBox="0 0 100 100"><rect width="100%" height="100%" fill="#FFFFFF"></rect><g transform="translate(50 50) scale(0.69 0.69) rotate(0) translate(-50 -50)" style="fill:#333333"><svg fill="#333333" xmlns="http://www.w3.org/2000/svg" xmlns:xlink="http://www.w3.org/1999/xlink" version="1.1" x="0px" y="0px" viewBox="0 0 33 33" enable-background="new 0 0 33 33" xml:space="preserve"><path d="M8.462,11.049c0.086,1.262,0.549,2.09,1.381,2.467c0.99,3.916,3.461,6.242,6.656,6.242c3.197,0,5.668-2.326,6.658-6.242  c0.832-0.379,1.295-1.207,1.381-2.467c0.076-1.119-0.316-1.773-0.75-2.158c0.072-0.225,0.131-0.451,0.145-0.688  C23.968,7.621,24.44,0.5,16.499,0.5c-7.939,0-7.467,7.121-7.432,7.703c0.014,0.236,0.07,0.463,0.145,0.688  C8.778,9.273,8.386,9.93,8.462,11.049z M9.862,10.666c0.314,1.068,0.771,0.564,0.771,0.564c-0.146-0.559-0.031-1.188,0.018-1.744  c0.225-2.545,1.98-4.768,1.98-4.768s1.408,0.684,3.867,0.684c2.461,0,3.867-0.684,3.867-0.684s1.758,2.223,1.982,4.768  c0.049,0.557,0.164,1.186,0.016,1.744c0,0,0.459,0.504,0.771-0.564c0.031-0.104,0.066-0.188,0.098-0.283  c0.053,0.217,0.09,0.42,0.078,0.584c-0.088,1.285-0.613,1.432-0.838,1.494l-0.355,0.098l-0.08,0.357  c-0.385,1.688-1.689,5.613-5.539,5.613c-3.848,0-5.154-3.926-5.537-5.613l-0.082-0.357l-0.354-0.098  c-0.225-0.063-0.75-0.207-0.838-1.494c-0.02-0.275,0.004-0.488,0.051-0.662C9.78,10.424,9.823,10.533,9.862,10.666z"></path><path d="M12.632,13.055h2.012c1.045,0,1.689-1.504,1.713-2.617h0.287c0.021,1.113,0.668,2.617,1.713,2.617h2.01  c1.088,0,1.41-0.898,1.646-1.816c0.189-0.738,0.055-1.547-0.344-2.061c-0.227-0.293-0.52-0.453-0.824-0.453h-2.84  c-0.457,0-0.84,0.197-1.078,0.555c-0.045,0.068-0.068,0.156-0.104,0.234h-0.646c-0.035-0.078-0.059-0.166-0.104-0.234  c-0.24-0.357-0.623-0.555-1.078-0.555h-2.84c-0.307,0-0.598,0.16-0.824,0.453c-0.398,0.514-0.533,1.322-0.344,2.061  C11.224,12.156,11.546,13.055,12.632,13.055z M17.692,9.793c0.049-0.072,0.123-0.146,0.313-0.146l2.828-0.002  c0.152,0.047,0.471,0.646,0.287,1.363c-0.27,1.049-0.465,1.123-0.754,1.123h-2.01c-0.254,0-0.795-0.83-0.795-1.756  C17.562,10.125,17.608,9.918,17.692,9.793z M12.155,9.646h2.84c0.189,0,0.264,0.074,0.313,0.146  c0.084,0.125,0.131,0.332,0.131,0.582c0,0.926-0.541,1.756-0.795,1.756h-2.012c-0.287,0-0.482-0.074-0.752-1.123  C11.694,10.291,12.015,9.691,12.155,9.646z"></path><path d="M6.514,26.963c0.098,0.36,0.19,0.7,0.239,1.019c0.123,0.793,0.396,1.305,0.837,1.564c0.212,0.125,0.453,0.188,0.726,0.188  c0.272,0,0.578-0.062,0.918-0.187c0.239-0.087,0.362-0.352,0.275-0.591s-0.352-0.364-0.591-0.275  c-0.277,0.101-0.651,0.194-0.859,0.071c-0.182-0.107-0.319-0.423-0.395-0.911c-0.058-0.369-0.161-0.751-0.26-1.119  c-0.421-1.557-0.584-2.465,0.97-3.032c1.554-0.568,2.016,0.23,2.698,1.692c0.161,0.347,0.328,0.704,0.522,1.023  c0.256,0.423,0.355,0.752,0.285,0.952c-0.065,0.185-0.301,0.352-0.701,0.499c-0.24,0.088-0.362,0.353-0.275,0.591  c0.088,0.24,0.354,0.363,0.591,0.275c0.682-0.25,1.093-0.597,1.255-1.061c0.169-0.482,0.049-1.05-0.367-1.735  c-0.168-0.276-0.317-0.596-0.475-0.935c-0.569-1.224-1.342-2.87-3.488-2.281C8.292,22.14,8.23,21.592,8.2,21.098  c-0.296,0.154-0.59,0.321-0.882,0.502c0.045,0.458,0.115,0.945,0.234,1.448C5.717,23.998,6.171,25.696,6.514,26.963z"></path><path d="M21.641,25.384c-0.887,0.526-1.199,1.641-0.697,2.487c0.502,0.85,1.629,1.116,2.516,0.59  c0.888-0.524,1.201-1.637,0.698-2.488c-0.008-0.014-0.019-0.023-0.027-0.036c1.021-1.38,1.42-2.989,1.554-4.335  c-0.292-0.181-0.586-0.348-0.881-0.502c-0.075,1.264-0.392,2.867-1.358,4.216C22.902,25.04,22.223,25.04,21.641,25.384z   M22.929,27.563c-0.369,0.22-0.837,0.108-1.047-0.246c-0.208-0.352-0.079-0.815,0.29-1.034c0.37-0.219,0.838-0.108,1.047,0.245  C23.429,26.882,23.298,27.344,22.929,27.563z"></path><path d="M29.231,22.453c-2.022-2.849-6.974-4.29-7.184-4.35L21.51,17.95l-0.204,0.521c-0.197,0.503-0.502,1.037-0.855,1.573  c-1.156,0.887-2.453,1.087-3.951,1.087c-1.499,0-2.796-0.201-3.952-1.088c-0.352-0.535-0.657-1.069-0.854-1.572L11.49,17.95  l-0.538,0.153c-0.209,0.06-5.161,1.501-7.184,4.35c-1.182,1.665-1.714,4.636-1.714,6.213v0.225L2.2,29.063  C2.319,29.203,5.235,32.5,16.5,32.5s14.181-3.297,14.3-3.438l0.145-0.172v-0.225C30.945,27.089,30.413,24.118,29.231,22.453z   M16.5,31.271c-9.233,0-12.514-2.271-13.21-2.862c0.055-1.477,0.567-3.955,1.482-5.244c1.424-2.005,4.739-3.284,6.011-3.715  c1.424,2.935,5.141,6.282,5.308,6.432l0.41,0.367l0.41-0.367c0.167-0.149,3.883-3.497,5.308-6.432  c1.271,0.431,4.587,1.71,6.011,3.715c0.915,1.289,1.426,3.767,1.482,5.243C29.003,29.006,25.718,31.271,16.5,31.271z"></path></svg></g></svg>