<svg xmlns="http://www.w3.org/2000/svg" xmlns:xlink="http://www.w3.org/1999/xlink" width="100" height="100" viewBox="0 0 100 100"><g><g transform="translate(50 50) scale(0.69 0.69) rotate(0) translate(-50 -50)" style="fill:#000000"><svg fill="#000000" xmlns="http://www.w3.org/2000/svg" xmlns:xlink="http://www.w3.org/1999/xlink" version="1.1" x="0px" y="0px" viewBox="0 0 100 100" style="enable-background:new 0 0 100 100;" xml:space="preserve"><path d="M66,63.7c0.4,7.1,0.2,13.3-0.6,19c1.7,0,3.8-0.4,6.7-1.7c-0.8-6.4-2.6-12.3-5.1-17.6  C66.6,63.5,66.3,63.6,66,63.7z"></path><path d="M72.3,51.9c-0.1-0.1-0.2-0.1-0.3-0.1c-0.1,0-0.1,0-0.2,0c-0.2,0.1-0.2,0.3-0.1,0.4  c0.1,0.1,0.1,0.2,0.2,0.3c0.3,0.5,0.5,1.1,0.6,1.7c0.1,0.3,0.1,0.6,0.1,0.9c0,0.1,0,0.3,0,0.4c0,0.1,0,0.1,0,0.2c0,0,0,0.1,0,0.1  c0,0,0,0.1,0,0.1c0,0-0.1,0.1-0.1,0.1c-0.3,0.5-0.7,0.9-1.2,1.3c-0.3,0.2-0.5,0.3-0.8,0.4c-0.3,0.1-0.6,0.1-0.8,0.1c0,0-0.1,0-0.1,0  c-0.3,0-0.6-0.1-1-0.1c-0.3-0.1-0.6-0.2-0.9-0.4c0,0,0,0,0,0c-0.5-0.3-1.1-0.6-1.5-1c0-0.1,0-0.1,0-0.2c-0.1-0.6-0.2-1.3-0.2-2  c-0.1-0.7-0.1-1.3-0.1-2c0-0.7,0.1-1.3,0.1-2c0-0.1-0.1-0.3-0.2-0.3c0,0,0,0-0.1,0c-0.1,0-0.3,0.1-0.3,0.2c-0.2,1.1-0.3,2.2-0.4,3.3  c0,1.1,0,2.2,0.1,3.3c0,0,0,0.2,0,0.2l0.2,0.1c0.1,0.1,0.3,0.2,0.4,0.3c0.2,0.2,0.4,0.3,0.6,0.5c0.3,0.2,0.5,0.4,0.8,0.5  c0.4,0.2,0.7,0.3,1.1,0.4c0.4,0.1,0.8,0.2,1.2,0.2c0.1,0,0.1,0,0.1,0c0.4,0,0.8-0.1,1.2-0.2c0.4-0.1,0.8-0.3,1.1-0.6  c0.7-0.5,1.2-1.1,1.6-1.8l0,0l0.1-0.1l0-0.2C73.7,54.5,73.2,53,72.3,51.9z"></path><path d="M22.8,67.7l0.6,16.2c3,0.8,5.1,1.1,9.2,0.4c0.3-4.4,0.1-8.6-0.8-12.4C29.6,71.2,27.1,70,22.8,67.7z"></path><path d="M77.7,13.1c-0.9-1.7-1.6-3.1-2.2-4c-0.1-0.2-0.2-0.4-0.3-0.5c-0.1-0.2-0.2-0.3-1.3-1.3l-0.9-0.8  c-1.1-1-1.2-1.1-1.3-1.1c-0.7-0.3-1.2,0-2.6,0.6c-0.3,0.1-0.6,0.3-1,0.4c-0.8,0.3-2.1,0.9-3.4,1.3c-1.4,0.4-2.4,0.5-3.2,0.6  c-1.1,0.1-1.8,0.2-2.7,1c-0.6,0.6-1,1.2-1.3,1.6c-0.1,0.2-0.2,0.3-0.2,0.4c-0.8,0.9-0.8,2.9-0.7,3.5c0.1-0.2,0.4-0.5,1-1.5  c0.1-0.2,0.3-0.4,0.6-0.4c0.2,0,0.5,0.1,0.6,0.3c0.4,0.5,0.9,1.3,1.1,1.9c0,0.1,0.1,0.1,0.1,0.1c0,0,0.1,0,0.1,0  c0.4-0.4,0.8-0.9,1-1.4c0.1-0.2,0.3-0.4,0.5-0.4c0.2,0,0.4,0,0.6,0.2c0.5,0.5,1,0.9,1.7,1.1c0,0,0.1,0,0.1,0  c0.5-0.8,1.2-1.4,2.1-1.7c0.3-0.1,0.7,0,1,0.3c0.8,1,1.4,2.1,1.7,3.4c0,0,0,0.1,0.1,0.1c1-0.6,1.7-1.7,2.3-3.3  c0.1-0.2,0.2-0.3,0.4-0.3c0,0,0,0,0,0c0.2,0,0.3,0.1,0.4,0.3c0.4,1.5,1.1,2.9,2.1,3.9c0.1-1.7,0.4-3.2,1-4.5  c0.1-0.2,0.2-0.3,0.3-0.4c0.7,0.2,1.4,0.6,2.2,1.2C77.5,13.9,77.9,13.5,77.7,13.1z"></path><path d="M94.5,63.6c-1.2-0.8-2.5,1.1-5.4,1.3c-2.7,0.2-4.9-1.1-5.5-1.5C83,63,82.5,62.5,82,62  c0.1-0.1,0.1-0.1,0.2-0.2c1.3,0,2.6-0.3,3.9-0.7c2.5-1,4.7-3,6.4-5.6c1.9-3.1,2.9-6.9,2.9-10.9c0-1.8-0.3-3.7-0.7-5.6  c-0.3-1.1-0.8-1.8-1.4-1.7c-0.4,0.1-0.8,0.4-0.7,1.6c0.1,1.8,0.1,3.5-0.2,5.1c-0.5,3.5-2,6.6-4.1,8.8c0.5-1.9,0.8-4,0.8-6.1  c0-1.8-0.3-3.7-0.7-5.6c-0.3-1.2-0.8-1.8-1.4-1.7c-0.4,0.1-0.8,0.4-0.7,1.6c0.1,1.8,0.1,3.5-0.2,5.1c-0.5,3.6-2.1,6.8-4.3,9  c0,0,0.1-0.1,0.1-0.1c-0.8-0.3-1.6-1-1.9-1.7L79.9,53c-0.1-0.4-0.1-0.8-0.3-1.2c-0.1-0.4-0.3-0.7-0.4-1c-0.2-0.3-1.5-1.3-1.5-1.3  c0.1-2.1,0.6-4.2,0.7-6.3c0.3-3.7,0.6-7.3,0.5-11c0-1.9-0.1-3.9,0-5.9h0c0,0,0,0,0,0c0.4,0,0.8-0.2,1-0.4c0.5-0.4,0.8-0.9,0.9-1.2  c0-0.2,0.1-0.3,0.1-0.4c0-0.1,0-0.1,0-0.1l0,0c0,0,0-0.8-0.5-1.9c-0.2-0.3-0.3-0.6-0.7-0.8c0,0-0.1,0-0.1,0c0.2-1.2,0.4-2.5-0.1-3.6  c0,0,0-0.1,0-0.1c-0.4-0.9-1.2-1.6-1.8-2.5c-0.2-0.3-0.4-0.6-0.5-0.9c-0.6-0.4-1.2-0.7-1.7-0.8c0,0-0.1,0-0.1,0  c-0.6,1.1-0.9,2.4-1,4c0,0.2-0.1,0.4-0.3,0.4c-0.1,0-0.1,0-0.2,0c-0.1,0-0.2,0-0.3-0.1c-1-0.9-1.7-2.1-2.2-3.4  c-0.6,1.3-1.3,2.3-2.3,2.8c-0.2,0.1-0.3,0.1-0.5,0c-0.2-0.1-0.3-0.2-0.4-0.4c-0.3-1.1-0.8-2-1.6-2.8c-0.1-0.1-0.3-0.2-0.4-0.1  c-0.7,0.3-1.4,0.7-1.8,1.3c-0.1,0.2-0.4,0.3-0.6,0.3c-0.8-0.2-1.4-0.5-2-1.1c-0.1-0.1-0.1-0.1-0.2,0c0,0-0.1,0-0.1,0.1  c-0.3,0.6-0.7,1-1.1,1.4c-0.2,0.1-0.4,0.2-0.6,0.1c-0.2-0.1-0.4-0.2-0.4-0.4c-0.1-0.4-0.5-0.9-1-1.5c0-0.1-0.1-0.1-0.2-0.1  c-0.1,0-0.1,0-0.2,0.1c-1,1.5-1.3,1.6-1.4,1.6c0,0,0,0,0,0c-0.2,0.9-0.9,1.5-2.2,2.4c-4,2.7-7.7,4.6-12.6,4.5  c-2.8-0.1-5.6-0.5-8.3-0.4c-4.8,0.2-9.5,1.9-13.9,4c-3.2,1.5-6.3,3.4-8.6,6c-2.7,3.1-4.1,7.1-4.7,11.2c-0.3,2.4-0.8,4.9-0.8,7.3  c0,0.4,0.4,0.6,0.7,0.4L8.5,50c0.2-0.1,0.5,0,0.7,0.2l1,1.7c0.1,0.2,0.4,0.3,0.7,0.2l4.4-2c0.2-0.1,0.4-0.1,0.6,0.1l4.6,4  c0.1,0.1,0.1,0.2,0,0.2c-0.1,0.1-0.2,0.1-0.2,0l-4.5-3.1c-0.1-0.1-0.3-0.1-0.5,0l-4.7,2.1c-0.2,0.1-0.5,0-0.7-0.2l-1-1.6  c-0.1-0.2-0.4-0.3-0.7-0.2l-2,1c0.1,1.2,0.3,2.4,0.3,3.5c-0.1,1.4-0.7,2.7-0.9,4.1c-0.2,1.2,0,2.6,0.9,3.5c0-1.4,0.5-2.8,1.4-4  c0.1-0.1,0.1-0.2,0.3-0.2c0.3-0.1,0.4,0.3,0.5,0.6c0.7,4.2,1.4,8.4,1.8,12.6l1.4,2l1.1-4.7c0-0.2,0.2-0.3,0.3-0.2  c0.1,0,0.2,0.1,0.2,0.2l1.1,2.5l1.5-2.5c0.1-0.1,0.2-0.1,0.3-0.1c0.1,0.1,0.1,0.2,0.1,0.3l-1.6,3.3c-0.1,0.2-0.3,0.2-0.5,0.2  c-0.1,0-0.1-0.1-0.2-0.2l0,0l-0.9-2.3l-0.8,4.9c0,0.3-0.3,0.5-0.6,0.4c-0.1,0-0.3-0.1-0.3-0.2l0,0l-1-1.5c0.1,1.5,0.2,3.1,0.3,4.6  c0,0.6-0.2,6.4,0.1,6.5c4.5,1.9,8.8,2.7,12.1,0.5l-0.7-19.3c6.9,3.6,9.4,4.9,13.2,5c3.9,0.1,8.3-1.1,8.8-1.2c2.5-0.7,4.3-1.5,5-1.8  c2.9-1.3,3.1-2,4.6-2.8c0.1,2.7,0.1,5.4-0.1,8.1l1.4,1.9l1.3-5.4c0-0.2,0.2-0.3,0.4-0.3c0.1,0,0.2,0.1,0.2,0.2l1.3,2.9l1.8-2.9  c0.1-0.1,0.2-0.1,0.3-0.1c0.1,0.1,0.1,0.2,0.1,0.3l-1.9,3.8c-0.1,0.2-0.3,0.3-0.6,0.2c-0.1,0-0.2-0.1-0.2-0.2l0,0l-1.1-2.6L56,77.6  c-0.1,0.3-0.4,0.5-0.7,0.5c-0.2,0-0.3-0.1-0.4-0.2l0,0L53.7,76c-0.2,2.1-0.5,4.2-0.9,6.3c4.1,1.6,8.2,2.2,12,0.4  c0.9-6.1,1.1-12.6,0.6-19.4c0.1,0,0.1,0,0.2,0c0.7-0.2,1.3-0.4,1.9-0.8c0.3-0.2,0.8-0.8,1.2-0.9c0.1,0,0.2,0,0.3,0  c0.6,0.4,1.2,0.8,1.8,1.1c0.2,0.1,0.4,0.2,0.5,0.4c0.1,0.1,0.3,0.3,0.4,0.5c0.9,1.4,1.8,2.8,2.9,4.1c1.8,2.2,4,3.3,6.7,4.3  c1.2,0.4,3.6,1.2,6.6,1c1.3-0.1,3.1-0.2,4.8-1.4c0.5-0.3,1.4-1,2.1-2.2c0.7-1.2,0.7-2.4,0.7-2.9C95.4,65.6,95.3,64.1,94.5,63.6z   M79.5,21.4C79.5,21.4,79.5,21.4,79.5,21.4C79.5,21.4,79.5,21.4,79.5,21.4C79.5,21.4,79.5,21.4,79.5,21.4z M78.2,23.9l0-0.1  c0-0.2,0.2-0.5,0.2-0.7c0.1-0.2,0.2-0.4,0.3-0.5c0.1,0,0.1-0.1,0.1-0.1c-0.1,0,0.2,0,0.1,0c0,0,0,0,0.1,0c0.2,0,0.4,0.2,0.5,0.3  c0.3,0.3,0.5,0.7,0.5,1c0.1,0.3,0.1,0.4,0.1,0.4c0,0,0,0,0,0.1c0,0.1,0,0.1-0.1,0.3c-0.1,0.2-0.3,0.6-0.7,0.7  c-0.2,0.1-0.4,0.1-0.6,0c-0.3-0.1-0.4-0.2-0.5-0.3c-0.1-0.1-0.2-0.3-0.2-0.5c0-0.1,0-0.2,0-0.3C78.1,24.2,78.2,24,78.2,23.9z   M38.9,60.9l-2.5,3.7c-0.1,0.2-0.5,0.3-0.7,0.1c-0.1,0-0.1-0.1-0.1-0.1l0,0L34.5,63l-1.9,3.8c-0.1,0.3-0.4,0.4-0.7,0.2  c-0.1-0.1-0.2-0.2-0.3-0.3l-2.1-6.8l-2.9,3.4l0,0c-0.2,0.2-0.5,0.2-0.7,0.1c-0.1-0.1-0.1-0.1-0.1-0.2l-1.5-4.2c0-0.1,0-0.2,0.1-0.3  c0.1,0,0.2,0,0.3,0.1l1.6,3.3l3-3.5c0.2-0.2,0.5-0.2,0.7-0.1c0.1,0.1,0.1,0.1,0.2,0.2l2,6.5l1.7-3.4c0.1-0.3,0.4-0.4,0.7-0.2  c0.1,0,0.1,0.1,0.2,0.2l1.2,1.7l2.5-2.9c0.1-0.1,0.2-0.1,0.3,0C38.9,60.6,38.9,60.8,38.9,60.9z M45.9,45.2c-0.1,0.4-0.5,0.5-0.9,0.4  c-0.1,0-0.2-0.1-0.2-0.1l0,0l-2-1.7l-1.3,5.7c-0.1,0.4-0.5,0.6-0.8,0.5c-0.2,0-0.4-0.2-0.4-0.3l-5.1-8.4l-2.8,5.4l0,0  c-0.2,0.3-0.6,0.5-0.9,0.3c-0.1-0.1-0.2-0.1-0.3-0.2l-3.3-5.2c-0.1-0.1-0.1-0.3,0.1-0.4c0.1-0.1,0.3-0.1,0.4,0.1l3.3,3.9l2.9-5.6  c0.2-0.3,0.6-0.5,1-0.3c0.1,0.1,0.2,0.2,0.3,0.3l4.8,8l1.2-5.1c0.1-0.4,0.5-0.6,0.8-0.5c0.1,0,0.2,0.1,0.3,0.2l2.2,1.9l2.4-4.6  c0.1-0.2,0.3-0.2,0.4-0.1c0.1,0.1,0.2,0.2,0.2,0.4L45.9,45.2z M57.3,58.6c-0.1,0.1-0.3,0.1-0.4,0.1l-1.2-0.7c0,0.9-0.1,1.9-0.1,2.8  l0,1.9l0,0.5c0,0.1,0,0.2,0,0.2l0,0l0,0c0,0,0,0.1,0,0.1c0,0.1-0.1,0.2-0.2,0.2c-0.1,0-0.1,0-0.2,0c-0.2-0.1-0.1-0.1-0.2-0.1  c0,0-0.1-0.1-0.1-0.1c-0.2-0.3-0.4-0.6-0.5-0.8c-0.6-1.1-1.2-2.2-1.7-3.3c-0.3-0.6-0.7-1.3-1-1.9l-0.7,4c0.2,0.2,0.1,0.4,0,0.6  c-0.2,0.2-0.4,0.1-0.6,0L50,61.7l-1.5-1.7c-0.1-0.1-0.1-0.3,0-0.4c0.1-0.1,0.2-0.1,0.3,0l1.1,0.8l0.8-4.7c0-0.3,0.3-0.5,0.6-0.4  c0.2,0,0.3,0.1,0.4,0.3l0,0c0.9,2.3,1.9,4.5,3.1,6.7c0,0,0,0.1,0.1,0.1l0-1.7c0-1.2-0.1-2.5-0.2-3.7l0,0l0,0c0-0.3,0.2-0.5,0.5-0.5  c0.1,0,0.3,0,0.4,0.1l1.7,1.5C57.4,58.2,57.4,58.4,57.3,58.6z M62.3,35c0,0,0,0.7,0,1.8c0,0.3,0,0.6,0,0.9l0,0.1l0,0.1l0,0.1  c0,0.1-0.1,0.2-0.2,0.3c-0.1,0.2-0.5,0.2-0.6,0.1l-0.1,0l-0.1-0.1c-0.2-0.1-0.3-0.2-0.5-0.3c-0.1-0.1-0.3-0.2-0.5-0.2  c0,0.2,0,0.4,0,0.6c0,0.2,0,0.5,0,0.7l0,0.2l0,0c0,0.1,0,0.2-0.1,0.2C60.1,39.9,60,40,59.8,40c-0.1,0-0.4-0.1-0.4-0.1l0,0l-0.3-0.2  c-0.4-0.3-0.9-0.6-1.4-0.9c-0.4-0.2-0.7-0.5-1.1-0.7l-0.1,0.2c-0.1,0.3-0.2,0.6-0.4,0.8c-0.1,0.3-0.2,0.6-0.4,0.8l-0.2,0.4l-0.1,0.2  c-0.1,0.4-0.7,0.4-0.9,0l-0.1-0.1c-0.3-0.6-0.5-1.1-0.8-1.7c-0.6-1.2-1.1-2.3-1.7-3.5c-0.6-1.2-1.1-2.4-1.7-3.5l-0.2-0.4l-0.1-0.2  l0-0.1l0,0c0,0.1,0-0.2,0-0.2l0,0l0,0c0,0.1,0-0.2,0-0.2l0,0l0-0.1l0.4-0.8c0.3-0.6,0.6-1.1,0.9-1.6c1.1-2.2,2.2-4.2,3.1-5.9  c0.2-0.4,0.4-0.8,0.7-1.2l0.1-0.1l0-0.1l0,0c0,0,0,0,0.1-0.1c0.1-0.1,0.2-0.1,0.2-0.1c0.1,0,0.2,0.1,0.2,0.1l0.1,0l0.1,0.1  c0.2,0.1,0.4,0.2,0.5,0.3c0.7,0.4,1.3,0.7,1.8,1c1,0.6,1.6,0.9,1.6,0.9c0.1,0.1,0.2,0.2,0.1,0.4c-0.1,0.1-0.2,0.2-0.4,0.1  c0,0-0.6-0.3-1.6-0.9c-0.5-0.3-1.1-0.6-1.8-1c-0.2-0.1-0.3-0.2-0.5-0.3l0,0c-0.2,0.4-0.4,0.8-0.6,1.2c-0.9,1.7-1.9,3.8-3.1,6  c-0.3,0.5-0.6,1.1-0.9,1.7l-0.4,0.8l0.1,0.2l0.2,0.4c0.6,1.2,1.1,2.3,1.7,3.5c0.6,1.2,1.2,2.3,1.7,3.5c0.2,0.4,0.4,0.7,0.5,1.1  c0.1-0.2,0.2-0.5,0.3-0.7c0.1-0.3,0.2-0.6,0.3-0.8l0.2-0.4l0.1-0.2l0-0.1l0-0.1c0.1-0.1,0.1-0.2,0.2-0.2c0.2-0.1,0.4-0.1,0.5,0l0,0  c0.5,0.3,1,0.6,1.4,0.9c0.4,0.2,0.7,0.5,1.1,0.7c0-0.1,0-0.1,0-0.2c0-0.2,0-0.5,0-0.7l0-0.3l0-0.2l0-0.1c0,0,0,0,0-0.1  c0-0.2,0.1-0.3,0.2-0.4c0.1-0.1,0.3-0.1,0.4-0.1c0,0,0.1,0,0.1,0l0,0l0,0l0.1,0l0.1,0.1l0.3,0.1c0.2,0.1,0.4,0.2,0.6,0.3  c0,0,0,0,0.1,0c0-0.1,0-0.3,0-0.5c0-1.1,0-1.8,0-1.8c0-0.3,0.2-0.5,0.5-0.5C62,34.5,62.3,34.7,62.3,35C62.3,35,62.3,35,62.3,35z   M88.8,53.8c2.4-2.3,4-5.8,4.6-9.6c0.2-1.6,0.3-3.4,0.2-5.2c0,0.1,0.1,0.2,0.1,0.3c0.4,1.8,0.6,3.6,0.7,5.4c0,3.8-0.9,7.4-2.7,10.4  c-1.5,2.4-3.6,4.3-5.9,5.2c-0.7,0.3-1.4,0.4-2.1,0.6c0.9-0.9,1.8-1.9,2.5-3.1c0.6-0.9,1-1.9,1.4-2.8c0,0,0,0,0,0  C88,54.5,88.4,54.1,88.8,53.8z M79.7,54.6c0.4,0.4,0.9,0.8,1.4,1.1c-0.7,0.6-1.4,1-2.2,1.3c-0.2-0.4-0.3-0.8-0.5-1.1  C78.9,55.6,79.3,55.2,79.7,54.6z M68.7,23.3c0.6,0,1.1,1,1.1,1.6c0,0.6-0.5,1.1-1.1,1.1c-0.6,0-1.1-0.5-1.1-1.1  C67.5,24.3,68,23.3,68.7,23.3z M79.5,62.2c-2.3,0.9-5,0.9-7.4,0c-1.5-0.6-2.9-1.7-4-3.1c-0.3-0.1-0.6-0.2-1-0.4  c-0.3-0.2-0.7-0.4-1-0.6c0,0-0.1-0.1-0.1-0.1c0,0,0,0.1,0,0.1c-0.3-0.2-0.6-0.4-0.9-0.7l-0.2-0.1c-0.1-0.1-0.2-0.2-0.2-0.4l0-0.2  c-0.1-1.2-0.2-2.3-0.1-3.3c0-0.7-0.1-4,1.1-4c0.5,0,0.7,0.5,0.8,1c0.3,1.5,0,3,0.1,4.5c0,0.4,0,0.7,0.2,1c0.4,1,2,1.5,3.1,1.5  c0.9,0,1.9-0.5,2.2-1.4c0.4-1,0-2.1-0.5-3c-0.1-0.3-0.3-0.6-0.3-0.9c0-0.4,0.3-0.7,0.7-0.8c1.7-0.3,2.4,3.8,2.4,4.8l0,0.1l0,0  c0,0.1,0,0.2-0.1,0.3l-0.1,0.1c-0.1,0.2-0.2,0.3-0.3,0.5c0.9,0.8,2.1,1.3,3.3,1.3c0,0,0,0,0.1,0c1.8,0,3.8-0.9,5.4-2.6  c2.4-2.3,4-5.8,4.6-9.6c0.2-1.6,0.3-3.4,0.2-5.2c0,0.1,0.1,0.2,0.1,0.3c0.4,1.8,0.6,3.7,0.7,5.4c0,3.8-0.9,7.4-2.7,10.4  C83.8,59.5,81.7,61.3,79.5,62.2z M90.6,69.5c-0.5,0-0.9-0.4-0.9-0.9s0.4-0.9,0.9-0.9s0.9,0.4,0.9,0.9S91.1,69.5,90.6,69.5z M94,68  c-0.4,0-0.7-0.3-0.7-0.7c0-0.4,0.3-0.7,0.7-0.7c0.4,0,0.7,0.3,0.7,0.7C94.7,67.7,94.4,68,94,68z"></path></svg></g></g></svg>