<svg height='100px' width='100px'  fill="#000000" xmlns="http://www.w3.org/2000/svg" xmlns:xlink="http://www.w3.org/1999/xlink" version="1.1" x="0px" y="0px" viewBox="0 0 66 66" enable-background="new 0 0 66 66" xml:space="preserve"><g><path d="M47,65h18V25H47V65z M57.5,30h5v7h-5V30z M57.5,41.5h5v7h-5V41.5z M57.5,53h5v7h-5V53z M49.5,30h5v7h-5V30z M49.5,41.5h5v7   h-5V41.5z M49.5,53h5v7h-5V53z"></path><path d="M19,25H1v40h18V25z M8.5,60h-5v-7h5V60z M8.5,48.5h-5v-7h5V48.5z M8.5,37h-5v-7h5V37z M16.5,60h-5v-7h5V60z M16.5,48.5h-5   v-7h5V48.5z M16.5,37h-5v-7h5V37z"></path><path d="M45,65V13H21v52h5.6V47.9H32V65h2V47.9h5.4V65H45z M30.5,41.9h-7v-9h7V41.9z M30.5,26.9h-7v-9h7V26.9z M35.5,17.9h7v9h-7   V17.9z M35.5,41.9v-9h7v9H35.5z"></path><polygon points="33,1 18,11 48,11  "></polygon></g></svg>