<svg height='100px' width='100px'  fill="#000000" xmlns="http://www.w3.org/2000/svg" xmlns:xlink="http://www.w3.org/1999/xlink" version="1.1" x="0px" y="0px" viewBox="0 0 100 100" enable-background="new 0 0 100 100" xml:space="preserve"><g><path fill="#000000" d="M88.229,63.191c-0.665-1.832-1.098-12.571-1.098-12.571l0.808,0.245c0,0-3.293-13.261-5.844-16.126   l0.731-0.631c0,0-6.331-9.439-13.412-10.96c-0.882-1.562-2.007-3.201-2.007-3.201l1.213,0.064c-1.881-2.349-6.611-5.95-6.611-5.95   l2.451,0.078c-3.272-2.433-7.249-3.188-7.249-3.188c-0.788-1.724-2.986-2.768-2.986-2.768c0.084,1.51-1.258,1.678-1.258,1.678   c-2.674-0.401-0.587-2.852-0.587-2.852c-2.936-0.168-5.512,2.349-5.512,2.349c-1.401-0.671,0-2.349,0-2.349   c-2.66,0.168-4.555,3.188-4.555,3.188c-1.51,0-2.349-2.349-2.349-2.349c-1.258,1.342-0.702,2.935-0.702,2.935   c-4.425,1.492-7.771,3.86-7.771,3.86h1.51c-1.983,1.317-4.713,6.054-6.034,8.498c-7.091,1.502-13.439,10.967-13.439,10.967   l0.731,0.631c-2.552,2.865-5.845,16.126-5.845,16.126l0.808-0.245c0,0-0.433,10.738-1.098,12.571c0,0,0.462-0.148,0.968-0.797   c0,0-0.932,5.527-0.628,7.192c0.303,1.666,0.67,3.903,2.179,3.972c0,0,0.381,1.42,2.686,0.739c0,0,0.72,1.386,2.492,1.036   c1.159-0.228,2.61-1.404,3.285-2.839c1.816,1.183,3.046-2.152,3.046-2.152c0.475-2.858,0.147-4.903-0.254-5.442   c-0.402-0.54-2.102-4.092-2.102-4.092l1.513,0.573c-2.033-3.707-0.158-13.626-0.158-13.626l0.722,1.385   c0.077-3.461,2.628-8.218,2.628-8.218c-0.42,2.685-0.703,5.629-0.632,8.507c0.224,9.172,2.115,15.995,1.561,19.015L27,65.982   c0,0,0.223,6.264,1.119,8.165c0.895,1.901,0.615,5.369,0.391,6.264l1.51-2.461c0,0,0.559,6.096,0.951,7.83   c0.391,1.734,2.684,2.181,5.592,1.958c2.909-0.224,4.53,0.615,5.201-1.902c0.671-2.517-1.23-3.3,1.622-9.34   c0,0,1.454,0.243,3.527,0.384l-0.044,0.097c0.449-0.003,0.886-0.013,1.308-0.03c0.422,0.016,0.859,0.027,1.308,0.03l-0.043-0.097   c2.073-0.141,3.526-0.384,3.526-0.384c2.852,6.04,0.951,6.823,1.622,9.34s2.293,1.678,5.201,1.902   c2.908,0.224,5.201-0.224,5.593-1.958c0.392-1.734,0.951-7.83,0.951-7.83l1.51,2.461c-0.224-0.895-0.503-4.362,0.392-6.264   c0.895-1.901,1.118-8.165,1.118-8.165l1.571,2.461c-0.554-3.02,1.337-9.843,1.561-19.015c0.07-2.878-0.212-5.821-0.632-8.507   c0,0,2.551,4.757,2.628,8.218l0.721-1.385c0,0,1.875,9.919-0.158,13.626l1.512-0.573c0,0-1.7,3.552-2.102,4.092   c-0.402,0.539-0.729,2.584-0.254,5.442c0,0,1.23,3.335,3.046,2.152c0.675,1.436,2.127,2.611,3.285,2.839   c1.772,0.349,2.492-1.036,2.492-1.036c2.305,0.681,2.686-0.739,2.686-0.739c1.509-0.069,1.875-2.306,2.179-3.972   c0.303-1.665-0.628-7.192-0.628-7.192C87.767,63.042,88.229,63.191,88.229,63.191z M19.092,69.492   c-0.816-1.153-2.281,0.949-2.281,0.949s-0.139-2.912,1.258-3.483c0,0,1.203-0.273,1.395,1.383   C19.517,68.799,19.337,69.165,19.092,69.492z M33.874,25.212c0-0.785,0.636-1.421,1.421-1.421c0.785,0,1.422,0.636,1.422,1.421   c0,0.785-0.636,1.421-1.422,1.421C34.511,26.634,33.874,25.997,33.874,25.212z M61.765,31.952c-0.17,0.112-4.26,2.74-13.587,2.74   s-13.418-2.628-13.587-2.74c-0.232-0.153-0.296-0.465-0.143-0.697c0.153-0.232,0.465-0.296,0.697-0.143   c0.038,0.025,4.046,2.573,13.033,2.573c8.986,0,12.995-2.548,13.034-2.574c0.233-0.151,0.544-0.087,0.697,0.145   C62.06,31.488,61.996,31.799,61.765,31.952z M61.058,26.634c-0.785,0-1.421-0.636-1.421-1.421c0-0.785,0.636-1.421,1.421-1.421   c0.785,0,1.422,0.636,1.422,1.421C62.48,25.997,61.843,26.634,61.058,26.634z M79.544,70.441c0,0-1.465-2.102-2.281-0.949   c-0.246-0.327-0.426-0.693-0.373-1.151c0.192-1.656,1.395-1.383,1.395-1.383C79.683,67.53,79.544,70.441,79.544,70.441z"></path></g></svg>