<svg xmlns="http://www.w3.org/2000/svg" xmlns:xlink="http://www.w3.org/1999/xlink" version="1.1" x="0px" y="0px" viewBox="0 0 24 24" style="enable-background:new 0 0 24 24;" xml:space="preserve"><g><g><path d="M6.115,17.536c-0.326,0-0.653-0.117-0.969-0.433c-0.319-0.319-0.368-0.639-0.353-0.851    c0.044-0.607,0.614-1.032,1.218-1.482C6.428,14.459,7,14.034,7,13.75c0-0.337-0.623-0.729-1.172-1.074    c-0.609-0.383-1.287-0.809-1.643-1.419c-0.929,0.019-2.49,0.042-2.783-0.017c-0.221-0.044-0.591-0.118-1.373-2.323    c-0.077-0.216,0.003-0.456,0.194-0.583L1.65,7.382C2.019,6.893,3.344,5.25,4.5,5.25c0.276,0,0.5,0.224,0.5,0.5s-0.224,0.5-0.5,0.5    c-0.531,0-1.565,1.072-2.097,1.796c-0.034,0.047-0.077,0.088-0.125,0.12L1.106,8.947c0.21,0.549,0.457,1.105,0.602,1.321    c0.407,0.02,1.662,0.008,2.781-0.019c0.211-0.015,0.417,0.133,0.486,0.342c0.155,0.464,0.78,0.857,1.385,1.237    C7.166,12.336,8,12.86,8,13.75c0,0.786-0.739,1.336-1.392,1.822c-0.275,0.206-0.787,0.587-0.817,0.751    c0.002,0,0.016,0.027,0.062,0.073c0.238,0.238,0.439,0.188,1.27-0.308C7.75,15.715,8.529,15.25,9.5,15.25    c0.722,0,1.786-0.322,2.41-1.229c0.55-0.799,0.592-1.869,0.124-3.092c-0.099-0.258,0.03-0.547,0.288-0.646    c0.256-0.099,0.547,0.03,0.646,0.288c0.748,1.952,0.286,3.262-0.233,4.017c-0.694,1.01-1.963,1.662-3.233,1.662    c-0.695,0-1.29,0.355-1.865,0.698C7.177,17.221,6.649,17.536,6.115,17.536z"></path></g><g><path d="M12.218,17.007c-0.417,0-0.783-0.115-1.071-0.403c-0.334-0.334-0.427-0.766-0.254-1.184c0.51-1.232,3.371-2.17,4.608-2.17    c0.276,0,0.5,0.224,0.5,0.5s-0.224,0.5-0.5,0.5c-0.918,0-2.869,0.679-3.531,1.348c-0.156,0.157-0.162,0.237-0.162,0.238    c0.431,0.446,1.889-0.208,2.952-0.688c1.021-0.461,1.987-0.897,2.741-0.897c0.276,0,0.5,0.224,0.5,0.5s-0.224,0.5-0.5,0.5    c-0.539,0-1.45,0.411-2.33,0.808C14.131,16.527,13.069,17.006,12.218,17.007z"></path></g><g><path d="M16.999,16.324c-0.338,0-0.648-0.023-0.921-0.043c-0.211-0.016-0.405-0.031-0.577-0.031c-0.276,0-0.5-0.224-0.5-0.5    s0.224-0.5,0.5-0.5c0.195,0,0.413,0.016,0.652,0.034c1.284,0.095,3.037,0.226,4.848-2.197C20.961,8.36,19.261,6.25,15.5,6.25    c-4.026,0-5.738,0.926-5.754,0.936c-0.24,0.133-0.545,0.049-0.68-0.19c-0.135-0.24-0.053-0.543,0.186-0.679    C9.328,6.272,11.167,5.25,15.5,5.25c4.374,0,6.5,2.617,6.5,8c0,0.105-0.033,0.208-0.094,0.292    C20.167,15.953,18.355,16.324,16.999,16.324z"></path></g><g><path d="M5.5,21.25c-0.063,0-0.126-0.012-0.188-0.037c-0.256-0.104-0.379-0.396-0.275-0.651C5.075,20.467,6.01,18.25,9,18.25    c1.374,0,2.676,0.469,4.055,0.966c1.411,0.508,2.871,1.034,4.445,1.034c2.898,0,5.5-2.377,5.5-3.5    c0-1.241-0.568-1.861-1.854-3.146c-0.195-0.195-0.195-0.512,0-0.707s0.512-0.195,0.707,0C23.225,14.267,24,15.122,24,16.75    c0,1.695-3.038,4.5-6.5,4.5c-1.749,0-3.292-0.556-4.785-1.093C11.421,19.69,10.199,19.25,9,19.25c-2.324,0-3.03,1.671-3.037,1.688    C5.884,21.132,5.697,21.25,5.5,21.25z"></path></g><g><path d="M8.501,8.25c-0.186,0-0.365-0.104-0.451-0.283C7.93,7.719,8.034,7.42,8.283,7.3c0.714-0.345,0.75-0.945,0.724-1.756    L9,5.25c0-0.56-0.26-1.5-2-1.5c-1.42,0-2,0.58-2,2c0,0.201,0,0.293,0.354,0.646c0.195,0.195,0.195,0.512,0,0.707    s-0.512,0.195-0.707,0C4.157,6.614,4,6.285,4,5.75c0-2.479,1.631-3,3-3c2.212,0,3,1.292,3,2.5l0.006,0.261    c0.025,0.761,0.067,2.035-1.289,2.689C8.647,8.234,8.573,8.25,8.501,8.25z"></path></g><g><path d="M3,6.75c-0.128,0-0.256-0.049-0.354-0.146L2.485,6.445C2.063,6.037,2,5.88,2,5.25c0-0.906,0.892-2,2-2h1    c0.276,0,0.5,0.224,0.5,0.5S5.276,4.25,5,4.25H4c-0.578,0-1,0.658-1,1c0,0.072,0,0.265,0.014,0.31    c0.012,0.017,0.095,0.097,0.167,0.167l0.173,0.169c0.195,0.195,0.195,0.512,0,0.707C3.256,6.701,3.128,6.75,3,6.75z"></path></g><g><circle cx="3.5" cy="8.25" r="0.5"></circle></g></g></svg>