<?xml version="1.0" encoding="UTF-8" standalone="no"?>
<!-- Created with Inkscape (http://www.inkscape.org/) -->

<svg
   xmlns:dc="http://purl.org/dc/elements/1.1/"
   xmlns:cc="http://creativecommons.org/ns#"
   xmlns:rdf="http://www.w3.org/1999/02/22-rdf-syntax-ns#"
   xmlns:svg="http://www.w3.org/2000/svg"
   xmlns="http://www.w3.org/2000/svg"
   xmlns:sodipodi="http://sodipodi.sourceforge.net/DTD/sodipodi-0.dtd"
   xmlns:inkscape="http://www.inkscape.org/namespaces/inkscape"
   id="svg2"
   version="1.1"
   inkscape:version="0.91 r13725"
   xml:space="preserve"
   width="939"
   height="627.59998"
   viewBox="0 0 939 627.59998"
   sodipodi:docname="HI Flag.svg"><metadata
     id="metadata8"><rdf:RDF><cc:Work
         rdf:about=""><dc:format>image/svg+xml</dc:format><dc:type
           rdf:resource="http://purl.org/dc/dcmitype/StillImage" /><dc:title></dc:title></cc:Work></rdf:RDF></metadata><defs
     id="defs6" /><sodipodi:namedview
     pagecolor="#ffffff"
     bordercolor="#666666"
     borderopacity="1"
     objecttolerance="10"
     gridtolerance="10"
     guidetolerance="10"
     inkscape:pageopacity="0"
     inkscape:pageshadow="2"
     inkscape:window-width="731"
     inkscape:window-height="480"
     id="namedview4"
     showgrid="false"
     inkscape:zoom="0.34185304"
     inkscape:cx="469.5"
     inkscape:cy="313.79999"
     inkscape:window-x="0"
     inkscape:window-y="23"
     inkscape:window-maximized="0"
     inkscape:current-layer="g10" /><g
     id="g10"
     inkscape:groupmode="layer"
     inkscape:label="ink_ext_XXXXXX"
     transform="matrix(1.25,0,0,-1.25,0,627.6)"><g
       id="g12"
       transform="scale(0.1,0.1)"><path
         d="m 4993.59,1476.07 c -10.3,-16.5 -19.34,-41.02 7.43,-84.21 l 158.84,-268.79 c 0,0 17.52,-27.87 9.87,-35.48 -7.6,-7.62 -35.62,9.72 -35.62,9.72 l -269.52,158.12 c -45.34,27.11 -68.09,17.68 -84.52,7.29 -7.93,-5.16 -15.66,-5.16 -23.21,-5.95 -65.16,-6.93 -150.75,96.66 -220.95,98.38 -22.11,0.55 -160.66,-75.95 -160.66,-75.95 l -0.02,-0.02 c 0,0 -143.19,-67.14 -155.78,-85.37 -39.79,-57.77 -6.25,-187.91 -50.16,-236.587 -32.32,-35.789 -112.88,-48.418 -164.93,-56.469 -51.91,-9.059 -132.5,-21.352 -174.34,2.73 -56.8,32.719 -65.16,166.806 -120.86,209.446 -17.6,13.45 -174.71,33.02 -174.71,33.02 0,0 -155.29,29.85 -176.16,22.45 -66.18,-23.33 -115.54,-148.29 -179.68,-161.86 -47.2,-9.997 -119.77,27.16 -166.63,51.26 -47.34,23.15 -119.76,60.59 -139.43,104.65 -26.71,59.84 45.33,173.27 25.34,240.5 -6.32,21.25 -121.93,129.36 -121.93,129.36 0,0 -108.08,115.46 -129.32,121.74 -67.25,20.02 -180.64,-52.05 -240.5,-25.35 -44.05,19.68 -80.93,92.39 -104.68,139.43 -24.69,46.55 -61.26,119.41 -51.3,166.62 13.56,64.13 138.54,113.5 161.88,179.7 7.37,20.87 -22.59,176.32 -22.59,176.32 0,0 -19.61,156.91 -33.07,174.5 -42.67,55.71 -176.77,64.03 -209.49,120.82 -24.1,41.84 -11.19,122.32 -2.73,174.36 7.38,52.12 20.61,132.59 56.43,164.93 48.66,43.91 217.81,67.53 271.36,22.16 0,0 118.27,-107.11 146.73,-146.18 28.45,-39.09 39.66,-58.21 36.55,-99.07 -3.1,-40.84 -5.66,-181.25 -5.57,-195.93 0,-607.61 492.55,-1100.15 1100.14,-1100.16 249.24,0 479.13,82.89 663.59,222.59 L 2784.2,3136.77 c -44.07,41.18 -78.98,75.41 -120.54,77.57 l -563.45,0 c -46.01,0.02 -49.44,10.84 -33.83,25.52 l 949.71,949.71 c 12.39,11.38 21.98,11.57 21.96,-9.25 l 4.51,-587.07 c 2.14,-39.55 37.98,-75.28 77.78,-120.04 l 1506.5,-1631.14 c 140.02,184.59 223.12,414.73 223.12,664.27 -0.01,607.61 -492.55,1100.16 -1100.16,1100.16 l -0.44,-0.11 c -14.7,0.11 -155.11,-2.46 -195.95,-5.57 -40.86,-3.1 -59.98,8.11 -99.05,36.56 -39.07,28.46 -146.2,146.75 -146.2,146.75 -45.36,53.51 -21.73,222.66 22.16,271.32 32.32,35.84 112.88,48.44 164.95,56.5 51.89,9.09 132.5,21.36 174.32,-2.72 56.79,-32.71 65.13,-166.82 120.87,-209.48 17.58,-13.45 174.67,-32.98 174.67,-33 0,0 155.33,-29.82 176.19,-22.48 66.16,23.37 115.54,148.34 179.65,161.89 47.21,10.02 119.8,-27.14 166.66,-51.23 47.32,-23.16 119.78,-60.61 139.42,-104.66 26.74,-59.86 -45.35,-173.25 -25.35,-240.52 6.34,-21.23 121.93,-129.36 121.93,-129.36 l 0,-0.01 c 0,0 108.12,-115.43 129.33,-121.75 67.27,-20 180.67,52.07 240.49,25.37 44.09,-19.64 80.96,-92.37 104.69,-139.41 24.7,-46.55 61.29,-119.41 51.29,-166.64 -13.55,-64.09 -138.52,-113.5 -161.86,-179.68 -7.36,-20.87 22.61,-176.3 22.61,-176.3 0,0 19.61,-156.95 33.07,-174.52 42.64,-55.73 176.73,-64.06 209.46,-120.84 24.11,-41.82 11.2,-122.34 2.77,-174.32 -7.41,-52.16 -20.62,-132.63 -56.44,-164.93 -48.68,-43.95 -178.81,-10.43 -236.59,-50.25 -18.24,-12.56 -85.34,-155.93 -85.34,-155.93 0,0 -76.36,-138.48 -75.84,-160.63 1.77,-70.15 105.36,-155.71 98.43,-220.87 -0.79,-7.54 -1.45,-15.25 -5.82,-23.14"
         style="fill:#ffffff;fill-opacity:1;fill-rule:nonzero;stroke:none"
         id="path16"
         inkscape:connector-curvature="0" /></g></g></svg>