<svg xmlns="http://www.w3.org/2000/svg" viewBox="0 0 252 45"><path d="M751.4287,337.5a9.2975,9.2975,0,0,0,6.6623-2.3175c1.7808-1.7334,2.3377-4.1513,2.3377-6.6825h-27V315a4.4733,4.4733,0,0,1,1.1311-3.2255,4.6613,4.6613,0,0,1,3.3689-1.2745h22.5v27h9v-36h-36a8.7267,8.7267,0,0,0-6.3984,2.6719,8.6114,8.6114,0,0,0-2.6016,6.3281v27Zm-36,0v-45h-9v45Zm-27,0a8.7687,8.7687,0,0,0,6.3281-2.6016,8.5811,8.5811,0,0,0,2.6719-6.3984v-27h-45v27a8.8444,8.8444,0,0,0,2.6016,6.3984,8.6953,8.6953,0,0,0,6.3984,2.6016Zm-22.5-9a4.5229,4.5229,0,0,1-3.3082-1.0151A5.0858,5.0858,0,0,1,661.4287,324V310.5h27V324a4.786,4.786,0,0,1-1.0649,3.4849,4.91,4.91,0,0,1-3.4351,1.0151Zm-58.5,9v-45h-9v45Zm31.5,0-18-18,18-18h-13.5l-18,18,18,18Zm-49.5,0v-36h-9v36Zm-54,0v-27l27,27h9v-45h-9V324l-31.5-31.5h-13.5l9,9v36Z" transform="translate(-517.4287 -292.5)"/></svg>