<?xml version="1.0" encoding="utf-8"?>
<!-- Generator: Adobe Illustrator 21.0.2, SVG Export Plug-In . SVG Version: 6.00 Build 0)  -->
<svg version="1.1" id="Layer_1" xmlns="http://www.w3.org/2000/svg" xmlns:xlink="http://www.w3.org/1999/xlink" x="0px" y="0px"
	 viewBox="0 0 899.8 1080" style="enable-background:new 0 0 899.8 1080;" xml:space="preserve">
<style type="text/css">
	.st0{fill:none;stroke:#000000;stroke-miterlimit:10;}
</style>
<polyline class="st0" points="670.7,890.5 666.7,880.5 664.7,885.5 661.7,886.5 657.7,883.5 654.7,881.5 654.7,888.5 653.7,895.5 
	648.7,894.5 646.7,889.5 652.7,886.5 650.7,884.5 649.7,879.5 646.7,882.5 639.7,873.5 641.7,863.5 636.7,863.5 634.7,850.5 
	632.7,848.5 634.7,841.5 635.7,843.5 635.7,846.5 636.7,846.5 637.7,842.5 634.7,835.5 634.7,824.5 631.7,813.5 633.7,799.5 
	636.7,796.5 640.7,808.5 639.7,802.5 642.7,800.5 642.7,791.5 638.7,790.5 628.7,794.5 624.7,800.5 626.7,810.5 626.7,817.5 
	629.7,820.5 631.7,824.5 632.7,830.5 631.7,834.5 627.7,837.5 621.7,838.5 621.7,828.5 620.7,820.5 616.7,814.5 611.7,811.5 
	608.7,813.5 611.7,816.5 616.7,819.5 619.7,824.5 619.7,829.5 618.7,834.5 616.7,837.5 609.7,832.5 608.7,834.5 612.7,838.5 
	614.7,843.5 616.7,845.5 619.7,848.5 622.7,847.5 624.7,852.5 622.7,858.5 626.7,865.5 623.7,873.5 622.7,880.5 621.7,887.5 
	619.7,891.5 617.7,880.5 617.7,875.5 615.7,877.5 614.7,886.5 611.7,886.5 613.7,893.5 608.7,890.5 607.7,900.5 597.7,899.5 
	594.7,897.5 596.7,901.5 594.7,906.5 592.7,905.5 590.7,906.5 585.7,905.5 583.7,897.5 582.7,898.5 581.7,895.5 579.7,896.5 
	577.7,895.5 576.7,890.5 575.7,891.5 575.7,898.5 577.7,901.5 575.7,903.5 574.7,907.5 571.7,907.5 567.7,912.5 564.7,912.5 
	564.7,914.5 565.7,916.5 564.7,918.5 559.7,920.5 558.7,918.5 560.7,917.5 560.7,914.5 558.7,915.5 555.7,919.5 551.7,919.5 
	549.7,921.5 549.7,923.5 557.7,921.5 555.7,926.5 557.7,926.5 554.7,929.5 554.7,931.5 552.7,933.5 542.7,933.5 542.7,934.5 
	545.7,936.5 545.7,938.5 543.7,939.5 544.7,941.5 542.7,944.5 539.7,945.5 535.7,949.5 532.7,949.5 531.7,950.5 533.7,951.5 
	531.7,954.5 528.7,953.5 530.7,958.5 526.7,961.5 524.7,965.5 522.7,972.5 518.7,971.5 511.7,978.5 510.7,981.5 508.7,980.5 
	507.7,982.5 504.7,984.5 504.7,987.5 500.7,988.5 500.7,991.5 495.7,993.5 490.7,993.5 492.7,997.5 491.7,999.5 484.7,1003.5 
	483.7,1008.5 477.7,1008.5 477.7,1011.5 474.7,1010.5 471.7,1007.5 467.7,1008.5 466.7,1011.5 468.7,1015.5 465.7,1013.5 
	461.7,1015.5 453.7,1015.5 447.7,1019.5 446.7,1021.5 436.7,1023.5 430.7,1021.5 427.7,1021.5 424.7,1019.5 422.7,1019.5 
	420.7,1018.5 418.7,1020.5 414.7,1019.5 409.7,1026.5 406.7,1023.5 413.7,1015.5 411.7,1014.5 406.7,1018.5 406.7,1020.5 
	404.7,1020.5 405.7,1016.5 404.7,1014.5 402.7,1015.5 402.7,1017.5 400.7,1016.5 401.7,1012.5 396.7,1014.5 394.7,1013.5 
	395.7,1010.5 399.7,1008.5 393.7,1002.5 392.7,1003.5 395.7,1008.5 392.7,1010.5 392.7,1014.5 390.7,1016.5 383.7,1015.5 
	377.7,1011.5 381.7,1002.5 385.7,1002.5 387.7,998.5 393.7,993.5 392.7,992.5 387.7,996.5 383.7,992.5 380.7,995.5 381.7,999.5 
	378.7,1000.5 372.7,993.5 363.7,990.5 361.7,986.5 357.7,983.5 352.7,984.5 344.7,978.5 340.7,974.5 337.7,974.5 335.7,968.5 
	332.7,967.5 325.7,959.5 322.7,959.5 310.7,934.5 311.7,932.5 313.7,934.5 314.7,930.5 311.7,930.5 313.7,923.5 316.7,915.5 
	314.7,910.5 316.7,905.5 314.7,903.5 316.7,900.5 326.7,908.5 325.7,921.5 327.7,918.5 327.7,913.5 336.7,908.5 339.7,911.5 
	340.7,916.5 342.7,914.5 350.7,922.5 356.7,922.5 351.7,920.5 347.7,916.5 348.7,910.5 346.7,914.5 341.7,906.5 346.7,901.5 
	339.7,899.5 336.7,896.5 339.7,889.5 343.7,888.5 352.7,885.5 351.7,884.5 349.7,885.5 347.7,884.5 344.7,886.5 345.7,884.5 
	345.7,879.5 346.7,877.5 342.7,880.5 334.7,888.5 337.7,879.5 340.7,878.5 345.7,874.5 349.7,875.5 352.7,874.5 353.7,871.5 
	359.7,869.5 364.7,866.5 369.7,864.5 367.7,863.5 363.7,864.5 358.7,868.5 352.7,870.5 349.7,867.5 349.7,864.5 347.7,860.5 
	346.7,862.5 344.7,854.5 338.7,858.5 336.7,850.5 347.7,845.5 351.7,845.5 353.7,843.5 349.7,843.5 341.7,844.5 334.7,844.5 
	333.7,836.5 330.7,838.5 332.7,843.5 331.7,846.5 326.7,848.5 323.7,843.5 325.7,848.5 321.7,853.5 331.7,850.5 334.7,857.5 
	331.7,860.5 328.7,858.5 328.7,862.5 325.7,860.5 324.7,865.5 322.7,866.5 320.7,860.5 317.7,851.5 316.7,863.5 315.7,867.5 
	309.7,869.5 307.7,866.5 303.7,865.5 303.7,852.5 301.7,852.5 302.7,866.5 301.7,868.5 298.7,858.5 296.7,859.5 298.7,869.5 
	298.7,884.5 294.7,886.5 292.7,884.5 291.7,884.5 289.7,879.5 290.7,867.5 292.7,864.5 290.7,859.5 292.7,858.5 292.7,856.5 
	294.7,850.5 292.7,840.5 301.7,823.5 305.7,826.5 306.7,831.5 308.7,825.5 305.7,823.5 306.7,818.5 310.7,813.5 312.7,817.5 
	311.7,824.5 311.7,829.5 310.7,834.5 310.7,838.5 313.7,835.5 314.7,829.5 313.7,824.5 316.7,817.5 321.7,821.5 323.7,820.5 
	326.7,823.5 326.7,828.5 328.7,825.5 328.7,823.5 328.7,819.5 333.7,812.5 344.7,811.5 348.7,810.5 353.7,805.5 356.7,800.5 
	350.7,804.5 347.7,806.5 346.7,808.5 341.7,809.5 339.7,806.5 340.7,797.5 338.7,797.5 337.7,804.5 333.7,808.5 327.7,801.5 
	322.7,796.5 326.7,793.5 327.7,791.5 329.7,787.5 332.7,787.5 336.7,784.5 339.7,784.5 341.7,780.5 339.7,779.5 342.7,775.5 
	343.7,770.5 347.7,767.5 359.7,763.5 359.7,758.5 354.7,763.5 352.7,764.5 347.7,754.5 350.7,750.5 353.7,750.5 354.7,746.5 
	357.7,743.5 357.7,741.5 362.7,737.5 363.7,735.5 364.7,736.5 364.7,732.5 371.7,730.5 377.7,723.5 382.7,725.5 380.7,733.5 
	377.7,746.5 375.7,756.5 375.7,770.5 376.7,770.5 377.7,760.5 380.7,749.5 383.7,734.5 386.7,729.5 389.7,723.5 394.7,719.5 
	403.7,717.5 408.7,718.5 410.7,717.5 404.7,714.5 399.7,716.5 405.7,705.5 400.7,710.5 399.7,705.5 397.7,716.5 387.7,720.5 
	384.7,723.5 380.7,720.5 373.7,721.5 368.7,724.5 359.7,730.5 356.7,731.5 354.7,730.5 354.7,732.5 351.7,732.5 355.7,736.5 
	353.7,738.5 353.7,744.5 349.7,746.5 346.7,747.5 343.7,743.5 342.7,744.5 342.7,750.5 339.7,752.5 339.7,756.5 335.7,758.5 
	336.7,767.5 336.7,772.5 334.7,777.5 331.7,779.5 326.7,778.5 323.7,775.5 321.7,777.5 318.7,785.5 320.7,791.5 317.7,790.5 
	317.7,793.5 316.7,796.5 312.7,792.5 310.7,783.5 309.7,785.5 304.4,780.9 302.7,779.5 301.7,773.5 301.7,767.5 305.7,771.5 
	305.7,777.5 303.7,777.5 305.7,779.5 306.7,779.5 308.7,778.5 310.7,771.5 312.7,772.5 313.7,769.5 319.7,770.5 321.7,768.5 
	323.7,771.5 325.7,760.5 324.7,759.5 325.7,756.5 322.7,755.5 321.7,759.5 315.7,760.5 315.7,758.5 320.7,750.5 324.7,748.5 
	322.7,747.5 316.7,748.5 320.7,740.5 319.7,734.5 317.7,736.5 317.7,741.5 314.7,745.5 314.7,749.5 312.7,753.5 307.7,756.5 
	304.7,760.5 300.7,760.5 299.7,756.5 301.7,751.5 298.7,750.5 299.7,745.5 298.7,744.5 294.7,746.5 292.7,745.5 293.7,736.5 
	289.7,732.5 286.7,744.5 284.7,744.5 288.7,751.5 284.7,757.5 282.7,751.5 281.7,750.5 280.7,753.5 276.7,749.5 277.7,745.5 
	275.7,742.5 277.7,740.5 275.7,736.5 277.7,735.5 277.7,731.5 276.7,730.5 275.7,720.5 278.7,723.5 278.7,726.5 283.7,732.5 
	285.7,732.5 285.7,730.5 291.7,730.5 296.7,728.5 296.7,724.5 296.7,721.5 295.7,714.5 297.7,711.5 305.7,719.5 308.7,723.5 
	316.7,723.5 319.7,720.5 323.7,720.5 323.7,718.5 319.7,718.5 313.7,722.5 309.7,721.5 301.7,711.5 304.7,708.5 312.7,700.5 
	316.7,696.5 311.7,699.5 309.7,697.5 307.7,702.5 302.7,703.5 302.7,707.5 296.7,709.5 291.7,703.5 291.7,706.5 288.7,701.5 
	284.7,701.5 283.7,702.5 285.7,703.5 288.7,704.5 294.7,709.5 292.7,715.5 289.7,713.5 284.7,711.5 280.7,708.5 278.7,700.5 
	282.7,700.5 271.7,690.5 271.7,685.5 273.7,684.5 269.7,679.5 272.7,675.5 274.7,677.5 277.7,675.5 280.7,674.5 284.7,679.5 
	288.7,679.5 292.7,684.5 296.7,684.5 300.7,689.5 300.7,691.5 304.7,694.5 304.7,692.5 306.7,691.5 302.7,686.5 302.7,683.5 
	300.7,683.5 296.7,679.5 302.7,673.5 300.7,672.5 300.7,668.5 298.7,673.5 296.7,675.5 292.7,672.5 288.7,674.5 283.7,670.5 
	280.7,660.5 279.7,661.5 279.7,669.5 275.7,666.5 269.7,668.5 266.7,660.5 272.7,662.5 274.7,660.5 276.7,661.5 275.7,657.5 
	273.7,654.5 273.7,649.5 276.7,648.5 280.7,651.5 281.7,646.5 283.7,641.5 287.7,641.5 288.7,640.5 297.7,642.5 298.7,646.5 
	305.7,647.5 308.7,650.5 308.7,644.5 310.7,642.5 314.7,642.5 317.7,640.5 320.7,636.5 322.7,638.5 327.7,634.5 330.7,635.5 
	329.7,641.5 333.7,637.5 332.7,636.5 335.7,633.5 342.7,634.5 346.7,636.5 350.7,634.5 359.7,638.5 361.7,642.5 362.7,641.5 
	367.7,642.5 365.7,646.5 367.7,649.5 368.7,642.5 373.7,639.5 375.7,637.5 378.7,638.5 381.7,628.5 386.7,631.5 390.7,631.5 
	395.7,633.5 397.7,638.5 402.7,639.5 404.7,641.5 406.7,651.5 399.7,655.5 399.7,656.5 407.7,652.5 411.7,657.5 413.7,659.5 
	412.7,666.5 414.7,666.5 416.7,662.5 415.7,658.5 413.7,657.5 408.7,650.5 406.7,642.5 408.7,636.5 416.7,635.5 422.7,631.5 
	425.7,634.5 427.7,634.5 429.7,636.5 433.7,636.5 430.7,634.5 428.7,631.5 435.7,627.5 439.7,624.5 443.7,625.5 446.7,621.5 
	449.7,620.5 445.7,619.5 443.7,622.5 438.7,623.5 431.7,624.5 428.7,616.5 424.7,611.5 429.7,606.5 431.7,600.5 435.7,597.5 
	436.7,593.5 442.7,586.5 441.7,584.5 435.7,592.5 433.7,593.5 433.7,596.5 427.7,601.5 423.7,598.5 424.7,603.5 425.7,607.5 
	420.7,610.5 424.7,616.5 426.7,625.5 429.7,627.5 425.7,630.5 424.7,628.5 421.7,630.5 421.7,627.5 418.7,629.5 416.7,629.5 
	414.7,632.5 408.7,633.5 403.7,636.5 401.7,636.5 400.7,632.5 409.7,624.5 412.7,624.5 412.7,622.5 412.7,619.5 400.7,630.5 
	395.7,627.5 386.7,627.5 384.7,624.5 379.7,624.5 379.7,617.5 384.7,614.5 385.7,608.5 388.7,604.5 388.7,598.5 378.7,616.5 
	376.7,611.5 375.7,615.5 376.7,617.5 377.7,622.5 374.7,622.5 375.7,627.5 376.7,632.5 374.7,633.5 374.7,630.5 370.7,635.5 
	362.7,636.5 354.7,630.5 354.7,626.5 353.7,630.5 349.7,630.5 344.7,632.5 342.7,627.5 345.7,627.5 345.7,623.5 339.7,628.5 
	333.7,630.5 331.7,629.5 330.7,626.5 329.7,629.5 320.7,632.5 316.7,632.5 314.7,636.5 309.7,638.5 303.7,641.5 299.7,634.5 
	293.7,637.5 293.7,632.5 295.7,633.5 292.7,630.5 287.7,631.5 283.7,628.5 284.7,624.5 289.7,623.5 292.7,627.5 297.7,628.5 
	297.7,626.5 295.7,626.5 296.7,624.5 289.7,622.5 284.7,620.5 280.7,623.5 280.7,617.5 277.7,614.5 286.7,611.5 287.7,609.5 
	292.7,611.5 291.7,605.5 296.7,605.5 297.7,604.5 301.7,604.5 305.7,600.5 302.7,600.5 296.7,603.5 289.7,603.5 289.7,606.5 
	283.7,608.5 280.7,601.5 283.7,598.5 285.7,599.5 285.7,596.5 283.7,595.5 276.7,597.5 284.7,591.5 293.7,590.5 294.7,587.5 
	300.7,589.5 305.7,588.5 308.7,592.5 315.7,592.5 315.7,590.5 320.7,590.5 324.7,585.5 319.7,585.5 309.7,591.5 308.7,588.5 
	306.7,586.5 298.7,587.5 291.7,584.5 289.7,583.5 289.7,580.5 284.7,578.5 284.7,575.5 289.7,578.5 298.7,579.5 300.7,577.5 
	291.7,572.5 280.7,572.5 280.7,570.5 291.7,571.5 294.7,568.5 283.7,567.5 279.7,568.5 276.7,561.5 278.7,555.5 278.7,551.5 
	282.7,550.5 287.7,554.5 289.7,558.5 291.7,556.5 288.7,551.5 294.7,549.5 285.7,547.5 288.7,543.5 291.7,544.5 297.7,541.5 
	299.7,537.5 294.7,536.5 294.7,539.5 292.7,541.5 287.7,539.5 284.7,542.5 279.7,546.5 274.7,550.5 273.7,545.5 278.7,540.5 
	266.7,538.5 272.7,533.5 276.7,532.5 282.7,534.5 288.7,534.5 291.7,535.5 292.7,534.5 299.7,534.5 303.7,530.5 306.7,530.5 
	307.7,531.5 312.7,531.5 317.7,532.5 323.7,535.5 323.7,538.5 329.7,539.5 335.7,537.5 340.7,539.5 335.7,552.5 337.7,553.5 
	343.7,539.5 350.7,547.5 353.7,550.5 354.7,547.5 346.7,538.5 341.7,535.5 334.7,535.5 328.7,537.5 325.7,532.5 333.7,532.5 
	337.7,531.5 340.7,533.5 335.7,529.5 328.7,529.5 317.7,530.5 311.7,528.5 301.7,528.5 295.7,530.5 290.7,531.5 286.7,528.5 
	282.7,528.5 280.7,521.5 277.7,521.5 277.7,516.5 287.7,515.5 287.7,525.5 288.7,525.5 288.7,521.5 291.7,523.5 292.7,521.5 
	295.7,523.5 299.7,520.5 300.7,511.5 294.7,504.5 286.7,504.5 286.7,503.5 287.7,500.5 284.7,497.5 284.7,494.5 286.7,492.5 
	289.7,493.5 290.7,491.5 292.7,490.5 293.7,493.5 299.7,496.5 298.7,501.5 304.7,506.5 310.7,514.5 312.7,507.5 316.7,510.5 
	313.7,504.5 306.7,504.5 303.7,500.5 309.7,491.5 315.7,497.5 319.7,494.5 322.7,504.5 324.7,503.5 321.7,495.5 326.7,495.5 
	330.7,491.5 334.7,492.5 338.7,497.5 336.7,507.5 332.7,516.5 339.7,505.5 340.7,499.5 347.7,504.5 347.7,509.5 352.7,507.5 
	357.7,507.5 350.7,504.5 342.7,497.5 338.7,488.5 340.7,488.5 343.7,492.5 347.7,492.5 339.7,483.5 341.7,479.5 348.7,475.5 
	353.7,471.5 363.7,467.5 "/>
</svg>
