<svg height='100px' width='100px'  fill="#000000" xmlns="http://www.w3.org/2000/svg" xmlns:xlink="http://www.w3.org/1999/xlink" version="1.1" x="0px" y="0px" viewBox="0 0 66 66" enable-background="new 0 0 66 66" xml:space="preserve"><g><path d="M43.6,27.9c-0.7,0.3-1.5,0.6-2.5,0.8c0.2,0.4,0.3,1.1,0.2,1.3c-0.4,0.7-1.7,0.8-2.4,0.4c-0.2-0.1-0.4-0.8-0.4-1.3   c-0.4,0-0.7,0.1-1.1,0.1c0.2,0.5,0.3,1.1,0.2,1.3c-0.6,0.8-2.1,0.6-2.6,0.1c-0.2-0.2-0.2-0.8-0.1-1.3c-0.3,0-0.7,0-1.1,0   c0.1,0.5,0.1,1.1-0.1,1.3c-0.5,0.5-2,0.7-2.6-0.1c-0.2-0.2,0-0.8,0.2-1.3c-0.4,0-0.7-0.1-1.1-0.1c-0.1,0.5-0.2,1.1-0.4,1.3   c-0.6,0.4-1.9,0.3-2.4-0.4c-0.2-0.2,0-0.9,0.1-1.3c-1-0.2-1.8-0.5-2.5-0.8c-0.9-0.4-2-1.4-3.2-3c0.9,4,2.4,9.5,4,10.7   c0.5,0.3,1.1,0.6,1.8,0.9c0-0.5,0.1-1.1,0.3-1.3c0.6-0.4,2-0.2,2.6,0.6c0.1,0.2-0.1,0.9-0.3,1.3c0.3,0.1,0.7,0.1,1,0.1   c0-0.5,0.1-1.1,0.3-1.3c0.6-0.4,1.6-0.4,2.1,0.1c0.2,0.2,0.1,0.9,0,1.3c0.3,0,0.7,0,1,0c-0.1-0.5-0.1-1.1,0-1.3   c0.5-0.5,1.6-0.5,2.1-0.1c0.2,0.2,0.3,0.8,0.3,1.3c0.4,0,0.7-0.1,1-0.1c-0.2-0.4-0.4-1.1-0.3-1.3c0.5-0.8,1.9-1,2.6-0.6   c0.3,0.1,0.3,0.8,0.3,1.3c0.7-0.2,1.3-0.5,1.8-0.9c1.7-1.2,3.1-6.6,4-10.7C45.6,26.5,44.5,27.5,43.6,27.9z"></path><path d="M60.9,43c0.4,0.6,0.8,1.3,1.2,1.9c-0.6-4.4-2.2-8.7-4.5-12.6c0.8,0.6,1.6,1.1,2.5,1.7c-2-4.5-5.5-8.2-9.7-10.6   c-0.3-0.5-0.5-0.9-0.7-1.4c1,0.4,1.9,0.9,2.9,1.4c-1.2-1.1-1.6-2.8-2.1-4.3c-0.1-0.4-0.3-0.8-0.6-1.2c1.8-2,2.6-4.4,2.8-6.6   c0.3-4.1-1.6-8.2-5.3-10.1c-0.4-0.2-1.1,0.7-0.9,1c1.6,2.9,0.8,6.1-0.9,7.4c-1.6-0.5-3.5-0.4-5,0.5c0.6-0.9,0.8-2.1,0.4-3.1   c-0.3-1-1.1-1.8-2.1-2.2c1,1.1,1.1,2.7,0.4,4.1c-0.1-0.8-0.5-1.4-0.8-2.1c-0.3-0.7-0.6-1.5-0.2-2.2c-0.5,0.8-0.9,1.7-0.9,2.6   c-0.7-1.1-1-2.6-0.4-3.9c0.6-1.3,2.1-2.3,3.5-2c-1-0.6-2.3-0.6-3.4,0c-1.1,0.6-1.8,1.7-2,2.8c-0.5-0.7-0.8-1.5-0.8-2.3   c-1.3,1.6-1.5,4-0.3,5.5c-1.6-0.5-2.7-2.1-2.5-3.8c-0.7,0.9-1.2,1.9-1.5,2.9c-1-1.1-2.4-1.7-4-1.7c1.4,0.2,2.4,1.4,2.6,2.7   c-1.9-0.9-4.3-0.6-6.1,0.7c0.8,0.1,1.6,0.2,2.4,0.8c-0.8,0.3-1.5,0.6-2.1,1.1c-2.2-0.8-3.7-4.4-1.8-7.8c0.2-0.3-0.5-1.2-0.9-1   c-5.8,2.9-7.2,11.1-2.8,16.3c-0.3,0.5-0.6,1.1-0.8,1.7c0.4-0.4,0.9-0.7,1.4-1c0.3,0.3,0.5,0.5,0.8,0.8c-1.2,1.4-2.4,3-3.1,4.6   c-4.1,2.4-7.5,6.1-9.4,10.5c0.8-0.6,1.7-1.1,2.5-1.7C6,36.2,4.5,40.5,3.9,45c0.4-0.6,0.8-1.3,1.2-1.9c0.2,6.4-1.6,13.4,1.5,15.7   c-0.5,0.7-0.3,1.9,0.3,2.7c0.7-0.7,1.1-1.5,1.2-2c1,0.2,2,0.1,2.1,0.1c0,0.8,0.7,1.7,1.5,2.1c0.3-1,0.3-1.9,0.1-2.4   c0.6-0.2,1.1-0.5,1.5-0.8c0.5,0.6,1.5,1,2.3,0.9c-0.3-1.1-0.8-1.8-1.3-2.2c1.4-3.5-2.4-9.9-3.1-13.3c0.4,0.7,0.8,1.4,1.2,2.1   C12.2,44,12.4,42,13,40.1c0.1,0.7,0.2,1.4,0.3,2.2c-0.1-2.7,0.5-5.3,1.6-7.7c0,0.5,0,1,0.2,1.4c0-0.9,0.3-1.9,0.9-2.6   c-0.1,0.6-0.2,1.2-0.3,1.8c0,0,0,0,0,0c0,0,0,0.1,0,0.1c0,0.2,0,0.5-0.1,0.7c0,0.4-0.1,0.9-0.1,1.3v0.8c0,0.5,0,1,0.1,1.5   c0,0.2,0,0.5,0,0.7c0.1,0.8,0.2,1.5,0.3,2.3c0.5-0.9,1.1-1.7,2-2.1c-0.7,2.4,0,5,1.7,6.7c-0.2-0.9-0.1-1.9,0.4-2.8   c-0.1,1.3,0.2,2.6,0.7,3.7c-0.6,1.5-1.1,3.3-1.3,5.3c0.3-0.6,0.6-1.1,0.8-1.7c-0.6,2.7-0.7,6-0.1,9.6c0.7,4.6,2.8,3.8,3.2,2.2   c0.5,2.3,2.6,1.9,2.6-0.6c1,2.6,3.4,2.2,2.2-2.1c-0.6-2-1.1-3.9-1.6-5.5c0.2,0.3,0.3,0.6,0.5,0.9c0-0.2,0-0.5-0.1-0.7   c0.1,0.2,0.2,0.3,0.4,0.5c-0.1-0.9-0.2-1.7-0.3-2.5c0.4,0.4,0.9,0.7,1.4,1c-0.4-1-0.3-2.3,0.1-3.3c-0.2,2,0.6,3.7,1.7,5.1   c0.3-1.3,0.9-2.5,2-3.5c0.5,1.3,0.3,2.4,0,3.6c1.9-1,3.3-2.6,4.2-4.6c0,1.5-0.4,3.2-1.3,4.6c1.8-0.6,3.6-1.4,5.2-2.6   c-0.1,0.7-0.2,1.5-0.3,2.3c0.1-0.2,0.2-0.4,0.4-0.5c0,0.2,0,0.5,0,0.7c0.2-0.3,0.3-0.6,0.5-0.9c-1.9,6.3-2.3,7.3-1.9,8.4   c0.4,1.2,1.7,1.1,2.4-0.8c0,2.5,2.2,2.9,2.6,0.6c0.4,1.7,2.6,2.3,3.2-2.2c0.6-3.6,0.5-6.9-0.1-9.6c0.3,0.5,0.5,1.1,0.8,1.7   c-0.2-1.8-0.6-3.4-1.1-4.8c0.7-1.3,1.3-2.6,2-4c0.3,1,0.3,1.9,0.2,2.8c1.9-2.2,2.3-5.4,1-7.8c0.7,0.4,1.4,1.1,2,2   c0-1.8,0-3.6-0.3-5.4c-0.1-0.5-0.2-1.1-0.4-1.6c1.1,2.4,1.7,5.1,1.6,7.7c0.1-0.7,0.2-1.4,0.3-2.2c0.6,1.8,0.8,3.8,0.7,5.8   c0.4-0.7,0.8-1.4,1.2-2.1c-0.7,3.3-4.5,9.8-3.1,13.3c-0.5,0.4-1,1.1-1.3,2.2c0.8,0.1,1.8-0.3,2.3-0.9c0.4,0.3,0.9,0.6,1.5,0.8   c-0.2,0.6-0.2,1.5,0.1,2.4c0.8-0.4,1.5-1.3,1.5-2.1c0.1,0,0.1,0,0.1,0c0.8,0.1,1.4,0,2-0.1c0.1,0.6,0.5,1.3,1.2,2   c0.5-0.8,0.7-2,0.3-2.7C62.6,56.4,60.8,49.5,60.9,43z M39,13.5c2.3,0,4.1,1.8,4.1,4.1c0,2.3-1.8,4.1-4.1,4.1s-4.1-1.8-4.1-4.1   C34.9,15.3,36.7,13.5,39,13.5z M28.1,13.5c2.3,0,4.1,1.8,4.1,4.1c0,2.3-1.8,4.1-4.1,4.1c-2.3,0-4.1-1.8-4.1-4.1   C23.9,15.3,25.8,13.5,28.1,13.5z M48.4,22.8l-0.1,0.6c-1,4.6-2.6,11.5-4.8,13c-1.9,1.3-5.5,2-9.1,2c-3.6,0-7.2-0.7-9.1-2   c-2.1-1.5-3.5-7.3-4.8-13.1l-0.1-0.5c-0.1-0.2,0.1-0.5,0.3-0.6c0.2-0.1,0.5,0,0.6,0.2c2.2,3.2,3.5,4.2,4.3,4.6   c3.8,1.8,13.9,1.8,17.8,0c0.8-0.4,2.1-1.4,4.3-4.6c0.1-0.2,0.4-0.3,0.6-0.2C48.3,22.3,48.4,22.6,48.4,22.8z"></path><path d="M28.1,19.1c0.8,0,1.5-0.7,1.5-1.5c0-0.2,0-0.3-0.1-0.5c-0.1,0.1-0.3,0.2-0.4,0.2c-0.3,0-0.6-0.3-0.6-0.6   c0-0.2,0.1-0.4,0.3-0.5c-0.2-0.1-0.4-0.1-0.6-0.1c-0.8,0-1.5,0.7-1.5,1.5S27.2,19.1,28.1,19.1z M27.7,17.6c0.2,0,0.4,0.2,0.4,0.4   c0,0.2-0.2,0.4-0.4,0.4c-0.2,0-0.4-0.2-0.4-0.4C27.3,17.8,27.5,17.6,27.7,17.6z"></path><path d="M39,19.1c0.8,0,1.5-0.7,1.5-1.5c0-0.2,0-0.3-0.1-0.5c-0.1,0.1-0.3,0.2-0.4,0.2c-0.3,0-0.6-0.3-0.6-0.6   c0-0.2,0.1-0.4,0.3-0.5c-0.2-0.1-0.4-0.1-0.6-0.1c-0.8,0-1.5,0.7-1.5,1.5S38.2,19.1,39,19.1z M38.7,17.6c0.2,0,0.4,0.2,0.4,0.4   c0,0.2-0.2,0.4-0.4,0.4c-0.2,0-0.4-0.2-0.4-0.4C38.3,17.8,38.5,17.6,38.7,17.6z"></path></g></svg>