<svg xmlns="http://www.w3.org/2000/svg" xmlns:xlink="http://www.w3.org/1999/xlink" version="1.1" x="0px" y="0px" viewBox="0 0 50 50" enable-background="new 0 0 50 50" xml:space="preserve"><g><path fill="#000000" d="M22.563,12.185c-0.332,0.12-0.68,0.27-1.035,0.435C21.882,12.455,22.23,12.305,22.563,12.185z"></path><path fill="#000000" d="M44.966,32.135c-0.007-0.08-0.014-0.162-0.022-0.24c-0.012-0.071-0.032-0.142-0.049-0.213   c-0.022-0.088-0.047-0.177-0.076-0.262c-0.021-0.059-0.045-0.115-0.069-0.172c-0.039-0.087-0.084-0.173-0.134-0.256   c-0.026-0.04-0.049-0.083-0.076-0.122c-0.085-0.115-0.178-0.226-0.285-0.317l-16.861-17.29c-0.146-0.734-0.455-1.333-0.957-1.745   c-0.431-0.355-0.974-0.543-1.59-0.602c-1.121-5.729-3.411-9.658-6.058-9.658c-3.753,0-6.792,7.881-6.792,17.606   c0,0.205,0.008,0.407,0.012,0.618c-3.137,3.931-4.996,7.997-5.124,10.831c-0.854,0.322-1.535,0.904-1.584,2.188   C5.2,34.957,4.533,45.152,5.679,45.152c0.709,0,0.944-0.684,1.018-1.207c-0.066,1.392-0.151,4.796,0.611,4.796   c0.795,0,1.126-2.698,1.214-7.802c0.281-0.146,0.417-0.385,0.465-0.592c-0.066,0.83-0.151,2.864,0.61,2.864   c0.955,0,1.242-2.313,1.242-6.653c0,1.465,0.661,1.692,1.147,1.692c0.382,0,0.52-0.521,0.547-1.174l16.374,10.688   c0.104,0.094,0.226,0.172,0.352,0.238c0.041,0.02,0.081,0.035,0.12,0.055c0.098,0.041,0.195,0.076,0.298,0.107   c0.048,0.014,0.091,0.027,0.142,0.038c0.13,0.026,0.264,0.048,0.406,0.06c0.024,0.004,0.051,0.006,0.078,0.006   c0.154,0.006,0.316,0,0.483-0.013c0.063-0.002,0.133-0.015,0.202-0.022c0.115-0.018,0.236-0.034,0.359-0.059   c0.072-0.015,0.146-0.029,0.223-0.045c0.144-0.033,0.291-0.076,0.438-0.122c0.056-0.018,0.109-0.028,0.167-0.05   c0.083-0.023,1.719-0.568,2.883-1.43c0,0,0.119-0.086,0.307-0.223c1.531-1.041,3.146-2.447,4.666-4.154   c2.568-2.883,4.267-5.92,4.787-8.239c0-0.001,0-0.004,0-0.004c0.039-0.166,0.066-0.33,0.093-0.487   c0.007-0.042,0.014-0.079,0.019-0.117c0.021-0.146,0.036-0.294,0.047-0.435c0.004-0.043,0.004-0.085,0.004-0.13   C44.986,32.527,44.982,32.327,44.966,32.135z M18.736,2.106c2.353,0,4.4,3.551,5.47,8.802c-3.042,0.154-7.624,3.126-11.574,7.801   c-0.054,0.061-0.104,0.127-0.157,0.194C12.55,9.589,15.324,2.106,18.736,2.106z M24.984,20.026   c-0.926,1.882-2.224,3.844-3.809,5.717c-1.734,2.054-3.629,3.782-5.444,5.034c0.667-0.51,1.294-1.068,1.808-1.674   c0,0-8.036-0.66-8.225,0.664c-0.433,0.104-0.932,0.176-1.433,0.273c0.011-0.781,0.165-1.686,0.49-2.693   c0.818-2.564,2.531-5.468,4.823-8.177c3.646-4.315,7.998-7.213,10.825-7.213c0.136,0,0.264,0.011,0.388,0.025   c0.379,2.219,0.596,4.693,0.596,7.306C25.003,19.537,24.988,19.78,24.984,20.026z M25.061,12.139   c0.213,0.083,0.406,0.185,0.574,0.324c1.004,0.825,1.137,2.686,0.363,5.109c-0.119,0.377-0.266,0.763-0.424,1.155   C25.566,16.394,25.385,14.17,25.061,12.139z M26.637,22.646c-0.474,0-0.854-0.36-0.854-0.8c0-0.444,0.38-0.804,0.854-0.804   c0.477,0,0.859,0.359,0.859,0.804C27.496,22.286,27.113,22.646,26.637,22.646z"></path></g></svg>