<svg height='100px' width='100px'  fill="#000000" xmlns="http://www.w3.org/2000/svg" xmlns:xlink="http://www.w3.org/1999/xlink" version="1.1" x="0px" y="0px" viewBox="0 0 419.528 419.528" enable-background="new 0 0 419.528 419.528" xml:space="preserve"><path d="M70.154,190.235c0,2.431-1.97,4.402-4.399,4.402c-2.429,0-4.399-1.972-4.399-4.402c0-2.429,1.97-4.399,4.399-4.399  C68.184,185.835,70.154,187.806,70.154,190.235z M129.148,185.414c-25.944-2.826-38.979,7.453-71.182,31.357  c-27.572,20.467-32.767,4.381-31.748-2.614c1.499-10.282,25.222-58.573,48.079-88.461  C102.57,133.036,124.167,156.423,129.148,185.414z M73.232,190.235c0-4.131-3.349-7.478-7.478-7.478  c-4.129,0-7.478,3.347-7.478,7.478s3.349,7.481,7.478,7.481C69.884,197.716,73.232,194.366,73.232,190.235z M58.2,238.659  L57.966,252.7l20.413,22.687l-9.818,7.353l33.306,27.492l-11.759,8.124l42.632,19.939l-10.825,9.747l48.291,8.078l-7.526,10.307  l48.758-4.531l-3.997,11.725l53.916-18.153l-2.76,13.357l48.077-34.345l1.479,13.562l34.087-48.576l7.478,14.206l15.187-58.89  l10.391,8.533l-2.14-57.884l13.814,5.13l-21.082-51.204l13.404,0.048l-33.696-42.131l15.312-1.366l-47.026-32.831l14.255-8.399  L273.32,59.996l9.257-11.695l-49.625,0.352l0.6-13.337L195.015,49.4l-1.597-12.689L163.434,58.14l-6.446-10.852l-22.59,26.504  l-7.021-9.572l-18.923,30.294l-9.596-8.744l-16.754,30.138c31.51,10.197,54.98,37.951,59.127,71.547  c0.404,0.087-22.37,31.257,10.955,57.85c-0.576-2.985-6.113-53.902,47.496-57.61c26.668-1.844,48.4,21.666,48.4,48.399  c0,8.184-2.05,15.883-5.636,22.64c-15.927,29.611-64.858,30.755-80.429,30.596c-45.154-0.459-104.052-51.521-104.052-51.521  L58.2,238.659z"></path></svg>