<?xml version="1.0" encoding="iso-8859-1"?>
<!-- Generator: Adobe Illustrator 19.0.0, SVG Export Plug-In . SVG Version: 6.00 Build 0)  -->
<svg version="1.1" id="Layer_1" xmlns="http://www.w3.org/2000/svg" xmlns:xlink="http://www.w3.org/1999/xlink" x="0px" y="0px"
	 viewBox="0 0 512 512" style="enable-background:new 0 0 512 512;" xml:space="preserve">
<g>
	<path style="fill:#FF709D;" d="M217.252,77.494h-22.141c-4.585,0-8.303-3.716-8.303-8.303s3.717-8.303,8.303-8.303h22.141
		c4.585,0,8.303,3.716,8.303,8.303S221.838,77.494,217.252,77.494z"/>
	<path style="fill:#FF709D;" d="M316.888,77.494h-22.141c-4.587,0-8.303-3.716-8.303-8.303s3.716-8.303,8.303-8.303h22.141
		c4.587,0,8.303,3.716,8.303,8.303S321.474,77.494,316.888,77.494z"/>
	<path style="fill:#FF709D;" d="M212.945,120.55c-2.124,0-4.25-0.81-5.871-2.431c-3.243-3.244-3.243-8.5,0-11.743l15.657-15.657
		c3.243-3.241,8.5-3.241,11.741,0c3.243,3.244,3.243,8.5,0,11.743l-15.657,15.657C217.195,119.739,215.069,120.55,212.945,120.55z"
		/>
	<path style="fill:#FF709D;" d="M283.398,50.097c-2.124,0-4.25-0.81-5.871-2.431c-3.244-3.243-3.244-8.5-0.001-11.741l15.656-15.657
		c3.244-3.244,8.501-3.243,11.741-0.001c3.244,3.243,3.244,8.5,0.001,11.741l-15.656,15.657
		C287.648,49.286,285.523,50.097,283.398,50.097z"/>
	<path style="fill:#FF709D;" d="M228.601,50.097c-2.124,0-4.25-0.81-5.871-2.431l-15.657-15.657c-3.243-3.244-3.243-8.5,0-11.743
		c3.243-3.241,8.5-3.241,11.741,0l15.657,15.657c3.243,3.244,3.243,8.5,0,11.743C232.851,49.286,230.727,50.097,228.601,50.097z"/>
	<path style="fill:#FF709D;" d="M299.054,120.55c-2.126,0-4.25-0.81-5.872-2.432l-15.656-15.657
		c-3.243-3.243-3.243-8.5,0.001-11.741c3.243-3.243,8.5-3.241,11.741,0.001l15.656,15.657c3.243,3.243,3.243,8.5-0.001,11.741
		C303.303,119.739,301.179,120.55,299.054,120.55z"/>
	<path style="fill:#FF709D;" d="M256,38.747c-4.585,0-8.303-3.716-8.303-8.303V8.303C247.697,3.716,251.414,0,256,0
		c4.587,0,8.303,3.716,8.303,8.303v22.141C264.303,35.031,260.586,38.747,256,38.747z"/>
</g>
<path style="fill:#E60048;" d="M256,96.868L105.609,459.945c87.978,69.407,212.805,69.407,300.783,0L256,96.868z"/>
<g>
	<circle style="fill:#FFD3C7;" cx="344.561" cy="437.278" r="33.212"/>
	<circle style="fill:#FFD3C7;" cx="255.996" cy="437.278" r="33.212"/>
	<circle style="fill:#FFD3C7;" cx="167.431" cy="437.278" r="33.212"/>
	<circle style="fill:#FFD3C7;" cx="255.996" cy="215.866" r="33.212"/>
	<circle style="fill:#FFD3C7;" cx="300.279" cy="326.572" r="33.212"/>
	<circle style="fill:#FFD3C7;" cx="211.714" cy="326.572" r="33.212"/>
</g>
<g>
</g>
<g>
</g>
<g>
</g>
<g>
</g>
<g>
</g>
<g>
</g>
<g>
</g>
<g>
</g>
<g>
</g>
<g>
</g>
<g>
</g>
<g>
</g>
<g>
</g>
<g>
</g>
<g>
</g>
</svg>
