<?xml version="1.0" encoding="utf-8"?>
<!-- Generator: Adobe Illustrator 21.0.2, SVG Export Plug-In . SVG Version: 6.00 Build 0)  -->
<svg version="1.1" id="Layer_1" xmlns="http://www.w3.org/2000/svg" xmlns:xlink="http://www.w3.org/1999/xlink" x="0px" y="0px"
	 viewBox="0 0 292 104" style="enable-background:new 0 0 292 104;" xml:space="preserve">
<style type="text/css">
	.st0{fill:#FFFFFF;}
</style>
<path class="st0" d="M284.4,104V0h7.6v104H284.4z M241.9,34.7h7.6v33h-8l-11.9-21.2v21.2H222v-33h8l11.9,21.5V34.7z M191.9,33.8
	c10.9,0,17.4,8.3,17.4,17.3c0,9-6.5,17.3-17.4,17.3c-11,0-17.5-8.3-17.5-17.3C174.4,42.1,180.9,33.8,191.9,33.8z M201.6,51.2
	c0-5.4-3.7-10.5-9.7-10.5c-6,0-9.7,5-9.7,10.5s3.6,10.5,9.7,10.5C197.9,61.6,201.6,56.6,201.6,51.2z M68.7,41.3v-6.6h22.6v6.6h-7.5
	v26.4h-7.6V41.3H68.7z M149.6,48.3H162v6h-12.5v7.3H162v6.1h-20.1v-33H162v6.1h-12.5V48.3z M117,34.7c7.3,0,12,5.5,12,11.9
	c0,4.6-2.4,8.7-6.5,10.6l6.6,10.4h-8.9l-5.8-9.1h-3.6v9.1h-7.6v-33H117z M121.2,46.6c0-3.1-2.1-5.7-5.3-5.7h-5.2v11.4h5.2
	C119.2,52.3,121.2,49.6,121.2,46.6z M53.7,63.6H42l-1.3,4h-8.1l11.8-33h7l11.9,33H55L53.7,63.6z M47.9,44.1l-4.1,13.6h8L47.9,44.1z
	 M13.8,34.7c7.3,0,12,5.5,12,11.9s-4.7,11.9-12,11.9H7.6v9.1H0v-33H13.8z M18.1,46.6c0-3.1-2.1-5.7-5.3-5.7H7.6v11.4h5.2
	C16.1,52.3,18.1,49.6,18.1,46.6z"/>
</svg>
