<svg xmlns="http://www.w3.org/2000/svg" xmlns:xlink="http://www.w3.org/1999/xlink" width="100" height="100" viewBox="0 0 100 100"><rect width="100%" height="100%" fill="#FFFFFF"></rect><g transform="translate(50 50) scale(0.69 0.69) rotate(0) translate(-50 -50)" style="fill:#333333"><svg fill="#333333" xmlns="http://www.w3.org/2000/svg" xmlns:xlink="http://www.w3.org/1999/xlink" version="1.1" x="0px" y="0px" viewBox="0 0 100 100" enable-background="new 0 0 100 100" xml:space="preserve"><path fill="#333333" d="M76.242,4.475c-0.154-0.089-0.346-0.089-0.5,0L10.097,42.377c-0.155,0.089-0.25,0.254-0.25,0.433V57.97  c0,0.179,0.095,0.344,0.25,0.433l65.646,37.902c0.077,0.045,0.164,0.067,0.25,0.067s0.173-0.022,0.25-0.067l13.128-7.581  c0.154-0.089,0.25-0.254,0.25-0.433V12.489c0-0.179-0.096-0.344-0.25-0.433L76.242,4.475z M76.218,35.172  c-0.006-0.022,0.003-0.045-0.009-0.065c-0.006-0.011-0.02-0.011-0.027-0.021c-0.021-0.027-0.046-0.041-0.075-0.057  c-0.028-0.016-0.052-0.031-0.084-0.035c-0.011-0.001-0.019-0.013-0.03-0.013c-0.023,0-0.039,0.019-0.061,0.025  c-0.021,0.005-0.044-0.003-0.064,0.009l-12.753,7.362l0,0c-0.154-0.089-0.346-0.089-0.5,0l-13.13,7.581l0,0l-12.382-7.148  L88.62,13.066v74.936L76.242,95.15V35.231C76.242,35.208,76.224,35.193,76.218,35.172z M11.097,42.955l64.896-37.47l12.378,7.148  l-51.893,29.96c-0.021,0.012-0.024,0.036-0.04,0.052c-0.016,0.016-0.04,0.019-0.051,0.039c-0.006,0.011,0,0.022-0.004,0.033  c-0.013,0.031-0.012,0.059-0.012,0.092s0,0.061,0.012,0.092c0.004,0.011-0.002,0.022,0.004,0.033  c0.022,0.039,0.054,0.067,0.089,0.089c0.001,0,0.001,0.002,0.002,0.002l0.001,0.001c0,0,0,0,0.001,0l12.754,7.363l0,0  c0,0.179,0.096,0.344,0.25,0.433l13.13,7.578v14.295L11.097,42.955z M50.734,50.392l11.63-6.715v13.427L50.734,50.392z   M10.847,57.681V43.388l51.893,29.96c0.039,0.022,0.082,0.033,0.125,0.033c0.058,0,0.11-0.027,0.155-0.064  c0.012-0.01,0.021-0.018,0.029-0.029c0.011-0.012,0.024-0.018,0.032-0.031c0.012-0.021,0.003-0.043,0.009-0.065  c0.006-0.021,0.024-0.036,0.024-0.06V58.402c0.154-0.089,0.25-0.254,0.25-0.433V42.811l0,0l12.378-7.146V95.15L10.847,57.681z"></path></svg></g></svg>