<svg height='100px' width='100px'  fill="#000000" xmlns="http://www.w3.org/2000/svg" xmlns:xlink="http://www.w3.org/1999/xlink" version="1.1" x="0px" y="0px" viewBox="0 0 100 100" style="enable-background:new 0 0 100 100;" xml:space="preserve"><path d="M57.192543,26.405983H42.8074532c-7.0047913,0-12.520504,5.9747124-11.9617653,12.95718l1.2724342,15.901413  c0.1433601,1.7915688,1.6390877,3.17239,3.4363823,3.17239h0.0000038c1.8126411,0,3.3156662,1.4037437,3.4393349,3.212162  l2.081131,30.4321022c0.1112099,1.6261978,1.4627838,2.8884964,3.0927773,2.8884964h11.6643982  c1.6299973,0,2.9815674-1.2622986,3.0927773-2.8884964l2.081131-30.4321022  c0.1236725-1.8084183,1.6266937-3.212162,3.4393311-3.212162h0.0002136c1.7973099,0,3.2930374-1.3808327,3.4363861-3.1724129  l1.2723236-15.901474C69.7129974,32.3806419,64.1972961,26.405983,57.192543,26.405983z"></path><circle cx="50" cy="15.0529079" r="10.0226355"></circle></svg>