<?xml version="1.0" encoding="utf-8"?>
<!-- Generator: Adobe Illustrator 21.0.2, SVG Export Plug-In . SVG Version: 6.00 Build 0)  -->
<svg version="1.1"
	 id="Layer_1" xmlns:cc="http://creativecommons.org/ns#" xmlns:dc="http://purl.org/dc/elements/1.1/" xmlns:inkscape="http://www.inkscape.org/namespaces/inkscape" xmlns:rdf="http://www.w3.org/1999/02/22-rdf-syntax-ns#" xmlns:sodipodi="http://sodipodi.sourceforge.net/DTD/sodipodi-0.dtd" xmlns:svg="http://www.w3.org/2000/svg"
	 xmlns="http://www.w3.org/2000/svg" xmlns:xlink="http://www.w3.org/1999/xlink" x="0px" y="0px" viewBox="0 0 100 100"
	 style="enable-background:new 0 0 100 100;" xml:space="preserve">
<g transform="translate(0,-952.36218)">
	<path d="M34,958.4c-6.3,0-10.8,5.2-11,11.3c-0.1,2.4,0,4.9,0,7.3c0,10.1,0,20.3,0,30.4c0,8.6,0,17.2,0,25.9c0,3.5,0.4,6.9,3,9.6
		c3.2,3.4,7.3,3.5,11.6,3.5c9.2,0,18.5,0.1,27.7,0c6.4-0.1,11.5-4.4,11.7-11c0.1-1.7,0-3.4,0-5c0-19,0-38,0-57
		c0-2.2,0.2-4.5-0.3-6.7c-1.5-5.8-6.6-8.3-12.1-8.3c-9.3,0-18.7,0-28,0C35.7,958.4,34.9,958.4,34,958.4z M34,962.4
		c6.6,0,13.2,0,19.9,0c5.8,0,17.9-2.2,19.1,6c-15.3,0-30.6,0-45.9,0C27.5,964.9,30.5,962.4,34,962.4z M27,972.4
		c14.6,0,29.2,0,43.8,0c1.5,0,1.9-0.4,2.2,0.7c0.7,2.1,0,5.6,0,7.7c0,9.3,0,18.5,0,27.8c0,4.2,0,8.5,0,12.7c0,1.5,0,2.9,0,4.4
		c0,0.5,0.3,2,0,2.4c-0.4,0.6-2.3,0.3-3.2,0.3c-3.9,0-7.7,0-11.6,0c-9,0-17.9,0-26.9,0c-0.7,0-3.9,0.4-4.3-0.1c-0.6-0.7,0-4.9,0-5.8
		c0-16.3,0-32.5,0-48.8C27,973.2,27,972.8,27,972.4z M27,1032.4c13.9,0,27.8,0,41.7,0c1,0,3.8-0.4,4.3,0.2c1,1.2-0.5,5.6-1.1,6.6
		c-1.4,2.1-3.5,3-6,3.1c-7.1,0.3-14.3,0-21.4,0c-3.4,0-6.9,0.1-10.3,0C28.2,1042.1,27,1037.4,27,1032.4z M50,1034.4
		c-3.9,0-3.8,6,0,6C53.8,1040.4,53.9,1034.4,50,1034.4z"/>
</g>
</svg>
