<svg xmlns="http://www.w3.org/2000/svg" xmlns:xlink="http://www.w3.org/1999/xlink" viewBox="0 0 550 550"><defs><style>.cls-1{fill:url(#linear-gradient);}.cls-2{fill:url(#linear-gradient-2);}.cls-3{fill:url(#linear-gradient-3);}.cls-4{fill:#47245e;}.cls-5{fill:#77349f;}.cls-6{fill:none;stroke:#77349f;stroke-miterlimit:10;stroke-width:0.5px;}.cls-7{fill:#50b3c7;}</style><linearGradient id="linear-gradient" x1="375.55" y1="436.69" x2="351.81" y2="448.99" gradientUnits="userSpaceOnUse"><stop offset="0.01" stop-color="#77349f"/><stop offset="0.19" stop-color="#75339b"/><stop offset="0.39" stop-color="#6d2e8f"/><stop offset="0.58" stop-color="#61277a"/><stop offset="0.77" stop-color="#511d5e"/></linearGradient><linearGradient id="linear-gradient-2" x1="314.07" y1="365.1" x2="186.52" y2="431.16" xlink:href="#linear-gradient"/><linearGradient id="linear-gradient-3" x1="294.37" y1="187.43" x2="510.82" y2="112.92" xlink:href="#linear-gradient"/></defs><title>PG_Rebrand_2019_v04</title><g id="Layer_18_copy_3" data-name="Layer 18 copy 3"><path class="cls-1" d="M359.88,444.28l.43.83Z"/><path class="cls-2" d="M296.46,359.32C289.3,343,285.3,327,278.79,311a125.71,125.71,0,0,1-20-.09,127.18,127.18,0,0,1-19.64-3.27,125.49,125.49,0,0,1-12.5-3.87,110.5,110.5,0,0,1-11.87-5.25A86.38,86.38,0,0,1,194.29,284c-8.22-3-16,.44-20.14,8.81-4.28,8.75-1.49,18.68,6.48,23.1,8.2,4.55,23.91,10.87,40.53,14.73,4.51,1.05,9.14,1.89,13.86,2.53l.48,3.09c6.8,31.77,8,63.1,10.7,98,.94,12.16.7,16.57,2.88,32.91,1.39,10.39,8.23,20.19,11.71,25s8.3,8,13.9,11.07c9.13,5.07,19.61,5.61,29.32,6a63.72,63.72,0,0,0,14.66-1.15c19.76-2.1,41-19,47.65-37.92a36.91,36.91,0,0,0-2.77-30.88C360.3,435,357.3,431,354.3,427c-16-20-39-32-50.86-54.94A68.79,68.79,0,0,1,296.46,359.32Z"/><path class="cls-3" d="M298.35,330a185.3,185.3,0,0,0,33.52-11A181.3,181.3,0,0,0,394,274.3l.13-.14a164.5,164.5,0,0,0,13.08-16.81l2.81-4.19,4.25-7.15,3.7-7.14.17-.36c2.94-6.25,6-13,8.56-20.1a201.38,201.38,0,0,0,6.39-21.58l0-.17A163.44,163.44,0,0,0,437,148.91,137.35,137.35,0,0,0,423.84,99a119,119,0,0,0-35.1-43.26,101.44,101.44,0,0,0-26.55-14.56,93,93,0,0,0-31.4-6,90.06,90.06,0,0,0-32.24,5.71l-.18.07A93.66,93.66,0,0,0,271.5,56.9c-12.83,10.84-23.1,24.56-32.32,43.24a173.61,173.61,0,0,0-9.26,22.61l-.83,2.71-.9,3.25c-.72,2.53-1.21,4.77-1.57,6.46-.85,3.8-1.55,7.68-2.13,11.86-2.27,15.48-2.19,30.18-1.91,43.9v.18c.81,23.5,1.95,51,4.32,77.06v.1q1.22,12.18,2.62,24.12c3.9.44,7.8.64,11.68.74s7.82,0,11.7-.21,7.73-.58,11.55-1.12c2.58-.35,5.15-.79,7.7-1.27-2.27-7.38-4.42-14.82-6.39-22.33-2.15-8.12-4-16.34-5.59-24.64s-2.92-16.7-3.88-25.18c-1.84-17-2.22-34.35.1-51.85a149.62,149.62,0,0,1,5.85-26c1.38-4.27,3-8.49,4.76-12.62l.68-1.56c.25-.55.51-1.12.77-1.66.53-1.09,1.07-2.16,1.64-3.2q1.68-3.13,3.57-6.09A91.08,91.08,0,0,1,292.3,94a70.56,70.56,0,0,1,12.48-8.31,67.25,67.25,0,0,1,7.14-3.12,60,60,0,0,1,15.4-3.31,61.15,61.15,0,0,1,8,0,57,57,0,0,1,15.56,3.31,66.26,66.26,0,0,1,13.7,7,83.11,83.11,0,0,1,11.49,9.14c1.75,1.65,3.41,3.35,5,5.09.8.87,1.56,1.74,2.35,2.65s1.6,1.91,2.36,2.89a86.85,86.85,0,0,1,7.95,12.28,104.51,104.51,0,0,1,9.75,26.59,129.9,129.9,0,0,1,.07,55,139.79,139.79,0,0,1-21.77,50.19c-2.61,3.77-5.36,7.4-8.32,10.9A130.7,130.7,0,0,1,342.33,291a137.1,137.1,0,0,1-49.8,18.56c.23.83.45,1.67.68,2.51l.69,2.52.72,2.55.67,2.38,1,3.55.69,2.39.81,2.75Z"/><path class="cls-4" d="M360.47,445.44l-.16-.33a2.59,2.59,0,0,0,.14.29Z"/><path class="cls-5" d="M403.5,148.14a104.51,104.51,0,0,0-9.75-26.59,86.85,86.85,0,0,0-7.95-12.28c-.76-1-1.55-1.94-2.36-2.89s-1.55-1.78-2.35-2.65c-1.6-1.74-3.26-3.44-5-5.09a83.11,83.11,0,0,0-11.49-9.14,66.26,66.26,0,0,0-13.7-7,57,57,0,0,0-15.56-3.31,61.15,61.15,0,0,0-8,0,60,60,0,0,0-15.4,3.31,67.25,67.25,0,0,0-7.14,3.12A70.56,70.56,0,0,0,292.3,94a91.08,91.08,0,0,0-18.63,21.39q-1.89,3-3.57,6.09c-.57,1-1.11,2.11-1.64,3.2-.26.54-.52,1.11-.77,1.66l-.68,1.56c-1.79,4.13-3.38,8.35-4.76,12.62a149.62,149.62,0,0,0-5.85,26c-2.32,17.5-1.94,34.89-.1,51.85,1,8.48,2.28,16.87,3.88,25.18s3.44,16.52,5.59,24.64c2,7.51,4.12,14.95,6.39,22.33-2.55.48-5.12.92-7.7,1.27q-5.73.81-11.55,1.12c-3.88.22-7.78.33-11.7.21s-7.78-.3-11.68-.74c0,0,0,.08,0,.12l-1.74-.19-.1,0a125.66,125.66,0,0,1-23.73-5l-.39-.11c-1.47-.41-2.88-.79-4.14-1.26l-1.31-.47c-1.27-.44-2.4-.73-3.66-1.2l-.37-.13a87,87,0,0,0,20.7,14.35,110.5,110.5,0,0,0,11.87,5.25,125.49,125.49,0,0,0,12.5,3.87,127.18,127.18,0,0,0,19.64,3.27,125.71,125.71,0,0,0,20,.09c12.64,69.87,42.53,87.87,75.51,116-34-40-47.6-61.43-61-117,18-1,33-10,49-18,3.88-2.37,7.64-6,11.27-8.76a130.62,130.62,0,0,0,19.88-19c3-3.5,5.71-7.13,8.32-10.9a139.79,139.79,0,0,0,21.77-50.19A129.9,129.9,0,0,0,403.5,148.14ZM378,186.32v.12a98.5,98.5,0,0,1-1.9,9.85c-.07.29-.13.59-.19.89a110.87,110.87,0,0,1-14,34.46,123.41,123.41,0,0,1-7,10.5,124.18,124.18,0,0,1-41.38,34A143.3,143.3,0,0,1,286.87,287l-.1,0q-2.68-11.24-4.89-22.51-1.92-9.89-3.37-19.79c-2.72-16.53-4.69-34.57-3.43-52.83a175,175,0,0,1,5.36-33.73c.69-2.67,1.46-5.17,2.26-7.44l.07-.22c.41-1.23.76-2.18,1.05-2.84l.79-2,.84-1.93v0q1.29-3.13,2.75-6.19l.61-1.25c.19-.37.37-.74.58-1.12.39-.75.81-1.5,1.26-2.26.87-1.49,1.82-3,2.82-4.44,5-7.73,11.25-14.2,17.76-18.3A35.24,35.24,0,0,1,325.75,105a30.79,30.79,0,0,1,16,1.94,48.2,48.2,0,0,1,15.89,10.88c1.22,1.21,2.41,2.49,3.57,3.81.58.65,1.16,1.35,1.71,2s1,1.28,1.5,1.94a60.82,60.82,0,0,1,5.25,8.61c.5,1,1,2,1.43,3C378,151.59,380.51,169.05,378,186.32Z"/><path class="cls-6" d="M403.5,148.14a104.51,104.51,0,0,0-9.75-26.59,86.85,86.85,0,0,0-7.95-12.28c-.76-1-1.55-1.94-2.36-2.89s-1.55-1.78-2.35-2.65c-1.6-1.74-3.26-3.44-5-5.09a83.11,83.11,0,0,0-11.49-9.14,66.26,66.26,0,0,0-13.7-7,57,57,0,0,0-15.56-3.31,61.15,61.15,0,0,0-8,0,60,60,0,0,0-15.4,3.31,67.25,67.25,0,0,0-7.14,3.12A70.56,70.56,0,0,0,292.3,94a91.08,91.08,0,0,0-18.63,21.39q-1.89,3-3.57,6.09c-.57,1-1.11,2.11-1.64,3.2-.26.54-.52,1.11-.77,1.66l-.68,1.56c-1.79,4.13-3.38,8.35-4.76,12.62a149.62,149.62,0,0,0-5.85,26c-2.32,17.5-1.94,34.89-.1,51.85,1,8.48,2.28,16.87,3.88,25.18s3.44,16.52,5.59,24.64c2,7.51,4.12,14.95,6.39,22.33-2.55.48-5.12.92-7.7,1.27q-5.73.81-11.55,1.12c-3.88.22-7.78.33-11.7.21s-7.78-.3-11.68-.74c0,0,0,.08,0,.12l-1.74-.19-.1,0a125.66,125.66,0,0,1-23.73-5l-.39-.11c-1.47-.41-2.88-.79-4.14-1.26l-1.31-.47c-1.27-.44-2.4-.73-3.66-1.2l-.37-.13a87,87,0,0,0,20.7,14.35,110.5,110.5,0,0,0,11.87,5.25,125.49,125.49,0,0,0,12.5,3.87,127.18,127.18,0,0,0,19.64,3.27,125.71,125.71,0,0,0,20,.09c12.64,69.87,42.53,87.87,75.51,116-34-40-47.6-61.43-61-117,18-1,33-10,49-18,3.88-2.37,7.64-6,11.27-8.76a130.62,130.62,0,0,0,19.88-19c3-3.5,5.71-7.13,8.32-10.9a139.79,139.79,0,0,0,21.77-50.19A129.9,129.9,0,0,0,403.5,148.14ZM378,186.32v.12a98.5,98.5,0,0,1-1.9,9.85c-.07.29-.13.59-.19.89a110.87,110.87,0,0,1-14,34.46,123.41,123.41,0,0,1-7,10.5,124.18,124.18,0,0,1-41.38,34A143.3,143.3,0,0,1,286.87,287l-.1,0q-2.68-11.24-4.89-22.51-1.92-9.89-3.37-19.79c-2.72-16.53-4.69-34.57-3.43-52.83a175,175,0,0,1,5.36-33.73c.69-2.67,1.46-5.17,2.26-7.44l.07-.22c.41-1.23.76-2.18,1.05-2.84l.79-2,.84-1.93v0q1.29-3.13,2.75-6.19l.61-1.25c.19-.37.37-.74.58-1.12.39-.75.81-1.5,1.26-2.26.87-1.49,1.82-3,2.82-4.44,5-7.73,11.25-14.2,17.76-18.3A35.24,35.24,0,0,1,325.75,105a30.79,30.79,0,0,1,16,1.94,48.2,48.2,0,0,1,15.89,10.88c1.22,1.21,2.41,2.49,3.57,3.81.58.65,1.16,1.35,1.71,2s1,1.28,1.5,1.94a60.82,60.82,0,0,1,5.25,8.61c.5,1,1,2,1.43,3C378,151.59,380.51,169.05,378,186.32Z"/></g><g id="Layer_22_copy_2" data-name="Layer 22 copy 2"><path class="cls-7" d="M204.06,78.61a13.33,13.33,0,0,0-1-2.8c-2.77-6.59-8.84-9.13-15.46-6.47L178,73.27l-.49.23c-.9.45-1.88.9-2.91,1.38a94.56,94.56,0,0,0-8.64,4.44,143.6,143.6,0,0,0-14.33,9,125.43,125.43,0,0,0-15.43,13,120.82,120.82,0,0,0-14.8,17.31l-.07.1c-4.39,6.27-9.43,13.45-13,21.39-3.33,7.55-7,15.63-9,24-1.67,7.13-3.75,14.83-4.5,25a231.68,231.68,0,0,0-.87,24c.08,3.78.63,8.78,1.14,13C97.3,249,103.3,274,123.3,290c18,15,47,2.05,53-18,3-9.86,1-23-6-31-10-10-11.26-6.77-23.65-18.77-2.4-2.32-9.08-10.23-11.11-16.44-2-6-3.86-10.87-4.1-16.39a95.16,95.16,0,0,1,.94-19.18,108.27,108.27,0,0,1,4.68-18.79,102.51,102.51,0,0,1,8.21-16.77,93.83,93.83,0,0,1,10.62-14l.13-.14a96.35,96.35,0,0,1,11.73-10.71,95.09,95.09,0,0,1,11.18-7.57l.32-.2a64.79,64.79,0,0,1,6.25-3.36c1-.51,2-1,3-1.51,1.68-.78,3.21-1.42,4.57-2l2-.85,2.44-1C200.54,92.06,206.79,88.17,204.06,78.61Z"/></g></svg>