<svg xmlns="http://www.w3.org/2000/svg" xmlns:xlink="http://www.w3.org/1999/xlink" version="1.1" x="0px" y="0px" viewBox="0 0 100 100" enable-background="new 0 0 100 100" xml:space="preserve"><path d="M93.813,57.343c-0.783-0.936-6.15-6.547-6.481-7.061c-7.039-10.914-19.448-23.801-21.445-25.599  c-1.313-1.183-3.03-2.557-6.669-4.578c-2.426-1.347-4.662-1.249-7.022,0.277c-0.885,0.572-1.597,1.132-1.414,1.774  c0.055,0.194,0.436,0.526,0.436,0.526l7.316,5.019c0.248,0.17,0.314,0.507,0.148,0.749c-0.166,0.242-0.505,0.301-0.752,0.131  l-10.593-7.268c-2.057-0.418-4.078,0.247-5.614,1.381c-0.831,0.614-1.709,1.384-1.409,2.258c0.054,0.157,0.278,0.416,0.278,0.416  l8.318,5.707c0.248,0.17,0.314,0.507,0.148,0.749c-0.166,0.242-0.505,0.301-0.752,0.131l-9.054-6.212  c-2.241-0.496-4.304,0.1-6.043,1.791c-0.377,0.367-0.565,0.859-0.536,1.152c0.02,0.199,0.341,0.541,0.341,0.541l8.4,5.763  c0.248,0.17,0.314,0.507,0.148,0.749s-0.505,0.301-0.752,0.131c0,0-14.324-9.182-16.464-9.836c-0.397-0.121-0.848-0.183-1.339-0.183  c-4.891,0-15.158,6.539-16.145,7.469c-1.159,1.092-1.76,2.49-1.259,3.799c0.803,2.098,3.056,4.17,5.429,3.916  c2.375-0.255,6.281-2.581,7.544-2.632c2.268-0.091,17.08,11.121,17.817,12.048c0,0.051-0.234,0.409-0.299,0.423  c-1.313,0.271-9.532-0.817-10.683-1.03c-1.297-0.974-11.005-7.501-18.359-1.938c-0.403,0.305-0.566,0.821-0.555,1.343  c0.013,0.581,0.048,2.123,7.74,8.676c0.104,0.088,35.106,15.074,49.733,17.336c1.078,0.167,6.846,5.311,7.302,5.574l4.646-1.263  l16.913-16.913c0.38-0.323,1.578-1.454,1.726-2.982C94.64,58.831,94.383,58.023,93.813,57.343z"></path></svg>