<svg height='100px' width='100px'  fill="#000000" xmlns="http://www.w3.org/2000/svg" xmlns:xlink="http://www.w3.org/1999/xlink" version="1.1" x="0px" y="0px" viewBox="0 0 100 100" style="enable-background:new 0 0 100 100;" xml:space="preserve"><path d="M44.3800049,60.0750122c-5.2800293,0-9.5700073,4.3400269-9.5700073,9.6699829  c0,5.3400269,4.289978,9.6799927,9.5700073,9.6799927c5.289978,0,9.5800171-4.3399658,9.5800171-9.6799927  C53.960022,64.4150391,49.6699829,60.0750122,44.3800049,60.0750122z M44.3800049,74.335022  c-2.5100098,0-4.5499878-2.0499878-4.5499878-4.5900269c0-2.5299683,2.039978-4.5899658,4.5499878-4.5899658  c2.5200195,0,4.5599976,2.0599976,4.5599976,4.5899658C48.9400024,72.2850342,46.9000244,74.335022,44.3800049,74.335022z   M44.3800049,66.6550293c-1.6799927,0-3.0499878,1.3899536-3.0499878,3.0899658c0,1.710022,1.3699951,3.0900269,3.0499878,3.0900269  c1.6900024,0,3.0599976-1.3800049,3.0599976-3.0900269C47.4400024,68.0449829,46.0700073,66.6550293,44.3800049,66.6550293z   M44.3800049,60.0750122c-5.2800293,0-9.5700073,4.3400269-9.5700073,9.6699829c0,5.3400269,4.289978,9.6799927,9.5700073,9.6799927  c5.289978,0,9.5800171-4.3399658,9.5800171-9.6799927C53.960022,64.4150391,49.6699829,60.0750122,44.3800049,60.0750122z   M44.3800049,74.335022c-2.5100098,0-4.5499878-2.0499878-4.5499878-4.5900269c0-2.5299683,2.039978-4.5899658,4.5499878-4.5899658  c2.5200195,0,4.5599976,2.0599976,4.5599976,4.5899658C48.9400024,72.2850342,46.9000244,74.335022,44.3800049,74.335022z   M44.3800049,66.6550293c-1.6799927,0-3.0499878,1.3899536-3.0499878,3.0899658c0,1.710022,1.3699951,3.0900269,3.0499878,3.0900269  c1.6900024,0,3.0599976-1.3800049,3.0599976-3.0900269C47.4400024,68.0449829,46.0700073,66.6550293,44.3800049,66.6550293z   M44.3900146,52.2050171c-1.8500366,0-3.6799927,0.2999878-5.4500122,0.8900146l-0.1199951,0.039978  C38.5299683,53.2250366,38.25,53.335022,37.960022,53.4450073l-0.3099976,0.1300049  c-0.3800049,0.1699829-0.8000488,0.3699951-1.210022,0.5800171c-0.3900146,0.2099609-0.7800293,0.4299927-1.1799927,0.6599731  c-0.4500122,0.2800293-0.7900391,0.5100098-1.0900269,0.7399902c-0.1099854,0.0900269-0.4500122,0.3600464-0.4500122,0.3600464  l-0.1099854,0.0799561c-0.1199951,0.1000366-0.25,0.2000122-0.3699951,0.2999878l-0.3099976,0.2700195  c-0.2700195,0.2399902-0.539978,0.4799805-0.789978,0.7299805c-0.4500122,0.4500122-0.8800049,0.9400024-1.3600464,1.5400391  C30.3800049,59.335022,30,59.875,29.6099854,60.5050049c-0.2099609,0.3599854-0.4299927,0.7200317-0.6199951,1.1000366  l-0.2700195,0.539978v15.2000122L28.75,77.4050293c2.8699951,6.0100098,9.0100098,9.8899536,15.6400146,9.8899536  c0.7399902,0,1.4400024-0.039978,2.0899658-0.1299438c0.2800293-0.0300293,0.5400391-0.0599976,0.7900391-0.1200562  c0.4299927-0.0699463,0.8499756-0.1599731,1.2699585-0.2599487l0.3300171-0.0900269l0.5900269-0.1699829  c0.0899658-0.0200195,0.1699829-0.0499878,0.25-0.0800171l0.1499634-0.0499878  c0.2399902-0.0800171,0.4799805-0.1699829,0.710022-0.2600098l0.25-0.0999756  c0.2199707-0.0900269,0.4500122-0.1799927,0.6599731-0.2700195l0.0900269-0.039978  c0.2999878-0.1400146,0.5899658-0.2800293,0.8599854-0.4300537c0.4400024-0.2299805,0.8599854-0.4799805,1.2700195-0.7399902  c0.0999756-0.0700073,0.1900024-0.1399536,0.289978-0.2099609l0.1699829-0.1199951  c0.6400146-0.4500122,1.210022-0.8900146,1.7200317-1.3500366c0.4299927-0.3800049,0.7999878-0.75,1.1400146-1.1099854  c0.0299683-0.0300293,0.1999512-0.1799927,0.1999512-0.1799927C58.8300171,79.7750244,60,77.7949829,60.7600098,75.6450195  c0.6599731-1.8699951,1-3.8500366,1-5.9000244C61.7600098,60.0750122,53.9699707,52.2050171,44.3900146,52.2050171z   M44.3800049,80.9249878c-6.1000366,0-11.0700073-5.0099487-11.0700073-11.1799927  c0-6.1599731,4.9699707-11.1699829,11.0700073-11.1699829c6.1099854,0,11.0800171,5.0100098,11.0800171,11.1699829  C55.460022,75.9150391,50.4899902,80.9249878,44.3800049,80.9249878z M44.3800049,60.0750122  c-5.2800293,0-9.5700073,4.3400269-9.5700073,9.6699829c0,5.3400269,4.289978,9.6799927,9.5700073,9.6799927  c5.289978,0,9.5800171-4.3399658,9.5800171-9.6799927C53.960022,64.4150391,49.6699829,60.0750122,44.3800049,60.0750122z   M44.3800049,74.335022c-2.5100098,0-4.5499878-2.0499878-4.5499878-4.5900269c0-2.5299683,2.039978-4.5899658,4.5499878-4.5899658  c2.5200195,0,4.5599976,2.0599976,4.5599976,4.5899658C48.9400024,72.2850342,46.9000244,74.335022,44.3800049,74.335022z   M44.3800049,66.6550293c-1.6799927,0-3.0499878,1.3899536-3.0499878,3.0899658c0,1.710022,1.3699951,3.0900269,3.0499878,3.0900269  c1.6900024,0,3.0599976-1.3800049,3.0599976-3.0900269C47.4400024,68.0449829,46.0700073,66.6550293,44.3800049,66.6550293z   M74.5999756,67.1149902l-0.0799561,0.0900269c-0.1199951,0.1400146-0.25,0.2799683-0.3800049,0.4199829l-0.3099976,0.3300171  c-0.0700073,0.0800171-0.1500244,0.1599731-0.2200317,0.2399902c-0.4199829,0.4100342-0.8099976,0.7700195-1.2099609,1.0900269  c-0.6000366,0.6499634-1.1700439,1.1999512-1.7800293,1.6900024c-0.6099854,0.6699829-1.1900024,1.2099609-1.789978,1.6799927  c-0.5900269,0.6499634-1.1799927,1.2099609-1.7800293,1.7000122c-0.5700073,0.6099854-1.1599731,1.1699829-1.789978,1.6899414  c-0.6199951,0.6600342-1.2000122,1.210022-1.7900391,1.7000122c-0.6399536,0.6600342-1.2099609,1.210022-1.789978,1.6799927  c-0.6099854,0.6500244-1.1900024,1.2000122-1.7799683,1.6900024c-0.3100586,0.3300171-0.5800171,0.6000366-0.8400269,0.8400269  l-0.2200317,0.2000122c-0.2099609,0.1900024-0.3599854,0.3299561-0.5099487,0.4500122  c-1.460022,1.5899658-3.1199951,2.8899536-4.9800415,3.8999634L53.1500244,86.625  c-0.1300049,0.0599976-0.2600098,0.1300049-0.3900146,0.2000122l0.1099854,0.4699707h20.0100098l15-20.1799927H74.5999756z   M26.9500122,40.3649902c-0.4800415,0.0400391-0.9200439,0.0599976-1.3699951,0.0599976H25.460022  c-0.5100098,0-0.9400024-0.0199585-1.3600464-0.0499878l-0.2699585-0.0299683l-0.0500488,0.2699585v44.8699951  c0,0.4700317,0.1800537,0.9100342,0.5,1.2200317c0.3300171,0.3399658,0.75,0.5200195,1.210022,0.5200195  c0.960022,0,1.7299805-0.7800293,1.7299805-1.7400513V40.3450317L26.9500122,40.3649902z M63.1799927,44.0750122  c-2.1099854,0-4.1400146,0.4899902-6.039978,1.4699707c-0.0400391,0.0200195-0.0800171,0.0400391-0.1199951,0.0500488  c-0.7400513,0.2299805-1.4500122,0.5299683-2.1199951,0.8800049c-0.0400391,0.0299683-0.0800171,0.039978-0.1300049,0.0599976  c-0.6900024,0.2099609-1.3900146,0.5-2.1300049,0.8800049c-0.0400391,0.0199585-0.0800171,0.039978-0.1199951,0.0499878  c-0.6900024,0.2099609-1.3900146,0.5-2.1600342,0.8900146c-0.0299683,0.0199585-0.0700073,0.0299683-0.0999756,0.039978  c-0.7399902,0.25-1.4500122,0.539978-2.1700439,0.8999634c-0.0299683,0.0200195-0.0699463,0.0300293-0.0999756,0.0400391  c-0.7000122,0.2299805-1.4000244,0.5299683-2.1500244,0.8999634l-0.0199585,0.5200195l0.25,0.039978  c0.2399902,0.0200195,0.4699707,0.0500488,0.7000122,0.0800171l0.1599731,0.0200195  c0.3599854,0.0499878,0.6699829,0.0899658,0.9799805,0.1499634c0.25,0.0500488,0.5,0.1100464,0.75,0.1700439  c0.4100342,0.0999756,0.710022,0.1799927,1.0200195,0.2699585c0.2800293,0.0800171,0.5599976,0.1700439,0.8300171,0.2700195  c0.289978,0.1000366,0.5899658,0.2000122,0.8699951,0.3200073c0.2799683,0.1099854,0.539978,0.2299805,0.8099976,0.3499756  c0.2799683,0.1300049,0.5499878,0.2600098,0.8200073,0.4000244c0.2600098,0.1400146,0.5199585,0.2800293,0.7699585,0.4299927  c0.2600098,0.1500244,0.5100098,0.2999878,0.7600098,0.4700317c0.25,0.1599731,0.5,0.3299561,0.75,0.5  c0.2300415,0.1699829,0.460022,0.3499756,0.6900024,0.5299683c0.2399902,0.1900024,0.4800415,0.3800049,0.710022,0.5800171  c0.210022,0.1799927,0.4199829,0.3800049,0.6300049,0.5800171c0.2199707,0.2099609,0.4400024,0.4199829,0.6499634,0.6499634  c0.2000122,0.2000122,0.3800049,0.4100342,0.5700073,0.6199951c0.210022,0.2399902,0.4100342,0.4700317,0.6000366,0.7200317  c0.1599731,0.2000122,0.2999878,0.3999634,0.4499512,0.5999756l0.0700073,0.0900269  c0.1799927,0.25,0.3600464,0.5,0.5300293,0.7600098c0.1199951,0.1799927,0.2299805,0.3699951,0.3399658,0.5599976  l0.1300049,0.2299805c0.1500244,0.25,0.3000488,0.5,0.4299927,0.7600098  c0.1000366,0.1799927,0.1800537,0.3599854,0.2600098,0.539978L61.5,61.7650146  c0.1199951,0.25,0.2399902,0.5100098,0.3499756,0.7700195c0.0700073,0.1699829,0.1300049,0.3399658,0.1900024,0.5099487  l0.1400146,0.4000244c0.0999756,0.2600098,0.2000122,0.5300293,0.2800293,0.8099976  c0.039978,0.1500244,0.0799561,0.3099976,0.1199951,0.4700317l0.1199951,0.4699707  c0.0700073,0.2800293,0.1499634,0.5599976,0.2000122,0.8499756c0.0299683,0.1300049,0.0499878,0.2600098,0.0599976,0.3900146  l0.0699463,0.4700317c0.0599976,0.3299561,0.1100464,0.6499634,0.1400146,0.9799805l0.0100098,0.210022  c0.039978,0.4599609,0.0900269,1.0499878,0.0900269,1.6599731c0,2.2000122-0.3699951,4.3500366-1.0900269,6.3900146  l-0.0499878,0.0999756l-0.2900391,0.8500366l0.6700439-0.5100098c0.1499634-0.1300049,0.3099976-0.2700195,0.4699707-0.4100342  c0,0,0.2900391-0.2599487,0.3500366-0.3199463c0.2799683-0.2600098,0.5599976-0.5500488,0.8499756-0.8500366  c0.0200195-0.0299683,0.0499878-0.0499878,0.0700073-0.0800171c0.6199951-0.5,1.2000122-1.0499878,1.710022-1.6099854  c0.0199585-0.0299683,0.0499878-0.0599976,0.0899658-0.0899658c0.5900269-0.4700317,1.1400146-0.9900513,1.6900024-1.6100464  c0.0300293-0.0299683,0.0700073-0.0599976,0.0999756-0.0899658c0.5700073-0.4400024,1.1300049-0.960022,1.6900024-1.5900269  c0.0300293-0.0299683,0.0599976-0.0499878,0.0900269-0.0799561c0.5800171-0.4700317,1.1400146-1,1.7000122-1.6100464  c0.0199585-0.0299683,0.0499878-0.0599976,0.0899658-0.0899658c0.8300171-0.6600342,1.5900269-1.4200439,2.2300415-2.25  c1.8899536-2.4100342,2.8899536-5.2999878,2.8899536-8.3500366C76.5299683,50.1149902,70.5499878,44.0750122,63.1799927,44.0750122z   M36.6699829,14.875l-0.3399658-0.1199951v8.7600098c0,4.710022-1.5700073,8.5-4.4299927,10.6799927  c-1.1600342,0.8800049-2.4900513,1.4799805-3.9700317,1.7700195c-0.75,0.1499634-1.5900269,0.2299805-2.4299927,0.2299805  c-0.8400269,0-1.6799927-0.0800171-2.4299927-0.2299805c-0.7399902-0.1400146-1.4400024-0.3699951-2.1099854-0.6600342  c-0.0700073-0.039978-0.1400146-0.0700073-0.210022-0.1099854l-0.3099976-0.1599731  C20.289978,34.9650269,20.1400146,34.8850098,20,34.8049927l-0.1799927-0.1199951  c-0.2399902-0.1499634-0.4899902-0.3099976-0.7300415-0.4899902c-2.8499756-2.1799927-4.4199829-5.9699707-4.4199829-10.6799927  v-8.7600098L14.3300171,14.875c-0.460022,0.1600342-0.8800049,0.4199829-1.2300415,0.7800293  c-0.6399536,0.6399536-0.9799805,1.4899902-0.9799805,2.4099731c0,0.8200073,0,1.6699829,0.0100098,2.5400391  c0.0100098,0.9899902,0.0100098,1.9399414,0.0100098,2.9099731c0,8.2799683,4.2199707,14.1199951,11.0100098,15.2199707  c0.3599854,0.0700073,0.75,0.1200562,1.1499634,0.1500244c0.3900146,0.0300293,0.789978,0.0499878,1.2000122,0.0499878  c0.8300171,0,1.6400146-0.0700073,2.3399658-0.2000122C34.6300049,37.625,38.8599854,31.7949829,38.8599854,23.5150146  c0-1.0599976,0-2.0100098,0.0100098-2.9400024c0.0100098-0.9099731,0.0100098-1.710022,0.0100098-2.539978  C38.8800049,16.6050415,37.9899902,15.335022,36.6699829,14.875z M29.8300171,13.4949951  c-0.2700195-0.2799683-0.5900269-0.5-0.9500122-0.6499634l-0.3500366-0.1400146v21.5599976l0.5599976-0.2000122  c0.1700439-0.0700073,0.3400269-0.1400146,0.5100098-0.2199707c0.1199951-0.0599976,0.2399902-0.1300049,0.3600464-0.1900024  c0.1599731-0.0900269,0.3199463-0.1799927,0.4699707-0.2800293l0.210022-0.1400146l0.0499878-0.1599731v-17.5  C30.6900024,14.7949829,30.3900146,14.0549927,29.8300171,13.4949951z M22.1199951,12.8450317  C21.0100098,13.3049927,20.289978,14.375,20.289978,15.5750122v17.6300049l0.2800293,0.1799927  c0.1499634,0.0999756,0.2999878,0.1799927,0.4599609,0.2700195c0.1200562,0.0599976,0.2400513,0.1300049,0.3700562,0.1900024  c0.1599731,0.0700073,0.3299561,0.1399536,0.5,0.2099609l0.5599976,0.210022V12.7050171L22.1199951,12.8450317z"></path></svg>