<svg xmlns="http://www.w3.org/2000/svg" xmlns:xlink="http://www.w3.org/1999/xlink" version="1.1" x="0px" y="0px" viewBox="0 0 100 100" enable-background="new 0 0 100 100" xml:space="preserve"><g><path fill="#000000" d="M41.981,77.278c-0.396-1.2-1.247-0.822-1.247-0.822l-7.659,8.265c0,0-2.308,2.794,0.594,1.93l0,0   l9.546-2.821c-0.781-1.499-1.21-3.357-1.21-5.488L41.981,77.278z"></path><path fill="#000000" d="M49.174,87.793v4.96c0,0.412,0.337,0.747,0.745,0.747c0.406,0,0.747-0.333,0.747-0.747v-4.96   c-0.255,0.025-0.489,0.087-0.747,0.087C49.652,87.88,49.421,87.818,49.174,87.793z"></path><path fill="#000000" d="M44.29,18.618c0.27-0.106,0.607-0.228,0.887-0.362c1.201-0.512,2.867-1.208,4.746-1.208   c1.864,0,3.534,0.696,4.743,1.208c0.268,0.117,0.595,0.256,0.862,0.356c-0.36-1.712-2.66-4.272-5.605-4.272   C46.901,14.339,44.56,17.032,44.29,18.618z"></path><path fill="#000000" d="M49.922,12.404c3.077,0,5.875,2.127,7.029,4.417C55.784,12.2,52.929,6.5,49.922,6.5   c-2.997,0-5.851,5.682-7.031,10.311C44.045,14.514,46.855,12.404,49.922,12.404z"></path><path fill="#000000" d="M41.189,49.206l-0.187-7.099c-0.01,0-0.01-0.006-0.01-0.006c-0.06-2.167-1.704-1.461-1.726-1.451   L8.937,57.645c-2.086,1.167-2.846,2.251-3.124,2.804l-2.239,5.649c-0.305,1.023-0.313,2.318,2.295,1.135h0.013L39.652,51.91   C39.804,51.845,41.249,51.25,41.189,49.206z"></path><path fill="#000000" d="M39.604,54.063v-0.016l-21.693,9.845l23.465-7.792C41.33,54.08,39.604,54.063,39.604,54.063z"></path><path fill="#000000" d="M57.439,19.426c-0.199,0.894-0.852,1.254-1.458,1.254c-0.58,0-1.234-0.274-2.073-0.624   c-1.116-0.482-2.516-1.072-3.986-1.072c-1.481,0-2.879,0.588-3.998,1.072c-1.516,0.624-2.647,0.857-3.252,0.069   c-0.139-0.175-0.221-0.386-0.28-0.613c-0.036,0.367-0.07,0.729-0.07,1.051l1.62,57.752c0,1.448,0.279,5.505,3.291,7.022v-7.331   c0-1.491,1.211-2.699,2.691-2.699c1.479,0,2.681,1.208,2.681,2.699v7.331c3.007-1.518,3.297-5.558,3.297-6.997l1.611-57.811   C57.508,20.197,57.475,19.817,57.439,19.426z"></path><path fill="#000000" d="M96.512,66.684l-2.135-5.386c-0.021-0.082-0.043-0.151-0.068-0.19c-0.709-1.802-2.215-2.868-2.215-2.881   L60.808,39.671l0,0l0,0l-0.387-0.211c-0.535-0.28-1.493-0.501-1.538,1.339l-0.024,1.109c-0.091,2.82-0.198,7.168-0.198,7.168   s-0.034,2.113,1.062,2.61l34.854,15.807c0.01,0,0.022,0,0.022,0.017C96.994,68.59,96.537,66.743,96.512,66.684z"></path><path fill="#000000" d="M58.454,56.101l23.498,7.792l-21.866-9.914C60.086,53.979,58.535,53.583,58.454,56.101z"></path><path fill="#000000" d="M49.922,77.245c-0.409,0-0.746,0.342-0.746,0.762v7.874c0.232,0.025,0.479,0.054,0.746,0.054   c0.255,0,0.5-0.031,0.746-0.054v-7.874C50.666,77.587,50.329,77.245,49.922,77.245z"></path><path fill="#000000" d="M59.409,76.858c0-0.016,0-0.016-0.011-0.016c-1.273-1.357-1.537,0.243-1.537,0.243v-0.018l-0.024,1.286   c0,2.15-0.432,3.984-1.214,5.475l9.174,2.735c0.013,0,0.013,0,0.025,0c3.555,1.053,0.654-2.087,0.582-2.162L59.409,76.858z"></path></g></svg>