<svg xmlns="http://www.w3.org/2000/svg" xmlns:xlink="http://www.w3.org/1999/xlink" version="1.1" x="0px" y="0px" viewBox="0 0 100 100" style="enable-background:new 0 0 100 100;" xml:space="preserve"><path d="M95.1,48.3c0,0-0.1-0.1-0.1-0.1c-4.2-5.4-13.7-5.3-13.7-5.3l-54.8,0c-2.3,0-4.5-1-6-2.8c-4.8-5.9-6.3-7.8-6.6-8.3  c-0.1-0.1-0.1-0.2-0.2-0.2c-2.4-1.8-5.1-1.7-6.6-1.5c-0.6,0.1-1,0.8-0.8,1.4l5.4,13.6H9.8c-0.6,0-1,0.5-1,1c0,0.6,0.5,1,1,1h2.6  l0.8,2c0,0,0,0.1,0,0.1c0.4,0.8,0.9,1.5,1.5,2.1h0c0,0,0,0,0,0c3.7,3.6,11,4.1,14.3,4.1c0,0,0,0,0,0c0.1,0,0.3,0,0.4,0c0,0,0,0,0,0  c0.3,0,0.6,0,0.9,0c0,0,0,0,0,0c0.1,0,0.1,0,0.2,0c0,0,0,0,0,0c0,0,0.1,0,0.1,0c0,0,0,0,0,0c0,0,0.1,0,0.1,0c0,0,0,0,0,0  c0,0,0,0,0,0l25.1-0.1L81,55.2c0.4,0,0.8,0,1.1,0c0.2,0,0.4,0,0.5,0c0.3,0,0.7,0,1,0c0.8,0,1.6-0.1,2.2-0.1c0.3,0,0.5,0,0.8-0.1  c0.1,0,0.2,0,0.4,0c2.2-0.2,3.4-0.6,3.4-0.6c0.2,0,0.4-0.1,0.6-0.1c0.1,0,0.1,0,0.2-0.1c0.1,0,0.3-0.1,0.4-0.1c0.1,0,0.1,0,0.2-0.1  c0.1,0,0.2-0.1,0.3-0.1c0.1,0,0.1-0.1,0.2-0.1c0.1,0,0.2-0.1,0.3-0.1c0.1,0,0.1-0.1,0.2-0.1c0.1,0,0.2-0.1,0.2-0.1  c0.1,0,0.1-0.1,0.2-0.1c0.1,0,0.1-0.1,0.2-0.1c0.1,0,0.1-0.1,0.2-0.1c0.1,0,0.1-0.1,0.2-0.1c0.1,0,0.1-0.1,0.2-0.1  c0.1,0,0.1-0.1,0.2-0.1c0.1,0,0.1-0.1,0.2-0.1c0,0,0.1-0.1,0.1-0.1c0,0,0.1-0.1,0.1-0.1c0,0,0.1-0.1,0.1-0.1c0,0,0.1-0.1,0.1-0.1  c0,0,0-0.1,0.1-0.1c0-0.1,0.1-0.1,0.1-0.2c0,0,0,0,0,0c0.2-0.3,0.4-0.6,0.5-0.9c0,0,0,0,0,0C95.9,49.9,95.2,48.6,95.1,48.3z   M59.2,46c0.5,0,1,0.6,1,1.3c0,0.7-0.4,1.3-1,1.3c-0.5,0-1-0.6-1-1.3C58.2,46.5,58.7,46,59.2,46z M55.5,46c0.5,0,1,0.6,1,1.3  c0,0.7-0.4,1.3-1,1.3s-1-0.6-1-1.3C54.6,46.5,55,46,55.5,46z M51.9,46c0.5,0,1,0.6,1,1.3c0,0.7-0.4,1.3-1,1.3s-1-0.6-1-1.3  C50.9,46.5,51.3,46,51.9,46z M48.2,46c0.5,0,1,0.6,1,1.3c0,0.7-0.4,1.3-1,1.3s-1-0.6-1-1.3C47.2,46.5,47.7,46,48.2,46z M44.5,46  c0.5,0,1,0.6,1,1.3c0,0.7-0.4,1.3-1,1.3s-1-0.6-1-1.3C43.6,46.5,44,46,44.5,46z M37.2,48.5c-0.5,0-1-0.6-1-1.3c0-0.7,0.4-1.3,1-1.3  c0.5,0,1,0.6,1,1.3C38.1,48,37.7,48.5,37.2,48.5z M40.9,48.5c-0.5,0-1-0.6-1-1.3c0-0.7,0.4-1.3,1-1.3c0.5,0,1,0.6,1,1.3  C41.8,48,41.4,48.5,40.9,48.5z M61.9,51.7c0,0.8-0.6,1.4-1.4,1.4H43.7c-0.8,0-1.4-0.6-1.4-1.4v-0.1c0-0.8,0.6-1.4,1.4-1.4h16.7  C61.3,50.1,61.9,50.8,61.9,51.7L61.9,51.7z M62.9,48.5c-0.5,0-1-0.6-1-1.3c0-0.7,0.4-1.3,1-1.3s1,0.6,1,1.3  C63.8,48,63.4,48.5,62.9,48.5z M66.5,48.5c-0.5,0-1-0.6-1-1.3c0-0.7,0.4-1.3,1-1.3c0.5,0,1,0.6,1,1.3C67.5,48,67.1,48.5,66.5,48.5z   M70.2,48.5c-0.5,0-1-0.6-1-1.3c0-0.7,0.4-1.3,1-1.3c0.5,0,1,0.6,1,1.3C71.1,48,70.7,48.5,70.2,48.5z M73.9,48.5c-0.5,0-1-0.6-1-1.3  c0-0.7,0.4-1.3,1-1.3c0.5,0,1,0.6,1,1.3C74.8,48,74.4,48.5,73.9,48.5z M87.2,48.7c-0.5,0-0.9-0.4-0.9-0.9v-1.1  c0-0.5,0.4-0.9,0.9-0.9H90c0,0,2.8,1.5,3.3,3H87.2z"></path></svg>