<svg height='100px' width='100px'  fill="#000000" xmlns="http://www.w3.org/2000/svg" xmlns:xlink="http://www.w3.org/1999/xlink" version="1.1" x="0px" y="0px" viewBox="0 0 100 100" style="enable-background:new 0 0 100 100;" xml:space="preserve"><path d="M66.3,38.5h-2.6c-2.9,2.7-7.6,4.5-12.9,4.5s-10-1.8-12.9-4.5H36c-9.4,0-17,5.8-17,12.9h63.6  C82.6,44.3,75.3,38.5,66.3,38.5z"></path><path d="M50.8,1.3c-10.5,0-19.1,8.6-19.1,19.1c0,10.5,8.6,19.1,19.1,19.1c10.5,0,19.1-8.6,19.1-19.1C69.9,9.9,61.3,1.3,50.8,1.3z   M50.8,35.3c-8.2,0-14.8-6.7-14.8-14.8c0-1.3,0.2-2.5,0.5-3.6c1.8,0.9,4.9,2.1,8.5,2.1c2.6,0,5.4-0.6,8.1-2.5  c0.3-0.2,6.8-4.9,12-0.2c0.4,1.3,0.6,2.8,0.6,4.2C65.6,28.7,59,35.3,50.8,35.3z"></path><path d="M95.7,96H85.2c0.7-0.9,1.1-2,1.1-3.2V58.6c0-2.9-2.3-5.2-5.2-5.2H20.4c-2.9,0-5.2,2.3-5.2,5.2v34.2c0,1.2,0.4,2.3,1.1,3.2  H4.5c-0.6,0-1,0.5-1,1v0.1c0,0.6,0.5,1,1,1h91.2c0.6,0,1-0.5,1-1V97C96.7,96.5,96.3,96,95.7,96z M43.7,79.3c0.6,0.5,0.7,1.4,0.2,2  c-0.3,0.3-0.7,0.5-1.1,0.5c-0.3,0-0.7-0.1-0.9-0.3l-5.5-4.6c-0.3-0.3-0.5-0.7-0.5-1.1c0-0.4,0.2-0.8,0.5-1.1l5.5-4.8  c0.6-0.5,1.5-0.5,2,0.1c0.5,0.6,0.5,1.5-0.1,2l-4.3,3.7L43.7,79.3z M55.4,66.7l-6.6,19.1c-0.2,0.6-0.8,1-1.4,1c-0.2,0-0.3,0-0.5-0.1  c-0.7-0.3-1.1-1.1-0.9-1.8l6.6-19.1c0.3-0.7,1.1-1.1,1.8-0.9C55.3,65.1,55.7,65.9,55.4,66.7z M65.2,76.9l-5.5,4.6  c-0.3,0.2-0.6,0.3-0.9,0.3c-0.4,0-0.8-0.2-1.1-0.5c-0.5-0.6-0.4-1.5,0.2-2l4.2-3.6L57.9,72c-0.6-0.5-0.7-1.4-0.1-2  c0.5-0.6,1.4-0.7,2-0.1l5.5,4.8c0.3,0.3,0.5,0.7,0.5,1.1C65.7,76.2,65.6,76.6,65.2,76.9z"></path></svg>