<?xml version="1.0" encoding="utf-8"?>
<!-- Generator: Adobe Illustrator 21.0.2, SVG Export Plug-In . SVG Version: 6.00 Build 0)  -->
<svg version="1.1" id="Layer_1" xmlns="http://www.w3.org/2000/svg" xmlns:xlink="http://www.w3.org/1999/xlink" x="0px" y="0px"
	 viewBox="0 0 1920 1080" style="enable-background:new 0 0 1920 1080;" xml:space="preserve">
<g>
	<path d="M1736.6,513c11.1,6.5,27.1,10.8,44.3,10.8c37.5,0,59-19.6,59-47.3c0-23.5-14-37.2-41.4-47.6c-20.5-7.8-30-13.7-30-26.7
		c0-11.7,9.5-21.5,26.4-21.5c14.7,0,26.1,5.2,32.3,9.1l7.2-20.9c-8.8-5.2-22.8-9.8-38.8-9.8c-33.9,0-54.4,20.9-54.4,46.3
		c0,18.9,13.4,34.5,41.7,44.6c21.2,7.8,29.3,15.3,29.3,29c0,13-9.8,23.5-30.6,23.5c-14.3,0-29.3-5.9-37.8-11.4L1736.6,513z
		 M1590.6,428.9c0-4.6,1-8.5,1.6-11.7c5.9-21.8,24.1-35.2,43.7-35.2c30.6,0,46.9,27.1,46.9,58.7c0,36.2-17.9,60.6-47.9,60.6
		c-20.9,0-37.5-13.7-43-33.6c-0.7-3.3-1.3-6.8-1.3-10.4V428.9z M1585.7,520.5l1.3-26.1h1c11.7,20.9,30,29.7,52.8,29.7
		c35.2,0,70.7-28,70.7-84.4c0.3-47.9-27.4-80.5-66.5-80.5c-25.4,0-43.7,11.4-53.8,29h-0.7v-99.1h-28.4v190.7c0,14-0.7,30-1.3,40.7
		H1585.7z M1488.3,467.4c0,2.9-0.7,6.2-1.6,9.1c-4.6,13.4-17.6,26.4-38.1,26.4c-14.7,0-27.1-8.8-27.1-27.4
		c0-30.6,35.5-36.2,66.8-35.5V467.4z M1518.6,520.5c-2-10.8-2.6-24.1-2.6-37.8v-59c0-31.6-11.7-64.5-60-64.5
		c-19.9,0-38.8,5.5-51.8,14l6.5,18.9c11.1-7.2,26.4-11.7,41.1-11.7c32.3,0,35.8,23.5,35.8,36.5v3.3c-60.9-0.3-94.8,20.5-94.8,58.7
		c0,22.8,16.3,45.3,48.2,45.3c22.5,0,39.4-11.1,48.2-23.5h1l2.3,19.9H1518.6z M1252.3,520.5h122.2v-23.8h-93.9V300.8h-28.4V520.5z
		 M1105.3,520.5h28.7V289.1h-28.7V520.5z M992.6,380.7c33.9,0,47.3,33.9,47.3,60.6c0,35.5-20.5,61.3-47.9,61.3
		c-28,0-47.9-26.1-47.9-60.6C944,411.9,958.7,380.7,992.6,380.7z M993.2,359.1c-43.7,0-78.2,31-78.2,83.8
		c0,49.9,32.9,81.2,75.6,81.2c38.1,0,78.5-25.4,78.5-83.8C1069.2,392.1,1038.5,359.1,993.2,359.1z M889.9,493.1
		c-8.1,3.6-18.9,7.8-35.2,7.8c-31.3,0-54.8-22.5-54.8-59c0-32.9,19.6-59.6,55.7-59.6c15.6,0,26.4,3.6,33.2,7.5l6.5-22.2
		c-7.8-3.9-22.8-8.1-39.8-8.1c-51.5,0-84.7,35.2-84.7,83.8c0,48.2,31,80.5,78.5,80.5c21.2,0,37.8-5.2,45.3-9.1L889.9,493.1z
		 M669.6,380.7c33.9,0,47.3,33.9,47.3,60.6c0,35.5-20.5,61.3-47.9,61.3c-28,0-47.9-26.1-47.9-60.6
		C621,411.9,635.7,380.7,669.6,380.7z M670.3,359.1c-43.7,0-78.2,31-78.2,83.8c0,49.9,32.9,81.2,75.6,81.2
		c38.1,0,78.5-25.4,78.5-83.8C746.2,392.1,715.6,359.1,670.3,359.1z M504,324.9v37.8h-24.4v21.8H504v86c0,18.6,2.9,32.6,11.1,41.1
		c6.8,7.8,17.6,12.1,31,12.1c11.1,0,19.9-1.6,25.4-3.9l-1.3-21.5c-3.6,1-9.1,2-16.6,2c-16,0-21.5-11.1-21.5-30.6v-85.1h41.1v-21.8
		h-41.1v-45.3L504,324.9z M384.8,380.7c33.9,0,47.3,33.9,47.3,60.6c0,35.5-20.5,61.3-47.9,61.3c-28,0-47.9-26.1-47.9-60.6
		C336.2,411.9,350.9,380.7,384.8,380.7z M385.4,359.1c-43.7,0-78.2,31-78.2,83.8c0,49.9,32.9,81.2,75.6,81.2
		c38.1,0,78.5-25.4,78.5-83.8C461.4,392.1,430.7,359.1,385.4,359.1z M215.3,520.5h28.4v-84.1c0-4.9,0.7-9.5,1.3-13.4
		c3.9-21.5,18.3-36.8,38.5-36.8c3.9,0,6.8,0.3,9.8,1v-27.1c-2.6-0.7-4.9-1-8.1-1c-19.2,0-36.5,13.4-43.7,34.5h-1.3l-1-31H214
		c1,14.7,1.3,30.6,1.3,49.2V520.5z M76.5,323.9c4.9-1.3,14.3-2.3,26.7-2.3c31.3,0,51.8,14,51.8,43c0,30.3-20.9,46.9-55.1,46.9
		c-9.5,0-17.3-0.7-23.5-2.3V323.9z M48.1,520.5h28.4v-88c6.5,1.6,14.3,2,22.8,2c27.7,0,52.1-8.1,67.1-24.1
		c11.1-11.4,16.9-27.1,16.9-46.9c0-19.6-7.2-35.5-19.2-46c-13-11.7-33.6-18.3-61.6-18.3c-22.8,0-40.7,2-54.4,4.2V520.5z"/>
</g>
</svg>
