<?xml version="1.0" encoding="utf-8"?>
<!-- Generator: Adobe Illustrator 24.2.3, SVG Export Plug-In . SVG Version: 6.00 Build 0)  -->
<svg version="1.0" id="Layer_1" xmlns="http://www.w3.org/2000/svg" xmlns:xlink="http://www.w3.org/1999/xlink" x="0px" y="0px"
	 viewBox="0 0 100 100" style="enable-background:new 0 0 100 100;" xml:space="preserve">
<style type="text/css">
	.st0{fill:#333333;}
</style>
<g transform="translate(50 50) scale(0.69 0.69) rotate(0) translate(-50 -50)">
	<g>
		<g>
			<path class="st0" d="M84.3,25.5l-65.2,0.1l-9.2,9.2l0.2,33.9c0,4,1.8,5.3,5.9,5.3l68.3,0.4c4.1,0,6-1.8,6-5.7V31.3
				C90.3,27.3,88.4,25.5,84.3,25.5z M89.1,68.8c0,2.6-2.1,4.7-4.7,4.7H15.6c-2.6,0-4.7-2.1-4.7-4.7V35l8.5-8.5l65,0
				c2.6,0,4.7,2.1,4.7,4.7V68.8z"/>
			<rect x="21.9" y="34.4" class="st0" width="3.1" height="3.1"/>
			<rect x="37.5" y="34.4" class="st0" width="3.1" height="3.1"/>
			<rect x="43.8" y="34.4" class="st0" width="3.1" height="3.1"/>
			<rect x="62.5" y="34.4" class="st0" width="3.1" height="3.1"/>
			<rect x="68.8" y="34.4" class="st0" width="3.1" height="3.1"/>
			<rect x="21.9" y="43.8" class="st0" width="3.1" height="3.1"/>
			<rect x="28.1" y="43.8" class="st0" width="3.1" height="3.1"/>
			<rect x="34.4" y="43.8" class="st0" width="3.1" height="3.1"/>
			<rect x="40.6" y="43.8" class="st0" width="3.1" height="3.1"/>
			<rect x="50" y="43.8" class="st0" width="3.1" height="3.1"/>
			<rect x="56.2" y="43.8" class="st0" width="3.1" height="3.1"/>
			<rect x="78.1" y="43.8" class="st0" width="3.1" height="3.1"/>
			<rect x="71.9" y="53.1" class="st0" width="3.1" height="3.1"/>
			<rect x="56.2" y="53.1" class="st0" width="3.1" height="3.1"/>
			<rect x="50" y="53.1" class="st0" width="3.1" height="3.1"/>
			<rect x="31.2" y="53.1" class="st0" width="3.1" height="3.1"/>
			<rect x="25" y="53.1" class="st0" width="3.1" height="3.1"/>
			<rect x="21.9" y="62.5" class="st0" width="3.1" height="3.1"/>
			<rect x="31.2" y="62.5" class="st0" width="3.1" height="3.1"/>
			<rect x="37.5" y="62.5" class="st0" width="3.1" height="3.1"/>
			<rect x="62.5" y="62.5" class="st0" width="3.1" height="3.1"/>
			<rect x="68.8" y="62.5" class="st0" width="3.1" height="3.1"/>
		</g>
	</g>
</g>
</svg>
