<svg xmlns="http://www.w3.org/2000/svg" xmlns:xlink="http://www.w3.org/1999/xlink" xml:space="preserve" version="1.1" style="shape-rendering:geometricPrecision;text-rendering:geometricPrecision;image-rendering:optimizeQuality;" viewBox="0 0 139 248" x="0px" y="0px" fill-rule="evenodd" clip-rule="evenodd"><defs><style type="text/css">
   
    .fil0 {fill:black;fill-rule:nonzero}
   
  </style></defs><g><path class="fil0" d="M139 123c0,19 -27,36 -45,43 6,27 12,54 18,82 -10,-26 -20,-52 -30,-78 -72,19 -81,-30 -50,-53 -5,-23 -10,-45 -15,-67 -69,-30 98,-83 61,-21 9,22 17,44 26,66 16,1 35,10 35,28zm-37 -24c-10,-22 -19,-44 -28,-67 -5,3 -10,5 -16,7 8,28 15,55 22,82 11,-3 26,-15 22,-22z"></path></g></svg>