<?xml version="1.0" encoding="utf-8"?>
<!-- Generator: Adobe Illustrator 21.0.2, SVG Export Plug-In . SVG Version: 6.00 Build 0)  -->
<svg version="1.1" id="Layer_1" xmlns="http://www.w3.org/2000/svg" xmlns:xlink="http://www.w3.org/1999/xlink" x="0px" y="0px"
	 viewBox="0 0 600.6 474.2" style="enable-background:new 0 0 600.6 474.2;" xml:space="preserve">
<path d="M323.2,22.6c0-12.3-10.3-22.6-22.7-22.6c-13,0-23.2,10.3-23.2,22.6c0,13,10.2,23.2,23.2,23.2
	C312.9,45.8,323.2,35.6,323.2,22.6 M479.6,124.1c0-13.1-10.1-23.2-23.1-23.2c-12.5,0-22.7,10.1-22.7,23.2
	c0,12.4,10.2,22.6,22.7,22.6C469.5,146.7,479.6,136.5,479.6,124.1 M167.4,124.1c0-13.1-10.4-23.2-23.3-23.2
	c-12.4,0-22.6,10.1-22.6,23.2c0,12.4,10.2,22.6,22.6,22.6C157,146.7,167.4,136.5,167.4,124.1 M600.6,132.7
	c0-12.8-10.2-23.1-22.7-23.1c-13,0-23.2,10.3-23.2,23.1c0,12.4,10.2,22.8,23.2,22.8C590.3,155.4,600.6,145.1,600.6,132.7
	 M45.9,132.7c0-12.8-10.2-23.1-22.6-23.1C10.4,109.5,0,119.8,0,132.7c0,12.4,10.4,22.8,23.3,22.8C35.7,155.4,45.9,145.1,45.9,132.7
	 M556.3,185.6c5.4-11.9-5.5-16.2-10.3-8.6c-16.2,27.5-37.7,69-63.7,94.9c-12.8,13-34.4,7.6-37.1-12.4c-4.9-32.4,0.5-58.3,1.7-82.5
	c0.5-10.3-8.2-11.9-11.9-2.7c-9.7,22.1-16.7,50.7-37.2,73.3c-17.8,18.9-41.6,13-53.9-3.7c-26-35.7-32.4-125.1-36.7-167.8
	c-1.1-8.1-11.9-8.1-12.9,0c-4.3,42.6-10.9,132.1-37.3,167.8c-11.9,16.8-36.2,22.6-53.3,3.7c-20.6-22.6-27.5-51.2-37.2-73.3
	c-3.9-9.2-13-7.6-12.5,2.7c1.5,24.2,7,50.7,2.1,82.5c-2.7,20-24.3,25.4-37.8,12.4C92.8,246,70.8,204.5,55.1,177
	c-4.8-8.1-15.6-3.3-10.2,8.6c35.1,76.1,75.6,191,79.3,195.8c3.3,4.3,5.4,5.4,7.5,4.3c37.7-21.6,105.7-30.2,168.9-30.2
	c63.2,0,130.5,8.6,168.9,30.2c2.1,1.1,3.7,0,7.5-4.3C480.7,376.6,521.2,261.7,556.3,185.6"/>
</svg>
