<?xml version="1.0" encoding="utf-8"?>
<!-- Generator: Adobe Illustrator 23.0.4, SVG Export Plug-In . SVG Version: 6.00 Build 0)  -->
<svg version="1.0" id="Layer_1" xmlns="http://www.w3.org/2000/svg" xmlns:xlink="http://www.w3.org/1999/xlink" x="0px" y="0px"
	 viewBox="0 0 1920 1080" style="enable-background:new 0 0 1920 1080;" xml:space="preserve">
<style type="text/css">
	.st0{fill:#FFFFFF;}
</style>
<g>
	<path class="st0" d="M453.1,531.7c-0.6,0.3-1.2,0.5-1.8,0.8c-2-3.3-4.4-6.5-5.9-10c-5.3-12.9-17.3-20.3-25.4-30.9
		c-3-3.9-7.3-6.7-10.1-10.7c-3-4.2-6.2-7.2-11.2-8.6c-2.8-0.8-5.8-2.8-7.6-5.1c-5.2-6.7-10.5-12.7-19.6-13.6
		c-1.5-0.2-3.2-1.2-4.3-2.4c-4.4-4.8-10.2-4.9-16-5.3c-5.4-0.4-10.7-1.3-16-2.2c-0.8-0.1-1.5-1.1-2-1.8
		c-5.4-7.8-13.2-10.6-22.3-10.7c-6.1,0-7.4,1.4-5.6,6.5c-1.7,1.2-3.2,2.3-4.7,3.3c1.1,1.4,1.9,3.1,3.2,4.2c2,1.7,4.6,2.6,6.4,4.5
		c1.8,1.8,4.2,4.4,4.1,6.4c-0.4,4.5-2.6,8.9-3.5,13.4c-0.8,3.6-0.8,7.4-1.2,11c-0.3,3.2,0,6.7-1.2,9.6c-4.8,12-10.1,23.9-15.2,35.7
		c-0.5,1.2-1.6,2.5-2.7,3.1c-7.8,4.2-12.6,15.8-8.5,23.5c2.4,4.4,6.4,8.6,10.7,11.1c2.3,1.3,6.8-1.4,10.3-2.2
		c0.5-0.1,1.1-0.2,1.7-0.3c6.7-2.4,8.7-6,8.6-13.1c-0.1-5.6-2.8-11.4,1.3-16.9c7.3-9.7,14.2-19.7,21.2-29.4
		c8.2,2.4,15.3,1.6,18.9-5.1c3-5.5,3.6-12.2,5-17.4c2.6,1.2,6.1,2.5,9.4,4.3c1.8,1,4.1,2.6,4.6,4.4c2.1,7.1,3.8,14.3,5.3,21.6
		c1.8,8.8,3.4,17.7,5.4,28.5c1.3-3,2.7-4.8,2.8-6.6c0.1-3.7-0.4-7.4-0.7-11.1c-0.7-7.4-1.4-14.8-2.1-22.2c0.7-0.1,1.5-0.2,2.2-0.3
		c1.1,6.9,2.2,13.7,3.2,20.6c0.5,3.3-0.1,6.9,1.1,9.8c2.6,6.2,3.4,12.1,1.6,18.6c-1.7,5.8,1.1,12.9,6.1,15.8c0-13.5,0-26.6,0-41.2
		c4.9,7.4,5.4,10.8,4.7,19.5c-0.2,1.8,0.7,3.8,1.1,5.7c0.7-0.1,1.3-0.2,2-0.3c0.3-1.6,0.4-3.2,0.8-4.8c0.3-1.4,1-2.6,1.5-3.9
		c-0.8,7.3,2.5,12.8,5.2,18.9c2.3,5.2,2,11.6,2.7,17.4c0.2,1.6,0,3.3,0,6.2c5.1-4.4,5.2-9.3,5.2-13.8c0-4.8-1-9.7-1.7-14.5
		c-0.6-4.4-1.3-8.8-1.9-13.2c8.8,17.5,4.8,36.3,6.2,54.9c7.3-4.9,6-12.4,7.8-18.9c0.5,10.2,0.9,20.4,1.4,30.6
		c0.9,0.1,1.8,0.1,2.7,0.2c0.9-7,1.8-14.1,2.6-21.1c3.1,7.1,3.7,14.3,1.7,21.4c-2.3,8.4,0.9,15.7,3.1,23.3c0.7,0,1.3,0,2,0
		c0.6-7.7,1.1-15.4,1.7-23.1c1.1,0.8,1.7,1.7,1.6,2.5c-0.8,11.3-2,22.7-2.6,34c-0.3,5.5,0.2,11.1,1,16.6c0.2,1.4,2.7,2.5,4.7,4.1
		c0-5.9,0-10.4,0-15c3.1,6.1,6.1,11.8,8.8,17.7c0.6,1.4,0.6,3.2,0.4,4.8c-1.9,12.1-8.6,21.9-16.2,31c-8,9.5-13.1,20.3-17.9,31.6
		c-4.3,9.9-10,19.3-16,28.3c-2.9,4.3-7.2,7.2-9,12.9c-3.1,10.1-0.6,18.2,8.7,23c2,1,3.7,2.8,5.1,4.6c9.5,12.3,18.7,24.8,28.4,37
		c3.7,4.6,8.3,8.6,12.6,12.7c4.4,4.3,4.8,12.4,12.7,13.5c0.5,0.1,0.9,1.2,1.4,1.7c3.1,2.8,5.9,6.3,9.5,8.1
		c11.6,5.6,23.5,10.5,35.2,15.8c8.4,3.9,14.6-0.1,13.9-9.3c-0.4-5.6-1.1-11.2-2.2-16.7c-2-10-3.9-10.9-13.2-6.8
		c-1.6,0.7-2.8,2.3-4,3.6c-2.2,2.3-4.3,4.7-7.3,7.9c0.4-7.9-0.1-8.3-7-6c0-1.1-0.1-2.2,0-3.2c0.3-1.5,0.7-3,1.1-4.5
		c-1.7,0.1-3.5,0.1-5.1,0.4c-1.2,0.3-2.3,1.4-3.5,1.7c-3.8,0.9-8,3.5-10.7-2.3c0.7-0.6,1.7-1,2-1.8c0.9-1.9,1.5-4,2.2-6
		c-1.8,0.3-3.7,0.3-5.4,0.9c-4.4,1.6-9.3-1.5-10.6-6.2c-3.5-11.8-9.1-22.5-17.5-31.6c-0.9-0.9-2-1.7-3.2-2.3
		c-9.5-4.6-16.1-12.4-22.6-20.4c-0.5-0.6-0.6-1.7-0.5-2.5c1.6-15.7,7.1-29.7,17.1-42c7.9-9.7,15.6-19.7,23.3-29.6
		c7.2-9.3,14.4-18.6,21.6-28c2.1-2.7,4.3-4.6,8.6-2.3c-2.9,4.6-5.7,8.9-8.5,13.2c-5.8,9.3,0.3,21.3,11.1,22c1.6,0.1,3.3,0,5.4,0
		c0.7,2.9,1.3,5.8,2.2,8.6c2.5,7.4,4.3,15.2,7.8,22c5.3,10.2,7.6,20.3,4.2,31.6c-1,3.2-0.7,7.8,0.9,10.8c5.2,9.8,8.2,20.2,9.7,31.1
		c1.7,12.7-0.6,25.7,3.4,38.4c2.9,9.3,2.3,19.1,1.5,29c-1.2,14.7-11,23.7-20.3,32.2c-4.8,4.4-10.5,7.6-12.9,14.1
		c-0.9,2.3-2.5,5.9-1.5,7c1.6,2,5,3.4,7.6,3.4c6.8,0,13.6-0.9,20.4-1.6c6.3-0.7,12.1-6.6,10.6-11.2c-2-6-2.6-11.1,5-13.9
		c0.6,0.3,1.8,1.2,3,1.2c1.9,0,3.7-0.7,5.6-1.1c-1-1.3-2-2.5-3-3.8c-1.3-1.9-2.6-3.7-4-5.8c3.6,0.4,6.1,0.7,8.6,1
		c0.1-0.6,0.3-1.1,0.4-1.7c-1.4-2.2-2.8-4.3-4.1-6.4c2.7-3.7,5.9-7.1,0.4-10.9c-0.8-0.5-0.6-2.4-1-3.7c-2.1-7.1-0.2-13.9,1.4-20.8
		c2.8-12.4,3.9-24.9-1.1-37.1c-2.2-5.4-4.6-10.7-6.5-16.2c-2-5.7-3.8-10.8-1.6-17.6c2-5.9,1-14.4-1.9-20c-3.6-6.9-6.7-13.8-8-21.3
		c-1.4-7.6-2-15.4-3.1-24.6c2.7,1.5,3.7,1.9,4.5,2.5c17.3,12.4,34.8,24.6,51.9,37.2c10.1,7.4,11.1,13.8,5.8,25.2
		c-4.2,9-10.9,15.5-18.6,21.2c-2.7,2-5.7,4.4-3.4,8.4c2.4,4.1,5.6,2.6,8.7,0.8c5.4-3,10.7-6,16.8-9.4c-4,13.3-5.8,26.7-15.1,37.1
		c-1.1,1.2-1.8,4.8-1.3,5.1c1.8,1.1,4.3,2.1,6.3,1.7c11-2,26.7-19.2,28-30.3c0.7-5.6,0.9-11.3,2.1-16.7c1.6-7.1,4-13.7,11.4-17.7
		c3-1.6,5.4-6.6,5.6-10.1c0.1-3-3.4-6.1-5.3-9.2c0.2-7.6,7.1-11.7,12.1-17.3c2-2.2,3.7-6.1,3.1-8.6c-0.5-2.1-4.5-4.2-7.2-4.7
		c-3.4-0.6-5.6-1.4-6.6-4.8c-0.4-1.2-0.9-2.6-1.8-3.4c-1.4-1.2-3.2-2.7-4.8-2.7c-1.1,0-2.6,2.2-3.3,3.8c-0.9,1.9-1.1,4.1-1.8,7.3
		c-21.7-23.1-50.1-34-77.2-48.7c3.6-4.6,6.8-8.7,10.2-13c8.5,5.6,16.8,5.7,25.3,1.1c1.1-0.6,2.8-0.6,4-0.2
		c5.3,1.6,10.2,1.2,15.2-1.4c3.7-1.9,8-2.8,12.1-4.2c5.6-2,11.5-3.6,16.7-6.4c10-5.4,19.7-11.5,29.5-17.3c1.3-0.7,2.7-1.5,4.1-1.7
		c11.3-1.7,22.5-3.2,33.8-4.9c5.5-0.8,8.9,1.6,9.3,7c0.8,8.8,1.9,17.6,1.3,26.3c-0.9,14,3.6,26.6,10.1,38.1
		c12.2,21.3,25.8,41.8,38.5,62c-6.8,9.8-15,19.2-20.5,29.9c-10.2,19.8-19,40.4-27.9,60.8c-1.6,3.8-1.6,8.7-0.8,12.9
		c0.8,4.7,2.7,9.5,5.3,13.6c4.5,7.1,9.8,13.7,15.2,20.1c0.8,1,5.5,0.5,6-0.5c4.4-8,8.5-16.2,12-24.6c1.6-3.9-4-9.3-8-8.5
		c-2.9,0.6-6,2.6-8.5,1.9c-2.3-0.6-3.8-4-5.2-5.6c2.2-1.2,4.3-2.3,6.5-3.4c-1.3-1.7-2.7-3.3-3.9-4.9c1.8-0.5,3.7-1,6.1-1.6
		c-1-1.4-1.3-2.1-1.8-2.6c-7.7-7-7.5-7.5,0-14.4c2.1-2,4.4-4.7,4.9-7.4c1.8-9.6,6.2-17.3,13.6-23.7c3.5-3,6.4-6.8,9.3-10.5
		c6.4-8.2,12.7-16.4,19-24.8c0.7-0.9,1.1-2.6,0.7-3.6c-2.1-5.2-4.1-10.5-6.9-15.2c-3.9-6.6-9.2-12.3-12.7-19.1
		c-3.5-6.8-5.6-14.3-7.9-21.7c-1.5-4.8-2.2-9.9-3.2-14.8c0.5-0.2,1.1-0.5,1.6-0.7c13.9,30.6,36.5,54.7,57.7,79.6
		c-1.7,9.6-3.7,19.7-5.4,29.9c-3.6,21.2-2.9,43.1-11.1,63.4c-1.8,4.6-3.7,9.2-6.3,13.4c-2.3,3.7-5.6,6.9-8.5,10.3
		c-1.7,1.9-3.2,4.9-5.3,5.4c-10.2,2.7-14.4,10.7-18.1,19.2c-1.9,4.3,0.7,7.2,5.6,6.9c3-0.2,5.9,0.2,8.9,0c5.4-0.3,10.9-0.5,16.2-1.5
		c2.3-0.4,6-2.8,5.9-4.3c-0.1-4,2.7-9.6-4-11.2c0.8-2.8,1.4-5.3,1.7-6.2c3.6-0.3,6.3-0.6,9-0.8c-0.7-3.3,1.6-2,3.1-2.2
		c1.1-0.2,2-1.2,3.3-2c-1-1.1-1.6-1.8-2.2-2.5c-4.3-5.1-3.9-6.2,2.1-8.6c0.9-0.4,1.9-2.6,1.6-3.6c-0.9-3.3-3-6.6,2.1-8.4
		c0.7-0.2,1.1-1.5,1.3-2.4c1.6-7.7,3-15.5,4.7-23.2c1.5-6.9,3.3-13.8,4.8-20.7c1.7-7.9,3.2-15.8,4.6-23.7c0.6-3.3,0.4-6.8,1.3-10
		c3.7-13.2,4.8-25.4-6.2-36.4c-12.9-12.9-19.2-30.3-24.9-46.8c-6.6-19-9.6-39.3-13.5-59.2c-1-5.2,0.3-10.9,0.5-17
		c7.8,4.5,6.9,11.7,8.7,17.7c0.3,1.2,1.2,2.3,1.8,3.4c0.9-1,2-1.9,2.7-3c0.5-0.8,0.6-1.9,1.2-4c2,7.6,3.7,13.9,5.3,20.2
		c0.7-0.1,1.4-0.2,2.1-0.4c0.5-3,1-6,1.5-9c0.5-0.1,1-0.2,1.4-0.3c0.7,2.5,1.3,5,2.2,7.4c0.9,2.6,1.9,5.1,3.1,7.5
		c1.5,3.1,3.4,6.1,4.9,9.3c1.1,2.2,1.8,4.6,2.7,7c0.7-0.1,1.4-0.2,2.2-0.3c-1,6-2.1,12-3.3,18.8c2.6-1.2,4.2-1.9,5.8-2.7
		c1.3,6.3-4.3,12-2.2,18.3c0.6,0.2,1.2,0.3,1.8,0.5c2.3-4.9,4.6-9.8,7-14.7c0.2,0,0.4,0.1,0.6,0.1c-0.8,8.2-1.6,16.4-2.4,24.5
		c0.6,0.2,1.2,0.4,1.8,0.6c1.3-1.8,2.6-3.7,4-5.5c0.4,0,0.9,0,1.3,0c0,11.7,0,23.3,0,35c0.7,0.1,1.4,0.2,2.1,0.3
		c1.2-3.1,2.5-6.2,3.9-9.6c0.6,3.3,1.1,6.1,1.6,8.8c0.7,0,1.4-0.1,2.1-0.1c0.5-4.8,1-9.5,1.5-14.3c1.7,16.6,3.5,33.1,9.2,49.9
		c2-2.4,3.2-3.7,5.1-5.9c0,2.8-0.2,4.5,0.1,6.2c0.2,1.1,0.9,2.1,1.4,3.1c0.9-0.9,2.4-1.8,2.6-2.8c0.4-3,0.3-6,0.3-9
		c0-11.3,0-22.6,0-33.9c0.8,0,1.6,0,2.4-0.1c0,13.7,0,27.4,0,41.1c0.8,0,1.5,0.1,2.3,0.1c1-6.8,2-13.5,3.1-21.1
		c1.7,2.8,2.8,4.7,3.9,6.6c0.5-0.1,1-0.2,1.4-0.4c0.4-3.3,0.7-6.5,1.1-9.9c3.7,2.7,5.3,1.1,4.9-2.7c-1.7-13.5-2.2-27.3-5.7-40.3
		c-5-18.8-12.1-37.1-18.4-55.5c-0.8-2.3-1.7-4.6-3-6.6c-9.4-15.7-21.9-28.5-36.1-39.9c-2.1-1.7-4-3.8-5.6-6c-6-8-10-17.7-21-20.8
		c-3.9-1.1-8-3.4-10.8-6.2c-6.1-6.1-11.5-12.8-16.9-19.6c-8.8-11-20.7-15.1-34-15.6c-13-0.5-23.6,6.1-32.9,14
		c-12.5,10.6-27.8,9.4-43.3,12.7c1.2-2.7,1.7-4.1,2.4-5.3c3.6-6,2.8-11.4-1.1-17.2c-6.3-9.5-12.6-9.9-17.2,0.7
		c-5.4,12.4-14.7,21.2-24.6,29.5c-2.2,1.9-5.7,2.2-8.6,3.2c-0.2-0.6-0.3-1.2-0.5-1.7c1.4-0.4,2.8-0.7,4.2-1.2c1.4-0.5,2.7-1.1,4.8-2
		c-1.5-2.4-2.4-4.7-3.9-6.3c-5.8-6.2-6.2-8.3-2-15.8c5.5,7.3,5.7,7.4,12.2,0.3c4-4.4,7.2-9.6,11.7-13.4c11.6-10.1,22.1-22,38.8-24.2
		c5.3-0.7,9.4-7.2,10-12.3c0.7-6.5-1.9-10.4-8.1-12.2c-1.1-0.3-2.8-2.3-2.6-2.9c2.1-6.2-1.8-8.5-6.3-10.7c-1-0.5-1.9-1.7-2.5-2.8
		c-5.5-10.2-10.8-20.5-16.5-30.7c-1.6-2.8-2.1-5-0.9-8.3c1.4-4,1.9-8.4,1.8-12.7c-0.2-7-3.9-10.2-11-10.8c-2-0.2-3.9-0.6-6-0.9
		c2.2-3.9,4.6-7.2,6-10.9c1.5-4,2.3-8.3,2.9-12.6c0.9-5.7-1.5-7.8-7-6.3c-4.2,1.2-8.3,2.8-13.4,4.6c0.6-4.7,0.4-9.1,1.8-12.8
		c3.9-9.9,8.5-19.5,12.9-29.2c1.4-3,3.7-3.1,6.6-2c5.4,2.1,10.8,4.2,16.4,5.8c2,0.6,4.5-0.5,6.8-0.8c0.2-0.8,0.5-1.6,0.7-2.4
		c-4-3.1-7.8-6.8-12.2-9.2c-3.8-2.1-5.1-4.5-4.4-8.5c1.3-7.7-0.2-15.1-1.8-22.7c-2.4-11.2-14-15.1-22.1-11.1
		c-6.4,3.2-12.7,7.4-17.7,12.5c-4.4,4.5-8.6,4.6-14,3.7c-5-0.8-10.3-3.5-15.2,0.3c-0.9,0.7-2.2,1.8-2.3,2.7c0,1,1.1,2.4,2.1,2.9
		c4.2,1.9,8.5,3.6,12.9,5.2c4,1.5,8,2.8,12.3,4.4c-1.1,1.8-1.8,2.8-2.4,4c-4.2,7.7-8.4,15.3-12.4,23.1c-1.7,3.3-2,6.3,3.4,6.1
		c1.1,0,3.1,1.2,3.3,2.2c0.9,4.8,2.5,9.6-1,14.5c-2.5,3.5-3.8,8.1-4.9,12.4c-0.4,1.5,1.4,3.6,2,5.1c6.2-5.1,11.4-9.3,16.7-13.6
		c0.6,0.2,1.1,0.4,1.7,0.6c-0.3,5.5,0.2,11.1-1,16.4c-1.4,6.6-4.1,12.9-6.7,20.5c-9.9,4-12.2,7.3-13,19.8c-0.1,2.2-1,4.7-2.3,6.6
		c-9.9,14.1-20,28.1-30.2,42.1c-1.6,2.1-3.9,3.9-6.2,5.3c-3.2,2-6,3.9-3.3,9.5c-5.3-0.7-10.2-0.2-13.7-2.1
		c-13.4-7.5-26.8-15.5-33.1-30.8c-1.7-4.1-4.8-5.5-8.5-2.7c-2.5,1.9-4.6,1.7-6.4-0.4c-2.3-2.6-4.5-5.3-6.1-8.3
		c-2.1-3.8-3.5-7.9-5.4-12.1c0.9-0.4,2.5-1,4-1.6c5.1-2,5.4-3.7,1.8-7.5c-4.6-4.9-8.6-10.4-13.5-15c-7.5-7.1-10.5-15.7-12.5-25.6
		c-5-25-10.9-49.9-16.8-74.7c-5.8-24.6-12.4-49-18.2-73.6c-8-33.4-14.4-67.1-25.1-99.8c-2.9-8.9-6.4-18.2-2.7-28
		c0.5-1.3,0.3-3.1-0.2-4.4c-1.8-5.3-3.9-10.5-5.7-15.8c-5.1-15.5-10.1-31-15.3-46.4c-0.6-1.8-2.2-3.3-3.3-5c-0.7,2-2.1,4.1-1.9,6
		c1.7,16.4,3.5,32.8,5.7,49.2c1,7.1-1.5,15.3,4.6,20.8c5.7,5.2,6.3,11.8,7.9,18.5c2.5,10.8,5.6,21.4,8,32.1
		c5.1,23,9.9,46.2,14.9,69.2c2.3,10.6,4.9,21.2,7.1,31.8c3.5,17.3,6.4,34.7,10.3,51.9c5.5,24.1,11.8,48,17.5,72.1
		c1.1,4.7,2.5,9.7,1.8,14.3c-1.6,11.3-4.2,22.4-6.7,33.5c-1.3,5.9,0.8,8.1,6.8,6.7c3.4-0.8,6.8-1.4,11.6-2.3
		c-5.3,7.6-1.1,11.8,3.1,15.6C448.5,510.4,448.9,521.8,453.1,531.7z M1007.4,570c-1.6,3.4-3.1,6.8-4.7,10.1c-1.2,2.5-2.5,4.9-4,7.2
		c-1,1.5-2.8,2.5-4,3.9c-2.8,3.4-4.3,6.7,0.6,9.9c0.9,0.6,1.3,2.4,1.5,3.7c1.4,7.7,4.1,14.7,11,19.2c4.8,3.1,5.3,4.7,1.3,8.5
		c-12.5,11.8-24.7,23.9-37.7,35.2c-9.8,8.5-16,18.8-19.2,31c-1.8,7-2.4,14.3-3.8,22.8c-3.5-5.9-7.8-9.9-7.9-16.6
		c-0.1-7.5-3.5-13.6-10-17.8c-1-0.6-2-2.6-1.7-3.4c3.4-8.3-1.3-13.7-6.2-19.3c-1.6-1.8-3.6-4.6-3.2-6.5c1.8-8.5-1.6-14.5-7.8-19.7
		c-1.3-1.1-3-3.4-2.6-4.4c2.1-5.1-1.5-8.1-3.8-11.6c-2-3-6-5.1-3.5-9.9c0.4-0.7-1.1-2.6-2-3.7c-3.6-4.4-7.3-8.7-11.2-13.2
		c15.1-12.4,29.5-24.2,48.6-28.6c4.4-1,8.4-3.8,12.4-6.2c1-0.6,1.4-3,1.2-4.5c0-0.5-2.4-1.3-3.6-1.2c-4.7,0.2-9.5,0.1-14.1,1.1
		c-9.1,2-18,4.7-27,7.2c-0.3-0.5-0.6-1-0.9-1.5c4.6-5.1,9.2-10.2,13.6-15.5c1.2-1.5,1.6-3.7,2.3-5.6c-2.2-0.1-4.7-0.8-6.6-0.1
		c-17.6,6.8-29.7,20.3-42,33.8c-1.5,1.6-4.1,3-6.3,3.1c-6.3,0.2-11.5,1.9-15.9,6.9c-8.3,9.4-16.9,18.5-25.8,27.4
		c-2.3,2.3-5.8,4.1-9.1,4.8c-11.9,2.5-16.9,14.5-9.8,24.4c0.8,1.1,1.3,2.3,1.9,3.4c2.2,4.2,5.6,5.8,10.2,5c8-1.4,14.2-5.6,18.6-12.4
		c4.1-6.4,7.1-7,13.9-4.4c3.6,1.4,8.1,2,11.8,1.2c4.5-0.9,8.6-3.7,13-5.7c0.6,2.5,0.9,5.7,2.1,8.6c10.2,24.9,16.6,50.9,20.6,77.5
		c1.7,11.4,2.4,23,3.5,34.5c0.1,1.3-0.2,2.6-0.4,3.9c-1.1,9.8-3,19.6-3.2,29.5c-0.3,14.7,11.2,30.2,24.8,35.5
		c1.7,0.7,3.5,2.6,4.2,4.4c5.3,12.9,2.7,26.1,0.6,39.1c-1,6-0.6,10.5,4.5,14.4c7.5,5.8,15.2,11.5,22,18c6.5,6.3,10.7,15.3,22.4,14.9
		c-2.6,4.1-5.3,7.8-8.5,10.9c-3.6,3.5-8,6.2-11.4,9.9c-5.3,5.7-4.2,9,3.1,10.8c2.2,0.5,4.4,1,6.6,1.1c10.1,0.4,13-2.8,12.2-12.8
		c-0.1-1.1,0-2.2,0-3.9c8.5-1.3,12.2-6.2,9.1-15.2c14.1,4.5,19.1,0.2,16.5-12.8c-0.4-1.8-0.8-3.7-1.6-5.4c-0.6-1.3-1.7-3-2.8-3.3
		c-7.7-1.7-4.5-10.1-8.7-13.8c2.4-8-0.7-15.8-2.1-23.4c-1.3-7.3,0.2-13.5,2.3-20.4c6.2,5.8,12.1,11.2,17.8,16.9
		c1.5,1.5,3.3,3.6,3.5,5.5c0.6,8.2,0,16.6,1.2,24.7c0.9,6,0,10.9-2.5,16.2c-1.5,3.1-2.2,6.8-2.3,10.3c-0.2,4.3,2.2,5.6,6.2,3.8
		c8.7-4.1,15.6-10.4,20.7-18.4c3.4-5.2,5.5-11.2,8.8-16.6c3.1-5.1,7.3-9.6,10.2-14.8c3.1-5.4,2.9-11.6-0.8-16.5
		c-3.1-4.2-8.3-4-13-2.7c-5.6,1.5-10.2-1.8-10.4-7.7c-0.1-3.1,0-6.1,0-9.6c2.3-1,6.3-1.5,7.8-3.7c3.6-5.1,8.5-5.3,14-5.6
		c0.5,1.4,1.3,2.7,1.4,4.2c1.1,15.7,11.4,23.3,24.3,29.5c7.1,3.5,13.3,8.8,19.7,13.6c2.9,2.2,5.1,5.2,7.6,7.9
		c-5.8,9.5-13.1,18.9-17.7,29.4c-4.9,11.2-13.2,18-22.9,24.1c-3.1,2-5.4,5.5-7.2,8.8c-0.5,0.9,1.5,4.7,3,5.1c3.3,0.9,7,0.9,10.5,0.7
		c10.4-0.7,13.9-4.3,13.5-12.2c3-3.6,5.6-6.6,8.1-9.7c4.9,1.6,5.7,1,5.8-4c0-1.5,0.5-3.2,1.3-4.6c2.7-5.3,5.5-10.6,8.5-15.8
		c3.8-6.7,7.9-13.3,12.3-20.7c3.1,12.4,5.5,23.6,8.8,34.5c1,3.5,3.6,8.1,6.5,9.1c2.8,0.9,3.2,2.2,4,4.1c2.5,6.7,7.2,10.6,14.5,11.5
		c3.7,0.5,5.3-1.2,6.3-4.1c1.3-3.6-2.5-14.3-5.8-16.2c-1.1-0.6-2.8-1.2-3.7-0.8c-6.2,3-6.7-1.9-8.4-5.7c2.7-2.4,6.5-4.8,0.8-7.9
		c-0.3-0.1-0.1-1-0.2-1.5c-0.2-2.3,0-4.9-0.8-7c-3.5-8.5-5.8-17-2.9-26.2c0.6-1.9,0.7-4.1,0.9-6.1c0.6-8.2,0.6-8.1-7.5-9.6
		c-1.1-0.2-2-0.9-3-1.3c-11.4-4.9-16.2-16-21.7-25.6c-2.4-4.2-1.2-11.4,0.4-16.6c2.6-8.4,6.9-16.2,10.6-24.5
		c4.6,6.6,9.8,14,14.8,21.5c0.4,0.6,0,1.8,0,2.7c0.2,4.1-0.1,8.3,0.9,12.3c1.7,7.1,7.1,13.4,3.4,21.4c-0.3,0.7,1.1,2.2,1.6,3.3
		c1.5,3.7,3.5,7.2,4.4,11c1.1,5.2,1.3,10.7,2.1,16c0.2,1,1.4,2.8,2,2.7c1.2-0.1,3-1,3.4-2c6.7-14.7,9-29.9,2.7-45.1
		c-4-9.6-9.5-18.7-15-27.6c-5.7-9-12.4-17.4-18.5-26.1c-1.9-2.7-4.2-5.5-5.2-8.6c-3.4-11-9-19.8-22-23c3.3-6.9,5-14.4,9.5-19.3
		c9.5-10.4,11-14.8,4.5-27.2c-1.4-2.6-2.3-5.5-2.9-8.4c-1.2-6.4-1.5-13.1-3.4-19.3c-1.3-4.2-4.6-7.8-7-11.7
		c-0.7-1.2-2.1-2.2-2.3-3.5c-2.3-15.6-10.5-27.8-21.9-38c-1.1-1-2-2.1-3-3.2c1.8-0.5,2.6,0.1,3.5,0.5c6.9,2.7,13.7,5.9,20.8,7.9
		c2,0.6,5.2-2,7.3-3.8c0.5-0.5-1.1-4.1-2.5-5.6c-2.4-2.6-5.5-4.4-7.9-6.9c-5.6-5.7-13.8-9-12.6-19.9c0.8-7.4-3.8-14.7-11.2-18.2
		c-14.1-6.7-28.6-8.6-43.2-1.2c-0.8,0.4-1.8,0.5-2.6,0.3c-5.6-1.2-11.2-2.9-16.9-3.7c-5.4-0.8-11-1.4-16.5-0.9
		c-1.7,0.1-3.5,3.8-4.4,6.2c-0.3,0.7,1.7,3.1,3.1,3.7C991.8,563.8,999.8,566.9,1007.4,570z"/>
	<path d="M453.1,531.7c-4.2-9.9-4.6-21.3-13.4-29.4c-4.2-3.8-8.4-8-3.1-15.6c-4.9,1-8.3,1.6-11.6,2.3c-6,1.4-8.1-0.9-6.8-6.7
		c2.4-11.1,5-22.2,6.7-33.5c0.7-4.6-0.7-9.7-1.8-14.3c-5.7-24.1-12-48-17.5-72.1c-3.9-17.2-6.8-34.6-10.3-51.9
		c-2.2-10.6-4.8-21.2-7.1-31.8c-5-23.1-9.8-46.2-14.9-69.2c-2.4-10.8-5.5-21.4-8-32.1c-1.5-6.7-2.2-13.3-7.9-18.5
		c-6-5.5-3.6-13.8-4.6-20.8c-2.2-16.3-4-32.8-5.7-49.2c-0.2-1.9,1.2-4,1.9-6c1.1,1.7,2.7,3.2,3.3,5c5.2,15.4,10.2,30.9,15.3,46.4
		c1.8,5.3,3.9,10.5,5.7,15.8c0.5,1.4,0.7,3.1,0.2,4.4c-3.7,9.8-0.2,19.1,2.7,28c10.8,32.7,17.2,66.5,25.1,99.8
		c5.9,24.6,12.4,49,18.2,73.6c5.9,24.8,11.7,49.7,16.8,74.7c2,9.9,5,18.6,12.5,25.6c4.9,4.6,8.9,10.1,13.5,15
		c3.6,3.8,3.3,5.5-1.8,7.5c-1.6,0.6-3.1,1.2-4,1.6c1.9,4.3,3.3,8.4,5.4,12.1c1.6,3,3.9,5.7,6.1,8.3c1.8,2,3.8,2.2,6.4,0.4
		c3.7-2.8,6.8-1.4,8.5,2.7c6.3,15.3,19.7,23.3,33.1,30.8c3.5,1.9,8.4,1.4,13.7,2.1c-2.7-5.6,0.1-7.5,3.3-9.5
		c2.3-1.4,4.6-3.2,6.2-5.3c10.2-13.9,20.2-27.9,30.2-42.1c1.3-1.8,2.2-4.3,2.3-6.6c0.8-12.5,3.1-15.8,13-19.8
		c2.6-7.6,5.3-13.9,6.7-20.5c1.1-5.3,0.7-10.9,1-16.4c-0.6-0.2-1.1-0.4-1.7-0.6c-5.2,4.3-10.5,8.5-16.7,13.6c-0.6-1.5-2.4-3.6-2-5.1
		c1.1-4.3,2.4-8.8,4.9-12.4c3.5-4.9,1.9-9.6,1-14.5c-0.2-0.9-2.2-2.2-3.3-2.2c-5.4,0.2-5.1-2.8-3.4-6.1c4-7.8,8.2-15.4,12.4-23.1
		c0.6-1.1,1.3-2.2,2.4-4c-4.4-1.5-8.4-2.9-12.3-4.4c-4.3-1.6-8.7-3.3-12.9-5.2c-1-0.4-2.1-1.9-2.1-2.9c0-0.9,1.3-2,2.3-2.7
		c4.9-3.9,10.2-1.1,15.2-0.3c5.5,0.8,9.6,0.7,14-3.7c5-5.1,11.3-9.3,17.7-12.5c8.1-4.1,19.7-0.1,22.1,11.1c1.6,7.7,3.1,15,1.8,22.7
		c-0.7,4,0.7,6.4,4.4,8.5c4.4,2.5,8.1,6.1,12.2,9.2c-0.2,0.8-0.5,1.6-0.7,2.4c-2.3,0.3-4.8,1.3-6.8,0.8c-5.6-1.5-11-3.6-16.4-5.8
		c-2.9-1.1-5.2-1-6.6,2c-4.4,9.7-9,19.3-12.9,29.2c-1.5,3.7-1.2,8-1.8,12.8c5.1-1.8,9.2-3.4,13.4-4.6c5.5-1.5,7.9,0.6,7,6.3
		c-0.7,4.2-1.4,8.6-2.9,12.6c-1.4,3.7-3.8,7-6,10.9c2.1,0.3,4.1,0.8,6,0.9c7,0.6,10.7,3.8,11,10.8c0.1,4.2-0.4,8.7-1.8,12.7
		c-1.2,3.3-0.7,5.5,0.9,8.3c5.6,10.1,11,20.4,16.5,30.7c0.6,1.1,1.4,2.3,2.5,2.8c4.5,2.2,8.5,4.5,6.3,10.7c-0.2,0.6,1.5,2.6,2.6,2.9
		c6.2,1.9,8.8,5.7,8.1,12.2c-0.6,5.1-4.7,11.6-10,12.3c-16.7,2.2-27.2,14.1-38.8,24.2c-4.4,3.9-7.7,9.1-11.7,13.4
		c-6.5,7.1-6.7,7-12.2-0.3c-4.2,7.5-3.9,9.6,2,15.8c1.6,1.7,2.5,3.9,3.9,6.3c-2.1,0.9-3.4,1.5-4.8,2c-1.4,0.5-2.8,0.8-4.2,1.2
		c0.2,0.6,0.3,1.2,0.5,1.7c2.9-1,6.4-1.4,8.6-3.2c9.9-8.3,19.2-17,24.6-29.5c4.6-10.6,10.9-10.2,17.2-0.7c3.8,5.8,4.7,11.2,1.1,17.2
		c-0.7,1.2-1.2,2.6-2.4,5.3c15.5-3.4,30.8-2.1,43.3-12.7c9.4-8,19.9-14.5,32.9-14c13.3,0.5,25.2,4.6,34,15.6
		c5.4,6.7,10.9,13.5,16.9,19.6c2.8,2.9,6.9,5.1,10.8,6.2c11,3.2,15,12.9,21,20.8c1.6,2.2,3.5,4.3,5.6,6
		c14.1,11.4,26.7,24.2,36.1,39.9c1.2,2.1,2.2,4.4,3,6.6c6.3,18.5,13.4,36.7,18.4,55.5c3.5,13,4,26.8,5.7,40.3
		c0.5,3.8-1.1,5.4-4.9,2.7c-0.4,3.4-0.7,6.6-1.1,9.9c-0.5,0.1-1,0.2-1.4,0.4c-1.1-1.9-2.2-3.7-3.9-6.6c-1.1,7.5-2.1,14.3-3.1,21.1
		c-0.8,0-1.5-0.1-2.3-0.1c0-13.7,0-27.4,0-41.1c-0.8,0-1.6,0-2.4,0.1c0,11.3,0,22.6,0,33.9c0,3,0.1,6-0.3,9c-0.1,1-1.7,1.9-2.6,2.8
		c-0.5-1-1.3-2-1.4-3.1c-0.2-1.6-0.1-3.3-0.1-6.2c-1.9,2.2-3,3.5-5.1,5.9c-5.7-16.8-7.5-33.3-9.2-49.9c-0.5,4.8-1,9.5-1.5,14.3
		c-0.7,0-1.4,0.1-2.1,0.1c-0.5-2.8-1-5.5-1.6-8.8c-1.4,3.4-2.6,6.5-3.9,9.6c-0.7-0.1-1.4-0.2-2.1-0.3c0-11.7,0-23.3,0-35
		c-0.4,0-0.9,0-1.3,0c-1.3,1.8-2.6,3.7-4,5.5c-0.6-0.2-1.2-0.4-1.8-0.6c0.8-8.2,1.6-16.4,2.4-24.5c-0.2,0-0.4-0.1-0.6-0.1
		c-2.3,4.9-4.6,9.8-7,14.7c-0.6-0.2-1.2-0.3-1.8-0.5c-2.1-6.3,3.4-12,2.2-18.3c-1.6,0.7-3.2,1.5-5.8,2.7c1.2-6.9,2.3-12.8,3.3-18.8
		c-0.7,0.1-1.4,0.2-2.2,0.3c-0.9-2.3-1.6-4.7-2.7-7c-1.5-3.1-3.3-6.1-4.9-9.3c-1.2-2.4-2.2-5-3.1-7.5c-0.9-2.4-1.5-5-2.2-7.4
		c-0.5,0.1-1,0.2-1.4,0.3c-0.5,3-1,6-1.5,9c-0.7,0.1-1.4,0.2-2.1,0.4c-1.7-6.3-3.3-12.6-5.3-20.2c-0.6,2.1-0.7,3.2-1.2,4
		c-0.7,1.1-1.8,2-2.7,3c-0.6-1.1-1.5-2.2-1.8-3.4c-1.7-6-0.9-13.2-8.7-17.7c-0.3,6.1-1.6,11.8-0.5,17c3.9,19.9,7,40.1,13.5,59.2
		c5.7,16.6,12,33.9,24.9,46.8c11,11,9.9,23.2,6.2,36.4c-0.9,3.2-0.7,6.7-1.3,10c-1.4,7.9-3,15.8-4.6,23.7
		c-1.5,6.9-3.3,13.8-4.8,20.7c-1.7,7.7-3.1,15.4-4.7,23.2c-0.2,0.9-0.7,2.1-1.3,2.4c-5.1,1.8-3,5.1-2.1,8.4c0.3,1-0.7,3.2-1.6,3.6
		c-6,2.4-6.4,3.5-2.1,8.6c0.6,0.7,1.2,1.4,2.2,2.5c-1.2,0.8-2.2,1.8-3.3,2c-1.5,0.3-3.9-1.1-3.1,2.2c-2.7,0.2-5.4,0.5-9,0.8
		c-0.2,0.9-0.9,3.3-1.7,6.2c6.6,1.6,3.8,7.2,4,11.2c0,1.4-3.7,3.8-5.9,4.3c-5.3,1-10.8,1.2-16.2,1.5c-3,0.2-5.9-0.2-8.9,0
		c-4.9,0.3-7.5-2.6-5.6-6.9c3.7-8.5,7.9-16.5,18.1-19.2c2.1-0.5,3.6-3.5,5.3-5.4c2.9-3.4,6.2-6.5,8.5-10.3c2.6-4.2,4.5-8.8,6.3-13.4
		c8.2-20.3,7.5-42.3,11.1-63.4c1.7-10.1,3.6-20.2,5.4-29.9c-21.2-24.9-43.8-49-57.7-79.6c-0.5,0.2-1.1,0.5-1.6,0.7
		c1.1,5,1.8,10,3.2,14.8c2.3,7.3,4.4,14.9,7.9,21.7c3.5,6.8,8.8,12.5,12.7,19.1c2.8,4.8,4.8,10.1,6.9,15.2c0.4,1-0.1,2.7-0.7,3.6
		c-6.2,8.3-12.5,16.6-19,24.8c-2.9,3.7-5.8,7.5-9.3,10.5c-7.4,6.4-11.8,14.1-13.6,23.7c-0.5,2.7-2.7,5.4-4.9,7.4
		c-7.6,7-7.7,7.4,0,14.4c0.5,0.5,0.8,1.2,1.8,2.6c-2.4,0.7-4.3,1.2-6.1,1.6c1.3,1.6,2.6,3.2,3.9,4.9c-2.1,1.1-4.3,2.2-6.5,3.4
		c1.4,1.6,2.9,5,5.2,5.6c2.4,0.7,5.6-1.3,8.5-1.9c4-0.8,9.5,4.6,8,8.5c-3.5,8.4-7.6,16.6-12,24.6c-0.6,1-5.2,1.5-6,0.5
		c-5.4-6.4-10.7-13.1-15.2-20.1c-2.6-4-4.4-8.8-5.3-13.6c-0.7-4.2-0.8-9.1,0.8-12.9c8.9-20.5,17.7-41,27.9-60.8
		c5.5-10.7,13.7-20.1,20.5-29.9c-12.6-20.2-26.3-40.7-38.5-62c-6.5-11.4-11-24.1-10.1-38.1c0.6-8.7-0.5-17.6-1.3-26.3
		c-0.5-5.4-3.8-7.8-9.3-7c-11.3,1.7-22.5,3.2-33.8,4.9c-1.4,0.2-2.8,1-4.1,1.7c-9.8,5.8-19.5,11.9-29.5,17.3
		c-5.2,2.8-11.1,4.4-16.7,6.4c-4,1.5-8.3,2.3-12.1,4.2c-5,2.6-9.9,3-15.2,1.4c-1.2-0.4-3-0.4-4,0.2c-8.5,4.6-16.8,4.5-25.3-1.1
		c-3.4,4.3-6.6,8.4-10.2,13c27.1,14.7,55.5,25.6,77.2,48.7c0.7-3.1,0.9-5.3,1.8-7.3c0.7-1.5,2.1-3.7,3.3-3.8c1.6,0,3.4,1.5,4.8,2.7
		c0.9,0.8,1.5,2.2,1.8,3.4c1,3.4,3.2,4.3,6.6,4.8c2.7,0.4,6.7,2.6,7.2,4.7c0.6,2.5-1.1,6.4-3.1,8.6c-5,5.6-11.9,9.7-12.1,17.3
		c1.9,3.1,5.4,6.2,5.3,9.2c-0.2,3.6-2.6,8.5-5.6,10.1c-7.4,4-9.8,10.6-11.4,17.7c-1.2,5.5-1.5,11.1-2.1,16.7
		c-1.3,11.1-17,28.3-28,30.3c-2,0.4-4.5-0.6-6.3-1.7c-0.5-0.3,0.2-3.9,1.3-5.1c9.3-10.4,11.1-23.8,15.1-37.1
		c-6.1,3.4-11.4,6.4-16.8,9.4c-3.1,1.8-6.3,3.4-8.7-0.8c-2.3-4,0.7-6.4,3.4-8.4c7.8-5.8,14.5-12.2,18.6-21.2
		c5.3-11.4,4.3-17.8-5.8-25.2c-17.2-12.6-34.6-24.9-51.9-37.2c-0.9-0.6-1.8-1-4.5-2.5c1.1,9.2,1.8,16.9,3.1,24.6
		c1.4,7.5,4.4,14.4,8,21.3c2.9,5.6,3.9,14,1.9,20c-2.3,6.9-0.4,12,1.6,17.6c1.9,5.5,4.3,10.8,6.5,16.2c5,12.2,3.9,24.7,1.1,37.1
		c-1.6,6.9-3.4,13.7-1.4,20.8c0.4,1.2,0.2,3.1,1,3.7c5.6,3.8,2.4,7.2-0.4,10.9c1.3,2,2.7,4.2,4.1,6.4c-0.1,0.6-0.3,1.1-0.4,1.7
		c-2.5-0.3-5-0.6-8.6-1c1.4,2,2.7,3.9,4,5.8c1,1.3,2,2.6,3,3.8c-1.9,0.4-3.7,1.1-5.6,1.1c-1.2,0-2.4-0.9-3-1.2c-7.6,2.8-7,8-5,13.9
		c1.5,4.5-4.3,10.5-10.6,11.2c-6.8,0.7-13.6,1.6-20.4,1.6c-2.6,0-6-1.4-7.6-3.4c-1-1.2,0.7-4.7,1.5-7c2.4-6.5,8.1-9.6,12.9-14.1
		c9.3-8.5,19.1-17.5,20.3-32.2c0.8-9.9,1.4-19.7-1.5-29c-3.9-12.7-1.7-25.7-3.4-38.4c-1.5-10.9-4.5-21.3-9.7-31.1
		c-1.6-3-1.9-7.5-0.9-10.8c3.5-11.3,1.2-21.4-4.2-31.6c-3.6-6.8-5.4-14.6-7.8-22c-0.9-2.8-1.5-5.7-2.2-8.6c-2.1,0-3.8,0.1-5.4,0
		c-10.8-0.8-16.9-12.7-11.1-22c2.7-4.4,5.5-8.7,8.5-13.2c-4.3-2.3-6.6-0.4-8.6,2.3c-7.2,9.3-14.3,18.7-21.6,28
		c-7.7,9.9-15.4,19.8-23.3,29.6c-10,12.3-15.5,26.4-17.1,42c-0.1,0.8,0,1.9,0.5,2.5c6.5,7.9,13.1,15.8,22.6,20.4
		c1.2,0.6,2.3,1.3,3.2,2.3c8.4,9.1,14.1,19.8,17.5,31.6c1.4,4.7,6.3,7.7,10.6,6.2c1.7-0.6,3.6-0.6,5.4-0.9c-0.7,2-1.3,4-2.2,6
		c-0.3,0.7-1.3,1.2-2,1.8c2.7,5.8,6.9,3.2,10.7,2.3c1.2-0.3,2.3-1.4,3.5-1.7c1.7-0.4,3.4-0.3,5.1-0.4c-0.4,1.5-0.8,3-1.1,4.5
		c-0.2,1,0,2,0,3.2c6.8-2.3,7.4-2,7,6c3-3.2,5.1-5.6,7.3-7.9c1.3-1.3,2.5-2.9,4-3.6c9.3-4.1,11.2-3.2,13.2,6.8
		c1.1,5.5,1.8,11.1,2.2,16.7c0.7,9.3-5.6,13.2-13.9,9.3c-11.7-5.4-23.6-10.2-35.2-15.8c-3.6-1.8-6.4-5.3-9.5-8.1
		c-0.6-0.5-0.9-1.6-1.4-1.7c-7.9-1.1-8.2-9.2-12.7-13.5c-4.3-4.2-8.9-8.1-12.6-12.7c-9.7-12.2-18.9-24.7-28.4-37
		c-1.4-1.8-3.1-3.6-5.1-4.6c-9.3-4.8-11.8-12.9-8.7-23c1.7-5.7,6-8.6,9-12.9c6.1-9,11.8-18.4,16-28.3c4.8-11.3,9.9-22.1,17.9-31.6
		c7.6-9.1,14.3-18.8,16.2-31c0.2-1.5,0.3-3.4-0.4-4.8c-2.7-5.9-5.8-11.6-8.8-17.7c0,4.6,0,9.1,0,15c-2-1.6-4.5-2.7-4.7-4.1
		c-0.8-5.5-1.3-11.1-1-16.6c0.6-11.4,1.7-22.7,2.6-34c0.1-0.8-0.5-1.7-1.6-2.5c-0.6,7.7-1.1,15.4-1.7,23.1c-0.7,0-1.3,0-2,0
		c-2.2-7.6-5.4-14.9-3.1-23.3c2-7.2,1.4-14.3-1.7-21.4c-0.9,7-1.8,14.1-2.6,21.1c-0.9-0.1-1.8-0.1-2.7-0.2
		c-0.5-10.2-0.9-20.4-1.4-30.6c-1.8,6.5-0.4,14-7.8,18.9c-1.4-18.5,2.6-37.4-6.2-54.9c0.7,4.4,1.3,8.8,1.9,13.2
		c0.7,4.8,1.7,9.7,1.7,14.5c0,4.5-0.1,9.3-5.2,13.8c0-2.9,0.2-4.6,0-6.2c-0.7-5.9-0.4-12.2-2.7-17.4c-2.7-6.1-6-11.6-5.2-18.9
		c-0.5,1.3-1.2,2.6-1.5,3.9c-0.4,1.6-0.5,3.2-0.8,4.8c-0.7,0.1-1.3,0.2-2,0.3c-0.4-1.9-1.3-3.8-1.1-5.7c0.8-8.6,0.2-12-4.7-19.5
		c0,14.6,0,27.7,0,41.2c-5-2.8-7.8-10-6.1-15.8c1.9-6.5,1-12.4-1.6-18.6c-1.2-2.9-0.7-6.5-1.1-9.8c-1-6.9-2.1-13.8-3.2-20.6
		c-0.7,0.1-1.5,0.2-2.2,0.3c0.7,7.4,1.4,14.8,2.1,22.2c0.3,3.7,0.9,7.4,0.7,11.1c-0.1,1.8-1.4,3.5-2.8,6.6
		c-2-10.8-3.5-19.6-5.4-28.5c-1.5-7.3-3.2-14.5-5.3-21.6c-0.5-1.8-2.8-3.4-4.6-4.4c-3.2-1.8-6.8-3.2-9.4-4.3c-1.4,5.2-2,11.9-5,17.4
		c-3.6,6.7-10.7,7.5-18.9,5.1c-7,9.7-13.9,19.7-21.2,29.4c-4.1,5.5-1.4,11.3-1.3,16.9c0.1,7.1-1.9,10.7-8.6,13.1
		c-0.5,0.2-1.1,0.2-1.7,0.3c-3.5,0.9-8,3.5-10.3,2.2c-4.3-2.5-8.3-6.7-10.7-11.1c-4.2-7.7,0.6-19.3,8.5-23.5
		c1.1-0.6,2.2-1.9,2.7-3.1c5.2-11.9,10.4-23.7,15.2-35.7c1.2-2.9,0.8-6.4,1.2-9.6c0.4-3.7,0.4-7.4,1.2-11c1-4.5,3.1-8.9,3.5-13.4
		c0.2-2-2.3-4.6-4.1-6.4c-1.8-1.8-4.4-2.8-6.4-4.5c-1.3-1.1-2.2-2.8-3.2-4.2c1.5-1.1,3.1-2.2,4.7-3.3c-1.8-5.1-0.5-6.5,5.6-6.5
		c9.2,0.1,16.9,2.9,22.3,10.7c0.5,0.7,1.3,1.7,2,1.8c5.3,0.9,10.7,1.9,16,2.2c5.9,0.4,11.6,0.5,16,5.3c1.1,1.2,2.8,2.2,4.3,2.4
		c9.1,0.9,14.5,6.9,19.6,13.6c1.8,2.3,4.8,4.3,7.6,5.1c5.1,1.4,8.3,4.4,11.2,8.6c2.8,4,7.2,6.8,10.1,10.7
		c8.1,10.6,20.1,17.9,25.4,30.9c1.5,3.5,3.9,6.7,5.9,10C451.9,532.2,452.5,532,453.1,531.7z M557.6,522.7c-0.9-0.3-1.7-0.6-2.6-0.9
		c-2.2,4.6-5,8.9-6.4,13.7c-1.4,4.9-2.7,9.1-9.2,8.6c0.2,2.9,0.9,5.3,0.2,7.3c-1.4,3.8-2.7,8.5-5.6,10.5c-7.2,5.1-20.1,1-24.7-6.9
		c-0.4-0.7-0.2-1.9-0.6-2.7c-0.9-2-1.4-4.6-3-5.9c-6.9-6-14.2-11.6-21.3-17.3c-5.7-4.6-11-10-19.7-10.1c3.7,13.7,7.7,27.1,10.8,40.7
		c2.8,12.4,5.5,24.6,16.8,32.4c4.9,3.4,10.1,6.4,15.1,9.6c0.5-0.4,0.9-0.9,1.4-1.3c-0.3-2.3-0.6-4.6-0.8-6.9
		c-0.6-8.3,2.6-13.4,8.7-13.4c4.9,0,8.4,2.6,10.8,6.9c3.6,6.5,7.3,12.8,10.9,19.2c2-3.3,3.5-6.3,5.4-9.1c4.5-6.7,8.3-13.6,8.6-22.1
		c0.5-10.9,1.5-21.7,2.5-32.5C555.5,535.9,556.6,529.3,557.6,522.7z M616.5,492.8c-0.6,0.2-1.2,0.5-1.8,0.7
		c-0.3,1.8-0.7,3.6-0.9,5.4c-1.7,19.5-8.9,36.8-20.5,52.5c-5.2,7.1-8.8,15.3-8.4,24.6c0.1,1.2,1,3.1,1.9,3.4c1.2,0.4,3-0.1,4.3-0.8
		c3.5-1.8,6.9-3.9,10.4-5.8c1.6-0.9,3.7-1.1,4.9-2.3c8.2-8.2,16.2-16.4,24.1-24.9c3.3-3.5,6-7.6,8.9-11.3c-3.3-0.9-3.5-4.2-3.2-8.1
		c0.2-1.9,0.2-4.4-0.8-5.9C629.3,511.1,622.8,502,616.5,492.8z M599.9,756.4c-11.9-7.9-23-15.2-34.1-22.6c-0.4,0.5-0.9,1.1-1.3,1.6
		c13.5,9.9,25,21.5,33.3,36.2c0.1-2.7,0.2-5.5-1.1-7.2C593.7,760.5,594.5,758.1,599.9,756.4z M839.2,806.6c0.5,0,1.1,0.1,1.6,0.1
		c0-8.3,0-16.7,0-25.3C840.2,790,839.7,798.3,839.2,806.6z"/>
	<path d="M1007.4,570c-7.7-3.1-15.7-6.2-23.5-9.6c-1.4-0.6-3.4-3-3.1-3.7c1-2.4,2.7-6,4.4-6.2c5.4-0.5,11,0.1,16.5,0.9
		c5.7,0.9,11.3,2.5,16.9,3.7c0.8,0.2,1.9,0.1,2.6-0.3c14.6-7.3,29.1-5.4,43.2,1.2c7.4,3.5,11.9,10.8,11.2,18.2
		c-1.1,11,7.1,14.3,12.6,19.9c2.5,2.5,5.6,4.4,7.9,6.9c1.4,1.5,3,5.1,2.5,5.6c-2,1.8-5.3,4.4-7.3,3.8c-7.1-2-13.9-5.1-20.8-7.9
		c-0.9-0.4-1.7-1-3.5-0.5c1,1.1,1.9,2.2,3,3.2c11.5,10.3,19.6,22.5,21.9,38c0.2,1.2,1.5,2.3,2.3,3.5c2.4,3.9,5.7,7.5,7,11.7
		c1.9,6.2,2.1,12.9,3.4,19.3c0.6,2.9,1.5,5.8,2.9,8.4c6.4,12.4,5,16.8-4.5,27.2c-4.5,4.9-6.2,12.4-9.5,19.3c13,3.2,18.6,12,22,23
		c1,3.1,3.2,5.9,5.2,8.6c6.1,8.7,12.8,17.1,18.5,26.1c5.6,8.8,11,18,15,27.6c6.4,15.2,4,30.4-2.7,45.1c-0.5,1-2.2,1.9-3.4,2
		c-0.6,0.1-1.8-1.7-2-2.7c-0.8-5.3-0.9-10.8-2.1-16c-0.8-3.8-2.8-7.4-4.4-11c-0.5-1.2-1.9-2.6-1.6-3.3c3.7-8-1.8-14.3-3.4-21.4
		c-0.9-3.9-0.6-8.2-0.9-12.3c-0.1-0.9,0.4-2.1,0-2.7c-5.1-7.5-10.3-14.9-14.8-21.5c-3.7,8.3-8,16.1-10.6,24.5
		c-1.6,5.2-2.8,12.5-0.4,16.6c5.6,9.6,10.3,20.7,21.7,25.6c1,0.4,2,1.1,3,1.3c8.1,1.4,8.2,1.4,7.5,9.6c-0.2,2.1-0.3,4.2-0.9,6.1
		c-2.9,9.2-0.6,17.7,2.9,26.2c0.9,2.1,0.6,4.7,0.8,7c0.1,0.5-0.1,1.3,0.2,1.5c5.6,3.2,1.9,5.5-0.8,7.9c1.6,3.8,2.2,8.7,8.4,5.7
		c0.9-0.4,2.6,0.2,3.7,0.8c3.3,1.9,7.1,12.6,5.8,16.2c-1,2.9-2.6,4.6-6.3,4.1c-7.3-0.9-11.9-4.8-14.5-11.5c-0.7-1.9-1.1-3.1-4-4.1
		c-2.9-0.9-5.4-5.6-6.5-9.1c-3.2-10.9-5.7-22.1-8.8-34.5c-4.4,7.4-8.5,14-12.3,20.7c-3,5.2-5.8,10.5-8.5,15.8
		c-0.7,1.4-1.2,3-1.3,4.6c-0.1,5-0.9,5.6-5.8,4c-2.6,3.1-5.1,6.1-8.1,9.7c0.4,8-3.1,11.5-13.5,12.2c-3.5,0.2-7.2,0.2-10.5-0.7
		c-1.4-0.4-3.5-4.1-3-5.1c1.8-3.3,4.2-6.8,7.2-8.8c9.7-6.2,18-12.9,22.9-24.1c4.6-10.5,11.8-19.9,17.7-29.4
		c-2.5-2.6-4.7-5.7-7.6-7.9c-6.4-4.8-12.6-10.2-19.7-13.6c-12.9-6.3-23.2-13.8-24.3-29.5c-0.1-1.4-0.9-2.8-1.4-4.2
		c-5.5,0.3-10.4,0.5-14,5.6c-1.6,2.2-5.6,2.7-7.8,3.7c0,3.5-0.1,6.5,0,9.6c0.2,5.9,4.8,9.2,10.4,7.7c4.7-1.3,9.9-1.4,13,2.7
		c3.7,5,3.9,11.1,0.8,16.5c-3,5.2-7.1,9.6-10.2,14.8c-3.2,5.3-5.4,11.3-8.8,16.6c-5.1,8-12,14.3-20.7,18.4c-4,1.9-6.4,0.6-6.2-3.8
		c0.2-3.5,0.9-7.2,2.3-10.3c2.4-5.3,3.4-10.2,2.5-16.2c-1.2-8.1-0.6-16.5-1.2-24.7c-0.2-1.9-1.9-4-3.5-5.5
		c-5.7-5.6-11.6-11-17.8-16.9c-2.1,6.9-3.6,13.1-2.3,20.4c1.4,7.6,4.5,15.3,2.1,23.4c4.2,3.7,1,12.1,8.7,13.8c1.1,0.2,2.2,2,2.8,3.3
		c0.8,1.7,1.2,3.6,1.6,5.4c2.6,13.1-2.4,17.3-16.5,12.8c3.1,9-0.5,13.9-9.1,15.2c0,1.7-0.1,2.8,0,3.9c0.8,10-2.1,13.2-12.2,12.8
		c-2.2-0.1-4.5-0.5-6.6-1.1c-7.4-1.8-8.5-5.1-3.1-10.8c3.4-3.6,7.8-6.3,11.4-9.9c3.2-3.1,5.9-6.8,8.5-10.9
		c-11.7,0.4-15.9-8.6-22.4-14.9c-6.8-6.6-14.5-12.3-22-18c-5.1-3.9-5.5-8.4-4.5-14.4c2.1-13,4.7-26.2-0.6-39.1
		c-0.7-1.8-2.5-3.7-4.2-4.4c-13.6-5.3-25.1-20.8-24.8-35.5c0.2-9.8,2.1-19.7,3.2-29.5c0.1-1.3,0.5-2.6,0.4-3.9
		c-1.1-11.5-1.7-23.1-3.5-34.5c-4-26.6-10.4-52.5-20.6-77.5c-1.2-2.9-1.5-6.1-2.1-8.6c-4.4,2-8.5,4.8-13,5.7
		c-3.7,0.8-8.2,0.1-11.8-1.2c-6.8-2.5-9.7-2-13.9,4.4c-4.4,6.8-10.6,11-18.6,12.4c-4.7,0.8-8.1-0.8-10.2-5c-0.6-1.2-1.1-2.4-1.9-3.4
		c-7.1-9.9-2.1-21.9,9.8-24.4c3.3-0.7,6.8-2.5,9.1-4.8c8.9-8.9,17.5-18,25.8-27.4c4.4-5,9.6-6.6,15.9-6.9c2.2-0.1,4.8-1.5,6.3-3.1
		c12.3-13.4,24.5-27,42-33.8c1.9-0.7,4.4,0,6.6,0.1c-0.8,1.9-1.1,4.1-2.3,5.6c-4.4,5.3-9,10.3-13.6,15.5c0.3,0.5,0.6,1,0.9,1.5
		c9-2.4,17.9-5.1,27-7.2c4.5-1,9.4-0.9,14.1-1.1c1.3,0,3.6,0.7,3.6,1.2c0.1,1.5-0.2,3.8-1.2,4.5c-3.9,2.4-8,5.2-12.4,6.2
		c-19.1,4.4-33.5,16.2-48.6,28.6c3.8,4.5,7.6,8.8,11.2,13.2c0.9,1.1,2.4,3,2,3.7c-2.6,4.8,1.5,6.9,3.5,9.9c2.2,3.4,5.9,6.4,3.8,11.6
		c-0.4,1,1.3,3.4,2.6,4.4c6.2,5.2,9.6,11.1,7.8,19.7c-0.4,1.9,1.6,4.7,3.2,6.5c4.9,5.6,9.6,11,6.2,19.3c-0.3,0.8,0.7,2.8,1.7,3.4
		c6.5,4.2,10,10.3,10,17.8c0.1,6.7,4.4,10.7,7.9,16.6c1.4-8.5,2-15.8,3.8-22.8c3.2-12.2,9.4-22.5,19.2-31
		c13-11.2,25.3-23.3,37.7-35.2c4-3.8,3.5-5.4-1.3-8.5c-6.9-4.5-9.6-11.4-11-19.2c-0.2-1.3-0.6-3.1-1.5-3.7c-4.9-3.1-3.4-6.5-0.6-9.9
		c1.2-1.4,2.9-2.4,4-3.9c1.6-2.2,2.8-4.7,4-7.2C1004.4,576.8,1005.8,573.4,1007.4,570z M956.8,831.9c-0.9,0.1-1.8,0.2-2.8,0.3
		c-2.8,8.4-5.6,16.8-8.2,25.3c-1.7,5.7,3.4,13.4,9.1,14.5c4.7,0.9,8.5,2.9,11.1,7.6c2.6,4.9,6.3,9.2,10.4,15
		c0-7.6,3.1-14.1-4.5-18.7c-1.6-1-2.7-5.2-1.9-7c3-6.7-0.2-12-3-17.4C963.6,844.9,960.2,838.4,956.8,831.9z M1066.1,732.6
		c6.4-1.5,18.1-27.6,15.1-32.2C1075.7,710.7,1067,719.8,1066.1,732.6z"/>
	<path class="st0" d="M557.6,522.7c-0.9,6.6-2.1,13.2-2.7,19.8c-1,10.8-2,21.7-2.5,32.5c-0.4,8.5-4.2,15.3-8.6,22.1
		c-1.8,2.8-3.4,5.7-5.4,9.1c-3.6-6.3-7.3-12.7-10.9-19.2c-2.4-4.3-5.9-6.9-10.8-6.9c-6.1,0-9.3,5.1-8.7,13.4
		c0.2,2.3,0.5,4.6,0.8,6.9c-0.5,0.4-0.9,0.9-1.4,1.3c-5-3.2-10.2-6.2-15.1-9.6c-11.2-7.8-14-20-16.8-32.4
		c-3.1-13.6-7.1-27.1-10.8-40.7c8.6,0.1,14,5.5,19.7,10.1c7.2,5.7,14.4,11.4,21.3,17.3c1.5,1.3,2.1,3.9,3,5.9
		c0.4,0.8,0.1,1.9,0.6,2.7c4.7,7.9,17.5,12,24.7,6.9c2.9-2,4.2-6.8,5.6-10.5c0.7-1.9-0.1-4.4-0.2-7.3c6.4,0.5,7.8-3.6,9.2-8.6
		c1.4-4.8,4.2-9.2,6.4-13.7C555.8,522.1,556.7,522.4,557.6,522.7z"/>
	<path class="st0" d="M616.5,492.8c6.4,9.2,12.9,18.3,19.1,27.6c1,1.5,1,3.9,0.8,5.9c-0.3,3.8-0.1,7.2,3.2,8.1
		c-2.9,3.8-5.6,7.8-8.9,11.3c-7.9,8.5-15.9,16.7-24.1,24.9c-1.2,1.2-3.3,1.4-4.9,2.3c-3.5,1.9-6.9,4-10.4,5.8
		c-1.3,0.7-3.1,1.2-4.3,0.8c-0.9-0.3-1.8-2.2-1.9-3.4c-0.4-9.2,3.1-17.4,8.4-24.6c11.6-15.8,18.8-33,20.5-52.5
		c0.2-1.8,0.6-3.6,0.9-5.4C615.3,493.2,615.9,493,616.5,492.8z"/>
	<path class="st0" d="M599.9,756.4c-5.4,1.7-6.2,4-3.2,8.1c1.3,1.7,1.2,4.5,1.1,7.2c-8.3-14.8-19.8-26.4-33.3-36.2
		c0.4-0.5,0.9-1.1,1.3-1.6C576.8,741.2,588,748.6,599.9,756.4z"/>
	<path class="st0" d="M839.2,806.6c0.5-8.3,1-16.6,1.6-25.1c0,8.6,0,16.9,0,25.3C840.3,806.7,839.7,806.6,839.2,806.6z"/>
	<path class="st0" d="M956.8,831.9c3.4,6.5,6.8,13,10.2,19.6c2.8,5.5,5.9,10.7,3,17.4c-0.8,1.8,0.3,6,1.9,7
		c7.6,4.6,4.5,11.2,4.5,18.7c-4.1-5.8-7.7-10.1-10.4-15c-2.5-4.7-6.3-6.7-11.1-7.6c-5.7-1.1-10.8-8.8-9.1-14.5
		c2.6-8.5,5.5-16.9,8.2-25.3C954.9,832.1,955.9,832,956.8,831.9z"/>
	<path class="st0" d="M1066.1,732.6c0.9-12.8,9.5-21.9,15.1-32.2C1084.2,705,1072.5,731.2,1066.1,732.6z"/>
</g>
</svg>
