<svg xmlns="http://www.w3.org/2000/svg" xmlns:xlink="http://www.w3.org/1999/xlink" version="1.1" x="0px" y="0px" viewBox="0 0 100 100" enable-background="new 0 0 100 100" xml:space="preserve"><g><g><path d="M79.50586,44.83691c-0.3877-0.5293-0.71777-1.0332-1.03027-1.50977    c-1.0752-1.64258-2.0918-3.19238-4.51465-4.27051c-0.91113-0.40527-1.99023-1.02539-3.01758-1.66797    c-0.87891-1.56055-0.85352-5.18457-0.83594-7.16406l0.00488-0.77637c0-2.20605-1.2959-5.9668-3.6377-6.99609    c-1.00684-0.43945-1.75977-0.21973-2.21582,0.04297c-1.30469,0.75195-1.57617,2.63379-1.61719,3.00391    c-0.06055,0.54883,0.33496,1.04297,0.88379,1.10449c0.54395,0.05957,1.04297-0.33398,1.10449-0.88379    c0.05566-0.50391,0.32227-1.31641,0.62793-1.49219c0.08105-0.04688,0.21973-0.0293,0.41211,0.05664    c1.31543,0.57715,2.44238,3.32227,2.44238,5.16406l-0.00488,0.75879c-0.01758,1.90723,0.00684,3.83398,0.2627,5.47656    c-0.44922-0.3125-0.80664-0.56934-1.01758-0.72266c-3.24316-7.49609-9.88184-12.84863-10.16602-13.07617    c-0.22852-0.18066-0.5293-0.25293-0.81152-0.2002c-0.28711,0.05469-0.53613,0.23242-0.68066,0.48633    c-2.08203,3.64258-1.06641,10.2334,0.43262,13.39551c0.33594,0.71094,0.73438,1.45703,1.14062,2.21777    c1.17383,2.19922,2.50488,4.69141,2.20801,6.37793c-0.31738,1.79883-3.63086,2.44531-4.31641,2.44824    c-1.78711,0-3.53027-0.13574-5.2168-0.2666c-4.43262-0.34473-8.61621-0.66797-13.27148,1.31055    c-5.33301,2.2666-9.82227,6.45996-12.64062,11.80469c-2.54492,4.82715-2.89551,9.31348-2.67383,12.46191    c-1.13574-0.15527-2.18848-0.02734-2.34082-0.00781c-0.28516,0.03809-0.53906,0.19629-0.69922,0.43457    c-0.15918,0.23828-0.20898,0.53418-0.13574,0.81152c0.07324,0.27832,1.8457,6.81445,6.03809,7.625    c0.79102,0.15332,9.89551,0.78711,16.37891,0.78711c3.38379,0,6.05371-0.17285,6.45703-0.67578    c0.35742-0.44824,0.78223-1.68848,0.62012-3.05273c2.63574-1.0293,6.48535-2.34863,7.89648-2.34375    c0.09766,0.19727,0.19336,0.39453,0.30469,0.58691c1.19531,2.07715,3.44824,4.67285,5.86426,5.15039    c0.61816,0.12207,1.22852,0.1582,1.82812,0.1582c0.46094,0,0.91602-0.02148,1.36426-0.04297    c0.25-0.01172,0.5-0.02344,0.74902-0.03223c0.55957-0.01758,1.12109-0.0127,1.68066-0.00586    c0.62793,0.00391,1.25586,0.01074,1.8877-0.0127c0.0752-0.00098,0.18555,0.00879,0.2959,0.01758    c0.56641,0.04785,1.52441,0.12793,2.03906-0.65527c0.38965-0.59375,0.47559-1.28125,0.24121-1.93652    c-0.63184-1.76758-3.37109-2.79297-4.51953-3.15137c-0.79199-0.24805-1.11621-1.44238-1.13281-2.95996    c0.91016-0.4043,2.67676-1.32324,4.49512-3.03906c2.24902-2.12305,4.96484-5.89941,5.44824-11.93359    c1.83008-0.48242,4.66895-1.43262,5.67871-3.70215C83.26465,50.6377,81.34277,47.33984,79.50586,44.83691z M79.96777,53.12793    c-0.75293,1.69434-3.64453,2.40918-5.03516,2.75195c-2.14355,0.53027-3.85547,0.7959-5.38672,0.83594    c-3.40234,0.13477-5.80957-1.60645-8.21582-5.85645c-0.27148-0.48047-0.88281-0.65039-1.3623-0.37793    c-0.48145,0.27148-0.65039,0.88184-0.37793,1.3623c1.81836,3.21387,4.56055,6.87598,9.71875,6.87598    c0.0957,0,0.19238-0.00195,0.29004-0.00391c1.33008-0.03613,2.77539-0.22852,4.44922-0.58496    C73.21875,65.55664,68.71582,69,66.34082,70.30762c0.06543-0.45605,0.14551-0.91504,0.24121-1.36328    c0.11621-0.54004-0.22754-1.07227-0.76758-1.1875c-0.54688-0.12109-1.07227,0.22852-1.1875,0.76758    c-0.50195,2.3418-1.30371,7.90039,2.08301,8.95898c1.79102,0.56055,2.96387,1.35742,3.20801,1.85742    c-0.07422-0.00391-0.14844-0.01074-0.20801-0.01562c-0.19824-0.0166-0.38574-0.02637-0.53516-0.02246    c-0.59766,0.02246-1.19434,0.01562-1.79395,0.01074c-0.58691-0.00586-1.1748-0.01074-1.76172,0.00781    c-0.26074,0.00781-0.52051,0.02051-0.78125,0.03223c-0.95605,0.04785-1.85547,0.08984-2.71094-0.08008    c-1.56152-0.30859-3.45508-2.33887-4.51855-4.18555c-1.00684-1.74805-1.3125-3.90332-1.6084-5.98828    c-0.05371-0.37695-0.10742-0.75098-0.16406-1.12207c-0.25879-1.68066-0.46582-3.3457-0.61621-4.94922    c-0.05176-0.54883-0.53516-0.95703-1.08984-0.90234c-0.5498,0.05176-0.95312,0.54004-0.90234,1.08984    c0.1543,1.6416,0.36719,3.34668,0.63184,5.06543c0.05566,0.36328,0.10742,0.73047,0.16016,1.09961    c0.19727,1.3877,0.40137,2.80469,0.80078,4.17188c-2.28613,0.30176-6.06641,1.71484-7.81445,2.40137    c-0.6123-0.95117-1.79004-1.91113-4.03027-2.23438c1.10547-1.2959,1.85742-3.27051,0.97168-5.92578    c-0.86719-2.60352-3.44922-5.39844-6.27832-6.79688c-2.23242-1.10352-4.48926-1.31445-6.53125-0.61328    c-0.52246,0.17871-0.7998,0.74805-0.62012,1.27051c0.17871,0.52148,0.74707,0.7998,1.27051,0.62012    c1.92871-0.66016,3.7793-0.08398,4.99414,0.51562c2.66406,1.31738,4.66699,3.83203,5.26855,5.63672    c1.18066,3.54395-1.68848,4.93262-2.02246,5.08008c-0.07227,0.03125-0.125,0.08398-0.18652,0.12988    c-4.36816,0.34863-7.72656,2.40625-7.89551,2.51172c-0.46777,0.29199-0.61035,0.90918-0.31738,1.37793    c0.29199,0.46777,0.90918,0.61133,1.37793,0.31738c0.04395-0.02734,4.43652-2.73145,9.41602-2.19141    c1.57129,0.1709,2.59082,0.70703,3.03125,1.59375c0.40332,0.81152,0.25586,1.74414,0.12402,2.17969    c-0.25879,0.0332-0.6416,0.06055-1.11816,0.08203l-0.11621-0.99023c-0.06348-0.54688-0.55469-0.94629-1.10938-0.87695    c-0.54883,0.06445-0.94141,0.56055-0.87695,1.10938l0.09473,0.80762c-5.36719,0.0625-15.25586-0.23438-17.85352-0.73633    c-1.96289-0.37988-3.38574-3.09668-4.09082-4.96777c0.36719,0.01562,0.74805,0.07129,1.0957,0.16504    c0.24121,1.41211,0.54102,2.27832,0.5791,2.38281c0.14648,0.40723,0.53125,0.66016,0.94043,0.66016    c0.1123,0,0.22754-0.01855,0.33984-0.05957c0.51953-0.1875,0.78809-0.76074,0.60059-1.28027    c-0.02539-0.07129-2.5293-7.23926,1.73633-15.3291c2.60449-4.94043,6.74316-8.81055,11.6543-10.89844    c4.20508-1.78613,8.15332-1.48145,12.33301-1.15625c1.72461,0.13379,3.50781,0.27246,5.37207,0.27246    c0.91504,0,5.6875-0.71289,6.28516-4.10059c0.41797-2.36719-1.02051-5.06152-2.41309-7.66797    c-0.38965-0.73047-0.77344-1.44824-1.09766-2.13086c-1.15527-2.44043-1.95215-7.28809-0.99316-10.3916    c1.97754,1.7959,6.38477,6.20703,8.67773,11.67383c0.06934,0.16602,0.18262,0.30957,0.32715,0.41699    c0.1748,0.12988,4.33008,3.19727,7.20312,4.47461c1.88574,0.83789,2.62695,1.9707,3.6543,3.53809    c0.33105,0.50488,0.68066,1.03711,1.08984,1.59668C79.41113,48.08789,81.01855,50.76465,79.96777,53.12793z"></path><circle cx="70.28125" cy="45.36914" r="1.5"></circle><path d="M60.9668,30.24219c-0.50879,0.21484-0.74609,0.80176-0.53125,1.31055    c1.16113,2.74609,1.64648,6.00879,1.36621,9.1875c-0.04883,0.5498,0.3584,1.03516,0.9082,1.08398    c0.03027,0.00293,0.05957,0.00391,0.08887,0.00391c0.5127,0,0.94922-0.3916,0.99512-0.91211    c0.30859-3.49902-0.22949-7.10059-1.5166-10.14258C62.0625,30.26465,61.47461,30.02734,60.9668,30.24219z"></path></g></g></svg>