<?xml version="1.0" encoding="utf-8"?>
<!-- Generator: Adobe Illustrator 21.0.2, SVG Export Plug-In . SVG Version: 6.00 Build 0)  -->
<svg version="1.1" id="Layer_1" xmlns="http://www.w3.org/2000/svg" xmlns:xlink="http://www.w3.org/1999/xlink" x="0px" y="0px"
	 viewBox="0 0 90 90" style="enable-background:new 0 0 90 90;" xml:space="preserve">
<path d="M48.1,60.3c2.8,2.4,5.9,3.9,9.2,5.1l0.2-13.4l20-21.8L57.7,10l0.1-13.4C51.3-1.1,45.4,3.1,40.9,9
	c-3.2,4.2-4.1,12.1-4.6,27.6c-0.4-0.1-2.8-0.2-3.2-0.2c-3.7,0-6.6,3-6.6,6.6c0,2.4,1.3,4.5,3.2,5.6c0.2,0.2,0.3,0.2,0.3,0.2v4.6H27
	V59c9.7-1,6.7,6.3,6.7,6.3L11.3,88.4h54.8L42.3,60l0.4-11.6C43.3,56.9,45.4,58,48.1,60.3z M57.4,47.6l0.1-14.3l14.3-0.7L57.4,47.6z
	 M71.7,27.8l-14.2,0.3l0.1-14.2L71.7,27.8z M32.9,45.8c-1.5,0-2.8-1.2-2.8-2.8c0-1.5,1.2-2.8,2.8-2.8c1.5,0,2.8,1.2,2.8,2.8
	C35.7,44.6,34.4,45.8,32.9,45.8z"/>
</svg>
