<?xml version="1.0" encoding="iso-8859-1"?>
<!-- Generator: Adobe Illustrator 19.0.0, SVG Export Plug-In . SVG Version: 6.00 Build 0)  -->
<svg version="1.1" id="Capa_1" xmlns="http://www.w3.org/2000/svg" xmlns:xlink="http://www.w3.org/1999/xlink" x="0px" y="0px"
	 viewBox="0 0 397.63 397.63" style="enable-background:new 0 0 397.63 397.63;" xml:space="preserve">
<g>
	<g>
		<path d="M397.63,203.898c0-49.153-39.847-89-89-89l0,0.56c-10.611-0.002-21.137,1.895-31.08,5.6
			c-13.69-57.305-71.244-92.662-128.549-78.971C100.951,53.566,67.068,96.535,67.11,145.938c0,1.653,0,3.4,0,5.24
			c-39.258,2.26-69.25,35.917-66.99,75.174c2.156,37.45,32.999,66.804,70.51,67.106h49.08l30.88,44
			c2.286,3.314,6.826,4.146,10.14,1.86c3.314-2.286,4.146-6.826,1.86-10.14l-25.08-36h30.76l43.52,62.16
			c2.286,3.314,6.826,4.146,10.14,1.86c3.314-2.286,4.146-6.826,1.86-10.14l-38-53.6h30.76l30.88,44
			c2.286,3.314,6.826,4.146,10.14,1.86c3.314-2.286,4.146-6.826,1.86-10.14l-25.08-36h30.76l30.88,44l12.64,18.08
			c2.286,3.314,6.826,4.146,10.14,1.86c3.314-2.286,4.146-6.826,1.86-10.14l-12.64-18.08l-25.08-36h25.72
			C357.783,292.898,397.63,253.051,397.63,203.898z M272.63,278.978l-26-36.8c-2.286-3.314-6.826-4.146-10.14-1.86
			c-3.314,2.286-4.146,6.826-1.86,10.14l20,28.52h-30.6l-25.76-36.8c-2.286-3.314-6.826-4.146-10.14-1.86s-4.146,6.826-1.86,10.14
			l20,28.48h-30.64l-25.76-36.8c-2.286-3.314-6.826-4.146-10.14-1.86s-4.146,6.826-1.86,10.14l20,28.48h-30.68l-25.76-36.8
			c-2.286-3.314-6.826-4.146-10.14-1.86s-4.146,6.826-1.86,10.14l20,28.48h-38.8c-31.292,0-56.66-25.368-56.66-56.66
			c0-31.292,25.368-56.66,56.66-56.66h1.96h1.92c3.989,0.272,7.444-2.742,7.715-6.731c0.043-0.625,0.004-1.253-0.115-1.869
			c-0.187-1.653-0.347-3.427-0.48-5.32c0-1.787,0-3.733,0-5.84c-1.773-50.779,37.954-93.381,88.733-95.155
			c48.007-1.676,89.223,33.863,94.627,81.595c0.573,3.957,4.245,6.701,8.203,6.128c0.764-0.111,1.506-0.343,2.197-0.688
			c36.822-18.334,81.535-3.346,99.869,33.476c14.264,28.648,8.632,63.207-13.989,85.844l0.04,0.16
			c-13.952,14.003-32.913,21.864-52.68,21.84H272.63z"/>
	</g>
</g>
<g>
</g>
<g>
</g>
<g>
</g>
<g>
</g>
<g>
</g>
<g>
</g>
<g>
</g>
<g>
</g>
<g>
</g>
<g>
</g>
<g>
</g>
<g>
</g>
<g>
</g>
<g>
</g>
<g>
</g>
</svg>
