<svg height='100px' width='100px'  fill="#000000" xmlns="http://www.w3.org/2000/svg" xmlns:xlink="http://www.w3.org/1999/xlink" xml:space="preserve" version="1.1" style="shape-rendering:geometricPrecision;text-rendering:geometricPrecision;image-rendering:optimizeQuality;" viewBox="0 0 339 321" x="0px" y="0px" fill-rule="evenodd" clip-rule="evenodd"><defs><style type="text/css">
   
    .fil0 {fill:#000000}
    .fil1 {fill:#000000;fill-rule:nonzero}
   
  </style></defs><g><path class="fil0" d="M297 76c24,7 42,30 42,57 0,33 -27,60 -60,60 -73,0 -146,0 -219,0 -33,0 -60,-27 -60,-60 0,-31 24,-57 54,-60 11,-39 56,-56 89,-34 43,-67 147,-43 154,37z"></path><path class="fil1" d="M92 221c2,-5 8,-7 13,-4 5,2 7,8 5,13l-10 19c-2,5 -8,7 -13,5 -5,-3 -7,-9 -5,-14l10 -19z"></path><path class="fil1" d="M163 221c2,-5 8,-7 13,-4 5,2 7,8 5,13l-10 19c-2,5 -8,7 -13,5 -5,-3 -7,-9 -5,-14l10 -19z"></path><path class="fil1" d="M234 221c2,-5 8,-7 13,-4 5,2 7,8 5,13l-10 19c-2,5 -8,7 -13,5 -5,-3 -7,-9 -5,-14l10 -19z"></path><path class="fil1" d="M68 288c2,-5 8,-7 13,-5 5,3 7,9 5,14l-9 19c-3,5 -9,7 -14,4 -5,-2 -7,-8 -4,-13l9 -19z"></path><path class="fil1" d="M139 288c2,-5 8,-7 13,-5 5,3 7,9 5,14l-9 19c-3,5 -9,7 -14,4 -5,-2 -7,-8 -4,-13l9 -19z"></path><path class="fil1" d="M210 288c2,-5 8,-7 13,-5 5,3 7,9 5,14l-9 19c-3,5 -9,7 -14,4 -5,-2 -7,-8 -4,-13l9 -19z"></path></g></svg>