<?xml version="1.0" encoding="utf-8"?>
<!-- Generator: Adobe Illustrator 21.0.2, SVG Export Plug-In . SVG Version: 6.00 Build 0)  -->
<svg version="1.1" id="Layer_1" xmlns="http://www.w3.org/2000/svg" xmlns:xlink="http://www.w3.org/1999/xlink" x="0px" y="0px"
	 viewBox="0 0 374 79.7" style="enable-background:new 0 0 374 79.7;" xml:space="preserve">
<style type="text/css">
	.st0{fill:#005497;}
</style>
<g>
	<path class="st0" d="M155.6,22.1c-1.4-0.9-4.5-2.7-9.2-2.7s-8.9,1.7-11.9,5c-0.4,0.4-1,0.2-1.1-0.2l-0.8-3.2
		c-0.1-0.5-0.7-0.9-1.3-0.9h-8.1c-0.8,0-1.4,0.6-1.4,1.4v47.1c0,0.8,0.6,1.4,1.4,1.4h9.5c0.8,0,1.4-0.6,1.4-1.4V36.5
		c0-1.1,0.5-2.4,1.3-3.1c2.5-2.3,5.8-3.5,9.2-3.5c2.3,0,4,0.7,5.1,1.3c0.8,0.4,1.6,0.3,2-0.4l4.2-6.7
		C156.4,23.4,156.2,22.6,155.6,22.1z"/>
	<path class="st0" d="M182.2,19c-13.8,0-23.5,9.5-23.5,23.4v5.3c0,13.5,10.9,23.4,25.4,23.4c6.8,0,12.6-2,17.2-6.1
		c0.7-0.6,0.8-1.6,0.1-2.2l-6.7-5.1c-0.5-0.4-1.4-0.4-1.9,0.1c-2.5,2.1-5.3,3.1-8.7,3.1c-7.4,0-12.5-4.2-13.2-11.3
		c0-0.5,0.4-1,0.9-1h32c0.9,0,1.5-0.7,1.5-1.5v-4.7C205.3,28.3,195.7,19,182.2,19z M191.9,40.7h-20c-0.6,0-1.1-0.4-1-1.1
		c0.9-6.9,4.8-10.4,11.3-10.4c6.2,0,9.9,3.7,10.7,10.4C193.1,40.2,192.7,40.7,191.9,40.7z"/>
	<path class="st0" d="M272.4,19.3c-6.5,0-12.1,2.8-15.5,8.2c-0.3,0.6-0.9,0.5-1.2,0c-2.7-5.3-8.1-8.2-14.7-8.2
		c-5.2,0-9.9,1.9-13.2,5.6c-0.5,0.5-1.1,0.2-1.2-0.2l-0.8-3.6c-0.1-0.6-0.8-0.9-1.3-0.9h-8.1c-0.8,0-1.4,0.6-1.4,1.4v47.1
		c0,0.8,0.6,1.4,1.4,1.4h9.5c0.8,0,1.4-0.6,1.4-1.4V36c0-1.1,0.5-2.2,1.4-2.8c2.3-2,5.2-3.1,8.5-3.1c4.9,0,8.8,2.3,8.8,9.4v29.2
		c0,0.8,0.7,1.4,1.4,1.4h9.5c0.8,0,1.4-0.6,1.4-1.4V37.4c0-1.1,0.6-2.2,1.3-2.9c1.9-2.8,5.1-4.4,9-4.4c5.1,0,8.8,2.4,8.8,9.4v29.2
		c0,0.8,0.6,1.4,1.4,1.4h9.6c0.8,0,1.4-0.6,1.4-1.4V39C289.7,26.6,283.3,19.3,272.4,19.3z"/>
	<path class="st0" d="M313.2,20.1h-9.5c-0.8,0-1.4,0.6-1.4,1.4v47.1c0,0.8,0.6,1.4,1.4,1.4h9.5c0.8,0,1.4-0.6,1.4-1.4V21.5
		C314.6,20.7,314,20.1,313.2,20.1z"/>
	<path class="st0" d="M308.5,0.2C305,0.2,302,3,302,6.7c0,3.6,2.9,6.4,6.5,6.4c3.5,0,6.5-2.7,6.5-6.4C314.9,3,312,0.2,308.5,0.2z"/>
	<path class="st0" d="M373.8,68.2l-18.2-23.8c-0.3-0.4-0.3-0.9,0-1.2l16.6-21.3c0.6-0.7,0.1-1.8-0.9-1.8h-10.2
		c-0.7,0-1.4,0.3-1.8,0.9l-9.9,13.1c-0.2,0.2-0.4,0.3-0.7,0.3c-0.3,0-0.5-0.1-0.7-0.3L338.1,21c-0.4-0.6-1.1-0.9-1.8-0.9H326
		c-1,0-1.5,1.1-0.9,1.8l16.6,21.3c0.3,0.3,0.3,0.8,0,1.2l-18.2,23.8c-0.5,0.7-0.1,1.8,0.9,1.8h10.3c0.7,0,1.4-0.3,1.8-0.9l11.4-15.3
		c0.2-0.3,0.5-0.3,0.7-0.3s0.5,0,0.7,0.3l11.4,15.3c0.4,0.6,1.1,0.9,1.8,0.9h10.3C373.9,70,374.3,68.9,373.8,68.2z"/>
	<path class="st0" d="M35.4,40.3L1.1,0.6C0.5,0,0,0.1,0,1v77.8c0,0.9,0.5,1.1,1.1,0.4l34.2-36.5C35.9,42.1,36,41,35.4,40.3z"/>
	<path class="st0" d="M71.5,42.3l-27.1-0.1c-0.9,0-2.2,0.5-2.8,1.2L8.8,78.2c-0.6,0.7-0.4,1.2,0.5,1.2l30.1-0.1
		c0.9,0,2.2-0.6,2.7-1.3L72,43.4C72.7,42.9,72.4,42.3,71.5,42.3z"/>
	<path class="st0" d="M78.4,43.4l-30,34.7c-0.6,0.7-0.3,1.3,0.6,1.3h28.8c0.9,0,1.7-0.7,1.7-1.7V43.8C79.5,42.9,79,42.7,78.4,43.4z"
		/>
	<path class="st0" d="M38.8,36.8c0.6,0.7,1.1,0.5,1.1-0.4V1.7c0-0.9-0.7-1.7-1.7-1.7H9.5c-1,0-1.2,0.6-0.6,1.3L38.8,36.8z"/>
	<path class="st0" d="M47.1,36.8h30.6c0.9,0,1.6-0.7,1.6-1.6V1.6c0-0.9-0.7-1.6-1.6-1.6H47.1c-0.9,0-1.6,0.7-1.6,1.6v33.6
		C45.5,36.1,46.3,36.8,47.1,36.8z"/>
</g>
</svg>
