<?xml version="1.0" encoding="utf-8"?>
<!-- Generator: Adobe Illustrator 19.1.0, SVG Export Plug-In . SVG Version: 6.00 Build 0)  -->
<svg version="1.1" xmlns="http://www.w3.org/2000/svg" xmlns:xlink="http://www.w3.org/1999/xlink" x="0px" y="0px"
	 viewBox="0 0 600 600" style="enable-background:new 0 0 600 600;" xml:space="preserve">
<style type="text/css">
	.st0{display:none;}
	.st1{display:inline;fill:none;stroke:#636363;stroke-width:2;stroke-miterlimit:10;}
	.st2{fill:none;stroke:#D3D3D3;stroke-width:8;stroke-miterlimit:10;}
</style>
<g id="Layer_1" class="st0">
	<line class="st1" x1="358" y1="203" x2="375" y2="203"/>
	<path class="st1" d="M361.7,266.6c0,24,12.1,43.4,27,43.4"/>
	<path class="st1" d="M347.8,278.1c0-7.7,3.3-13.9,7.4-13.9"/>
	<path class="st1" d="M297.8,274c0-7.7,3.7-13.9,8.2-13.9"/>
	<path class="st1" d="M265,259.2c0-5.9,4-10.7,9-10.7"/>
	<path class="st1" d="M227.3,253.5c0-5.9,3.7-10.7,8.2-10.7"/>
	<path class="st1" d="M262.6,330.5c0-10-1.5-18-3.3-18"/>
	<path class="st1" d="M283,320.7c0-9.1-1.8-16.4-4.1-16.4"/>
	<path class="st1" d="M303.5,316.6c0-9.1-1.8-16.4-4.1-16.4"/>
	<path class="st1" d="M342.1,311.7c0-13.1-15.8-23.8-35.2-23.8"/>
	<path class="st1" d="M337.1,329.7c0,5.9,0.4,10.7,0.8,10.7"/>
	<line class="st1" x1="366" y1="327" x2="366" y2="337"/>
	<path class="st1" d="M342.9,357.6c0,5.4,3.7,9.8,8.2,9.8"/>
	<path class="st1" d="M371.6,352.7c0,5,2.9,9,6.6,9"/>
	<path class="st1" d="M438.8,303.5c0,7.2-4,13.1-9,13.1"/>
	<path class="st1" d="M444.5,330.5c0,19.5-5.5,35.2-12.3,35.2"/>
</g>
<g id="Layer_2">
	<path class="st2" d="M493.9,310c-8.8-2-21.6-5.8-35.2-13.9c-14.6-8.6-23.6-18.2-30.3-25.4c-5.7-6.2-16.2-18.3-25.4-36.1
		c-6.9-13.2-10.1-23.7-13.1-33.6c-5.1-16.6-7.6-24.9-5.7-32.8c1.6-7,5.1-12.1,2.5-15.6c-2.3-2.9-7.7-3-11.5-1.6
		c-4.8,1.7-7.7,6.1-10.7,13.1c-5.4,12.6-9.5,22.2-8.2,35.2c1.9,18.6,12.5,22.2,9.8,35.2c-1.7,8.2-7.6,15.2-13.9,18.9
		c-10.1,5.8-19.5,2-48.4-5.7c-52.1-14-29-3.8-67.2-13.9c-11-2.9-24.4-6.8-32,0c-2.5,2.3-5,6.3-4.1,9.8c1.3,5,8.8,6.7,18.9,9
		c14.5,3.3,28.9,6.6,43.4,9.8c16.6,3.7,24.3,6.1,30.3,13.1c2.1,2.4,6.2,7.2,4.9,11.5c-1.8,5.7-11.8,5.2-31.1,10.7
		c-21.3,6.1-26.8,11.8-28.7,13.9c-4.1,4.7-9.9,14-6.6,19.7c3.8,6.4,17.1,4.7,21.3,4.1c13.1-1.7,17.3-7.6,30.3-12.3
		c6.1-2.2,15.7-4.6,28.7-4.1"/>
	<path class="st2" d="M401.9,323.9c-2.2-4.9-11.9-5.5-31.7-7.4c-11.4-1.1-18.5-2.9-36.9-4.1c-8.4-0.5-12.7-0.5-16.4,2.5
		c-5.4,4.4-7.1,13.5-4.1,20.5c3.9,9,14.2,11.1,16.4,11.5c6.1,1.2,8.1-0.8,23.8-4.1c4-0.8,12.8-2.6,23-4.1
		c12.1-1.8,16.4-1.9,20.5-5.7C399.4,330,403.6,327.7,401.9,323.9z"/>
	<path class="st2" d="M396.3,332.9c0.7,0,11.7,2.9,13.9,6.6c2.7,4.4-2.3,11-3.3,12.3c-2.7,3.5-6.6,6.5-22.1,10.7
		c-6,1.6-17.7,4.5-34.4,5.7c-13.5,1-17.4,0-20.5-2.5c-4.8-3.8-7.3-15.5-7.8-18.9"/>
	<path class="st2" d="M465.2,398.5c-12.1-9-23.4-13.8-31.1-16.4c-13.6-4.6-25-5.5-28.7-5.7c-14.1-0.9-18.4,1.7-32.8,0.8
		c-10.3-0.6-22.3-6.6-27.6-8.1"/>
</g>
</svg>
