<svg xmlns="http://www.w3.org/2000/svg" xmlns:xlink="http://www.w3.org/1999/xlink" version="1.1" x="0px" y="0px" viewBox="0 0 100 100" enable-background="new 0 0 100 100" xml:space="preserve"><g><g><path d="M92.85,4.25H7.15C6.736,4.25,6.4,4.586,6.4,5v90c0,0.414,0.336,0.75,0.75,0.75h85.7c0.414,0,0.75-0.336,0.75-0.75V5    C93.6,4.586,93.264,4.25,92.85,4.25z M92.1,94.25H7.9V5.75h84.2V94.25z"></path><path d="M49.258,64.239c9.292,0,16.852-7.56,16.852-16.852c0-9.291-7.56-16.851-16.852-16.851c-9.293,0-16.854,7.56-16.854,16.851    C32.404,56.68,39.964,64.239,49.258,64.239z M49.258,32.037c8.465,0,15.352,6.887,15.352,15.351    c0,8.465-6.887,15.352-15.352,15.352c-8.466,0-15.354-6.887-15.354-15.352C33.904,38.924,40.792,32.037,49.258,32.037z"></path><path d="M49.258,55.145c4.275,0,7.752-3.479,7.752-7.756c0-3.038-1.757-5.773-4.5-7.041l-2.39-4.339    c-0.132-0.239-0.383-0.388-0.657-0.388s-0.525,0.148-0.657,0.388l-2.271,4.12c-3.023,1.132-5.034,4.012-5.034,7.26    C41.501,51.665,44.981,55.145,49.258,55.145z M47.291,41.452c0.179-0.06,0.33-0.185,0.421-0.35l1.752-3.179l1.854,3.368    c0.082,0.147,0.211,0.263,0.365,0.329c2.324,0.98,3.826,3.244,3.826,5.767c0,3.45-2.805,6.257-6.252,6.257    c-3.45,0-6.256-2.808-6.256-6.257C43.001,44.688,44.725,42.302,47.291,41.452z"></path><path d="M49.257,51.512c2.272,0,4.122-1.85,4.122-4.123c0-2.272-1.85-4.122-4.122-4.122c-2.273,0-4.123,1.85-4.123,4.122    C45.134,49.662,46.984,51.512,49.257,51.512z M49.257,44.767c1.445,0,2.622,1.176,2.622,2.622c0,1.446-1.176,2.623-2.622,2.623    c-1.446,0-2.623-1.177-2.623-2.623C46.634,45.943,47.811,44.767,49.257,44.767z"></path><path d="M71.553,75.807c1.184,0,2.146-0.964,2.146-2.106l0.892-16.2c0-1.675-1.362-3.037-3.038-3.037    c-1.674,0-3.037,1.362-3.035,3.078l0.89,16.118C69.407,74.843,70.37,75.807,71.553,75.807z M71.553,55.962    c0.848,0,1.538,0.688,1.539,1.496l-0.892,16.2c0,0.357-0.29,0.646-0.646,0.646c-0.356,0-0.646-0.289-0.646-0.688l-0.891-16.118    C70.016,56.65,70.706,55.962,71.553,55.962z"></path><rect x="48.507" y="57.072" width="1.5" height="2.791"></rect><rect x="56.368" y="38.089" transform="matrix(-0.7071 -0.7071 0.7071 -0.7071 69.5861 107.7928)" width="1.5" height="2.791"></rect><rect x="40.643" y="53.816" transform="matrix(0.7071 0.7071 -0.7071 0.7071 51.1641 -13.0983)" width="1.5" height="2.79"></rect><rect x="39.999" y="38.738" transform="matrix(-0.7075 -0.7068 0.7068 -0.7075 42.7717 96.6793)" width="2.791" height="1.5"></rect><rect x="55.72" y="54.46" transform="matrix(0.7075 0.7068 -0.7068 0.7075 55.7285 -24.2158)" width="2.791" height="1.5"></rect><rect x="58.979" y="46.597" width="2.793" height="1.5"></rect><rect x="36.741" y="46.597" width="2.792" height="1.5"></rect><rect x="43.606" y="36.327" transform="matrix(-0.3828 -0.9238 0.9238 -0.3828 27.9769 92.8447)" width="2.791" height="1.5"></rect><rect x="52.115" y="56.869" transform="matrix(0.3827 0.9239 -0.9239 0.3827 86.2646 -13.8696)" width="2.792" height="1.5"></rect><rect x="52.758" y="35.679" transform="matrix(-0.9239 -0.3826 0.3826 -0.9239 88.7626 91.8003)" width="1.501" height="2.791"></rect><rect x="44.251" y="56.228" transform="matrix(0.9238 0.3828 -0.3828 0.9238 25.4867 -12.8377)" width="1.5" height="2.791"></rect><rect x="37.587" y="42.338" transform="matrix(-0.9241 -0.3821 0.3821 -0.9241 58.5425 97.803)" width="2.791" height="1.501"></rect><rect x="58.13" y="50.854" transform="matrix(0.9239 0.3827 -0.3827 0.9239 24.2807 -18.8521)" width="2.792" height="1.501"></rect><rect x="58.133" y="42.339" transform="matrix(0.9237 -0.383 0.383 0.9237 -11.9636 26.0853)" width="2.792" height="1.499"></rect><rect x="37.586" y="50.856" transform="matrix(-0.9238 0.3829 -0.3829 -0.9238 94.7515 84.3548)" width="2.792" height="1.499"></rect><path d="M10.968,79.205h3.628v7.189c0,0.414,0.336,0.75,0.75,0.75h69.308c0.414,0,0.75-0.336,0.75-0.75V13.608    c0-0.414-0.336-0.75-0.75-0.75H15.346c-0.414,0-0.75,0.336-0.75,0.75v7.19h-3.628c-0.414,0-0.75,0.336-0.75,0.75V31.2    c0,0.414,0.336,0.75,0.75,0.75h3.628v36.102h-3.628c-0.414,0-0.75,0.337-0.75,0.75v9.652    C10.218,78.869,10.554,79.205,10.968,79.205z M11.718,22.299h7.546c1.347,0,2.443,1.096,2.443,2.443v3.266    c0,1.348-1.096,2.443-2.443,2.443h-7.546V22.299z M16.096,31.951h3.168c2.174,0,3.943-1.769,3.943-3.943v-3.266    c0-2.175-1.769-3.943-3.943-3.943h-3.168v-6.44h67.808v71.288H16.096v-6.44h3.168c2.174,0,3.943-1.769,3.943-3.942v-3.267    c0-2.175-1.769-3.942-3.943-3.942h-3.168V31.951z M11.718,69.553h7.546c1.347,0,2.443,1.096,2.443,2.443v3.266    c0,1.348-1.096,2.443-2.443,2.443h-7.546V69.553z"></path></g></g></svg>