<svg xmlns="http://www.w3.org/2000/svg" xmlns:xlink="http://www.w3.org/1999/xlink" version="1.1" x="0px" y="0px" viewBox="0 0 100 100" style="enable-background:new 0 0 100 100;" xml:space="preserve"><style type="text/css">
	.st0{fill:#1D1D1B;}
	.st1{fill:#FFFFFF;}
	.st2{display:none;}
</style><g><g><path d="M86.7,41.8c-0.4-0.3-0.9-0.7-1.5-1.3c-3.2-3.1-18.7-2.1-22.6-1.7c-12-6-12.7-6-24.7,0c-3.9-0.3-19.4-1.4-22.6,1.7    c-0.6,0.6-1.1,1-1.5,1.3c-2.1,1.8-2,2.5-0.9,6.1l4.1,17.6c0,0.1,0.1,0.3,0.2,0.4c0.5,0.7,5.5,6.8,33,6.9c27.5-0.1,32.5-6.2,33-6.9    c0.1-0.1,0.1-0.3,0.2-0.4l4-17.1l0.2-0.5C88.6,44.3,88.8,43.6,86.7,41.8z M77.1,40.9c2.6,0.8,5.6,2.2,5.8,3.7c0.2,1-1.1,2-2.2,2.6    c-0.7,0.1-4,0.7-8.8,1.2c-1.6-2.8-5.1-5.6-7.5-7.3C68.5,40.8,73.3,40.6,77.1,40.9z M61.8,41.1C61.9,41.1,61.9,41.1,61.8,41.1    c1.9,1.2,6.4,4.3,8.5,7.5c-5.5,0.6-12.7,1-20.1,0.8c-7.4,0.3-14.6-0.2-20.1-0.8c2.1-3.1,6.5-6.1,8.3-7.4c0.1,0,0.2,0,0.3-0.1    C50.2,35.2,50.2,35.2,61.8,41.1z M36,41c-2.4,1.7-5.9,4.5-7.5,7.3c-4.7-0.5-8-1.1-8.7-1.2c-1.1-0.7-2.3-1.7-2.2-2.6    c0.2-1.4,3.1-2.8,5.8-3.7C27.2,40.6,32,40.8,36,41z M85.3,47.2l-4.1,17.4c-0.9,0.9-7,5.6-30.9,5.7c-24-0.1-30-4.9-30.9-5.7    l-3.9-16.9l-0.2-0.5c-0.4-1.4-0.7-2.4-0.7-2.8c0-0.1,0.3-0.4,0.8-0.8c0.4-0.4,0.9-0.8,1.6-1.4c0.3-0.3,0.8-0.5,1.5-0.7    c-1.2,0.8-2.1,1.7-2.2,2.8c-0.2,1.4,0.8,2.8,3,4.1c0.1,0,0.2,0.1,0.2,0.1c0.1,0,14.9,2.7,30.8,2.2c1.5,0.1,3,0.1,4.4,0.1    c14.1,0,26.3-2.2,26.4-2.3c0.1,0,0.2,0,0.2-0.1c2.2-1.3,3.2-2.7,3-4.1c-0.2-1.1-1.1-2-2.2-2.8c0.7,0.2,1.2,0.4,1.5,0.7    c0.7,0.6,1.2,1.1,1.6,1.4c0.5,0.4,0.8,0.7,0.8,0.8C86,44.8,85.7,45.8,85.3,47.2z"></path><path d="M47.7,56.6c0.3,0,0.5-0.2,0.5-0.5c0-1.1,0.9-1.9,1.9-1.9s1.9,0.9,1.9,1.9c0,0.3,0.2,0.5,0.5,0.5s0.5-0.2,0.5-0.5    c0-1.6-1.3-2.8-2.8-2.8s-2.8,1.3-2.8,2.8C47.3,56.4,47.5,56.6,47.7,56.6z"></path><path d="M57.3,62.9l-1.5,0.9c-0.1,0.1-0.2,0.2-0.2,0.4c0,0.2,0.1,0.3,0.2,0.4l0,0c-1.2,1.1-2.8,1.8-4.3,2.1    c-0.1,0-0.2-0.1-0.2-0.2v-6h2.1c0.3,0,0.5-0.2,0.5-0.5v-1.3c0-0.3-0.2-0.5-0.5-0.5h-2.1v-2.3c0-0.1,0-0.1,0-0.2    c-0.1-0.5-0.5-1-1.1-1s-1,0.4-1.1,1c0,0.1,0,0.1,0,0.2v2.3h-2c-0.3,0-0.5,0.2-0.5,0.5v1.3c0,0.3,0.2,0.5,0.5,0.5h2v6    c0,0.1-0.1,0.2-0.2,0.2c-1.5-0.3-2.9-0.9-4.1-2l0.1,0c0.1-0.1,0.2-0.2,0.2-0.4c0-0.2-0.1-0.3-0.2-0.4l-1.5-0.9    c-0.2-0.1-0.4-0.1-0.5,0c-0.1,0.1-0.2,0.3-0.2,0.5l0.4,1.7c0,0.1,0.1,0.3,0.3,0.3c0.1,0,0.1,0,0.2,0c0.1,0,0.2,0,0.3-0.1l0.3-0.2    c1.8,1.7,4,2.5,6.3,2.5c0.4,0,0.8,0,1.2-0.1c0,0,0,0,0,0c0,0,0,0,0,0c1.8-0.3,3.6-1.1,5.1-2.5l0.3,0.2c0.1,0.1,0.2,0.1,0.3,0.1    c0.1,0,0.1,0,0.2,0c0.1-0.1,0.2-0.2,0.3-0.3l0.4-1.7c0-0.2,0-0.4-0.2-0.5C57.7,62.8,57.5,62.8,57.3,62.9z M52.9,59.1v0.4h-1.6    v-0.4H52.9z M50.3,59.5h-0.5v-0.4h0.5V59.5z M49.9,55.9C49.9,55.9,49.9,55.9,49.9,55.9c0-0.3,0.5-0.3,0.5,0c0,0,0,0,0,0v2.3h-0.5    V55.9z M47.4,59.5v-0.4H49v0.4H47.4z M49.8,66.7c0-0.1,0.1-0.2,0.1-0.2c0,0,0,0,0-0.1v-6h0.5v6.1c0,0,0,0,0,0.1    c0,0.1,0,0.2,0.1,0.2C50.2,66.7,50,66.7,49.8,66.7z"></path><path d="M20.5,43.1c0,0-2.8,1.4,0,2.4s7.1,1,7.1,1l5.1-4.4C32.8,42.1,24,41,20.5,43.1z"></path><path d="M72.9,46.5c0,0,4.4,0,7.1-1s0-2.4,0-2.4c-3.5-2.1-12.2-1-12.2-1L72.9,46.5z"></path></g></g></svg>