<svg xmlns="http://www.w3.org/2000/svg" xmlns:xlink="http://www.w3.org/1999/xlink" version="1.1" x="0px" y="0px" viewBox="0 0 100 100" enable-background="new 0 0 100 100" xml:space="preserve"><path d="M71.3,87.7H22.4c-4,0-7.2-3.2-7.2-7.2V70.4c0-4,3.2-7.2,7.2-7.2h48.9c4,0,7.2,3.2,7.2,7.2v10.1  C78.5,84.5,75.2,87.7,71.3,87.7z M22.4,66.2c-2.3,0-4.2,1.9-4.2,4.2v10.1c0,2.3,1.9,4.2,4.2,4.2h48.9c2.3,0,4.2-1.9,4.2-4.2V70.4  c0-2.3-1.9-4.2-4.2-4.2H22.4z"></path><path d="M21.2,65.7c0,0,8.1-43.4,54.2-43.9c0.3,0,0.5,0.3,0.4,0.6c-2.1,4.2-14.2,29.9-3.4,43.3"></path><path d="M80.5,27.8c-4.3,0-7.8-3.5-7.8-7.8c0-4.3,3.5-7.8,7.8-7.8c4.3,0,7.8,3.5,7.8,7.8C88.3,24.4,84.8,27.8,80.5,27.8z M80.5,15.3  c-2.6,0-4.8,2.1-4.8,4.8c0,2.6,2.1,4.8,4.8,4.8c2.6,0,4.8-2.1,4.8-4.8C85.3,17.5,83.1,15.3,80.5,15.3z"></path></svg>