<svg height='100px' width='100px'  fill="#000000" xmlns="http://www.w3.org/2000/svg" xmlns:xlink="http://www.w3.org/1999/xlink" version="1.1" x="0px" y="0px" viewBox="0 0 100 100" enable-background="new 0 0 100 100" xml:space="preserve"><g><g><path fill="#000000" d="M59.525,30.694H40.475c-0.345,0-0.625-0.28-0.625-0.625v-2.761c0-0.345,0.28-0.625,0.625-0.625h19.051    c0.345,0,0.625,0.28,0.625,0.625v2.761C60.15,30.415,59.87,30.694,59.525,30.694z M41.1,29.444H58.9v-1.511H41.1V29.444z"></path></g><g><path fill="#000000" d="M56.396,36.543c-0.345,0-0.625-0.28-0.625-0.625v-5.849c0-0.345,0.28-0.625,0.625-0.625    s0.625,0.28,0.625,0.625v5.849C57.021,36.263,56.741,36.543,56.396,36.543z"></path></g><g><path fill="#000000" d="M71.748,92.26H28.252c-1.6,0-2.792-0.566-3.358-1.594c-0.565-1.028-0.406-2.338,0.448-3.689l17.637-27.903    V30.069c0-0.345,0.28-0.625,0.625-0.625s0.625,0.28,0.625,0.625v29.185c0,0.118-0.033,0.234-0.097,0.334L26.398,87.644    c-0.592,0.936-0.741,1.817-0.41,2.418c0.332,0.602,1.157,0.947,2.264,0.947h43.496c1.106,0,1.932-0.345,2.264-0.947    c0.331-0.602,0.182-1.483-0.41-2.418L55.868,59.588c-0.063-0.1-0.097-0.216-0.097-0.334V44.674c0-0.345,0.28-0.625,0.625-0.625    s0.625,0.28,0.625,0.625v14.399l17.637,27.903c0.854,1.351,1.014,2.662,0.448,3.689C74.54,91.693,73.348,92.26,71.748,92.26z"></path></g><g><path fill="#000000" d="M48.721,39.01h-5.117c-0.345,0-0.625-0.28-0.625-0.625s0.28-0.625,0.625-0.625h5.117    c0.345,0,0.625,0.28,0.625,0.625S49.065,39.01,48.721,39.01z"></path></g><g><path fill="#000000" d="M48.721,39.01h-5.117c-0.345,0-0.625-0.28-0.625-0.625s0.28-0.625,0.625-0.625h5.117    c0.345,0,0.625,0.28,0.625,0.625S49.065,39.01,48.721,39.01z"></path></g><g><path fill="#000000" d="M48.721,51.803h-5.117c-0.345,0-0.625-0.28-0.625-0.625s0.28-0.625,0.625-0.625h5.117    c0.345,0,0.625,0.28,0.625,0.625S49.065,51.803,48.721,51.803z"></path></g><g><path fill="#000000" d="M48.721,45.406h-5.117c-0.345,0-0.625-0.28-0.625-0.625s0.28-0.625,0.625-0.625h5.117    c0.345,0,0.625,0.28,0.625,0.625S49.065,45.406,48.721,45.406z"></path></g><g><path fill="#000000" d="M55.646,21.906c-2.579,0-4.678-2.099-4.678-4.678s2.099-4.678,4.678-4.678s4.678,2.099,4.678,4.678    S58.225,21.906,55.646,21.906z M55.646,13.8c-1.89,0-3.428,1.538-3.428,3.428s1.538,3.428,3.428,3.428s3.428-1.538,3.428-3.428    S57.535,13.8,55.646,13.8z"></path></g><g><path fill="#000000" d="M62.091,12.788c-1.507,0-2.732-1.226-2.732-2.732c0-1.507,1.226-2.733,2.732-2.733    s2.732,1.226,2.732,2.733C64.823,11.562,63.598,12.788,62.091,12.788z M62.091,8.573c-0.817,0-1.482,0.665-1.482,1.483    c0,0.817,0.665,1.482,1.482,1.482s1.482-0.665,1.482-1.482C63.573,9.238,62.908,8.573,62.091,8.573z"></path></g><g><path fill="#000000" d="M56.399,40c-0.17,0-0.33-0.07-0.449-0.18c-0.11-0.12-0.181-0.28-0.181-0.44c0-0.17,0.07-0.34,0.19-0.45    c0.22-0.22,0.649-0.23,0.88,0.01c0.11,0.11,0.18,0.27,0.18,0.44c0,0.16-0.06,0.32-0.18,0.44C56.72,39.93,56.56,40,56.399,40z"></path></g></g><g><g><path fill="#000000" d="M65.001,87.703H34.999c-1.177,0-2.06-0.426-2.485-1.2c-0.427-0.774-0.315-1.748,0.313-2.743l6.711-10.618    h20.924l6.711,10.618c0.629,0.995,0.74,1.969,0.313,2.743C67.061,87.277,66.178,87.703,65.001,87.703z M40.228,74.393    l-6.344,10.036c-0.369,0.583-0.47,1.12-0.275,1.472c0.193,0.351,0.7,0.553,1.391,0.553h30.002c0.69,0,1.197-0.202,1.391-0.553    c0.194-0.352,0.094-0.888-0.275-1.472l-6.344-10.036H40.228z"></path></g></g></svg>