<svg height='100px' width='100px'  fill="#000000" xmlns="http://www.w3.org/2000/svg" xmlns:xlink="http://www.w3.org/1999/xlink" version="1.1" x="0px" y="0px" viewBox="0 0 128 128" style="enable-background:new 0 0 128 128;" xml:space="preserve"><g><path d="M108.5488281,62.5849609C104.6865234,59.5878906,99.8662109,57.9375,94.9760742,57.9375H73.2011719   c-5.6601562,0-11.0478516,2.1357422-15.1708984,6.0136719L44.4160156,76.7558594   c-0.4204102,0.3935547-1.0644531,0.4052734-1.496582,0.0273438l-9.5305176-8.3166504l-0.4864502-1.8157349   c-1.4418335-5.3823242-1.2349243-11.0734863,0.5940552-16.3369141c0.1190796-0.3427734,0.1799316-0.703125,0.1799316-1.06604   C33.6764526,47.4541016,32.2223511,46,30.4285889,46H17.7218628c-1.7937622,0-3.2478638,1.4541016-3.2478638,3.2478638   c0,0.362915,0.060791,0.7232666,0.1799316,1.06604c1.8289795,5.2634277,2.0358887,10.9545898,0.5939941,16.3369141   L8.9421997,90.18927c-0.163269,0.6095581-0.2460327,1.237915-0.2460327,1.8689575v0.000061   c0,3.4193726,2.3978271,6.3701782,5.744873,7.0698853c3.177063,0.6641235,6.4056396,0.9962158,9.6342163,0.9962158   c3.2285156,0,6.4570923-0.3320923,9.6341553-0.9962158c2.0078125-0.4197388,3.6605835-1.6586914,4.6724854-3.3137817   c1.5996704,0.8627319,3.3999634,1.3408813,5.2836304,1.3408813c2.4243164,0,4.8227539-0.8085938,6.7524414-2.2773438   L58.9672852,88.375c0.1625977,1.9589844,0.5712891,3.859375,1.2207031,5.671875   c1.402832,3.9121094,1.9956055,7.8173828,1.7631836,11.6074219l-0.7246094,12.1484375   c-0.0507812,0.8261719,0.2451172,1.6464844,0.8125,2.25s1.3676758,0.9492188,2.1953125,0.9492188h51.0556641   c1.6386719,0,2.9902344-1.3330078,3.0136719-2.9726562l0.4741211-34.1884766   C118.8930664,75.5888672,115.0693359,67.6425781,108.5488281,62.5849609z M92.7958984,69.5751953l1.3217773,2.8564453   L85,75.2254028v-1.6569214c0.3486328-0.1641846,0.6627197-0.4190674,0.8890991-0.7851562L93.8317261,59.9375h0.1843262   c0.0254517,0.034668,0.0374146,0.0755005,0.0679321,0.1074219l4.7026367,4.9208984l-5.5947266,3.3300781   C92.7519531,68.5576172,92.5810547,69.1103516,92.7958984,69.5751953z M74.1713867,68.2958984l-5.4667969-3.2539062   l5.8008423-4.8920288l7.8113403,12.6333618C82.4969482,73.074707,82.7363281,73.2906494,83,73.4541016v1.9664307   l-9.7543945-2.9888916l1.3217773-2.8564453C74.7822266,69.1103516,74.6113281,68.5576172,74.1713867,68.2958984z M17.7218628,48   h12.7067261c0.6880493,0,1.2478638,0.5597534,1.2478638,1.2478638c0,0.1397095-0.0232544,0.2776489-0.0690918,0.4096069   c-1.8538208,5.3348389-2.1361694,11.0142212-0.8685303,16.496521c0.078186,0.3380127,0.1416626,0.6779785,0.2317505,1.0143433   l0.6442871,2.4050293L31.9970703,71H25c-0.5522461,0-1,0.4472656-1,1s0.4477539,1,1,1h7.5328369l0.5717773,2.1342773h-9.5007324   h-2.534668h-6.0233765l2.1339722-7.9659424c1.5516357-5.7918701,1.3314819-11.8470459-0.6367188-17.5109863   c-0.0458374-0.131897-0.0690918-0.2697144-0.0690918-0.4094849C16.473999,48.5597534,17.0338135,48,17.7218628,48z    M27.5077515,80.1479492C27.6552124,80.0623169,27.8171997,80,28,80h5c0.5522461,0,1,0.4472656,1,1s-0.4477539,1-1,1h-4.0501099H28   c-0.5522461,0-1-0.4472656-1-1C27,80.630249,27.2097168,80.3209839,27.5077515,80.1479492z M30,88h1.0870361h2.534729H35   c0.5522461,0,1,0.4472656,1,1c0,0.4978027-0.3696289,0.8917236-0.8452759,0.96875C35.1022339,89.9772339,35.0548706,90,35,90   h-2.3556519H30c-0.5522461,0-1-0.4472656-1-1S29.4477539,88,30,88z M63.4960938,118.6826172   c-0.1933594-0.2060547-0.2905273-0.4746094-0.2734375-0.7587891l0.7246094-12.1484375   c0.2495117-4.0615234-0.3818359-8.234375-1.8764648-12.4042969c-0.15271-0.4260254-0.2782593-0.8621216-0.4016113-1.2987671   c-1.418396-9.2841187-0.1988525-14.1410522-0.1750488-14.2334595c0.1430664-0.5322266-0.1723633-1.0800781-0.7050781-1.2246094   c-0.5341797-0.1445312-1.0825195,0.1728516-1.2260742,0.7050781c-0.0424194,0.1572876-0.7800903,3.0042114-0.53479,8.4962158   l-9.821167,7.4705811c-1.5839844,1.2050781-3.5517578,1.8691406-5.5415039,1.8691406   c-1.6086426,0-3.1427612-0.4249268-4.4941406-1.18927c0.1686401-0.6129761,0.2828369-1.2468872,0.2828369-1.9077148v-0.000061   c0-0.6310425-0.0827026-1.2593994-0.2459717-1.8689575l-4.8911133-18.2577515l7.2873535,6.3594971   c1.2109375,1.0566406,3.0092773,1.0224609,4.1811523-0.078125l13.6147461-12.8046875   c3.3500366-3.1516113,7.6202393-5.0266724,12.1629639-5.3935547l-5.2215576,4.4033203   c-0.2475586,0.2089844-0.378418,0.5244141-0.3520508,0.8466797s0.2070312,0.6113281,0.4848633,0.7773438l5.8989258,3.5117188   l-1.4248047,3.078125c-0.1210938,0.2617188-0.1230469,0.5634766-0.0053711,0.828125   c0.1176758,0.2636719,0.34375,0.4628906,0.6201172,0.5478516l11.2661133,3.4521484   C82.8826294,77.5084839,82.9382324,77.5502319,83,77.5861206v41.4158325H64.234375   C63.9521484,119.0019531,63.6899414,118.8886719,63.4960938,118.6826172z M116.3037109,118.0009766   c-0.0078125,0.5517578-0.4624023,1.0009766-1.0136719,1.0009766h-7.9570312l-0.5795898-11.1884766   c-0.237793-4.5849609,0.3076172-9.3652344,1.6206055-14.2070312c1.1308594-4.1728516,1.5981445-9.5751953,1.3886719-16.0585938   c-0.0175781-0.5517578-0.4814453-1.0244141-1.0317383-0.9667969c-0.5522461,0.0175781-0.9848633,0.4794922-0.9672852,1.03125   c0.203125,6.2851562-0.2412109,11.4902344-1.3203125,15.4707031c-1.3681641,5.046875-1.9360352,10.0371094-1.6870117,14.8339844   l0.5742188,11.0849609H85V77.3170776l10.7998047-3.3092651c0.2763672-0.0849609,0.5024414-0.2841797,0.6201172-0.5478516   c0.1176758-0.2646484,0.1157227-0.5664062-0.0053711-0.828125l-1.4248047-3.078125l5.8989258-3.5117188   c0.2617188-0.15625,0.4379883-0.4228516,0.4790039-0.7246094c0.0415039-0.3017578-0.0571289-0.6054688-0.2675781-0.8251953   l-4.2622681-4.4599609c3.7966919,0.3568115,7.4632568,1.7880249,10.4849243,4.1328125   c6.0273438,4.6748047,9.5620117,12.0195312,9.4550781,19.6484375L116.3037109,118.0009766z"></path><circle cx="91" cy="82" r="2"></circle><circle cx="91" cy="92" r="2"></circle><circle cx="91" cy="102" r="2"></circle><circle cx="91" cy="112" r="2"></circle><path d="M33,37c2.2055664,0,4-1.7939453,4-4s-1.7944336-4-4-4s-4,1.7939453-4,4S30.7944336,37,33,37z M33,31   c1.1030273,0,2,0.8974609,2,2s-0.8969727,2-2,2s-2-0.8974609-2-2S31.8969727,31,33,31z"></path><path d="M23,27c2.2055664,0,4-1.7939453,4-4s-1.7944336-4-4-4s-4,1.7939453-4,4S20.7944336,27,23,27z M23,21   c1.1030273,0,2,0.8974609,2,2s-0.8969727,2-2,2s-2-0.8974609-2-2S21.8969727,21,23,21z"></path><path d="M19,41c2.2055664,0,4-1.7939453,4-4s-1.7944336-4-4-4s-4,1.7939453-4,4S16.7944336,41,19,41z M19,35   c1.1030273,0,2,0.8974609,2,2s-0.8969727,2-2,2s-2-0.8974609-2-2S17.8969727,35,19,35z"></path><path d="M76,82h-8c-0.5522461,0-1,0.4472656-1,1s0.4477539,1,1,1h8c0.5522461,0,1-0.4472656,1-1S76.5522461,82,76,82z"></path><path d="M65.2526855,55.2697144c3.3688965,0,6.4457397-1.2313843,8.8215942-3.2598267C76.9204712,53.895813,80.3299561,55,84,55   c3.7279663,0,7.1912842-1.1333008,10.0641479-3.0742188c2.3884277,2.0772095,5.5001831,3.3439331,8.9140625,3.3439331   c7.5125122,0,13.6026001-6.0900879,13.6026001-13.6025391c0-4.7381592-2.4255371-8.9061279-6.0995483-11.3416138   c0.7092896-1.6481323,1.1055908-3.4626465,1.1055908-5.3707886c0-7.5124512-6.0900879-13.6025391-13.6026001-13.6025391   c-0.6164551,0-1.21875,0.0552979-1.8134766,0.1347656c-2.4783325-3.3432007-6.4412231-5.5198364-10.9224243-5.5198364   c-4.5344849,0-8.5396118,2.2275391-11.0112305,5.6385498c-0.8395996-0.1621094-1.7044678-0.253479-2.5913696-0.253479   c-7.5124512,0-13.6025391,6.0900879-13.6025391,13.6025391c0,1.6518555,0.3092651,3.2277832,0.8485107,4.6924438   c-4.3057251,2.2833862-7.2415771,6.8065796-7.2415771,12.0199585   C51.6501465,49.1796265,57.7401733,55.2697144,65.2526855,55.2697144z M84,53c-3.109375,0-6.0047607-0.9057617-8.4633179-2.4466553   c-2.5461426-1.5958252-4.6065063-3.8831787-5.9258423-6.6028442C69.7712402,43.9761963,69.9325562,44,70.1000977,44h8.5411377   h1.149292c0.8359375,0,1.6479492-0.3447266,2.2280273-0.9443359l1.6958008-1.7529297   c0.2089844-0.2158203,0.4897461-0.3349609,0.7905273-0.3349609c0,0,0.0004883,0,0.0009766,0   c0.3012695,0.0009766,0.5820312,0.1201172,0.7905273,0.3359375l1.684082,1.7480469   C87.5620117,43.6542969,88.3754883,44,89.2119141,44h0.3777466h8.7756348   c-1.2946167,2.6455688-3.289856,4.8814697-5.7532349,6.4628906C90.1226807,52.0609741,87.1715088,53,84,53z M100,31.3108521V37   v1.3917236v2.508667c0,0.4958496-0.3362427,0.8997803-0.7880859,1.036499C99.111145,41.9673462,99.010498,42,98.8999023,42   h-9.5074463h-0.180542c-0.296875,0-0.5859375-0.1230469-0.7919922-0.3359375l-1.6835938-1.7480469   c-0.5883789-0.6103516-1.3798828-0.9472656-2.2285156-0.9482422c-0.0009766,0-0.0019531,0-0.0029297,0   c-0.8476562,0-1.6386719,0.3349609-2.2280273,0.9443359l-1.6962891,1.7529297C80.375,41.8779297,80.0874023,42,79.7905273,42   h-0.9520874h-8.7383423C69.4936523,42,69,41.5068359,69,40.9003906v-2.6047974v-6.8103638v-0.3856201   c0-0.4038086,0.2293701-0.7424316,0.5546265-0.9336548C69.7178955,30.0700073,69.8974609,30,70.1000977,30h2.1196289h4.3033447   h7.7476196h1.0886841h8.6141968h2.0375977h2.354126h0.5346069c0.272644,0,0.5145264,0.1099854,0.7069702,0.2748413   C99.8424683,30.4766846,100,30.7658081,100,31.0996094V31.3108521z"></path><path d="M76.1098022,33.4970703c-0.0371704,0.0279541-0.0808105,0.0422974-0.1146851,0.0761719l-3.5078125,3.5078125   c-0.390625,0.390625-0.390625,1.0234375,0,1.4140625c0.0081787,0.0081787,0.0192871,0.0105591,0.0276489,0.0183716   c0.1918945,0.1793213,0.4342041,0.2745972,0.6793823,0.2745972c0.2558594,0,0.5117188-0.0976562,0.7070312-0.2929688   l0.1651611-0.1651611l3.1467896-3.1467896l0.1958618-0.1958618c0.390625-0.390625,0.390625-1.0234375,0-1.4140625   C77.0524292,33.2164917,76.5015869,33.2021484,76.1098022,33.4970703z"></path><path d="M83.0703125,32.7021484c-0.0495605-0.0495605-0.1115112-0.0745239-0.1679077-0.1115112   c-0.3788452-0.2485352-0.8776855-0.2258911-1.2190552,0.0935059c-0.0081787,0.0076904-0.019104,0.0100098-0.0270996,0.0180054   l-3.5078125,3.5078125c-0.1350708,0.1350708-0.2061157,0.302063-0.2478027,0.4750366   c-0.0281372,0.1168213-0.036438,0.232666-0.0219116,0.3514404c0.026062,0.2139893,0.1054077,0.4232788,0.2697144,0.5875854   c0.0340576,0.0340576,0.0780029,0.0485229,0.1154175,0.0766602c0.1771851,0.1331177,0.3803711,0.2163086,0.5916138,0.2163086   c0.2558594,0,0.5117188-0.0976562,0.7070312-0.2929688l3.5078125-3.5078125   c0.2987671-0.2987671,0.3649902-0.7373657,0.2067261-1.1027832C83.2283936,32.901062,83.1621704,32.7940063,83.0703125,32.7021484z   "></path><path d="M20,53h9c0.5522461,0,1-0.4472656,1-1s-0.4477539-1-1-1h-9c-0.5522461,0-1,0.4472656-1,1S19.4477539,53,20,53z"></path></g></svg>