<?xml version="1.0" encoding="utf-8"?>
<!-- Generator: Adobe Illustrator 23.0.4, SVG Export Plug-In . SVG Version: 6.00 Build 0)  -->
<svg version="1.1" id="Layer_1" xmlns="http://www.w3.org/2000/svg" xmlns:xlink="http://www.w3.org/1999/xlink" x="0px" y="0px"
	 viewBox="0 0 100 100" style="enable-background:new 0 0 100 100;" xml:space="preserve">
<path d="M15.4,39l-0.2,24.7l58.4-0.1l0-22.9h-1v-0.5L71,38.5l-1.4,1.9l-0.1,0.4l-1.1,0.1V54h-1V44H62v9.1l-0.4-0.4v-3h-1.8V35.9
	h-0.7v-0.6h-3.3v0.6H55V41h-0.4v0.8l-0.5,0.5v5.2h-0.5v0.8H53v6.9h-0.6V56h-0.6c0,0-1.2-11.9-1.1-14.1s0.8-7.8,1.1-7.9
	s0.4-0.6,0.4-0.6h1.4l0.1-0.5h-0.3l0.3-0.7c0,0,1.3,0.1,1.3,0s0-0.1,0-0.1l-1.1-0.4l-0.5-1.1L51.5,30l-0.3-1.4H50l-0.5-5l-0.4,4.9
	l-1.4,0.1l-0.1,1.6L45.2,31l-0.1,0.7l-1.2,0.6l1.3,0.3l0.1,0.6l-0.4,0.2l1.8,0.4c0,0,1.4,7.1,1.4,7.4c-0.7,0.1-4.1,0-4.1,0v4.1h-1.3
	V50h-1.6v0.9h-0.6V50h-3.2v-5.1h-0.6L36.6,44l-0.9-0.1l-0.4-0.8h-1.8L33.1,44l-0.8,0.1v1.3H32l-0.1,0.4h-0.5L30.5,46l0.1,0.8
	l-1.3,0.1l0.1,1.7l-0.5-0.1v-2.1h-2.6h-0.9h-2V51h-0.9V38.5h-0.8V38h-1c0,0,0.3-0.4,0-0.4s-1.3,0-1.3,0V39H15.4z"/>
</svg>
