<svg height='100px' width='100px'  fill="#000000" xmlns="http://www.w3.org/2000/svg" xmlns:xlink="http://www.w3.org/1999/xlink" version="1.1" x="0px" y="0px" viewBox="0 0 100 100" enable-background="new 0 0 100 100" xml:space="preserve"><g><path stroke="#000000" stroke-width="0.75" stroke-linecap="round" stroke-linejoin="round" stroke-miterlimit="10" d="   M14.999,28.835l0,11H85v-10.82l-0.062-0.18H14.999z M71.917,33.834c-0.829,0-1.5-0.672-1.5-1.5s0.671-1.5,1.5-1.5   s1.5,0.672,1.5,1.5S72.746,33.834,71.917,33.834z M76.667,33.834c-0.829,0-1.5-0.672-1.5-1.5s0.671-1.5,1.5-1.5s1.5,0.672,1.5,1.5   S77.496,33.834,76.667,33.834z M81.334,33.834c-0.829,0-1.5-0.671-1.5-1.5c0-0.828,0.671-1.5,1.5-1.5c0.828,0,1.5,0.672,1.5,1.5   C82.834,33.164,82.162,33.834,81.334,33.834z"></path><polygon stroke="#000000" stroke-width="0.75" stroke-linecap="round" stroke-linejoin="round" stroke-miterlimit="10" points="   84.311,27.001 79.916,14.168 19.917,14.168 15.523,27.001  "></polygon><path stroke="#000000" stroke-width="0.75" stroke-linecap="round" stroke-linejoin="round" stroke-miterlimit="10" d="   M14.917,43.252l0,11h70.002V43.433l-0.062-0.181H14.917z M71.835,48.251c-0.829,0-1.5-0.672-1.5-1.5s0.671-1.5,1.5-1.5   s1.5,0.672,1.5,1.5S72.664,48.251,71.835,48.251z M76.585,48.251c-0.829,0-1.5-0.672-1.5-1.5s0.671-1.5,1.5-1.5s1.5,0.672,1.5,1.5   S77.414,48.251,76.585,48.251z M81.252,48.251c-0.829,0-1.5-0.67-1.5-1.5c0-0.828,0.671-1.5,1.5-1.5c0.828,0,1.5,0.672,1.5,1.5   C82.752,47.581,82.08,48.251,81.252,48.251z"></path><path stroke="#000000" stroke-width="0.75" stroke-linecap="round" stroke-linejoin="round" stroke-miterlimit="10" d="   M15.041,57.668l0,11h70.002v-10.82l-0.062-0.18H15.041z M71.959,62.668c-0.828,0-1.5-0.672-1.5-1.5s0.672-1.5,1.5-1.5   c0.83,0,1.5,0.672,1.5,1.5S72.789,62.668,71.959,62.668z M76.709,62.668c-0.828,0-1.5-0.672-1.5-1.5s0.672-1.5,1.5-1.5   c0.83,0,1.5,0.672,1.5,1.5S77.539,62.668,76.709,62.668z M81.377,62.668c-0.83,0-1.5-0.672-1.5-1.5s0.67-1.5,1.5-1.5   c0.828,0,1.5,0.672,1.5,1.5S82.205,62.668,81.377,62.668z"></path><path stroke="#000000" stroke-width="0.75" stroke-linecap="round" stroke-linejoin="round" stroke-miterlimit="10" d="   M14.959,72.085l0,11h70.002V72.266l-0.062-0.181H14.959z M71.877,77.084c-0.828,0-1.5-0.672-1.5-1.5s0.672-1.5,1.5-1.5   c0.83,0,1.5,0.672,1.5,1.5S72.707,77.084,71.877,77.084z M76.627,77.084c-0.828,0-1.5-0.672-1.5-1.5s0.672-1.5,1.5-1.5   c0.83,0,1.5,0.672,1.5,1.5S77.457,77.084,76.627,77.084z M81.295,77.084c-0.83,0-1.5-0.67-1.5-1.5c0-0.828,0.67-1.5,1.5-1.5   c0.828,0,1.5,0.672,1.5,1.5C82.795,76.414,82.123,77.084,81.295,77.084z"></path></g></svg>