<svg xmlns="http://www.w3.org/2000/svg" xmlns:xlink="http://www.w3.org/1999/xlink" xmlns:sketch="http://www.bohemiancoding.com/sketch/ns" viewBox="0 0 40 45" version="1.1" x="0px" y="0px"><title>three_leaf_clover</title><description>Created with Sketch (http://www.bohemiancoding.com/sketch)</description><g stroke="none" stroke-width="1" fill="none" fill-rule="evenodd" sketch:type="MSPage"><path d="M18.4247658,18.385944 C15.3705883,15.86311 8.9411078,10.1584487 8.94110785,6.84297549 C8.94110754,0.698693817 13.2186002,-1.75664865 20,3.15742229 C26.7813998,-1.75664865 31.0588918,0.698693817 31.0588921,6.84297549 C31.0588921,10.16474 24.6300102,15.8656413 21.5756608,18.3866829 C25.2875879,17.0031045 33.4427097,14.2873417 36.3139937,15.9450784 C41.6350979,19.0172189 41.6227405,23.9493074 33.9763303,27.3651365 C34.8413407,35.6950365 30.5762057,38.171782 25.2551016,35.0996414 C23.2534398,33.9439815 21.8105137,29.5168318 20.8968546,25.614649 C22.4524464,41.4830871 18,45 18,45 L16,45 C16,45 20.3399713,40.8831113 20.0583416,21.460141 C20.0378825,21.3416179 20.0182938,21.2265064 19.9995734,21.1150685 C19.3418238,25.0214808 17.6161825,33.4419049 14.7448984,35.0996414 C9.42379459,38.1717826 5.15865933,35.6950365 6.02366967,27.3651365 C-1.62274052,23.9493074 -1.63509756,19.0172195 3.6860063,15.9450784 C6.5627388,14.2841962 14.714305,17.0013205 18.4247658,18.385944 Z" fill="#000000" sketch:type="MSShapeGroup"></path></g></svg>