<?xml version="1.0" encoding="utf-8"?>
<!-- Generator: Adobe Illustrator 21.0.2, SVG Export Plug-In . SVG Version: 6.00 Build 0)  -->
<svg version="1.1"
	 id="Layer_1" xmlns:cc="http://creativecommons.org/ns#" xmlns:dc="http://purl.org/dc/elements/1.1/" xmlns:inkscape="http://www.inkscape.org/namespaces/inkscape" xmlns:rdf="http://www.w3.org/1999/02/22-rdf-syntax-ns#" xmlns:sodipodi="http://sodipodi.sourceforge.net/DTD/sodipodi-0.dtd" xmlns:svg="http://www.w3.org/2000/svg"
	 xmlns="http://www.w3.org/2000/svg" xmlns:xlink="http://www.w3.org/1999/xlink" x="0px" y="0px" viewBox="0 0 100 100"
	 style="enable-background:new 0 0 100 100;" xml:space="preserve">
<g transform="translate(0,-952.36218)">
	<path d="M47.2,958.5c-9.3,4.1-18.7,8.3-28,12.4c-3,1.3-6,2.6-9,4c-0.3,0.4-1.2,0.9-1.2,1.8c0,22.7,5,37.4,12.3,47.8
		s16.9,16.3,25.7,21.6c0.6,0.4,1.5,0.4,2.1,0c5.3-3.2,10.8-6.6,16-11v1.3c0,1,1,2,2,2h22c1,0,2-1,2-2v-16c0-1-1-2-2-2h-2v-3
		c0-2.7-1-5-2.7-6.6c-0.5-0.4-1-0.8-1.5-1.1c2.6-8.3,4.2-18.4,4.2-30.9c0-0.8-0.5-1.5-1.2-1.8c-5.3-2.3-10.5-4.7-15.8-7
		c-7.1-3.1-14.1-6.3-21.2-9.4c-0.2-0.1-0.5-0.2-0.9-0.2C47.6,958.4,47.4,958.4,47.2,958.5L47.2,958.5z M48,962.6L82.9,978
		c-0.1,11.6-1.5,20.9-3.9,28.4c-0.3,0-0.7-0.1-1-0.1c-2.5,0-4.6,1.1-4.6,1.1c-0.2,0.1-1,0.6-1.7,1.2c-2.4,2.2-2.6,5.6-2.7,6.6v3
		c-0.7,0-1.5,0-2.2,0c-1,0.1-1.8,1-1.8,2v9.3c-5.3,5.1-11.1,8.8-17,12.3c-8.4-5.1-16.9-10.6-23.4-19.8c-6.7-9.4-11.3-22.9-11.5-44.2
		L48,962.6z M78,1010.4c1.5,0,2.7,0.5,3.6,1.3c0.9,0.8,1.4,2,1.4,3.7v3H73v-3c0-1.7,0.6-2.9,1.4-3.7
		C75.3,1010.8,76.5,1010.4,78,1010.4z M69,1022.4h18v12H69V1022.4z"/>
</g>
</svg>
