<svg height='100px' width='100px'  fill="#000000" xmlns="http://www.w3.org/2000/svg" xmlns:xlink="http://www.w3.org/1999/xlink" xml:space="preserve" version="1.1" style="shape-rendering:geometricPrecision;text-rendering:geometricPrecision;image-rendering:optimizeQuality;" viewBox="0 0 231 257" x="0px" y="0px" fill-rule="evenodd" clip-rule="evenodd"><defs><style type="text/css">
   
    .fil0 {fill:#000000}
   
  </style></defs><g><path class="fil0" d="M57 228c-59,-51 50,-101 27,-157 -13,-30 -52,-40 -76,-19 -15,12 -6,27 9,17 17,-14 39,-7 47,12 12,29 -36,75 -43,102 -8,27 12,74 49,74l74 0c0,-9 -4,-13 -12,-14 20,-18 23,-40 1,-67 24,20 25,51 10,66 7,4 8,10 9,15l29 0c-3,-4 -6,-8 -11,-10 -3,-50 25,-65 34,-94 6,-23 -3,-47 -10,-67 11,-8 25,6 37,-16 -10,-16 -5,-38 -26,-44 -4,-10 1,-17 6,-26 -52,18 -60,31 -65,73 -8,56 -22,34 -61,63 -37,27 -29,57 -28,92z"></path></g></svg>