<?xml version="1.0" encoding="utf-8"?>
<!-- Generator: Adobe Illustrator 24.2.3, SVG Export Plug-In . SVG Version: 6.00 Build 0)  -->
<svg version="1.0" id="Layer_1" xmlns="http://www.w3.org/2000/svg" xmlns:xlink="http://www.w3.org/1999/xlink" x="0px" y="0px"
	 viewBox="0 0 1920 1080" style="enable-background:new 0 0 1920 1080;" xml:space="preserve">
<style type="text/css">
	.st0{fill:#FFFFFF;}
</style>
<g>
	<path class="st0" d="M852.8,728.6c0.2-1.1,0.3-1.6,0.4-2.2c1.8-17.7,3.7-35.5,5.5-53.2c0.4-4.1,2.3-7.4,5.1-11
		c0.4,1.3,0.7,2.1,0.9,2.9c2.6,9.4,5.1,18.9,7.6,28.3c1.1,4.2,2.1,8.4,3.4,12.5c1.4,4.5,5.3,7.1,9.8,7.1c4.3,0,8.2-2.6,9.7-6.6
		c1-2.7,0.7-5.4-0.1-8.1c-2-7.5-4-15-6-22.5c-3.6-13.3-7.1-26.7-10.6-39.8c6.9-13.8,36.6-64.4,39.2-66.6c0,58.6,0,117,0,175.2
		c-9.3,9.3-18.5,18.5-27.9,27.8c-1.2,0-2.8,0-4.4,0c-19.6,0-39.2,0-58.8,0c-1.3,0-2.6-0.1-3.9,0.1c-4.7,0.6-8.6,4.4-9.2,9
		c-0.6,4.7,2.1,9.3,6.6,10.9c1.7,0.6,3.7,0.7,5.5,0.7c13,0.1,25.9,0,38.9,0c1.2,0,2.5,0.1,4.3,0.2c-2.8,3.5-5.3,6.2-9.1,7.7
		c-16.3,6.1-32.5,12.5-48.7,18.7c-1.2,0.5-2.3,1-3.6,1.5c-10.1,26.2-20.1,52.3-30.5,79.2c27.2-10.5,53.3-20.5,79.3-30.5
		c0.6-1.5,1.1-2.7,1.5-3.9c6.2-16.1,12.5-32.2,18.6-48.4c1.4-3.8,4.2-6.3,7.9-9.3c0,2.6,0,4.4,0,6.2c0,13-0.1,25.9,0,38.9
		c0.1,6,4.7,10.4,10.4,10.4c5.6,0,10-4.4,10.3-10.1c0.1-1.1,0-2.3,0-3.5c0-16.3,0-32.6,0-48.8c0-4.7,0-9.5,0-15.1
		c1.8-1.6,3.9-3.5,6.1-5.4c2.1-1.8,3.6-4.3,6.5-5.6c0,30.4,0,60.3,0,91.1c-0.8,0.7-2.2,1.5-3.3,2.7c-13.9,13.8-27.7,27.7-41.6,41.5
		c-1.2,1.2-2.5,2.5-3.4,3.9c-2.7,4.2-2,9.6,1.5,13c3.5,3.3,8.7,3.9,12.7,1.2c1.4-0.9,2.7-2.2,3.9-3.4c9-8.9,17.9-17.9,26.9-26.9
		c0.8-0.8,1.8-1.5,3.1-2.6c0.5,5,0.1,9.1-1.8,13.2c-6.8,14.8-13.3,29.7-19.9,44.5c-0.8,1.7-1.5,3.4-2.2,5.2
		c11.4,25.6,22.7,51.2,34.5,77.7c11.8-26.6,23.2-52.2,34.5-77.7c-0.7-1.7-1.4-3.1-2-4.6c-6.9-15.5-13.7-31.1-20.7-46.5
		c-1.7-3.7-1.3-7.4-1.1-11.9c1.5,1.4,2.6,2.3,3.6,3.3c8.8,8.8,17.5,17.5,26.3,26.3c1.1,1.1,2.2,2.3,3.5,3.2c4.3,3,9.8,2.4,13.4-1.3
		c3.6-3.7,3.9-9.2,0.8-13.4c-0.9-1.3-2.1-2.4-3.2-3.5c-13.7-13.8-27.5-27.5-41.3-41.2c-1.1-1.1-2.5-1.9-3-2.3c0-31.3,0-61.3,0-91
		c4,3.9,8,7.8,12.3,12c0,1.2,0,2.9,0,4.6c0,19.2,0,38.3,0,57.5c0,1.7,0,3.5,0.2,5.2c0.7,4.8,4.7,8.4,9.4,8.7c5,0.3,9.5-2.7,10.7-7.5
		c0.5-1.8,0.5-3.7,0.5-5.6c0-12.5,0-25.1,0-37.6c0-1.3,0.2-2.7,0.3-4.6c3.7,3.2,6.4,6.1,7.9,10.3c5.8,15.8,12,31.5,18.1,47.2
		c0.5,1.3,1.1,2.6,1.7,4c26.2,10,52.2,20.2,79.2,30.5c-10.5-27.2-20.5-53.4-30.5-79.4c-17.7-6.8-34.9-13.6-52.3-20.1
		c-3.8-1.5-6.2-4.2-9.2-7.8c2.1,0,3.5,0,4.9,0c13.4,0,26.8,0.1,40.2,0c5.9,0,10.2-4.3,10.4-9.9c0.2-5.7-4.1-10.4-10.1-10.8
		c-1.1-0.1-2.3,0-3.5,0c-19.6,0-39.2,0-58.8,0c-1.6,0-3.1,0-3.7,0c-9.8-9.7-18.8-18.7-28-27.8c0-58.2,0-116.5,0-174.8
		c0-0.1,0.1-0.2,0.2-0.3c0.1-0.1,0.3,0,0.6-0.1c12.8,22.1,25.5,44.3,38.3,66.4c-3.2,12-6.3,23.6-9.5,35.3
		c-2.6,9.6-5.2,19.2-7.6,28.8c-1.8,7.2,3.5,13.6,10.7,13.1c4.6-0.3,8.1-3.2,9.4-8.1c2.1-7.6,4.1-15.3,6.2-22.9
		c1.7-6.5,3.5-13,5.4-20.1c2.2,3.2,4.4,5.7,4.8,9.1c1.2,10.9,2.3,21.8,3.5,32.6c0.9,8.3,1.8,16.6,2.7,24.9
		c22.7,16.5,45.2,32.9,67.7,49.3c0.3-0.2,0.6-0.4,0.9-0.6c-2.9-27.8-5.9-55.7-8.8-83.2c-1.6-1.2-2.7-2-3.9-2.9
		c-13.7-10-27.4-20.1-41.2-30c-3.4-2.5-5.2-5.8-7-10c6.7,1.8,12.8,3.4,18.9,5c8.5,2.2,16.9,4.6,25.5,6.6c5.2,1.2,10.4-2.2,11.8-7.1
		c1.5-5.2-1.2-10.7-6.2-12.7c-1.1-0.4-2.2-0.7-3.3-1c-13.2-3.5-26.4-7-39.6-10.6c-7.5-2-15-4.1-22.3-6
		c-12.9-22.4-25.7-44.5-38.4-66.6c0.2-0.2,0.5-0.4,0.7-0.6c50.7,29.3,101.3,58.5,152,87.7c3.4,12.6,6.7,24.9,10,37.4
		c-0.8,1.4-1.5,2.8-2.3,4.1c-9.7,16.8-19.4,33.7-29.1,50.5c-0.8,1.4-1.6,2.7-2.2,4.2c-2,4.7-0.3,10.1,4.1,12.8
		c4.4,2.7,9.9,1.9,13.3-2.1c1-1.2,1.8-2.6,2.6-4c6.3-11,12.7-21.9,19-32.9c0.6-1,1.3-2,2.3-3.5c1.4,4.2,2.7,7.8,1.9,11.8
		c-1.5,8.4-2.7,16.8-4,25.2c-1.6,9.9-3.1,19.9-4.7,30c17.6,21.8,35.2,43.6,53.5,66.2c4.5-28.7,8.9-56.4,13.2-84
		c-1.1-1.4-1.9-2.5-2.8-3.6c-10.9-13.4-21.7-26.9-32.6-40.3c-2.5-3.1-3.2-6.6-3.7-10.8c1.7,0.9,3,1.6,4.2,2.3
		c10.7,6.2,21.4,12.4,32.2,18.6c1.2,0.7,2.5,1.5,3.8,2c4.9,2,10.4,0.1,13-4.5c2.5-4.5,1.5-9.9-2.7-13.2c-1.3-1.1-2.9-1.9-4.4-2.8
		c-16.8-9.7-33.7-19.4-50.5-29.2c-1.4-0.8-2.7-1.6-3.9-2.4c-0.8-2.9-1.5-5.5-2.2-8.2c-0.7-2.6-1.3-5.1-1.9-7.7
		c0.3-0.2,0.5-0.3,0.8-0.5c26,15,52,30,77.8,44.9c4,14.8,7.8,29.1,11.6,43.4c1.8,6.8,3.5,13.7,5.5,20.4c1.9,6.5,8,9.6,13.8,7.4
		c5.3-2,7.7-7.2,6.1-13.5c-3.4-12.8-6.8-25.6-10.2-38.4c-0.3-1.2-0.5-2.4-0.8-4c4.5,2.1,7.9,4.3,10.5,8.1
		c9.7,13.6,19.6,27.1,29.4,40.6c0.9,1.3,1.9,2.5,2.8,3.6c28,3,55.7,5.9,84.4,8.9c-17.1-23.5-33.6-46.2-50-68.8
		c-9.1-1-18-1.9-26.9-2.9c-10-1.1-20-2.2-30.1-3.2c-3.7-0.4-6.4-2.4-9.5-5c9.6-2.6,18.5-5,27.4-7.3c5.4-1.5,10.9-2.8,16.2-4.4
		c5-1.5,7.8-5.9,7.4-10.9c-0.4-4.8-4.3-8.9-9.3-9.3c-1.9-0.2-4,0.3-5.9,0.8c-13.1,3.5-26.1,7-39.2,10.5c-7.6,2-15.3,4-22.5,6
		c-9.8-4.6-75.7-43.2-78.3-45.8c5.5-1.5,10.9-2.9,16.1-4.3c1.7,0.9,3.1,1.6,4.4,2.4c16.8,9.7,33.6,19.4,50.5,29.1
		c1.4,0.8,2.7,1.6,4.2,2.2c4.8,1.9,10.1-0.1,12.7-4.5c2.6-4.5,1.6-9.9-2.5-13.2c-1.2-1-2.6-1.8-4-2.5c-11.1-6.4-22.2-12.8-33.3-19.2
		c-0.9-0.5-1.6-1.2-2.5-1.9c0.1-0.3,0.1-0.6,0.2-0.9c3.4-0.4,6.9-1.6,10.1-1.2c11.7,1.5,23.3,3.6,35,5.5c7.1,1.1,14.2,2.2,21.4,3.2
		c21.3-17.2,42.5-34.3,63.6-51.4c0.4-0.4,0.8-0.8,1.2-1.2c0.1-0.1,0.1-0.3,0.1-0.4c0-0.1-0.1-0.3-0.3-0.6
		c-27.4-4.3-54.9-8.6-82.4-13c-1.3,1-2.4,1.9-3.6,2.8c-13.3,10.8-26.7,21.5-39.9,32.4c-3.3,2.7-7,3.4-11.3,4.2
		c0.9-1.7,1.6-3,2.3-4.2c6.2-10.7,12.4-21.4,18.6-32.2c0.7-1.2,1.5-2.5,2-3.8c2-4.8,0.3-10.1-4.1-12.8c-4.3-2.7-10-1.9-13.3,2
		c-1.1,1.3-2,2.8-2.8,4.3c-9.7,16.8-19.4,33.7-29.1,50.5c-0.8,1.4-1.6,2.7-2.6,4.2c-12.4,3.3-24.9,6.7-37.4,10
		c-50.8-29.3-101.4-58.6-152-87.8c0.1-0.3,0.2-0.5,0.3-0.8c25.6,0,51.1,0,77.6,0c0.6,0.7,1.5,2,2.6,3.2c13.6,13.7,27.3,27.3,40.9,41
		c1,1,2,2.1,3.1,3c4.6,3.8,10.4,3.6,14.4-0.5c3.9-4,4-9.6,0.3-14.1c-0.8-1-1.8-1.9-2.7-2.8c-8.9-8.9-17.7-17.7-26.6-26.6
		c-0.9-0.9-1.6-1.8-2.7-3.1c4.9-0.5,9-0.2,13.1,1.7c15,6.9,30.2,13.5,45.3,20.3c1.6,0.7,3.1,1.3,4.6,1.9
		c25.7-11.4,51.1-22.7,77.6-34.5c-26.5-11.8-52.1-23.2-77.7-34.5c-1.7,0.7-3.3,1.4-4.8,2.1c-15.5,6.9-31.1,13.7-46.5,20.7
		c-3.7,1.7-7.3,1.5-11.7,0.9c1.4-1.5,2.3-2.5,3.3-3.5c8.8-8.8,17.5-17.5,26.3-26.3c1.1-1.1,2.3-2.2,3.2-3.5c2.9-4.2,2.5-9.4-1-13.1
		c-3.6-3.7-9.1-4.3-13.4-1.3c-1.4,1-2.6,2.3-3.8,3.5c-13.8,13.7-27.5,27.5-41.2,41.3c-1.1,1.1-1.9,2.5-2.4,3.1
		c-14.7,1-75.1,0.6-78.3-0.6c50.8-29.3,101.3-58.5,152.1-87.8c12.5,3.3,25,6.7,37.4,10c0.9,1.6,1.8,2.9,2.6,4.3
		c9.7,16.8,19.4,33.7,29.2,50.5c0.9,1.5,1.7,3,2.8,4.3c3.4,4,9,4.7,13.3,2c4.3-2.7,6.1-8.1,4-12.8c-0.6-1.3-1.3-2.6-2-3.8
		c-6.3-11-12.7-21.9-19-32.9c-0.6-1-1-2.1-1.7-3.5c5.2,0.8,9.2,2.4,12.9,5.5c12.8,10.7,25.9,21.1,38.9,31.6c1,0.8,2,1.5,3,2.2
		c27.7-4.4,55.2-8.7,83.8-13.2c-22.6-18.3-44.3-35.8-65.9-53.3c-1.4,0.1-2.5,0.1-3.6,0.3c-16.9,2.6-33.9,5.2-50.7,8.1
		c-4.5,0.8-8.3-0.2-13-1.8c1.7-1.1,2.9-1.9,4.1-2.6c10.7-6.2,21.4-12.4,32.2-18.6c1.2-0.7,2.5-1.4,3.7-2.3c4.4-3.4,5.5-8.8,2.8-13.5
		c-2.7-4.6-8.1-6.4-13.1-4.3c-1.4,0.6-2.8,1.4-4.2,2.2c-16.7,9.6-33.4,19.3-50.1,28.9c-1.4,0.8-2.8,1.5-4.4,2.4
		c-5.3-1.4-10.7-2.9-16.1-4.4c0-0.3,0-0.6,0-0.9c26-15,52-30,77.6-44.8c1,0.1,1.5,0.2,1.9,0.3c10.3,2.7,20.6,5.5,30.9,8.2
		c10.7,2.8,21.4,5.8,32.1,8.5c5.5,1.4,10.9-2,12.4-7.3c1.4-5.1-1.5-10.6-6.7-12.5c-1.1-0.4-2.2-0.7-3.3-1
		c-12.1-3.2-24.2-6.4-36.3-9.7c-1.3-0.4-2.6-0.8-4.1-1.2c3.4-3.2,6-4.6,9.5-5c10.3-1.1,20.6-2.2,30.9-3.3c8.6-0.9,17.1-1.9,25.4-2.8
		c9.4-11.4,48.1-65.3,49.2-68.7c-27.8,2.9-55.6,5.9-83.5,8.8c-1,1.3-1.9,2.6-2.8,3.9c-10.1,13.9-20.2,27.7-30.2,41.6
		c-2.4,3.3-5.6,4.9-9.6,6.6c0.4-1.7,0.5-2.8,0.8-3.9c3.4-12.7,6.8-25.3,10.1-38c0.4-1.4,0.7-2.8,0.7-4.2c0.1-4.7-2.9-8.7-7.4-10
		c-4.5-1.3-9.2,0.4-11.6,4.4c-0.8,1.3-1.3,2.9-1.7,4.4c-2.1,7.6-4.1,15.3-6.2,22.9c-3.5,13.2-7.1,26.4-10.7,39.7
		c-26,15-52.1,30.1-79,45.6c1.7-6.4,3.1-11.7,4.5-17.2c1.3-0.8,2.5-1.5,3.7-2.3c16.9-9.8,33.9-19.6,50.8-29.4c1.4-0.8,2.8-1.6,4-2.5
		c4.2-3.2,5.3-8.6,2.9-13.1c-2.5-4.7-8-6.7-13-4.7c-1.3,0.5-2.6,1.3-3.8,2c-11,6.3-21.9,12.7-32.9,19c-1,0.6-2.1,1-3.7,1.8
		c0.8-4.6,1.8-8.3,4.5-11.6c10.9-13.2,21.6-26.6,32.4-39.9c0.8-1,1.5-2.1,2.4-3.2c-4.4-27.6-8.6-55.2-13.3-83.8
		c-18.3,22.7-35.9,44.5-53.4,66.1c3,19.1,5.8,37.7,8.8,56.3c0.6,3.7-0.9,6.9-2.1,10.9c-1.2-1.9-2-3.1-2.7-4.4
		c-6.2-10.7-12.4-21.4-18.6-32.2c-0.8-1.4-1.6-2.8-2.6-4c-3.3-4-8.9-4.9-13.3-2.2c-4.4,2.6-6.2,8-4.2,12.8c0.6,1.5,1.4,2.8,2.2,4.2
		c9.8,17,19.6,33.9,29.4,50.9c0.8,1.4,1.5,2.7,2.1,3.9c-3.4,12.7-6.7,25-10,37.1c-16.8,10.9-149,86.6-152.8,87.5
		c12.9-22.4,25.7-44.6,38.5-66.6c1.3-0.4,2.4-0.8,3.5-1.1c15.1-4.1,30.3-8.1,45.4-12.2c5.1-1.4,10.3-2.7,15.4-4.2
		c5.7-1.7,8.5-6.9,7.3-12.5c-1.2-5.3-6.4-8.6-12.3-7.6c-1,0.2-2,0.5-2.9,0.7c-12.6,3.4-25.3,6.7-37.9,10.1c-0.9,0.2-1.8,0.2-3,0.4
		c2-4.6,4.5-7.9,8.4-10.6c13.4-9.5,26.6-19.3,39.9-28.9c1.3-0.9,2.5-1.9,3.5-2.6c2-9.3,9.1-80.7,8.2-84
		c-22.6,16.5-45.2,32.9-67.7,49.2c-0.3,2.9-0.7,5.4-1,8c-1.7,16.5-3.5,32.9-5.2,49.4c-0.4,3.5-2.7,6-4.8,9.3
		c-0.5-1.7-0.9-2.7-1.1-3.6c-3.2-12.1-6.4-24.2-9.7-36.3c-0.5-1.8-0.9-3.7-1.7-5.3c-2.3-4.9-7.7-7.2-12.7-5.5
		c-4.9,1.6-7.9,6.9-6.9,12.1c0.2,1,0.5,2,0.7,2.9c3.2,12.1,6.5,24.2,9.7,36.3c2.3,8.5,4.5,16.9,6.7,25.1
		c-4.4,9.7-36.8,64.7-39.1,66.6c0-58.5,0-117,0-175.1c9.3-9.3,18.3-18.4,27.7-27.7c1.2,0,2.8,0,4.3,0c19.6,0,39.2,0,58.8,0
		c1.3,0,2.6,0.1,3.9-0.1c6-0.6,10-5.9,9.3-11.8c-0.5-4.6-5.3-9.1-11-9c-13.4,0.2-26.8,0.1-40.2,0.1c-1.2,0-2.4-0.2-4.1-0.3
		c3.2-3.8,6.2-6.5,10.5-8.1c15.9-5.9,31.7-12.1,47.5-18.2c1.2-0.5,2.3-1,3.4-1.5c10.1-26.2,20.1-52.2,30.4-79.2
		c-27.2,10.4-53.3,20.5-79.3,30.5c-0.6,1.5-1.2,2.9-1.7,4.2c-6.1,15.8-12.3,31.7-18.2,47.6c-1.5,4-4.2,6.6-7.8,9.6
		c-0.1-2.1-0.2-3.4-0.2-4.8c0-12.5,0-25.1,0-37.6c0-1.9-0.1-3.8-0.6-5.5c-1.3-4.6-5.7-7.6-10.5-7.4c-4.7,0.3-8.8,3.8-9.5,8.5
		c-0.3,1.7-0.3,3.4-0.3,5.2c0,19.4,0,38.9,0,58.3c0,1.7,0,3.4,0,5c-2.2,2.2-4.2,4.1-6.2,6c-1.9,1.9-3.8,3.7-6.3,6.2
		c0-31.1,0-61.1,0-91.9c0.8-0.7,2.1-1.6,3.3-2.7c13.8-13.7,27.5-27.5,41.3-41.2c1.1-1.1,2.3-2.2,3.2-3.5c3-4.1,2.6-9.4-0.8-13.1
		c-3.5-3.8-9-4.5-13.4-1.5c-1.3,0.9-2.4,2-3.5,3.1c-9,8.9-17.9,17.9-26.9,26.9c-0.9,0.9-1.8,1.6-3.1,2.7c-0.5-4.9-0.2-9,1.7-13.1
		c6.4-14,12.6-28.1,18.8-42.2c1.1-2.5,2.2-5,3.3-7.6c-11.4-25.7-22.8-51.2-34.5-77.7c-11.8,26.5-23.2,52.1-34.5,77.7
		c0.8,1.8,1.4,3.4,2.1,4.9c6.9,15.5,13.7,31.1,20.7,46.5c1.7,3.7,1.6,7.3,0.9,11.6C916,160,915,159,914,158
		c-8.8-8.8-17.5-17.5-26.3-26.3c-1.1-1.1-2.2-2.3-3.5-3.2c-4.2-2.9-9.5-2.4-13.1,1.1c-3.5,3.5-4.2,8.9-1.4,13c1,1.4,2.2,2.7,3.4,3.9
		c13.7,13.8,27.5,27.5,41.3,41.2c1.2,1.2,2.8,2.1,4.2,3.1c0.2,13.4-0.3,87.6-1.2,90.3c-3.8-3.8-7.8-7.7-12.1-12c0-1,0-2.6,0-4.2
		c0-19.6,0-39.2,0-58.8c0-1.3,0.1-2.6-0.1-3.9c-0.6-4.9-4.7-8.8-9.5-9.1c-4.8-0.4-9.5,2.8-10.8,7.6c-0.4,1.5-0.4,3.1-0.4,4.7
		c0,13,0,25.9,0,38.9c0,1.2-0.2,2.4-0.3,4.2c-3.5-3-6.4-5.6-7.8-9.6c-2-5.9-4.4-11.6-6.6-17.3c-4.4-11.4-8.8-22.8-13.1-34
		c-8.9-4.5-76-29.8-79.1-29.9c10.1,26.2,20.2,52.4,30.1,78.3c1.5,0.6,2.6,1,3.6,1.4c16.2,6.3,32.4,12.6,48.7,18.7
		c3.8,1.4,6.2,4.2,9.1,7.8c-2.6,0-4.4,0-6.2,0c-13,0-25.9-0.1-38.9,0c-5.8,0.1-10.2,4.5-10.3,10.1c-0.1,5.7,4.3,10.3,10.2,10.7
		c1.1,0.1,2.3,0,3.5,0c19.3,0,38.6,0,57.9,0c1.7,0,3.4,0,4.3,0c9.7,9.7,18.8,18.8,28.1,28.1c0,58.1,0,116.5,0,174.8
		c-0.3,0.1-0.5,0.2-0.8,0.3c-12.8-22.2-25.7-44.4-38.4-66.5c0.2-0.7,0.2-1.2,0.3-1.6c5.4-20.2,10.8-40.3,16.1-60.5
		c0.4-1.4,0.8-2.8,0.9-4.2c0.4-5.2-3.1-9.8-7.9-10.9c-5.1-1.1-10,1.5-12,6.3c-0.4,1.1-0.7,2.2-1,3.3c-3.2,12.1-6.5,24.2-9.7,36.3
		c-0.4,1.5-0.9,2.9-1.6,5c-2.5-3.7-4.6-6.7-5-10.8c-1.5-14.9-3-29.8-4.6-44.7c-0.4-3.7-0.9-7.4-1.3-10.8
		c-12.2-10.1-65.4-48.2-68.6-49.1c3,27.8,5.9,55.6,8.8,83.4c1.3,1,2.6,2,3.9,2.9c13.9,10.1,27.7,20.2,41.6,30.2
		c3.3,2.4,4.9,5.6,6.5,9.6c-1.2-0.2-1.9-0.3-2.6-0.5c-8.8-2.3-17.5-4.7-26.2-7.1c-5.1-1.4-10.3-2.9-15.5-3.9
		c-5.6-1.1-10.5,2.3-11.8,7.6c-1.3,5.1,1.6,10.4,6.9,12.3c0.9,0.3,1.9,0.6,2.9,0.8c19.5,5.2,38.9,10.4,58.3,15.6
		c1.2,0.3,2.4,0.8,3.6,1.2c12.8,22.2,25.6,44.3,38.3,66.4c-0.2,0.2-0.5,0.4-0.7,0.6c-50.7-29.3-101.4-58.5-152.1-87.8
		c-3.4-12.6-6.7-25.1-10-37.4c1-1.7,1.7-3.1,2.5-4.5c9.7-16.8,19.4-33.7,29.1-50.5c0.8-1.4,1.6-2.7,2.2-4.2
		c1.8-4.8-0.2-10.2-4.6-12.7c-4.3-2.4-9.7-1.5-12.9,2.3c-1,1.2-1.8,2.6-2.6,4c-6.4,11-12.7,21.9-19,32.9c-0.6,1.1-1.4,2-2.5,3.7
		c-0.9-4.3-2.5-7.5-1.9-11.2c2.2-13.5,4.4-27,6.5-40.5c0.8-5.2,1.6-10.5,2.3-15.3c-11.3-15.5-50.3-63-53.6-65.2
		c-4.4,27.8-8.7,55.5-13.1,83c11.7,14.5,23.1,28.8,34.8,42.9c2.8,3.4,3.7,7.3,4.7,11.9c-1.8-1-3-1.6-4.2-2.3
		c-10.7-6.2-21.4-12.4-32.2-18.5c-1.4-0.8-2.7-1.7-4.2-2.2c-4.8-1.9-10.1,0-12.7,4.4c-2.5,4.3-1.7,9.7,2.1,13c1.3,1.1,2.8,2,4.3,2.9
		c16.7,9.7,33.4,19.3,50.1,28.9c1.6,0.9,3.2,1.9,4.8,2.9c1.5,5.5,2.9,10.9,4.6,17.2c-26.9-15.6-53.1-30.6-78.9-45.5
		c-0.4-1.2-0.7-1.8-0.8-2.5c-5.2-19.6-10.5-39.2-15.7-58.8c-0.4-1.4-0.7-2.8-1.2-4.1c-1.7-4.1-6.1-6.9-10.3-6.6
		c-4.4,0.3-8,3.4-9.4,7.7c-0.9,2.7-0.1,5.1,0.5,7.6c3.4,12.8,6.8,25.6,10.2,38.4c0.2,0.8,0.3,1.7,0.4,2.9c-4.7-2.1-8.2-4.8-11-8.7
		c-9.4-13.3-19.1-26.4-28.6-39.5c-0.9-1.3-1.9-2.5-2.9-3.9c-27.8-2.9-55.6-5.9-84.5-8.9c17.1,23.5,33.6,46.2,50,68.7
		c3.3,0.4,6.3,0.8,9.3,1.1c15.7,1.7,31.5,3.4,47.2,5c3.8,0.4,6.5,2.5,9.9,4.9c-1.1,0.4-1.6,0.6-2,0.7c-7.4,2-14.7,4-22.1,6
		c-6.5,1.8-13.1,3.4-19.6,5.3c-4.7,1.4-7.7,5.9-7.4,10.5c0.3,4.9,4,9.1,9,9.6c2.1,0.2,4.3-0.2,6.3-0.8c17.5-4.6,35-9.4,52.5-14.1
		c3.2-0.9,6.4-1.6,9.6-2.4c25.5,14.7,50.8,29.3,76.1,43.9c0.5,0.3,0.9,0.7,1.4,1c0.1,0.1,0.2,0.2,0.2,0.4c0,0.1,0,0.3-0.1,0.7
		c-5.3,1.4-10.6,2.8-15.9,4.2c-1.7-0.9-3.1-1.7-4.4-2.5c-16.7-9.6-33.4-19.3-50.1-28.9c-1.4-0.8-2.7-1.6-4.2-2.2
		c-7.2-3-14.8,2.4-14.3,10.2c0.3,4.3,2.8,7,6.4,9.1c11.2,6.4,22.4,12.9,33.7,19.4c1.2,0.7,2.3,1.5,4.2,2.7
		c-4.2,0.8-7.4,2.5-11.1,1.9c-13.3-2.2-26.7-4.3-40.1-6.4c-5.4-0.9-10.8-1.7-15.8-2.4c-12.2,8.5-63.7,50.8-65.2,53.6
		c27.6,4.3,55.2,8.7,82.8,13c1.5-1.1,2.8-2.2,4.1-3.3c13-10.5,26-20.9,38.9-31.6c3.4-2.8,7.2-3.7,11.7-4.4c-0.9,1.7-1.6,3-2.3,4.2
		c-6.2,10.7-12.4,21.4-18.6,32.2c-0.7,1.2-1.5,2.5-2,3.8c-2.1,4.9-0.2,10.5,4.4,13.1c4.4,2.5,10,1.5,13.2-2.6c1-1.2,1.8-2.6,2.5-4
		c7.9-13.6,15.7-27.2,23.5-40.8c2.7-4.6,5.3-9.2,8.1-14c12.5-3.3,25-6.7,37.5-10c50.8,29.3,101.5,58.6,152.1,87.8
		c-0.1,0.2-0.2,0.4-0.3,0.7c-25.7,0-51.4,0-77.7,0c-0.8-0.9-1.8-2.2-2.9-3.3c-13.7-13.8-27.5-27.5-41.2-41.3
		c-1.1-1.1-2.2-2.3-3.5-3.2c-3.8-2.8-8.3-2.7-12.1-0.1c-3.5,2.5-5.3,6.9-3.9,11c0.8,2.2,2.3,4.3,3.9,6c9,9.2,18.1,18.2,27.1,27.2
		c1,1,1.9,2,3.2,3.5c-4.7,0.2-8.5,0.5-12.3-1.4c-7.5-3.6-15.2-6.8-22.8-10.2c-9.3-4.1-18.7-8.3-27.8-12.3
		c-20.7,8.3-74.1,32.5-76.8,34.9c25.7,11.4,51.3,22.8,76.7,34.1c17-7.6,33.8-14.9,50.4-22.5c4-1.8,7.9-1.8,12.7-1.5
		c-1.4,1.5-2.3,2.6-3.3,3.5c-8.8,8.8-17.5,17.5-26.3,26.3c-1,1-2.1,2-2.9,3.2c-3.3,4.3-2.9,10.1,0.8,13.8c3.8,3.8,9.4,4.1,13.8,0.7
		c1.1-0.9,2.1-1.9,3.1-3c13.9-13.8,27.7-27.7,41.6-41.5c1.1-1.1,2.3-2.2,3.1-3c26,0,51.5,0,77.1,0c0.1,0.2,0.2,0.4,0.3,0.7
		c-50.8,29.3-101.5,58.6-152.2,87.9c-12.8-3.5-25.3-6.8-37.5-10.1c-10.7-18.5-21.1-36.6-31.6-54.7c-0.8-1.4-1.6-2.8-2.5-4
		c-3.2-4.1-8.8-5.1-13.2-2.6c-4.6,2.6-6.5,8.1-4.4,13.1c0.6,1.3,1.3,2.6,2,3.8c6.3,10.9,12.5,21.7,18.8,32.5c0.7,1.1,1.2,2.4,2,4
		c-5.2-1-9.2-2.5-13-5.6c-12.5-10.4-25.2-20.6-37.9-30.8c-1.3-1.1-2.7-2.1-3.9-3c-27.8,4.4-55.3,8.6-82.7,13.1
		c-0.1,0.3-0.1,0.6-0.2,0.9c21.7,17.5,43.4,35.1,64.9,52.5c1.6-0.2,2.9-0.2,4.2-0.4c16.9-2.7,33.9-5.2,50.7-8.1
		c4.3-0.7,8,0.4,12.4,1.9c-1.8,1.1-3,1.9-4.2,2.6c-10.7,6.2-21.5,12.4-32.2,18.6c-1.4,0.8-2.8,1.6-4,2.6c-4,3.3-4.9,9-2.3,13.3
		c2.6,4.4,8,6.2,12.8,4.2c1.5-0.6,2.8-1.4,4.2-2.2c16.7-9.6,33.4-19.3,50.1-28.9c1.5-0.9,3-1.7,4.7-2.6c5.3,1.5,10.7,2.9,16,4.3
		c0,0.3,0.1,0.6,0.1,0.9c-26,15-52,30-78,45c-11-2.9-21.8-5.8-32.7-8.7c-10.7-2.9-21.4-5.8-32.1-8.5c-5.4-1.3-10.6,2.1-12.1,7.2
		c-1.5,5.2,1.2,10.6,6.4,12.6c1.2,0.5,2.5,0.7,3.7,1.1c12.1,3.2,24.2,6.4,36.3,9.7c1.3,0.3,2.5,0.8,4.2,1.4c-3.9,2.7-7.3,4.7-11.5,5
		c-12.2,1.1-24.3,2.5-36.5,3.8c-6.1,0.6-12.3,1.3-18.5,2c-16.6,22.8-33.1,45.4-50,68.8c28.9-3.1,56.8-6,84.5-9c1.1-1.5,2.1-2.8,3-4
		c10-13.7,20.1-27.4,30-41.2c2.4-3.4,5.9-4.9,9.8-7c-0.3,1.3-0.3,1.9-0.5,2.4c-2.6,9.7-5.2,19.5-7.8,29.2c-1.2,4.3-2.5,8.6-3.4,13
		c-1.6,7.7,6.1,14.2,13.5,11.6c3.9-1.4,6-4.2,7-8.1c3.9-14.7,7.9-29.5,11.9-44.2c1.7-6.4,3.4-12.7,5.1-19
		c26.2-15.1,52.2-30.1,79-45.6c-1.8,6.6-3.3,12.1-4.7,17.4c-18.4,10.6-36.3,21-54.2,31.3c-1.6,0.9-3.3,1.8-4.7,3
		c-3,2.5-4.2,5.8-3.5,9.7c0.8,4,3.2,6.6,7,8c3.6,1.3,6.8,0.1,9.8-1.7c11.2-6.5,22.4-13,33.7-19.4c1.2-0.7,2.4-1.2,3.9-2
		c-0.7,5.2-2.4,9.3-5.5,12.9c-6.8,8-13.3,16.3-19.9,24.5c-4.6,5.7-9.2,11.4-13.9,17.2c4.4,27.7,8.7,55.3,13.2,84
		c18.3-22.6,35.8-44.2,53.3-65.9c-0.1-1.5-0.1-2.8-0.3-4c-2.7-16.9-5.2-33.9-8.1-50.7c-0.7-4.3,0.3-8,1.9-12.6
		c1.1,1.8,1.9,2.9,2.6,4.1c6.2,10.7,12.4,21.4,18.6,32.2c0.7,1.2,1.4,2.5,2.3,3.6c3.3,4.3,8.9,5.4,13.5,2.7
		c4.5-2.7,6.3-8.2,4.1-13.1c-0.6-1.4-1.4-2.8-2.2-4.2c-9.6-16.7-19.3-33.4-28.9-50.1c-0.8-1.4-1.5-2.8-2.4-4.3
		c3.3-12.5,6.7-25,10-37.4c50.9-29.4,101.5-58.6,152.1-87.8c0.2,0.2,0.4,0.5,0.6,0.7c-12.8,22.1-25.6,44.3-38.4,66.4
		c-1.2,0.4-2.2,0.8-3.3,1.1c-14,3.8-28.1,7.5-42.1,11.3c-6.4,1.7-12.8,3.3-19.2,5.2c-5.1,1.5-8,6.4-7.4,11.3
		c0.7,4.8,4.8,8.7,9.7,8.9c1.8,0.1,3.7-0.4,5.5-0.9c12.1-3.2,24.2-6.5,36.3-9.7c1.5-0.4,3-0.7,5.1-1.2c-1.8,4-3.4,7.3-6.7,9.7
		c-13.8,9.9-27.5,20-41.2,30c-1.4,1-2.8,2.1-4.1,3.1c-2.9,27.9-6,55.7-8.9,84.5C807.6,761.4,830.2,745,852.8,728.6z"/>
	<path d="M852.8,728.6c-22.6,16.5-45.2,32.9-68.6,49.9c2.9-28.8,6-56.6,8.9-84.5c1.4-1,2.7-2.1,4.1-3.1c13.7-10,27.4-20.1,41.2-30
		c3.3-2.4,4.9-5.7,6.7-9.7c-2.1,0.5-3.6,0.8-5.1,1.2c-12.1,3.2-24.2,6.5-36.3,9.7c-1.8,0.5-3.7,0.9-5.5,0.9c-4.9-0.2-9-4.1-9.7-8.9
		c-0.7-5,2.3-9.8,7.4-11.3c6.3-1.9,12.8-3.5,19.2-5.2c14-3.8,28.1-7.5,42.1-11.3c1.1-0.3,2.2-0.7,3.3-1.1
		c12.8-22.2,25.6-44.3,38.4-66.4c-0.2-0.2-0.4-0.5-0.6-0.7c-50.6,29.2-101.3,58.5-152.1,87.8c-3.3,12.4-6.7,24.9-10,37.4
		c0.9,1.6,1.6,2.9,2.4,4.3c9.6,16.7,19.3,33.4,28.9,50.1c0.8,1.4,1.6,2.7,2.2,4.2c2.2,5,0.4,10.4-4.1,13.1
		c-4.6,2.7-10.2,1.7-13.5-2.7c-0.9-1.1-1.6-2.4-2.3-3.6c-6.2-10.7-12.4-21.5-18.6-32.2c-0.7-1.2-1.5-2.4-2.6-4.1
		c-1.6,4.5-2.6,8.2-1.9,12.6c2.9,16.9,5.4,33.8,8.1,50.7c0.2,1.3,0.2,2.6,0.3,4c-17.5,21.6-35,43.3-53.3,65.9
		c-4.5-28.7-8.9-56.3-13.2-84c4.7-5.8,9.3-11.5,13.9-17.2c6.6-8.2,13.1-16.5,19.9-24.5c3.1-3.7,4.8-7.7,5.5-12.9
		c-1.5,0.8-2.7,1.3-3.9,2c-11.2,6.5-22.4,12.9-33.7,19.4c-3.1,1.8-6.2,3-9.8,1.7c-3.8-1.4-6.3-4-7-8c-0.7-3.9,0.5-7.2,3.5-9.7
		c1.4-1.2,3.1-2.1,4.7-3c17.9-10.4,35.9-20.7,54.2-31.3c1.4-5.2,2.9-10.7,4.7-17.4c-26.9,15.5-52.8,30.5-79,45.6
		c-1.7,6.2-3.4,12.6-5.1,19c-4,14.7-8,29.4-11.9,44.2c-1,3.9-3.1,6.8-7,8.1c-7.4,2.6-15.1-3.9-13.5-11.6c0.9-4.4,2.2-8.6,3.4-13
		c2.6-9.7,5.2-19.5,7.8-29.2c0.1-0.5,0.2-1.1,0.5-2.4c-3.9,2.2-7.4,3.6-9.8,7c-9.9,13.8-19.9,27.5-30,41.2c-0.9,1.3-1.9,2.5-3,4
		c-27.8,2.9-55.6,5.9-84.5,9c17-23.3,33.5-46,50-68.8c6.2-0.7,12.3-1.4,18.5-2c12.2-1.3,24.3-2.6,36.5-3.8c4.2-0.4,7.6-2.3,11.5-5
		c-1.7-0.6-3-1.1-4.2-1.4c-12.1-3.2-24.2-6.5-36.3-9.7c-1.2-0.3-2.5-0.6-3.7-1.1c-5.2-2-7.9-7.4-6.4-12.6c1.5-5.2,6.7-8.6,12.1-7.2
		c10.8,2.6,21.4,5.6,32.1,8.5c10.8,2.9,21.7,5.8,32.7,8.7c26-15,52-30,78-45c0-0.3-0.1-0.6-0.1-0.9c-5.3-1.4-10.6-2.9-16-4.3
		c-1.7,0.9-3.2,1.7-4.7,2.6c-16.7,9.6-33.4,19.3-50.1,28.9c-1.4,0.8-2.7,1.6-4.2,2.2c-4.8,1.9-10.2,0.1-12.8-4.2
		c-2.6-4.3-1.7-10,2.3-13.3c1.2-1,2.6-1.8,4-2.6c10.7-6.2,21.4-12.4,32.2-18.6c1.2-0.7,2.4-1.5,4.2-2.6c-4.4-1.5-8.1-2.7-12.4-1.9
		c-16.9,2.9-33.8,5.4-50.7,8.1c-1.3,0.2-2.6,0.3-4.2,0.4c-21.5-17.4-43.2-35-64.9-52.5c0.1-0.3,0.1-0.6,0.2-0.9
		c27.4-4.5,54.9-8.7,82.7-13.1c1.2,0.9,2.6,1.9,3.9,3c12.7,10.2,25.4,20.3,37.9,30.8c3.7,3.1,7.8,4.6,13,5.6c-0.8-1.6-1.3-2.8-2-4
		c-6.2-10.9-12.5-21.7-18.8-32.5c-0.7-1.2-1.5-2.5-2-3.8c-2.1-4.9-0.2-10.5,4.4-13.1c4.4-2.5,10-1.5,13.2,2.6c1,1.2,1.8,2.6,2.5,4
		c10.4,18.1,20.9,36.2,31.6,54.7c12.2,3.3,24.7,6.6,37.5,10.1c50.6-29.2,101.4-58.5,152.2-87.9c-0.1-0.2-0.2-0.4-0.3-0.7
		c-25.6,0-51.1,0-77.1,0c-0.9,0.8-2,1.9-3.1,3c-13.9,13.8-27.7,27.7-41.6,41.5c-1,1-2,2.1-3.1,3c-4.4,3.4-9.9,3.1-13.8-0.7
		c-3.7-3.7-4.1-9.5-0.8-13.8c0.9-1.1,1.9-2.1,2.9-3.2c8.8-8.8,17.5-17.5,26.3-26.3c1-1,1.9-2,3.3-3.5c-4.8-0.4-8.7-0.4-12.7,1.5
		c-16.6,7.6-33.4,14.9-50.4,22.5c-25.4-11.3-51-22.7-76.7-34.1c2.7-2.5,56.1-26.7,76.8-34.9c9.1,4,18.4,8.2,27.8,12.3
		c7.6,3.4,15.3,6.6,22.8,10.2c3.9,1.9,7.7,1.6,12.3,1.4c-1.4-1.5-2.3-2.6-3.2-3.5c-9.1-9.1-18.2-18.1-27.1-27.2
		c-1.7-1.7-3.2-3.8-3.9-6c-1.4-4.1,0.4-8.6,3.9-11c3.8-2.7,8.3-2.7,12.1,0.1c1.3,0.9,2.4,2.1,3.5,3.2c13.8,13.7,27.5,27.5,41.2,41.3
		c1.1,1.1,2.1,2.4,2.9,3.3c26.3,0,52,0,77.7,0c0.1-0.2,0.2-0.4,0.3-0.7c-50.7-29.2-101.3-58.5-152.1-87.8c-12.5,3.3-25,6.7-37.5,10
		c-2.8,4.8-5.4,9.4-8.1,14c-7.8,13.6-15.7,27.2-23.5,40.8c-0.8,1.4-1.6,2.8-2.5,4c-3.2,4.1-8.8,5.1-13.2,2.6
		c-4.6-2.6-6.5-8.1-4.4-13.1c0.6-1.3,1.3-2.6,2-3.8c6.2-10.7,12.4-21.4,18.6-32.2c0.7-1.2,1.4-2.5,2.3-4.2
		c-4.5,0.7-8.3,1.7-11.7,4.4c-12.9,10.6-25.9,21.1-38.9,31.6c-1.3,1.1-2.7,2.1-4.1,3.3c-27.6-4.3-55.1-8.7-82.8-13
		c1.5-2.8,53-45.1,65.2-53.6c5.1,0.8,10.5,1.6,15.8,2.4c13.4,2.1,26.7,4.2,40.1,6.4c3.7,0.6,6.9-1.1,11.1-1.9c-1.9-1.2-3-2-4.2-2.7
		c-11.2-6.5-22.4-13-33.7-19.4c-3.6-2.1-6.1-4.7-6.4-9.1c-0.5-7.8,7.1-13.2,14.3-10.2c1.5,0.6,2.8,1.4,4.2,2.2
		c16.7,9.6,33.4,19.3,50.1,28.9c1.4,0.8,2.8,1.5,4.4,2.5c5.2-1.4,10.6-2.8,15.9-4.2c0.1-0.4,0.1-0.6,0.1-0.7c0-0.1-0.1-0.3-0.2-0.4
		c-0.4-0.4-0.9-0.7-1.4-1c-25.3-14.6-50.6-29.2-76.1-43.9c-3.2,0.8-6.4,1.6-9.6,2.4c-17.5,4.7-35,9.4-52.5,14.1
		c-2,0.5-4.3,1-6.3,0.8c-5-0.6-8.6-4.8-9-9.6c-0.3-4.6,2.7-9.1,7.4-10.5c6.5-1.9,13-3.6,19.6-5.3c7.4-2,14.7-4,22.1-6
		c0.5-0.1,1-0.3,2-0.7c-3.4-2.3-6.1-4.5-9.9-4.9c-15.8-1.6-31.5-3.3-47.2-5c-3-0.3-6-0.7-9.3-1.1c-16.4-22.5-32.9-45.2-50-68.7
		c28.8,3,56.6,6,84.5,8.9c1,1.4,2,2.6,2.9,3.9c9.6,13.2,19.3,26.2,28.6,39.5c2.8,4,6.3,6.6,11,8.7c-0.2-1.2-0.2-2.1-0.4-2.9
		c-3.4-12.8-6.9-25.6-10.2-38.4c-0.7-2.5-1.4-4.9-0.5-7.6c1.4-4.4,5-7.4,9.4-7.7c4.2-0.3,8.5,2.4,10.3,6.6c0.5,1.3,0.9,2.7,1.2,4.1
		c5.2,19.6,10.5,39.2,15.7,58.8c0.2,0.7,0.5,1.4,0.8,2.5c25.8,14.9,51.9,30,78.9,45.5c-1.7-6.3-3.1-11.7-4.6-17.2
		c-1.6-1-3.2-1.9-4.8-2.9c-16.7-9.6-33.4-19.3-50.1-28.9c-1.5-0.9-3-1.7-4.3-2.9c-3.8-3.3-4.6-8.7-2.1-13c2.6-4.4,8-6.3,12.7-4.4
		c1.5,0.6,2.8,1.4,4.2,2.2c10.7,6.2,21.4,12.4,32.2,18.5c1.2,0.7,2.5,1.3,4.2,2.3c-1-4.6-1.9-8.5-4.7-11.9
		c-11.6-14.1-23.1-28.4-34.8-42.9c4.3-27.5,8.7-55.2,13.1-83c3.2,2.2,42.2,49.7,53.6,65.2c-0.7,4.8-1.4,10.1-2.3,15.3
		c-2.1,13.5-4.3,27-6.5,40.5c-0.6,3.8,1,7,1.9,11.2c1.1-1.6,1.9-2.6,2.5-3.7c6.4-11,12.7-21.9,19-32.9c0.8-1.4,1.6-2.8,2.6-4
		c3.2-3.8,8.6-4.7,12.9-2.3c4.4,2.5,6.5,7.9,4.6,12.7c-0.6,1.5-1.4,2.8-2.2,4.2c-9.7,16.8-19.4,33.7-29.1,50.5
		c-0.8,1.4-1.5,2.8-2.5,4.5c3.3,12.3,6.6,24.8,10,37.4c50.7,29.3,101.4,58.5,152.1,87.8c0.2-0.2,0.5-0.4,0.7-0.6
		c-12.7-22.1-25.5-44.2-38.3-66.4c-1.2-0.4-2.4-0.9-3.6-1.2c-19.4-5.2-38.9-10.4-58.3-15.6c-1-0.3-2-0.5-2.9-0.8
		c-5.3-1.9-8.2-7.2-6.9-12.3c1.4-5.3,6.3-8.7,11.8-7.6c5.2,1,10.3,2.6,15.5,3.9c8.8,2.3,17.5,4.7,26.2,7.1c0.7,0.2,1.4,0.3,2.6,0.5
		c-1.6-4-3.3-7.2-6.5-9.6c-13.9-10-27.7-20.1-41.6-30.2c-1.3-0.9-2.5-1.9-3.9-2.9c-2.9-27.8-5.9-55.6-8.8-83.4
		c3.2,0.9,56.4,39,68.6,49.1c0.4,3.4,0.9,7.1,1.3,10.8c1.6,14.9,3.1,29.8,4.6,44.7c0.4,4,2.5,7.1,5,10.8c0.6-2,1.2-3.5,1.6-5
		c3.2-12.1,6.5-24.2,9.7-36.3c0.3-1.1,0.6-2.2,1-3.3c2-4.8,6.9-7.3,12-6.3c4.9,1,8.3,5.6,7.9,10.9c-0.1,1.4-0.5,2.8-0.9,4.2
		c-5.4,20.2-10.8,40.3-16.1,60.5c-0.1,0.4-0.2,0.8-0.3,1.6c12.7,22,25.6,44.3,38.4,66.5c0.3-0.1,0.5-0.2,0.8-0.3
		c0-58.4,0-116.8,0-174.8c-9.3-9.3-18.5-18.4-28.1-28.1c-0.9,0-2.6,0-4.3,0c-19.3,0-38.6,0-57.9,0c-1.2,0-2.3,0-3.5,0
		c-5.9-0.3-10.4-5-10.2-10.7c0.1-5.5,4.5-10,10.3-10.1c13-0.1,25.9,0,38.9,0c1.8,0,3.6,0,6.2,0c-2.9-3.6-5.3-6.4-9.1-7.8
		c-16.3-6.1-32.5-12.5-48.7-18.7c-1.1-0.4-2.1-0.8-3.6-1.4c-10-25.9-20-52.1-30.1-78.3c3.2,0.1,70.2,25.4,79.1,29.9
		c4.3,11.2,8.7,22.6,13.1,34c2.2,5.8,4.7,11.5,6.6,17.3c1.4,4.1,4.2,6.6,7.8,9.6c0.1-1.7,0.3-2.9,0.3-4.2c0-13,0-25.9,0-38.9
		c0-1.6,0-3.2,0.4-4.7c1.3-4.7,5.9-7.9,10.8-7.6c4.8,0.4,8.9,4.3,9.5,9.1c0.2,1.3,0.1,2.6,0.1,3.9c0,19.6,0,39.2,0,58.8
		c0,1.6,0,3.2,0,4.2c4.3,4.3,8.3,8.2,12.1,12c0.9-2.7,1.3-76.9,1.2-90.3c-1.4-1-3-1.9-4.2-3.1c-13.8-13.7-27.5-27.5-41.3-41.2
		c-1.2-1.2-2.5-2.5-3.4-3.9c-2.8-4.2-2.2-9.6,1.4-13c3.6-3.5,8.9-4,13.1-1.1c1.3,0.9,2.4,2,3.5,3.2c8.8,8.7,17.5,17.5,26.3,26.3
		c1,1,2.1,2,3.6,3.4c0.7-4.3,0.8-7.9-0.9-11.6c-7-15.5-13.8-31-20.7-46.5c-0.7-1.6-1.3-3.2-2.1-4.9c11.4-25.6,22.7-51.2,34.5-77.7
		c11.7,26.4,23.1,52,34.5,77.7c-1.1,2.6-2.2,5.1-3.3,7.6c-6.3,14.1-12.4,28.2-18.8,42.2c-1.9,4.1-2.1,8.2-1.7,13.1
		c1.3-1.1,2.2-1.8,3.1-2.7c9-8.9,17.9-17.9,26.9-26.9c1.1-1.1,2.2-2.3,3.5-3.1c4.3-2.9,9.8-2.3,13.4,1.5c3.4,3.7,3.8,9,0.8,13.1
		c-0.9,1.3-2.1,2.4-3.2,3.5c-13.7,13.8-27.5,27.5-41.3,41.2c-1.1,1.1-2.4,2-3.3,2.7c0,30.8,0,60.8,0,91.9c2.5-2.5,4.4-4.3,6.3-6.2
		c2-1.9,3.9-3.8,6.2-6c0-1.6,0-3.3,0-5c0-19.4,0-38.9,0-58.3c0-1.7,0-3.5,0.3-5.2c0.8-4.7,4.8-8.3,9.5-8.5c4.7-0.3,9.2,2.8,10.5,7.4
		c0.5,1.8,0.6,3.7,0.6,5.5c0,12.5,0,25.1,0,37.6c0,1.4,0.1,2.8,0.2,4.8c3.6-3,6.3-5.7,7.8-9.6c5.9-15.9,12.1-31.7,18.2-47.6
		c0.5-1.3,1.1-2.7,1.7-4.2c26.1-10,52.1-20.1,79.3-30.5c-10.4,27-20.4,53-30.4,79.2c-1.1,0.5-2.3,1-3.4,1.5
		c-15.8,6.1-31.6,12.3-47.5,18.2c-4.3,1.6-7.3,4.3-10.5,8.1c1.7,0.1,2.9,0.3,4.1,0.3c13.4,0,26.8,0.2,40.2-0.1
		c5.7-0.1,10.5,4.3,11,9c0.7,6-3.3,11.2-9.3,11.8c-1.3,0.1-2.6,0.1-3.9,0.1c-19.6,0-39.2,0-58.8,0c-1.6,0-3.2,0-4.3,0
		c-9.3,9.4-18.4,18.4-27.7,27.7c0,58.1,0,116.6,0,175.1c2.4-1.9,34.7-57,39.1-66.6c-2.2-8.2-4.4-16.7-6.7-25.1
		c-3.2-12.1-6.5-24.2-9.7-36.3c-0.3-1-0.5-1.9-0.7-2.9c-1-5.1,2-10.4,6.9-12.1c4.9-1.7,10.4,0.6,12.7,5.5c0.8,1.7,1.2,3.5,1.7,5.3
		c3.2,12.1,6.5,24.2,9.7,36.3c0.3,1,0.6,1.9,1.1,3.6c2.1-3.3,4.4-5.8,4.8-9.3c1.8-16.5,3.5-32.9,5.2-49.4c0.3-2.6,0.6-5.1,1-8
		c22.5-16.3,45-32.8,67.7-49.2c0.8,3.3-6.2,74.7-8.2,84c-1,0.8-2.3,1.7-3.5,2.6c-13.3,9.7-26.5,19.4-39.9,28.9
		c-3.8,2.7-6.4,6.1-8.4,10.6c1.2-0.2,2.2-0.2,3-0.4c12.7-3.3,25.3-6.7,37.9-10.1c1-0.3,1.9-0.6,2.9-0.7c5.9-1,11,2.2,12.3,7.6
		c1.3,5.5-1.6,10.7-7.3,12.5c-5.1,1.6-10.3,2.8-15.4,4.2c-15.1,4.1-30.3,8.1-45.4,12.2c-1.1,0.3-2.2,0.7-3.5,1.1
		c-12.7,22.1-25.5,44.2-38.5,66.6c3.9-0.9,136-76.6,152.8-87.5c3.2-12.1,6.6-24.4,10-37.1c-0.6-1.2-1.4-2.6-2.1-3.9
		c-9.8-17-19.6-33.9-29.4-50.9c-0.8-1.4-1.6-2.7-2.2-4.2c-2-4.7-0.2-10.1,4.2-12.8c4.4-2.7,9.9-1.8,13.3,2.2c1,1.2,1.8,2.6,2.6,4
		c6.2,10.7,12.4,21.4,18.6,32.2c0.7,1.2,1.5,2.4,2.7,4.4c1.2-4,2.7-7.1,2.1-10.9c-3-18.6-5.8-37.2-8.8-56.3
		c17.5-21.6,35.1-43.4,53.4-66.1c4.7,28.5,8.9,56.1,13.3,83.8c-0.8,1.1-1.6,2.2-2.4,3.2c-10.8,13.3-21.5,26.7-32.4,39.9
		c-2.7,3.3-3.7,7-4.5,11.6c1.5-0.7,2.7-1.2,3.7-1.8c11-6.3,21.9-12.7,32.9-19c1.2-0.7,2.5-1.5,3.8-2c5-2,10.4,0.1,13,4.7
		c2.5,4.5,1.3,9.9-2.9,13.1c-1.2,1-2.7,1.7-4,2.5c-16.9,9.8-33.9,19.6-50.8,29.4c-1.2,0.7-2.5,1.5-3.7,2.3
		c-1.4,5.4-2.8,10.8-4.5,17.2c26.9-15.6,53-30.6,79-45.6c3.6-13.3,7.1-26.5,10.7-39.7c2.1-7.6,4.1-15.3,6.2-22.9
		c0.4-1.5,0.9-3.1,1.7-4.4c2.4-4,7.2-5.7,11.6-4.4c4.5,1.3,7.5,5.3,7.4,10c0,1.4-0.4,2.9-0.7,4.2c-3.3,12.7-6.7,25.3-10.1,38
		c-0.3,1.1-0.5,2.2-0.8,3.9c3.9-1.7,7.2-3.3,9.6-6.6c10-13.9,20.1-27.7,30.2-41.6c0.9-1.3,1.9-2.5,2.8-3.9c27.9-3,55.6-5.9,83.5-8.8
		c-1.1,3.4-39.8,57.3-49.2,68.7c-8.3,0.9-16.9,1.8-25.4,2.8c-10.3,1.1-20.6,2.2-30.9,3.3c-3.5,0.4-6.1,1.8-9.5,5
		c1.5,0.4,2.8,0.9,4.1,1.2c12.1,3.2,24.2,6.5,36.3,9.7c1.1,0.3,2.2,0.6,3.3,1c5.2,2,8.1,7.5,6.7,12.5c-1.5,5.3-6.9,8.7-12.4,7.3
		c-10.7-2.7-21.4-5.7-32.1-8.5c-10.3-2.7-20.6-5.5-30.9-8.2c-0.4-0.1-0.9-0.1-1.9-0.3c-25.6,14.8-51.6,29.8-77.6,44.8
		c0,0.3,0,0.6,0,0.9c5.4,1.5,10.8,2.9,16.1,4.4c1.7-0.9,3.1-1.6,4.4-2.4c16.7-9.6,33.4-19.3,50.1-28.9c1.4-0.8,2.7-1.6,4.2-2.2
		c5-2.1,10.4-0.3,13.1,4.3c2.7,4.7,1.6,10.1-2.8,13.5c-1.1,0.9-2.4,1.6-3.7,2.3c-10.7,6.2-21.4,12.4-32.2,18.6
		c-1.2,0.7-2.4,1.5-4.1,2.6c4.6,1.6,8.5,2.6,13,1.8c16.9-2.9,33.8-5.4,50.7-8.1c1.1-0.2,2.3-0.2,3.6-0.3
		c21.6,17.5,43.3,35,65.9,53.3c-28.6,4.5-56,8.8-83.8,13.2c-0.9-0.7-2-1.4-3-2.2c-13-10.5-26.1-20.9-38.9-31.6
		c-3.7-3.1-7.7-4.8-12.9-5.5c0.6,1.3,1.1,2.5,1.7,3.5c6.3,11,12.7,21.9,19,32.9c0.7,1.2,1.5,2.5,2,3.8c2,4.8,0.3,10.1-4,12.8
		c-4.3,2.7-9.9,1.9-13.3-2c-1.1-1.3-2-2.8-2.8-4.3c-9.7-16.8-19.4-33.7-29.2-50.5c-0.8-1.4-1.6-2.7-2.6-4.3
		c-12.4-3.3-24.9-6.7-37.4-10c-50.8,29.3-101.3,58.5-152.1,87.8c3.1,1.2,63.5,1.6,78.3,0.6c0.4-0.6,1.3-2,2.4-3.1
		c13.7-13.8,27.5-27.5,41.2-41.3c1.2-1.2,2.4-2.5,3.8-3.5c4.3-3,9.8-2.4,13.4,1.3c3.5,3.6,4,8.9,1,13.1c-0.9,1.3-2.1,2.4-3.2,3.5
		c-8.7,8.8-17.5,17.5-26.3,26.3c-1,1-1.9,2-3.3,3.5c4.3,0.5,8,0.7,11.7-0.9c15.5-7,31-13.8,46.5-20.7c1.6-0.7,3.2-1.4,4.8-2.1
		c25.6,11.4,51.1,22.7,77.7,34.5c-26.5,11.8-51.9,23.1-77.6,34.5c-1.5-0.6-3.1-1.2-4.6-1.9c-15.1-6.7-30.3-13.3-45.3-20.3
		c-4.1-1.9-8.2-2.2-13.1-1.7c1.1,1.3,1.8,2.3,2.7,3.1c8.8,8.9,17.7,17.7,26.6,26.6c0.9,0.9,1.9,1.8,2.7,2.8
		c3.7,4.5,3.6,10.1-0.3,14.1c-4,4.1-9.8,4.3-14.4,0.5c-1.1-0.9-2.1-2-3.1-3c-13.6-13.6-27.3-27.3-40.9-41c-1.1-1.1-2-2.5-2.6-3.2
		c-26.5,0-52.1,0-77.6,0c-0.1,0.3-0.2,0.5-0.3,0.8c50.6,29.2,101.3,58.5,152,87.8c12.5-3.3,25-6.7,37.4-10c0.9-1.6,1.8-2.9,2.6-4.2
		c9.7-16.8,19.4-33.7,29.1-50.5c0.9-1.5,1.7-3,2.8-4.3c3.3-3.9,9-4.7,13.3-2c4.4,2.7,6.1,8,4.1,12.8c-0.6,1.3-1.3,2.6-2,3.8
		c-6.2,10.7-12.4,21.4-18.6,32.2c-0.7,1.2-1.4,2.5-2.3,4.2c4.4-0.8,8.1-1.5,11.3-4.2c13.2-10.9,26.6-21.6,39.9-32.4
		c1.1-0.9,2.3-1.8,3.6-2.8c27.5,4.3,55,8.7,82.4,13c0.2,0.4,0.3,0.5,0.3,0.6c0,0.1,0,0.3-0.1,0.4c-0.4,0.4-0.7,0.9-1.2,1.2
		c-21.2,17.1-42.3,34.2-63.6,51.4c-7.2-1.1-14.3-2.1-21.4-3.2c-11.7-1.8-23.3-3.9-35-5.5c-3.3-0.4-6.7,0.7-10.1,1.2
		c-0.1,0.3-0.1,0.6-0.2,0.9c0.8,0.6,1.6,1.3,2.5,1.9c11.1,6.4,22.2,12.8,33.3,19.2c1.4,0.8,2.8,1.6,4,2.5c4.1,3.3,5,8.8,2.5,13.2
		c-2.6,4.4-7.9,6.4-12.7,4.5c-1.5-0.6-2.8-1.4-4.2-2.2c-16.8-9.7-33.7-19.4-50.5-29.1c-1.4-0.8-2.8-1.5-4.4-2.4
		c-5.2,1.4-10.6,2.8-16.1,4.3c2.6,2.7,68.5,41.2,78.3,45.8c7.3-1.9,14.9-3.9,22.5-6c13.1-3.5,26.1-7,39.2-10.5c1.9-0.5,4-1,5.9-0.8
		c5,0.4,8.9,4.5,9.3,9.3c0.4,5-2.4,9.4-7.4,10.9c-5.4,1.6-10.8,3-16.2,4.4c-8.9,2.4-17.8,4.8-27.4,7.3c3.1,2.5,5.8,4.6,9.5,5
		c10,1.1,20,2.2,30.1,3.2c8.9,1,17.7,1.9,26.9,2.9c16.4,22.6,32.9,45.2,50,68.8c-28.7-3-56.4-6-84.4-8.9c-0.8-1.1-1.8-2.3-2.8-3.6
		c-9.8-13.5-19.8-26.9-29.4-40.6c-2.6-3.7-6-6-10.5-8.1c0.3,1.7,0.5,2.9,0.8,4c3.4,12.8,6.8,25.6,10.2,38.4
		c1.7,6.3-0.7,11.5-6.1,13.5c-5.8,2.2-11.9-0.9-13.8-7.4c-2-6.8-3.7-13.6-5.5-20.4c-3.8-14.3-7.7-28.6-11.6-43.4
		c-25.8-14.9-51.8-29.9-77.8-44.9c-0.3,0.2-0.5,0.3-0.8,0.5c0.6,2.6,1.2,5.1,1.9,7.7c0.7,2.6,1.4,5.3,2.2,8.2
		c1.2,0.7,2.5,1.6,3.9,2.4c16.8,9.7,33.7,19.4,50.5,29.2c1.5,0.9,3,1.7,4.4,2.8c4.1,3.2,5.2,8.7,2.7,13.2c-2.6,4.6-8.1,6.6-13,4.5
		c-1.3-0.5-2.6-1.3-3.8-2c-10.7-6.2-21.4-12.4-32.2-18.6c-1.2-0.7-2.5-1.3-4.2-2.3c0.6,4.3,1.2,7.8,3.7,10.8
		c10.9,13.4,21.8,26.9,32.6,40.3c0.9,1.1,1.8,2.3,2.8,3.6c-4.3,27.6-8.7,55.2-13.2,84c-18.3-22.6-35.9-44.4-53.5-66.2
		c1.6-10.1,3.1-20.1,4.7-30c1.3-8.4,2.5-16.8,4-25.2c0.7-4.1-0.5-7.6-1.9-11.8c-1,1.5-1.7,2.4-2.3,3.5c-6.3,11-12.7,21.9-19,32.9
		c-0.8,1.4-1.6,2.8-2.6,4c-3.4,4-8.9,4.8-13.3,2.1c-4.3-2.7-6.1-8.1-4.1-12.8c0.6-1.5,1.5-2.8,2.2-4.2c9.7-16.8,19.4-33.7,29.1-50.5
		c0.8-1.4,1.5-2.7,2.3-4.1c-3.3-12.5-6.7-24.8-10-37.4c-50.6-29.2-101.3-58.5-152-87.7c-0.2,0.2-0.5,0.4-0.7,0.6
		c12.8,22.1,25.5,44.2,38.4,66.6c7.3,2,14.8,4,22.3,6c13.2,3.5,26.4,7,39.6,10.6c1.1,0.3,2.2,0.6,3.3,1c5.1,2,7.7,7.5,6.2,12.7
		c-1.4,4.9-6.6,8.3-11.8,7.1c-8.5-2-17-4.4-25.5-6.6c-6.1-1.6-12.2-3.2-18.9-5c1.8,4.3,3.6,7.6,7,10c13.8,9.9,27.5,20,41.2,30
		c1.2,0.8,2.3,1.7,3.9,2.9c2.9,27.6,5.9,55.4,8.8,83.2c-0.3,0.2-0.6,0.4-0.9,0.6c-22.5-16.4-45-32.8-67.7-49.3
		c-0.9-8.3-1.8-16.6-2.7-24.9c-1.2-10.9-2.3-21.8-3.5-32.6c-0.4-3.4-2.6-5.9-4.8-9.1c-1.9,7.1-3.7,13.6-5.4,20.1
		c-2.1,7.6-4,15.3-6.2,22.9c-1.4,5-4.8,7.8-9.4,8.1c-7.2,0.5-12.5-5.9-10.7-13.1c2.4-9.6,5.1-19.2,7.6-28.8
		c3.1-11.7,6.3-23.3,9.5-35.3c-12.8-22.1-25.5-44.3-38.3-66.4c-0.4,0.1-0.5,0-0.6,0.1c-0.1,0.1-0.2,0.2-0.2,0.3
		c0,58.3,0,116.7,0,174.8c9.2,9.1,18.3,18.1,28,27.8c0.6,0,2.1,0,3.7,0c19.6,0,39.2,0,58.8,0c1.2,0,2.3,0,3.5,0
		c6,0.4,10.3,5.1,10.1,10.8c-0.2,5.6-4.5,9.9-10.4,9.9c-13.4,0.1-26.8,0-40.2,0c-1.4,0-2.8,0-4.9,0c3,3.6,5.4,6.4,9.2,7.8
		c17.4,6.6,34.6,13.3,52.3,20.1c10,26,20.1,52.1,30.5,79.4c-27.1-10.3-53.1-20.4-79.2-30.5c-0.6-1.4-1.2-2.7-1.7-4
		c-6.1-15.7-12.2-31.4-18.1-47.2c-1.5-4.1-4.2-7-7.9-10.3c-0.1,1.9-0.3,3.3-0.3,4.6c0,12.5,0,25.1,0,37.6c0,1.9-0.1,3.8-0.5,5.6
		c-1.2,4.8-5.8,7.9-10.7,7.5c-4.7-0.3-8.7-3.9-9.4-8.7c-0.3-1.7-0.2-3.4-0.2-5.2c0-19.2,0-38.3,0-57.5c0-1.7,0-3.4,0-4.6
		c-4.3-4.2-8.3-8.1-12.3-12c0,29.8,0,59.8,0,91c0.5,0.4,1.9,1.2,3,2.3c13.8,13.7,27.5,27.5,41.3,41.2c1.1,1.1,2.3,2.2,3.2,3.5
		c3.1,4.2,2.8,9.7-0.8,13.4c-3.6,3.7-9.1,4.3-13.4,1.3c-1.3-0.9-2.4-2.1-3.5-3.2c-8.8-8.7-17.5-17.5-26.3-26.3c-1-1-2-1.9-3.6-3.3
		c-0.2,4.5-0.6,8.2,1.1,11.9c7,15.5,13.8,31,20.7,46.5c0.6,1.4,1.3,2.9,2,4.6c-11.3,25.5-22.7,51.1-34.5,77.7
		c-11.8-26.5-23.1-52-34.5-77.7c0.8-1.8,1.5-3.5,2.2-5.2c6.6-14.9,13.1-29.8,19.9-44.5c1.9-4.1,2.3-8.2,1.8-13.2
		c-1.3,1-2.2,1.7-3.1,2.6c-9,8.9-17.9,17.9-26.9,26.9c-1.2,1.2-2.5,2.5-3.9,3.4c-4,2.7-9.3,2.1-12.7-1.2c-3.6-3.4-4.3-8.9-1.5-13
		c0.9-1.4,2.2-2.7,3.4-3.9c13.8-13.9,27.7-27.7,41.6-41.5c1.1-1.1,2.5-2,3.3-2.7c0-30.8,0-60.7,0-91.1c-2.9,1.3-4.4,3.8-6.5,5.6
		c-2.2,1.9-4.3,3.8-6.1,5.4c0,5.6,0,10.3,0,15.1c0,16.3,0,32.6,0,48.8c0,1.2,0,2.3,0,3.5c-0.3,5.8-4.7,10.1-10.3,10.1
		c-5.8,0-10.4-4.3-10.4-10.4c-0.1-13,0-25.9,0-38.9c0-1.8,0-3.6,0-6.2c-3.7,3-6.4,5.4-7.9,9.3c-6.1,16.2-12.4,32.2-18.6,48.4
		c-0.5,1.2-0.9,2.4-1.5,3.9c-26,10-52.2,20.1-79.3,30.5c10.4-27,20.4-53,30.5-79.2c1.2-0.5,2.4-1.1,3.6-1.5
		c16.2-6.3,32.4-12.6,48.7-18.7c3.8-1.4,6.3-4.2,9.1-7.7c-1.8-0.1-3-0.2-4.3-0.2c-13,0-25.9,0-38.9,0c-1.8,0-3.8-0.1-5.5-0.7
		c-4.5-1.6-7.2-6.3-6.6-10.9c0.6-4.6,4.4-8.4,9.2-9c1.3-0.2,2.6-0.1,3.9-0.1c19.6,0,39.2,0,58.8,0c1.6,0,3.2,0,4.4,0
		c9.4-9.4,18.6-18.5,27.9-27.8c0-58.2,0-116.6,0-175.2c-2.6,2.2-32.4,52.8-39.2,66.6c3.5,13.1,7.1,26.4,10.6,39.8c2,7.5,4,15,6,22.5
		c0.7,2.7,1.1,5.4,0.1,8.1c-1.5,4-5.4,6.6-9.7,6.6c-4.5,0-8.3-2.6-9.8-7.1c-1.3-4.1-2.3-8.3-3.4-12.5c-2.5-9.4-5.1-18.9-7.6-28.3
		c-0.2-0.8-0.5-1.6-0.9-2.9c-2.9,3.5-4.7,6.8-5.1,11c-1.8,17.7-3.6,35.5-5.5,53.2C853.1,726.9,853,727.5,852.8,728.6z"/>
</g>
</svg>
