<svg xmlns:x="http://ns.adobe.com/Extensibility/1.0/" xmlns:i="http://ns.adobe.com/AdobeIllustrator/10.0/" xmlns:graph="http://ns.adobe.com/Graphs/1.0/" xmlns="http://www.w3.org/2000/svg" xmlns:xlink="http://www.w3.org/1999/xlink" version="1.1" x="0px" y="0px" viewBox="0 0 64 64" enable-background="new 0 0 64 64" xml:space="preserve"><metadata><sfw xmlns="http://ns.adobe.com/SaveForWeb/1.0/"><slices></slices><sliceSourceBounds y="-8160" x="-8165" width="16389" height="16384" bottomLeftOrigin="true"></sliceSourceBounds></sfw></metadata><g><g><path d="M48,5.5H16c-0.276,0-0.5,0.224-0.5,0.5v48c0,0.276,0.224,0.5,0.5,0.5h3.5v3H18c-0.276,0-0.5,0.224-0.5,0.5    s0.224,0.5,0.5,0.5h4c0.276,0,0.5-0.224,0.5-0.5s-0.224-0.5-0.5-0.5h-1.5v-3h23v3H42c-0.276,0-0.5,0.224-0.5,0.5    s0.224,0.5,0.5,0.5h4c0.276,0,0.5-0.224,0.5-0.5s-0.224-0.5-0.5-0.5h-1.5v-3H48c0.276,0,0.5-0.224,0.5-0.5V6    C48.5,5.724,48.276,5.5,48,5.5z M47.5,53.5h-31v-47h31V53.5z"></path><path d="M32,50.5c6.893,0,12.5-5.607,12.5-12.5S38.893,25.5,32,25.5S19.5,31.107,19.5,38S25.107,50.5,32,50.5z M32,26.5    c6.341,0,11.5,5.159,11.5,11.5c0,6.341-5.159,11.5-11.5,11.5c-6.341,0-11.5-5.159-11.5-11.5C20.5,31.659,25.659,26.5,32,26.5z"></path><path d="M32,18.5c2.481,0,4.5-2.019,4.5-4.5S34.481,9.5,32,9.5s-4.5,2.019-4.5,4.5S29.519,18.5,32,18.5z M32,10.5    c1.93,0,3.5,1.57,3.5,3.5s-1.57,3.5-3.5,3.5s-3.5-1.57-3.5-3.5S30.07,10.5,32,10.5z"></path><path d="M32,40.5c1.379,0,2.5-1.121,2.5-2.5s-1.121-2.5-2.5-2.5c-1.378,0-2.5,1.121-2.5,2.5S30.622,40.5,32,40.5z M32,36.5    c0.827,0,1.5,0.673,1.5,1.5s-0.673,1.5-1.5,1.5s-1.5-0.673-1.5-1.5S31.173,36.5,32,36.5z"></path><path d="M32,30.5c4.136,0,7.5,3.364,7.5,7.5c0,0.276,0.224,0.5,0.5,0.5s0.5-0.224,0.5-0.5c0-4.687-3.813-8.5-8.5-8.5    c-0.276,0-0.5,0.224-0.5,0.5S31.724,30.5,32,30.5z"></path></g></g></svg>