<svg height='100px' width='100px'  fill="#000000" xmlns="http://www.w3.org/2000/svg" xmlns:xlink="http://www.w3.org/1999/xlink" version="1.1" x="0px" y="0px" viewBox="0 0 64 64" style="enable-background:new 0 0 64 64;" xml:space="preserve"><path d="M55,50H43h-2v-4.273c5.392-2.913,9.223-8.355,9.893-14.727H52c2.757,0,5-2.243,5-5s-2.243-5-5-5h-1c0-10.477-8.523-19-19-19  c-3.638,0-7.164,1.032-10.221,2.988C20.78,4.877,20,4.028,20,3c0-0.552-0.447-1-1-1h-0.5C16.019,2,14,4.019,14,6.5  c0,1.639,0.892,3.109,2.251,3.896C14.12,13.54,13,17.179,13,21h-1c-2.757,0-5,2.243-5,5s2.243,5,5,5h1.107  c0.67,6.372,4.501,11.814,9.893,14.727V50h-2H9c-3.859,0-7,3.14-7,7v5h2v-5c0-2.757,2.243-5,5-5h11.586L27,58.414V61  c0,0.552,0.447,1,1,1h8c0.553,0,1-0.448,1-1v-2.586L43.414,52H55c2.757,0,5,2.243,5,5v5h2v-5C62,53.14,58.859,50,55,50z M44.901,22  H34h-4H19.099l-1.714-0.343C18.371,20.743,19,19.448,19,18c0-2.206,1.794-4,4-4h18c2.206,0,4,1.794,4,4  c0,1.448,0.629,2.743,1.616,3.657L44.901,22z M44,24v1.5c0,2.481-2.019,4.5-4.5,4.5S35,27.981,35,25.5V24H44z M29,24v1.5  c0,2.481-2.019,4.5-4.5,4.5S20,27.981,20,25.5V24H29z M52,23c1.654,0,3,1.346,3,3s-1.346,3-3,3h-1v-6H52z M18.762,9.583  c-0.121-0.326-0.403-0.565-0.744-0.632C16.849,8.722,16,7.691,16,6.5c0-1.254,0.929-2.295,2.134-2.473  C18.59,5.736,20.158,7,22.058,7c0.197,0,0.39-0.058,0.554-0.167C25.401,4.979,28.648,4,32,4c9.311,0,16.889,7.526,16.991,16.813  C47.834,20.396,47,19.298,47,18c0-3.309-2.691-6-6-6H23c-3.309,0-6,2.691-6,6c0,1.299-0.835,2.397-1.992,2.813  c0.04-3.746,1.28-7.293,3.606-10.265C18.827,10.274,18.884,9.909,18.762,9.583z M12,29c-1.654,0-3-1.346-3-3s1.346-3,3-3h1v6H12z   M15,29v-5.78l3,0.6v1.68c0,3.584,2.916,6.5,6.5,6.5s6.5-2.916,6.5-6.5V24h2v1.5c0,3.584,2.916,6.5,6.5,6.5s6.5-2.916,6.5-6.5v-1.68  l3-0.6V29c0,6.696-3.901,12.483-9.541,15.253c-0.532,0.261-1.073,0.491-1.623,0.693c-0.065,0.024-0.129,0.048-0.194,0.071  c-0.556,0.197-1.12,0.363-1.688,0.5c-0.049,0.012-0.098,0.027-0.148,0.038c-2.506,0.579-5.108,0.579-7.613,0  c-0.05-0.011-0.098-0.026-0.148-0.038c-0.569-0.137-1.132-0.303-1.688-0.5c-0.065-0.023-0.129-0.047-0.194-0.071  c-0.549-0.202-1.091-0.433-1.623-0.693C18.901,41.483,15,35.696,15,29z M25,46.651c0.06,0.024,0.122,0.039,0.181,0.063  c0.479,0.185,0.964,0.358,1.461,0.505c0.123,0.036,0.248,0.062,0.371,0.096c0.456,0.124,0.915,0.243,1.384,0.333  c0.146,0.028,0.295,0.043,0.442,0.068c0.451,0.076,0.902,0.151,1.363,0.194c0.121,0.011,0.242,0.009,0.362,0.018  C31.04,47.963,31.516,48,32,48s0.96-0.037,1.435-0.073c0.121-0.009,0.242-0.007,0.362-0.018c0.461-0.043,0.912-0.118,1.363-0.194  c0.147-0.025,0.295-0.039,0.442-0.068c0.469-0.091,0.927-0.209,1.384-0.333c0.123-0.034,0.248-0.059,0.371-0.096  c0.497-0.146,0.982-0.319,1.461-0.505c0.06-0.023,0.122-0.039,0.181-0.063V50h-3h-8h-3V46.651z M33.586,52L32,53.586L30.414,52  H33.586z M24,52h3.586l2.892,2.892l-2.384,1.788L23.414,52H24z M35,60h-6v-1.5l3-2.25l3,2.25V60z M35.906,56.68l-2.384-1.788  L36.414,52H40h0.586L35.906,56.68z"></path></svg>