<?xml version="1.0" encoding="utf-8"?>
<!-- Generator: Adobe Illustrator 21.0.2, SVG Export Plug-In . SVG Version: 6.00 Build 0)  -->
<svg version="1.1" id="Layer_1" xmlns="http://www.w3.org/2000/svg" xmlns:xlink="http://www.w3.org/1999/xlink" x="0px" y="0px"
	 viewBox="0 0 100 53.1" style="enable-background:new 0 0 100 53.1;" xml:space="preserve">
<path d="M95.4,7.3c-2.5-1.8-4.8-2.2-4.9-2.2c-0.1,0-5-1.1-11.2-1.2c-3.9-0.1-8.8,0.1-13.3,1.5l0-0.6c-0.1,0-13.5,0.8-15.2,0.8
	s-15-0.8-15.2-0.8l0,0.5c-3.8-1.2-8.5-1.7-14-1.6c-6.2,0.2-11.2,1.2-11.4,1.2c-0.2,0-2.5,0.5-5,2.2c-2.4,1.7-5,4.8-5,10.5v3.1l0,0
	v-0.1c0,0,0.3,4.8,2.6,9.5c2.2,4.3,6.6,9.5,15.3,9.5c6.2,0,15.5-2.5,19.2-5.6c4-2.8,5-6.9,5.3-7.3l0.2-0.3c0.2-0.2,2.1-5.7,2.2-11.7
	h0.2V12c0-0.8,1-1.3,1.7-1.5c0,0,2.3-0.6,3.6-0.6c1.3,0,3.6,0.5,3.8,0.6c1.4,0.4,1.9,1,1.9,1.5v2.7h-0.1c0.1,6,1,11.2,1,11.2l0.2,1
	c0.3,1,1.4,3.8,4.8,6.7c3.6,3.2,14.2,6.1,20.4,6.1c8.8,0,13.1-5.1,15.1-9.5c2.2-4.7,2.4-9.5,2.4-9.5h0v-3
	C100.2,12.1,97.6,9,95.4,7.3z M60.1,8.1c-1.6,1.1-2.7,2.4-3.4,3.9c0-1.7-1.8-2.3-2.4-2.4l0,0c-0.1,0-2.4-0.6-3.8-0.6
	c-1.4,0-3.7,0.6-3.8,0.6c-1.1,0.3-2.3,1.1-2.4,2.4c-0.7-1.6-1.8-2.9-3.4-4c-1.1-0.8-2.4-1.4-3.7-2c3.7,0.2,12.2,0.7,13.5,0.7
	c1.3,0,10-0.5,13.6-0.7C62.9,6.5,61.4,7.2,60.1,8.1z"/>
</svg>
