<svg height='100px' width='100px'  fill="#000000" xmlns:x="http://ns.adobe.com/Extensibility/1.0/" xmlns:i="http://ns.adobe.com/AdobeIllustrator/10.0/" xmlns:graph="http://ns.adobe.com/Graphs/1.0/" xmlns="http://www.w3.org/2000/svg" xmlns:xlink="http://www.w3.org/1999/xlink" version="1.1" x="0px" y="0px" viewBox="0 0 100 100" style="enable-background:new 0 0 100 100;" xml:space="preserve"><g><g i:extraneous="self"><g><path d="M50,24.6C36,24.6,24.6,36,24.6,50S36,75.4,50,75.4S75.4,64,75.4,50S64,24.6,50,24.6z"></path><path d="M50,16.7c2.5,0,4.6-2.1,4.6-4.6v-5c0-2.5-2.1-4.6-4.6-4.6c-2.5,0-4.6,2.1-4.6,4.6v5C45.4,14.7,47.5,16.7,50,16.7z"></path><path d="M19.9,26.5c0.9,0.9,2.1,1.4,3.3,1.4s2.4-0.5,3.3-1.4c1.8-1.8,1.8-4.7,0-6.5l-3.5-3.5c-1.8-1.8-4.7-1.8-6.5,0     c-1.8,1.8-1.8,4.7,0,6.5L19.9,26.5z"></path><path d="M16.7,50c0-2.5-2.1-4.6-4.6-4.6h-5c-2.5,0-4.6,2.1-4.6,4.6s2.1,4.6,4.6,4.6h5C14.7,54.6,16.7,52.5,16.7,50z"></path><path d="M19.9,73.5l-3.5,3.5c-1.8,1.8-1.8,4.7,0,6.5c0.9,0.9,2.1,1.4,3.3,1.4s2.4-0.5,3.3-1.4l3.5-3.5c1.8-1.8,1.8-4.7,0-6.5     C24.7,71.7,21.7,71.7,19.9,73.5z"></path><path d="M50,83.3c-2.5,0-4.6,2.1-4.6,4.6v5c0,2.5,2.1,4.6,4.6,4.6c2.5,0,4.6-2.1,4.6-4.6v-5C54.6,85.3,52.5,83.3,50,83.3z"></path><path d="M80.1,73.5c-1.8-1.8-4.7-1.8-6.5,0c-1.8,1.8-1.8,4.7,0,6.5l3.5,3.5c0.9,0.9,2.1,1.4,3.3,1.4c1.2,0,2.4-0.5,3.3-1.4     c1.8-1.8,1.8-4.7,0-6.5L80.1,73.5z"></path><path d="M92.9,45.4h-5c-2.5,0-4.6,2.1-4.6,4.6s2.1,4.6,4.6,4.6h5c2.5,0,4.6-2.1,4.6-4.6S95.4,45.4,92.9,45.4z"></path><path d="M76.8,27.8c1.2,0,2.4-0.5,3.3-1.4l3.5-3.5c1.8-1.8,1.8-4.7,0-6.5c-1.8-1.8-4.7-1.8-6.5,0l-3.5,3.5     c-1.8,1.8-1.8,4.7,0,6.5C74.4,27.4,75.6,27.8,76.8,27.8z"></path></g></g></g></svg>