<svg width="1748" height="778" viewBox="0 0 1748 778" fill="none" xmlns="http://www.w3.org/2000/svg">
<path d="M411.926 322.354C397.543 307.562 403.441 294.449 409.617 282.467C420.776 260.821 438.3 247.271 463.708 247.321C485.212 247.364 496.352 258.786 511.569 294.786C523.725 267.967 541.387 247.433 572.445 247.808C598.346 248.12 609.21 268.318 617.153 289.531C624.87 279.939 631.193 269.57 639.847 261.778C669.503 235.077 707.261 244.51 719.484 282.306C724.431 297.603 726.002 314.432 726.456 330.639C727.461 366.583 726.755 402.574 726.831 438.545C726.693 444.851 726.948 451.159 727.596 457.432C729.654 473.508 733.155 489.736 751.171 494.989C769.549 500.349 786.26 492.35 796.567 478.512C805.296 466.792 811.864 451.054 812.99 436.598C815.58 403.336 814.451 369.772 814.48 336.33C814.497 317.12 812.295 298.798 796.726 284.365C786.147 274.557 788.572 263.226 798.774 248.116C809.487 262.918 818.574 275.477 827.307 287.543C862.653 229.54 914.358 242.075 929.478 289.168C934.355 282.378 938.106 276.221 942.764 270.848C956.305 255.226 972.693 245.552 994.324 249.428C1015.81 253.278 1026.66 268.876 1031.75 287.87C1035.61 302.29 1037.1 317.664 1037.38 332.655C1038.08 369.874 1037.45 407.115 1037.41 444.349C1037.33 449.393 1037.5 454.438 1037.93 459.464C1039.73 477.064 1046.83 491.282 1065.1 496.557C1079.74 500.783 1103.89 489.709 1112.55 475.049C1122.14 458.832 1128.71 442.624 1127.87 422.177C1125.8 371.773 1127.09 321.233 1127.01 270.747C1126.97 249.354 1131.21 246.376 1151.95 253.345C1190.42 266.272 1202.49 299.881 1181.78 334.382C1178.37 340.061 1178.45 347.863 1177.08 354.716C1175.7 361.618 1174.53 368.56 1173.04 376.726C1148.41 360.026 1148.94 347.123 1174.8 300.734L1143.39 281.489C1143.39 344.674 1142.89 403.225 1143.69 461.758C1143.94 480.382 1157.63 495.178 1172.36 497.228C1189.22 499.575 1209.34 484.952 1220.3 472.141C1238.69 450.648 1234.71 426.617 1234.79 402.597C1234.97 345.169 1234.98 287.74 1234.81 230.311C1234.8 221.937 1236.83 213.713 1225.26 208.649C1221.1 206.828 1218.09 192.787 1220.7 187.149C1226.31 175.018 1235.9 164.721 1245.58 151.297C1248.85 160.686 1251.61 168.606 1254.76 177.65C1263.93 184.338 1287.03 167.488 1287.46 194.477C1287.89 221.157 1264.82 206.481 1252.18 214.479C1252.18 227.189 1252.18 240.94 1252.18 254.691C1252.19 317.8 1252.2 380.908 1252.21 444.016C1252.22 448.433 1252.12 452.857 1252.35 457.264C1253.52 480.058 1263.64 494.518 1280.12 497.125C1298.5 500.03 1321.57 486.605 1329.13 468.743C1330.73 464.957 1332.78 461.358 1335.08 456.742C1349.69 465.452 1345.27 477.09 1342.19 487.24C1334.82 511.484 1311.14 530.252 1287.81 530.638C1256.85 531.151 1246.89 507.971 1236.93 482.284C1224.65 509.888 1207.07 529.715 1176.88 530.013C1150.42 530.275 1139.77 509.56 1131.76 490.897C1120.13 501.906 1109.7 515.562 1096.02 523.907C1070.68 539.357 1043.2 529.983 1031.94 502.618C1026.02 488.075 1022.68 472.611 1022.07 456.922C1020.66 417.212 1021.47 377.423 1021.37 337.666C1021.36 331.988 1021.87 326.214 1021.03 320.65C1018.53 304.061 1014.8 287.674 995.798 282.093C980.989 277.745 955.315 289.369 946.842 304.587C939.078 318.533 932.939 332.526 933.865 350C935.564 382.083 932.162 414.48 934.642 446.457C935.865 462.235 943.553 478.496 951.844 492.452C959.107 504.677 958.565 514.126 950.314 530.222C938.88 514.808 929.498 502.161 920.211 489.642C908.095 511.419 891.676 529.635 862.334 528.261C837.323 527.089 827.162 508.977 826.549 497.085C814.299 505.011 802.096 513.01 789.79 520.848C764.361 537.046 734.719 530.7 722.617 503.314C715.204 486.539 711.616 467.045 710.864 448.588C709.195 407.636 710.559 366.568 710.364 325.549C710.247 300.929 700.076 284.893 682.963 281.052C664.633 276.938 644.414 291.816 632.304 309.545C620.5 326.825 621.672 344.238 621.684 362.496C621.715 411.085 621.991 459.673 622.051 508.262C622.074 527.107 617.098 530.65 598.869 525.286C558.585 513.431 545.503 478.404 567.278 442.369C570.381 437.233 570.058 430.007 571.192 423.725C572.452 416.741 573.563 409.73 574.906 401.743C600.185 416.547 599.53 433.187 573.019 476.575L604.234 495.849C604.234 432.403 604.85 373.206 603.844 314.036C603.557 297.202 593.967 283.906 575.737 280.682C559.053 277.731 538.804 293.376 527.888 305.752C507.541 328.82 513.459 354.995 513.212 380.575C512.671 436.737 513.016 492.907 513.08 549.073C513.089 556.788 511.09 564.151 522.248 568.683C526.569 570.438 529.781 585.438 527.079 591.606C522.014 603.169 512.272 612.694 502.371 625.867L494.476 600.572C484.7 593.979 460.15 609.919 460.578 582.453C460.98 556.643 483.619 570.651 497.083 563.247C497.083 552.568 497.083 540.724 497.083 528.879C497.085 466.402 497.08 403.924 497.069 341.447C497.066 335.14 497.096 328.809 496.598 322.53C494.609 297.443 485.074 283.45 468.394 280.715C448.463 277.447 426.905 291.13 418.107 312.443C416.998 315.127 415.021 317.454 411.926 322.354ZM831.008 395.157H831.377C831.377 416.589 830.202 438.101 831.647 459.436C833.913 492.894 859.007 505.836 887.577 488.355C907.022 476.457 917.895 458.158 918.161 434.965C918.544 401.556 918.407 368.136 918.039 334.725C918.059 325.919 917.032 317.142 914.979 308.578C908.857 284.702 891.738 276.375 868.701 285.225C847.152 293.503 831.135 316.832 831.025 340.307C830.94 358.59 831.008 376.874 831.008 395.157V395.157Z" fill="black"/>
<path d="M261.493 579.416C292.657 543.489 316.554 507.7 314.854 459.667C313.204 413.067 315.14 366.294 312.233 319.8C310.055 284.967 289.35 260.996 257.104 246.468C251.194 243.805 245.095 235.261 244.356 228.829C242.976 216.814 248.164 209.705 262.748 215.845C292.892 228.534 310.765 251.608 321.858 284.205C328.09 271.745 331.349 259.659 338.861 251.446C351.794 237.304 366.808 224.812 382.236 213.352C386.211 210.399 394.981 213.874 401.548 214.395C399.253 223.21 398.014 232.525 394.168 240.604C392.517 244.07 385.327 244.74 380.859 247.071C352.027 262.111 336.185 286.832 334.451 318.283C331.708 368.02 331.551 417.906 330.646 467.734C329.855 511.279 329.718 554.835 328.851 598.377C328.699 606.005 326.366 613.589 321.936 621.227C304.807 600.817 316.701 576.181 310.464 552.165C302.619 564.032 296.454 575.463 288.268 585.204C278.224 597.155 267.784 609.525 255.169 618.39C238.523 630.087 219.335 624.35 209.526 607.863C199.433 590.898 203.257 566.589 217.615 556.448C233.908 544.942 249.016 552.253 261.493 579.416Z" fill="black"/>
<path d="M1430.36 156.705C1441.8 177.943 1431.97 201.65 1436.78 226.792C1441.72 219.509 1445.15 213.402 1449.57 208.135C1463.27 191.838 1475.7 173.925 1491.75 160.31C1507.43 147.013 1526.93 152.324 1537.74 168.438C1548.87 185.024 1546.54 209.013 1532.3 220.124C1519.7 229.953 1507.53 228.444 1497.13 216.66C1493.04 212.03 1490.36 206.159 1486.08 199.319C1457.87 232.319 1433.25 265.39 1434.32 311.469C1435.41 358.734 1433.22 406.108 1435.33 453.307C1436.94 489.545 1456.26 516.423 1490.65 530.216C1501.6 534.611 1505.12 540.96 1504.01 551.743C1502.8 563.414 1498.28 566.809 1486.41 562.115C1455.09 549.728 1437.73 525.319 1425.78 493.6C1421.99 502.051 1419.1 508.936 1415.87 515.654C1405.09 538.044 1389.21 555.718 1365.74 564.803C1360.39 566.871 1352.99 563.642 1346.53 562.851C1348.96 554.129 1349.08 539.604 1354.17 537.585C1404.5 517.642 1416.06 477.157 1416.46 429.109C1417.15 345.173 1418.45 261.243 1419.79 177.314C1419.9 170.34 1422.2 163.4 1423.48 156.444L1430.36 156.705Z" fill="black"/>
<path d="M1553.5 644.327C1554.72 651.174 1555.33 658.203 1557.28 664.834C1562.73 683.281 1566.02 703.066 1575.19 719.535C1587.06 740.851 1610.73 748.078 1632.59 742.486C1653.04 737.254 1670.3 719.405 1670.09 695.633C1669.92 674.933 1666.99 652.129 1657.74 634.116C1642.59 604.649 1622.22 577.663 1602.44 550.81C1569.06 505.5 1535.77 460.359 1520.87 404.871C1511.72 370.801 1509.2 336.461 1519.19 302.214C1526.22 278.093 1539.13 257.653 1562.05 242.706C1570.5 255.705 1572.45 267.615 1560.37 278.062C1529.99 304.332 1525.46 338.166 1532.03 374.693C1539.44 415.884 1559.97 451.365 1583.8 485.056C1609.28 521.083 1636.31 556.101 1660.31 593.076C1683.99 629.553 1695 669.968 1685.47 713.889C1679.06 743.418 1665.04 766.72 1633.34 774.878C1607.89 781.428 1586.8 773.083 1570.48 754.073C1546.09 725.678 1539.18 691.525 1541.98 655.064C1542.26 651.327 1545.34 647.802 1547.12 644.179L1553.5 644.327Z" fill="black"/>
<path d="M194.356 133.463C193.066 125.468 192.828 117.121 190.279 109.549C183.795 90.2866 178.952 69.7208 168.443 52.767C157.306 34.7995 136.798 30.2485 116.093 35.3857C96.7476 40.1857 85.1075 53.6535 79.4095 72.6075C71.5781 98.658 77.0995 123.299 90.7695 145.146C111.121 177.671 133.207 209.19 155.834 240.208C187.955 284.241 217.963 329.146 230.099 383.37C237.23 415.229 238.364 447.025 228.173 478.565C220.783 501.434 207.903 520.287 186.909 534.763C176.999 522.49 175.87 510.43 187.709 500.042C220.475 471.294 226.168 433.909 213.906 396.37C202.348 360.99 184.626 326.952 165.244 294.958C144.412 260.57 117.758 229.75 94.9919 196.456C70.589 160.768 55.0913 121.64 61.3057 77.4027C63.4491 62.145 67.5663 46.1027 75.0936 32.859C96.9449 -5.58842 146.497 -10.6499 176.224 22.0159C201.99 50.3306 209.043 85.0968 206.26 122.266C205.97 126.13 203.072 129.799 201.384 133.558L194.356 133.463Z" fill="black"/>
<path d="M33.409 535.525C10.0818 515.643 2.8134 490.285 1.2869 463.635C-1.7251 411.052 11.9033 362.461 42.3944 319.214C56.5655 299.115 74.6727 283.967 100.342 280.137C109.797 278.726 117.243 279.7 117.87 290.998C118.384 300.262 120.07 310.28 105.675 311.998C77.5441 315.356 59.0532 333.003 45.0571 355.869C25.8402 387.266 15.1543 421.483 18.8035 458.349C20.1654 472.107 26.0695 486.299 33.1867 498.364C40.4386 510.658 42.221 521.017 33.409 535.525Z" fill="black"/>
<path d="M1714.56 242.232C1735.8 259.562 1743.53 281.481 1745.93 304.762C1751.72 360.751 1738.29 412.432 1705.87 458.624C1691.75 478.743 1673.59 493.875 1647.87 497.589C1638.28 498.972 1631.04 497.263 1630.07 486.572C1629.2 476.985 1629.27 467.386 1642.91 465.702C1670.3 462.321 1688.52 445.366 1702.43 423.231C1721.3 393.191 1732.22 360.139 1730.13 324.749C1729.21 309.21 1722.87 292.851 1714.95 279.197C1707.61 266.546 1706.43 256.424 1714.56 242.232Z" fill="black"/>
</svg>
