<svg xmlns="http://www.w3.org/2000/svg" xmlns:xlink="http://www.w3.org/1999/xlink" version="1.1" x="0px" y="0px" viewBox="0 0 64 64" enable-background="new 0 0 64 64" xml:space="preserve"><g><path d="M43.935,24.463V7.493h-1.327V6.805c0-0.17-0.063-0.338-0.195-0.47c-0.129-0.127-0.299-0.192-0.467-0.192H41.26V5.312   c0-0.636-0.194-1.272-0.584-1.757c-0.386-0.486-0.895-0.726-1.407-0.726H24.73c-0.509,0-1.016,0.241-1.407,0.726   c-0.39,0.485-0.582,1.121-0.582,1.757v0.831h-0.685c-0.171,0-0.34,0.065-0.47,0.192c-0.128,0.132-0.195,0.3-0.195,0.47v0.687   h-1.325v16.97h1.325v0.711h-1.325v16.97h1.325v0.706h-1.325v16.97h1.325v0.689c0,0.17,0.067,0.34,0.195,0.466   c0.13,0.132,0.299,0.196,0.47,0.196h19.889c0.168,0,0.338-0.064,0.467-0.196c0.132-0.126,0.195-0.296,0.195-0.466V59.82h1.327   V42.85h-1.327v-0.706h1.327v-16.97h-1.327v-0.711H43.935z M32,57.964c-3.663,0-6.629-2.967-6.629-6.628   c0-3.663,2.967-6.629,6.629-6.629c3.661,0,6.63,2.967,6.63,6.629C38.63,54.998,35.661,57.964,32,57.964z M39.624,51.336   c0-4.206-3.42-7.625-7.624-7.625s-7.624,3.42-7.624,7.625h-0.662c0-4.57,3.716-8.287,8.286-8.287s8.287,3.718,8.287,8.287H39.624z    M25.371,33.656c0-3.663,2.967-6.63,6.629-6.63c3.661,0,6.63,2.968,6.63,6.63c0,3.664-2.969,6.629-6.63,6.629   C28.337,40.286,25.371,37.32,25.371,33.656z M39.624,33.656c0-4.203-3.42-7.623-7.624-7.623s-7.624,3.42-7.624,7.623h-0.662   c0-4.57,3.716-8.288,8.286-8.288c4.57,0,8.287,3.719,8.287,8.288H39.624z M25.371,15.977c0-3.66,2.967-6.629,6.629-6.629   c3.661-0.001,6.63,2.969,6.63,6.629c0,3.664-2.969,6.632-6.63,6.632C28.337,22.608,25.371,19.64,25.371,15.977z M39.624,15.977   c0-4.203-3.42-7.624-7.624-7.624s-7.624,3.421-7.624,7.624h-0.662c0-4.57,3.716-8.285,8.286-8.285   c4.57-0.001,8.287,3.715,8.287,8.285H39.624z"></path><polygon points="18.069,7.691 11.365,7.691 14.745,15.977 18.069,15.977  "></polygon><polygon points="45.932,7.691 45.932,15.977 49.253,15.977 52.635,7.691  "></polygon><polygon points="45.932,25.369 45.932,33.656 49.253,33.656 52.635,25.369  "></polygon><polygon points="18.069,25.369 11.365,25.369 14.745,33.656 18.069,33.656  "></polygon><polygon points="18.069,43.049 11.365,43.049 14.745,51.336 18.069,51.336  "></polygon><polygon points="45.932,43.049 45.932,51.336 49.253,51.336 52.635,43.049  "></polygon></g></svg>