<?xml version="1.0" encoding="UTF-8" standalone="no"?>
<svg
   xmlns:dc="http://purl.org/dc/elements/1.1/"
   xmlns:cc="http://creativecommons.org/ns#"
   xmlns:rdf="http://www.w3.org/1999/02/22-rdf-syntax-ns#"
   xmlns:svg="http://www.w3.org/2000/svg"
   xmlns="http://www.w3.org/2000/svg"
   xmlns:sodipodi="http://sodipodi.sourceforge.net/DTD/sodipodi-0.dtd"
   xmlns:inkscape="http://www.inkscape.org/namespaces/inkscape"
   width="200pt"
   height="200pt"
   viewBox="0 0 200 200"
   version="1.1"
   id="svg2486"
   sodipodi:version="0.32"
   inkscape:version="0.46"
   sodipodi:docname="Trefoil knot right.svg"
   inkscape:output_extension="org.inkscape.output.svg.inkscape">
  <metadata
     id="metadata2511">
    <rdf:RDF>
      <cc:Work
         rdf:about="">
        <dc:format>image/svg+xml</dc:format>
        <dc:type
           rdf:resource="http://purl.org/dc/dcmitype/StillImage" />
      </cc:Work>
    </rdf:RDF>
  </metadata>
  <sodipodi:namedview
     inkscape:window-height="968"
     inkscape:window-width="1280"
     inkscape:pageshadow="2"
     inkscape:pageopacity="0.0"
     guidetolerance="10.0"
     gridtolerance="10.0"
     objecttolerance="10.0"
     borderopacity="1.0"
     bordercolor="#666666"
     pagecolor="#ffffff"
     id="base"
     showgrid="false"
     inkscape:zoom="1.3067333"
     inkscape:cx="249.63266"
     inkscape:cy="62.855447"
     inkscape:window-x="-4"
     inkscape:window-y="-4"
     inkscape:current-layer="svg2486" />
  <defs
     id="defs2488">
    <inkscape:perspective
       sodipodi:type="inkscape:persp3d"
       inkscape:vp_x="0 : 125 : 1"
       inkscape:vp_y="0 : 1000 : 0"
       inkscape:vp_z="250 : 125 : 1"
       inkscape:persp3d-origin="125 : 83.333333 : 1"
       id="perspective2513" />
    <clipPath
       id="clip0">
      <rect
         width="200"
         height="200"
         id="rect2491" />
    </clipPath>
  </defs>
  <path
     id="path2494"
     d="M 0,0 L 200,0 L 200,200 L 0,200 L 0,0 z"
     style="fill:none;stroke:#ffffff;stroke-width:0.1;stroke-linecap:butt;stroke-linejoin:miter;stroke-miterlimit:10" />
  <path
     id="path2498"
     d="M 106.85867,15.599747 C 92.129179,12.776001 77.123979,20.389191 67.960239,31.689575 C 56.685039,45.118637 51.597919,62.741379 50.716579,80.018753 C 50.273619,92.943802 52.764369,105.88356 57.469789,117.90243 C 64.745639,135.46809 75.301439,152.14925 90.362779,164.03897 C 92.774669,162.65706 95.146419,161.21078 97.483739,159.70999 C 91.839799,154.72711 86.030529,149.83615 81.470919,143.7885 C 69.515759,128.22578 60.696289,109.70233 58.938399,89.978058 C 57.763899,72.451004 61.470369,54.040878 71.904329,39.640686 C 78.262989,30.754318 88.085249,23.760864 99.227659,23.004608 C 109.70795,22.590134 119.36897,28.52504 126.06642,36.202667 C 135.46762,47.182343 140.01814,61.524445 141.41617,75.728561 C 144.15082,76.552887 146.83908,77.522247 149.48434,78.597549 C 148.92412,64.577164 145.10776,50.545502 137.73999,38.553406 C 130.79414,27.439133 119.99826,18.11586 106.85867,15.599747 z"
     style="fill:none;stroke:#000000;stroke-width:0.1;stroke-linecap:butt;stroke-linejoin:miter;stroke-miterlimit:10" />
  <path
     id="path2500"
     d="M 106.85867,15.599747 C 92.129179,12.776001 77.123979,20.389191 67.960239,31.689575 C 56.685039,45.118637 51.597919,62.741379 50.716579,80.018753 C 50.273619,92.943802 52.764369,105.88356 57.469789,117.90243 C 64.745639,135.46809 75.301439,152.14925 90.362779,164.03897 C 92.774669,162.65706 95.146419,161.21078 97.483739,159.70999 C 91.839799,154.72711 86.030529,149.83615 81.470919,143.7885 C 69.515759,128.22578 60.696289,109.70233 58.938399,89.978058 C 57.763899,72.451004 61.470369,54.040878 71.904329,39.640686 C 78.262989,30.754318 88.085249,23.760864 99.227659,23.004608 C 109.70795,22.590134 119.36897,28.52504 126.06642,36.202667 C 135.46762,47.182343 140.01814,61.524445 141.41617,75.728561 C 144.15082,76.552887 146.83908,77.522247 149.48434,78.597549 C 148.92412,64.577164 145.10776,50.545502 137.73999,38.553406 C 130.79414,27.439133 119.99826,18.11586 106.85867,15.599747 z"
     style="fill:#000000;fill-rule:nonzero;stroke:none" />
  <path
     id="path2502"
     d="M 147.92093,82.339767 C 131.77606,75.120453 113.79208,73.507401 96.303759,73.905609 C 85.048489,73.990738 73.609479,74.787079 62.846889,78.303467 C 62.585619,81.068481 62.482769,83.845367 62.584029,86.622925 C 74.710829,82.641434 87.569059,81.684677 100.25792,81.772141 C 113.50754,81.890411 126.97086,82.983246 139.50018,87.595261 C 157.45923,94.051147 173.82596,106.4809 182.72287,123.61052 C 186.66615,131.79286 189.29823,141.33128 186.59438,150.31045 C 183.96136,161.84018 173.8479,170.27501 162.8233,173.47672 C 146.12602,178.84361 128.00018,175.09146 112.28542,168.32153 C 109.99901,170.22192 107.58809,171.96417 105.16579,173.68845 C 118.4902,180.36499 133.32307,184.38042 148.29408,183.98366 C 160.19354,183.5498 172.38863,180.04552 181.66887,172.35745 C 191.52075,164.49789 196.71576,151.47577 195.46858,138.98613 C 194.34821,126.40183 188.08609,114.79196 179.96773,105.32024 C 171.14966,95.430832 160.12868,87.505219 147.92093,82.339767 z"
     style="fill:none;stroke:#000000;stroke-width:0.1;stroke-linecap:butt;stroke-linejoin:miter;stroke-miterlimit:10" />
  <path
     id="path2504"
     d="M 147.92093,82.339767 C 131.77606,75.120453 113.79208,73.507401 96.303759,73.905609 C 85.048489,73.990738 73.609479,74.787079 62.846889,78.303467 C 62.585619,81.068481 62.482769,83.845367 62.584029,86.622925 C 74.710829,82.641434 87.569059,81.684677 100.25792,81.772141 C 113.50754,81.890411 126.97086,82.983246 139.50018,87.595261 C 157.45923,94.051147 173.82596,106.4809 182.72287,123.61052 C 186.66615,131.79286 189.29823,141.33128 186.59438,150.31045 C 183.96136,161.84018 173.8479,170.27501 162.8233,173.47672 C 146.12602,178.84361 128.00018,175.09146 112.28542,168.32153 C 109.99901,170.22192 107.58809,171.96417 105.16579,173.68845 C 118.4902,180.36499 133.32307,184.38042 148.29408,183.98366 C 160.19354,183.5498 172.38863,180.04552 181.66887,172.35745 C 191.52075,164.49789 196.71576,151.47577 195.46858,138.98613 C 194.34821,126.40183 188.08609,114.79196 179.96773,105.32024 C 171.14966,95.430832 160.12868,87.505219 147.92093,82.339767 z"
     style="fill:#000000;fill-rule:nonzero;stroke:none" />
  <path
     id="path2506"
     d="M 46.629119,84.875732 C 34.287079,90.910156 23.552429,100.15553 15.565279,111.31943 C 9.4463191,120.39208 4.8568891,130.90591 4.6191091,141.99255 C 4.3088991,154.18378 9.6498891,166.40074 19.226879,174.05405 C 30.863189,183.4154 46.564129,186.80774 61.231369,185.18527 C 76.521519,183.93057 91.262929,178.20692 103.94504,169.67574 C 119.36702,159.35463 130.71817,143.95377 138.59251,127.33235 C 143.58676,117.50302 146.98578,106.88367 148.78705,96.014374 C 146.33258,94.672745 143.78627,93.510117 141.19965,92.448105 C 139.15714,108.13388 132.8307,122.93907 124.5491,136.30702 C 114.7739,152.34645 99.917129,165.43007 82.276439,172.10614 C 70.286409,176.75475 57.068559,178.78275 44.310439,176.69435 C 33.478819,174.66122 22.617129,169.09863 16.935429,159.2899 C 11.950029,150.60649 11.356339,139.78311 14.770339,130.43123 C 20.279449,114.55592 32.668469,101.69089 47.200559,93.636734 C 47.155519,90.708817 46.872389,87.790955 46.629119,84.875732 z"
     style="fill:none;stroke:#000000;stroke-width:0.1;stroke-linecap:butt;stroke-linejoin:miter;stroke-miterlimit:10" />
  <path
     id="path2508"
     d="M 46.629119,84.875732 C 34.287079,90.910156 23.552429,100.15553 15.565279,111.31943 C 9.4463191,120.39208 4.8568891,130.90591 4.6191091,141.99255 C 4.3088991,154.18378 9.6498891,166.40074 19.226879,174.05405 C 30.863189,183.4154 46.564129,186.80774 61.231369,185.18527 C 76.521519,183.93057 91.262929,178.20692 103.94504,169.67574 C 119.36702,159.35463 130.71817,143.95377 138.59251,127.33235 C 143.58676,117.50302 146.98578,106.88367 148.78705,96.014374 C 146.33258,94.672745 143.78627,93.510117 141.19965,92.448105 C 139.15714,108.13388 132.8307,122.93907 124.5491,136.30702 C 114.7739,152.34645 99.917129,165.43007 82.276439,172.10614 C 70.286409,176.75475 57.068559,178.78275 44.310439,176.69435 C 33.478819,174.66122 22.617129,169.09863 16.935429,159.2899 C 11.950029,150.60649 11.356339,139.78311 14.770339,130.43123 C 20.279449,114.55592 32.668469,101.69089 47.200559,93.636734 C 47.155519,90.708817 46.872389,87.790955 46.629119,84.875732 z"
     style="fill:#000000;fill-rule:nonzero;stroke:none" />
</svg>
