<?xml version="1.0" encoding="utf-8"?>
<!-- Generator: Adobe Illustrator 21.0.2, SVG Export Plug-In . SVG Version: 6.00 Build 0)  -->
<svg version="1.1" id="Layer_1" xmlns="http://www.w3.org/2000/svg" xmlns:xlink="http://www.w3.org/1999/xlink" x="0px" y="0px"
	 viewBox="0 0 2500 2500" style="enable-background:new 0 0 2500 2500;" xml:space="preserve">
<style type="text/css">
	.st0{fill:#02B3E4;}
</style>
<g id="_x38_0-mark-white">
	<path id="mark_28_" class="st0" d="M831.2,0C670.4,93.1,509.5,186.3,348.6,279.4C232.4,346.7,116.2,414,0,481.2
		c0,366.7,0,733.3,0,1100C0,2087.5,406.2,2500,912.5,2500c168.8,0,325-43.8,462.5-118.8l675-387.5c268.8-143.7,450-418.7,450-743.7
		V100L2337.5,6.2L1625,387.5v1200c0,50-6.2,100-12.5,150c-12.5,50-25,93.8-43.8,137.5l-18.7,37.5c-25,0-181.2-56.2-262.5-112.5
		c-37.5-25-68.8-50-100-81.2s-56.2-62.5-81.2-100c-25-37.5-43.8-75-62.5-112.5c-18.7-37.5-31.2-81.2-37.5-125
		c-6.2-43.8-6.2-87.5-6.2-131.2c0-235.5,0-470.9,0-706.4c0-147.9,0-295.7,0-443.6C943.7,66.7,887.5,33.3,831.2,0z M1237.5,2262.5
		c-43.8,18.8-106.3,43.8-156.2,56.3c-50,12.5-93.8,12.5-143.8,12.5s-100-6.2-150-18.8c-50-12.5-93.8-25-137.5-43.8
		c-43.8-18.8-87.5-43.8-125-68.8c-112.5-68.8-168.7-131.3-212.5-200c-25-37.5-50-81.2-68.8-125s-31.2-93.8-43.8-143.8
		c-12.5-50-12.5-100-12.5-150c0-255.3,0-510.5,0-765.8c0-80.2,0-160.3,0-240.5c56.1-34.2,112.2-68.4,168.2-102.6
		C508,379.5,660.2,286.6,812.5,193.8c0,352.1,0,704.2,0,1056.2c0,400,293.8,737.5,668.8,818.8c-12.5,18.7-25,37.5-43.8,50
		C1368.8,2187.5,1312.5,2231.2,1237.5,2262.5L1237.5,2262.5z M2300,1387.5c-6.2,43.8-25,87.5-37.5,125
		c-18.8,37.5-37.5,75-62.5,112.5c-25,37.5-100,131.2-200,187.5c-100,56.2-193.8,75-250,87.5c37.5-100,62.5-200,62.5-312.5V481.2
		l500-287.5V1250C2312.5,1300,2312.5,1343.8,2300,1387.5z"/>
</g>
</svg>
