<?xml version="1.0" encoding="utf-8"?>
<!-- Generator: Adobe Illustrator 21.0.2, SVG Export Plug-In . SVG Version: 6.00 Build 0)  -->
<svg version="1.1" xmlns="http://www.w3.org/2000/svg" xmlns:xlink="http://www.w3.org/1999/xlink" x="0px" y="0px"
	 viewBox="0 0 884.3 737.7" style="enable-background:new 0 0 884.3 737.7;" xml:space="preserve">
<style type="text/css">
	.st0{fill:none;stroke:#000000;stroke-width:3;stroke-miterlimit:10;}
</style>
<g id="Layer_2">
</g>
<g id="Layer_1">
	<path class="st0" d="M169.8,204.1c10.2-9.7,23.9-20.6,41.2-32.6c11.7-8.1,36.8-25.6,72.3-39.7c11.5-4.6,41.1-14.8,78.5-21
		c53.6-8.8,93.4-3,104.7-1.5c13.8,1.8,53.4,7.6,99.3,27.7c40.6,17.8,67.9,37.8,81.4,48.6c17.5,14,55.9,47.6,87.6,101
		c28.5,48.1,38.2,90.7,41.9,107.6c4.1,18.5,10.3,53.1,7.6,98.2c-1.6,26.5-5.9,48.8-10.1,65.6c-14.1,12.5-33.6,28.2-59.7,43.5
		c-6.6,3.9-36.3,23.1-80.7,36.5c-21.5,6.5-61.7,17.3-115.2,16.7c-18.3-0.2-80.3-3.3-149.8-35.5c-47-21.7-76.7-47.8-87.3-57.2
		c-10.4-9.2-41.6-37-69.8-83.9c-34.7-57.8-43.8-108.9-46.9-127.6c-3.1-18.9-7.8-51.7-4.4-90.9C162.5,237.4,166.2,218.5,169.8,204.1z
		"/>
</g>
</svg>
