<?xml version="1.0" encoding="utf-8"?>
<!-- Generator: Adobe Illustrator 21.0.2, SVG Export Plug-In . SVG Version: 6.00 Build 0)  -->
<svg version="1.1" xmlns="http://www.w3.org/2000/svg" xmlns:xlink="http://www.w3.org/1999/xlink" x="0px" y="0px"
	 viewBox="0 0 884.3 737.7" style="enable-background:new 0 0 884.3 737.7;" xml:space="preserve">
<style type="text/css">
	.st0{fill:none;stroke:#000000;stroke-width:3;stroke-miterlimit:10;}
</style>
<g id="Layer_2">
</g>
<g id="Layer_1">
	<path class="st0" d="M190,682c-23.1-21.5-57.2-59.7-83.3-117.3c-31.3-69.2-33.1-130.4-32.5-157.5c0.4-21.1,3.5-78.6,33.5-144.5
		C143,184.7,195.1,143,206.2,134c10.1-8.2,58.5-48.9,134.8-69.6c82.6-22.5,150-10.9,168.2-7.4c22,4.3,89,19.2,155.3,70.4
		c81,62.7,110.6,140.2,117,157.5c7.2,19.2,11.4,34,13.9,46.2c-21-20.4-57.2-48.5-109.7-70.3c-16.4-6.8-56.5-22-110.6-25.9
		c-18.6-1.4-71.5-4.8-135.7,14.8c-77.7,23.6-126.7,66.7-140.3,78.8c-45.9,41.1-71.4,87-86.4,119.6c-25.7,55.9-30.4,103-31.6,119.5
		C177.5,616.5,183,656.3,190,682z"/>
</g>
</svg>
