<?xml version="1.0" encoding="utf-8"?>
<!-- Generator: Adobe Illustrator 21.0.2, SVG Export Plug-In . SVG Version: 6.00 Build 0)  -->
<svg version="1.1" xmlns="http://www.w3.org/2000/svg" xmlns:xlink="http://www.w3.org/1999/xlink" x="0px" y="0px"
	 viewBox="0 0 884.3 737.7" style="enable-background:new 0 0 884.3 737.7;" xml:space="preserve">
<style type="text/css">
	.st0{fill:none;stroke:#000000;stroke-width:3;stroke-miterlimit:10;}
</style>
<g id="Layer_2">
</g>
<g id="Layer_1">
	<path class="st0" d="M247.6,339.1c20.2-19.2,51.2-42.4,89.8-61.6c20.4-10.1,61.6-29.2,119.8-35.3c49-5.1,87.1,0.1,101.7,2.9
		c17.5,3.3,32,7.6,42.8,11.1c-22.9,6.3-54.3,18.6-88.1,39.5c-11.8,7.3-41.2,26.5-71.9,59.4c-12.4,13.3-36.7,41.5-58.6,85.2
		c-28.5,56.9-35.2,106.6-36.9,122.1c-5.6,49.6-0.3,90.2,2.9,109.7c1.2,7.3,3.4,13.4,4.2,17.6c-24.6-24.2-60.3-64.8-85.2-123.4
		c-23.2-54.5-27.9-101.2-29.2-118.2c-2.3-31.9,0.3-58.4,1.3-67.2C242.1,364,244.9,350.5,247.6,339.1z"/>
</g>
</svg>
