<?xml version="1.0" encoding="utf-8"?>
<!-- Generator: Adobe Illustrator 21.0.2, SVG Export Plug-In . SVG Version: 6.00 Build 0)  -->
<svg version="1.1" xmlns="http://www.w3.org/2000/svg" xmlns:xlink="http://www.w3.org/1999/xlink" x="0px" y="0px"
	 viewBox="0 0 884.3 737.7" style="enable-background:new 0 0 884.3 737.7;" xml:space="preserve">
<style type="text/css">
	.st0{fill:none;stroke:#000000;stroke-width:3;stroke-miterlimit:10;}
</style>
<g id="Layer_2">
</g>
<g id="Layer_1">
	<path class="st0" d="M90.6,306.2c7-30.8,23.3-78.6,60-130c44-61.7,96-92.8,119.6-105.9c18.4-10.1,69.6-35.2,141.6-42.1
		c85-8.2,148.8,17.2,162.2,22.3c12.1,4.6,69.8,23.4,126,79.2c60.9,60.5,84.7,124.7,90.8,142.3c7.4,21.2,27.6,85.9,16.6,169
		c-13.4,101.6-65,166.8-76.7,181.1c-13,15.8-25.3,27.8-34.6,36.1c7.1-28.4,13.9-74.8,6.3-131.2c-2.4-17.6-8.4-60-32.1-108.9
		c-8.2-16.8-32.6-63.9-81.7-109.9c-59.4-55.6-121.3-76.2-138.6-81.9c-58.5-19.3-109.6-18.9-145.2-15.6
		c-61.2,5.6-105.1,25.6-119.8,32.7C140.9,264.6,109.3,287.2,90.6,306.2z"/>
</g>
</svg>
