<?xml version="1.0" encoding="utf-8"?>
<!-- Generator: Adobe Illustrator 19.1.0, SVG Export Plug-In . SVG Version: 6.00 Build 0)  -->
<svg version="1.1" id="Layer_1" xmlns="http://www.w3.org/2000/svg" xmlns:xlink="http://www.w3.org/1999/xlink" x="0px" y="0px"
	 viewBox="0 0 612 436.6" style="enable-background:new 0 0 612 436.6;" xml:space="preserve">
<style type="text/css">
	.st0{fill:#020200;}
</style>
<path class="st0" d="M458.3,341.9H157.4c-23.1,0-41.9-22.9-41.9-45.9V110.3c0-23.1,18.9-41.9,41.9-41.9h300.9
	c23.1,0,41.9,18.9,41.9,41.9V296C500.2,319,481.3,341.9,458.3,341.9z M481.9,281.3V120.4c0-23.1-18.9-36.9-41.9-36.9H174.4
	c-23.1,0-41.9,13.9-41.9,36.9v160.9c0,23.1,16.5,40,39.6,40l267.9,0C476.4,319.7,481.9,304.4,481.9,281.3z"/>
<path d="M272.2,251.1l-1.8-103c0-0.8,94.1,52.3,94.1,52.3L272.2,251.1z"/>
</svg>
