<svg height='100px' width='100px'  fill="#000000" xmlns="http://www.w3.org/2000/svg" xmlns:xlink="http://www.w3.org/1999/xlink" version="1.1" x="0px" y="0px" viewBox="0 0 64 64" style="enable-background:new 0 0 64 64;" xml:space="preserve"><g><text transform="matrix(1 0 0 1 -466.04 -118)"><tspan x="0" y="0" style="" font-family="&apos;Montserrat-Regular&apos;" font-size="10px">me</tspan><tspan x="15.92" y="0" style="" font-family="&apos;Montserrat-Regular&apos;" font-size="10px">d</tspan><tspan x="23.58" y="0" style="" font-family="&apos;Montserrat-Regular&apos;" font-size="10px">al</tspan></text><text transform="matrix(1 0 0 1 -365.98 -118)"><tspan x="0" y="0" style="" font-family="&apos;Montserrat-Regular&apos;" font-size="10px">g</tspan><tspan x="7.51" y="0" style="" font-family="&apos;Montserrat-Regular&apos;" font-size="10px">o</tspan><tspan x="15.46" y="0" style="" font-family="&apos;Montserrat-Regular&apos;" font-size="10px">al</tspan></text><text transform="matrix(1 0 0 1 -372.9897 -22)"><tspan x="0" y="0" style="" font-family="&apos;Montserrat-Regular&apos;" font-size="10px">pri</tspan><tspan x="16.9" y="0" style="" font-family="&apos;Montserrat-Regular&apos;" font-size="10px">v</tspan><tspan x="23.19" y="0" style="" font-family="&apos;Montserrat-Regular&apos;" font-size="10px">a</tspan><tspan x="29.78" y="0" style="" font-family="&apos;Montserrat-Regular&apos;" font-size="10px">te</tspan></text><text transform="matrix(1 0 0 1 -266.6797 -118)" style="" font-family="&apos;Montserrat-Regular&apos;" font-size="10px">win</text><text transform="matrix(1 0 0 1 -172.29 -118)" style="" font-family="&apos;Montserrat-Regular&apos;" font-size="10px">idea</text><text transform="matrix(1 0 0 1 -84.7598 -118)"><tspan x="0" y="0" style="" font-family="&apos;Montserrat-Regular&apos;" font-size="10px">gr</tspan><tspan x="14.74" y="0" style="" font-family="&apos;Montserrat-Regular&apos;" font-size="10px">o</tspan><tspan x="22.77" y="0" style="" font-family="&apos;Montserrat-Regular&apos;" font-size="10px">wt </tspan></text><text transform="matrix(1 0 0 1 0.5503 -118)" style="" font-family="&apos;Montserrat-Regular&apos;" font-size="10px">discussion</text><text transform="matrix(1 0 0 1 -460.4248 -22)" style="" font-family="&apos;Montserrat-Regular&apos;" font-size="10px">mail</text><text transform="matrix(1 0 0 1 -279.4346 -22)" style="" font-family="&apos;Montserrat-Regular&apos;" font-size="10px">sending</text><text transform="matrix(1 0 0 1 -175.3647 -22)" style="" font-family="&apos;Montserrat-Regular&apos;" font-size="10px">virus</text><text transform="matrix(1 0 0 1 -102.9897 -22)" style="" font-family="&apos;Montserrat-Regular&apos;" font-size="10px">chromosome</text><text transform="matrix(1 0 0 1 20.4854 -22)" style="" font-family="&apos;Montserrat-Regular&apos;" font-size="10px">DNA</text><text transform="matrix(1 0 0 1 -480.6396 74)"><tspan x="0" y="0" style="" font-family="&apos;Montserrat-Regular&apos;" font-size="10px">M</tspan><tspan x="9.39" y="0" style="" font-family="&apos;Montserrat-Regular&apos;" font-size="10px">a</tspan><tspan x="16.48" y="0" style="" font-family="&apos;Montserrat-Regular&apos;" font-size="10px">gnifying</tspan><tspan x="16.475" y="12" style="" font-family="&apos;Montserrat-Regular&apos;" font-size="10px">g</tspan><tspan x="23.984" y="12" style="" font-family="&apos;Montserrat-Regular&apos;" font-size="10px">l</tspan><tspan x="29.294" y="12" style="" font-family="&apos;Montserrat-Regular&apos;" font-size="10px">a</tspan><tspan x="36.484" y="12" style="" font-family="&apos;Montserrat-Regular&apos;" font-size="10px">ss</tspan></text><text transform="matrix(1 0 0 1 -386.3696 74)"><tspan x="0" y="0" style="" font-family="&apos;Montserrat-Regular&apos;" font-size="10px">a</tspan><tspan x="7.19" y="0" style="" font-family="&apos;Montserrat-Regular&apos;" font-size="10px">stronomy </tspan></text><text transform="matrix(1 0 0 1 -271.7847 74)" style="" font-family="&apos;Montserrat-Regular&apos;" font-size="10px">think</text><text transform="matrix(1 0 0 1 -198.6899 74)"><tspan x="0" y="0" style="" font-family="&apos;Montserrat-Regular&apos;" font-size="10px">presen</tspan><tspan x="41.1" y="0" style="" font-family="&apos;Montserrat-Regular&apos;" font-size="10px">ta</tspan><tspan x="52.69" y="0" style="" font-family="&apos;Montserrat-Regular&apos;" font-size="10px">tion</tspan></text><text transform="matrix(1 0 0 1 -84.5698 74)"><tspan x="0" y="0" style="" font-family="&apos;Montserrat-Regular&apos;" font-size="10px">s</tspan><tspan x="6.09" y="0" style="" font-family="&apos;Montserrat-Regular&apos;" font-size="10px">a</tspan><tspan x="12.68" y="0" style="" font-family="&apos;Montserrat-Regular&apos;" font-size="10px">turn</tspan></text><text transform="matrix(1 0 0 1 7.8301 74)" style="" font-family="&apos;Montserrat-Regular&apos;" font-size="10px">microbe</text><text transform="matrix(1 0 0 1 -488.1099 170)" style="" font-family="&apos;Montserrat-Regular&apos;" font-size="10px">thermometer</text><text transform="matrix(1 0 0 1 -381.5396 170)"><tspan x="0" y="0" style="" font-family="&apos;Montserrat-Regular&apos;" font-size="10px">chemist</tspan><tspan x="45.629" y="0" style="" font-family="&apos;Montserrat-Regular&apos;" font-size="10px">r</tspan><tspan x="52.78" y="0" style="" font-family="&apos;Montserrat-Regular&apos;" font-size="10px">y</tspan></text><text transform="matrix(1 0 0 1 -270.665 170)"><tspan x="0" y="0" style="" font-family="&apos;Montserrat-Regular&apos;" font-size="10px">a</tspan><tspan x="6.59" y="0" style="" font-family="&apos;Montserrat-Regular&apos;" font-size="10px">t</tspan><tspan x="11.82" y="0" style="" font-family="&apos;Montserrat-Regular&apos;" font-size="10px">om</tspan></text><text transform="matrix(1 0 0 1 -187.8296 170)" style="" font-family="&apos;Montserrat-Regular&apos;" font-size="10px">molecule</text><text transform="matrix(1 0 0 1 -97.1299 170)" style="" font-family="&apos;Montserrat-Regular&apos;" font-size="10px">experiment</text><text transform="matrix(1 0 0 1 8.3901 170)" style="" font-family="&apos;Montserrat-Regular&apos;" font-size="10px">timeline</text><text transform="matrix(1 0 0 1 -474.2197 266)"><tspan x="0" y="0" style="" font-family="&apos;Montserrat-Regular&apos;" font-size="10px">Fishbone</tspan><tspan x="0.275" y="12" style="" font-family="&apos;Montserrat-Regular&apos;" font-size="10px">Di</tspan><tspan x="11.064" y="12" style="" font-family="&apos;Montserrat-Regular&apos;" font-size="10px">a</tspan><tspan x="18.155" y="12" style="" font-family="&apos;Montserrat-Regular&apos;" font-size="10px">gram </tspan></text><text transform="matrix(1 0 0 1 -371.3647 266)"><tspan x="0" y="0" style="" font-family="&apos;Montserrat-Regular&apos;" font-size="10px">bina</tspan><tspan x="25.28" y="0" style="" font-family="&apos;Montserrat-Regular&apos;" font-size="10px">r</tspan><tspan x="32.43" y="0" style="" font-family="&apos;Montserrat-Regular&apos;" font-size="10px">y</tspan><tspan x="6.385" y="12" style="" font-family="&apos;Montserrat-Regular&apos;" font-size="10px">tree</tspan></text><text transform="matrix(1 0 0 1 -270.585 266)"><tspan x="0" y="0" style="" font-family="&apos;Montserrat-Regular&apos;" font-size="10px">venn</tspan><tspan x="-10.05" y="12" style="" font-family="&apos;Montserrat-Regular&apos;" font-size="10px">di</tspan><tspan x="0.74" y="12" style="" font-family="&apos;Montserrat-Regular&apos;" font-size="10px">a</tspan><tspan x="7.83" y="12" style="" font-family="&apos;Montserrat-Regular&apos;" font-size="10px">gram</tspan></text><text transform="matrix(1 0 0 1 -174.665 266)"><tspan x="0" y="0" style="" font-family="&apos;Montserrat-Regular&apos;" font-size="10px">a</tspan><tspan x="6.59" y="0" style="" font-family="&apos;Montserrat-Regular&apos;" font-size="10px">t</tspan><tspan x="11.82" y="0" style="" font-family="&apos;Montserrat-Regular&apos;" font-size="10px">om</tspan></text><text transform="matrix(1 0 0 1 -94.9097 266)" style="" font-family="&apos;Montserrat-Regular&apos;" font-size="10px">molecules</text><text transform="matrix(1 0 0 1 -1.1299 266)" style="" font-family="&apos;Montserrat-Regular&apos;" font-size="10px">experiment</text></g><path d="M38.198,38.412l-3.122,1.82l-0.027-11.566l7.711-5.635L42.725,8.816L32.116,3.362L31.427,3L20.151,8.873l0.036,14.212  l7.727,5.597l0.029,11.907l-3.715-2.142L8.504,51.64c-0.237,0.199-0.383,0.475-0.411,0.784c-0.028,0.309,0.067,0.609,0.263,0.845  c0.22,0.262,0.543,0.414,0.883,0.414h0.009c0.274,0,0.538-0.099,0.736-0.271l14.49-12.156l3.445,1.988l-4.625,0.924l-1.57,16.556  c-0.054,0.625,0.411,1.187,1.048,1.253l0.104,0.004c0.598,0,1.092-0.45,1.15-1.047l1.405-14.844l5.296-1.074l1.002-0.003  l5.297,1.046l1.481,14.83c0.054,0.597,0.547,1.048,1.147,1.05l0.126-0.008c0.63-0.071,1.092-0.637,1.026-1.264l-1.65-16.54  l-4.073-0.806l-0.001-0.419l2.88-1.681l14.546,12.079c0.206,0.173,0.469,0.27,0.738,0.27h0.002c0.348,0,0.671-0.153,0.884-0.413  c0.199-0.237,0.294-0.537,0.266-0.846c-0.028-0.309-0.173-0.588-0.412-0.785L38.198,38.412z M38.55,21.501  c-0.398,0.322-0.977,0.261-1.298-0.136c-0.32-0.397-0.262-0.979,0.138-1.301c0.396-0.32,0.977-0.259,1.298,0.138  C39.011,20.599,38.946,21.181,38.55,21.501z M38.613,17.664c-0.529,0.424-1.305,0.343-1.733-0.184  c-0.428-0.529-0.345-1.305,0.181-1.733c0.53-0.426,1.306-0.345,1.733,0.185C39.222,16.459,39.14,17.234,38.613,17.664z M36.7,10.892  c0.662-0.534,1.629-0.433,2.163,0.229c0.536,0.661,0.434,1.63-0.227,2.165c-0.661,0.533-1.629,0.431-2.167-0.229  C35.935,12.396,36.037,11.427,36.7,10.892z"></path><ellipse transform="matrix(0.8122 -0.5833 0.5833 0.8122 -27.1259 25.5279)" cx="26.09" cy="54.899" rx="0.967" ry="0.968"></ellipse><ellipse transform="matrix(0.8116 -0.5842 0.5842 0.8116 -28.8612 26.0936)" cx="26.032" cy="57.801" rx="0.773" ry="0.774"></ellipse><ellipse transform="matrix(0.8123 -0.5832 0.5832 0.8123 -30.3311 26.472)" cx="25.967" cy="60.365" rx="0.581" ry="0.58"></ellipse></svg>