<?xml version="1.0" encoding="utf-8"?>
<!-- Generator: Adobe Illustrator 21.0.2, SVG Export Plug-In . SVG Version: 6.00 Build 0)  -->
<svg version="1.1"
	 id="Layer_1" inkscape:version="0.91 r13725" sodipodi:docname="Visa_2006.svg" xmlns:cc="http://creativecommons.org/ns#" xmlns:dc="http://purl.org/dc/elements/1.1/" xmlns:inkscape="http://www.inkscape.org/namespaces/inkscape" xmlns:rdf="http://www.w3.org/1999/02/22-rdf-syntax-ns#" xmlns:sodipodi="http://sodipodi.sourceforge.net/DTD/sodipodi-0.dtd" xmlns:svg="http://www.w3.org/2000/svg"
	 xmlns="http://www.w3.org/2000/svg" xmlns:xlink="http://www.w3.org/1999/xlink" x="0px" y="0px" viewBox="0 0 1000 323.7"
	 style="enable-background:new 0 0 1000 323.7;" xml:space="preserve">
<style type="text/css">
	.st0{fill:#00579F;}
	.st1{fill:#FAA61A;}
</style>
<sodipodi:namedview  bordercolor="#666666" borderopacity="1" gridtolerance="10" guidetolerance="10" id="namedview19" inkscape:current-layer="Layer_1" inkscape:cx="34.690897" inkscape:cy="131.15483" inkscape:pageopacity="0" inkscape:pageshadow="2" inkscape:window-height="705" inkscape:window-maximized="1" inkscape:window-width="1366" inkscape:window-x="-8" inkscape:window-y="-8" inkscape:zoom="0.35355339" objecttolerance="10" pagecolor="#ffffff" showgrid="false">
	</sodipodi:namedview>
<g id="g4158" transform="matrix(4.4299631,0,0,4.4299631,-81.165783,-105.04783)">
	<polygon id="polygon9" class="st0" points="116.1,95.7 97.9,95.7 109.3,25 127.6,25 	"/>
	<path id="path11" inkscape:connector-curvature="0" class="st0" d="M182.4,26.7c-3.6-1.4-9.3-3-16.4-3c-18.1,0-30.8,9.6-30.9,23.4
		c-0.1,10.2,9.1,15.8,16,19.2c7.1,3.5,9.5,5.7,9.5,8.8c-0.1,4.7-5.7,6.9-11,6.9c-7.3,0-11.2-1.1-17.2-3.8l-2.4-1.1L127.6,93
		c4.3,2,12.2,3.7,20.4,3.8c19.2,0,31.7-9.5,31.8-24.2c0.1-8.1-4.8-14.2-15.4-19.3c-6.4-3.2-10.3-5.4-10.3-8.7
		c0.1-3,3.3-6.1,10.5-6.1c5.9-0.2,10.3,1.3,13.6,2.7l1.7,0.8L182.4,26.7C182.4,26.7,182.4,26.7,182.4,26.7z"/>
	<path id="path13" inkscape:connector-curvature="0" class="st0" d="M206.7,70.7c1.5-4.1,7.3-19.8,7.3-19.8
		c-0.1,0.2,1.5-4.1,2.4-6.8l1.3,6.1c0,0,3.5,16.9,4.2,20.5C219.1,70.7,210.4,70.7,206.7,70.7L206.7,70.7z M197.6,95.7
		c0,0,3.2-8.7,3.8-10.6c2.1,0,20.8,0,23.5,0c0.5,2.5,2.2,10.6,2.2,10.6h16.9L229.3,25l0,0c-1.7,0-3.5,0-5.2,0c-3,0-5.9,0-8.9,0
		c-0.7-0.1-3.7-0.3-6.5,1.7c-1.2,0.9-2.3,2.2-3.1,4.2c-0.9,2.2-1.9,4.4-2.8,6.6c-8.1,19.4-16.3,38.8-24.4,58.2
		C184.8,95.7,191.2,95.7,197.6,95.7"/>
	<path id="path15" inkscape:connector-curvature="0" class="st0" d="M82.6,25L64.7,73.2l-2-9.8C59.4,52.2,49,39.9,37.4,33.8
		l16.4,61.8h19.3L101.9,25L82.6,25L82.6,25L82.6,25z"/>
	<path id="path17" inkscape:connector-curvature="0" class="st1" d="M48,25H18.6l-0.3,1.4c23,5.9,38.2,20,44.4,37l-6.4-32.5
		C55.3,26.4,52,25.1,48,25L48,25z"/>
</g>
</svg>
