<?xml version="1.0" encoding="utf-8"?>
<!-- Generator: Adobe Illustrator 22.1.0, SVG Export Plug-In . SVG Version: 6.00 Build 0)  -->
<svg version="1.1" id="Layer_1" xmlns="http://www.w3.org/2000/svg" xmlns:xlink="http://www.w3.org/1999/xlink" x="0px" y="0px"
	 viewBox="0 0 100 100" style="enable-background:new 0 0 100 100;" xml:space="preserve">
<title>device jadi</title>
<path d="M17.8,41.6H13c-1.1,0-2,0.9-2,2v12.8c0,1.1,0.9,2,2,2h4.8V41.6z M14.7,56.1c-0.3,0-0.5-0.2-0.5-0.5V44.4
	c0-0.3,0.2-0.5,0.5-0.5s0.5,0.2,0.5,0.5v11.2C15.2,55.9,14.9,56.1,14.7,56.1z"/>
<path d="M87,41.6h-4.8v16.8H87c1.1,0,2-0.9,2-2V43.6C89,42.5,88.1,41.6,87,41.6z M85.8,55.6c0,0,0,0.3-0.2,0.4
	c-0.1,0.1-0.2,0.1-0.3,0.1c-0.2,0-0.4-0.1-0.4-0.2c-0.1-0.1-0.1-0.3-0.1-0.3c0-3.7,0-7.5,0-11.2c0,0,0-0.2,0.2-0.4
	c0.1-0.1,0.3-0.1,0.3-0.1s0.2,0,0.3,0.1c0.2,0.1,0.2,0.4,0.2,0.4C85.8,48.1,85.8,51.9,85.8,55.6z"/>
<path d="M76.7,36.9H23.3c-2.5,0-4.5,2-4.5,4.5v17.2c0,2.5,2,4.5,4.5,4.5h19c0.4,0,0.8-0.2,1.1-0.4l4.8-4.8c1-1,2.6-1,3.5,0l0,0
	l4.8,4.8c0.3,0.3,0.7,0.4,1.1,0.4h19c2.5,0,4.5-2,4.5-4.5V41.4C81.1,39,79.1,37,76.7,36.9z M61.2,40.1h11.2c0,0,0.2,0,0.3,0.1
	c0.2,0.1,0.2,0.3,0.2,0.4c0,0,0,0.2-0.2,0.4c-0.1,0.1-0.3,0.1-0.3,0.1c-3.7,0-7.4,0-11.2,0c0,0-0.2,0-0.4-0.1
	c-0.1-0.1-0.1-0.3-0.1-0.4c0,0,0-0.2,0.2-0.4C61,40.1,61.1,40.1,61.2,40.1z M27.7,40.1h11.2c0.1,0,0.2,0,0.3,0.1s0.2,0.2,0.2,0.4
	s-0.1,0.3-0.2,0.3c-0.1,0.1-0.3,0.2-0.3,0.2c-3.7,0-7.4,0-11.2,0c0,0-0.3,0-0.4-0.2c0,0-0.1-0.1-0.1-0.3s0.1-0.3,0.2-0.3
	C27.5,40.2,27.6,40.1,27.7,40.1z"/>
</svg>
