<?xml version="1.0" encoding="utf-8"?>
<!-- Generator: Adobe Illustrator 17.1.0, SVG Export Plug-In . SVG Version: 6.00 Build 0)  -->
<!DOCTYPE svg PUBLIC "-//W3C//DTD SVG 1.1//EN" "http://www.w3.org/Graphics/SVG/1.1/DTD/svg11.dtd">
<svg version="1.1" id="Layer_1" xmlns="http://www.w3.org/2000/svg" xmlns:xlink="http://www.w3.org/1999/xlink" x="0px" y="0px"
	 viewBox="0 0 140 72" enable-background="new 0 0 140 72" xml:space="preserve">
<g>
	<path fill="#333333" d="M27.3,0.1c-1.9-0.5-3.3,0.8-3.7,2.4l-2.8,18.1c-0.6,2.8-1.1,6.1-1.1,8.4c0,0,0,0.1-0.1,0.1
		c0,0-0.1,0-0.1-0.1c0-2.3-0.4-5.6-1.1-8.4L15.7,2.5c-0.3-1.6-1.8-2.8-3.7-2.4c-1.6,0.4-2.4,2-2,3.7l9.4,46.1c0,0.1,0.1,0.2,0.2,0.2
		c0.1,0,0.2-0.1,0.2-0.2l9.5-46.1C29.7,2.1,28.9,0.5,27.3,0.1"/>
	<path fill="#333333" d="M37.2,71.6c-4.9,0.1-8.8-3.7-9.8-7.6c-0.5-1.9,0.4-3.6,2-3.9c1.6-0.4,2.9,0.5,3.5,2.3
		c0.5,1.5,2,3.4,4.1,3.4c2.3,0,3.7-1.5,3.7-3.8c0-3.7-1.5-4.8-5.3-8.5c-4.5-4.4-7.6-7.4-7.6-12.5c0-5.7,4-9.8,9.6-9.8
		c4.1,0,8,3,8.8,6.5c0.5,2.1-0.1,3.6-1.6,4.2c-1.4,0.6-3.3,0-3.9-2c-0.7-2.3-2.1-3.1-3.5-3.1c-1.7,0-3.3,1.3-3.3,3.6
		c0,3.4,2.4,5.5,6.2,9.1c6,5.7,6.6,8.5,6.6,11.6C46.7,64.4,45.3,71.4,37.2,71.6"/>
	<path fill="#333333" d="M89.3,60.9V34.3c0-1.7-1.4-3.1-3.1-3.1c-1.7,0-3.1,1.4-3.1,3.1V62c0,2.4-1.2,3.7-3.1,3.7
		c-1.9,0-3.3-1.3-3.3-3.7V34.3c0-1.7-1.4-3.1-3.1-3.1c-1.7,0-3.1,1.4-3.1,3.1v26.4c0,7.1,3.4,10.8,9.5,10.8
		C85.9,71.6,89.3,67.8,89.3,60.9"/>
	<path fill="#333333" d="M102.6,71.6c5.7,0,9.1-4,9.1-10.7v-1c0-1.8-1-3.3-3-3.3c-2,0.1-2.9,1.4-2.9,3.1v2.5c0,2.7-1.2,4-3.2,4
		c-2.1,0-3.4-2.1-3.4-4.8V40.7c0-2.7,1-4,3.2-4c2.2,0,3.2,1.4,3.2,4v1.1c0,1.7,0.8,3.4,2.8,3.4c1.9,0,3.2-1.6,3.2-3.5v-0.9
		c0-6-3.6-9.5-9.2-9.5c-6.3,0-9.5,3.8-9.5,9.8v19.7C92.9,67.9,96.2,71.6,102.6,71.6"/>
	<path fill="#333333" d="M120.9,37.6h6.8c1.6,0,2.8-1.3,2.8-2.8c0-1.6-1.3-2.8-2.8-2.8h-10.5c-1.6,0-2.8,1.3-2.8,2.8V68
		c0,1.6,1.3,2.9,2.9,2.9h10.3c1.6,0,2.9-1.3,2.9-2.9c0-1.6-1.3-2.9-2.9-2.9l-6.7,0c-0.2,0-0.4-0.2-0.4-0.3v-11
		c0-0.2,0.2-0.3,0.4-0.3h4.6c1.6,0,2.8-1.3,2.8-2.8c0-1.6-1.3-2.8-2.8-2.8l-4.6,0c-0.2,0-0.4-0.2-0.4-0.3v-9.5
		C120.6,37.8,120.7,37.6,120.9,37.6"/>
	<path fill="#333333" d="M28.2,26.7l5.3-24.2c0.3-1.6,1.8-2.8,3.7-2.4c1.6,0.4,2.4,2,2,3.7l-5.4,24.1c-0.3,1.5-1.7,2.7-3.6,2.3
		C28.6,29.9,27.8,28.3,28.2,26.7"/>
	<path fill="#333333" d="M28.4,51.4c0.3-1.6-0.4-3.1-1.9-3.5c-1.8-0.4-3.1,0.7-3.4,2.2L20,64.4c-0.1,0.3-0.2,0.3-0.3,0.3
		c-0.1,0-0.3-0.1-0.3-0.3L5.8,2.5C5.4,0.9,4-0.4,2.1,0.1c-1.6,0.4-2.4,2-2,3.7l14.3,63.3c1,3.6,3.3,4.5,5.2,4.5h0h0
		c2,0,4.4-1.1,5.3-4.6L28.4,51.4z"/>
	<path fill="#333333" d="M60.4,56.4h-4.8c-0.2,0-0.3-0.1-0.2-0.3l2.4-16.8c0-0.1,0.1-0.1,0.2-0.1c0.1,0,0.1,0.1,0.2,0.1L60.7,56
		C60.7,56.3,60.6,56.4,60.4,56.4 M68.6,68l-5.8-32.6c-0.7-2.9-2.5-4.2-4.8-4.2c-2.3,0-4.1,1.3-4.7,4.2L47.5,68
		c-0.2,1.7,0.8,3.3,2.4,3.6c1.9,0.3,3.4-1,3.7-2.6l1.1-6.8c0.1-0.3,0.2-0.3,0.3-0.3h6.3c0.1,0,0.3,0.1,0.3,0.3l1,6.8
		c0.3,1.6,1.7,3,3.6,2.6C67.8,71.3,68.8,69.7,68.6,68"/>
</g>
</svg>