<?xml version="1.0" encoding="utf-8"?><!DOCTYPE svg PUBLIC "-//W3C//DTD SVG 1.0//EN" "http://www.w3.org/TR/2001/REC-SVG-20010904/DTD/svg10.dtd"><svg version="1.0" xmlns="http://www.w3.org/2000/svg" xmlns:xlink="http://www.w3.org/1999/xlink" x="0px" y="0px" viewBox="0 0 60.633 100" enable-background="new 0 0 60.633 100" xml:space="preserve"><path d="M30.317,0.002L30.317,0.002c0,0,0,0,0-0.002l0,0l0,0c0,0,0,0-0.002,0l0,0l0,0h-0.001l0,0v0.002V0v0.002h0.001l0,0l0,0
	C30.317,0.002,30.317,0.002,30.317,0.002L30.317,0.002L30.317,0.002L30.317,0.002z M30.315,0.002L30.315,0.002L30.315,0.002V0l0,0
	l0,0c0.002,0,0.002,0,0.002,0C30.317,0.002,30.315,0.002,30.315,0.002L30.315,0.002h0.002C30.317,0.002,30.317,0.002,30.315,0.002z
	 M30.317,0.002L30.317,0.002L30.317,0.002L30.317,0.002L30.317,0.002L30.317,0.002L30.317,0.002z M30.317,0.002L30.317,0.002
	L30.317,0.002L30.317,0.002L30.317,0.002z M30.317,0.002c0,0,0,0,0-0.002l0,0l0,0C30.317,0.002,30.317,0.002,30.317,0.002z"></path><g><path d="M30.317,0.002C36.846,23.783,45.82,32.21,57.114,55.221C68.076,77.556,51.832,100,30.317,100
		C8.8,100-7.444,77.556,3.519,55.221C14.811,32.21,23.787,23.783,30.317,0.002z"></path></g></svg>