<?xml version="1.0" encoding="utf-8"?>
<!-- Generator: Adobe Illustrator 23.0.4, SVG Export Plug-In . SVG Version: 6.00 Build 0)  -->
<svg version="1.0" id="Layer_1" xmlns="http://www.w3.org/2000/svg" xmlns:xlink="http://www.w3.org/1999/xlink" x="0px" y="0px"
	 viewBox="0 0 1920 1080" style="enable-background:new 0 0 1920 1080;" xml:space="preserve">
<g>
	<path d="M1870.9,170.7c-0.8-0.4-1.6-0.6-2.2-0.6c-2,0-3.9,0.9-5.5,2.7c-1.6,1.8-2.4,3.9-2.4,6.3c0,1,0.3,1.7,1,2.2
		c0.7,0.5,1.4,0.7,2.2,0.7c1,0,1.9-0.3,2.9-1c1-0.7,1.8-1.5,2.6-2.4c0.8-1,1.4-1.9,1.9-3c0.5-1,0.7-1.8,0.7-2.4
		C1872.2,172,1871.7,171.1,1870.9,170.7z M1829.5,170.7c-0.8-0.4-1.6-0.6-2.2-0.6c-2,0-3.9,0.9-5.5,2.7c-1.6,1.8-2.4,3.9-2.4,6.3
		c0,1,0.3,1.7,1,2.2c0.7,0.5,1.4,0.7,2.2,0.7c1,0,1.9-0.3,2.9-1c1-0.7,1.8-1.5,2.6-2.4c0.8-1,1.4-1.9,1.9-3c0.5-1,0.7-1.8,0.7-2.4
		C1830.8,172,1830.3,171.1,1829.5,170.7z M1788.1,170.7c-0.8-0.4-1.6-0.6-2.2-0.6c-2,0-3.9,0.9-5.5,2.7c-1.6,1.8-2.4,3.9-2.4,6.3
		c0,1,0.3,1.7,1,2.2c0.7,0.5,1.4,0.7,2.2,0.7c1,0,1.9-0.3,2.9-1c1-0.7,1.8-1.5,2.6-2.4c0.8-1,1.4-1.9,1.9-3c0.5-1,0.7-1.8,0.7-2.4
		C1789.4,172,1788.9,171.1,1788.1,170.7z M1807,83c-2.6,5.8-6.2,11.7-10.8,17.8c-4.6,6.1-10,12.1-16.3,17.9
		c-6.3,5.8-13,10.8-20.2,14.9c5.2-8.3,9.6-15.4,13.4-21.5c3.8-6.1,7-11.2,9.7-15.3s4.9-7.5,6.7-10c1.7-2.5,3.1-4.4,4-5.8
		c2.5-3.2,4.6-5.9,6.2-7.9c1.6-2,3-3.6,4.1-4.8c1.1-1.1,2.1-1.9,2.8-2.2c0.7-0.4,1.4-0.5,2-0.5c1.6,0,2.3,1,2.3,2.9
		C1811,72.4,1809.6,77.2,1807,83z M1818.2,61.3c-0.6-0.5-1.4-0.8-2.3-0.8c-1.3,0-3.9,1-7.7,3.1c-3.8,2-8,5-12.6,8.8
		c-3.4,2.8-6.1,5.5-8.3,8.3c-2.2,2.8-4.3,5.7-6.3,8.8c-1.7,2.5-3.5,5.4-5.5,8.7c-2,3.3-4,6.8-6.2,10.4s-4.4,7.3-6.6,11.1
		c-2.2,3.8-4.4,7.4-6.4,10.9c-1.2,2-3.1,5-5.6,9c-2.5,4-5,8.2-7.6,12.6c-2.5,4.4-4.7,8.7-6.6,12.7c-1.9,4-2.8,7.1-2.8,9.3
		s0.7,4,2.1,5.5c1.4,1.5,3.6,2.2,6.8,2.2c3.6,0,7.2-0.8,10.8-2.5c3.6-1.7,7-3.8,10.3-6.3c3.3-2.5,6.4-5.3,9.4-8.3
		c2.9-3,5.5-5.8,7.6-8.5c0.5-0.5,0.7-0.9,0.5-1.4c-0.1-0.4-0.6-0.2-1.4,0.6c-1.8,2.2-4,4.6-6.6,7.3c-2.6,2.7-5.3,5.3-8.3,7.6
		c-2.9,2.4-6,4.4-9.3,6.1c-3.2,1.7-6.4,2.5-9.4,2.5c-3.5,0-5.2-1.9-5.2-5.8c0-2.4,0.7-5.3,2.1-8.8c1.4-3.5,3-7,4.9-10.6
		c1.9-3.6,3.7-7,5.7-10.3c1.9-3.2,3.4-5.8,4.5-7.7c6.1-3.4,11.9-7.2,17.3-11.6c5.4-4.4,10.3-9,14.8-13.8c4.5-4.8,8.5-9.6,12.1-14.5
		c3.5-4.9,6.5-9.4,9-13.7c2.5-4.3,4.3-8,5.7-11.2c1.3-3.2,2-5.7,2-7.4C1819.1,62.6,1818.8,61.8,1818.2,61.3z M1770.5,83
		c-2.6,5.8-6.2,11.7-10.8,17.8c-4.6,6.1-10,12.1-16.3,17.9c-6.3,5.8-13,10.8-20.2,14.9c5.2-8.3,9.6-15.4,13.4-21.5
		c3.8-6.1,7-11.2,9.7-15.3s4.9-7.5,6.7-10c1.7-2.5,3.1-4.4,4-5.8c2.5-3.2,4.6-5.9,6.2-7.9c1.6-2,3-3.6,4.1-4.8
		c1.1-1.1,2.1-1.9,2.8-2.2c0.7-0.4,1.4-0.5,2-0.5c1.6,0,2.3,1,2.3,2.9C1774.4,72.4,1773.1,77.2,1770.5,83z M1781.6,61.3
		c-0.6-0.5-1.4-0.8-2.3-0.8c-1.3,0-3.9,1-7.7,3.1c-3.8,2-8,5-12.6,8.8c-3.4,2.8-6.1,5.5-8.3,8.3c-2.2,2.8-4.3,5.7-6.3,8.8
		c-1.7,2.5-3.5,5.4-5.5,8.7c-2,3.3-4,6.8-6.2,10.4s-4.4,7.3-6.6,11.1c-2.2,3.8-4.4,7.4-6.4,10.9c-1.2,2-3.1,5-5.6,9
		c-2.5,4-5,8.2-7.6,12.6c-2.5,4.4-4.7,8.7-6.6,12.7c-1.9,4-2.8,7.1-2.8,9.3s0.7,4,2.1,5.5c1.4,1.5,3.6,2.2,6.8,2.2
		c3.6,0,7.2-0.8,10.8-2.5c3.6-1.7,7-3.8,10.3-6.3c3.3-2.5,6.4-5.3,9.4-8.3c2.9-3,5.5-5.8,7.6-8.5c0.5-0.5,0.7-0.9,0.5-1.4
		c-0.1-0.4-0.6-0.2-1.4,0.6c-1.8,2.2-4,4.6-6.6,7.3c-2.6,2.7-5.3,5.3-8.3,7.6c-2.9,2.4-6,4.4-9.3,6.1c-3.2,1.7-6.4,2.5-9.4,2.5
		c-3.5,0-5.2-1.9-5.2-5.8c0-2.4,0.7-5.3,2.1-8.8c1.4-3.5,3-7,4.9-10.6c1.9-3.6,3.7-7,5.7-10.3c1.9-3.2,3.4-5.8,4.5-7.7
		c6.1-3.4,11.9-7.2,17.3-11.6c5.4-4.4,10.3-9,14.8-13.8c4.5-4.8,8.5-9.6,12.1-14.5c3.5-4.9,6.5-9.4,9-13.7c2.5-4.3,4.3-8,5.7-11.2
		c1.3-3.2,2-5.7,2-7.4C1782.5,62.6,1782.2,61.8,1781.6,61.3z M1706.6,156.1c-0.1-0.3-0.4-0.1-1,0.5c-1.3,1.8-3.2,4-5.6,6.5
		c-2.4,2.5-5,4.9-7.8,7.2c-2.8,2.3-5.7,4.2-8.5,5.8c-2.9,1.6-5.5,2.4-7.9,2.4c-1.3,0-2.4-0.3-3.2-1c-0.8-0.7-1.2-1.7-1.2-3.2
		c0-1.3,0.4-3.1,1.2-5.4c0.8-2.3,1.8-4.8,3.2-7.5c1.3-2.7,2.8-5.5,4.4-8.4s3.2-5.5,4.8-7.9c0.2-0.2,0.5-0.6,0.6-1.1
		c0.2-0.5,0.3-0.8,0.3-1.1c0-0.4-0.3-0.5-0.9-0.5c-0.5,0-1.5,0.3-3,1c-1.5,0.7-2.6,1.5-3.2,2.4c-1,1.3-2.2,3.3-3.9,5.9
		c-1.6,2.6-3.2,5.4-4.9,8.3c-1.6,2.9-3,5.7-4.2,8.4c-1.2,2.7-1.8,4.8-1.8,6.4c0,1.3,0.3,2.4,0.8,3.1c0.5,0.8,1.2,1.4,2,1.9
		c0.8,0.5,1.6,0.8,2.6,0.9c1,0.1,1.8,0.2,2.5,0.2c2,0,4.3-0.4,6.8-1.3c2.5-0.8,5-2,7.4-3.6c3.1-2,6.5-4.7,10.3-8.1
		c3.7-3.4,7-6.9,9.9-10.6C1706.6,156.9,1706.7,156.4,1706.6,156.1z M1695.9,115c-1.7,0-3.1,0.7-4.2,2.2c-1.1,1.4-1.7,2.9-1.7,4.5
		c0,1.4,0.7,2.2,2.2,2.2c1.6,0,3-0.7,4.2-2.2s1.9-2.9,1.9-4.3C1698.3,115.8,1697.5,115,1695.9,115z M1669.7,163.8
		c-0.5-0.1-1,0.2-1.4,0.9c-1.4,1.7-3.2,3.6-5.2,5.9c-2,2.2-4.3,4.4-6.7,6.4c-2.4,2-4.8,3.8-7.2,5.2c-2.4,1.4-4.7,2.2-6.8,2.2
		c-2.3,0-3.4-1.2-3.4-3.6c0-1.7,0.6-4.1,1.9-7.3c1.3-3.2,2.7-6.5,4.4-9.9c1.7-3.4,3.3-6.6,5-9.6c1.6-3,2.7-5.2,3.3-6.5
		c0.2-0.5,0.4-0.9,0.5-1.3c0.1-0.4,0.2-0.7,0.2-1.1c0-1.7-0.9-2.5-2.7-2.5c-1.8,0.8-3.8,2-5.8,3.4c-2.1,1.4-4.2,3-6.3,4.7
		c-2.1,1.7-4.1,3.5-5.9,5.3c-1.9,1.9-3.5,3.6-5,5.3c-0.2,0.2-0.5,0.4-0.6,0.4c-0.2,0.1-0.2-0.1,0.1-0.6c0.8-1.6,1.8-3.6,2.9-6
		c1.1-2.5,1.6-4.3,1.6-5.5c0-1.8-0.7-2.7-2-2.7c-2,0-4.7,1.4-7.9,4.2c-3.2,2.8-7.3,7-12.1,12.5c1.6-2.9,3.4-6.1,5.4-9.5
		c2-3.5,3.5-6.4,4.3-8.8c0-0.6-0.2-1.2-0.7-1.9c-0.5-0.7-1-1-1.6-1c-0.7,0-1.4,0.5-2,1.6c-3.1,5.3-6.2,10.6-9.4,16
		c-3.1,5.4-6.3,10.7-9.5,15.8c-0.5,0.6-0.7,1.4-0.7,2.3c0,0.8,0.1,1.7,0.3,2.5c0.2,0.8,0.7,1.3,1.7,1.3c0.6,0,1.5-1,2.7-2.9
		c1.2-1.9,2.6-4.1,4.3-6.7c1.3-1.9,3-4.1,5-6.5c2-2.4,4-4.7,6-6.8c2-2.2,3.9-4,5.7-5.5c1.7-1.5,3-2.2,3.7-2.2c0.5,0,0.7,0.5,0.7,1.4
		c0,0.2-0.2,1.1-0.7,2.5c-0.5,1.4-1.2,3.2-2.1,5.2c-0.9,2-2,4.3-3.2,6.7c-1.3,2.4-2.7,4.7-4.2,6.8c-1,1.3-1.6,2.4-2,3.3
		c-0.4,0.9-0.5,1.5-0.5,1.9c0,0.6,0.2,1.2,0.7,1.8c0.5,0.6,1,0.9,1.6,0.9c0.6,0,1.3-0.5,2.1-1.6c0.8-1.1,1.6-2.4,2.3-4
		c0.8-1.6,1.6-3.2,2.4-4.9c0.8-1.7,1.7-3.1,2.5-4.3c0.8-1.2,2.1-2.7,3.7-4.5c1.6-1.8,3.4-3.7,5.3-5.6c1.9-1.9,3.9-3.7,5.9-5.3
		c2-1.6,3.7-2.8,5.3-3.7c0.6,0,0.9,0.4,0.9,1.1c0,1.2-0.7,3.3-2.1,6.2c-1.4,2.9-2.9,6-4.6,9.3c-1.7,3.2-3.2,6.4-4.6,9.4
		c-1.4,3-2.1,5.2-2.1,6.5c0,2,0.5,3.5,1.4,4.5c1,1,2.6,1.4,5,1.4c2.6,0,5.4-0.7,8.2-2.2c2.8-1.4,5.5-3.2,8.2-5.4
		c2.6-2.2,5.1-4.4,7.5-6.8c2.3-2.4,4.3-4.6,6-6.5C1670,164.5,1670.1,163.9,1669.7,163.8z M1577,157c-2.9,4.1-5.7,7.6-8.4,10.7
		c-2.7,3.1-5.2,5.5-7.4,7.3c-2.2,1.8-3.8,2.7-4.6,2.7c-0.2,0-0.6-0.1-1.1-0.4c-0.5-0.2-0.7-0.7-0.7-1.3c0-1.9,1-4.9,2.9-8.9
		c1.9-4,5.2-8.8,9.7-14.5c1.9-2.4,4.1-4.4,6.6-6c2.5-1.6,6-2.5,10.5-2.6C1582.4,148.6,1579.8,152.9,1577,157z M1665.1,59.9
		c-0.9-0.4-2.1-0.5-3.5-0.5c-3,0-6.5,1-10.6,2.9c-5.4,2.5-10.7,6.2-15.8,11.2c-5.1,4.9-10.2,10.6-15.4,17.1
		c-6.2,7.7-12,15.5-17.3,23.6c-5.3,8-10.8,17.1-16.6,27.2c-8,1.4-14.8,4.4-20.2,9c-5.5,4.6-10.4,10.4-14.8,17.6
		c-1.1,1.7-1.9,3.4-2.5,5.1c-0.6,1.7-0.9,3.1-0.9,4.2c0,1.4,0.3,2.6,0.9,3.5c0.6,0.9,1.7,1.4,3.4,1.4c1.1,0,2.3-0.3,3.7-1
		c1.4-0.7,3-1.8,5-3.3c1.9-1.6,4.1-3.7,6.7-6.5c2.5-2.8,5.5-6.2,8.8-10.3c-2.4,4.8-4.2,8.9-5.3,12.1c-1.1,3.3-1.7,6.4-1.7,9.3
		c0,2.8,0.8,5,2.3,6.8c1.6,1.7,4,2.6,7.2,2.6c2.9,0,5.8-0.8,8.7-2.5c2.9-1.7,5.8-4,8.5-6.9c2.7-2.9,5.3-6.4,7.7-10.3
		c2.5-3.9,4.8-8,6.9-12.3c0.6-0.8,0.6-1.3,0.1-1.4c-0.5-0.1-0.9,0.1-1.2,0.5c-1.6,3.2-3.4,6.7-5.6,10.4c-2.2,3.7-4.6,7.1-7.2,10.2
		c-2.6,3.1-5.4,5.6-8.4,7.6c-2.9,2-6,3.1-9.3,3.1c-2,0-3.5-0.7-4.4-2c-0.9-1.3-1.4-3-1.4-5c0-2.6,1-6.8,3.1-12.3
		c2-5.6,5.1-12.3,9.2-20.2c4.1-7.9,9.1-16.9,15.2-26.9c6.1-10,13.1-20.8,21.2-32.3c3.2-4.7,6.8-9,10.7-13c3.9-4,7.5-7,10.9-9.2
		c1.7-1.1,3.5-1.9,5.6-2.4c2-0.5,4.1-0.8,6.1-0.8c1.4,0,2.5,0.1,3.3,0.3c0.8,0.2,1.4,0.4,2,0.6c0.5,0.2,1,0.5,1.4,0.6
		c0.4,0.2,0.7,0.3,1.1,0.3c0.6,0,1-0.4,1.3-1.3c0.2-1.3,0.7-2.3,1.4-3.1c0.7-0.7,1.1-1.4,1.1-2.2C1666.4,60.8,1666,60.3,1665.1,59.9
		z M1562.2,156.5c-0.5-0.2-0.8-0.1-1.1,0.3c-1.7,2.6-3.8,5.4-6.5,8.3c-2.6,2.9-5.4,5.5-8.4,7.8c-2.9,2.3-5.8,4.3-8.5,5.9
		c-2.8,1.6-5.2,2.3-7.2,2.3c-1.3,0-2.3-0.3-2.9-0.8c-0.6-0.5-0.9-1.5-0.9-3c0-1.7,0.6-4,1.8-6.8c1.2-2.9,2.7-5.9,4.4-9.1
		c1.7-3.2,3.6-6.3,5.5-9.3c1.9-3,3.5-5.5,4.9-7.4c0.6-1,0.9-1.7,0.9-2.2c0-0.5-0.2-1-0.6-1.5c-0.4-0.5-0.9-0.8-1.3-0.8
		c-0.7,0-2,0.6-3.9,1.9c-1.9,1.3-4,2.9-6.5,4.8c-2.5,1.9-5,4-7.7,6.3c-2.7,2.3-5.2,4.4-7.5,6.5c1.7-3.7,3.4-7,5.1-9.8
		c1.7-2.8,2.6-4.5,2.6-5c0-0.7-0.3-1.4-0.9-2c-0.6-0.6-1.3-0.9-2-0.9s-1.3,0.3-1.6,0.9c-1.4,3.4-3.2,7.2-5.2,11.4
		c-2,4.3-4,8.3-5.9,12.1c-1.8,2.3-3.5,4.4-4.9,6.2c-1.5,1.9-2.2,3.3-2.2,4.4c0,0.4,0.2,1.2,0.6,2.5c0.4,1.3,0.9,2,1.5,2
		c0.2,0,0.6-0.4,1.1-1.1c2-3.1,3.7-5.9,5.1-8.5c1.4-2.5,3-5.3,4.9-8.3c1.1-1.3,2.5-2.8,4.2-4.5c1.7-1.7,3.5-3.3,5.4-5
		c1.9-1.6,3.7-3.1,5.5-4.6s3.4-2.6,4.7-3.4c0.6-0.4,1-0.3,1.2,0.1c0.2,0.4,0.1,0.9-0.1,1.5c-1.1,2.5-2.5,5.3-4.2,8.3
		c-1.7,3-3.4,5.9-5,8.8s-3,5.6-4.2,8.2c-1.2,2.6-1.8,4.7-1.8,6.4s0.6,2.7,1.8,3.1c1.2,0.4,2.5,0.6,4,0.6c3.1,0,6.3-0.8,9.6-2.3
		c3.3-1.6,6.5-3.5,9.7-5.9c3.2-2.4,6.2-5.1,9-8.2c2.8-3.1,5.3-6.1,7.5-9.1C1562.6,157.1,1562.7,156.7,1562.2,156.5z M1514.9,156.1
		c-0.1-0.3-0.4-0.1-1,0.5c-1.3,1.8-3.2,4-5.6,6.5c-2.4,2.5-5,4.9-7.8,7.2c-2.8,2.3-5.7,4.2-8.5,5.8c-2.9,1.6-5.5,2.4-7.9,2.4
		c-1.3,0-2.4-0.3-3.2-1c-0.8-0.7-1.2-1.7-1.2-3.2c0-1.3,0.4-3.1,1.2-5.4c0.8-2.3,1.8-4.8,3.2-7.5c1.3-2.7,2.8-5.5,4.4-8.4
		s3.2-5.5,4.8-7.9c0.2-0.2,0.5-0.6,0.6-1.1c0.2-0.5,0.3-0.8,0.3-1.1c0-0.4-0.3-0.5-0.9-0.5c-0.5,0-1.5,0.3-3,1
		c-1.5,0.7-2.6,1.5-3.2,2.4c-1,1.3-2.2,3.3-3.9,5.9c-1.6,2.6-3.2,5.4-4.9,8.3c-1.6,2.9-3,5.7-4.2,8.4c-1.2,2.7-1.8,4.8-1.8,6.4
		c0,1.3,0.3,2.4,0.8,3.1c0.5,0.8,1.2,1.4,2,1.9c0.8,0.5,1.6,0.8,2.6,0.9c1,0.1,1.8,0.2,2.5,0.2c2,0,4.3-0.4,6.8-1.3
		c2.5-0.8,5-2,7.4-3.6c3.1-2,6.5-4.7,10.3-8.1c3.7-3.4,7-6.9,9.9-10.6C1514.9,156.9,1515,156.4,1514.9,156.1z M1504.2,115
		c-1.7,0-3.1,0.7-4.2,2.2c-1.1,1.4-1.7,2.9-1.7,4.5c0,1.4,0.7,2.2,2.2,2.2c1.6,0,3-0.7,4.2-2.2s1.9-2.9,1.9-4.3
		C1506.6,115.8,1505.8,115,1504.2,115z M1440,158.1c-2,3.8-5.5,7.6-10.3,11.4c0.6-4,1.4-7.4,2.5-10.4c1.1-2.9,2.2-5.4,3.3-7.3
		c1.1-1.9,2.2-3.4,3.3-4.3c1.1-1,1.9-1.4,2.5-1.4c0.7,0,1.2,0.4,1.4,1.1c0.2,0.7,0.3,1.2,0.3,1.4C1443,151.2,1442,154.3,1440,158.1z
		 M1489.2,142.6c-0.2-0.4-0.5-0.5-1-0.4c-1.4,0.5-4,1-7.6,1.5s-7.1,0.8-10.6,0.8c-2.9,0-5.1-0.1-6.7-0.5c-1.6-0.3-2.7-0.6-3.5-0.9
		c-0.8-0.3-1.3-0.6-1.5-0.9c-0.2-0.3-0.5-0.5-0.7-0.5c-0.5,0-1.3,0.3-2.3,0.8s-2,0.8-2.7,0.8c-0.6,0.2-0.7,0.6-0.2,1.1
		c1.9,0.2,3,1.3,3.3,3.1c0.3,1.8,0.5,4.1,0.5,7c0,3.2-0.4,6.7-1.1,10.3c-0.7,3.6-1.8,6.9-3.2,9.9c-1.4,3-3.2,5.5-5.3,7.5
		c-2.2,2-4.7,3-7.6,3c-1.9,0-3.5-0.4-4.7-1.3c-1.2-0.8-2.2-1.9-2.9-3.2c-0.7-1.3-1.2-2.8-1.4-4.5c-0.2-1.7-0.4-3.4-0.4-5
		c3.8-3.1,6.9-6.1,9.2-8.9c2.3-2.8,4.1-5.4,5.4-7.7c1.3-2.3,2.2-4.3,2.6-6c0.4-1.7,0.6-2.8,0.6-3.4c0-0.4-0.1-0.9-0.3-1.5
		c-0.2-0.7-0.8-1-1.7-1c-1.9,0-3.6,0.7-5,2c-1.4,1.3-2.5,2.3-3.1,3.1c-3,3.6-5.6,7.6-7.9,12.1c-2.3,4.5-4,9.1-5,13.8
		c-3.1,2-5.6,3.4-7.5,4c-1.9,0.6-3.1,0.9-3.7,0.9c-0.8,0-1.5-0.3-2-0.9c-0.5-0.6-0.7-1.3-0.7-2c0-1.4,0.4-3.4,1.3-5.9
		c0.8-2.5,2-5.2,3.4-8c1.4-2.8,3-5.6,4.8-8.5c1.7-2.8,3.5-5.2,5.3-7.1c1.1-1.1,1.9-1.7,2.6-2c0.7-0.2,1-0.5,1-0.7
		c0-0.4-0.2-0.5-0.7-0.5c-0.7,0.1-1.7,0.3-2.9,0.6c-1.2,0.3-2.3,0.6-3.2,0.8c-0.7,0.2-1.3,0.6-1.9,1.2s-1,1.1-1.4,1.5
		c-0.8,1.1-2.1,2.8-3.8,5.1c-1.7,2.3-3.4,4.9-5.1,7.7c-1.7,2.8-3.2,5.6-4.5,8.5c-1.3,2.8-1.9,5.3-1.9,7.5c0,1.8,0.5,3.1,1.4,4
		c0.9,0.9,2.1,1.4,3.5,1.4c2.6,0,5.3-0.7,8.1-2c2.8-1.3,5.3-2.6,7.6-4c-0.2,1.2-0.4,2.5-0.4,3.8c0,3.1,0.9,5.6,2.7,7.6
		c1.8,1.9,4.3,2.9,7.4,2.9c2.8,0,5.1-0.5,7.1-1.4c2-1,4-2.3,6-4.1c1.7-1.4,3.4-3.4,5-5.9c1.7-2.5,3.2-5.2,4.6-8.3
		c1.4-3.1,2.5-6.3,3.4-9.7c0.9-3.4,1.4-6.8,1.4-10c0-0.6,0.1-1.1,0.3-1.6c0.2-0.5,0.6-0.8,1.2-0.9c1.3-0.1,3.1-0.3,5.3-0.5
		c2.2-0.2,4.6-0.5,7-0.9c2.5-0.4,4.9-0.7,7.2-1.2c2.3-0.4,4.3-0.9,5.9-1.4C1489.1,143.2,1489.4,142.9,1489.2,142.6z M1351.8,142.9
		c-1.4,2.5-3.1,5.4-4.9,8.6c-1.8,3.2-3.7,6.3-5.6,9.2c-1.7,2.5-3.5,4.9-5.5,7c-2,2.2-3.9,4-5.9,5.7c-1.9,1.6-3.6,2.9-5.1,3.9
		c-1.5,1-2.6,1.4-3.3,1.4c-0.7,0-1.1-0.5-1.1-1.4c0-1.8,0.9-4.6,2.6-8.5c1.7-3.8,4-7.7,6.9-11.6c2.9-3.9,6.2-7.3,9.9-10.2
		c3.7-2.9,7.6-4.3,11.7-4.3L1351.8,142.9z M1379.3,155.6c-0.2-0.2-0.5-0.1-0.7,0.3c-2.9,3.6-5.9,7-9.1,10.3
		c-3.2,3.2-6.3,6.1-9.3,8.5c-3,2.5-5.8,4.4-8.5,5.8c-2.6,1.4-4.9,2.1-6.8,2.1c-1.7,0-2.8-0.4-3.3-1.1c-0.5-0.7-0.8-1.6-0.8-2.7
		c0-2.8,1.3-7,3.9-12.7c2.6-5.7,6.6-13.4,12.1-23.1c0.7,0,1.8,0.1,3.2,0.2c1.4,0.1,2.5,0.3,3.2,0.5c0.4,0,0.5-0.2,0.5-0.5
		s-0.3-0.7-0.9-0.9c-0.6-0.1-1.5-0.2-2.7-0.4c-1.2-0.1-2.1-0.2-2.7-0.2c0.6-1,1.2-1.9,1.7-2.8s1.1-1.6,1.7-2.2l-0.4-0.2l-5,1.4
		c-0.5,0.2-1,0.6-1.4,1.1c-0.5,0.5-1,1.3-1.6,2.5c-5,0-9.9,1.4-14.6,4.2c-4.7,2.8-8.9,6.2-12.5,10.1c-3.7,3.9-6.6,8-8.7,12.1
		c-2.2,4.2-3.2,7.7-3.2,10.4c0,2.5,1.3,3.8,3.8,3.8c1.7,0,3.6-0.6,5.8-1.9c2.2-1.3,4.3-2.8,6.5-4.7c2.2-1.9,4.3-3.9,6.3-6.2
		c2-2.3,3.8-4.4,5.4-6.5c-2,3.2-3.6,6.3-4.6,9.1c-1,2.8-1.5,5.1-1.5,6.8c0,1.8,0.5,3.3,1.4,4.5c1,1.2,2.6,1.8,5,1.8
		c2.8,0,5.8-0.8,9.1-2.5c3.3-1.7,6.6-3.9,10-6.7c3.4-2.8,6.7-5.8,10-9.3c3.3-3.4,6.3-6.8,9.1-10.2
		C1379.7,156.1,1379.6,155.8,1379.3,155.6z M1276.4,146.1c0.4-0.8,0.7-1.5,1.1-2.1c0-1.2-1-1.8-2.9-1.8c-1.8,0-3.6,0.5-5.5,1.4
		c-1.9,1-3.6,2.1-5.1,3.5c-1.6,1.4-2.9,2.9-3.9,4.6c-1,1.7-1.5,3.2-1.5,4.7s0.4,2.8,1.1,4c0.7,1.2,1.4,2.4,2.2,3.6
		c0.7,1.1,1.4,2.3,2,3.6c0.6,1.3,0.9,2.8,0.9,4.3c0,2-0.4,3.7-1.3,4.9c-0.8,1.2-1.8,2.1-3,2.8c-1.1,0.7-2.4,1.1-3.7,1.3
		c-1.3,0.2-2.5,0.3-3.4,0.3c-2.3,0-4.3-0.8-5.9-2.3c-1.7-1.6-2.8-3.4-3.4-5.6c-0.1-0.5-0.3-0.7-0.5-0.7c-0.4,0.5-0.9,1-1.7,1.5
		c-0.8,0.5-1.5,1-2.1,1.4c0.7,4.9,4.7,7.4,12.1,7.4c1.2,0,2.8-0.2,4.9-0.6c2-0.4,4-1.2,6-2.4c2-1.2,3.7-2.8,5.1-4.8s2.2-4.5,2.2-7.6
		c0-1.6-0.4-3.1-1.3-4.5c-0.8-1.4-1.7-2.9-2.7-4.3c-1.1-1.6-1.9-2.8-2.5-3.8c-0.6-1-0.9-1.9-0.9-2.9c0-1.9,0.8-3.4,2.5-4.3
		c1.7-1,3.4-1.4,5-1.4c2.3,0,3.8,0.8,4.5,2.3c0.2,0.5,0.5,0.4,0.9-0.2C1275.7,147.5,1276,146.8,1276.4,146.1z M1232.3,142.9
		c-1.4,2.5-3.1,5.4-4.9,8.6c-1.8,3.2-3.7,6.3-5.6,9.2c-1.7,2.5-3.5,4.9-5.5,7c-2,2.2-3.9,4-5.9,5.7c-1.9,1.6-3.6,2.9-5.1,3.9
		c-1.5,1-2.6,1.4-3.3,1.4c-0.7,0-1.1-0.5-1.1-1.4c0-1.8,0.9-4.6,2.6-8.5c1.7-3.8,4-7.7,6.9-11.6c2.9-3.9,6.2-7.3,9.9-10.2
		c3.7-2.9,7.6-4.3,11.7-4.3L1232.3,142.9z M1259.8,155.6c-0.2-0.2-0.5-0.1-0.7,0.3c-2.9,3.6-5.9,7-9.1,10.3
		c-3.2,3.2-6.3,6.1-9.3,8.5c-3,2.5-5.8,4.4-8.5,5.8c-2.6,1.4-4.9,2.1-6.8,2.1c-1.7,0-2.8-0.4-3.3-1.1c-0.5-0.7-0.8-1.6-0.8-2.7
		c0-2.8,1.3-7,3.9-12.7c2.6-5.7,6.6-13.4,12.1-23.1c0.7,0,1.8,0.1,3.2,0.2c1.4,0.1,2.5,0.3,3.2,0.5c0.4,0,0.5-0.2,0.5-0.5
		s-0.3-0.7-0.9-0.9c-0.6-0.1-1.5-0.2-2.7-0.4c-1.2-0.1-2.1-0.2-2.7-0.2c0.6-1,1.2-1.9,1.7-2.8s1.1-1.6,1.7-2.2l-0.4-0.2l-5,1.4
		c-0.5,0.2-1,0.6-1.4,1.1c-0.5,0.5-1,1.3-1.6,2.5c-5,0-9.9,1.4-14.6,4.2c-4.7,2.8-8.9,6.2-12.5,10.1c-3.7,3.9-6.6,8-8.7,12.1
		c-2.2,4.2-3.2,7.7-3.2,10.4c0,2.5,1.3,3.8,3.8,3.8c1.7,0,3.6-0.6,5.8-1.9c2.2-1.3,4.3-2.8,6.5-4.7c2.2-1.9,4.3-3.9,6.3-6.2
		c2-2.3,3.8-4.4,5.4-6.5c-2,3.2-3.6,6.3-4.6,9.1c-1,2.8-1.5,5.1-1.5,6.8c0,1.8,0.5,3.3,1.4,4.5c1,1.2,2.6,1.8,5,1.8
		c2.8,0,5.8-0.8,9.1-2.5c3.3-1.7,6.6-3.9,10-6.7c3.4-2.8,6.7-5.8,10-9.3c3.3-3.4,6.3-6.8,9.1-10.2
		C1260.2,156.1,1260,155.8,1259.8,155.6z M1165.3,158.1c-2,3.8-5.5,7.6-10.3,11.4c0.6-4,1.4-7.4,2.5-10.4c1.1-2.9,2.2-5.4,3.3-7.3
		c1.1-1.9,2.2-3.4,3.3-4.3c1.1-1,1.9-1.4,2.5-1.4c0.7,0,1.2,0.4,1.4,1.1c0.2,0.7,0.3,1.2,0.3,1.4
		C1168.4,151.2,1167.3,154.3,1165.3,158.1z M1214.5,142.6c-0.2-0.4-0.5-0.5-1-0.4c-1.4,0.5-4,1-7.6,1.5s-7.1,0.8-10.6,0.8
		c-2.9,0-5.1-0.1-6.7-0.5c-1.6-0.3-2.7-0.6-3.5-0.9c-0.8-0.3-1.3-0.6-1.5-0.9c-0.2-0.3-0.5-0.5-0.7-0.5c-0.5,0-1.3,0.3-2.3,0.8
		s-2,0.8-2.7,0.8c-0.6,0.2-0.7,0.6-0.2,1.1c1.9,0.2,3,1.3,3.3,3.1c0.3,1.8,0.5,4.1,0.5,7c0,3.2-0.4,6.7-1.1,10.3
		c-0.7,3.6-1.8,6.9-3.2,9.9c-1.4,3-3.2,5.5-5.3,7.5c-2.2,2-4.7,3-7.6,3c-1.9,0-3.5-0.4-4.7-1.3c-1.2-0.8-2.2-1.9-2.9-3.2
		c-0.7-1.3-1.2-2.8-1.4-4.5c-0.2-1.7-0.4-3.4-0.4-5c3.8-3.1,6.9-6.1,9.2-8.9c2.3-2.8,4.1-5.4,5.4-7.7c1.3-2.3,2.2-4.3,2.6-6
		c0.4-1.7,0.6-2.8,0.6-3.4c0-0.4-0.1-0.9-0.3-1.5c-0.2-0.7-0.8-1-1.7-1c-1.9,0-3.6,0.7-5,2c-1.4,1.3-2.5,2.3-3.1,3.1
		c-3,3.6-5.6,7.6-7.9,12.1c-2.3,4.5-4,9.1-5,13.8c-3.1,2-5.6,3.4-7.5,4c-1.9,0.6-3.1,0.9-3.7,0.9c-0.8,0-1.5-0.3-2-0.9
		c-0.5-0.6-0.7-1.3-0.7-2c0-1.4,0.4-3.4,1.3-5.9c0.8-2.5,2-5.2,3.4-8c1.4-2.8,3-5.6,4.8-8.5c1.7-2.8,3.5-5.2,5.3-7.1
		c1.1-1.1,1.9-1.7,2.6-2c0.7-0.2,1-0.5,1-0.7c0-0.4-0.2-0.5-0.7-0.5c-0.7,0.1-1.7,0.3-2.9,0.6c-1.2,0.3-2.3,0.6-3.2,0.8
		c-0.7,0.2-1.3,0.6-1.9,1.2s-1,1.1-1.4,1.5c-0.8,1.1-2.1,2.8-3.8,5.1c-1.7,2.3-3.4,4.9-5.1,7.7c-1.7,2.8-3.2,5.6-4.5,8.5
		c-1.3,2.8-1.9,5.3-1.9,7.5c0,1.8,0.5,3.1,1.4,4c0.9,0.9,2.1,1.4,3.5,1.4c2.6,0,5.3-0.7,8.1-2c2.8-1.3,5.3-2.6,7.6-4
		c-0.2,1.2-0.4,2.5-0.4,3.8c0,3.1,0.9,5.6,2.7,7.6c1.8,1.9,4.3,2.9,7.4,2.9c2.8,0,5.1-0.5,7.1-1.4c2-1,4-2.3,6-4.1
		c1.7-1.4,3.4-3.4,5-5.9c1.7-2.5,3.2-5.2,4.6-8.3c1.4-3.1,2.5-6.3,3.4-9.7c0.9-3.4,1.4-6.8,1.4-10c0-0.6,0.1-1.1,0.3-1.6
		c0.2-0.5,0.6-0.8,1.2-0.9c1.3-0.1,3.1-0.3,5.3-0.5c2.2-0.2,4.6-0.5,7-0.9c2.5-0.4,4.9-0.7,7.2-1.2c2.3-0.4,4.3-0.9,5.9-1.4
		C1214.4,143.2,1214.7,142.9,1214.5,142.6z M1080,154.3c-2.6,2.5-5.7,3.7-9.2,3.7c-0.4,0-0.8,0-1.4-0.1c-0.6-0.1-1-0.1-1.3-0.3
		c0.7-1.6,1.6-3.2,2.7-4.9c1.1-1.7,2.2-3.2,3.4-4.7c1.2-1.4,2.4-2.6,3.7-3.5c1.3-0.9,2.5-1.3,3.7-1.3c1.6,0,2.3,0.8,2.3,2.3
		C1083.9,149,1082.6,151.9,1080,154.3z M1102.4,158.9c-0.3-0.1-0.6-0.1-0.8,0.2c-1.6,2-3.5,4.2-5.8,6.6c-2.3,2.3-4.9,4.5-7.7,6.5
		c-2.8,2-5.6,3.6-8.5,5c-2.9,1.3-5.8,2-8.5,2c-4.4,0-6.7-2.5-6.7-7.4c0-2.4,0.4-4.8,1.1-7.1c0.7-2.3,1.4-4,2-5.1
		c3.8,0,7.1-0.5,9.9-1.5c2.8-1,5-2.3,6.8-3.8c1.8-1.5,3.2-3.1,4-4.8c0.9-1.7,1.4-3.2,1.4-4.7c0-1-0.3-1.7-1-2.3
		c-0.7-0.6-1.8-0.9-3.5-0.9c-3,0-6.2,1.1-9.5,3.3c-3.3,2.2-6.3,5-9.1,8.3c-2.8,3.3-5,6.9-6.8,10.8c-1.7,3.9-2.6,7.5-2.6,10.9
		c0,5,2.8,7.6,8.5,7.6c3.5,0,7-0.7,10.5-2.1c3.5-1.4,7-3.2,10.3-5.4c3.3-2.2,6.4-4.7,9.2-7.4c2.8-2.7,5.2-5.3,7.3-7.8
		C1102.8,159.3,1102.7,159.1,1102.4,158.9z M1063,142.6c-0.8-0.5-1.7-0.8-2.8-0.8c-1.4,0-3.1,0.4-5,1.3c-1.9,0.8-3.8,1.9-5.7,3.1
		c-1.9,1.3-3.8,2.6-5.5,4.1c-1.7,1.4-3.2,2.8-4.4,4c-0.4,0.4-0.7,0.5-0.9,0.5c-0.2,0-0.2-0.3,0.2-0.9c0.2-0.4,0.6-1,1.1-1.8
		c0.5-0.8,1-1.7,1.5-2.6c0.5-0.9,1-1.8,1.4-2.6c0.4-0.8,0.6-1.4,0.6-1.8c0-1.1-0.5-1.9-1.4-2.5c-1-0.6-1.6-0.9-1.8-0.9
		c-0.2,0-0.7,0.5-1.3,1.6c-0.5,1.1-1.4,2.7-2.7,4.9c-1.3,2.2-2.9,4.8-4.6,7.8c-1.7,3-3.6,6.2-5.6,9.6c-2,3.4-3.9,6.8-5.8,10.2
		c-0.8,1.4-1.3,2.5-1.3,3.2c0,0.4,0.4,0.9,1.2,1.6c0.8,0.7,1.3,1.1,1.5,1.1c0.6,0,1-0.2,1.1-0.5c1.7-2.6,3.2-5.2,4.7-7.8
		c1.4-2.6,2.9-5.1,4.5-7.6c1.6-2.5,3.2-4.8,5-7.1c1.7-2.3,3.7-4.4,6-6.3c1.4-1.3,3.1-2.5,5-3.6c1.9-1.1,3.7-1.6,5.2-1.6
		c1.3,0,2.3,0.2,3.1,0.5c0.7,0.4,1.3,0.8,1.7,1.2c0.4,0.4,0.7,0.8,1,1.2c0.2,0.4,0.4,0.5,0.5,0.5c0.4,0,0.6-0.2,0.7-0.5
		c0.2-0.6,0.7-1.5,1.5-2.7c0.8-1.2,1.5-2.2,2.2-3.1C1064.1,143.8,1063.8,143.2,1063,142.6z M1009.8,154.3c-2.6,2.5-5.7,3.7-9.2,3.7
		c-0.4,0-0.8,0-1.4-0.1c-0.6-0.1-1-0.1-1.3-0.3c0.7-1.6,1.6-3.2,2.7-4.9c1.1-1.7,2.2-3.2,3.4-4.7c1.2-1.4,2.4-2.6,3.7-3.5
		c1.3-0.9,2.5-1.3,3.7-1.3c1.6,0,2.3,0.8,2.3,2.3C1013.7,149,1012.4,151.9,1009.8,154.3z M1032.2,158.9c-0.3-0.1-0.6-0.1-0.8,0.2
		c-1.6,2-3.5,4.2-5.8,6.6c-2.3,2.3-4.9,4.5-7.7,6.5c-2.8,2-5.6,3.6-8.5,5c-2.9,1.3-5.8,2-8.5,2c-4.4,0-6.7-2.5-6.7-7.4
		c0-2.4,0.4-4.8,1.1-7.1c0.7-2.3,1.4-4,2-5.1c3.8,0,7.1-0.5,9.9-1.5c2.8-1,5-2.3,6.8-3.8c1.8-1.5,3.2-3.1,4-4.8
		c0.9-1.7,1.4-3.2,1.4-4.7c0-1-0.3-1.7-1-2.3c-0.7-0.6-1.8-0.9-3.5-0.9c-3,0-6.2,1.1-9.5,3.3c-3.3,2.2-6.3,5-9.1,8.3
		c-2.8,3.3-5,6.9-6.8,10.8c-1.7,3.9-2.6,7.5-2.6,10.9c0,5,2.8,7.6,8.5,7.6c3.5,0,7-0.7,10.5-2.1c3.5-1.4,7-3.2,10.3-5.4
		c3.3-2.2,6.4-4.7,9.2-7.4c2.8-2.7,5.2-5.3,7.3-7.8C1032.6,159.3,1032.5,159.1,1032.2,158.9z M1055.2,55.7c-1-1.7-2.3-3.1-4-4
		c-1.6-1-3.3-1.6-5.1-2.1c-1.8-0.4-3.5-0.6-5.2-0.6c-6.7,0-13.4,2.4-20.1,7.3c-6.7,4.9-13.2,11.1-19.7,18.8
		c-6.5,7.7-12.8,16.2-19,25.6c-6.2,9.4-12.2,18.5-17.9,27.5c-4.9,7.8-9.8,15.8-14.6,23.9c-4.8,8.1-9.7,16.7-14.8,25.8
		c-0.4,0.7-0.5,1.4-0.5,2c0,0.8,0.5,1.4,1.4,1.7c1,0.3,1.7,0.4,2.3,0.4c0.8,0,1.7-1,2.7-2.9c1.3-2.5,2.9-5.4,4.7-8.6
		c1.8-3.2,3.5-6.4,5.2-9.4c4.2-5.6,7.7-9.5,10.5-11.5c2.8-2,4.8-3.1,5.8-3.1c0.4,0,0.5,0.3,0.5,0.9c0,1.1-0.7,2.9-2,5.5
		c-1.3,2.6-2.8,5.4-4.4,8.5c-1.6,3.1-3.1,6.1-4.4,9.1c-1.3,3-2,5.5-2,7.4c0,2,0.6,3.6,1.8,4.8c1.2,1.1,2.8,1.7,4.9,1.7
		c2.6,0,5.5-0.8,8.7-2.4c3.2-1.6,6.4-3.7,9.5-6.4c3.2-2.6,6.3-5.6,9.4-8.8c3.1-3.2,5.7-6.5,8-9.7c0-0.5-0.1-0.7-0.4-0.7
		c-0.2,0-0.5,0.1-0.7,0.4c-6.5,8.6-12.2,14.8-17.3,18.4s-8.9,5.4-11.7,5.4c-1.7,0-3-0.5-4-1.4c-1-1-1.4-2.4-1.4-4.3
		c0-1.7,0.5-3.9,1.6-6.7c1.1-2.8,2.4-5.6,3.9-8.5c1.5-2.9,3-5.6,4.6-8.1c1.6-2.5,2.8-4.5,3.8-5.9c1.1-1.4,1.6-2.5,1.6-3.2
		c0-0.8-0.5-1.3-1.6-1.3c-1.4,0-3.2,0.5-5.2,1.6c-2,1.1-4.1,2.3-6.3,3.8c-2.2,1.4-4.1,2.9-5.9,4.3s-3.1,2.5-4,3.2
		c7.2-14.2,13.8-26.4,19.9-36.8c6.1-10.4,11.7-19.2,16.8-26.5c5.2-7.3,9.9-13.2,14.3-17.7c4.4-4.6,8.5-8.1,12.3-10.7
		c3.8-2.6,7.4-4.3,10.7-5.2c3.3-0.9,6.5-1.4,9.6-1.4c3.6,0,6.5,0.5,8.8,1.5c2.3,1,4.1,2.2,5.3,3.6c1.3,1.4,2.1,2.8,2.5,4.2
		c0.4,1.4,0.6,2.6,0.6,3.4c0,0.2,0.1,0.5,0.3,0.6c0.2,0.2,0.4,0.1,0.5-0.3c0.2-0.4,0.4-1,0.5-2c0.2-1,0.3-2.4,0.3-4.3
		C1056.8,59.7,1056.3,57.4,1055.2,55.7z M946.2,114.6c-0.1-0.3-0.3-0.5-0.5-0.5c-1.8,0.6-3.9,1.4-6.2,2.3c-2.3,1-4.2,1.7-5.5,2.3
		c-1.1,1.8-2.3,3.8-3.7,5.8c-1.4,2.1-2.7,4.3-4,6.5c-1.3,2.2-2.6,4.4-4,6.7c-1.3,2.2-2.5,4.2-3.6,6l-9.2,0.2
		c-1.1,0.8-1.9,1.7-2.3,2.5c0,0.5,0.3,0.7,0.9,0.7c0.4,0,1.6-0.1,3.7-0.3c2.1-0.2,3.9-0.3,5.3-0.5c-4.2,6.8-7.4,12.6-9.5,17.3
		c-2.2,4.7-3.2,8.2-3.2,10.6c0,2.8,0.7,4.7,2.2,5.9c1.4,1.1,3.1,1.7,5,1.7c3.6,0,7.1-0.6,10.6-1.8c3.5-1.2,7.3-3.1,11.3-5.8
		c0.6-0.2,0.7-0.6,0.4-1c-0.4-0.4-0.7-0.5-1.1-0.1c-2.8,1.7-5.4,3-7.8,4.1c-2.5,1-4.7,1.5-6.6,1.5c-4,0-5.9-2.2-5.9-6.5
		c0-3.1,0.9-6.8,2.7-11c1.8-4.2,4.4-9.3,7.7-15.3c1.8-0.1,3.9-0.2,6.3-0.4c2.4-0.1,4.7-0.2,7-0.4c2.3-0.1,4.4-0.2,6.3-0.3
		c1.9-0.1,3.4-0.1,4.3-0.1c0.2-0.1,0.4-0.3,0.4-0.5c0-0.2-0.2-0.5-0.5-0.7h-22.3c2.4-4.2,4.9-8.4,7.5-12.6c2.6-4.2,5.2-8.2,8-12.1
		c0.6-1,1.5-1.8,2.7-2.4c1.2-0.7,2.3-1.1,3.2-1.4C946.2,115.1,946.4,114.9,946.2,114.6z M851.8,164.1c-0.4-0.7-0.8-1-1.2-1
		c-0.8,0-1.5,0.4-2,1.3c-4.8,6.5-9.7,12.9-14.6,19.2c-4.9,6.3-10,12.4-15.3,18.4c-0.4,0.4-0.5,0.8-0.5,1.4c0,0.8,0.3,1.2,1,1
		c0.7-0.2,1.1-0.4,1.4-0.6c2.6-3,5.1-5.8,7.5-8.3c2.3-2.5,4.7-5,7-7.4c2.3-2.4,4.8-4.9,7.3-7.5c2.5-2.6,5.4-5.5,8.6-8.7
		c1-1,1.4-2,1.4-3.2C852.5,166.3,852.3,164.7,851.8,164.1z M815.6,154.3c-2.6,2.5-5.7,3.7-9.2,3.7c-0.4,0-0.8,0-1.4-0.1
		c-0.6-0.1-1-0.1-1.3-0.3c0.7-1.6,1.6-3.2,2.7-4.9c1.1-1.7,2.2-3.2,3.4-4.7c1.2-1.4,2.4-2.6,3.7-3.5c1.3-0.9,2.5-1.3,3.7-1.3
		c1.6,0,2.3,0.8,2.3,2.3C819.5,149,818.2,151.9,815.6,154.3z M838,158.9c-0.3-0.1-0.6-0.1-0.8,0.2c-1.6,2-3.5,4.2-5.9,6.6
		c-2.3,2.3-4.9,4.5-7.6,6.5c-2.8,2-5.6,3.6-8.5,5c-2.9,1.3-5.8,2-8.6,2c-4.4,0-6.7-2.5-6.7-7.4c0-2.4,0.4-4.8,1.1-7.1
		c0.7-2.3,1.4-4,2-5.1c3.8,0,7.1-0.5,9.9-1.5c2.8-1,5-2.3,6.8-3.8c1.8-1.5,3.1-3.1,4-4.8c0.9-1.7,1.4-3.2,1.4-4.7c0-1-0.3-1.7-1-2.3
		c-0.7-0.6-1.8-0.9-3.5-0.9c-3,0-6.2,1.1-9.4,3.3c-3.3,2.2-6.3,5-9.1,8.3c-2.8,3.3-5,6.9-6.8,10.8c-1.7,3.9-2.6,7.5-2.6,10.9
		c0,5,2.8,7.6,8.5,7.6c3.5,0,7-0.7,10.5-2.1c3.5-1.4,7-3.2,10.3-5.4c3.3-2.2,6.4-4.7,9.2-7.4c2.8-2.7,5.2-5.3,7.3-7.8
		C838.4,159.3,838.3,159.1,838,158.9z M798.1,163.8c-0.5-0.1-1,0.2-1.4,0.9c-1.4,1.7-3.2,3.6-5.2,5.9c-2,2.2-4.3,4.4-6.7,6.4
		c-2.4,2-4.8,3.8-7.2,5.2c-2.4,1.4-4.7,2.2-6.8,2.2c-2.3,0-3.4-1.2-3.4-3.6c0-1.7,0.6-4.1,1.9-7.3c1.3-3.2,2.7-6.5,4.4-9.9
		c1.7-3.4,3.3-6.6,4.9-9.6c1.6-3,2.7-5.2,3.3-6.5c0.2-0.5,0.4-0.9,0.5-1.3c0.1-0.4,0.2-0.7,0.2-1.1c0-1.7-0.9-2.5-2.7-2.5
		c-1.8,0.8-3.8,2-5.9,3.4c-2.1,1.4-4.2,3-6.3,4.7c-2.1,1.7-4.1,3.5-5.9,5.3c-1.9,1.9-3.5,3.6-5,5.3c-0.2,0.2-0.5,0.4-0.6,0.4
		c-0.2,0.1-0.2-0.1,0.1-0.6c0.8-1.6,1.8-3.6,2.9-6c1.1-2.5,1.6-4.3,1.6-5.5c0-1.8-0.7-2.7-2-2.7c-2,0-4.7,1.4-7.9,4.2
		c-3.2,2.8-7.3,7-12.1,12.5c1.6-2.9,3.4-6.1,5.4-9.5c2-3.5,3.5-6.4,4.3-8.8c0-0.6-0.2-1.2-0.7-1.9c-0.5-0.7-1-1-1.6-1
		c-0.7,0-1.4,0.5-2,1.6c-3.1,5.3-6.2,10.6-9.4,16c-3.1,5.4-6.3,10.7-9.5,15.8c-0.5,0.6-0.7,1.4-0.7,2.3c0,0.8,0.1,1.7,0.3,2.5
		c0.2,0.8,0.7,1.3,1.7,1.3c0.6,0,1.5-1,2.7-2.9c1.2-1.9,2.6-4.1,4.3-6.7c1.3-1.9,3-4.1,5-6.5c2-2.4,4-4.7,6-6.8c2-2.2,3.9-4,5.7-5.5
		c1.7-1.5,3-2.2,3.7-2.2c0.5,0,0.7,0.5,0.7,1.4c0,0.2-0.2,1.1-0.7,2.5c-0.5,1.4-1.2,3.2-2.1,5.2c-0.9,2-2,4.3-3.2,6.7
		c-1.3,2.4-2.7,4.7-4.2,6.8c-1,1.3-1.6,2.4-2,3.3s-0.5,1.5-0.5,1.9c0,0.6,0.2,1.2,0.7,1.8c0.5,0.6,1,0.9,1.6,0.9
		c0.6,0,1.3-0.5,2.1-1.6c0.8-1.1,1.6-2.4,2.3-4c0.8-1.6,1.6-3.2,2.4-4.9c0.8-1.7,1.7-3.1,2.5-4.3c0.8-1.2,2.1-2.7,3.7-4.5
		c1.6-1.8,3.4-3.7,5.3-5.6c1.9-1.9,3.9-3.7,5.9-5.3s3.7-2.8,5.3-3.7c0.6,0,0.9,0.4,0.9,1.1c0,1.2-0.7,3.3-2.1,6.2
		c-1.4,2.9-2.9,6-4.6,9.3c-1.7,3.2-3.2,6.4-4.6,9.4c-1.4,3-2.1,5.2-2.1,6.5c0,2,0.5,3.5,1.4,4.5c1,1,2.6,1.4,5,1.4
		c2.6,0,5.4-0.7,8.2-2.2c2.8-1.4,5.5-3.2,8.2-5.4c2.6-2.2,5.1-4.4,7.5-6.8c2.3-2.4,4.3-4.6,6-6.5
		C798.5,164.5,798.6,163.9,798.1,163.8z M739.2,156.1c-0.1-0.3-0.4-0.1-1,0.5c-1.3,1.8-3.2,4-5.6,6.5c-2.4,2.5-5,4.9-7.8,7.2
		c-2.8,2.3-5.7,4.2-8.6,5.8c-2.9,1.6-5.5,2.4-7.9,2.4c-1.3,0-2.4-0.3-3.1-1c-0.8-0.7-1.2-1.7-1.2-3.2c0-1.3,0.4-3.1,1.2-5.4
		c0.8-2.3,1.8-4.8,3.1-7.5c1.3-2.7,2.8-5.5,4.4-8.4c1.6-2.9,3.2-5.5,4.8-7.9c0.2-0.2,0.4-0.6,0.6-1.1c0.2-0.5,0.3-0.8,0.3-1.1
		c0-0.4-0.3-0.5-0.9-0.5c-0.5,0-1.5,0.3-3,1c-1.5,0.7-2.6,1.5-3.1,2.4c-1,1.3-2.2,3.3-3.9,5.9c-1.6,2.6-3.2,5.4-4.9,8.3
		s-3,5.7-4.2,8.4c-1.2,2.7-1.8,4.8-1.8,6.4c0,1.3,0.3,2.4,0.8,3.1c0.5,0.8,1.2,1.4,2,1.9c0.8,0.5,1.6,0.8,2.6,0.9
		c1,0.1,1.8,0.2,2.5,0.2c2,0,4.3-0.4,6.8-1.3c2.5-0.8,5-2,7.4-3.6c3.1-2,6.5-4.7,10.3-8.1c3.7-3.4,7-6.9,9.9-10.6
		C739.1,156.9,739.2,156.4,739.2,156.1z M728.4,115c-1.7,0-3.1,0.7-4.2,2.2c-1.1,1.4-1.7,2.9-1.7,4.5c0,1.4,0.7,2.2,2.2,2.2
		c1.6,0,3-0.7,4.2-2.2c1.3-1.4,1.9-2.9,1.9-4.3C730.8,115.8,730,115,728.4,115z M704,114.6c-0.1-0.3-0.3-0.5-0.5-0.5
		c-1.8,0.6-3.9,1.4-6.2,2.3c-2.3,1-4.2,1.7-5.5,2.3c-1.1,1.8-2.3,3.8-3.7,5.8c-1.4,2.1-2.7,4.3-4.1,6.5c-1.3,2.2-2.6,4.4-4,6.7
		c-1.3,2.2-2.5,4.2-3.6,6l-9.2,0.2c-1.1,0.8-1.9,1.7-2.3,2.5c0,0.5,0.3,0.7,0.9,0.7c0.4,0,1.6-0.1,3.7-0.3c2.1-0.2,3.9-0.3,5.3-0.5
		c-4.2,6.8-7.4,12.6-9.5,17.3c-2.2,4.7-3.2,8.2-3.2,10.6c0,2.8,0.7,4.7,2.2,5.9s3.1,1.7,5,1.7c3.6,0,7.1-0.6,10.6-1.8
		c3.5-1.2,7.3-3.1,11.3-5.8c0.6-0.2,0.7-0.6,0.4-1c-0.4-0.4-0.7-0.5-1.1-0.1c-2.8,1.7-5.4,3-7.8,4.1c-2.5,1-4.7,1.5-6.6,1.5
		c-4,0-5.9-2.2-5.9-6.5c0-3.1,0.9-6.8,2.7-11c1.8-4.2,4.4-9.3,7.7-15.3c1.8-0.1,3.9-0.2,6.3-0.4c2.4-0.1,4.7-0.2,7-0.4
		c2.3-0.1,4.4-0.2,6.3-0.3c1.9-0.1,3.4-0.1,4.3-0.1c0.2-0.1,0.4-0.3,0.4-0.5c0-0.2-0.2-0.5-0.5-0.7H682c2.4-4.2,4.9-8.4,7.5-12.6
		c2.6-4.2,5.2-8.2,8-12.1c0.6-1,1.5-1.8,2.7-2.4c1.2-0.7,2.3-1.1,3.2-1.4C703.9,115.1,704.1,114.9,704,114.6z M608.2,142.9
		c-1.4,2.5-3.1,5.4-4.9,8.6c-1.8,3.2-3.7,6.3-5.6,9.2c-1.7,2.5-3.5,4.9-5.5,7c-2,2.2-3.9,4-5.9,5.7c-1.9,1.6-3.6,2.9-5.1,3.9
		c-1.5,1-2.6,1.4-3.3,1.4c-0.7,0-1.1-0.5-1.1-1.4c0-1.8,0.9-4.6,2.6-8.5c1.7-3.8,4.1-7.7,6.9-11.6c2.9-3.9,6.2-7.3,9.9-10.2
		c3.7-2.9,7.6-4.3,11.7-4.3L608.2,142.9z M635.7,155.6c-0.2-0.2-0.5-0.1-0.7,0.3c-2.9,3.6-5.9,7-9.1,10.3c-3.2,3.2-6.3,6.1-9.3,8.5
		c-3,2.5-5.8,4.4-8.5,5.8c-2.6,1.4-4.9,2.1-6.8,2.1c-1.7,0-2.8-0.4-3.3-1.1c-0.5-0.7-0.8-1.6-0.8-2.7c0-2.8,1.3-7,3.9-12.7
		c2.6-5.7,6.6-13.4,12.1-23.1c0.7,0,1.8,0.1,3.2,0.2c1.4,0.1,2.5,0.3,3.2,0.5c0.4,0,0.5-0.2,0.5-0.5s-0.3-0.7-0.9-0.9
		c-0.6-0.1-1.5-0.2-2.7-0.4c-1.2-0.1-2.1-0.2-2.7-0.2c0.6-1,1.2-1.9,1.7-2.8s1.1-1.6,1.7-2.2l-0.4-0.2l-5,1.4
		c-0.5,0.2-1,0.6-1.4,1.1c-0.5,0.5-1,1.3-1.6,2.5c-5,0-9.9,1.4-14.6,4.2c-4.7,2.8-8.9,6.2-12.5,10.1c-3.7,3.9-6.6,8-8.7,12.1
		c-2.2,4.2-3.2,7.7-3.2,10.4c0,2.5,1.3,3.8,3.8,3.8c1.7,0,3.6-0.6,5.8-1.9c2.2-1.3,4.3-2.8,6.5-4.7c2.2-1.9,4.3-3.9,6.3-6.2
		c2-2.3,3.8-4.4,5.4-6.5c-2,3.2-3.6,6.3-4.6,9.1c-1,2.8-1.5,5.1-1.5,6.8c0,1.8,0.5,3.3,1.4,4.5c1,1.2,2.6,1.8,5,1.8
		c2.8,0,5.8-0.8,9.1-2.5c3.3-1.7,6.6-3.9,10-6.7c3.4-2.8,6.7-5.8,10-9.3c3.3-3.4,6.3-6.8,9.1-10.2
		C636.1,156.1,636,155.8,635.7,155.6z M547.9,156.5c-0.5-0.2-0.8-0.1-1.1,0.3c-1.7,2.6-3.8,5.4-6.5,8.3c-2.6,2.9-5.4,5.5-8.4,7.8
		c-2.9,2.3-5.8,4.3-8.5,5.9c-2.8,1.6-5.2,2.3-7.2,2.3c-1.3,0-2.3-0.3-2.9-0.8c-0.6-0.5-0.9-1.5-0.9-3c0-1.7,0.6-4,1.8-6.8
		c1.2-2.9,2.7-5.9,4.4-9.1c1.7-3.2,3.6-6.3,5.5-9.3c1.9-3,3.5-5.5,4.9-7.4c0.6-1,0.9-1.7,0.9-2.2c0-0.5-0.2-1-0.6-1.5
		c-0.4-0.5-0.9-0.8-1.4-0.8c-0.7,0-2,0.6-3.9,1.9c-1.9,1.3-4,2.9-6.5,4.8c-2.5,1.9-5,4-7.7,6.3c-2.7,2.3-5.2,4.4-7.5,6.5
		c1.7-3.7,3.4-7,5.1-9.8c1.7-2.8,2.6-4.5,2.6-5c0-0.7-0.3-1.4-0.9-2c-0.6-0.6-1.3-0.9-2-0.9c-0.7,0-1.3,0.3-1.6,0.9
		c-1.4,3.4-3.2,7.2-5.2,11.4c-2,4.3-4,8.3-5.9,12.1c-1.8,2.3-3.5,4.4-5,6.2c-1.5,1.9-2.2,3.3-2.2,4.4c0,0.4,0.2,1.2,0.6,2.5
		c0.4,1.3,0.9,2,1.5,2c0.2,0,0.6-0.4,1.1-1.1c2-3.1,3.7-5.9,5.1-8.5c1.4-2.5,3-5.3,5-8.3c1.1-1.3,2.5-2.8,4.2-4.5
		c1.7-1.7,3.5-3.3,5.4-5c1.9-1.6,3.7-3.1,5.5-4.6c1.8-1.4,3.4-2.6,4.7-3.4c0.6-0.4,1-0.3,1.2,0.1c0.2,0.4,0.1,0.9-0.1,1.5
		c-1.1,2.5-2.5,5.3-4.2,8.3c-1.7,3-3.4,5.9-5,8.8c-1.6,2.9-3,5.6-4.2,8.2c-1.2,2.6-1.8,4.7-1.8,6.4s0.6,2.7,1.8,3.1
		c1.2,0.4,2.5,0.6,4,0.6c3.1,0,6.3-0.8,9.6-2.3c3.3-1.6,6.5-3.5,9.7-5.9c3.2-2.4,6.2-5.1,9-8.2c2.8-3.1,5.3-6.1,7.5-9.1
		C548.3,157.1,548.4,156.7,547.9,156.5z M473.7,158.9c-1.5,3.1-3.3,6.2-5.5,9.3c-2.2,3.1-4.4,5.7-6.8,8c-2.4,2.3-4.6,3.4-6.7,3.4
		c-1.1,0-1.8-0.4-2.1-1.1c-0.3-0.7-0.5-1.5-0.5-2.3c-0.1-2.8,0.5-5.7,1.7-8.7c1.3-3.1,2.7-5.9,4.2-8.6c1.2-2,2.5-4,4-5.9
		c1.4-1.9,2.9-3.6,4.3-5.1c1.4-1.5,2.9-2.7,4.3-3.6c1.4-0.9,2.8-1.4,4.1-1.4c0.5,0,0.7,0.3,0.7,0.9c0,1.3,0.1,2.7,0.2,4.1
		c0.1,1.4,0.3,2.7,0.5,3.8C476,153.4,475.2,155.8,473.7,158.9z M505.9,149.4c-0.5-0.2-0.9-0.1-1.2,0.5c-1.7,2.4-3.8,4.6-6.3,6.7
		c-2.5,2-5.3,3.1-8.5,3.1c-3.1,0-5.3-1.1-6.6-3.2c-1.3-2.2-1.9-4.9-1.9-8.3c0-2.4,0.2-4.6,0.6-6.7c0.4-2,1-3.7,1.9-5
		c0.2-0.5,0.2-0.8-0.2-1c-0.4-0.2-0.7-0.1-1.1,0.1c-0.5,0.2-1,0.4-1.6,0.5c-0.6,0.1-1.2,0.2-1.8,0.4c-1.2,0.2-2,1-2.5,2.2
		c-0.5,1.3-0.8,2.4-1.1,3.3c-3.7,0.4-7.2,1.5-10.4,3.4c-3.2,1.9-6.1,4.3-8.6,7c-1.2,1.2-2.5,2.8-3.9,4.7c-1.4,1.9-2.7,4-3.9,6.1
		c-1.2,2.2-2.2,4.4-3,6.7c-0.8,2.3-1.2,4.5-1.2,6.7c0,3.8,2.2,5.8,6.5,5.8c1.4,0,3.2-0.5,5.4-1.4c2.5-1.3,4.9-3,7.1-5
		c2.2-2,4.2-4.3,6-6.8c1.8-2.5,3.4-4.9,4.7-7.4c1.3-2.5,2.4-4.6,3.2-6.6c1.2,2,2.8,3.6,4.8,4.6c2,1,4,1.5,6,1.5c3.7,0,7-1.1,10-3.3
		c2.9-2.2,5.4-4.7,7.5-7.5C506.4,150,506.4,149.6,505.9,149.4z M431.4,155.5c-1.6,3-3.7,6-6.4,9c-2.7,3-5.8,5.8-9.4,8.3
		c-3.5,2.5-7.3,4.3-11.2,5.4c1.9-3.5,3.8-6.9,5.8-10.2c1.9-3.3,3.9-6.4,5.9-9.3c1.4-2,2.9-3.9,4.5-5.6c1.6-1.7,3.1-3.1,4.5-4.2
		c1.4-1.1,2.7-2,3.9-2.7c1.1-0.7,2-1,2.6-1c1.1,0,1.7,0.4,1.9,1.1c0.2,0.7,0.3,1.3,0.3,1.8C433.8,150.1,433,152.5,431.4,155.5z
		 M458.5,151.8c-0.3-0.1-0.5,0-0.6,0.3c-3.8,5-7.9,9.2-12.2,12.3c-4.3,3.2-8.6,5.7-13,7.6c-4.3,1.9-8.5,3.2-12.5,4
		c-4,0.8-7.7,1.4-10.9,1.7c6.1-2.9,11.2-6,15.3-9.4c4.1-3.4,7.3-6.6,9.8-9.7c2.5-3.1,4.2-5.9,5.2-8.5c1-2.5,1.5-4.4,1.5-5.6
		c0-1.7-0.4-2.9-1.2-3.6c-0.8-0.7-1.8-1.1-3-1.1c-1.2,0-2.5,0.4-4,1.2c-1.4,0.8-2.9,1.8-4.3,3c-1.4,1.2-2.9,2.5-4.3,4
		s-2.8,2.8-4,4.1c1.6-2.4,3.1-4.6,4.6-6.7c1.5-2,3.1-4,4.8-6c1.7-2,3.5-4,5.4-6.1c1.9-2.1,4.1-4.3,6.7-6.6c0.5-0.5,0.7-0.9,0.7-1.3
		c0-0.2-0.2-0.4-0.5-0.4c-0.1,0-0.5,0-1.1,0.1c-0.6,0.1-1.3,0.2-2,0.3c-0.7,0.1-1.4,0.2-2.2,0.4c-0.7,0.1-1.2,0.2-1.4,0.4
		c-0.8,0.2-1.5,0.6-2,1.1c-4.1,5.3-8,11.3-11.9,18c-3.8,6.7-7.7,13.2-11.5,19.4l-8.3,13.5c-0.5,0.1-1.1,0.2-1.9,0.4
		c-0.8,0.1-1.2,0.5-1.2,1.3c0,1.1,0.4,1.7,1.1,2c-4.1,6.8-8.1,13.6-12.1,20.4c-4,6.8-7.7,13.2-11.3,19.2c-3.6,6-6.9,11.5-9.8,16.5
		c-2.9,5-5.4,9.1-7.5,12.5c-2,3.2-3.8,5.9-5.4,8.1c-1.6,2.2-3.2,4-4.9,5.6c-1.7,1.6-3.7,2.9-5.9,4c-2.2,1.1-4.8,2.3-7.9,3.5
		c-0.7,0.2-1,0.6-0.9,1.2c0.1,0.5,0.5,0.6,1.3,0.3c3-1.1,5.8-1.9,8.3-2.5c2.5-0.6,4.7-1.2,6.7-1.8c1.9-0.6,3.6-1.3,5-2.1
		c1.4-0.8,2.6-1.9,3.4-3.3c4.3-7.4,8.3-14.9,12.1-22.5c3.7-7.6,7.9-15.6,12.4-24.1c3.1-5.8,6.2-11.6,9.4-17.4
		c3.1-5.8,6.4-11.7,9.9-17.5c2-0.4,4.1-0.7,6.1-1.1c2-0.4,4.4-0.8,7.2-1.4c7.9-1.8,15.5-4.6,22.8-8.6c7.3-3.9,14.1-9.9,20.4-17.9
		C459,152.2,458.8,151.9,458.5,151.8z M414.3,158.6c-2.6,3.8-5.4,7.4-8.4,10.6c-2.9,3.2-5.8,6-8.6,8.3c-2.8,2.3-5.3,4.1-7.6,5.3
		c-2.3,1.3-4.4,1.9-6,1.9c-2.5,0-3.8-1.3-3.8-4c0-3,0.5-5.8,1.4-8.3c1-2.5,2.1-4.9,3.5-7.2c1.4-2.3,2.9-4.5,4.5-6.6
		c1.6-2.1,3.1-4.2,4.6-6.4c0.5-0.8,0.7-1.7,0.7-2.7c0-1.4-0.3-2.7-0.9-3.7c-0.6-1-1.1-1.5-1.6-1.5c-0.4,0-0.8,0.4-1.4,1.3
		c-0.5,0.8-1.2,2.1-2.2,3.7c-1,1.6-2,3.4-3.1,5.3c-1.1,1.9-2.2,3.9-3.3,6c-1.1,2.1-2.2,4.1-3.3,6c-2.9,4.4-5.4,7.6-7.5,9.4
		c-2.1,1.9-3.8,2.8-5,2.8c-1.3,0-2-0.9-2-2.7c0-1.1,0.4-2.6,1.2-4.6c0.8-2,1.8-4.2,3.1-6.8c1.3-2.5,2.7-5.2,4.4-8.1
		c1.7-2.9,3.5-5.8,5.4-8.6c0.7-1.1,1.1-1.8,1.1-2.2s-0.5-1-1.4-2.1c-0.9-1-1.8-1.5-2.6-1.5c-0.5,0-1,0.6-1.6,1.8
		c-3.1,5.4-5.7,9.9-7.6,13.6c-2,3.7-3.5,6.7-4.7,9.2c-1.1,2.5-1.9,4.4-2.3,5.9c-0.4,1.4-0.6,2.6-0.6,3.6c0,1.7,0.4,2.9,1.3,3.7
		c0.8,0.8,1.9,1.2,3.2,1.2c1.7,0,3.2-0.3,4.6-1c1.4-0.7,2.6-1.5,3.8-2.5c1.1-1,2.2-2.1,3.1-3.2c0.9-1.1,1.7-2.1,2.4-3
		c-0.7,1.7-1.2,3.2-1.5,4.6c-0.3,1.4-0.4,2.6-0.4,3.7c0,2.3,0.6,4,1.7,5c1.1,1.1,2.7,1.6,4.8,1.6c2.8,0,5.7-0.9,8.8-2.6
		c3.1-1.7,6.2-3.9,9.2-6.6c3-2.6,5.9-5.5,8.6-8.7c2.8-3.2,5.2-6.2,7.2-9.1C415.4,158.6,415.1,158.3,414.3,158.6z M309.9,154.3
		c-2.6,2.5-5.7,3.7-9.2,3.7c-0.4,0-0.8,0-1.4-0.1c-0.6-0.1-1-0.1-1.3-0.3c0.7-1.6,1.6-3.2,2.7-4.9c1.1-1.7,2.2-3.2,3.4-4.7
		c1.2-1.4,2.4-2.6,3.7-3.5c1.3-0.9,2.5-1.3,3.7-1.3c1.6,0,2.3,0.8,2.3,2.3C313.9,149,312.6,151.9,309.9,154.3z M332.4,158.9
		c-0.3-0.1-0.6-0.1-0.8,0.2c-1.6,2-3.5,4.2-5.9,6.6c-2.3,2.3-4.9,4.5-7.6,6.5c-2.8,2-5.6,3.6-8.5,5c-2.9,1.3-5.8,2-8.6,2
		c-4.4,0-6.7-2.5-6.7-7.4c0-2.4,0.4-4.8,1.1-7.1c0.7-2.3,1.4-4,2-5.1c3.8,0,7.1-0.5,9.9-1.5c2.8-1,5-2.3,6.8-3.8
		c1.8-1.5,3.1-3.1,4-4.8c0.9-1.7,1.4-3.2,1.4-4.7c0-1-0.3-1.7-1-2.3c-0.7-0.6-1.8-0.9-3.5-0.9c-3,0-6.2,1.1-9.4,3.3
		c-3.3,2.2-6.3,5-9.1,8.3c-2.8,3.3-5,6.9-6.8,10.8c-1.7,3.9-2.6,7.5-2.6,10.9c0,5,2.8,7.6,8.5,7.6c3.5,0,7-0.7,10.5-2.1
		c3.5-1.4,7-3.2,10.3-5.4c3.3-2.2,6.4-4.7,9.2-7.4c2.8-2.7,5.2-5.3,7.3-7.8C332.8,159.3,332.7,159.1,332.4,158.9z M296.4,155.6
		c-0.3-0.3-0.8-0.1-1.4,0.5c-6.5,7.9-12.6,13.8-18.3,17.7c-5.7,3.9-10.2,5.9-13.6,5.9c-2,0-3.8-0.6-5.1-1.9
		c-1.4-1.3-2.1-3.1-2.1-5.7c0-3.4,0.5-6.6,1.4-9.8c1-3.2,2.2-6,3.9-8.5c1.6-2.5,3.5-4.4,5.6-5.9c2.1-1.5,4.3-2.2,6.6-2.2
		c1.9,0,3.3,0.5,4.2,1.6c0.9,1.1,1.4,2.2,1.4,3.4c0,1.1-0.2,2.1-0.5,3.1l0.5,0.2c1.7-1.3,2.9-2.3,3.6-3.1c0.8-1,1.3-2.3,1.3-4.1
		c0-3.5-2.2-5.2-6.7-5.2c-1,0-2.2,0.3-3.6,0.9c-4.8,2-9.3,5.3-13.4,9.6c-4.1,4.4-7.4,9.4-9.6,15c-1,2.4-1.4,4.7-1.4,6.8
		c0,5.5,3.3,8.3,9.9,8.3c1.3,0,2.7-0.2,4.2-0.5c1.5-0.3,3.1-0.8,5-1.5c2.3-1,4.7-2.3,7.2-4c2.5-1.7,5-3.6,7.4-5.7
		c2.4-2.1,4.7-4.3,7-6.7c2.3-2.3,4.3-4.6,6.1-6.9C296.5,156.4,296.7,155.9,296.4,155.6z M258.6,156.5c-0.5-0.2-0.8-0.1-1.1,0.3
		c-1.7,2.6-3.8,5.4-6.5,8.3c-2.6,2.9-5.4,5.5-8.4,7.8c-2.9,2.3-5.8,4.3-8.5,5.9c-2.8,1.6-5.2,2.3-7.2,2.3c-1.3,0-2.3-0.3-2.9-0.8
		c-0.6-0.5-0.9-1.5-0.9-3c0-1.7,0.6-4,1.8-6.8c1.2-2.9,2.7-5.9,4.4-9.1c1.7-3.2,3.6-6.3,5.5-9.3c1.9-3,3.5-5.5,4.9-7.4
		c0.6-1,0.9-1.7,0.9-2.2c0-0.5-0.2-1-0.6-1.5c-0.4-0.5-0.9-0.8-1.4-0.8c-0.7,0-2,0.6-3.9,1.9c-1.9,1.3-4,2.9-6.5,4.8
		c-2.5,1.9-5,4-7.7,6.3c-2.7,2.3-5.2,4.4-7.5,6.5c1.7-3.7,3.4-7,5.1-9.8c1.7-2.8,2.6-4.5,2.6-5c0-0.7-0.3-1.4-0.9-2
		c-0.6-0.6-1.3-0.9-2-0.9c-0.7,0-1.3,0.3-1.6,0.9c-1.4,3.4-3.2,7.2-5.2,11.4c-2,4.3-4,8.3-5.9,12.1c-1.8,2.3-3.5,4.4-5,6.2
		c-1.5,1.9-2.2,3.3-2.2,4.4c0,0.4,0.2,1.2,0.6,2.5c0.4,1.3,0.9,2,1.5,2c0.2,0,0.6-0.4,1.1-1.1c2-3.1,3.7-5.9,5.1-8.5
		c1.4-2.5,3-5.3,5-8.3c1.1-1.3,2.5-2.8,4.2-4.5c1.7-1.7,3.5-3.3,5.4-5c1.9-1.6,3.7-3.1,5.5-4.6c1.8-1.4,3.4-2.6,4.7-3.4
		c0.6-0.4,1-0.3,1.2,0.1c0.2,0.4,0.1,0.9-0.1,1.5c-1.1,2.5-2.5,5.3-4.2,8.3c-1.7,3-3.4,5.9-5,8.8s-3,5.6-4.2,8.2
		c-1.2,2.6-1.8,4.7-1.8,6.4s0.6,2.7,1.8,3.1c1.2,0.4,2.5,0.6,4,0.6c3.1,0,6.3-0.8,9.6-2.3c3.3-1.6,6.5-3.5,9.7-5.9
		c3.2-2.4,6.2-5.1,9-8.2c2.8-3.1,5.3-6.1,7.5-9.1C259.1,157.1,259.1,156.7,258.6,156.5z M188.5,142.5c-2.8,6.9-6.6,13.2-11.4,18.9
		c-4.8,5.7-10.4,10.4-16.6,14.1c-6.3,3.7-13,5.6-20.1,5.6c-3.4,0-6.5-0.3-9.3-1c-2.8-0.7-5.3-1.7-7.3-3.2c-2-1.5-3.6-3.5-4.8-6.1
		c-1.1-2.6-1.7-5.8-1.7-9.6c0-3.6,0.7-7.5,2-11.6c1.3-4.1,3-8.2,5-12.3c2-4.1,4.3-7.9,6.8-11.5c2.5-3.6,4.8-6.7,7.1-9.2
		c4.2-4.8,8.8-8.4,13.9-10.9c5-2.5,10.7-3.7,17.1-3.7c3.5,0,6.7,0.4,9.5,1.2c2.9,0.8,5.3,2,7.4,3.6c2,1.6,3.7,3.7,4.9,6.3
		c1.2,2.6,1.8,5.7,1.8,9.4C192.8,128.9,191.4,135.6,188.5,142.5z M198.9,112.4c-2-2.9-4.7-5.3-7.8-7c-3.2-1.7-6.7-3-10.6-3.7
		c-3.9-0.7-7.7-1.1-11.4-1.1c-6.8,0-13.5,1.1-20,3.2c-6.5,2.2-12.3,5.6-17.5,10.3c-2.6,2.4-5.3,5.4-8.1,9c-2.8,3.6-5.2,7.4-7.4,11.5
		c-2.2,4.1-3.9,8.3-5.3,12.5c-1.4,4.3-2.1,8.3-2.1,12.2c0,4.6,0.9,8.3,2.6,11.3c1.7,3,4.1,5.4,7,7.2c2.9,1.8,6.4,3.1,10.4,3.8
		c4,0.7,8.4,1.1,13.1,1.1c7.8,0,15.3-1.7,22.5-5c7.2-3.4,13.5-7.8,19-13.3c5.5-5.5,9.9-11.8,13.2-18.9c3.4-7.1,5.1-14.3,5.2-21.8
		C201.9,119.1,200.9,115.3,198.9,112.4z"/>
	<path d="M1747.3,675.5c-0.7-0.8-1.5-1.5-2.4-2.1c-1-0.5-2-1-3.2-1.3c-1.1-0.3-2.2-0.5-3.2-0.5c-1.1,0-2.2,0.1-3.3,0.4
		c-1.1,0.2-2.3,0.5-3.5,0.7c-2.6,0.6-5.3,1.6-7.8,3.1c-2.6,1.4-5.1,3.1-7.5,5c-2.4,1.9-4.7,3.9-6.9,6.1c-2.2,2.2-4.3,4.4-6.2,6.6
		c-2.6,3-5.4,6.3-8.2,10c-2.8,3.7-5.6,7.4-8.3,11.2c-2.7,3.8-5.3,7.5-7.7,11.2c-2.5,3.7-4.7,7.1-6.6,10.2
		c-4.2,6.7-7.7,12.5-10.6,17.5c-2.9,4.9-5.3,9.2-7.3,12.7c-2,3.5-3.6,6.5-5,9c-1.3,2.5-2.6,4.5-3.8,6.2c-0.1,0.2-0.2,0.5-0.2,0.7
		c0,0.2,0,0.5,0,0.7c0,0.8,0.2,1.8,0.7,2.8c0.5,1,1.1,1.5,2,1.5c0.7,0,1.2-0.3,1.4-0.9c2.6-4.7,5.9-9,9.7-13
		c3.8-4,7.7-7.8,11.5-11.5c1,5,1.8,9.2,2.6,12.4c0.8,3.2,1.6,5.8,2.5,7.7c0.9,1.9,1.9,3.1,3.1,3.9c1.2,0.7,2.6,1.1,4.1,1.1
		c2,0,4.5-0.7,7.4-2.2c1.7-1,3.5-2.3,5.6-4c2-1.7,4.1-3.6,6.2-5.8c2.1-2.2,4.2-4.4,6.2-6.8c2-2.4,4-4.8,5.8-7.2
		c0.4-0.4,0.3-0.7-0.1-1.1c-0.4-0.4-0.8-0.2-1.2,0.4c-1.6,2.3-3.4,4.7-5.5,7.3c-2.1,2.6-4.3,5-6.6,7.2c-2.3,2.2-4.5,4-6.8,5.5
		c-2.2,1.4-4.2,2.2-6,2.2c-1.2,0-2.4-0.3-3.5-0.9c-1.1-0.6-2-1.6-2.6-2.9c-0.7-1.4-1.4-3.1-2.1-5c-0.7-1.9-1.2-3.7-1.7-5.7
		c-0.5-1.9-0.9-3.8-1.3-5.8c-0.4-1.9-0.6-3.7-0.7-5.2c1.2-1.1,2.8-2.4,4.8-4c2-1.6,4-3.1,6.1-4.7c2.1-1.6,4.2-2.9,6.2-4.1
		c2-1.2,3.8-2,5.2-2.5c1.2-0.4,1.8-0.9,1.8-1.6c-0.4-1-0.7-1.6-1-1.9c-0.3-0.3-0.6-0.5-1-0.5c-0.5,0-1.8,0.8-3.9,2.4
		c-2.1,1.6-4.4,3.4-6.9,5.4c-2.5,2-4.9,3.9-7,5.8c-2.2,1.9-3.5,3-4.1,3.5c-0.1-0.2-0.2-0.5-0.2-0.9c0-0.5-0.1-0.7-0.4-0.7
		c-0.8,0.2-2,0.8-3.5,1.7c-1.5,0.9-2.2,1.8-2.2,2.8c0,1.1,0.1,1.9,0.2,2.3c-2.5,2.3-4.9,4.4-7,6.3c-2.2,1.9-4.3,3.9-6.3,5.9
		c-0.7,0.7-1.2,1.1-1.4,1.1c-0.1,0,0.1-0.5,0.5-1.4c0.6-1.3,2-3.9,4.1-7.7c2.2-3.8,4.6-8.1,7.4-13c2.8-4.9,5.6-9.8,8.6-14.9
		c3-5.1,5.7-9.6,8.1-13.6c3.8-6.2,7.9-12.3,12.1-18.3c4.3-5.9,8.6-11.2,13.1-15.8c4.8-4.9,9.3-8.1,13.4-9.5
		c4.1-1.4,7.6-2.2,10.4-2.2c1.2,0,2.5,0.2,3.8,0.5c1.3,0.3,2.5,0.8,3.7,1.4c1.1,0.7,2.1,1.5,2.8,2.6s1.1,2.3,1.1,3.8
		c0,0.4-0.1,0.7-0.2,1c-0.1,0.3-0.2,0.6-0.2,1c0,0.6,0.2,0.9,0.6,0.8c0.4-0.1,0.6-0.4,0.6-1c0.2-1.7,0.7-3.2,1.3-4.5
		c0.7-1.3,1-2.6,1-4C1748.3,677.4,1748,676.4,1747.3,675.5z M1635.5,759.1c-2.6,2.5-5.7,3.7-9.2,3.7c-0.4,0-0.8,0-1.4-0.1
		c-0.6-0.1-1-0.1-1.3-0.3c0.7-1.6,1.6-3.2,2.7-4.9c1.1-1.7,2.2-3.2,3.4-4.7c1.2-1.4,2.4-2.6,3.7-3.5c1.3-0.9,2.5-1.3,3.7-1.3
		c1.6,0,2.3,0.8,2.3,2.3C1639.4,753.8,1638.1,756.7,1635.5,759.1z M1657.9,763.7c-0.3-0.1-0.6-0.1-0.8,0.2c-1.6,2-3.5,4.2-5.8,6.6
		c-2.3,2.3-4.9,4.5-7.7,6.5c-2.8,2-5.6,3.6-8.5,5c-2.9,1.3-5.8,2-8.5,2c-4.4,0-6.7-2.5-6.7-7.4c0-2.4,0.4-4.8,1.1-7.1
		c0.7-2.3,1.4-4,2-5.1c3.8,0,7.1-0.5,9.9-1.5c2.8-1,5-2.3,6.8-3.8c1.8-1.5,3.2-3.1,4-4.8c0.9-1.7,1.4-3.2,1.4-4.7c0-1-0.3-1.7-1-2.3
		c-0.7-0.6-1.8-0.9-3.5-0.9c-3,0-6.2,1.1-9.5,3.3c-3.3,2.2-6.3,5-9.1,8.3c-2.8,3.3-5,6.9-6.8,10.8c-1.7,3.9-2.6,7.5-2.6,10.9
		c0,5,2.8,7.6,8.5,7.6c3.5,0,7-0.7,10.5-2.1c3.5-1.4,7-3.2,10.3-5.4c3.3-2.2,6.4-4.7,9.2-7.4c2.8-2.7,5.2-5.3,7.3-7.8
		C1658.3,764.1,1658.2,763.9,1657.9,763.7z M1598.6,759.1c-2.6,2.5-5.7,3.7-9.2,3.7c-0.4,0-0.8,0-1.4-0.1c-0.6-0.1-1-0.1-1.3-0.3
		c0.7-1.6,1.6-3.2,2.7-4.9c1.1-1.7,2.2-3.2,3.4-4.7c1.2-1.4,2.4-2.6,3.7-3.5c1.3-0.9,2.5-1.3,3.7-1.3c1.6,0,2.3,0.8,2.3,2.3
		C1602.5,753.8,1601.2,756.7,1598.6,759.1z M1621,763.7c-0.3-0.1-0.6-0.1-0.8,0.2c-1.6,2-3.5,4.2-5.8,6.6c-2.3,2.3-4.9,4.5-7.7,6.5
		c-2.8,2-5.6,3.6-8.5,5c-2.9,1.3-5.8,2-8.5,2c-4.4,0-6.7-2.5-6.7-7.4c0-2.4,0.4-4.8,1.1-7.1c0.7-2.3,1.4-4,2-5.1
		c3.8,0,7.1-0.5,9.9-1.5c2.8-1,5-2.3,6.8-3.8c1.8-1.5,3.2-3.1,4-4.8c0.9-1.7,1.4-3.2,1.4-4.7c0-1-0.3-1.7-1-2.3
		c-0.7-0.6-1.8-0.9-3.5-0.9c-3,0-6.2,1.1-9.5,3.3c-3.3,2.2-6.3,5-9.1,8.3c-2.8,3.3-5,6.9-6.8,10.8c-1.7,3.9-2.6,7.5-2.6,10.9
		c0,5,2.8,7.6,8.5,7.6c3.5,0,7-0.7,10.5-2.1c3.5-1.4,7-3.2,10.3-5.4c3.3-2.2,6.4-4.7,9.2-7.4c2.8-2.7,5.2-5.3,7.3-7.8
		C1621.4,764.1,1621.3,763.9,1621,763.7z M1570.7,750.9c0.4-0.8,0.7-1.5,1.1-2.1c0-1.2-1-1.8-2.9-1.8c-1.8,0-3.6,0.5-5.5,1.4
		c-1.9,1-3.6,2.1-5.1,3.5c-1.6,1.4-2.9,2.9-3.9,4.6c-1,1.7-1.5,3.2-1.5,4.7c0,1.4,0.4,2.8,1.1,4c0.7,1.2,1.4,2.4,2.2,3.6
		c0.7,1.1,1.4,2.3,2,3.6c0.6,1.3,0.9,2.8,0.9,4.3c0,2-0.4,3.7-1.3,4.9c-0.8,1.2-1.8,2.1-3,2.8c-1.1,0.7-2.4,1.1-3.7,1.3
		c-1.3,0.2-2.5,0.3-3.4,0.3c-2.3,0-4.3-0.8-5.9-2.3c-1.7-1.6-2.8-3.4-3.4-5.6c-0.1-0.5-0.3-0.7-0.5-0.7c-0.4,0.5-0.9,1-1.7,1.5
		c-0.8,0.5-1.5,1-2.1,1.4c0.7,4.9,4.7,7.4,12.1,7.4c1.2,0,2.8-0.2,4.9-0.6c2-0.4,4-1.2,6-2.4c2-1.2,3.7-2.8,5.1-4.8
		c1.4-2,2.2-4.5,2.2-7.7c0-1.6-0.4-3.1-1.3-4.5c-0.8-1.4-1.7-2.9-2.7-4.3c-1.1-1.6-1.9-2.8-2.5-3.8c-0.6-1-0.9-1.9-0.9-2.9
		c0-1.9,0.8-3.4,2.5-4.3c1.7-1,3.4-1.4,5-1.4c2.3,0,3.8,0.8,4.5,2.3c0.2,0.5,0.5,0.4,0.9-0.2C1570,752.3,1570.3,751.6,1570.7,750.9z
		 M1490.3,763.7c-1.5,3.1-3.3,6.2-5.5,9.3c-2.2,3.1-4.4,5.7-6.8,8c-2.4,2.3-4.6,3.4-6.7,3.4c-1.1,0-1.8-0.4-2.1-1.1
		c-0.3-0.7-0.5-1.5-0.5-2.3c-0.1-2.8,0.5-5.7,1.7-8.7c1.3-3.1,2.7-5.9,4.2-8.5c1.2-2,2.5-4,4-5.9c1.4-1.9,2.9-3.6,4.3-5.1
		c1.4-1.5,2.9-2.7,4.3-3.6c1.4-0.9,2.8-1.4,4.1-1.4c0.5,0,0.7,0.3,0.7,0.9c0,1.3,0.1,2.7,0.2,4.1c0.1,1.4,0.3,2.7,0.5,3.8
		C1492.7,758.2,1491.8,760.6,1490.3,763.7z M1522.5,754.2c-0.5-0.2-0.9-0.1-1.2,0.5c-1.7,2.4-3.8,4.6-6.3,6.7
		c-2.5,2-5.3,3.1-8.5,3.1c-3.1,0-5.3-1.1-6.6-3.2s-1.9-4.9-1.9-8.3c0-2.4,0.2-4.6,0.6-6.7c0.4-2,1-3.7,1.9-5c0.2-0.5,0.2-0.8-0.2-1
		c-0.4-0.2-0.7-0.1-1.1,0.1c-0.5,0.2-1,0.4-1.6,0.5c-0.6,0.1-1.2,0.2-1.8,0.4c-1.2,0.2-2,1-2.5,2.2c-0.5,1.3-0.8,2.4-1.1,3.3
		c-3.7,0.4-7.2,1.5-10.4,3.4c-3.2,1.9-6.1,4.3-8.6,7c-1.2,1.2-2.5,2.8-3.9,4.7c-1.4,1.9-2.7,4-3.9,6.1c-1.2,2.2-2.2,4.4-3,6.7
		c-0.8,2.3-1.2,4.5-1.2,6.7c0,3.8,2.2,5.8,6.5,5.8c1.4,0,3.2-0.5,5.4-1.4c2.5-1.3,4.9-3,7.1-5c2.2-2,4.2-4.3,6-6.8
		c1.8-2.5,3.4-4.9,4.7-7.4c1.3-2.5,2.4-4.6,3.2-6.6c1.2,2,2.8,3.6,4.8,4.6c2,1,4,1.5,6,1.5c3.7,0,7-1.1,10-3.3
		c2.9-2.2,5.4-4.7,7.5-7.5C1523.1,754.8,1523,754.4,1522.5,754.2z M1469.7,719.4c-0.1-0.3-0.3-0.5-0.5-0.5c-1.8,0.6-3.9,1.4-6.2,2.3
		c-2.3,1-4.2,1.7-5.5,2.3c-1.1,1.8-2.3,3.8-3.7,5.9c-1.4,2.1-2.7,4.3-4,6.5c-1.3,2.2-2.6,4.4-4,6.7c-1.3,2.2-2.5,4.2-3.6,6l-9.2,0.2
		c-1.1,0.8-1.9,1.7-2.3,2.5c0,0.5,0.3,0.7,0.9,0.7c0.4,0,1.6-0.1,3.7-0.3c2.1-0.2,3.9-0.3,5.3-0.4c-4.2,6.8-7.4,12.6-9.5,17.3
		c-2.2,4.7-3.2,8.2-3.2,10.6c0,2.8,0.7,4.7,2.2,5.9c1.4,1.1,3.1,1.7,5,1.7c3.6,0,7.1-0.6,10.6-1.8c3.5-1.2,7.3-3.1,11.3-5.8
		c0.6-0.2,0.7-0.6,0.4-1c-0.4-0.4-0.7-0.4-1.1-0.1c-2.8,1.7-5.4,3-7.8,4c-2.5,1-4.7,1.5-6.6,1.5c-4,0-5.9-2.2-5.9-6.5
		c0-3.1,0.9-6.8,2.7-11c1.8-4.2,4.4-9.3,7.7-15.3c1.8-0.1,3.9-0.2,6.3-0.4c2.4-0.1,4.7-0.2,7-0.4c2.3-0.1,4.4-0.2,6.3-0.3
		c1.9-0.1,3.4-0.1,4.3-0.1c0.2-0.1,0.4-0.3,0.4-0.5c0-0.2-0.2-0.5-0.5-0.7h-22.3c2.4-4.2,4.9-8.4,7.5-12.6c2.6-4.2,5.2-8.2,8-12.1
		c0.6-1,1.5-1.8,2.7-2.4c1.2-0.7,2.3-1.1,3.2-1.4C1469.6,719.9,1469.8,719.7,1469.7,719.4z M1385.8,750.9c0.4-0.8,0.7-1.5,1.1-2.1
		c0-1.2-1-1.8-2.9-1.8c-1.8,0-3.6,0.5-5.5,1.4c-1.9,1-3.6,2.1-5.1,3.5c-1.6,1.4-2.9,2.9-3.9,4.6c-1,1.7-1.5,3.2-1.5,4.7
		c0,1.4,0.4,2.8,1.1,4c0.7,1.2,1.4,2.4,2.2,3.6c0.7,1.1,1.4,2.3,2,3.6c0.6,1.3,0.9,2.8,0.9,4.3c0,2-0.4,3.7-1.3,4.9
		c-0.8,1.2-1.8,2.1-3,2.8c-1.1,0.7-2.4,1.1-3.7,1.3c-1.3,0.2-2.5,0.3-3.4,0.3c-2.3,0-4.3-0.8-5.9-2.3c-1.7-1.6-2.8-3.4-3.4-5.6
		c-0.1-0.5-0.3-0.7-0.5-0.7c-0.4,0.5-0.9,1-1.7,1.5c-0.8,0.5-1.5,1-2.1,1.4c0.7,4.9,4.7,7.4,12.1,7.4c1.2,0,2.8-0.2,4.9-0.6
		c2-0.4,4-1.2,6-2.4c2-1.2,3.7-2.8,5.1-4.8c1.4-2,2.2-4.5,2.2-7.7c0-1.6-0.4-3.1-1.3-4.5c-0.8-1.4-1.7-2.9-2.7-4.3
		c-1.1-1.6-1.9-2.8-2.5-3.8c-0.6-1-0.9-1.9-0.9-2.9c0-1.9,0.8-3.4,2.5-4.3c1.7-1,3.4-1.4,5-1.4c2.3,0,3.8,0.8,4.5,2.3
		c0.2,0.5,0.5,0.4,0.9-0.2C1385.1,752.3,1385.4,751.6,1385.8,750.9z M1368.4,760.9c-0.1-0.3-0.4-0.1-1,0.4c-1.3,1.8-3.2,4-5.6,6.5
		c-2.4,2.5-5,4.9-7.8,7.2c-2.8,2.3-5.7,4.2-8.5,5.8c-2.9,1.6-5.5,2.4-7.9,2.4c-1.3,0-2.4-0.3-3.2-1c-0.8-0.7-1.2-1.7-1.2-3.2
		c0-1.3,0.4-3.1,1.2-5.4c0.8-2.3,1.8-4.8,3.2-7.5c1.3-2.7,2.8-5.5,4.4-8.4c1.6-2.9,3.2-5.5,4.8-7.9c0.2-0.2,0.5-0.6,0.6-1.1
		c0.2-0.5,0.3-0.8,0.3-1.1c0-0.4-0.3-0.5-0.9-0.5c-0.5,0-1.5,0.3-3,1c-1.5,0.7-2.6,1.5-3.2,2.4c-1,1.3-2.2,3.3-3.9,5.9
		c-1.6,2.6-3.2,5.4-4.9,8.3c-1.6,2.9-3,5.7-4.2,8.4c-1.2,2.7-1.8,4.8-1.8,6.4c0,1.3,0.3,2.4,0.8,3.2c0.5,0.8,1.2,1.4,2,1.9
		c0.8,0.5,1.6,0.8,2.6,0.9c1,0.1,1.8,0.2,2.5,0.2c2,0,4.3-0.4,6.8-1.3c2.5-0.8,5-2,7.4-3.6c3.1-2,6.5-4.7,10.3-8.1
		c3.7-3.4,7-6.9,9.9-10.6C1368.4,761.7,1368.5,761.2,1368.4,760.9z M1357.7,719.8c-1.7,0-3.1,0.7-4.2,2.2c-1.1,1.4-1.7,2.9-1.7,4.5
		c0,1.4,0.7,2.2,2.2,2.2c1.6,0,3-0.7,4.2-2.2c1.3-1.4,1.9-2.9,1.9-4.3C1360.1,720.6,1359.3,719.8,1357.7,719.8z M1259.3,782
		c2.3-1.3,4.1-2.4,5.4-3.5c0.1-0.1,0.3-0.2,0.5-0.4c0.2-0.1,0.2,0.1,0,0.5c-3,5.3-6.3,10.9-9.9,16.8c-3.6,5.9-7.4,11.8-11.4,17.7
		c-4,5.9-8.2,11.5-12.5,16.9c-4.3,5.4-8.8,10.1-13.4,14.2c-4.6,4.1-9.4,7.3-14.2,9.8c-4.9,2.5-9.7,3.7-14.7,3.7
		c-6.1,0-10.4-1.3-12.8-4c-2.4-2.6-3.6-5.6-3.6-8.8c0-0.5-0.1-0.7-0.4-0.5c-0.2,0.1-0.4,0.4-0.5,0.7c-0.2,0.6-0.4,1.4-0.6,2.4
		c-0.2,1-0.3,2-0.3,3c0,4.2,1.4,7.1,4.1,8.8c2.8,1.7,5.9,2.5,9.4,2.5c5.9,0,11.5-1.3,16.8-3.8c5.3-2.5,10.5-5.9,15.5-10.3
		c5-4.3,9.8-9.4,14.5-15.2c4.7-5.8,9.2-12,13.7-18.5c4.4-6.5,8.8-13.3,13.2-20.3c4.4-7,8.7-13.8,13-20.4c1.8-2.3,3.7-4.7,5.7-7.4
		c2-2.6,3.8-5.1,5.5-7.5c1.7-2.3,3.1-4.4,4.1-6.1c1.1-1.7,1.6-2.8,1.6-3.3c0-1-0.2-1.9-0.6-2.9c-0.4-1-0.9-1.6-1.3-1.8
		c-0.8,0-1.9,0.9-3.2,2.7s-2.6,4-4,6.7c-3,5.4-5.6,10.1-7.7,14.1c-2.1,4-3.7,6.6-4.8,7.7c-0.5,0.6-1.2,1.2-2.2,1.9
		c-1,0.7-2,1.3-3.1,1.9c-1.1,0.6-2.1,1.1-3.1,1.4c-1,0.4-1.7,0.5-2.3,0.5c-1.3,0-2-0.7-2-2.2c0-2.6,1.5-6.3,4.4-11.1
		c2.9-4.7,6.6-10.9,10.9-18.4c0-0.4-0.2-0.5-0.7-0.5c-0.2,0-0.9,0.1-1.9,0.3c-1,0.2-1.8,0.3-2.4,0.5c-0.4,0.2-0.7,0.5-1,0.8
		c-0.3,0.3-0.7,0.8-1.2,1.4c-4.2,6.5-7.8,12.1-10.7,16.8c-2.9,4.7-4.4,8.3-4.4,10.7c0,1.4,0.5,2.5,1.4,3.2c1,0.7,2.3,1.1,4,1.1
		C1254.6,783.9,1257,783.3,1259.3,782z M1253.2,747.4c-0.8-0.5-1.7-0.8-2.8-0.8c-1.4,0-3.1,0.4-5,1.3c-1.9,0.8-3.8,1.9-5.7,3.2
		c-1.9,1.3-3.8,2.6-5.5,4c-1.7,1.4-3.2,2.8-4.4,4c-0.4,0.4-0.7,0.5-0.9,0.5c-0.2,0-0.2-0.3,0.2-0.9c0.2-0.4,0.6-1,1.1-1.8
		c0.5-0.8,1-1.7,1.5-2.6c0.5-0.9,1-1.8,1.4-2.6c0.4-0.8,0.6-1.4,0.6-1.8c0-1.1-0.5-1.9-1.4-2.5c-1-0.6-1.6-0.9-1.8-0.9
		c-0.2,0-0.7,0.5-1.3,1.6c-0.5,1.1-1.4,2.7-2.7,5c-1.3,2.2-2.9,4.8-4.6,7.8c-1.7,3-3.6,6.2-5.6,9.6c-2,3.4-3.9,6.8-5.8,10.2
		c-0.8,1.4-1.3,2.5-1.3,3.2c0,0.4,0.4,0.9,1.2,1.6c0.8,0.7,1.3,1.1,1.5,1.1c0.6,0,1-0.2,1.1-0.5c1.7-2.6,3.2-5.2,4.7-7.8
		c1.4-2.6,2.9-5.1,4.5-7.6c1.6-2.5,3.2-4.8,5-7.1c1.7-2.3,3.7-4.4,6-6.3c1.4-1.3,3.1-2.5,5-3.6c1.9-1.1,3.7-1.6,5.2-1.6
		c1.3,0,2.3,0.2,3.1,0.5c0.7,0.4,1.3,0.8,1.7,1.2c0.4,0.4,0.7,0.8,1,1.2c0.2,0.4,0.4,0.5,0.5,0.5c0.4,0,0.6-0.2,0.7-0.5
		c0.2-0.6,0.7-1.5,1.5-2.7c0.8-1.2,1.5-2.2,2.2-3.1C1254.4,748.6,1254,748,1253.2,747.4z M1196.9,763.7c-1.5,3.1-3.3,6.2-5.5,9.3
		c-2.2,3.1-4.4,5.7-6.8,8c-2.4,2.3-4.6,3.4-6.7,3.4c-1.1,0-1.8-0.4-2.1-1.1c-0.3-0.7-0.5-1.5-0.5-2.3c-0.1-2.8,0.5-5.7,1.7-8.7
		c1.3-3.1,2.7-5.9,4.2-8.5c1.2-2,2.5-4,4-5.9c1.4-1.9,2.9-3.6,4.3-5.1c1.4-1.5,2.9-2.7,4.3-3.6c1.4-0.9,2.8-1.4,4.1-1.4
		c0.5,0,0.7,0.3,0.7,0.9c0,1.3,0.1,2.7,0.2,4.1c0.1,1.4,0.3,2.7,0.5,3.8C1199.3,758.2,1198.4,760.6,1196.9,763.7z M1229.1,754.2
		c-0.5-0.2-0.9-0.1-1.2,0.5c-1.7,2.4-3.8,4.6-6.3,6.7c-2.5,2-5.3,3.1-8.5,3.1c-3.1,0-5.3-1.1-6.6-3.2s-1.9-4.9-1.9-8.3
		c0-2.4,0.2-4.6,0.6-6.7c0.4-2,1-3.7,1.9-5c0.2-0.5,0.2-0.8-0.2-1c-0.4-0.2-0.7-0.1-1.1,0.1c-0.5,0.2-1,0.4-1.6,0.5
		c-0.6,0.1-1.2,0.2-1.8,0.4c-1.2,0.2-2,1-2.5,2.2c-0.5,1.3-0.8,2.4-1.1,3.3c-3.7,0.4-7.2,1.5-10.4,3.4c-3.2,1.9-6.1,4.3-8.6,7
		c-1.2,1.2-2.5,2.8-3.9,4.7c-1.4,1.9-2.7,4-3.9,6.1c-1.2,2.2-2.2,4.4-3,6.7c-0.8,2.3-1.2,4.5-1.2,6.7c0,3.8,2.2,5.8,6.5,5.8
		c1.4,0,3.2-0.5,5.4-1.4c2.5-1.3,4.9-3,7.1-5c2.2-2,4.2-4.3,6-6.8c1.8-2.5,3.4-4.9,4.7-7.4c1.3-2.5,2.4-4.6,3.2-6.6
		c1.2,2,2.8,3.6,4.8,4.6c2,1,4,1.5,6,1.5c3.7,0,7-1.1,10-3.3c2.9-2.2,5.4-4.7,7.5-7.5C1229.7,754.8,1229.7,754.4,1229.1,754.2z
		 M1176.3,719.4c-0.1-0.3-0.3-0.5-0.5-0.5c-1.8,0.6-3.9,1.4-6.2,2.3c-2.3,1-4.2,1.7-5.5,2.3c-1.1,1.8-2.3,3.8-3.7,5.9
		c-1.4,2.1-2.7,4.3-4,6.5c-1.3,2.2-2.6,4.4-4,6.7c-1.3,2.2-2.5,4.2-3.6,6l-9.2,0.2c-1.1,0.8-1.9,1.7-2.3,2.5c0,0.5,0.3,0.7,0.9,0.7
		c0.4,0,1.6-0.1,3.7-0.3c2.1-0.2,3.9-0.3,5.3-0.4c-4.2,6.8-7.4,12.6-9.5,17.3c-2.2,4.7-3.2,8.2-3.2,10.6c0,2.8,0.7,4.7,2.2,5.9
		c1.4,1.1,3.1,1.7,5,1.7c3.6,0,7.1-0.6,10.6-1.8c3.5-1.2,7.3-3.1,11.3-5.8c0.6-0.2,0.7-0.6,0.4-1c-0.4-0.4-0.7-0.4-1.1-0.1
		c-2.8,1.7-5.4,3-7.8,4c-2.5,1-4.7,1.5-6.6,1.5c-4,0-5.9-2.2-5.9-6.5c0-3.1,0.9-6.8,2.7-11c1.8-4.2,4.4-9.3,7.7-15.3
		c1.8-0.1,3.9-0.2,6.3-0.4c2.4-0.1,4.7-0.2,7-0.4c2.3-0.1,4.4-0.2,6.3-0.3c1.9-0.1,3.4-0.1,4.3-0.1c0.2-0.1,0.4-0.3,0.4-0.5
		c0-0.2-0.2-0.5-0.5-0.7h-22.3c2.4-4.2,4.9-8.4,7.5-12.6c2.6-4.2,5.2-8.2,8-12.1c0.6-1,1.5-1.8,2.7-2.4c1.2-0.7,2.3-1.1,3.2-1.4
		C1176.2,719.9,1176.4,719.7,1176.3,719.4z M1128.4,750.9c0.4-0.8,0.7-1.5,1.1-2.1c0-1.2-1-1.8-2.9-1.8c-1.8,0-3.6,0.5-5.5,1.4
		c-1.9,1-3.6,2.1-5.1,3.5c-1.6,1.4-2.9,2.9-3.9,4.6c-1,1.7-1.5,3.2-1.5,4.7c0,1.4,0.4,2.8,1.1,4c0.7,1.2,1.4,2.4,2.2,3.6
		c0.7,1.1,1.4,2.3,2,3.6c0.6,1.3,0.9,2.8,0.9,4.3c0,2-0.4,3.7-1.3,4.9c-0.8,1.2-1.8,2.1-3,2.8c-1.1,0.7-2.4,1.1-3.7,1.3
		c-1.3,0.2-2.5,0.3-3.4,0.3c-2.3,0-4.3-0.8-5.9-2.3c-1.7-1.6-2.8-3.4-3.4-5.6c-0.1-0.5-0.3-0.7-0.5-0.7c-0.4,0.5-0.9,1-1.7,1.5
		c-0.8,0.5-1.5,1-2.1,1.4c0.7,4.9,4.7,7.4,12.1,7.4c1.2,0,2.8-0.2,4.9-0.6c2-0.4,4-1.2,6-2.4c2-1.2,3.7-2.8,5.1-4.8
		c1.4-2,2.2-4.5,2.2-7.7c0-1.6-0.4-3.1-1.3-4.5c-0.8-1.4-1.7-2.9-2.7-4.3c-1.1-1.6-1.9-2.8-2.5-3.8c-0.6-1-0.9-1.9-0.9-2.9
		c0-1.9,0.8-3.4,2.5-4.3c1.7-1,3.4-1.4,5-1.4c2.3,0,3.8,0.8,4.5,2.3c0.2,0.5,0.5,0.4,0.9-0.2C1127.7,752.3,1128,751.6,1128.4,750.9z
		 M1051.2,759.1c-2.6,2.5-5.7,3.7-9.2,3.7c-0.4,0-0.8,0-1.4-0.1c-0.6-0.1-1-0.1-1.3-0.3c0.7-1.6,1.6-3.2,2.7-4.9
		c1.1-1.7,2.2-3.2,3.4-4.7c1.2-1.4,2.4-2.6,3.7-3.5c1.3-0.9,2.5-1.3,3.7-1.3c1.6,0,2.3,0.8,2.3,2.3
		C1055.1,753.8,1053.8,756.7,1051.2,759.1z M1073.6,763.7c-0.3-0.1-0.6-0.1-0.8,0.2c-1.6,2-3.5,4.2-5.8,6.6
		c-2.3,2.3-4.9,4.5-7.7,6.5c-2.8,2-5.6,3.6-8.5,5c-2.9,1.3-5.8,2-8.5,2c-4.4,0-6.7-2.5-6.7-7.4c0-2.4,0.4-4.8,1.1-7.1
		c0.7-2.3,1.4-4,2-5.1c3.8,0,7.1-0.5,9.9-1.5c2.8-1,5-2.3,6.8-3.8c1.8-1.5,3.2-3.1,4-4.8c0.9-1.7,1.4-3.2,1.4-4.7c0-1-0.3-1.7-1-2.3
		c-0.7-0.6-1.8-0.9-3.5-0.9c-3,0-6.2,1.1-9.5,3.3c-3.3,2.2-6.3,5-9.1,8.3c-2.8,3.3-5,6.9-6.8,10.8c-1.7,3.9-2.6,7.5-2.6,10.9
		c0,5,2.8,7.6,8.5,7.6c3.5,0,7-0.7,10.5-2.1c3.5-1.4,7-3.2,10.3-5.4c3.3-2.2,6.4-4.7,9.2-7.4c2.8-2.7,5.2-5.3,7.3-7.8
		C1074,764.1,1073.9,763.9,1073.6,763.7z M1096.6,660.5c-1-1.7-2.3-3.1-4-4c-1.6-1-3.3-1.6-5.1-2.1c-1.8-0.4-3.5-0.6-5.2-0.6
		c-6.7,0-13.4,2.4-20.1,7.3c-6.7,4.9-13.2,11.1-19.7,18.8c-6.5,7.7-12.8,16.2-19,25.6c-6.2,9.4-12.2,18.5-17.9,27.5
		c-4.9,7.8-9.8,15.8-14.6,23.8c-4.8,8.1-9.7,16.7-14.8,25.8c-0.4,0.7-0.5,1.4-0.5,2c0,0.8,0.5,1.4,1.4,1.7c1,0.3,1.7,0.5,2.3,0.5
		c0.8,0,1.7-1,2.7-2.9c1.3-2.5,2.9-5.4,4.7-8.6c1.8-3.2,3.5-6.4,5.2-9.4c4.2-5.6,7.7-9.5,10.5-11.5c2.8-2,4.8-3.1,5.8-3.1
		c0.4,0,0.5,0.3,0.5,0.9c0,1.1-0.7,2.9-2,5.5c-1.3,2.6-2.8,5.4-4.4,8.5c-1.6,3.1-3.1,6.1-4.4,9.1c-1.3,3-2,5.5-2,7.4
		c0,2,0.6,3.6,1.8,4.8c1.2,1.1,2.8,1.7,4.9,1.7c2.6,0,5.5-0.8,8.7-2.4c3.2-1.6,6.4-3.7,9.5-6.4c3.2-2.6,6.3-5.6,9.4-8.8
		c3.1-3.2,5.7-6.5,8-9.7c0-0.5-0.1-0.7-0.4-0.7c-0.2,0-0.5,0.1-0.7,0.4c-6.5,8.6-12.2,14.8-17.3,18.4c-5,3.6-8.9,5.4-11.7,5.4
		c-1.7,0-3-0.5-4-1.4c-1-1-1.4-2.4-1.4-4.3c0-1.7,0.5-3.9,1.6-6.7c1.1-2.8,2.4-5.6,3.9-8.5c1.5-2.9,3-5.6,4.6-8.1
		c1.6-2.5,2.8-4.5,3.8-5.9c1.1-1.4,1.6-2.5,1.6-3.2c0-0.8-0.5-1.3-1.6-1.3c-1.4,0-3.2,0.5-5.2,1.6c-2,1.1-4.1,2.3-6.3,3.8
		c-2.2,1.4-4.1,2.9-5.9,4.3c-1.8,1.4-3.1,2.5-4,3.2c7.2-14.2,13.8-26.4,19.9-36.8c6.1-10.4,11.7-19.2,16.8-26.5
		c5.2-7.3,9.9-13.2,14.3-17.7c4.4-4.6,8.5-8.1,12.3-10.7c3.8-2.6,7.4-4.3,10.7-5.2c3.3-0.9,6.5-1.3,9.6-1.3c3.6,0,6.5,0.5,8.8,1.5
		c2.3,1,4.1,2.2,5.3,3.6c1.3,1.4,2.1,2.8,2.5,4.2c0.4,1.4,0.6,2.6,0.6,3.4c0,0.2,0.1,0.4,0.3,0.6c0.2,0.2,0.4,0.1,0.5-0.3
		c0.2-0.4,0.4-1,0.5-2c0.2-1,0.3-2.4,0.3-4.3C1098.2,664.5,1097.7,662.2,1096.6,660.5z M987.6,719.4c-0.1-0.3-0.3-0.5-0.5-0.5
		c-1.8,0.6-3.9,1.4-6.2,2.3c-2.3,1-4.2,1.7-5.5,2.3c-1.1,1.8-2.3,3.8-3.7,5.9c-1.4,2.1-2.7,4.3-4,6.5c-1.3,2.2-2.6,4.4-4,6.7
		c-1.3,2.2-2.5,4.2-3.6,6l-9.2,0.2c-1.1,0.8-1.9,1.7-2.3,2.5c0,0.5,0.3,0.7,0.9,0.7c0.4,0,1.6-0.1,3.7-0.3c2.1-0.2,3.9-0.3,5.3-0.4
		c-4.2,6.8-7.4,12.6-9.5,17.3c-2.2,4.7-3.2,8.2-3.2,10.6c0,2.8,0.7,4.7,2.2,5.9c1.4,1.1,3.1,1.7,5,1.7c3.6,0,7.1-0.6,10.6-1.8
		c3.5-1.2,7.3-3.1,11.3-5.8c0.6-0.2,0.7-0.6,0.4-1c-0.4-0.4-0.7-0.4-1.1-0.1c-2.8,1.7-5.4,3-7.8,4c-2.5,1-4.7,1.5-6.6,1.5
		c-4,0-5.9-2.2-5.9-6.5c0-3.1,0.9-6.8,2.7-11c1.8-4.2,4.4-9.3,7.7-15.3c1.8-0.1,3.9-0.2,6.3-0.4c2.4-0.1,4.7-0.2,7-0.4
		c2.3-0.1,4.4-0.2,6.3-0.3c1.9-0.1,3.4-0.1,4.3-0.1c0.2-0.1,0.4-0.3,0.4-0.5c0-0.2-0.2-0.5-0.5-0.7h-22.3c2.4-4.2,4.9-8.4,7.5-12.6
		c2.6-4.2,5.2-8.2,8-12.1c0.6-1,1.5-1.8,2.7-2.4c1.2-0.7,2.3-1.1,3.2-1.4C987.6,719.9,987.8,719.7,987.6,719.4z M979.9,653.4
		c-1.8-1.1-3.9-1.6-6.3-1.6c-3.5,0-7.1,1.1-10.9,3.1c-3.8,2.1-7.6,4.9-11.4,8.5c-3.8,3.5-7.6,7.6-11.3,12.2
		c-3.7,4.6-7.2,9.4-10.4,14.3c-6,9-11.8,18.2-17.4,27.6c-5.6,9.4-11.4,19.7-17.4,30.7c-1.3,0-2.9,0.1-4.7,0.2
		c-1.8,0.1-3.6,0.2-5.5,0.4c-1.9,0.1-3.6,0.3-5.2,0.5c-1.6,0.2-2.9,0.5-3.9,0.7c-1.4,0.5-3,1.7-4.7,3.7c-1.7,2-3.4,5-5,8.9l0.5,0.2
		c1.3-2.6,2.5-4.7,3.5-6.2c1-1.5,2.4-2.6,4.2-3.4c1.8-0.8,4.2-1.3,7.2-1.7c3-0.4,7.1-0.7,12.2-1.1c-2.9,4.9-6.1,10.7-9.6,17.3
		c-3.5,6.6-7.3,13.5-11.3,20.6c-4,7.1-8.2,14.3-12.4,21.6c-4.3,7.3-8.6,14.1-12.9,20.4c-8.2,12-16,21.9-23.7,29.8
		c-7.6,7.9-14.9,14.1-21.9,18.8c-7,4.7-13.6,7.9-19.9,9.8c-6.3,1.9-12.1,2.8-17.5,3c-3.4,0-6.2-0.5-8.6-1.3c-2.4-0.9-4.4-2-6-3.3
		c-1.6-1.3-2.8-2.7-3.7-4c-0.8-1.4-1.3-2.5-1.4-3.3c-0.2-0.6-0.5-1-0.7-1.1c-0.2-0.1-0.4,0.3-0.4,1.3c0.7,3.2,1.8,5.8,3.2,7.8
		c1.4,2,3.1,3.5,5,4.6c1.9,1.1,3.8,1.8,5.8,2.2s3.8,0.5,5.5,0.5c5.8,0,11.9-1.1,18.3-3.3c6.4-2.2,13.3-5.8,20.6-10.8
		c7.3-5,15-11.5,23.1-19.4c8.1-8,16.7-17.7,25.7-29.2c3.6-4.7,7.5-10.1,11.8-16.3c4.3-6.2,8.6-12.9,13-20.1
		c4.4-7.2,8.8-14.7,13.1-22.4c4.4-7.7,8.5-15.4,12.5-23.1c2.3,0,4.8,0,7.7-0.1c2.8-0.1,5.5-0.1,8.2-0.2c2.6-0.1,4.9-0.1,6.8-0.1
		c1.9,0,3.1,0,3.6,0c0.2-0.8,0.1-1.4-0.5-1.8c-0.7,0-2.2,0-4.5,0c-2.2,0-4.6,0-7.2,0c-2.6,0-5.2,0-7.7,0.1c-2.5,0.1-4.3,0.1-5.4,0.1
		c2.5-5,5.3-10.5,8.3-16.3c3-5.8,6-11.5,9-17.1c3-5.6,5.8-10.8,8.5-15.8c2.6-4.9,4.9-8.9,6.7-12.1c3.2-5.5,6.4-10.1,9.4-13.7
		c3.1-3.6,6-6.5,8.8-8.6c2.8-2.2,5.6-3.7,8.3-4.5c2.7-0.8,5.3-1.3,7.8-1.3c3.6,0,6.4,0.7,8.4,2c2,1.3,3,3.2,3,5.6
		c0,0.7,0,1.4-0.1,2.2c-0.1,0.7-0.2,1.6-0.5,2.5c0.2,0.2,0.5,0.4,0.7,0.4c0.4,0,0.7-0.1,0.9-0.4c0-0.7,0.1-1.8,0.3-3.2
		c0.2-1.4,0.4-2.9,0.5-4.3c0.2-1.4,0.4-2.8,0.5-4c0.2-1.2,0.3-2,0.3-2.5C982.6,655.7,981.7,654.5,979.9,653.4z M852.6,763.7
		c-1.5,3.1-3.3,6.2-5.5,9.3c-2.2,3.1-4.4,5.7-6.8,8c-2.4,2.3-4.6,3.4-6.7,3.4c-1.1,0-1.8-0.4-2.1-1.1c-0.3-0.7-0.5-1.5-0.5-2.3
		c-0.1-2.8,0.5-5.7,1.7-8.7c1.3-3.1,2.7-5.9,4.2-8.5c1.2-2,2.5-4,4-5.9c1.4-1.9,2.9-3.6,4.3-5.1c1.4-1.5,2.9-2.7,4.3-3.6
		c1.4-0.9,2.8-1.4,4.1-1.4c0.5,0,0.7,0.3,0.7,0.9c0,1.3,0.1,2.7,0.2,4.1c0.1,1.4,0.3,2.7,0.5,3.8
		C854.9,758.2,854.1,760.6,852.6,763.7z M884.8,754.2c-0.5-0.2-0.9-0.1-1.2,0.5c-1.7,2.4-3.8,4.6-6.3,6.7c-2.5,2-5.3,3.1-8.5,3.1
		c-3.1,0-5.3-1.1-6.6-3.2c-1.3-2.2-1.9-4.9-1.9-8.3c0-2.4,0.2-4.6,0.6-6.7c0.4-2,1-3.7,1.9-5c0.2-0.5,0.2-0.8-0.2-1
		s-0.7-0.1-1.1,0.1c-0.5,0.2-1,0.4-1.6,0.5c-0.6,0.1-1.2,0.2-1.8,0.4c-1.2,0.2-2,1-2.5,2.2c-0.5,1.3-0.8,2.4-1.1,3.3
		c-3.7,0.4-7.2,1.5-10.4,3.4c-3.2,1.9-6.1,4.3-8.6,7c-1.2,1.2-2.5,2.8-3.9,4.7c-1.4,1.9-2.7,4-3.9,6.1c-1.2,2.2-2.2,4.4-3,6.7
		c-0.8,2.3-1.2,4.5-1.2,6.7c0,3.8,2.2,5.8,6.5,5.8c1.4,0,3.2-0.5,5.4-1.4c2.5-1.3,4.9-3,7.1-5c2.2-2,4.2-4.3,6-6.8
		c1.8-2.5,3.4-4.9,4.7-7.4c1.3-2.5,2.4-4.6,3.2-6.6c1.2,2,2.8,3.6,4.8,4.6c2,1,4,1.5,6,1.5c3.7,0,7-1.1,10-3.3
		c2.9-2.2,5.4-4.7,7.5-7.5C885.3,754.8,885.3,754.4,884.8,754.2z M825.8,687.8c-2.6,5.8-6.2,11.7-10.8,17.8
		c-4.6,6.1-10,12.1-16.3,17.9c-6.3,5.8-13.1,10.8-20.2,14.9c5.2-8.3,9.6-15.4,13.4-21.5c3.8-6.1,7-11.2,9.7-15.3
		c2.7-4.1,4.9-7.5,6.7-10c1.7-2.5,3.1-4.4,4.1-5.8c2.5-3.2,4.6-5.9,6.2-7.9c1.6-2,3-3.6,4.1-4.8c1.1-1.1,2.1-1.9,2.8-2.2
		c0.7-0.4,1.4-0.5,2-0.5c1.6,0,2.3,1,2.3,2.9C829.8,677.2,828.5,682,825.8,687.8z M837,666.1c-0.6-0.5-1.4-0.8-2.3-0.8
		c-1.3,0-3.9,1-7.7,3.1c-3.8,2-8,5-12.6,8.8c-3.4,2.8-6.1,5.5-8.3,8.3c-2.2,2.8-4.3,5.7-6.3,8.8c-1.7,2.5-3.5,5.4-5.5,8.7
		c-2,3.3-4.1,6.8-6.2,10.3c-2.2,3.6-4.4,7.3-6.6,11.1c-2.2,3.8-4.4,7.4-6.4,10.9c-1.2,2-3.1,5-5.6,9c-2.5,4-5,8.2-7.6,12.6
		c-2.5,4.4-4.7,8.7-6.6,12.7c-1.9,4-2.8,7.1-2.8,9.3c0,2.2,0.7,4,2.1,5.5c1.4,1.5,3.6,2.2,6.8,2.2c3.6,0,7.2-0.8,10.8-2.5
		c3.6-1.7,7-3.8,10.4-6.3c3.3-2.5,6.4-5.3,9.4-8.3c2.9-3,5.5-5.8,7.6-8.5c0.5-0.5,0.7-0.9,0.5-1.4c-0.1-0.4-0.6-0.2-1.4,0.6
		c-1.8,2.2-4,4.6-6.6,7.3c-2.6,2.7-5.3,5.2-8.3,7.6c-2.9,2.4-6,4.4-9.3,6.1c-3.2,1.7-6.4,2.5-9.4,2.5c-3.5,0-5.2-1.9-5.2-5.8
		c0-2.4,0.7-5.3,2.1-8.8c1.4-3.5,3-7,4.9-10.6c1.9-3.6,3.7-7,5.7-10.3c1.9-3.2,3.4-5.8,4.5-7.7c6.1-3.4,11.9-7.2,17.3-11.6
		c5.4-4.4,10.4-9,14.9-13.8c4.5-4.8,8.5-9.6,12.1-14.5c3.5-4.9,6.5-9.4,9-13.7c2.5-4.3,4.3-8,5.7-11.2c1.3-3.2,2-5.7,2-7.4
		C837.9,667.4,837.6,666.6,837,666.1z M735.3,747.7c-1.4,2.5-3.1,5.4-4.9,8.6c-1.8,3.2-3.7,6.3-5.6,9.2c-1.7,2.5-3.5,4.9-5.5,7
		s-3.9,4.1-5.9,5.7c-1.9,1.6-3.6,2.9-5.1,3.9c-1.5,1-2.6,1.4-3.3,1.4c-0.7,0-1.1-0.5-1.1-1.4c0-1.8,0.9-4.6,2.6-8.5
		c1.7-3.8,4.1-7.7,6.9-11.6c2.9-3.9,6.2-7.3,9.9-10.2c3.7-2.9,7.6-4.3,11.7-4.3L735.3,747.7z M762.8,760.4c-0.2-0.2-0.5-0.1-0.7,0.3
		c-2.9,3.6-5.9,7-9.1,10.3c-3.2,3.2-6.3,6.1-9.3,8.6c-3,2.5-5.8,4.4-8.5,5.8c-2.6,1.4-4.9,2.1-6.8,2.1c-1.7,0-2.8-0.4-3.3-1.1
		c-0.5-0.7-0.8-1.6-0.8-2.7c0-2.8,1.3-7,3.9-12.7c2.6-5.7,6.6-13.4,12.1-23.1c0.7,0,1.8,0.1,3.2,0.2c1.4,0.1,2.5,0.3,3.2,0.5
		c0.4,0,0.5-0.2,0.5-0.5c0-0.4-0.3-0.7-0.9-0.9c-0.6-0.1-1.5-0.2-2.7-0.4c-1.2-0.1-2.1-0.2-2.7-0.2c0.6-1,1.2-1.9,1.7-2.8
		s1.1-1.6,1.7-2.2l-0.4-0.2l-5,1.4c-0.5,0.2-1,0.6-1.4,1.1c-0.5,0.5-1,1.3-1.6,2.5c-5,0-9.9,1.4-14.6,4.2
		c-4.7,2.8-8.9,6.2-12.5,10.1c-3.7,3.9-6.6,8-8.7,12.2c-2.2,4.2-3.2,7.7-3.2,10.4c0,2.5,1.3,3.8,3.8,3.8c1.7,0,3.6-0.6,5.8-1.9
		c2.2-1.3,4.3-2.8,6.5-4.7c2.2-1.9,4.3-3.9,6.3-6.2c2-2.3,3.8-4.4,5.4-6.5c-2,3.2-3.6,6.3-4.6,9.1c-1,2.8-1.5,5.1-1.5,6.8
		c0,1.8,0.5,3.3,1.4,4.5c1,1.2,2.6,1.8,5,1.8c2.8,0,5.8-0.8,9.1-2.5c3.3-1.7,6.6-3.9,10-6.7c3.4-2.8,6.7-5.9,10-9.3
		c3.3-3.4,6.3-6.8,9.1-10.2C763.2,760.9,763.1,760.6,762.8,760.4z M706.8,747.4c-0.8-0.5-1.7-0.8-2.8-0.8c-1.4,0-3.1,0.4-4.9,1.3
		c-1.9,0.8-3.8,1.9-5.7,3.2c-1.9,1.3-3.8,2.6-5.5,4c-1.7,1.4-3.2,2.8-4.4,4c-0.4,0.4-0.7,0.5-0.9,0.5c-0.2,0-0.2-0.3,0.2-0.9
		c0.2-0.4,0.6-1,1.1-1.8c0.5-0.8,1-1.7,1.5-2.6c0.5-0.9,1-1.8,1.4-2.6c0.4-0.8,0.6-1.4,0.6-1.8c0-1.1-0.5-1.9-1.4-2.5
		c-1-0.6-1.6-0.9-1.8-0.9c-0.2,0-0.7,0.5-1.3,1.6c-0.5,1.1-1.4,2.7-2.7,5c-1.3,2.2-2.9,4.8-4.6,7.8c-1.7,3-3.6,6.2-5.6,9.6
		s-3.9,6.8-5.9,10.2c-0.8,1.4-1.3,2.5-1.3,3.2c0,0.4,0.4,0.9,1.2,1.6c0.8,0.7,1.3,1.1,1.5,1.1c0.6,0,1-0.2,1.1-0.5
		c1.7-2.6,3.2-5.2,4.7-7.8c1.4-2.6,2.9-5.1,4.5-7.6c1.6-2.5,3.2-4.8,4.9-7.1c1.7-2.3,3.7-4.4,6-6.3c1.4-1.3,3.1-2.5,5-3.6
		c1.9-1.1,3.7-1.6,5.2-1.6c1.3,0,2.3,0.2,3.1,0.5c0.7,0.4,1.3,0.8,1.7,1.2c0.4,0.4,0.7,0.8,1,1.2c0.2,0.4,0.4,0.5,0.5,0.5
		c0.4,0,0.6-0.2,0.7-0.5c0.2-0.6,0.7-1.5,1.5-2.7c0.8-1.2,1.5-2.2,2.2-3.1C707.9,748.6,707.5,748,706.8,747.4z M650.4,763.7
		c-1.5,3.1-3.3,6.2-5.5,9.3c-2.2,3.1-4.4,5.7-6.8,8c-2.4,2.3-4.6,3.4-6.7,3.4c-1.1,0-1.8-0.4-2.1-1.1c-0.3-0.7-0.5-1.5-0.5-2.3
		c-0.1-2.8,0.5-5.7,1.7-8.7c1.3-3.1,2.7-5.9,4.2-8.5c1.2-2,2.5-4,4-5.9c1.4-1.9,2.9-3.6,4.3-5.1c1.4-1.5,2.9-2.7,4.3-3.6
		c1.4-0.9,2.8-1.4,4.1-1.4c0.5,0,0.7,0.3,0.7,0.9c0,1.3,0.1,2.7,0.2,4.1c0.1,1.4,0.3,2.7,0.5,3.8
		C652.8,758.2,651.9,760.6,650.4,763.7z M682.6,754.2c-0.5-0.2-0.9-0.1-1.2,0.5c-1.7,2.4-3.8,4.6-6.3,6.7c-2.5,2-5.3,3.1-8.5,3.1
		c-3.1,0-5.3-1.1-6.6-3.2c-1.3-2.2-1.9-4.9-1.9-8.3c0-2.4,0.2-4.6,0.6-6.7c0.4-2,1-3.7,1.9-5c0.2-0.5,0.2-0.8-0.2-1
		s-0.7-0.1-1.1,0.1c-0.5,0.2-1,0.4-1.6,0.5c-0.6,0.1-1.2,0.2-1.8,0.4c-1.2,0.2-2,1-2.5,2.2c-0.5,1.3-0.8,2.4-1.1,3.3
		c-3.7,0.4-7.2,1.5-10.4,3.4c-3.2,1.9-6.1,4.3-8.6,7c-1.2,1.2-2.5,2.8-3.9,4.7c-1.4,1.9-2.7,4-3.9,6.1c-1.2,2.2-2.2,4.4-3,6.7
		c-0.8,2.3-1.2,4.5-1.2,6.7c0,3.8,2.2,5.8,6.5,5.8c1.4,0,3.2-0.5,5.4-1.4c2.5-1.3,4.9-3,7.1-5c2.2-2,4.2-4.3,6-6.8
		c1.8-2.5,3.4-4.9,4.7-7.4c1.3-2.5,2.4-4.6,3.2-6.6c1.2,2,2.8,3.6,4.8,4.6c2,1,4,1.5,6,1.5c3.7,0,7-1.1,10-3.3
		c2.9-2.2,5.4-4.7,7.5-7.5C683.2,754.8,683.2,754.4,682.6,754.2z M628,768.6c-0.5-0.1-1,0.2-1.4,0.9c-1.4,1.7-3.2,3.6-5.2,5.8
		c-2,2.2-4.3,4.4-6.7,6.4c-2.4,2-4.8,3.8-7.2,5.2c-2.4,1.4-4.7,2.2-6.8,2.2c-2.3,0-3.4-1.2-3.4-3.6c0-1.7,0.6-4.1,1.9-7.3
		c1.3-3.2,2.7-6.5,4.4-9.9c1.7-3.4,3.3-6.6,4.9-9.6c1.6-3,2.7-5.2,3.3-6.5c0.2-0.5,0.4-0.9,0.5-1.3c0.1-0.4,0.2-0.7,0.2-1.1
		c0-1.7-0.9-2.5-2.7-2.5c-1.8,0.8-3.8,2-5.9,3.4c-2.1,1.4-4.2,3-6.3,4.7c-2.1,1.7-4.1,3.5-5.9,5.3c-1.9,1.9-3.5,3.6-5,5.3
		c-0.2,0.2-0.5,0.4-0.6,0.5c-0.2,0.1-0.2-0.1,0.1-0.6c0.8-1.6,1.8-3.6,2.9-6c1.1-2.5,1.6-4.3,1.6-5.5c0-1.8-0.7-2.7-2-2.7
		c-2,0-4.7,1.4-7.9,4.2c-3.2,2.8-7.3,7-12.1,12.5c1.6-2.9,3.4-6.1,5.4-9.5c2-3.5,3.5-6.4,4.3-8.8c0-0.6-0.2-1.2-0.7-1.9
		c-0.5-0.7-1-1-1.6-1c-0.7,0-1.4,0.5-2,1.6c-3.1,5.3-6.2,10.6-9.4,16c-3.1,5.4-6.3,10.7-9.5,15.8c-0.5,0.6-0.7,1.4-0.7,2.3
		c0,0.8,0.1,1.7,0.3,2.5c0.2,0.8,0.7,1.3,1.7,1.3c0.6,0,1.5-1,2.7-2.9c1.2-1.9,2.6-4.1,4.3-6.7c1.3-1.9,3-4.1,5-6.5
		c2-2.4,4-4.7,6-6.8c2-2.2,3.9-4,5.7-5.5c1.7-1.5,3-2.2,3.7-2.2c0.5,0,0.7,0.5,0.7,1.4c0,0.2-0.2,1.1-0.7,2.5
		c-0.5,1.4-1.2,3.2-2.1,5.2c-0.9,2-2,4.3-3.2,6.7c-1.3,2.4-2.7,4.7-4.2,6.8c-1,1.3-1.6,2.4-2,3.3c-0.4,0.9-0.5,1.5-0.5,1.9
		c0,0.6,0.2,1.2,0.7,1.8c0.5,0.6,1,0.9,1.6,0.9c0.6,0,1.3-0.5,2.1-1.6c0.8-1.1,1.6-2.4,2.3-4c0.8-1.6,1.6-3.2,2.4-4.9
		c0.8-1.7,1.7-3.1,2.5-4.3c0.8-1.2,2.1-2.7,3.7-4.5c1.6-1.8,3.4-3.7,5.3-5.6c1.9-1.9,3.9-3.7,5.9-5.3s3.7-2.8,5.3-3.7
		c0.6,0,0.9,0.4,0.9,1.1c0,1.2-0.7,3.3-2.1,6.2c-1.4,2.9-2.9,6-4.6,9.3c-1.7,3.2-3.2,6.4-4.6,9.4c-1.4,3-2.1,5.2-2.1,6.5
		c0,2,0.5,3.5,1.4,4.5c1,1,2.6,1.4,5,1.4c2.6,0,5.4-0.7,8.2-2.2c2.8-1.4,5.5-3.2,8.2-5.4c2.6-2.2,5.1-4.4,7.5-6.8
		c2.3-2.4,4.3-4.6,6-6.5C628.4,769.3,628.5,768.7,628,768.6z M509.2,759.1c-2.6,2.5-5.7,3.7-9.2,3.7c-0.4,0-0.8,0-1.4-0.1
		c-0.6-0.1-1-0.1-1.3-0.3c0.7-1.6,1.6-3.2,2.7-4.9c1.1-1.7,2.2-3.2,3.4-4.7c1.2-1.4,2.4-2.6,3.7-3.5c1.3-0.9,2.5-1.3,3.7-1.3
		c1.6,0,2.3,0.8,2.3,2.3C513.2,753.8,511.8,756.7,509.2,759.1z M531.6,763.7c-0.3-0.1-0.6-0.1-0.8,0.2c-1.6,2-3.5,4.2-5.9,6.6
		c-2.3,2.3-4.9,4.5-7.6,6.5c-2.8,2-5.6,3.6-8.5,5c-2.9,1.3-5.8,2-8.6,2c-4.4,0-6.7-2.5-6.7-7.4c0-2.4,0.4-4.8,1.1-7.1
		c0.7-2.3,1.4-4,2-5.1c3.8,0,7.1-0.5,9.9-1.5c2.8-1,5-2.3,6.8-3.8c1.8-1.5,3.1-3.1,4-4.8c0.9-1.7,1.4-3.2,1.4-4.7c0-1-0.3-1.7-1-2.3
		c-0.7-0.6-1.8-0.9-3.5-0.9c-3,0-6.2,1.1-9.4,3.3c-3.3,2.2-6.3,5-9.1,8.3c-2.8,3.3-5,6.9-6.8,10.8c-1.7,3.9-2.6,7.5-2.6,10.9
		c0,5,2.8,7.6,8.5,7.6c3.5,0,7-0.7,10.5-2.1c3.5-1.4,7-3.2,10.3-5.4c3.3-2.2,6.4-4.7,9.2-7.4c2.8-2.7,5.2-5.3,7.3-7.8
		C532.1,764.1,531.9,763.9,531.6,763.7z M554.7,660.5c-1-1.7-2.3-3.1-4-4c-1.6-1-3.3-1.6-5.1-2.1c-1.8-0.4-3.5-0.6-5.2-0.6
		c-6.7,0-13.4,2.4-20.1,7.3s-13.2,11.1-19.7,18.8c-6.5,7.7-12.8,16.2-19,25.6c-6.2,9.4-12.1,18.5-17.9,27.5
		c-4.9,7.8-9.8,15.8-14.6,23.8c-4.8,8.1-9.7,16.7-14.8,25.8c-0.4,0.7-0.5,1.4-0.5,2c0,0.8,0.5,1.4,1.4,1.7c1,0.3,1.7,0.5,2.3,0.5
		c0.8,0,1.7-1,2.7-2.9c1.3-2.5,2.9-5.4,4.7-8.6c1.8-3.2,3.5-6.4,5.2-9.4c4.2-5.6,7.7-9.5,10.5-11.5c2.8-2,4.8-3.1,5.9-3.1
		c0.4,0,0.5,0.3,0.5,0.9c0,1.1-0.7,2.9-2,5.5c-1.3,2.6-2.8,5.4-4.4,8.5s-3.1,6.1-4.4,9.1c-1.3,3-2,5.5-2,7.4c0,2,0.6,3.6,1.8,4.8
		c1.2,1.1,2.8,1.7,4.9,1.7c2.6,0,5.5-0.8,8.7-2.4c3.2-1.6,6.4-3.7,9.5-6.4c3.2-2.6,6.3-5.6,9.4-8.8c3.1-3.2,5.7-6.5,8-9.7
		c0-0.5-0.1-0.7-0.4-0.7c-0.2,0-0.5,0.1-0.7,0.4c-6.5,8.6-12.2,14.8-17.3,18.4c-5,3.6-8.9,5.4-11.7,5.4c-1.7,0-3-0.5-4-1.4
		c-1-1-1.4-2.4-1.4-4.3c0-1.7,0.5-3.9,1.6-6.7c1.1-2.8,2.4-5.6,3.9-8.5c1.5-2.9,3-5.6,4.6-8.1c1.6-2.5,2.8-4.5,3.8-5.9
		c1.1-1.4,1.6-2.5,1.6-3.2c0-0.8-0.5-1.3-1.6-1.3c-1.4,0-3.2,0.5-5.2,1.6c-2,1.1-4.1,2.3-6.3,3.8c-2.2,1.4-4.1,2.9-5.9,4.3
		c-1.8,1.4-3.1,2.5-4,3.2c7.2-14.2,13.8-26.4,19.9-36.8c6.1-10.4,11.7-19.2,16.8-26.5c5.2-7.3,9.9-13.2,14.3-17.7
		c4.4-4.6,8.5-8.1,12.3-10.7c3.8-2.6,7.4-4.3,10.7-5.2c3.3-0.9,6.5-1.3,9.6-1.3c3.6,0,6.5,0.5,8.8,1.5c2.3,1,4,2.2,5.3,3.6
		c1.3,1.4,2.1,2.8,2.5,4.2c0.4,1.4,0.6,2.6,0.6,3.4c0,0.2,0.1,0.4,0.3,0.6c0.2,0.2,0.4,0.1,0.5-0.3c0.2-0.4,0.4-1,0.5-2
		c0.2-1,0.3-2.4,0.3-4.3C556.2,664.5,555.7,662.2,554.7,660.5z M445.7,719.4c-0.1-0.3-0.3-0.5-0.5-0.5c-1.8,0.6-3.9,1.4-6.2,2.3
		c-2.3,1-4.2,1.7-5.5,2.3c-1.1,1.8-2.3,3.8-3.7,5.9c-1.4,2.1-2.7,4.3-4.1,6.5c-1.3,2.2-2.6,4.4-4,6.7c-1.3,2.2-2.5,4.2-3.6,6
		l-9.2,0.2c-1.1,0.8-1.9,1.7-2.3,2.5c0,0.5,0.3,0.7,0.9,0.7c0.4,0,1.6-0.1,3.7-0.3c2.1-0.2,3.9-0.3,5.3-0.4
		c-4.2,6.8-7.4,12.6-9.5,17.3c-2.2,4.7-3.2,8.2-3.2,10.6c0,2.8,0.7,4.7,2.2,5.9c1.4,1.1,3.1,1.7,5,1.7c3.6,0,7.1-0.6,10.6-1.8
		c3.5-1.2,7.3-3.1,11.3-5.8c0.6-0.2,0.7-0.6,0.4-1c-0.4-0.4-0.7-0.4-1.1-0.1c-2.8,1.7-5.4,3-7.8,4c-2.5,1-4.7,1.5-6.6,1.5
		c-4,0-5.9-2.2-5.9-6.5c0-3.1,0.9-6.8,2.7-11c1.8-4.2,4.4-9.3,7.7-15.3c1.8-0.1,3.9-0.2,6.3-0.4c2.4-0.1,4.7-0.2,7-0.4
		c2.3-0.1,4.4-0.2,6.3-0.3c1.9-0.1,3.4-0.1,4.3-0.1c0.2-0.1,0.4-0.3,0.4-0.5c0-0.2-0.2-0.5-0.5-0.7h-22.3c2.4-4.2,4.9-8.4,7.5-12.6
		c2.6-4.2,5.2-8.2,8-12.1c0.6-1,1.5-1.8,2.7-2.4c1.2-0.7,2.3-1.1,3.2-1.4C445.6,719.9,445.8,719.7,445.7,719.4z M342.9,761.8
		c-2.9,4.1-5.7,7.7-8.4,10.7c-2.7,3.1-5.2,5.5-7.4,7.3c-2.2,1.8-3.8,2.7-4.6,2.7c-0.2,0-0.6-0.1-1.1-0.4c-0.5-0.2-0.7-0.7-0.7-1.3
		c0-1.9,1-4.9,2.9-8.9c1.9-4,5.2-8.8,9.7-14.5c1.9-2.4,4.1-4.4,6.6-6c2.5-1.6,6-2.5,10.5-2.6C348.3,753.4,345.8,757.7,342.9,761.8z
		 M431,664.7c-0.9-0.4-2.1-0.5-3.5-0.5c-3,0-6.5,1-10.6,2.9c-5.4,2.5-10.7,6.2-15.8,11.2c-5.1,4.9-10.2,10.6-15.4,17.1
		c-6.2,7.7-12,15.5-17.3,23.6c-5.3,8-10.8,17.1-16.6,27.2c-8,1.4-14.8,4.4-20.2,9c-5.5,4.6-10.4,10.4-14.8,17.6
		c-1.1,1.7-1.9,3.4-2.5,5.1c-0.6,1.7-0.9,3.1-0.9,4.2c0,1.4,0.3,2.6,0.9,3.5c0.6,0.9,1.7,1.3,3.4,1.3c1.1,0,2.3-0.3,3.7-1
		c1.4-0.7,3-1.8,5-3.3c1.9-1.6,4.1-3.7,6.7-6.5c2.5-2.8,5.5-6.2,8.8-10.3c-2.4,4.8-4.2,8.9-5.3,12.2c-1.1,3.3-1.7,6.4-1.7,9.3
		c0,2.8,0.8,5,2.3,6.8c1.6,1.7,4,2.6,7.2,2.6c2.9,0,5.8-0.8,8.7-2.5c2.9-1.7,5.8-4,8.5-6.9c2.7-2.9,5.3-6.4,7.7-10.3
		c2.5-3.9,4.8-8,6.9-12.3c0.6-0.8,0.6-1.3,0.1-1.4c-0.5-0.1-0.9,0.1-1.2,0.5c-1.6,3.2-3.4,6.7-5.6,10.4c-2.2,3.7-4.6,7.1-7.2,10.2
		c-2.6,3.1-5.4,5.6-8.4,7.7c-2.9,2-6,3.1-9.3,3.1c-2,0-3.5-0.7-4.4-2c-0.9-1.3-1.4-3-1.4-5c0-2.6,1-6.8,3.1-12.3
		c2-5.6,5.1-12.3,9.2-20.2c4.1-7.9,9.1-16.9,15.2-26.9c6.1-10,13.1-20.8,21.1-32.3c3.2-4.7,6.8-9,10.7-13c3.9-4,7.5-7,10.9-9.2
		c1.7-1.1,3.5-1.9,5.6-2.4c2-0.5,4.1-0.8,6.1-0.8c1.4,0,2.5,0.1,3.3,0.3c0.8,0.2,1.4,0.4,2,0.6c0.5,0.2,1,0.5,1.4,0.6
		c0.4,0.2,0.7,0.3,1.1,0.3c0.6,0,1-0.4,1.3-1.3c0.2-1.3,0.7-2.3,1.4-3.1c0.7-0.7,1.1-1.4,1.1-2.2C432.3,665.6,431.9,665.1,431,664.7
		z M328.1,761.3c-0.5-0.2-0.8-0.1-1.1,0.3c-1.7,2.6-3.8,5.4-6.5,8.3c-2.6,2.9-5.4,5.5-8.4,7.8c-2.9,2.3-5.8,4.3-8.5,5.9
		c-2.8,1.6-5.2,2.3-7.2,2.3c-1.3,0-2.3-0.3-2.9-0.8c-0.6-0.5-0.9-1.5-0.9-3c0-1.7,0.6-4,1.8-6.8c1.2-2.9,2.7-5.9,4.4-9.1
		c1.7-3.2,3.6-6.3,5.5-9.3c1.9-3,3.5-5.5,4.9-7.4c0.6-1,0.9-1.7,0.9-2.2c0-0.5-0.2-1-0.6-1.5c-0.4-0.5-0.9-0.8-1.4-0.8
		c-0.7,0-2,0.6-3.9,1.9c-1.9,1.3-4,2.9-6.5,4.8c-2.5,1.9-5,4-7.7,6.3c-2.7,2.3-5.2,4.4-7.5,6.5c1.7-3.7,3.4-7,5.1-9.8
		c1.7-2.8,2.6-4.5,2.6-4.9c0-0.7-0.3-1.4-0.9-2c-0.6-0.6-1.3-0.9-2-0.9c-0.7,0-1.3,0.3-1.6,0.9c-1.4,3.4-3.2,7.2-5.2,11.4
		c-2,4.3-4,8.3-5.9,12.2c-1.8,2.3-3.5,4.4-5,6.2c-1.5,1.9-2.2,3.3-2.2,4.4c0,0.4,0.2,1.2,0.6,2.5c0.4,1.3,0.9,2,1.5,2
		c0.2,0,0.6-0.4,1.1-1.1c2-3.1,3.7-5.9,5.1-8.5c1.4-2.5,3-5.3,5-8.3c1.1-1.3,2.5-2.8,4.2-4.5c1.7-1.7,3.5-3.3,5.4-5
		c1.9-1.6,3.7-3.1,5.5-4.6c1.8-1.4,3.4-2.6,4.7-3.4c0.6-0.4,1-0.3,1.2,0.1c0.2,0.4,0.1,0.9-0.1,1.5c-1.1,2.5-2.5,5.3-4.2,8.3
		c-1.7,3-3.4,5.9-5,8.8c-1.6,2.9-3,5.6-4.2,8.2c-1.2,2.6-1.8,4.7-1.8,6.4c0,1.7,0.6,2.7,1.8,3.2c1.2,0.4,2.5,0.6,4,0.6
		c3.1,0,6.3-0.8,9.6-2.3c3.3-1.6,6.5-3.5,9.7-5.9c3.2-2.4,6.2-5.1,9-8.2c2.8-3.1,5.3-6.1,7.5-9.1
		C328.5,761.9,328.6,761.5,328.1,761.3z M254.1,747.7c-1.4,2.5-3.1,5.4-4.9,8.6c-1.8,3.2-3.7,6.3-5.6,9.2c-1.7,2.5-3.5,4.9-5.5,7
		s-3.9,4.1-5.9,5.7c-1.9,1.6-3.6,2.9-5.1,3.9c-1.5,1-2.6,1.4-3.3,1.4c-0.7,0-1.1-0.5-1.1-1.4c0-1.8,0.9-4.6,2.6-8.5
		c1.7-3.8,4.1-7.7,6.9-11.6c2.9-3.9,6.2-7.3,9.9-10.2c3.7-2.9,7.6-4.3,11.7-4.3L254.1,747.7z M281.7,760.4c-0.2-0.2-0.5-0.1-0.7,0.3
		c-2.9,3.6-5.9,7-9.1,10.3c-3.2,3.2-6.3,6.1-9.3,8.6c-3,2.5-5.8,4.4-8.5,5.8c-2.6,1.4-4.9,2.1-6.8,2.1c-1.7,0-2.8-0.4-3.3-1.1
		c-0.5-0.7-0.8-1.6-0.8-2.7c0-2.8,1.3-7,3.9-12.7c2.6-5.7,6.6-13.4,12.1-23.1c0.7,0,1.8,0.1,3.2,0.2c1.4,0.1,2.5,0.3,3.2,0.5
		c0.4,0,0.5-0.2,0.5-0.5c0-0.4-0.3-0.7-0.9-0.9c-0.6-0.1-1.5-0.2-2.7-0.4c-1.2-0.1-2.1-0.2-2.7-0.2c0.6-1,1.2-1.9,1.7-2.8
		s1.1-1.6,1.7-2.2l-0.4-0.2l-5,1.4c-0.5,0.2-1,0.6-1.4,1.1c-0.5,0.5-1,1.3-1.6,2.5c-5,0-9.9,1.4-14.6,4.2
		c-4.7,2.8-8.9,6.2-12.5,10.1c-3.7,3.9-6.6,8-8.7,12.2c-2.2,4.2-3.2,7.7-3.2,10.4c0,2.5,1.3,3.8,3.8,3.8c1.7,0,3.6-0.6,5.8-1.9
		c2.2-1.3,4.3-2.8,6.5-4.7c2.2-1.9,4.3-3.9,6.3-6.2c2-2.3,3.8-4.4,5.4-6.5c-2,3.2-3.6,6.3-4.6,9.1c-1,2.8-1.5,5.1-1.5,6.8
		c0,1.8,0.5,3.3,1.4,4.5c1,1.2,2.6,1.8,5,1.8c2.8,0,5.8-0.8,9.1-2.5c3.3-1.7,6.6-3.9,10-6.7c3.4-2.8,6.7-5.9,10-9.3
		c3.3-3.4,6.3-6.8,9.1-10.2C282,760.9,281.9,760.6,281.7,760.4z M196.5,775.5c-0.8-0.4-1.6-0.6-2.2-0.6c-2,0-3.9,0.9-5.5,2.7
		c-1.6,1.8-2.4,3.9-2.4,6.3c0,1,0.3,1.7,1,2.2c0.7,0.5,1.4,0.7,2.2,0.7c1,0,1.9-0.3,2.9-1c1-0.7,1.8-1.5,2.6-2.4
		c0.8-1,1.4-1.9,1.9-3c0.5-1,0.7-1.8,0.7-2.4C197.8,776.8,197.4,775.9,196.5,775.5z M155.1,775.5c-0.8-0.4-1.6-0.6-2.2-0.6
		c-2,0-3.9,0.9-5.5,2.7c-1.6,1.8-2.4,3.9-2.4,6.3c0,1,0.3,1.7,1,2.2c0.7,0.5,1.4,0.7,2.2,0.7c1,0,1.9-0.3,2.9-1
		c1-0.7,1.8-1.5,2.6-2.4c0.8-1,1.4-1.9,1.9-3c0.5-1,0.7-1.8,0.7-2.4C156.4,776.8,156,775.9,155.1,775.5z M113.7,775.5
		c-0.8-0.4-1.6-0.6-2.2-0.6c-2,0-3.9,0.9-5.5,2.7c-1.6,1.8-2.4,3.9-2.4,6.3c0,1,0.3,1.7,1,2.2c0.7,0.5,1.4,0.7,2.2,0.7
		c1,0,1.9-0.3,2.9-1c1-0.7,1.8-1.5,2.6-2.4c0.8-1,1.4-1.9,1.9-3c0.5-1,0.7-1.8,0.7-2.4C115,776.8,114.6,775.9,113.7,775.5z"/>
	<path d="M1345.1,948.3c-0.8-0.4-1.6-0.6-2.2-0.6c-2,0-3.9,0.9-5.5,2.7s-2.4,3.9-2.4,6.3c0,1,0.3,1.7,1,2.2c0.7,0.5,1.4,0.7,2.2,0.7
		c1,0,1.9-0.3,2.9-1c1-0.7,1.8-1.5,2.6-2.4c0.8-1,1.4-1.9,1.9-3c0.5-1,0.7-1.8,0.7-2.4C1346.4,949.6,1346,948.7,1345.1,948.3z
		 M1334.1,892.2c-0.1-0.3-0.3-0.5-0.5-0.5c-1.8,0.6-3.9,1.4-6.2,2.3c-2.3,1-4.2,1.7-5.5,2.3c-1.1,1.8-2.3,3.8-3.7,5.9
		c-1.4,2.1-2.7,4.3-4,6.5c-1.3,2.2-2.6,4.4-4,6.7c-1.3,2.2-2.5,4.2-3.6,6l-9.2,0.2c-1.1,0.8-1.9,1.7-2.3,2.5c0,0.5,0.3,0.7,0.9,0.7
		c0.4,0,1.6-0.1,3.7-0.3c2.1-0.2,3.9-0.3,5.3-0.4c-4.2,6.8-7.4,12.6-9.5,17.3c-2.2,4.7-3.2,8.2-3.2,10.6c0,2.8,0.7,4.7,2.2,5.9
		c1.4,1.1,3.1,1.7,5,1.7c3.6,0,7.1-0.6,10.6-1.8c3.5-1.2,7.3-3.1,11.3-5.8c0.6-0.2,0.7-0.6,0.4-1c-0.4-0.4-0.7-0.4-1.1-0.1
		c-2.8,1.7-5.4,3-7.8,4c-2.5,1-4.7,1.5-6.6,1.5c-4,0-5.9-2.2-5.9-6.5c0-3.1,0.9-6.8,2.7-11c1.8-4.2,4.4-9.3,7.7-15.3
		c1.8-0.1,3.9-0.2,6.3-0.4c2.4-0.1,4.7-0.2,7-0.4c2.3-0.1,4.4-0.2,6.3-0.3c1.9-0.1,3.4-0.1,4.3-0.1c0.2-0.1,0.4-0.3,0.4-0.5
		c0-0.2-0.2-0.5-0.5-0.7h-22.3c2.4-4.2,4.9-8.4,7.5-12.6c2.6-4.2,5.2-8.2,8-12.1c0.6-1,1.5-1.8,2.7-2.4c1.2-0.7,2.3-1.1,3.2-1.4
		C1334.1,892.7,1334.3,892.5,1334.1,892.2z M1301.4,934.1c-0.5-0.2-0.8-0.1-1.1,0.3c-1.7,2.6-3.8,5.4-6.5,8.3
		c-2.6,2.9-5.4,5.5-8.4,7.8c-2.9,2.3-5.8,4.3-8.5,5.9c-2.8,1.6-5.2,2.3-7.2,2.3c-1.3,0-2.3-0.3-2.9-0.8c-0.6-0.5-0.9-1.5-0.9-3
		c0-1.7,0.6-4,1.8-6.8c1.2-2.9,2.7-5.9,4.4-9.1c1.7-3.2,3.6-6.3,5.5-9.3c1.9-3,3.5-5.5,4.9-7.4c0.6-1,0.9-1.7,0.9-2.2
		c0-0.5-0.2-1-0.6-1.5c-0.4-0.5-0.9-0.8-1.3-0.8c-0.7,0-2,0.6-3.9,1.9c-1.9,1.3-4,2.9-6.5,4.8c-2.5,1.9-5,4-7.7,6.3
		c-2.7,2.3-5.2,4.4-7.5,6.5c1.7-3.7,3.4-7,5.1-9.8c1.7-2.8,2.6-4.5,2.6-4.9c0-0.7-0.3-1.4-0.9-2c-0.6-0.6-1.3-0.9-2-0.9
		s-1.3,0.3-1.6,0.9c-1.4,3.4-3.2,7.2-5.2,11.4c-2,4.3-4,8.3-5.9,12.2c-1.8,2.3-3.5,4.4-4.9,6.2c-1.5,1.9-2.2,3.3-2.2,4.4
		c0,0.4,0.2,1.2,0.6,2.5c0.4,1.3,0.9,2,1.5,2c0.2,0,0.6-0.4,1.1-1.1c2-3.1,3.7-5.9,5.1-8.5c1.4-2.5,3-5.3,4.9-8.3
		c1.1-1.3,2.5-2.8,4.2-4.5c1.7-1.7,3.5-3.3,5.4-5c1.9-1.6,3.7-3.1,5.5-4.6c1.8-1.4,3.4-2.6,4.7-3.4c0.6-0.4,1-0.3,1.2,0.1
		c0.2,0.4,0.1,0.9-0.1,1.5c-1.1,2.5-2.5,5.3-4.2,8.3c-1.7,3-3.4,5.9-5,8.8c-1.6,2.9-3,5.6-4.2,8.2c-1.2,2.6-1.8,4.7-1.8,6.4
		c0,1.7,0.6,2.7,1.8,3.2c1.2,0.4,2.5,0.6,4,0.6c3.1,0,6.3-0.8,9.6-2.3c3.3-1.6,6.5-3.5,9.7-5.9c3.2-2.4,6.2-5.1,9-8.2
		c2.8-3.1,5.3-6.1,7.5-9.1C1301.8,934.7,1301.9,934.3,1301.4,934.1z M1227.4,920.5c-1.4,2.5-3.1,5.4-4.9,8.6
		c-1.8,3.2-3.7,6.3-5.6,9.2c-1.7,2.5-3.5,4.9-5.5,7c-2,2.2-3.9,4.1-5.9,5.7c-1.9,1.6-3.6,2.9-5.1,3.9c-1.5,1-2.6,1.4-3.3,1.4
		c-0.7,0-1.1-0.5-1.1-1.4c0-1.8,0.9-4.6,2.6-8.5c1.7-3.8,4-7.7,6.9-11.6c2.9-3.9,6.2-7.3,9.9-10.2c3.7-2.9,7.6-4.3,11.7-4.3
		L1227.4,920.5z M1254.9,933.2c-0.2-0.2-0.5-0.1-0.7,0.3c-2.9,3.6-5.9,7-9.1,10.3c-3.2,3.2-6.3,6.1-9.3,8.6c-3,2.5-5.8,4.4-8.5,5.8
		c-2.6,1.4-4.9,2.1-6.8,2.1c-1.7,0-2.8-0.4-3.3-1.1c-0.5-0.7-0.8-1.6-0.8-2.7c0-2.8,1.3-7,3.9-12.7c2.6-5.7,6.6-13.4,12.1-23.1
		c0.7,0,1.8,0.1,3.2,0.2c1.4,0.1,2.5,0.3,3.2,0.5c0.4,0,0.5-0.2,0.5-0.5c0-0.4-0.3-0.7-0.9-0.9c-0.6-0.1-1.5-0.2-2.7-0.4
		c-1.2-0.1-2.1-0.2-2.7-0.2c0.6-1,1.2-1.9,1.7-2.8s1.1-1.6,1.7-2.2l-0.4-0.2l-5,1.4c-0.5,0.2-1,0.6-1.4,1.1c-0.5,0.5-1,1.3-1.6,2.5
		c-5,0-9.9,1.4-14.6,4.2c-4.7,2.8-8.9,6.2-12.5,10.1c-3.7,3.9-6.6,8-8.7,12.2c-2.2,4.2-3.2,7.7-3.2,10.4c0,2.5,1.3,3.8,3.8,3.8
		c1.7,0,3.6-0.6,5.8-1.9c2.2-1.3,4.3-2.8,6.5-4.7c2.2-1.9,4.3-3.9,6.3-6.2c2-2.3,3.8-4.4,5.4-6.5c-2,3.2-3.6,6.3-4.6,9.1
		c-1,2.8-1.5,5.1-1.5,6.8c0,1.8,0.5,3.3,1.4,4.5c1,1.2,2.6,1.8,5,1.8c2.8,0,5.8-0.8,9.1-2.5c3.3-1.7,6.6-3.9,10-6.7
		c3.4-2.8,6.7-5.9,10-9.3c3.3-3.4,6.3-6.8,9.1-10.2C1255.3,933.7,1255.2,933.4,1254.9,933.2z M1200.2,892.2
		c-0.1-0.3-0.3-0.5-0.5-0.5c-1.8,0.6-3.9,1.4-6.2,2.3c-2.3,1-4.2,1.7-5.5,2.3c-1.1,1.8-2.3,3.8-3.7,5.9c-1.4,2.1-2.7,4.3-4,6.5
		c-1.3,2.2-2.6,4.4-4,6.7c-1.3,2.2-2.5,4.2-3.6,6l-9.2,0.2c-1.1,0.8-1.9,1.7-2.3,2.5c0,0.5,0.3,0.7,0.9,0.7c0.4,0,1.6-0.1,3.7-0.3
		c2.1-0.2,3.9-0.3,5.3-0.4c-4.2,6.8-7.4,12.6-9.5,17.3c-2.2,4.7-3.2,8.2-3.2,10.6c0,2.8,0.7,4.7,2.2,5.9c1.4,1.1,3.1,1.7,5,1.7
		c3.6,0,7.1-0.6,10.6-1.8c3.5-1.2,7.3-3.1,11.3-5.8c0.6-0.2,0.7-0.6,0.4-1c-0.4-0.4-0.7-0.4-1.1-0.1c-2.8,1.7-5.4,3-7.8,4
		c-2.5,1-4.7,1.5-6.6,1.5c-4,0-5.9-2.2-5.9-6.5c0-3.1,0.9-6.8,2.7-11c1.8-4.2,4.4-9.3,7.7-15.3c1.8-0.1,3.9-0.2,6.3-0.4
		c2.4-0.1,4.7-0.2,7-0.4c2.3-0.1,4.4-0.2,6.3-0.3c1.9-0.1,3.4-0.1,4.3-0.1c0.2-0.1,0.4-0.3,0.4-0.5c0-0.2-0.2-0.5-0.5-0.7h-22.3
		c2.4-4.2,4.9-8.4,7.5-12.6c2.6-4.2,5.2-8.2,8-12.1c0.6-1,1.5-1.8,2.7-2.4c1.2-0.7,2.3-1.1,3.2-1.4
		C1200.2,892.7,1200.3,892.5,1200.2,892.2z M1152.3,923.7c0.4-0.8,0.7-1.5,1.1-2.1c0-1.2-1-1.8-2.9-1.8c-1.8,0-3.6,0.5-5.5,1.4
		c-1.9,1-3.6,2.1-5.1,3.5c-1.6,1.4-2.9,2.9-3.9,4.6c-1,1.7-1.5,3.2-1.5,4.7c0,1.4,0.4,2.8,1.1,4c0.7,1.2,1.4,2.4,2.2,3.6
		c0.7,1.1,1.4,2.3,2,3.6c0.6,1.3,0.9,2.8,0.9,4.3c0,2-0.4,3.7-1.3,4.9c-0.8,1.2-1.8,2.1-3,2.8c-1.1,0.7-2.4,1.1-3.7,1.3
		c-1.3,0.2-2.5,0.3-3.4,0.3c-2.3,0-4.3-0.8-5.9-2.3c-1.7-1.6-2.8-3.4-3.4-5.6c-0.1-0.5-0.3-0.7-0.5-0.7c-0.4,0.5-0.9,1-1.7,1.5
		c-0.8,0.5-1.5,1-2.1,1.4c0.7,4.9,4.7,7.4,12.1,7.4c1.2,0,2.8-0.2,4.9-0.6c2-0.4,4-1.2,6-2.4c2-1.2,3.7-2.8,5.1-4.8
		c1.4-2,2.2-4.5,2.2-7.7c0-1.6-0.4-3.1-1.3-4.5c-0.8-1.4-1.7-2.9-2.7-4.3c-1.1-1.6-1.9-2.8-2.5-3.8c-0.6-1-0.9-1.9-0.9-2.9
		c0-1.9,0.8-3.4,2.5-4.3c1.7-1,3.4-1.4,5-1.4c2.3,0,3.8,0.8,4.5,2.3c0.2,0.5,0.5,0.4,0.9-0.2C1151.7,925.1,1152,924.4,1152.3,923.7z
		 M1135.2,934.1c-0.5-0.2-0.8-0.1-1.1,0.3c-1.7,2.6-3.8,5.4-6.5,8.3c-2.6,2.9-5.4,5.5-8.4,7.8c-2.9,2.3-5.8,4.3-8.5,5.9
		c-2.8,1.6-5.2,2.3-7.2,2.3c-1.3,0-2.3-0.3-2.9-0.8c-0.6-0.5-0.9-1.5-0.9-3c0-1.7,0.6-4,1.8-6.8c1.2-2.9,2.7-5.9,4.4-9.1
		c1.7-3.2,3.6-6.3,5.5-9.3c1.9-3,3.5-5.5,4.9-7.4c0.6-1,0.9-1.7,0.9-2.2c0-0.5-0.2-1-0.6-1.5c-0.4-0.5-0.9-0.8-1.3-0.8
		c-0.7,0-2,0.6-3.9,1.9c-1.9,1.3-4,2.9-6.5,4.8c-2.5,1.9-5,4-7.7,6.3c-2.7,2.3-5.2,4.4-7.5,6.5c1.7-3.7,3.4-7,5.1-9.8
		c1.7-2.8,2.6-4.5,2.6-4.9c0-0.7-0.3-1.4-0.9-2c-0.6-0.6-1.3-0.9-2-0.9s-1.3,0.3-1.6,0.9c-1.4,3.4-3.2,7.2-5.2,11.4
		c-2,4.3-4,8.3-5.9,12.2c-1.8,2.3-3.5,4.4-4.9,6.2c-1.5,1.9-2.2,3.3-2.2,4.4c0,0.4,0.2,1.2,0.6,2.5c0.4,1.3,0.9,2,1.5,2
		c0.2,0,0.6-0.4,1.1-1.1c2-3.1,3.7-5.9,5.1-8.5c1.4-2.5,3-5.3,4.9-8.3c1.1-1.3,2.5-2.8,4.2-4.5c1.7-1.7,3.5-3.3,5.4-5
		c1.9-1.6,3.7-3.1,5.5-4.6c1.8-1.4,3.4-2.6,4.7-3.4c0.6-0.4,1-0.3,1.2,0.1c0.2,0.4,0.1,0.9-0.1,1.5c-1.1,2.5-2.5,5.3-4.2,8.3
		c-1.7,3-3.4,5.9-5,8.8c-1.6,2.9-3,5.6-4.2,8.2c-1.2,2.6-1.8,4.7-1.8,6.4c0,1.7,0.6,2.7,1.8,3.2c1.2,0.4,2.5,0.6,4,0.6
		c3.1,0,6.3-0.8,9.6-2.3c3.3-1.6,6.5-3.5,9.7-5.9c3.2-2.4,6.2-5.1,9-8.2c2.8-3.1,5.3-6.1,7.5-9.1
		C1135.7,934.7,1135.7,934.3,1135.2,934.1z M1061,936.5c-1.5,3.1-3.3,6.2-5.5,9.3c-2.2,3.1-4.4,5.7-6.8,8c-2.4,2.3-4.6,3.4-6.7,3.4
		c-1.1,0-1.8-0.4-2.1-1.1c-0.3-0.7-0.5-1.5-0.5-2.3c-0.1-2.8,0.5-5.7,1.7-8.7c1.3-3.1,2.7-5.9,4.2-8.5c1.2-2,2.5-4,4-5.9
		c1.4-1.9,2.9-3.6,4.3-5.1c1.4-1.5,2.9-2.7,4.3-3.6c1.4-0.9,2.8-1.4,4.1-1.4c0.5,0,0.7,0.3,0.7,0.9c0,1.3,0.1,2.7,0.2,4.1
		c0.1,1.4,0.3,2.7,0.5,3.8C1063.4,931,1062.5,933.4,1061,936.5z M1093.2,927c-0.5-0.2-0.9-0.1-1.2,0.5c-1.7,2.4-3.8,4.6-6.3,6.7
		c-2.5,2-5.3,3.1-8.5,3.1c-3.1,0-5.3-1.1-6.6-3.2s-1.9-4.9-1.9-8.3c0-2.4,0.2-4.6,0.6-6.7c0.4-2,1-3.7,1.9-5c0.2-0.5,0.2-0.8-0.2-1
		c-0.4-0.2-0.7-0.1-1.1,0.1c-0.5,0.2-1,0.4-1.6,0.5c-0.6,0.1-1.2,0.2-1.8,0.4c-1.2,0.2-2,1-2.5,2.2c-0.5,1.3-0.8,2.4-1.1,3.3
		c-3.7,0.4-7.2,1.5-10.4,3.4c-3.2,1.9-6.1,4.3-8.6,7c-1.2,1.2-2.5,2.8-3.9,4.7c-1.4,1.9-2.7,4-3.9,6.1c-1.2,2.2-2.2,4.4-3,6.7
		c-0.8,2.3-1.2,4.5-1.2,6.7c0,3.8,2.2,5.8,6.5,5.8c1.4,0,3.2-0.5,5.4-1.4c2.5-1.3,4.9-3,7.1-5c2.2-2,4.2-4.3,6-6.8
		c1.8-2.5,3.4-4.9,4.7-7.4c1.3-2.5,2.4-4.6,3.2-6.6c1.2,2,2.8,3.6,4.8,4.6c2,1,4,1.5,6,1.5c3.7,0,7-1.1,10-3.3
		c2.9-2.2,5.4-4.7,7.5-7.5C1093.8,927.6,1093.7,927.2,1093.2,927z M1042.5,933.2c-0.3-0.3-0.8-0.1-1.3,0.5
		c-6.5,7.9-12.6,13.8-18.3,17.7c-5.7,3.9-10.2,5.8-13.6,5.8c-2,0-3.8-0.6-5.1-1.9c-1.4-1.3-2.1-3.2-2.1-5.7c0-3.4,0.5-6.6,1.4-9.8
		c1-3.2,2.2-6,3.9-8.5c1.6-2.5,3.5-4.4,5.6-5.9c2.1-1.5,4.3-2.2,6.6-2.2c1.9,0,3.3,0.5,4.2,1.6c0.9,1.1,1.3,2.2,1.3,3.4
		c0,1.1-0.2,2.1-0.5,3.1l0.5,0.2c1.7-1.3,2.9-2.3,3.6-3.1c0.8-1,1.3-2.3,1.3-4.1c0-3.5-2.2-5.2-6.7-5.2c-1,0-2.2,0.3-3.6,0.9
		c-4.8,2-9.3,5.3-13.4,9.6c-4.1,4.4-7.4,9.4-9.6,15c-1,2.4-1.4,4.7-1.4,6.8c0,5.5,3.3,8.3,9.9,8.3c1.3,0,2.7-0.2,4.2-0.5
		c1.5-0.3,3.2-0.8,5-1.5c2.3-1,4.7-2.3,7.2-4c2.5-1.7,5-3.6,7.4-5.7c2.4-2.1,4.7-4.3,7-6.7c2.3-2.3,4.3-4.6,6.1-6.9
		C1042.6,934,1042.7,933.5,1042.5,933.2z M927.9,954.8c2.3-1.3,4.1-2.4,5.4-3.5c0.1-0.1,0.3-0.2,0.5-0.4c0.2-0.1,0.2,0.1,0,0.5
		c-3,5.3-6.3,10.9-9.9,16.8c-3.6,5.9-7.4,11.8-11.4,17.7c-4,5.9-8.2,11.5-12.5,16.9c-4.3,5.4-8.8,10.1-13.4,14.2
		c-4.6,4.1-9.4,7.3-14.2,9.8c-4.9,2.5-9.7,3.7-14.7,3.7c-6.1,0-10.4-1.3-12.8-4c-2.4-2.6-3.6-5.6-3.6-8.8c0-0.5-0.1-0.7-0.4-0.5
		c-0.2,0.1-0.4,0.4-0.5,0.7c-0.2,0.6-0.5,1.4-0.6,2.4c-0.2,1-0.3,2-0.3,3c0,4.2,1.4,7.1,4.1,8.8c2.8,1.7,5.9,2.5,9.4,2.5
		c5.9,0,11.5-1.3,16.8-3.8c5.3-2.5,10.5-5.9,15.5-10.3c5-4.3,9.8-9.4,14.5-15.2c4.7-5.8,9.2-12,13.7-18.5
		c4.4-6.5,8.8-13.3,13.2-20.3c4.4-7,8.7-13.8,13-20.4c1.8-2.3,3.7-4.7,5.7-7.4c2-2.6,3.8-5.1,5.5-7.5c1.7-2.3,3.1-4.4,4.1-6.1
		c1.1-1.7,1.6-2.8,1.6-3.3c0-1-0.2-1.9-0.6-2.9c-0.4-1-0.9-1.6-1.3-1.8c-0.8,0-1.9,0.9-3.2,2.7s-2.6,4-4,6.7
		c-3,5.4-5.6,10.1-7.7,14.1c-2.1,4-3.7,6.6-4.8,7.7c-0.5,0.6-1.2,1.2-2.2,1.9c-1,0.7-2,1.3-3.1,1.9c-1.1,0.6-2.1,1.1-3.1,1.4
		c-1,0.4-1.7,0.5-2.3,0.5c-1.3,0-2-0.7-2-2.2c0-2.6,1.5-6.3,4.4-11.1c2.9-4.7,6.6-10.9,10.9-18.4c0-0.4-0.2-0.5-0.7-0.5
		c-0.2,0-0.9,0.1-1.9,0.3c-1,0.2-1.8,0.3-2.4,0.5c-0.4,0.2-0.7,0.5-1,0.8c-0.3,0.3-0.7,0.8-1.2,1.4c-4.2,6.5-7.8,12.1-10.7,16.8
		c-2.9,4.7-4.4,8.3-4.4,10.7c0,1.4,0.5,2.5,1.4,3.2c1,0.7,2.3,1.1,4,1.1C923.3,956.7,925.6,956.1,927.9,954.8z M900.9,920.5
		c-1.4,2.5-3.1,5.4-4.9,8.6c-1.8,3.2-3.7,6.3-5.6,9.2c-1.7,2.5-3.5,4.9-5.5,7c-2,2.2-3.9,4.1-5.9,5.7c-1.9,1.6-3.6,2.9-5.1,3.9
		c-1.5,1-2.6,1.4-3.3,1.4c-0.7,0-1.1-0.5-1.1-1.4c0-1.8,0.9-4.6,2.6-8.5c1.7-3.8,4-7.7,6.9-11.6c2.9-3.9,6.2-7.3,9.9-10.2
		c3.7-2.9,7.6-4.3,11.7-4.3L900.9,920.5z M928.4,933.2c-0.2-0.2-0.5-0.1-0.7,0.3c-2.9,3.6-5.9,7-9.1,10.3c-3.2,3.2-6.3,6.1-9.3,8.6
		c-3,2.5-5.8,4.4-8.5,5.8c-2.6,1.4-4.9,2.1-6.8,2.1c-1.7,0-2.8-0.4-3.3-1.1c-0.5-0.7-0.8-1.6-0.8-2.7c0-2.8,1.3-7,3.9-12.7
		c2.6-5.7,6.6-13.4,12.1-23.1c0.7,0,1.8,0.1,3.2,0.2c1.4,0.1,2.5,0.3,3.2,0.5c0.4,0,0.5-0.2,0.5-0.5c0-0.4-0.3-0.7-0.9-0.9
		c-0.6-0.1-1.5-0.2-2.7-0.4c-1.2-0.1-2.1-0.2-2.7-0.2c0.6-1,1.2-1.9,1.7-2.8s1.1-1.6,1.7-2.2l-0.4-0.2l-5,1.4
		c-0.5,0.2-1,0.6-1.4,1.1c-0.5,0.5-1,1.3-1.6,2.5c-5,0-9.9,1.4-14.6,4.2c-4.7,2.8-8.9,6.2-12.5,10.1c-3.7,3.9-6.6,8-8.7,12.2
		c-2.2,4.2-3.2,7.7-3.2,10.4c0,2.5,1.3,3.8,3.8,3.8c1.7,0,3.6-0.6,5.8-1.9c2.2-1.3,4.3-2.8,6.5-4.7c2.2-1.9,4.3-3.9,6.3-6.2
		c2-2.3,3.8-4.4,5.4-6.5c-2,3.2-3.6,6.3-4.6,9.1c-1,2.8-1.5,5.1-1.5,6.8c0,1.8,0.5,3.3,1.4,4.5c1,1.2,2.6,1.8,5,1.8
		c2.8,0,5.8-0.8,9.1-2.5c3.3-1.7,6.6-3.9,10-6.7c3.4-2.8,6.7-5.9,10-9.3c3.3-3.4,6.3-6.8,9.1-10.2
		C928.8,933.7,928.7,933.4,928.4,933.2z M873.7,892.2c-0.1-0.3-0.3-0.5-0.5-0.5c-1.8,0.6-3.9,1.4-6.2,2.3c-2.3,1-4.2,1.7-5.5,2.3
		c-1.1,1.8-2.3,3.8-3.7,5.9c-1.4,2.1-2.7,4.3-4.1,6.5c-1.3,2.2-2.6,4.4-4,6.7c-1.3,2.2-2.5,4.2-3.6,6l-9.2,0.2
		c-1.1,0.8-1.9,1.7-2.3,2.5c0,0.5,0.3,0.7,0.9,0.7c0.4,0,1.6-0.1,3.7-0.3c2.1-0.2,3.9-0.3,5.3-0.4c-4.2,6.8-7.4,12.6-9.5,17.3
		c-2.2,4.7-3.2,8.2-3.2,10.6c0,2.8,0.7,4.7,2.2,5.9c1.4,1.1,3.1,1.7,5,1.7c3.6,0,7.1-0.6,10.6-1.8c3.5-1.2,7.3-3.1,11.3-5.8
		c0.6-0.2,0.7-0.6,0.4-1c-0.4-0.4-0.7-0.4-1.1-0.1c-2.8,1.7-5.4,3-7.8,4c-2.5,1-4.7,1.5-6.6,1.5c-4,0-5.9-2.2-5.9-6.5
		c0-3.1,0.9-6.8,2.7-11c1.8-4.2,4.4-9.3,7.7-15.3c1.8-0.1,3.9-0.2,6.3-0.4c2.4-0.1,4.7-0.2,7-0.4c2.3-0.1,4.4-0.2,6.3-0.3
		c1.9-0.1,3.4-0.1,4.3-0.1c0.2-0.1,0.4-0.3,0.4-0.5c0-0.2-0.2-0.5-0.5-0.7h-22.3c2.4-4.2,4.9-8.4,7.5-12.6c2.6-4.2,5.2-8.2,8-12.1
		c0.6-1,1.5-1.8,2.7-2.4c1.2-0.7,2.3-1.1,3.2-1.4C873.6,892.7,873.8,892.5,873.7,892.2z M825.8,923.7c0.4-0.8,0.7-1.5,1.1-2.1
		c0-1.2-1-1.8-2.9-1.8c-1.8,0-3.6,0.5-5.5,1.4c-1.9,1-3.6,2.1-5.1,3.5c-1.6,1.4-2.9,2.9-3.9,4.6c-1,1.7-1.5,3.2-1.5,4.7
		c0,1.4,0.4,2.8,1.1,4c0.7,1.2,1.4,2.4,2.2,3.6c0.7,1.1,1.4,2.3,2,3.6c0.6,1.3,0.9,2.8,0.9,4.3c0,2-0.4,3.7-1.3,4.9
		c-0.8,1.2-1.8,2.1-3,2.8c-1.1,0.7-2.4,1.1-3.7,1.3c-1.3,0.2-2.5,0.3-3.4,0.3c-2.3,0-4.3-0.8-5.9-2.3c-1.7-1.6-2.8-3.4-3.4-5.6
		c-0.1-0.5-0.3-0.7-0.5-0.7c-0.4,0.5-0.9,1-1.7,1.5c-0.8,0.5-1.5,1-2.1,1.4c0.7,4.9,4.7,7.4,12.1,7.4c1.2,0,2.8-0.2,4.9-0.6
		c2-0.4,4.1-1.2,6-2.4c2-1.2,3.7-2.8,5.1-4.8c1.4-2,2.2-4.5,2.2-7.7c0-1.6-0.4-3.1-1.3-4.5c-0.8-1.4-1.7-2.9-2.7-4.3
		c-1.1-1.6-1.9-2.8-2.5-3.8c-0.6-1-0.9-1.9-0.9-2.9c0-1.9,0.8-3.4,2.5-4.3c1.7-1,3.4-1.4,5-1.4c2.3,0,3.8,0.8,4.5,2.3
		c0.2,0.5,0.5,0.4,0.9-0.2C825.2,925.1,825.5,924.4,825.8,923.7z M831,833.3c-1-1.7-2.3-3.1-4-4c-1.6-1-3.3-1.6-5.1-2.1
		c-1.8-0.4-3.5-0.6-5.2-0.6c-6.7,0-13.4,2.4-20.1,7.3s-13.2,11.1-19.7,18.8c-6.5,7.7-12.8,16.2-19,25.6
		c-6.2,9.4-12.1,18.5-17.9,27.5c-4.9,7.8-9.8,15.8-14.6,23.8c-4.8,8.1-9.7,16.7-14.8,25.8c-0.4,0.7-0.5,1.4-0.5,2
		c0,0.8,0.5,1.4,1.4,1.7c1,0.3,1.7,0.5,2.3,0.5c0.8,0,1.7-1,2.7-2.9c1.3-2.5,2.9-5.4,4.7-8.6c1.8-3.2,3.5-6.4,5.2-9.4
		c4.2-5.6,7.7-9.5,10.5-11.5c2.8-2,4.8-3.1,5.9-3.1c0.4,0,0.5,0.3,0.5,0.9c0,1.1-0.7,2.9-2,5.5c-1.3,2.6-2.8,5.4-4.4,8.5
		s-3.1,6.1-4.4,9.1c-1.3,3-2,5.5-2,7.4c0,2,0.6,3.6,1.8,4.8c1.2,1.1,2.8,1.7,4.9,1.7c2.6,0,5.5-0.8,8.7-2.4c3.2-1.6,6.4-3.7,9.5-6.4
		c3.2-2.6,6.3-5.6,9.4-8.8c3.1-3.2,5.7-6.5,8-9.7c0-0.5-0.1-0.7-0.4-0.7c-0.2,0-0.5,0.1-0.7,0.4c-6.5,8.6-12.2,14.8-17.3,18.4
		c-5,3.6-8.9,5.4-11.7,5.4c-1.7,0-3-0.5-4-1.4c-1-1-1.4-2.4-1.4-4.3c0-1.7,0.5-3.9,1.6-6.7c1.1-2.8,2.4-5.6,3.9-8.5
		c1.5-2.9,3-5.6,4.6-8.1c1.6-2.5,2.8-4.5,3.8-5.9c1.1-1.4,1.6-2.5,1.6-3.2c0-0.8-0.5-1.3-1.6-1.3c-1.4,0-3.2,0.5-5.2,1.6
		c-2,1.1-4.1,2.3-6.3,3.8c-2.2,1.4-4.1,2.9-5.9,4.3c-1.8,1.4-3.1,2.5-4,3.2c7.2-14.2,13.8-26.4,19.9-36.8
		c6.1-10.4,11.7-19.2,16.8-26.5c5.2-7.3,9.9-13.2,14.3-17.7c4.4-4.6,8.5-8.1,12.3-10.7c3.8-2.6,7.4-4.3,10.7-5.2
		c3.3-0.9,6.5-1.3,9.6-1.3c3.6,0,6.5,0.5,8.8,1.5c2.3,1,4,2.2,5.3,3.6c1.3,1.4,2.1,2.8,2.5,4.2c0.4,1.4,0.6,2.6,0.6,3.4
		c0,0.2,0.1,0.4,0.3,0.6c0.2,0.2,0.4,0.1,0.5-0.3c0.2-0.4,0.4-1,0.5-2c0.2-1,0.3-2.4,0.3-4.3C832.5,837.3,832,835,831,833.3z
		 M724,933.2c-0.3-0.3-0.8-0.1-1.4,0.5c-6.5,7.9-12.6,13.8-18.3,17.7c-5.7,3.9-10.2,5.8-13.6,5.8c-2,0-3.8-0.6-5.1-1.9
		c-1.4-1.3-2.1-3.2-2.1-5.7c0-3.4,0.5-6.6,1.4-9.8c1-3.2,2.2-6,3.9-8.5c1.6-2.5,3.5-4.4,5.6-5.9c2.1-1.5,4.3-2.2,6.6-2.2
		c1.9,0,3.3,0.5,4.2,1.6c0.9,1.1,1.4,2.2,1.4,3.4c0,1.1-0.2,2.1-0.5,3.1l0.5,0.2c1.7-1.3,2.9-2.3,3.6-3.1c0.8-1,1.3-2.3,1.3-4.1
		c0-3.5-2.2-5.2-6.7-5.2c-1,0-2.2,0.3-3.6,0.9c-4.8,2-9.3,5.3-13.4,9.6c-4.1,4.4-7.4,9.4-9.6,15c-1,2.4-1.4,4.7-1.4,6.8
		c0,5.5,3.3,8.3,9.9,8.3c1.3,0,2.7-0.2,4.2-0.5c1.5-0.3,3.1-0.8,5-1.5c2.3-1,4.7-2.3,7.2-4c2.5-1.7,5-3.6,7.4-5.7
		c2.4-2.1,4.7-4.3,7-6.7c2.3-2.3,4.3-4.6,6.1-6.9C724.2,934,724.3,933.5,724,933.2z M686.1,933.7c-0.1-0.3-0.4-0.1-1,0.4
		c-1.3,1.8-3.2,4-5.6,6.5c-2.4,2.5-5,4.9-7.8,7.2c-2.8,2.3-5.7,4.2-8.6,5.8s-5.5,2.4-7.9,2.4c-1.3,0-2.4-0.3-3.1-1
		c-0.8-0.7-1.2-1.7-1.2-3.2c0-1.3,0.4-3.1,1.2-5.4c0.8-2.3,1.8-4.8,3.1-7.5c1.3-2.7,2.8-5.5,4.4-8.4c1.6-2.9,3.2-5.5,4.8-7.9
		c0.2-0.2,0.4-0.6,0.6-1.1c0.2-0.5,0.3-0.8,0.3-1.1c0-0.4-0.3-0.5-0.9-0.5c-0.5,0-1.5,0.3-3,1c-1.5,0.7-2.6,1.5-3.1,2.4
		c-1,1.3-2.2,3.3-3.9,5.9c-1.6,2.6-3.2,5.4-4.9,8.3s-3,5.7-4.2,8.4c-1.2,2.7-1.8,4.8-1.8,6.4c0,1.3,0.3,2.4,0.8,3.2
		c0.5,0.8,1.2,1.4,2,1.9c0.8,0.5,1.6,0.8,2.6,0.9c1,0.1,1.8,0.2,2.5,0.2c2,0,4.3-0.4,6.8-1.3c2.5-0.8,5-2,7.4-3.6
		c3.1-2,6.5-4.7,10.3-8.1c3.7-3.4,7-6.9,9.9-10.6C686,934.5,686.1,934,686.1,933.7z M675.3,892.6c-1.7,0-3.1,0.7-4.2,2.2
		c-1.1,1.4-1.7,2.9-1.7,4.5c0,1.4,0.7,2.2,2.2,2.2c1.6,0,3-0.7,4.2-2.2c1.3-1.4,1.9-2.9,1.9-4.3
		C677.7,893.4,676.9,892.6,675.3,892.6z M712,833.3c-1-1.7-2.3-3.1-4-4c-1.6-1-3.3-1.6-5.1-2.1c-1.8-0.4-3.5-0.6-5.2-0.6
		c-6.7,0-13.4,2.4-20.1,7.3s-13.2,11.1-19.7,18.8c-6.5,7.7-12.8,16.2-19,25.6c-6.2,9.4-12.1,18.5-17.9,27.5
		c-4.9,7.8-9.8,15.8-14.6,23.8c-4.8,8.1-9.7,16.7-14.8,25.8c-0.4,0.7-0.5,1.4-0.5,2c0,0.8,0.5,1.4,1.4,1.7c1,0.3,1.7,0.5,2.3,0.5
		c0.8,0,1.7-1,2.7-2.9c1.3-2.5,2.9-5.4,4.7-8.6c1.8-3.2,3.5-6.4,5.2-9.4c4.2-5.6,7.7-9.5,10.5-11.5c2.8-2,4.8-3.1,5.9-3.1
		c0.4,0,0.5,0.3,0.5,0.9c0,1.1-0.7,2.9-2,5.5c-1.3,2.6-2.8,5.4-4.4,8.5s-3.1,6.1-4.4,9.1c-1.3,3-2,5.5-2,7.4c0,2,0.6,3.6,1.8,4.8
		c1.2,1.1,2.8,1.7,4.9,1.7c2.6,0,5.5-0.8,8.7-2.4c3.2-1.6,6.4-3.7,9.5-6.4c3.2-2.6,6.3-5.6,9.4-8.8c3.1-3.2,5.7-6.5,8-9.7
		c0-0.5-0.1-0.7-0.4-0.7c-0.2,0-0.5,0.1-0.7,0.4c-6.5,8.6-12.2,14.8-17.3,18.4c-5,3.6-8.9,5.4-11.7,5.4c-1.7,0-3-0.5-4-1.4
		c-1-1-1.4-2.4-1.4-4.3c0-1.7,0.5-3.9,1.6-6.7c1.1-2.8,2.4-5.6,3.9-8.5c1.5-2.9,3-5.6,4.6-8.1c1.6-2.5,2.8-4.5,3.8-5.9
		c1.1-1.4,1.6-2.5,1.6-3.2c0-0.8-0.5-1.3-1.6-1.3c-1.4,0-3.2,0.5-5.2,1.6c-2,1.1-4.1,2.3-6.3,3.8c-2.2,1.4-4.1,2.9-5.9,4.3
		c-1.8,1.4-3.1,2.5-4,3.2c7.2-14.2,13.8-26.4,19.9-36.8c6.1-10.4,11.7-19.2,16.8-26.5c5.2-7.3,9.9-13.2,14.3-17.7
		c4.4-4.6,8.5-8.1,12.3-10.7c3.8-2.6,7.4-4.3,10.7-5.2c3.3-0.9,6.5-1.3,9.6-1.3c3.6,0,6.5,0.5,8.8,1.5c2.3,1,4,2.2,5.3,3.6
		c1.3,1.4,2.1,2.8,2.5,4.2c0.4,1.4,0.6,2.6,0.6,3.4c0,0.2,0.1,0.4,0.3,0.6c0.2,0.2,0.4,0.1,0.5-0.3c0.2-0.4,0.4-1,0.5-2
		c0.2-1,0.3-2.4,0.3-4.3C713.5,837.3,713,835,712,833.3z M563.2,935.7c-2,3.8-5.5,7.6-10.3,11.4c0.6-4,1.4-7.4,2.5-10.4
		c1.1-2.9,2.2-5.4,3.3-7.3c1.1-1.9,2.2-3.4,3.3-4.3c1.1-1,1.9-1.4,2.5-1.4c0.7,0,1.2,0.4,1.3,1.1c0.2,0.7,0.3,1.2,0.3,1.4
		C566.3,928.8,565.2,931.9,563.2,935.7z M612.4,920.2c-0.2-0.4-0.5-0.5-1-0.4c-1.4,0.5-4,1-7.6,1.5s-7.1,0.8-10.6,0.8
		c-2.9,0-5.1-0.1-6.7-0.5c-1.6-0.3-2.7-0.6-3.5-0.9c-0.8-0.3-1.3-0.6-1.5-0.9c-0.2-0.3-0.5-0.5-0.7-0.5c-0.5,0-1.3,0.3-2.3,0.8
		s-2,0.8-2.7,0.8c-0.6,0.2-0.7,0.6-0.2,1.1c1.9,0.2,3,1.3,3.3,3.1c0.3,1.8,0.4,4.1,0.4,7c0,3.2-0.4,6.7-1.1,10.3
		c-0.7,3.6-1.8,6.9-3.1,9.9c-1.4,3-3.1,5.5-5.3,7.5c-2.2,2-4.7,3-7.6,3c-1.9,0-3.5-0.4-4.7-1.3c-1.2-0.8-2.2-1.9-2.9-3.2
		c-0.7-1.3-1.2-2.8-1.4-4.5c-0.2-1.7-0.4-3.4-0.4-5c3.8-3.1,6.9-6.1,9.2-8.9c2.3-2.8,4.1-5.4,5.4-7.7c1.3-2.3,2.2-4.3,2.6-6
		c0.4-1.7,0.6-2.8,0.6-3.4c0-0.4-0.1-0.9-0.3-1.5c-0.2-0.7-0.8-1-1.7-1c-1.9,0-3.6,0.7-5,2c-1.4,1.3-2.5,2.3-3.1,3.1
		c-3,3.6-5.6,7.7-7.9,12.2c-2.3,4.5-4,9.1-5,13.8c-3.1,2-5.6,3.4-7.5,4c-1.9,0.6-3.1,0.9-3.7,0.9c-0.8,0-1.5-0.3-2-0.9
		c-0.5-0.6-0.7-1.3-0.7-2c0-1.4,0.4-3.4,1.3-5.9c0.8-2.5,2-5.2,3.4-8c1.4-2.8,3-5.6,4.8-8.5c1.7-2.8,3.5-5.2,5.3-7.1
		c1.1-1.1,1.9-1.7,2.6-2c0.7-0.2,1-0.5,1-0.7c0-0.4-0.2-0.5-0.7-0.5c-0.7,0.1-1.7,0.3-2.9,0.6c-1.2,0.3-2.3,0.6-3.2,0.8
		c-0.7,0.2-1.4,0.6-1.9,1.2c-0.5,0.5-1,1.1-1.3,1.5c-0.8,1.1-2.1,2.8-3.8,5.1c-1.7,2.3-3.4,4.9-5.1,7.7c-1.7,2.8-3.2,5.6-4.5,8.5
		c-1.3,2.8-1.9,5.3-1.9,7.5c0,1.8,0.5,3.2,1.4,4.1c0.9,0.9,2.1,1.3,3.5,1.3c2.6,0,5.3-0.7,8.1-2c2.8-1.3,5.3-2.6,7.6-4
		c-0.2,1.2-0.4,2.5-0.4,3.8c0,3.1,0.9,5.6,2.7,7.6c1.8,1.9,4.3,2.9,7.4,2.9c2.8,0,5.1-0.5,7.1-1.4c2-1,4-2.3,6-4.1
		c1.7-1.4,3.4-3.4,5-5.9c1.7-2.5,3.2-5.2,4.6-8.3c1.4-3.1,2.5-6.3,3.4-9.7s1.4-6.8,1.4-10c0-0.6,0.1-1.1,0.3-1.6
		c0.2-0.5,0.6-0.8,1.2-0.9c1.3-0.1,3.1-0.3,5.3-0.5c2.2-0.2,4.6-0.5,7-0.9c2.5-0.4,4.9-0.7,7.2-1.2c2.3-0.4,4.3-0.9,5.9-1.4
		C612.3,920.8,612.6,920.5,612.4,920.2z M486.9,923.7c0.4-0.8,0.7-1.5,1.1-2.1c0-1.2-1-1.8-2.9-1.8c-1.8,0-3.6,0.5-5.5,1.4
		c-1.9,1-3.6,2.1-5.1,3.5c-1.6,1.4-2.9,2.9-3.9,4.6c-1,1.7-1.5,3.2-1.5,4.7c0,1.4,0.4,2.8,1.1,4c0.7,1.2,1.4,2.4,2.2,3.6
		c0.7,1.1,1.4,2.3,2,3.6c0.6,1.3,0.9,2.8,0.9,4.3c0,2-0.4,3.7-1.3,4.9c-0.8,1.2-1.8,2.1-3,2.8c-1.1,0.7-2.4,1.1-3.7,1.3
		c-1.3,0.2-2.5,0.3-3.4,0.3c-2.3,0-4.3-0.8-5.9-2.3c-1.7-1.6-2.8-3.4-3.4-5.6c-0.1-0.5-0.3-0.7-0.5-0.7c-0.4,0.5-0.9,1-1.7,1.5
		c-0.8,0.5-1.5,1-2.1,1.4c0.7,4.9,4.7,7.4,12.1,7.4c1.2,0,2.8-0.2,4.9-0.6c2-0.4,4.1-1.2,6-2.4c2-1.2,3.7-2.8,5.1-4.8
		c1.4-2,2.2-4.5,2.2-7.7c0-1.6-0.4-3.1-1.3-4.5c-0.8-1.4-1.7-2.9-2.7-4.3c-1.1-1.6-1.9-2.8-2.5-3.8c-0.6-1-0.9-1.9-0.9-2.9
		c0-1.9,0.8-3.4,2.5-4.3c1.7-1,3.4-1.4,5-1.4c2.3,0,3.8,0.8,4.5,2.3c0.2,0.5,0.5,0.4,0.9-0.2C486.2,925.1,486.5,924.4,486.9,923.7z
		 M445.7,931.9c-2.6,2.5-5.7,3.7-9.2,3.7c-0.4,0-0.8,0-1.4-0.1c-0.6-0.1-1-0.1-1.3-0.3c0.7-1.6,1.6-3.2,2.7-4.9
		c1.1-1.7,2.2-3.2,3.4-4.7c1.2-1.4,2.4-2.6,3.7-3.5c1.3-0.9,2.5-1.3,3.7-1.3c1.6,0,2.3,0.8,2.3,2.3
		C449.6,926.6,448.3,929.5,445.7,931.9z M468.1,936.5c-0.3-0.1-0.6-0.1-0.8,0.2c-1.6,2-3.5,4.2-5.9,6.6c-2.3,2.3-4.9,4.5-7.6,6.5
		c-2.8,2-5.6,3.6-8.5,5c-2.9,1.3-5.8,2-8.6,2c-4.4,0-6.7-2.5-6.7-7.4c0-2.4,0.4-4.8,1.1-7.1c0.7-2.3,1.4-4,2-5.1
		c3.8,0,7.1-0.5,9.9-1.5c2.8-1,5-2.3,6.8-3.8c1.8-1.5,3.1-3.1,4-4.8c0.9-1.7,1.4-3.2,1.4-4.7c0-1-0.3-1.7-1-2.3
		c-0.7-0.6-1.8-0.9-3.5-0.9c-3,0-6.2,1.1-9.4,3.3c-3.3,2.2-6.3,5-9.1,8.3c-2.8,3.3-5,6.9-6.8,10.8c-1.7,3.9-2.6,7.5-2.6,10.9
		c0,5,2.8,7.6,8.5,7.6c3.5,0,7-0.7,10.5-2.1c3.5-1.4,7-3.2,10.3-5.4c3.3-2.2,6.4-4.7,9.2-7.4c2.8-2.7,5.2-5.3,7.3-7.8
		C468.5,936.9,468.4,936.7,468.1,936.5z M432.6,933.7c-0.1-0.3-0.4-0.1-1,0.4c-1.3,1.8-3.2,4-5.6,6.5c-2.4,2.5-5,4.9-7.8,7.2
		c-2.8,2.3-5.7,4.2-8.6,5.8s-5.5,2.4-7.9,2.4c-1.3,0-2.4-0.3-3.1-1c-0.8-0.7-1.2-1.7-1.2-3.2c0-1.3,0.4-3.1,1.2-5.4
		c0.8-2.3,1.8-4.8,3.1-7.5c1.3-2.7,2.8-5.5,4.4-8.4c1.6-2.9,3.2-5.5,4.8-7.9c0.2-0.2,0.4-0.6,0.6-1.1c0.2-0.5,0.3-0.8,0.3-1.1
		c0-0.4-0.3-0.5-0.9-0.5c-0.5,0-1.5,0.3-3,1c-1.5,0.7-2.6,1.5-3.1,2.4c-1,1.3-2.2,3.3-3.9,5.9c-1.6,2.6-3.2,5.4-4.9,8.3
		s-3,5.7-4.2,8.4c-1.2,2.7-1.8,4.8-1.8,6.4c0,1.3,0.3,2.4,0.8,3.2c0.5,0.8,1.2,1.4,2,1.9c0.8,0.5,1.6,0.8,2.6,0.9
		c1,0.1,1.8,0.2,2.5,0.2c2,0,4.3-0.4,6.8-1.3c2.5-0.8,5-2,7.4-3.6c3.1-2,6.5-4.7,10.3-8.1c3.7-3.4,7-6.9,9.9-10.6
		C432.6,934.5,432.7,934,432.6,933.7z M421.9,892.6c-1.7,0-3.1,0.7-4.2,2.2c-1.1,1.4-1.7,2.9-1.7,4.5c0,1.4,0.7,2.2,2.2,2.2
		c1.6,0,3-0.7,4.2-2.2c1.3-1.4,1.9-2.9,1.9-4.3C424.2,893.4,423.5,892.6,421.9,892.6z M397.4,892.2c-0.1-0.3-0.3-0.5-0.5-0.5
		c-1.8,0.6-3.9,1.4-6.2,2.3c-2.3,1-4.2,1.7-5.5,2.3c-1.1,1.8-2.3,3.8-3.7,5.9c-1.4,2.1-2.7,4.3-4.1,6.5c-1.3,2.2-2.6,4.4-4,6.7
		c-1.3,2.2-2.5,4.2-3.6,6l-9.2,0.2c-1.1,0.8-1.9,1.7-2.3,2.5c0,0.5,0.3,0.7,0.9,0.7c0.4,0,1.6-0.1,3.7-0.3c2.1-0.2,3.9-0.3,5.3-0.4
		c-4.2,6.8-7.4,12.6-9.5,17.3c-2.2,4.7-3.2,8.2-3.2,10.6c0,2.8,0.7,4.7,2.2,5.9c1.4,1.1,3.1,1.7,5,1.7c3.6,0,7.1-0.6,10.6-1.8
		c3.5-1.2,7.3-3.1,11.3-5.8c0.6-0.2,0.7-0.6,0.4-1c-0.4-0.4-0.7-0.4-1.1-0.1c-2.8,1.7-5.4,3-7.8,4c-2.5,1-4.7,1.5-6.6,1.5
		c-4,0-5.9-2.2-5.9-6.5c0-3.1,0.9-6.8,2.7-11c1.8-4.2,4.4-9.3,7.7-15.3c1.8-0.1,3.9-0.2,6.3-0.4c2.4-0.1,4.7-0.2,7-0.4
		c2.3-0.1,4.4-0.2,6.3-0.3c1.9-0.1,3.4-0.1,4.3-0.1c0.2-0.1,0.4-0.3,0.4-0.5c0-0.2-0.2-0.5-0.5-0.7h-22.3c2.4-4.2,4.9-8.4,7.5-12.6
		c2.6-4.2,5.2-8.2,8-12.1c0.6-1,1.5-1.8,2.7-2.4c1.2-0.7,2.3-1.1,3.2-1.4C397.4,892.7,397.5,892.5,397.4,892.2z M364.4,933.7
		c-0.1-0.3-0.4-0.1-1,0.4c-1.3,1.8-3.2,4-5.6,6.5c-2.4,2.5-5,4.9-7.8,7.2c-2.8,2.3-5.7,4.2-8.6,5.8s-5.5,2.4-7.9,2.4
		c-1.3,0-2.4-0.3-3.1-1c-0.8-0.7-1.2-1.7-1.2-3.2c0-1.3,0.4-3.1,1.2-5.4c0.8-2.3,1.8-4.8,3.1-7.5c1.3-2.7,2.8-5.5,4.4-8.4
		c1.6-2.9,3.2-5.5,4.8-7.9c0.2-0.2,0.4-0.6,0.6-1.1c0.2-0.5,0.3-0.8,0.3-1.1c0-0.4-0.3-0.5-0.9-0.5c-0.5,0-1.5,0.3-3,1
		c-1.5,0.7-2.6,1.5-3.1,2.4c-1,1.3-2.2,3.3-3.9,5.9c-1.6,2.6-3.2,5.4-4.9,8.3s-3,5.7-4.2,8.4c-1.2,2.7-1.8,4.8-1.8,6.4
		c0,1.3,0.3,2.4,0.8,3.2c0.5,0.8,1.2,1.4,2,1.9c0.8,0.5,1.6,0.8,2.6,0.9c1,0.1,1.8,0.2,2.5,0.2c2,0,4.3-0.4,6.8-1.3
		c2.5-0.8,5-2,7.4-3.6c3.1-2,6.5-4.7,10.3-8.1c3.7-3.4,7-6.9,9.9-10.6C364.4,934.5,364.5,934,364.4,933.7z M353.7,892.6
		c-1.7,0-3.1,0.7-4.2,2.2c-1.1,1.4-1.7,2.9-1.7,4.5c0,1.4,0.7,2.2,2.2,2.2c1.6,0,3-0.7,4.2-2.2c1.3-1.4,1.9-2.9,1.9-4.3
		C356,893.4,355.2,892.6,353.7,892.6z M329.2,892.2c-0.1-0.3-0.3-0.5-0.5-0.5c-1.8,0.6-3.9,1.4-6.2,2.3c-2.3,1-4.2,1.7-5.5,2.3
		c-1.1,1.8-2.3,3.8-3.7,5.9c-1.4,2.1-2.7,4.3-4.1,6.5c-1.3,2.2-2.6,4.4-4,6.7c-1.3,2.2-2.5,4.2-3.6,6l-9.2,0.2
		c-1.1,0.8-1.9,1.7-2.3,2.5c0,0.5,0.3,0.7,0.9,0.7c0.4,0,1.6-0.1,3.7-0.3c2.1-0.2,3.9-0.3,5.3-0.4c-4.2,6.8-7.4,12.6-9.5,17.3
		c-2.2,4.7-3.2,8.2-3.2,10.6c0,2.8,0.7,4.7,2.2,5.9c1.4,1.1,3.1,1.7,5,1.7c3.6,0,7.1-0.6,10.6-1.8c3.5-1.2,7.3-3.1,11.3-5.8
		c0.6-0.2,0.7-0.6,0.4-1c-0.4-0.4-0.7-0.4-1.1-0.1c-2.8,1.7-5.4,3-7.8,4c-2.5,1-4.7,1.5-6.6,1.5c-4,0-5.9-2.2-5.9-6.5
		c0-3.1,0.9-6.8,2.7-11c1.8-4.2,4.4-9.3,7.7-15.3c1.8-0.1,3.9-0.2,6.3-0.4c2.4-0.1,4.7-0.2,7-0.4c2.3-0.1,4.4-0.2,6.3-0.3
		c1.9-0.1,3.4-0.1,4.3-0.1c0.2-0.1,0.4-0.3,0.4-0.5c0-0.2-0.2-0.5-0.5-0.7h-22.3c2.4-4.2,4.9-8.4,7.5-12.6c2.6-4.2,5.2-8.2,8-12.1
		c0.6-1,1.5-1.8,2.7-2.4c1.2-0.7,2.3-1.1,3.2-1.4C329.1,892.7,329.3,892.5,329.2,892.2z M296.4,934.1c-0.5-0.2-0.8-0.1-1.1,0.3
		c-1.7,2.6-3.8,5.4-6.5,8.3c-2.6,2.9-5.4,5.5-8.4,7.8c-2.9,2.3-5.8,4.3-8.5,5.9c-2.8,1.6-5.2,2.3-7.2,2.3c-1.3,0-2.3-0.3-2.9-0.8
		c-0.6-0.5-0.9-1.5-0.9-3c0-1.7,0.6-4,1.8-6.8c1.2-2.9,2.7-5.9,4.4-9.1c1.7-3.2,3.6-6.3,5.5-9.3c1.9-3,3.5-5.5,4.9-7.4
		c0.6-1,0.9-1.7,0.9-2.2c0-0.5-0.2-1-0.6-1.5c-0.4-0.5-0.9-0.8-1.4-0.8c-0.7,0-2,0.6-3.9,1.9c-1.9,1.3-4,2.9-6.5,4.8
		c-2.5,1.9-5,4-7.7,6.3c-2.7,2.3-5.2,4.4-7.5,6.5c1.7-3.7,3.4-7,5.1-9.8c1.7-2.8,2.6-4.5,2.6-4.9c0-0.7-0.3-1.4-0.9-2
		c-0.6-0.6-1.3-0.9-2-0.9c-0.7,0-1.3,0.3-1.6,0.9c-1.4,3.4-3.2,7.2-5.2,11.4c-2,4.3-4,8.3-5.9,12.2c-1.8,2.3-3.5,4.4-5,6.2
		c-1.5,1.9-2.2,3.3-2.2,4.4c0,0.4,0.2,1.2,0.6,2.5c0.4,1.3,0.9,2,1.5,2c0.2,0,0.6-0.4,1.1-1.1c2-3.1,3.7-5.9,5.1-8.5
		c1.4-2.5,3-5.3,5-8.3c1.1-1.3,2.5-2.8,4.2-4.5c1.7-1.7,3.5-3.3,5.4-5c1.9-1.6,3.7-3.1,5.5-4.6c1.8-1.4,3.4-2.6,4.7-3.4
		c0.6-0.4,1-0.3,1.2,0.1c0.2,0.4,0.1,0.9-0.1,1.5c-1.1,2.5-2.5,5.3-4.2,8.3c-1.7,3-3.4,5.9-5,8.8c-1.6,2.9-3,5.6-4.2,8.2
		c-1.2,2.6-1.8,4.7-1.8,6.4c0,1.7,0.6,2.7,1.8,3.2c1.2,0.4,2.5,0.6,4,0.6c3.1,0,6.3-0.8,9.6-2.3c3.3-1.6,6.5-3.5,9.7-5.9
		c3.2-2.4,6.2-5.1,9-8.2c2.8-3.1,5.3-6.1,7.5-9.1C296.9,934.7,296.9,934.3,296.4,934.1z M222.5,920.5c-1.4,2.5-3.1,5.4-4.9,8.6
		c-1.8,3.2-3.7,6.3-5.6,9.2c-1.7,2.5-3.5,4.9-5.5,7s-3.9,4.1-5.9,5.7c-1.9,1.6-3.6,2.9-5.1,3.9c-1.5,1-2.6,1.4-3.3,1.4
		c-0.7,0-1.1-0.5-1.1-1.4c0-1.8,0.9-4.6,2.6-8.5c1.7-3.8,4.1-7.7,6.9-11.6c2.9-3.9,6.2-7.3,9.9-10.2c3.7-2.9,7.6-4.3,11.7-4.3
		L222.5,920.5z M250,933.2c-0.2-0.2-0.5-0.1-0.7,0.3c-2.9,3.6-5.9,7-9.1,10.3c-3.2,3.2-6.3,6.1-9.3,8.6c-3,2.5-5.8,4.4-8.5,5.8
		c-2.6,1.4-4.9,2.1-6.8,2.1c-1.7,0-2.8-0.4-3.3-1.1c-0.5-0.7-0.8-1.6-0.8-2.7c0-2.8,1.3-7,3.9-12.7c2.6-5.7,6.6-13.4,12.1-23.1
		c0.7,0,1.8,0.1,3.2,0.2c1.4,0.1,2.5,0.3,3.2,0.5c0.4,0,0.5-0.2,0.5-0.5c0-0.4-0.3-0.7-0.9-0.9c-0.6-0.1-1.5-0.2-2.7-0.4
		c-1.2-0.1-2.1-0.2-2.7-0.2c0.6-1,1.2-1.9,1.7-2.8s1.1-1.6,1.7-2.2l-0.4-0.2l-5,1.4c-0.5,0.2-1,0.6-1.4,1.1c-0.5,0.5-1,1.3-1.6,2.5
		c-5,0-9.9,1.4-14.6,4.2c-4.7,2.8-8.9,6.2-12.5,10.1c-3.7,3.9-6.6,8-8.7,12.2c-2.2,4.2-3.2,7.7-3.2,10.4c0,2.5,1.3,3.8,3.8,3.8
		c1.7,0,3.6-0.6,5.8-1.9c2.2-1.3,4.3-2.8,6.5-4.7c2.2-1.9,4.3-3.9,6.3-6.2c2-2.3,3.8-4.4,5.4-6.5c-2,3.2-3.6,6.3-4.6,9.1
		c-1,2.8-1.5,5.1-1.5,6.8c0,1.8,0.5,3.3,1.4,4.5c1,1.2,2.6,1.8,5,1.8c2.8,0,5.8-0.8,9.1-2.5c3.3-1.7,6.6-3.9,10-6.7
		c3.4-2.8,6.7-5.9,10-9.3c3.3-3.4,6.3-6.8,9.1-10.2C250.4,933.7,250.2,933.4,250,933.2z M196.2,936.2c-2.6,3.8-5.4,7.4-8.4,10.6
		c-2.9,3.2-5.8,6-8.6,8.3c-2.8,2.3-5.3,4-7.6,5.3s-4.4,1.9-6,1.9c-2.5,0-3.8-1.3-3.8-4c0-3,0.5-5.8,1.4-8.3c1-2.5,2.1-4.9,3.5-7.2
		c1.4-2.3,2.9-4.5,4.5-6.6c1.6-2.1,3.1-4.2,4.6-6.4c0.5-0.8,0.7-1.7,0.7-2.7c0-1.4-0.3-2.7-0.9-3.7c-0.6-1-1.1-1.5-1.6-1.5
		c-0.4,0-0.8,0.4-1.4,1.3c-0.5,0.8-1.2,2.1-2.2,3.7c-1,1.6-2,3.4-3.1,5.3c-1.1,1.9-2.2,3.9-3.3,6c-1.1,2.1-2.2,4.1-3.3,6
		c-2.9,4.4-5.4,7.6-7.5,9.5c-2.1,1.9-3.8,2.8-5,2.8c-1.3,0-2-0.9-2-2.7c0-1.1,0.4-2.6,1.2-4.6c0.8-2,1.8-4.2,3.1-6.8
		c1.3-2.5,2.7-5.2,4.4-8.1c1.7-2.9,3.5-5.8,5.4-8.6c0.7-1.1,1.1-1.8,1.1-2.2c0-0.4-0.5-1-1.4-2.1c-0.9-1-1.8-1.5-2.6-1.5
		c-0.5,0-1,0.6-1.6,1.8c-3.1,5.4-5.7,9.9-7.6,13.6c-2,3.7-3.5,6.7-4.7,9.2c-1.1,2.5-1.9,4.4-2.3,5.8c-0.4,1.4-0.6,2.6-0.6,3.6
		c0,1.7,0.4,2.9,1.3,3.7c0.8,0.8,1.9,1.2,3.2,1.2c1.7,0,3.2-0.3,4.6-1c1.4-0.7,2.6-1.5,3.8-2.5c1.1-1,2.2-2.1,3.1-3.2
		c0.9-1.1,1.7-2.1,2.4-3c-0.7,1.7-1.2,3.2-1.5,4.6c-0.3,1.4-0.4,2.6-0.4,3.7c0,2.3,0.6,4,1.7,5c1.1,1.1,2.7,1.6,4.8,1.6
		c2.8,0,5.7-0.9,8.8-2.6c3.1-1.7,6.2-3.9,9.2-6.6c3-2.6,5.9-5.5,8.6-8.7c2.8-3.2,5.2-6.2,7.2-9.1
		C197.3,936.2,196.9,935.9,196.2,936.2z M118.4,937.9c-3.1,4.5-5.9,8.2-8.3,11.1c-2.2,2.5-4.2,4.4-6.1,5.8c-1.9,1.3-3.4,2-4.5,2
		c-0.8,0-1.3-0.5-1.3-1.6c0-1.4,0.8-3.7,2.4-6.8c1.6-3.1,3.6-6.4,6-9.7c2.4-3.4,4.9-6.5,7.6-9.5c2.6-2.9,5-4.8,7.2-5.7
		c2.2-1,4.6-1.4,7.4-1.4C125,928.1,121.5,933.4,118.4,937.9z M154.1,931.4c-0.2-0.4-0.7-0.3-1.3,0.3c-3.6,4.8-7,9.3-10.1,13.6
		c-3.1,4.3-6.1,8.4-9,12.5s-5.7,8.2-8.6,12.2c-2.8,4.1-5.8,8.3-8.9,12.8c-6.4,9.1-13.1,18.7-20.1,28.6c-7,10-14.3,19.2-21.9,27.7
		c-1.9,2.2-3.7,3.8-5.2,5c-1.6,1.1-2.8,1.7-3.8,1.7c-1.3,0-2-0.9-2-2.7c0-2,0.8-4.8,2.3-8.3c2.6-6,5.6-12.1,8.8-18.2
		c3.2-6.1,6.5-12.2,9.8-18.1c3.3-5.9,6.6-11.7,10-17.2c3.4-5.5,6.5-10.6,9.4-15.3c4.4-7.2,9.1-14.5,13.9-21.8
		c4.8-7.3,9.8-14.6,14.9-22c1,0.1,2,0.4,3.1,0.8c1.1,0.4,2.1,1.1,3,2.1c0.7,1,1.3,1.3,1.6,1c0.4-0.3,0.4-0.8,0-1.5
		c-1.2-2.2-3.4-3.4-6.7-3.8c2.3-3.4,4.5-6.7,6.6-10c2.1-3.3,4.2-6.9,6.2-10.7c0.2-0.5,0.4-0.8,0.4-0.9c0-1.1-0.5-1.6-1.6-1.6
		c-0.5,0-1.1,0.4-1.9,1.2c-0.8,0.8-1.7,2.1-2.9,3.9c-1.1,1.8-2.6,4.2-4.3,7.1c-1.7,2.9-3.9,6.5-6.4,10.7c-1.3,0-2.6,0.1-3.7,0.2
		c-1.1,0.1-2.4,0.4-3.7,0.7c-3.2,0.8-6.6,2.6-10.2,5.3c-3.5,2.7-6.8,5.7-9.6,9c-2.9,3.3-5.3,6.6-7.1,10c-1.9,3.4-2.8,6.2-2.8,8.6
		c0,3.2,1.5,4.9,4.5,4.9c2.8,0,5.4-1,8-3.1c2.6-2,4.7-4.1,6.4-6.1c-4.6,7.2-9,14.2-13.2,20.9c-4.3,6.7-8.5,13.5-12.8,20.2
		c-4.3,6.8-8.5,13.7-12.9,20.8c-4.3,7.1-8.8,14.6-13.5,22.7c-1.7,2.8-2.9,5.2-3.6,7.3c-0.7,2.1-1.1,3.8-1.1,5.1
		c0,2.8,1.3,4.1,3.8,4.1c2.2,0,5-1.1,8.5-3.2c3.5-2.2,7.1-5.4,11-9.7c3.5-4,7-8.2,10.4-12.7c3.5-4.5,6.9-9.2,10.4-14
		c3.4-4.8,6.8-9.5,10-14.2c3.2-4.7,6.4-9.2,9.4-13.5c3.1-4.4,6.1-8.7,8.9-12.9c2.8-4.1,5.7-8.2,8.6-12.2c2.9-4,5.8-8.2,8.8-12.4
		c3-4.3,6.3-8.7,9.9-13.4C154.2,932.3,154.3,931.8,154.1,931.4z"/>
</g>
</svg>
