<svg height='100px' width='100px'  fill="#000000" xmlns="http://www.w3.org/2000/svg" xmlns:xlink="http://www.w3.org/1999/xlink" version="1.1" x="0px" y="0px" viewBox="0 0 100 100" enable-background="new 0 0 100 100" xml:space="preserve"><g><path d="M36.3115234,85.0615234c-0.6162109,2.2197266-1.3652344,4.3935547-2.28125,6.4091797h13.1367188v-6.4091797H36.3115234z"></path><path d="M63.8955078,85.0615234H52.8515625v6.4091797h13.3251953C65.2607422,89.4550781,64.5117188,87.28125,63.8955078,85.0615234   z"></path><path d="M60.3330078,41.7255859c0.0966797,0.097168,0.2246094,0.1464844,0.3535156,0.1464844   c0.1083984,0,0.2167969-0.0351562,0.3076172-0.105957l26.0390625-20.3505859   c0.1132812-0.0883789,0.1826172-0.2207031,0.1914062-0.3637695c0.0087891-0.1425781-0.0439453-0.2827148-0.1455078-0.3837891   l-5.8759766-5.8759766l-1.1201172-1.1201172c-0.1875-0.1875-0.5195312-0.1875-0.7070312,0L50.8642578,42.1845703   c-0.4980469-0.1577148-1.0332031-0.1762695-1.5410156-0.0537109l-5.03125-5.0307617l2.6787109-2.6791992   c0.1787109-0.1787109,0.1962891-0.4624023,0.0400391-0.6616211L26.6601562,7.7211914   c-0.0878906-0.112793-0.2197266-0.1821289-0.3632812-0.190918c-0.1455078-0.0068359-0.2832031,0.0439453-0.3837891,0.1455078   l-5.8759766,5.8759766l-1.1201172,1.1191406c-0.09375,0.09375-0.1464844,0.2207031-0.1464844,0.3535156   c0,0.1323242,0.0527344,0.2597656,0.1464844,0.3535156l28.4990234,28.4985352   c-0.171875,0.5083008-0.1894531,1.0522461-0.0556641,1.5693359l-5.015625,5.0161133l-2.6777344-2.6787109   c-0.1767578-0.1782227-0.4609375-0.1948242-0.6611328-0.0405273L12.9667969,68.0942383   c-0.1132812,0.0883789-0.1826172,0.2207031-0.1914062,0.3637695c-0.0087891,0.1425781,0.0439453,0.2827148,0.1455078,0.3837891   l5.8759766,5.875l1.1191406,1.1201172c0.09375,0.09375,0.2207031,0.1464844,0.3535156,0.1464844   s0.2597656-0.0527344,0.3535156-0.1464844l28.4980469-28.4970703c0.2802734,0.0952148,0.5732422,0.1557617,0.8779297,0.1557617   c0.2382812,0,0.46875-0.0410156,0.6943359-0.0996094l5.0136719,5.0136719l-2.6787109,2.6782227   c-0.1787109,0.1787109-0.1962891,0.4624023-0.0400391,0.6616211l20.3515625,26.0390625   c0.0878906,0.112793,0.2197266,0.1821289,0.3632812,0.190918c0.0097656,0.0004883,0.0205078,0.0009766,0.0302734,0.0009766   c0.1318359,0,0.2597656-0.0522461,0.3535156-0.1464844l5.8759766-5.8759766l1.1191406-1.1201172   c0.1953125-0.1953125,0.1953125-0.5117188,0-0.7070312L52.5839844,45.6333008   c0.0957031-0.2807617,0.15625-0.5737305,0.15625-0.8789062c0-0.2382812-0.0410156-0.4682617-0.0996094-0.6928711   l5.0136719-5.0136719L60.3330078,41.7255859z"></path><path d="M52.3212891,54.3808594l0.9453125-0.9453125h-8.8271484l-4.8027344,4.8027344   c-0.4306641,7.0859375-1.671875,18.4692383-5.0136719,25.8232422h30.9609375   c-1.9951172-4.3901367-3.2402344-10.215332-4.0126953-15.7060547l-9.3710938-11.9902344   C51.7333984,55.7705078,51.7851562,54.9165039,52.3212891,54.3808594z M51.4853516,78.1816406h-2.9511719v-3.1865234   c0-0.8144531,0.6611328-1.4746094,1.4755859-1.4746094s1.4755859,0.6601562,1.4755859,1.4746094V78.1816406z    M51.4853516,67.6240234h-2.9511719v-3.1855469c0-0.8144531,0.6611328-1.4755859,1.4755859-1.4755859   s1.4755859,0.6611328,1.4755859,1.4755859V67.6240234z"></path><path d="M50.5449219,41.0898438l1.3349609-1.3349609c-0.5507812-0.1445312-1.1132812-0.2387695-1.6914062-0.2387695   c-0.6162109,0-1.2158203,0.1010742-1.8017578,0.2646484l1.2841797,1.2836914   C49.9628906,41.0405273,50.2578125,41.0493164,50.5449219,41.0898438z"></path><path d="M46.2880859,45.1040039c-0.0283203-0.3056641-0.0195312-0.6123047,0.0263672-0.9150391l-1.9375-1.9379883   c-1.4873047,1.4838867-2.6767578,3.4135742-3.4208984,5.4077148l1.3886719,1.3886719L46.2880859,45.1040039z"></path><path d="M49.4277344,48.4472656l-3.5751953,3.5751953h8.0527344l-3.546875-3.546875   C50.0419922,48.5092773,49.7392578,48.4995117,49.4277344,48.4472656z"></path><path d="M53.7402344,44.7543945c0,0.1904297-0.015625,0.3803711-0.0488281,0.5727539l6.5859375,6.5859375   c-0.0371094-3.2504883-1.7451172-7.1787109-4.3427734-9.7314453l-2.2148438,2.2148438   C53.7333984,44.5185547,53.7402344,44.6376953,53.7402344,44.7543945z"></path></g></svg>