<svg xmlns="http://www.w3.org/2000/svg" xmlns:xlink="http://www.w3.org/1999/xlink" width="100" height="100" viewBox="0 0 100 100"><rect width="100%" height="100%" fill="#FFFFFF"></rect><g transform="translate(50 50) scale(0.69 0.69) rotate(0) translate(-50 -50)" style="fill:#333333"><svg fill="#333333" xmlns="http://www.w3.org/2000/svg" xmlns:xlink="http://www.w3.org/1999/xlink" version="1.1" x="0px" y="0px" viewBox="0 0 1024 1024" style="enable-background:new 0 0 1024 1024;" xml:space="preserve"><g><path d="M622.7,168.2c0,61-49.6,110.6-110.6,110.6c-61,0-110.6-49.6-110.6-110.6c0-61,49.6-110.6,110.6-110.6   C573.1,57.7,622.7,107.3,622.7,168.2z"></path><path d="M747.6,782.3H611V929c0,20.6-15.3,37.4-34.2,37.4H448.9c-19.3,0-36.9-17.8-36.9-37.4V782.3H276.4l72-338.5   c18.6-94.8,58.4-133.5,137.1-133.5H539c39,0,67.2,9.8,88.7,30.9c21.3,20.9,36,52.5,47.8,102.3l0,0.1L747.6,782.3z"></path></g></svg></g></svg>