<?xml version="1.0" encoding="utf-8"?>
<!-- Generator: Adobe Illustrator 22.1.0, SVG Export Plug-In . SVG Version: 6.00 Build 0)  -->
<svg version="1.0" id="Layer_1" xmlns="http://www.w3.org/2000/svg" xmlns:xlink="http://www.w3.org/1999/xlink" x="0px" y="0px"
	 viewBox="0 0 480 480" style="enable-background:new 0 0 480 480;" xml:space="preserve">
<style type="text/css">
	.st0{fill:#FFFFFF;}
	.st1{fill:#0C7F99;}
</style>
<g>
	<path class="st0" d="M269.3,117c0,4.2-1.4,8.2-3.7,11.3l-30.4,0.3c-2.6-3.1-4-7.3-4-11.6c0-10.5,8.5-19,19-19
		C260.8,97.9,269.3,106.5,269.3,117z"/>
	<path class="st0" d="M324.3,117c0,4.2-1.4,8.2-3.7,11.3l-30.4,0.3c-2.6-3.1-4-7.3-4-11.6c0-10.5,8.5-19,19-19
		C315.8,97.9,324.3,106.5,324.3,117z"/>
	<path d="M256.7,104.1c-1.3,0.1-2.3,1.1-2.3,2.4s1.1,2.4,2.4,2.4c1.3,0,2.4-1.1,2.4-2.4S258.1,104.1,256.7,104.1L256.7,104.1l2.9-1
		c4.3,0,7.7,3.5,7.7,7.7s-3.5,7.7-7.7,7.7c-4.2,0-7.7-3.5-7.7-7.7s3.5-7.7,7.7-7.7"/>
	<path d="M311.7,104.1c-1.3,0.1-2.3,1.1-2.3,2.4s1.1,2.4,2.4,2.4s2.4-1.1,2.4-2.4s-1.1-2.4-2.4-2.4H311.7l2.9-1
		c4.3,0,7.7,3.5,7.7,7.7s-3.5,7.7-7.7,7.7s-7.7-3.5-7.7-7.7s3.5-7.7,7.7-7.7"/>
	<path class="st1" d="M246.1,159.4h64.4c-15.4,63.8-25.1,105.4-25.1,151c0,8-3.4,36,16.3,48.5c9.9,6.3,29.3,10.1,29.3,0.4
		c0-2.8,0-4-4-12.5c-15.4-39.3-15.4-88.3-15.4-92.3c0-3.4,0-43.9,12-95.1h63.8c7.4,0,26.2,0,26.2-18.2c0-12.5-10.8-12.5-21.1-12.5
		H205.1c-13.1,0-12.9,1.4-38-12.5c-19.4-10.7-11.8-24.1-26.5-23.7c-7,0.2-15.2,16.5-10.3,27.2c9.7,20.9,39.6,32.5,43.8,33.9
		c15.3,4.9,17.6,5.5,26.4,5.9H233c-12.5,42.7-26.8,92.3-73.5,192c-4.6,9.1-4.6,10.3-4.6,13.7c0,12,10.3,14.8,15.4,14.8
		c16.5,0,21.1-14.8,27.9-38.7c9.1-29.1,9.1-30.2,14.8-53L246.1,159.4"/>
	<path d="M243.9,151.4c2.8,0,1,0.1,6.8,0c5.2-0.1,6.2-0.1,7.9-0.2l-0.1-3.1c-1.8,0.1-4.7,0.2-7.4,0.2c-1.9,0-4.3,0-7.3,0"/>
</g>
</svg>
