<?xml version="1.0" encoding="utf-8"?>
<!-- Generator: Adobe Illustrator 22.1.0, SVG Export Plug-In . SVG Version: 6.00 Build 0)  -->
<svg version="1.0" id="Layer_1" xmlns="http://www.w3.org/2000/svg" xmlns:xlink="http://www.w3.org/1999/xlink" x="0px" y="0px"
	 viewBox="0 0 480 480" style="enable-background:new 0 0 480 480;" xml:space="preserve">
<style type="text/css">
	.st0{fill:#FFFFFF;}
	.st1{fill:#0C7F99;}
</style>
<g>
	<g>
		<path class="st0" d="M234.1,120.8c0,2.9-1.4,5.5-3.7,7.7l-30.4,0.2c-2.6-2.1-4-5-4-8c0-7.2,9.2-12.6,19.4-14.1
			C226.1,105.2,234.1,113.6,234.1,120.8z"/>
		<path class="st0" d="M289.1,117.5c0,4.1-1.4,7.9-3.7,11l-30.4,0.3c-2.6-3-4-7-4-11.3c0-10.2,10.3-17,20-18.3
			C283.7,97.5,289.1,107.3,289.1,117.5z"/>
		<path d="M221.5,109.2c-1.3,0.1-2.3,1.1-2.3,2.4s1.1,2.4,2.4,2.4c1.3,0,2.4-1.1,2.4-2.4S222.9,109.2,221.5,109.2L221.5,109.2l2.9-1
			c4.3,0,7.7,3.5,7.7,7.7s-3.5,7.7-7.7,7.7s-7.7-3.5-7.7-7.7s3.5-7.7,7.7-7.7"/>
		<path d="M277.5,102.2c-1.3,0.1-2.3,1.1-2.3,2.4s1.1,2.4,2.4,2.4s2.4-1.1,2.4-2.4s-1.1-2.4-2.4-2.4H277.5l2.9-1
			c4.3,0,7.7,3.5,7.7,7.7s-3.5,7.7-7.7,7.7s-7.7-3.5-7.7-7.7s3.5-7.7,7.7-7.7"/>
		<path class="st1" d="M211.3,156.9h64.4c-15.4,63.8-25.1,105.4-25.1,151c0,8,0,69.5,23.4,69.5c12,0,22.2-10.8,22.2-20.5
			c0-2.8,0-4-4-12.5c-15.4-39.3-15.4-88.3-15.4-92.3c0-3.4,0-43.9,12-95.1l69.2-1c13.8-0.4,6.3-17,28.6-41.5
			c27.9-21.1-19.5-10.4-38.2,10c-6.3,6.9-178.1,2.7-178.1,2.7c-13.1,0-15.7,0.1-20.9-0.1c-6.1-1.6-11.4-4.8-17.1-11.4
			c-5-5.8-9.4-13.4-19.5-10.3C99,109.5,127.3,137,132.4,142c9.9,8.1,18.7,14.4,33.3,15h32.5c-12.5,42.7-26.8,92.3-73.5,192
			c-4.6,9.1-4.6,10.3-4.6,13.7c0,12,10.3,14.8,15.4,14.8c16.5,0,21.1-14.8,27.9-38.7c9.1-29.1,9.1-30.2,14.8-53L211.3,156.9"/>
		<path d="M209.1,147.8c0,0.9,0.3,0.6,6.8,0.5c6-0.2,10.5,1.7,11.8,0l1.9-4c-6.8,1.7-5.4,1-12.3-0.3c-6.5-1.6-7,0.2-8,0.4"/>
	</g>
</g>
</svg>
