<?xml version="1.0" encoding="utf-8"?>
<!-- Generator: Adobe Illustrator 22.1.0, SVG Export Plug-In . SVG Version: 6.00 Build 0)  -->
<svg version="1.0" id="Layer_1" xmlns="http://www.w3.org/2000/svg" xmlns:xlink="http://www.w3.org/1999/xlink" x="0px" y="0px"
	 viewBox="0 0 480 480" style="enable-background:new 0 0 480 480;" xml:space="preserve">
<style type="text/css">
	.st0{fill:#FFFFFF;}
	.st1{fill:#0C7F99;}
</style>
<path class="st0" d="M210,114.7c0.4,4.2-0.7,8.2-2.8,11.3l-30.4,0.3c-2.9-3.1-4.6-7.3-5-11.6c-0.9-10.5,7.4-16.6,17.4-19
	C199.2,93.1,209,104.2,210,114.7z"/>
<path class="st0" d="M265,114.7c0.4,4.2-0.7,8.2-2.8,11.3l-30.4,0.3c-2.9-3.1-4.6-7.3-5-11.6c-0.9-10.5,6.9-21.5,17.4-19
	C255.8,98.4,264,104.2,265,114.7z"/>
<path d="M194.4,103.8c-1.3,0.1-2.2,1.1-2.1,2.4c0.1,1.3,1.3,2.4,2.7,2.4c1.3,0,2.3-1.1,2.2-2.4c-0.1-1.3-1.3-2.4-2.7-2.4
	C194.5,103.8,194.4,103.8,194.4,103.8l2.8-1c4.3,0,8,3.5,8.4,7.7s-2.8,7.7-7,7.7c-4.3,0-8-3.5-8.4-7.7c-0.4-4.3,2.8-7.7,7-7.7"/>
<path d="M248.4,103.8c-1.3,0.1-2.2,1.1-2.1,2.4c0.1,1.3,1.3,2.4,2.7,2.4c1.3,0,2.3-1.1,2.2-2.4c-0.1-1.3-1.3-2.4-2.7-2.4
	C248.5,103.8,248.4,103.8,248.4,103.8l2.8-1c4.3,0,8,3.5,8.4,7.7s-2.8,7.7-7,7.7c-4.3,0-8-3.5-8.4-7.7c-0.4-4.3,2.8-7.7,7-7.7"/>
<path class="st1" d="M195.1,156.6h64.4c-4.2,63.8-6.6,105.4,1.3,151c1.4,8,12.2,69.5,35.5,69.5c12,0,20.3-10.8,18.6-20.5
	c-0.5-2.8-0.7-4-6.2-12.5c-22.3-39.3-30.8-88.3-31.5-92.3c-0.6-3.4-7.7-43.9-4.7-95.1h63.8c7.4,0,22.1-2.7,19-20.9
	c-6-34.6-25.3-9.6-35.5-9.6l-171.1-0.3c-13.1,0-41.1,4.3-53-14.3c-12.9-20.1-21.9,1.8-21.3,5.2c0.6,3.4,1,12.5,6.9,18.8
	c4.1,4.4,12,9.4,16.3,11.4c21.7,10.2,37.8,9.6,52,9.6H182c-5.1,42.7-10.6,92.3-39.9,192c-3,9.1-2.8,10.3-2.2,13.7
	c2.1,12,12.8,14.8,18,14.8c16.5,0,18.5-14.8,21.1-38.7c4-29.1,3.8-30.2,5.5-53L195.1,156.6"/>
<path d="M205,149.5c3.8-0.7,3.2-0.4,14.8-0.5c10.3-0.1,10.2-1.2,14.4,0.3c0,0-1.4-4.1-1.4-4.1c-4.1-1.7-9.4-3.4-14.8-3.4
	c-3.9,0-8.4,1.1-13.6,3.2"/>
</svg>
