<?xml version="1.0" encoding="utf-8"?>
<!-- Generator: Adobe Illustrator 19.1.0, SVG Export Plug-In . SVG Version: 6.00 Build 0)  -->
<svg version="1.1" id="Layer_1" xmlns="http://www.w3.org/2000/svg" xmlns:xlink="http://www.w3.org/1999/xlink" x="0px" y="0px"
	 viewBox="0 0 480 480" style="enable-background:new 0 0 480 480;" xml:space="preserve">
<style type="text/css">
	.st0{fill:#FFFFFF;}
	.st1{fill:#0C7F99;}
</style>
<path class="st0" d="M249.6,107.7c0.2,4.2-1.4,8.2-3.7,11.3l-30.4,0.3c-2.6-3.1-4-7.3-4-11.6c0-10.5,9.2-13.2,18.6-10.9
	C245.1,100.5,249.3,100.7,249.6,107.7z"/>
<path class="st0" d="M304.6,107.7c0,4.2-1.4,8.2-3.7,11.3l-30.4,0.3c-2.6-3.1-4.2-7.3-4-11.6c0.4-7.1,9.4-7.4,17.7-11.4
	C293.6,91.9,304.6,97.2,304.6,107.7z"/>
<path d="M239.7,102.4c-1.5,0.1-2.6,1.5-2.2,3.1c0.2,0.8,0.9,1.5,1.7,1.7c1.8,0.5,3.4-1.1,3-3c-0.2-0.9-0.9-1.6-1.8-1.8
	C240.2,102.4,240,102.4,239.7,102.4l2.9-1c4.8,0,8.5,4.3,7.6,9.3c-0.6,3-3,5.4-6,6c-4.9,1-9.3-2.8-9.3-7.6c0-4.3,3.5-7.7,7.7-7.7"/>
<path d="M295,101.8c-1.3,0.1-2.3,1.1-2.3,2.4c0,1.3,1.1,2.4,2.4,2.4s2.4-1.1,2.4-2.4c0-1.3-1.1-2.4-2.4-2.4
	C295.1,101.8,295,101.8,295,101.8l2.9-1c4.3,0,7.7,3.5,7.7,7.7s-3.5,7.7-7.7,7.7s-7.7-3.5-7.7-7.7s3.5-7.7,7.7-7.7"/>
<path class="st1" d="M226.4,150.1h64.4c-15.4,63.8-25.1,105.4-25.1,151c0,8,0,69.5,23.4,69.5c12,0,22.2-10.8,22.2-20.5
	c0-2.8,0-4-4-12.5c-15.4-39.3-15.4-88.3-15.4-92.3c0-3.4,0-43.9,12-95.1h33.8c7.4,0,23.5,12.1,23.5-6.1c0-12.5-8.2-24.7-18.4-24.7
	H185.4c-13.1,0-28.3,12.9-29.9,35.4c-1.1,15.3,6.3,30.2,29.6,30.6c22.6,0.4,40.1-6.4,60.9-14.6c3.7-1.5,10.9-14.3,7.3-11.7
	c-15.1,11.2-70.6,12.2-72.5-8.9h32.5c-12.5,42.7-26.8,92.3-73.5,192c-4.6,9.1-4.6,10.3-4.6,13.7c0,12,10.3,14.8,15.4,14.8
	c16.5,0,21.1-14.8,27.9-38.7c9.1-29.1,9.1-30.2,14.8-53L226.4,150.1"/>
<path d="M229.3,141.1c2,0,4.6-0.1,6.5-0.1c2.3,0,10.4,0,13.7-0.1c0,0-0.3-3.1-0.3-3.1c-3.7,0.1-12.7-0.9-16.6-3.3
	c-3.3-2-3.8,2.4-3.7,3.4"/>
</svg>
