<?xml version="1.0" encoding="utf-8"?>
<!-- Generator: Adobe Illustrator 22.1.0, SVG Export Plug-In . SVG Version: 6.00 Build 0)  -->
<svg version="1.0" id="Layer_1" xmlns="http://www.w3.org/2000/svg" xmlns:xlink="http://www.w3.org/1999/xlink" x="0px" y="0px"
	 viewBox="0 0 480 480" style="enable-background:new 0 0 480 480;" xml:space="preserve">
<style type="text/css">
	.st0{fill:#FFFFFF;}
	.st1{fill:#0C7F99;}
</style>
<g>
	<path class="st0" d="M241.3,124.1c0,4-1.4,7.6-3.7,10.6l-30.4,0.3c-2.6-2.9-4-6.8-4-10.9c0-9.8,8.6-16.8,19.1-18.1
		C233,104.6,241.3,114.2,241.3,124.1z"/>
	<path class="st0" d="M296.3,123.7c0,4.1-1.4,7.9-3.7,11l-30.4,0.3c-2.6-3-4-7-4-11.3c0-10.2,10.3-17,20-18.3
		C290.9,103.7,296.3,113.5,296.3,123.7z"/>
	<path d="M214.7,108.4c-1.3,0.1-2.3,1.1-2.3,2.4s1.1,2.4,2.4,2.4c1.3,0,2.4-1.1,2.4-2.4S216.1,108.4,214.7,108.4L214.7,108.4l2.9-1
		c4.3,0,7.7,3.5,7.7,7.7s-3.5,7.7-7.7,7.7s-7.7-3.5-7.7-7.7s3.5-7.7,7.7-7.7"/>
	<path d="M268.7,108.4c-1.3,0.1-2.3,1.1-2.3,2.4s1.1,2.4,2.4,2.4s2.4-1.1,2.4-2.4s-1.1-2.4-2.4-2.4H268.7l2.9-1
		c4.3,0,7.7,3.5,7.7,7.7s-3.5,7.7-7.7,7.7s-7.7-3.5-7.7-7.7s3.5-7.7,7.7-7.7"/>
	<path class="st1" d="M218.5,164.1h64.4c-15.4,63.8-25.1,105.4-25.1,151c0,8,0,69.5,23.4,69.5c12,0,22.2-10.8,22.2-20.5
		c0-2.8,0-4-4-12.5C284,312.3,284,263.3,284,259.3c0-3.4,0-43.9,12-95.1l69.2-1c13.8-0.4,6.3-17,28.6-41.5
		c27.9-21.1-19.5-10.4-38.2,10c-6.3,6.9-178.1,1.7-178.1,1.7c-13.1,0-15.6-0.5-21.5-6.7c-10.2-10.8-6.7-6.2-12.4-12.8
		c-5-5.8-24.5-7.4-34.6-4.3c-13.8,4.1,17,9.8,20.8,17.2c5.8,12.2,28.5,36.8,43.1,37.4h32.5c-12.5,42.7-26.8,92.3-73.5,192
		c-4.6,9.1-4.6,10.3-4.6,13.7c0,12,10.3,14.8,15.4,14.8c16.5,0,21.1-14.8,27.9-38.7c9.1-29.1,9.1-30.2,14.8-53L218.5,164.1"/>
	<path d="M237.9,160.3c0.4,0.8,10.5,1.3,16.2-1.8c5.3-2.9,9.2-7.9,9.6-10l-0.3-5.3c-6.4,9.1-12.4,11.8-14.6,12.6
		c-4,1.5-11.5,0.7-12.3,1.3"/>
</g>
</svg>
