<?xml version="1.0" encoding="utf-8"?>
<!-- Generator: Adobe Illustrator 22.1.0, SVG Export Plug-In . SVG Version: 6.00 Build 0)  -->
<svg version="1.0" id="Layer_1" xmlns="http://www.w3.org/2000/svg" xmlns:xlink="http://www.w3.org/1999/xlink" x="0px" y="0px"
	 viewBox="0 0 480 480" style="enable-background:new 0 0 480 480;" xml:space="preserve">
<style type="text/css">
	.st0{fill:#FFFFFF;}
	.st1{fill:#0C7F99;}
</style>
<g>
	<path class="st0" d="M248.7,108.2c0,3.3-1.4,6.3-3.7,8.8l-30.4,0.2c-2.6-2.4-4-5.6-4-9c0-8.1,8.5-14.7,19-14.7
		C240.2,93.5,248.7,100.1,248.7,108.2z"/>
	<path class="st0" d="M303.7,105.6c0,4.2-1.4,8.2-3.7,11.3l-30.4,0.3c-2.6-3.1-4-7.3-4-11.6c0-10.5,8.5-19,19-19
		C295.2,86.5,303.7,95.1,303.7,105.6z"/>
	<path d="M236.1,96.7c-1.3,0.1-2.3,1.1-2.3,2.4s1.1,2.4,2.4,2.4c1.3,0,2.4-1.1,2.4-2.4S237.5,96.7,236.1,96.7L236.1,96.7l2.9-1
		c4.3,0,7.7,3.5,7.7,7.7s-3.5,7.7-7.7,7.7s-7.7-3.5-7.7-7.7s3.5-7.7,7.7-7.7"/>
	<path d="M293.1,94.7c-1.3,0.1-2.3,1.1-2.3,2.4s1.1,2.4,2.4,2.4s2.4-1.1,2.4-2.4s-1.1-2.4-2.4-2.4H293.1l2.9-1
		c4.3,0,7.7,3.5,7.7,7.7s-3.5,7.7-7.7,7.7s-7.7-3.5-7.7-7.7s3.5-7.7,7.7-7.7"/>
	<path class="st1" d="M224.9,148.1h64.4c-15.4,63.8-25.1,105.4-25.1,151c0,8,0,69.5,23.4,69.5c12,0,22.2-10.8,22.2-20.5
		c0-2.8,0-4-4-12.5c-15.4-39.3-15.4-88.3-15.4-92.3c0-3.4,0-43.9,12-95.1h63.8c7.4,0,28.6-15.5,28.6-33.8c0-12.5-13.3,3-23.5,3
		c0,0-173.2-5.5-198.7,6.4c-12.1,5.7-19.6,10.5-42.5,41.1c-12.5,16.7-19,41-19,44.5c0,3.4,2.8,4.6,6.3,4.6c4,0,5.6-1,7.4-5.1
		c14.7-34.2,40.2-60.7,54.5-60.7h32.5c-12.5,42.7-26.8,92.3-73.5,192c-4.6,9.1-4.6,10.3-4.6,13.7c0,12,10.3,14.8,15.4,14.8
		c16.5,0,21.1-14.8,27.9-38.7c9.1-29.1,9.1-30.2,14.8-53L224.9,148.1"/>
	<path d="M227.3,140c0,0.7,0.2,0.7,1.6,1.1c2.9,0.9,10.5-1.2,12.1-1.3l-0.1-3.8c-1.7,0.1-8-1.3-10.6-1.3c-1.8,0-2.2,0.1-3.2,1.5"/>
</g>
</svg>
