<?xml version="1.0" encoding="utf-8"?>
<!-- Generator: Adobe Illustrator 19.1.0, SVG Export Plug-In . SVG Version: 6.00 Build 0)  -->
<svg version="1.1" id="Layer_1" xmlns="http://www.w3.org/2000/svg" xmlns:xlink="http://www.w3.org/1999/xlink" x="0px" y="0px"
	 viewBox="0 0 480 480" style="enable-background:new 0 0 480 480;" xml:space="preserve">
<style type="text/css">
	.st0{fill:#FFFFFF;}
	.st1{fill:#0C7F99;}
</style>
<path class="st0" d="M245.6,126.9c0,2.1-1.4,4.1-3.7,5.6l-29.6,1.5c-2.6-1.5-4.7-5-4.7-7.2c0-5.2,8.5-9.5,19-9.5
	C237.1,117.5,245.6,121.7,245.6,126.9z"/>
<path class="st0" d="M300.6,126.9c0,2.1-1.4,4.1-3.7,5.6l-30.4,0.1c-2.6-1.5-4-3.6-4-5.8c0-5.2,8.5-9.5,19-9.5
	C292.1,117.5,300.6,121.7,300.6,126.9z"/>
<path d="M232,120.4c-1.3,0.1-2.3,0.9-2.3,2c0,1.1,1.1,2,2.4,2c1.3,0,2.4-0.9,2.4-2s-1.1-2-2.4-2C232.1,120.4,232,120.4,232,120.4
	l2.9-0.8c4.3,0,7.7,2.8,7.7,6.2c0,3.4-3.5,6.2-7.7,6.2s-7.7-2.8-7.7-6.2c0-3.4,3.5-6.2,7.7-6.2"/>
<path d="M288,120.4c-1.3,0.1-2.3,0.9-2.3,2c0,1.1,1.1,2,2.4,2s2.4-0.9,2.4-2s-1.1-2-2.4-2C288.1,120.4,288,120.4,288,120.4l2.9-0.8
	c4.3,0,7.7,2.8,7.7,6.2c0,3.4-3.5,6.2-7.7,6.2s-7.7-2.8-7.7-6.2c0-3.4,3.5-6.2,7.7-6.2"/>
<path class="st1" d="M223.4,162.1h64.4c-15.4,63.8-25.1,105.4-25.1,151c0,8,0,69.5,23.4,69.5c12,0,22.2-10.8,22.2-20.5
	c0-2.8,0-4-4-12.5c-15.4-39.3-15.4-88.3-15.4-92.3c0-3.4,0-43.9,12-95.1l63.8,19c7.4,0,26.7,0,26.2-18.2
	c-0.3-11.1-15.3-13.6-28.3-16.7c-26-6.3-107.9-32.1-184.8-0.7c-10.5,4.3-26.4,5.6-54.1,33.8c-15.6,15.8-33,46.7-33,50.1
	s2.8,4.6,6.3,4.6c4,0,4.6-1.7,7.4-5.1c29.6-46.7,59.9-55.4,74.9-59.6l31.1-7.1c-12.5,42.7-26.8,92.3-73.5,192
	c-4.6,9.1-4.6,10.3-4.6,13.7c0,12,10.3,14.8,15.4,14.8c16.5,0,21.1-14.8,27.9-38.7c9.1-29.1,9.1-30.2,14.8-53L223.4,162.1"/>
<path d="M251.9,154.1c2.2,0,0.8,0.1,5.4,0c4.1-0.1,4.9-0.1,6.2-0.2c0,0-0.1-3.1-0.1-3.1c-1.5,0.1-3.7,0.2-5.9,0.2
	c-1.5,0-3.4,0-5.8,0"/>
</svg>
