<?xml version="1.0" encoding="utf-8"?>
<!-- Generator: Adobe Illustrator 19.1.0, SVG Export Plug-In . SVG Version: 6.00 Build 0)  -->
<svg version="1.1" id="Layer_1" xmlns="http://www.w3.org/2000/svg" xmlns:xlink="http://www.w3.org/1999/xlink" x="0px" y="0px"
	 viewBox="0 0 480 480" style="enable-background:new 0 0 480 480;" xml:space="preserve">
<style type="text/css">
	.st0{fill:#FFFFFF;}
	.st1{fill:#0C7F99;}
</style>
<path class="st0" d="M216.6-1610.3c0,4.2-1.4,8.2-3.7,11.3l-30.4,0.3c-2.6-3.1-4-7.3-4-11.6c0-10.5,8.5-19,19-19
	C208.1-1629.4,216.6-1620.8,216.6-1610.3z"/>
<path class="st0" d="M271.6-1610.3c0,4.2-1.4,8.2-3.7,11.3l-30.4,0.3c-2.6-3.1-4-7.3-4-11.6c0-10.5,8.5-19,19-19
	C263.1-1629.4,271.6-1620.8,271.6-1610.3z"/>
<path class="st0" d="M-338.4-1606.3c0,4.2-1.4,8.2-3.7,11.3l-30.4,0.3c-2.6-3.1-4-7.3-4-11.6c0-10.5,8.5-19,19-19
	C-346.9-1625.4-338.4-1616.8-338.4-1606.3z"/>
<path class="st0" d="M-283.4-1606.3c0,4.2-1.4,8.2-3.7,11.3l-30.4,0.3c-2.6-3.1-4-7.3-4-11.6c0-10.5,8.5-19,19-19
	C-291.9-1625.4-283.4-1616.8-283.4-1606.3z"/>
<path class="st0" d="M787.6-1598.3c0,4.2-1.4,8.2-3.7,11.3l-30.4,0.3c-2.6-3.1-4-7.3-4-11.6c0-10.5,9.5-15.3,19.9-13.8
	C781.1-1610.5,787.6-1608.8,787.6-1598.3z"/>
<path class="st0" d="M842.6-1598.3c0,4.2-1.4,8.2-3.7,11.3l-30.4,0.3c-2.6-3.1-4-7.3-4-11.6c0-10.5,8.5-19,19-19
	S842.6-1608.8,842.6-1598.3z"/>
<path d="M773-1610.2c-1.3,0.1-2.3,1.1-2.3,2.4c0,1.3,1.1,2.4,2.4,2.4s2.4-1.1,2.4-2.4c0-1.3-1.1-2.4-2.4-2.4
	C773.1-1610.2,773-1610.2,773-1610.2l2.9-1c4.3,0,7.7,3.5,7.7,7.7c0,4.3-3.5,7.7-7.7,7.7s-7.7-3.5-7.7-7.7c0-4.3,3.5-7.7,7.7-7.7"/>
<path d="M829-1613.2c-1.3,0.1-2.3,1.1-2.3,2.4c0,1.3,1.1,2.4,2.4,2.4s2.4-1.1,2.4-2.4c0-1.3-1.1-2.4-2.4-2.4
	C829.1-1613.2,829-1613.2,829-1613.2l2.9-1c4.3,0,7.7,3.5,7.7,7.7c0,4.3-3.5,7.7-7.7,7.7s-7.7-3.5-7.7-7.7c0-4.3,3.5-7.7,7.7-7.7"/>
<path d="M-352-1621.2c-1.3,0.1-2.3,1.1-2.3,2.4c0,1.3,1.1,2.4,2.4,2.4s2.4-1.1,2.4-2.4c0-1.3-1.1-2.4-2.4-2.4
	C-351.9-1621.2-352-1621.2-352-1621.2l2.9-1c4.3,0,7.7,3.5,7.7,7.7c0,4.3-3.5,7.7-7.7,7.7s-7.7-3.5-7.7-7.7c0-4.3,3.5-7.7,7.7-7.7"
	/>
<path d="M-297-1621.2c-1.3,0.1-2.3,1.1-2.3,2.4c0,1.3,1.1,2.4,2.4,2.4s2.4-1.1,2.4-2.4c0-1.3-1.1-2.4-2.4-2.4
	C-296.9-1621.2-297-1621.2-297-1621.2l2.9-1c4.3,0,7.7,3.5,7.7,7.7c0,4.3-3.5,7.7-7.7,7.7s-7.7-3.5-7.7-7.7c0-4.3,3.5-7.7,7.7-7.7"
	/>
<path d="M203-1625.2c-1.3,0.1-2.3,1.1-2.3,2.4c0,1.3,1.1,2.4,2.4,2.4c1.3,0,2.4-1.1,2.4-2.4c0-1.3-1.1-2.4-2.4-2.4
	C203.1-1625.2,203-1625.2,203-1625.2l2.9-1c4.3,0,7.7,3.5,7.7,7.7c0,4.3-3.5,7.7-7.7,7.7s-7.7-3.5-7.7-7.7c0-4.3,3.5-7.7,7.7-7.7"/>
<path d="M258-1625.2c-1.3,0.1-2.3,1.1-2.3,2.4c0,1.3,1.1,2.4,2.4,2.4s2.4-1.1,2.4-2.4c0-1.3-1.1-2.4-2.4-2.4
	C258.1-1625.2,258-1625.2,258-1625.2l2.9-1c4.3,0,7.7,3.5,7.7,7.7c0,4.3-3.5,7.7-7.7,7.7s-7.7-3.5-7.7-7.7c0-4.3,3.5-7.7,7.7-7.7"/>
<path class="st1" d="M-361.6-1563.9h64.4c-15.4,63.8-25.1,105.4-25.1,151c0,8,0,69.5,23.4,69.5c12,0,22.2-10.8,22.2-20.5
	c0-2.8,0-4-4-12.5c-15.4-39.3-15.4-88.3-15.4-92.3c0-3.4,0-43.9,12-95.1h63.8c7.4,0,26.2,0,26.2-18.2c0-12.5-10.8-12.5-21.1-12.5
	h-187.4c-13.1,0-32.5,0-58.7,27.9c-14.8,16.5-33,46.7-33,50.1s2.8,4.6,6.3,4.6c4,0,4.6-1.7,7.4-5.1c29.6-46.7,59.2-46.7,73.5-46.7
	h32.5c-12.5,42.7-26.8,92.3-73.5,192c-4.6,9.1-4.6,10.3-4.6,13.7c0,12,10.3,14.8,15.4,14.8c16.5,0,21.1-14.8,27.9-38.7
	c9.1-29.1,9.1-30.2,14.8-53L-361.6-1563.9"/>
<path class="st1" d="M764.4-1555.9h64.4c-10.7,64.1-2.1,91.6-4.1,131c-1.3,26.6-32.2,68.1-13.1,81.5c5.5,3.9,6.4,3.4,14.1,2.2
	c5.7-0.9,8.9-2.2,10.6-12.2c5.1-29.9,14.1-51.3,13.3-84.8c-0.4-19.6-19.7-66.3-7.8-117.6h63.8c7.4,0,26-11.6,26-29.8
	c0-12.5-10.7-1-20.9-1H723.4c-13.1,0-40.2,18.8-47.3,40.2c-5.7,17.2,28.5,34.3,31.8,37.3c2.5,2.3,9.7,5,13.1,5c4,0,11-2.6,7.4-5.1
	c-31.6-22.4-34.4-47.8-9.5-46.7h32.5c-12.5,42.7-5.4,92.1-30,188.6c-2.5,9.9-2.8,19.8-2.8,23.2c0,12,18.1,7,23.2,7
	c16.5,0,10.9-17.6,12-23.9c2.8-16.2,1.3-31.5,3.3-57.3L764.4-1555.9"/>
<path class="st1" d="M193.4-1567.9h64.4c-15.4,63.8-25.1,105.4-25.1,151c0,8,0,69.5,23.4,69.5c12,0,22.2-10.8,22.2-20.5
	c0-2.8,0-4-4-12.5c-15.4-39.3-15.4-88.3-15.4-92.3c0-3.4,0-43.9,12-95.1h63.8c7.4,0,26.2,0,26.2-18.2c0-12.5-10.8-12.5-21.1-12.5
	H152.4c-13.1,0-32.5,0-58.7,27.9c-14.8,16.5-33,46.7-33,50.1s2.8,4.6,6.3,4.6c4,0,4.6-1.7,7.4-5.1c29.6-46.7,59.2-46.7,73.5-46.7
	h32.5c-12.5,42.7-26.8,92.3-73.5,192c-4.6,9.1-4.6,10.3-4.6,13.7c0,12,10.3,14.8,15.4,14.8c16.5,0,21.1-14.8,27.9-38.7
	c9.1-29.1,9.1-30.2,14.8-53L193.4-1567.9"/>
<path d="M782.2-1564.3c2.5,1.2,1.8-0.5,6.1-0.2c9,0.5,8.1,0.3,15.5,2.3c0,0,0-2.5,0-2.5c-3.1-1-9-5.4-16.1-5.5
	c-4-0.1-5.1,2.2-5.8,2.9"/>
<path d="M-343.7-1571.9c5.5,0,1.9,0.1,13.5,0c10.3-0.1,12.4-0.1,15.7-0.2c0,0-0.3-3.1-0.3-3.1c-3.7,0.1-9.3,0.2-14.7,0.2
	c-3.9,0-8.5,0-14.6,0"/>
<path d="M204.8-1583.7c4.9,3.3,8.9,8.3,20.5,8.2c14.7,0,16.2-6.9,16.3-7.3c0,0-0.3-1.9-0.3-1.9c-2.3,1.1-3.1,5.7-15.8,5.5
	c-10.2-0.2-13.6-2.4-19.6-6.1"/>
<path class="st0" d="M-352.4-1028.3c0,4.2-1.4,8.2-3.7,11.3l-30.4,0.3c-2.6-3.1-4-7.3-4-11.6c0-10.5,8.9-11,18.6-10.9
	C-361.2-1039-352.4-1038.8-352.4-1028.3z"/>
<path class="st0" d="M-297.4-1028.3c0,4.2-1.4,8.2-3.7,11.3l-30.4,0.3c-2.6-3.1-4-7.3-4-11.6c0-10.5,8-11.4,17.7-11.4
	C-307.4-1039.6-297.4-1038.8-297.4-1028.3z"/>
<path d="M-363.3-1029.6c-1.5,0.1-2.6,1.5-2.2,3.1c0.2,0.8,0.9,1.5,1.7,1.7c1.8,0.5,3.4-1.1,3-3c-0.2-0.9-0.9-1.6-1.8-1.8
	C-362.8-1029.6-363-1029.6-363.3-1029.6l2.9-1c4.8,0,8.5,4.3,7.6,9.3c-0.6,3-3,5.4-6,6c-4.9,1-9.3-2.8-9.3-7.6
	c0-4.3,3.5-7.7,7.7-7.7"/>
<path d="M-308-1030.2c-1.3,0.1-2.3,1.1-2.3,2.4c0,1.3,1.1,2.4,2.4,2.4s2.4-1.1,2.4-2.4c0-1.3-1.1-2.4-2.4-2.4
	C-307.9-1030.2-308-1030.2-308-1030.2l2.9-1c4.3,0,7.7,3.5,7.7,7.7c0,4.3-3.5,7.7-7.7,7.7s-7.7-3.5-7.7-7.7c0-4.3,3.5-7.7,7.7-7.7"
	/>
<path class="st1" d="M-375.6-985.9h64.4c-15.4,63.8-25.1,105.4-25.1,151c0,8,0,69.5,23.4,69.5c12,0,22.2-10.8,22.2-20.5
	c0-2.8,0-4-4-12.5c-15.4-39.3-15.4-88.3-15.4-92.3c0-3.4,0-43.9,12-95.1h33.8c7.4,0,23.5,13.1,23.5-5.1c0-12.5-8.2-25.7-18.4-25.7
	h-157.4c-13.1,0-28.3,12.9-29.9,35.4c-1.1,15.3,6.3,30.2,29.6,30.6c22.6,0.4,37.1-6.4,57.9-14.6c3.7-1.5,10.9-14.3,7.3-11.7
	c-15.1,11.2-67.6,12.2-69.5-8.9h32.5c-12.5,42.7-26.8,92.3-73.5,192c-4.6,9.1-4.6,10.3-4.6,13.7c0,12,10.3,14.8,15.4,14.8
	c16.5,0,21.1-14.8,27.9-38.7c9.1-29.1,9.1-30.2,14.8-53L-375.6-985.9"/>
<path d="M-372.7-993.9c5.5,0,1.9,0.1,13.5,0c10.3-0.1,0.4-0.1,3.7-0.2c0,0-0.3-3.1-0.3-3.1c-3.7,0.1,2.7,0.2-2.7,0.2
	c-3.9,0-8.5,0-14.6,0"/>
<path class="st0" d="M223.6-1033.3c0,4.2-1.4,8.2-3.7,11.3l-30.4,0.3c-2.6-3.1-4-7.3-4-11.6c0-10.5,8.5-19,19-19
	C215.1-1052.4,223.6-1043.8,223.6-1033.3z"/>
<path class="st0" d="M278.6-1033.3c0,4.2-1.4,8.2-3.7,11.3l-30.4,0.3c-2.6-3.1-4-7.3-4-11.6c0-10.5,8.5-19,19-19
	C270.1-1052.4,278.6-1043.8,278.6-1033.3z"/>
<path d="M209-1044.2c-1.3,0.1-2.3,1.1-2.3,2.4c0,1.3,1.1,2.4,2.4,2.4c1.3,0,2.4-1.1,2.4-2.4c0-1.3-1.1-2.4-2.4-2.4
	C209.1-1044.2,209-1044.2,209-1044.2l2.9-1c4.3,0,7.7,3.5,7.7,7.7c0,4.3-3.5,7.7-7.7,7.7s-7.7-3.5-7.7-7.7c0-4.3,3.5-7.7,7.7-7.7"/>
<path d="M263-1044.2c-1.3,0.1-2.3,1.1-2.3,2.4c0,1.3,1.1,2.4,2.4,2.4s2.4-1.1,2.4-2.4c0-1.3-1.1-2.4-2.4-2.4
	C263.1-1044.2,263-1044.2,263-1044.2l2.9-1c4.3,0,7.7,3.5,7.7,7.7c0,4.3-3.5,7.7-7.7,7.7s-7.7-3.5-7.7-7.7c0-4.3,3.5-7.7,7.7-7.7"/>
<path class="st1" d="M201.4-991.4h64.4c-15.4,63.8-25.1,105.4-25.1,151c0,8,0,69.5,23.4,69.5c12,0,22.2-10.8,22.2-20.5
	c0-2.8,0-4-4-12.5c-15.4-39.3-15.4-88.3-15.4-92.3c0-3.4,0-43.9,12-95.1h63.8c7.4,0,22.6-2.7,22.7-20.9c0.1-34.6-23.6-9.6-33.9-9.6
	l-171.1-0.3c-13.1,0-41.8,4.3-50.5-14.3c-9.4-20.1-22.3,1.8-22.3,5.2c0,3.4-1.2,12.5,3.6,18.8c3.3,4.4,10.3,9.4,14.3,11.4
	c19.9,10.2,36.1,9.6,50.3,9.6h32.5c-12.5,42.7-26.8,92.3-73.5,192c-4.6,9.1-4.6,10.3-4.6,13.7c0,12,10.3,14.8,15.4,14.8
	c16.5,0,21.1-14.8,27.9-38.7c9.1-29.1,9.1-30.2,14.8-53L201.4-991.4"/>
<path d="M217.3-997.5c5.1,2.4,3.8,4.2,15.4,4.1c10.3-0.1,10.8-2.2,13.8-4.3c0,0-0.7-4.1-0.7-4.1c-4-0.8-8.7-1.8-14.1-1.8
	c-3.9,0-8,0.4-14.3,1.6"/>
<path class="st0" d="M1359.6-1590.3c0,4.2-1.4,8.2-3.7,11.3l-30.4,0.3c-2.6-3.1-4-7.3-4-11.6c0-10.5,8.5-19,19-19
	S1359.6-1600.8,1359.6-1590.3z"/>
<path class="st0" d="M1414.6-1590.3c0,4.2-1.4,8.2-3.7,11.3l-30.4,0.3c-2.6-3.1-4-7.3-4-11.6c0-10.5,8.5-19,19-19
	S1414.6-1600.8,1414.6-1590.3z"/>
<path d="M1346-1605.2c-1.3,0.1-2.3,1.1-2.3,2.4c0,1.3,1.1,2.4,2.4,2.4c1.3,0,2.4-1.1,2.4-2.4c0-1.3-1.1-2.4-2.4-2.4
	C1346.1-1605.2,1346-1605.2,1346-1605.2l2.9-1c4.3,0,7.7,3.5,7.7,7.7c0,4.3-3.5,7.7-7.7,7.7s-7.7-3.5-7.7-7.7c0-4.3,3.5-7.7,7.7-7.7
	"/>
<path d="M1401-1605.2c-1.3,0.1-2.3,1.1-2.3,2.4c0,1.3,1.1,2.4,2.4,2.4c1.3,0,2.4-1.1,2.4-2.4c0-1.3-1.1-2.4-2.4-2.4
	C1401.1-1605.2,1401-1605.2,1401-1605.2l2.9-1c4.3,0,7.7,3.5,7.7,7.7c0,4.3-3.5,7.7-7.7,7.7s-7.7-3.5-7.7-7.7c0-4.3,3.5-7.7,7.7-7.7
	"/>
<path class="st1" d="M1336.4-1547.9h64.4c-15.4,63.8-25.1,105.4-25.1,151c0,8,0,69.5,23.4,69.5c12,0,22.2-10.8,22.2-20.5
	c0-2.8,0-4-4-12.5c-15.4-39.3-15.4-88.3-15.4-92.3c0-3.4,0-43.9,12-95.1l69.2-1c13.8-0.4,26.6-20.9,26.6-39.2
	c0-12.5-16.9,10.1-44,10.1l-170.3-0.7c-13.1,0-32.5,0-58.7,27.9c-14.8,16.5-14,46.7-14,50.1s2.8,4.6,6.3,4.6c4,0,6.7-0.7,7.4-5.1
	c8-47.3,40.2-46.7,54.5-46.7h32.5c-12.5,42.7-26.8,92.3-73.5,192c-4.6,9.1-4.6,10.3-4.6,13.7c0,12,10.3,14.8,15.4,14.8
	c16.5,0,21.1-14.8,27.9-38.7c9.1-29.1,9.1-30.2,14.8-53L1336.4-1547.9"/>
<path d="M1350.3-1557.7c-0.5,3.2-2.1,7.5,9.4,6.2c13.5-1.5,16.9-3.9,21.9-6.6c0,0-0.3-3.1-0.3-3.1c-3.7,0.1-11.5,0.7-16.7-0.4
	c-4.2-0.9-12.8-1-13.3,0.9"/>
<g>
	<path class="st0" d="M763.6-1025.8c0,3.3-1.4,6.4-3.7,8.8l-30.4,0.2c-2.6-2.4-4-5.6-4-9.1c0-8.2,9.5-19.3,19-14.8
		C754.4-1036,763.6-1034,763.6-1025.8z"/>
	<path class="st0" d="M818.6-1025.8c0,3.3-1.4,6.3-3.7,8.8l-30.4,0.2c-2.6-2.4-4-5.6-4-9c0-8.1,5.4-9.4,19-14.7
		C809.3-1044.4,818.6-1033.9,818.6-1025.8z"/>
	<path d="M750-1036.3c-1.3,0.1-2.3,0.8-2.3,1.8s1.1,1.8,2.4,1.8s2.4-0.8,2.4-1.8S751.4-1036.3,750-1036.3L750-1036.3l2.9-0.7
		c4.3,0,7.7,2.5,7.7,5.6s-3.5,5.6-7.7,5.6s-7.7-2.5-7.7-5.6s3.5-5.6,7.7-5.6"/>
	<path d="M806.9-1036.7c-1.3,0.1-2.3,0.8-2.3,1.7c0,1,1.1,1.7,2.4,1.7s2.4-0.8,2.4-1.7c0-1-1.1-1.7-2.4-1.7H806.9l2.2-0.5
		c0.6-0.2,1.2-0.2,1.9-0.1c3.7,0.4,6.6,2.7,6.6,5.5c0,3-3.5,5.5-7.7,5.5c-4.3,0-7.7-2.5-7.7-5.5s3.5-5.5,7.7-5.5"/>
	<path class="st1" d="M740.4-986h64.4c-15.4,63.8-25.1,105.4-25.1,151c0,8,0,69.5,23.4,69.5c12,0,22.2-10.8,22.2-20.5
		c0-2.8,0-4-4-12.5c-15.4-39.3-15.4-88.3-15.4-92.3c0-3.4,0-43.9,12-95.1l62.5-0.6c7.4,0,41.8-18.9,41.8-37.1c0-12.5-25.1,7-35.4,7
		H699.4c-13.3,0.6-17.7,1.5-46.6,1.4c-11.3,0-22.1-29.8-30.8-32.7c-6.4-2.2,3.1,30.8,8.6,40.2c2.9,4.9,12.5,10.2,16.8,11.5
		c27.1,8.3,33.2,10.5,47.4,10.5h32.5c-12.5,42.7-26.8,92.3-73.5,192c-4.6,9.1-4.6,10.3-4.6,13.7c0,12,10.3,14.8,15.4,14.8
		c16.5,0,21.1-14.8,27.9-38.7c9.1-29.1,9.1-30.2,14.8-53L740.4-986"/>
	<path d="M746.3-993c5.5-1.4,7.9-3.9,13.5-4c6.9-0.1,9.5,1.8,12.7,2.8l-0.3-3.1c-3.4-1.3-6.3-2.8-11.7-2.8c-3.9,0-8.6,1.6-14.6,4"/>
</g>
<path class="st0" d="M1370.6-1026c0,3.8-1.4,7.3-3.7,10.1l-30.4,0.3c-2.6-2.8-4-6.4-4-10.3c0-9.3,9.1-13.3,19-16.9
	C1361.4-1046.5,1370.6-1035.3,1370.6-1026z"/>
<path class="st0" d="M1425.6-1025.4c0,3.5-1.4,6.8-3.7,9.5l-30.4,0.2c-2.6-2.6-4-6-4-9.7c0-8.8,9-19.1,19-15.9
	C1416.6-1038,1425.6-1034.2,1425.6-1025.4z"/>
<path d="M1359-1034.2c-1.3,0.1-2.3,1.1-2.3,2.4c0,1.3,1.1,2.4,2.4,2.4c1.3,0,2.4-1.1,2.4-2.4c0-1.3-1.1-2.4-2.4-2.4
	C1359.1-1034.2,1359-1034.2,1359-1034.2l2.9-1c4.3,0,7.7,3.5,7.7,7.7c0,4.3-3.5,7.7-7.7,7.7s-7.7-3.5-7.7-7.7c0-4.3,3.5-7.7,7.7-7.7
	"/>
<path d="M1414-1034.2c-1.3,0.1-2.3,1.1-2.3,2.4c0,1.3,1.1,2.4,2.4,2.4c1.3,0,2.4-1.1,2.4-2.4c0-1.3-1.1-2.4-2.4-2.4
	C1414.1-1034.2,1414-1034.2,1414-1034.2l2.9-1c4.3,0,7.7,3.5,7.7,7.7c0,4.3-3.5,7.7-7.7,7.7s-7.7-3.5-7.7-7.7c0-4.3,3.5-7.7,7.7-7.7
	"/>
<path class="st1" d="M1347.4-984.9h64.4c-15.4,63.8-25.1,105.4-25.1,151c0,8,0,69.5,23.4,69.5c12,0,22.2-10.8,22.2-20.5
	c0-2.8,0-4-4-12.5c-15.4-39.3-15.4-88.3-15.4-92.3c0-3.4,0-43.9,12-95.1l65.7-1.8c7.4,0,18.3,1.8,18.3-16.4
	c0-12.5-5.2-12.7-15.5-12.7l-187,0.1c-13.1,0-27.2,8.6-41.3,25.7c-14.1,17.1-14.5,49.1-12.8,52.1c3,5.2,6,11.4,14.8,8.4
	c3.8-1.3,0.5-4,1-8.4c3.4-29.9,19.5-47.1,33.7-47.1h32.5c-12.5,42.7-2.8,92.3-49.5,192c-4.6,9.1-4.6,10.3-4.6,13.7
	c0,12,10.3,14.8,15.4,14.8c16.5,0,21.1-14.8,27.9-38.7c9.1-29.1,8.1-30.2,13.8-53L1347.4-984.9"/>
<path d="M1365.3-992.9c5.5,0,8.8-3.1,13.5-3c8.4,0.1,10.6,3,15.7,2.8c0,0-0.3-3.1-0.3-3.1c-3.5-1.7-9.3-2.8-14.7-2.8
	c-3.9,0-8.4,1.3-14.6,3"/>
<path class="st0" d="M-362.4-462.6c0,2.9-1.4,5.5-3.7,7.7l-30.4,0.2c-2.6-2.1-4-4.9-4-7.9c0-7.1,8.5-12.9,19-12.9
	C-370.9-475.5-362.4-469.7-362.4-462.6z"/>
<path class="st0" d="M-307.4-465.4c0,3.9-1.4,7.5-3.7,10.5l-30.4,0.3c-2.6-2.9-4-6.7-4-10.7c0-9.7,8.5-15,19-17.6
	C-316.2-485.5-307.4-475.1-307.4-465.4z"/>
<path d="M-375-472.2c-1.3,0.1-2.3,1.1-2.3,2.4c0,1.3,1.1,2.4,2.4,2.4s2.4-1.1,2.4-2.4s-1.1-2.4-2.4-2.4
	C-374.9-472.2-375-472.2-375-472.2l2.9-1c4.3,0,7.7,3.5,7.7,7.7s-3.5,7.7-7.7,7.7s-7.7-3.5-7.7-7.7s3.5-7.7,7.7-7.7"/>
<path d="M-318-474.2c-1.3,0.1-2.3,1.1-2.3,2.4c0,1.3,1.1,2.4,2.4,2.4s2.4-1.1,2.4-2.4s-1.1-2.4-2.4-2.4
	C-317.9-474.2-318-474.2-318-474.2l2.9-1c4.3,0,7.7,3.5,7.7,7.7s-3.5,7.7-7.7,7.7s-7.7-3.5-7.7-7.7s3.5-7.7,7.7-7.7"/>
<path class="st1" d="M-385.6-423.9h64.4c-15.4,63.8-25.1,105.4-25.1,151c0,8,0,69.5,23.4,69.5c12,0,22.2-10.8,22.2-20.5
	c0-2.8,0-4-4-12.5c-15.4-39.3-15.4-88.3-15.4-92.3c0-3.4,0-43.9,12-95.1h63.8c7.4,0,26.2,1,26.2-17.2c0-12.5-10.8-13.5-21.1-13.5
	h-187.4c-13.1,0-9.3-12.4-0.5-21.6c19.2-19.9,37.9,1.1,40.9-1.3c3.7-3-11.9-17.9-20.2-21c-6.9-2.6-26,4.5-33.9,16.2
	c-17.5,25.9-5.1,58.4,9.1,58.4h32.5c-12.5,42.7-26.8,92.3-73.5,192c-4.6,9.1-4.6,10.3-4.6,13.7c0,12,10.3,14.8,15.4,14.8
	c16.5,0,21.1-14.8,27.9-38.7c9.1-29.1,9.1-30.2,14.8-53L-385.6-423.9"/>
<path d="M-385.7-434.9c0.9,0.4,1.7-2.2,4.1-1.8c10.2,1.5,11.8,1.8,15.1,1.7c0,0-0.3-3.1-0.3-3.1c-3.7,0.1-9.4-2.4-14.8-2.4
	c-3.9,0-4.8,1.2-4.5,2.6"/>
<path class="st0" d="M231.6-446.8c0,3.3-1.4,6.4-3.7,8.9l-30.4,0.2c-2.6-2.4-4-5.7-4-9.1c0-8.3,8.5-10.3,19-10.9
	C222.9-458.3,231.6-455.1,231.6-446.8z"/>
<path class="st0" d="M286.6-446.8c0,3.3-1.4,6.4-3.7,8.9l-30.4,0.2c-2.6-2.4-4-5.7-4-9.1c0-8.3,9.3-10.8,19.3-10.9
	C278.6-457.9,286.6-455.1,286.6-446.8z"/>
<path d="M221-453.6c-1.8,0.1-3.1,2.3-1.6,4.2c2.6,2,5.6-1,3.6-3.6C222.3-453.5,221.7-453.7,221-453.6l2.9-1c6.1,0,10.5,7,5.6,13.4
	c-6.4,4.8-13.4,0.4-13.4-5.6c0-4.3,3.5-7.7,7.7-7.7"/>
<path d="M276-453.6c-1.8,0.1-3.1,2.3-1.6,4.2c2.6,2,5.6-1,3.6-3.6C277.3-453.5,276.7-453.7,276-453.6l2.9-1c6.1,0,10.5,7,5.6,13.4
	c-6.4,4.8-13.4,0.4-13.4-5.6c0-4.3,3.5-7.7,7.7-7.7"/>
<path class="st1" d="M210.2-413.4h64.4c-15.4,63.8-25.1,105.4-25.1,151c0,8,0,69.5,23.4,69.5c12,0,22.2-10.8,22.2-20.5
	c0-2.8,0-4-4-12.5c-15.4-39.3-17.4-88.3-17.4-92.3c0-3.4,2-43.9,14-95.1l17.8-0.2c18.8,3.4,35.2,12.2,35.2-6
	c0-12.5-24.8-18.5-35.1-18.5l-137,0.2c-13.1,0-27.4,9-36.1,40.5c-2.8,10.1-10,44.9-10,48.3s2.8,4.6,6.3,4.6c4,0,6.4-0.8,7.4-5.1
	c11.7-48.7,14.2-63.7,28.5-63.7h32.5c-12.5,42.7-26.8,92.3-73.5,192c-4.6,9.1-4.6,10.3-4.6,13.7c0,12,10.3,14.8,15.4,14.8
	c16.5,0,21.1-14.8,27.9-38.7c9.1-29.1,9.1-30.2,14.8-53L210.2-413.4"/>
<path d="M226.3-419.9c5.5,0,1.9-0.9,13.5-1c10.3-0.1,12.4,0.9,15.7,0.8c0,0-0.3-3.1-0.3-3.1c-3.7,0.1-9.3-0.8-14.7-0.8
	c-3.9,0-8.5,1-14.6,1"/>
<path class="st0" d="M245.6,119.7c0,4.2-1.4,8.2-3.7,11.3l-29.6,3.1c-2.6-3.1-4.7-10.1-4.7-14.4c0-10.5,8.5-19,19-19
	C237.1,100.6,245.6,109.2,245.6,119.7z"/>
<path class="st0" d="M300.6,119.7c0,4.2-1.4,8.2-3.7,11.3l-30.4,0.3c-2.6-3.1-4-7.3-4-11.6c0-10.5,8.5-19,19-19
	C292.1,100.6,300.6,109.2,300.6,119.7z"/>
<path d="M232,104.8c-1.3,0.1-2.3,1.1-2.3,2.4c0,1.3,1.1,2.4,2.4,2.4c1.3,0,2.4-1.1,2.4-2.4c0-1.3-1.1-2.4-2.4-2.4
	C232.1,104.8,232,104.8,232,104.8l2.9-1c4.3,0,7.7,3.5,7.7,7.7s-3.5,7.7-7.7,7.7s-7.7-3.5-7.7-7.7s3.5-7.7,7.7-7.7"/>
<path d="M287,104.8c-1.3,0.1-2.3,1.1-2.3,2.4c0,1.3,1.1,2.4,2.4,2.4s2.4-1.1,2.4-2.4c0-1.3-1.1-2.4-2.4-2.4
	C287.1,104.8,287,104.8,287,104.8l2.9-1c4.3,0,7.7,3.5,7.7,7.7s-3.5,7.7-7.7,7.7s-7.7-3.5-7.7-7.7s3.5-7.7,7.7-7.7"/>
<path class="st1" d="M223.4,162.1h64.4c-15.4,63.8-25.1,105.4-25.1,151c0,8,0,69.5,23.4,69.5c12,0,22.2-10.8,22.2-20.5
	c0-2.8,0-4-4-12.5c-15.4-39.3-15.4-88.3-15.4-92.3c0-3.4,0-43.9,12-95.1l63.8,19c7.4,0,26.7,0,26.2-18.2
	c-0.3-11.1-15.3-13.6-28.3-16.7c-26-6.3-107.9-32.1-184.8-0.7c-10.5,4.3-26.4,5.6-54.1,33.8c-15.6,15.8-33,46.7-33,50.1
	s2.8,4.6,6.3,4.6c4,0,4.6-1.7,7.4-5.1c29.6-46.7,59.9-55.4,74.9-59.6l31.1-7.1c-12.5,42.7-26.8,92.3-73.5,192
	c-4.6,9.1-4.6,10.3-4.6,13.7c0,12,10.3,14.8,15.4,14.8c16.5,0,21.1-14.8,27.9-38.7c9.1-29.1,9.1-30.2,14.8-53L223.4,162.1"/>
<path d="M251.9,154.1c2.2,0,0.8,0.1,5.4,0c4.1-0.1,4.9-0.1,6.2-0.2c0,0-0.1-3.1-0.1-3.1c-1.5,0.1-3.7,0.2-5.9,0.2
	c-1.5,0-3.4,0-5.8,0"/>
<path class="st0" d="M872.6,138.7c0,4.2-1.4,8.2-3.7,11.3l-30.4,0.3c-2.6-3.1-4-7.3-4-11.6c0-10.5,8.5-19,19-19
	S872.6,128.2,872.6,138.7z"/>
<path class="st0" d="M927.6,138.7c0,4.2-1.4,8.2-3.7,11.3l-30.4,0.3c-2.6-3.1-4-7.3-4-11.6c0-10.5,8.5-19,19-19
	S927.6,128.2,927.6,138.7z"/>
<path d="M859,123.8c-1.3,0.1-2.3,1.1-2.3,2.4c0,1.3,1.1,2.4,2.4,2.4s2.4-1.1,2.4-2.4c0-1.3-1.1-2.4-2.4-2.4
	C859.1,123.8,859,123.8,859,123.8l2.9-1c4.3,0,7.7,3.5,7.7,7.7c0,4.3-3.5,7.7-7.7,7.7s-7.7-3.5-7.7-7.7c0-4.3,3.5-7.7,7.7-7.7"/>
<path d="M914,123.8c-1.3,0.1-2.3,1.1-2.3,2.4c0,1.3,1.1,2.4,2.4,2.4s2.4-1.1,2.4-2.4c0-1.3-1.1-2.4-2.4-2.4
	C914.1,123.8,914,123.8,914,123.8l2.9-1c4.3,0,7.7,3.5,7.7,7.7c0,4.3-3.5,7.7-7.7,7.7s-7.7-3.5-7.7-7.7c0-4.3,3.5-7.7,7.7-7.7"/>
<path class="st1" d="M849.4,161.1h64.4c-15.4,63.8-25.1,105.4-25.1,151c0,8,0,69.5,23.4,69.5c12,0,22.2-10.8,22.2-20.5
	c0-2.8,0-4-4-12.5c-15.4-39.3-15.4-88.3-15.4-92.3c0-3.4,0-43.9,12-95.1h63.8c7.4,0,26.2,0,26.2-18.2c0-12.5-10.8-12.5-21.1-12.5
	H808.4c-13.1,0-12.9,1.4-38-12.5c-19.4-10.7-11.8-24.1-26.5-23.7c-7,0.2-15.2,16.5-10.3,27.2c9.7,20.9,39.6,32.5,43.8,33.9
	c23,7.3,12.1,5.9,26.4,5.9h32.5c-12.5,42.7-26.8,92.3-73.5,192c-4.6,9.1-4.6,10.3-4.6,13.7c0,12,10.3,14.8,15.4,14.8
	c16.5,0,21.1-14.8,27.9-38.7c9.1-29.1,9.1-30.2,14.8-53L849.4,161.1"/>
<path d="M847.2,153.1c2.8,0,1,0.1,6.8,0c5.2-0.1,6.2-0.1,7.9-0.2c0,0-0.1-3.1-0.1-3.1c-1.8,0.1-4.7,0.2-7.4,0.2c-1.9,0-4.3,0-7.3,0"
	/>
<path class="st0" d="M-413.4,137.7c0,4.2-1.4,8.2-3.7,11.3l-30.4,0.3c-2.6-3.1-4-7.3-4-11.6c0-10.5,8.5-19,19-19
	C-421.9,118.6-413.4,127.2-413.4,137.7z"/>
<path class="st0" d="M-358.4,135.7c0,4.2-1.4,8.2-3.7,11.3l-30.4,0.3c-2.6-3.1-4-7.3-4-11.6c0-10.5,8.5-19,19-19
	C-366.9,116.6-358.4,125.2-358.4,135.7z"/>
<path d="M-427,122.8c-1.3,0.1-2.3,1.1-2.3,2.4c0,1.3,1.1,2.4,2.4,2.4s2.4-1.1,2.4-2.4c0-1.3-1.1-2.4-2.4-2.4
	C-426.9,122.8-427,122.8-427,122.8l2.9-1c4.3,0,7.7,3.5,7.7,7.7c0,4.3-3.5,7.7-7.7,7.7s-7.7-3.5-7.7-7.7c0-4.3,3.5-7.7,7.7-7.7"/>
<path d="M-372,120.8c-1.3,0.1-2.3,1.1-2.3,2.4c0,1.3,1.1,2.4,2.4,2.4s2.4-1.1,2.4-2.4c0-1.3-1.1-2.4-2.4-2.4
	C-371.9,120.8-372,120.8-372,120.8l2.9-1c4.3,0,7.7,3.5,7.7,7.7s-3.5,7.7-7.7,7.7s-7.7-3.5-7.7-7.7s3.5-7.7,7.7-7.7"/>
<path class="st1" d="M-442.6,163.1h64.4c-15.4,63.8-25.1,105.4-25.1,151c0,8,0,69.5,23.4,69.5c12,0,22.2-10.8,22.2-20.5
	c0-2.8,0-4-4-12.5c-15.4-39.3-15.4-88.3-15.4-92.3c0-3.4,0-43.9,12-95.1c0,0,53.7-17.7,65.8-26.9c10.9-8.3,12.7-5.2,18.6-17.5
	c5.4-11.3-7.7-23.8-15.4-16.3c-43.3,42.4-187.4,30-187.4,30c-13.1,0-32.5,0-58.7,27.9c-14.8,16.5-33,46.7-33,50.1s2.8,4.6,6.3,4.6
	c4,0,4.6-1.7,7.4-5.1c29.6-46.7,59.2-46.7,73.5-46.7h32.5c-12.5,42.7-26.8,92.3-73.5,192c-4.6,9.1-4.6,10.3-4.6,13.7
	c0,12,10.3,14.8,15.4,14.8c16.5,0,21.1-14.8,27.9-38.7c9.1-29.1,9.1-30.2,14.8-53L-442.6,163.1"/>
<path d="M-399.6,155.1c2.7,0,0.9,0.1,6.5,0c5-0.1,6-0.1,7.6-0.2c0,0-0.1-3.1-0.1-3.1c-1.8,0.1-4.5,0.2-7.1,0.2c-1.9,0-4.1,0-7.1,0"
	/>
</svg>
