<?xml version="1.0" encoding="utf-8"?>
<!-- Generator: Adobe Illustrator 22.1.0, SVG Export Plug-In . SVG Version: 6.00 Build 0)  -->
<svg version="1.0" id="Layer_1" xmlns="http://www.w3.org/2000/svg" xmlns:xlink="http://www.w3.org/1999/xlink" x="0px" y="0px"
	 viewBox="0 0 480 480" style="enable-background:new 0 0 480 480;" xml:space="preserve">
<style type="text/css">
	.st0{fill:#FFFFFF;}
	.st1{fill:#0C7F99;}
</style>
<g>
	<path class="st0" d="M253.9,114.3c0,4.2-1.4,8.2-3.7,11.3l-30.4,0.3c-2.6-3.1-4-7.3-4-11.6c0-10.5,8.5-19,19-19
		C245.4,95.2,253.9,103.8,253.9,114.3z"/>
	<path class="st0" d="M308.9,112.3c0,4.2-1.4,8.2-3.7,11.3l-30.4,0.3c-2.6-3.1-4-7.3-4-11.6c0-10.5,8.5-19,19-19
		C300.4,93.2,308.9,101.8,308.9,112.3z"/>
	<path d="M240.3,99.4c-1.3,0.1-2.3,1.1-2.3,2.4s1.1,2.4,2.4,2.4c1.3,0,2.4-1.1,2.4-2.4S241.7,99.4,240.3,99.4L240.3,99.4l2.9-1
		c4.3,0,7.7,3.5,7.7,7.7s-3.5,7.7-7.7,7.7s-7.7-3.5-7.7-7.7s3.5-7.7,7.7-7.7"/>
	<path d="M295.3,97.4c-1.3,0.1-2.3,1.1-2.3,2.4s1.1,2.4,2.4,2.4s2.4-1.1,2.4-2.4s-1.1-2.4-2.4-2.4H295.3l2.9-1
		c4.3,0,7.7,3.5,7.7,7.7s-3.5,7.7-7.7,7.7s-7.7-3.5-7.7-7.7s3.5-7.7,7.7-7.7"/>
	<path class="st1" d="M228.7,153.7h64.4c-15.4,63.8-25.1,105.4-25.1,151c0,8-5.6,39.9,16.1,48.5c12,4.7,29.4,10.2,29.4,0.5
		c0-2.8,0-4-4-12.5c-15.4-39.3-15.4-88.3-15.4-92.3c0-3.4,0-43.9,12-95.1c0,0,53.7-17.7,65.8-26.9c10.9-8.3,12.7-5.2,18.6-17.5
		c5.4-11.3-7.7-23.8-15.4-16.3c-43.3,42.4-187.4,30-187.4,30c-13.1,0-32.5,0-58.7,27.9c-14.8,16.5-33,46.7-33,50.1s2.8,4.6,6.3,4.6
		c4,0,4.6-1.7,7.4-5.1c29.6-46.7,59.2-46.7,73.5-46.7h32.5c-12.5,42.7-26.8,92.3-73.5,192c-4.6,9.1-4.6,10.3-4.6,13.7
		c0,12,10.3,14.8,15.4,14.8c16.5,0,21.1-14.8,27.9-38.7c9.1-29.1,9.1-30.2,14.8-53L228.7,153.7"/>
	<path d="M271.7,145.7c2.7,0,0.9,0.1,6.5,0c5-0.1,6-0.1,7.6-0.2l-0.1-3.1c-1.8,0.1-4.5,0.2-7.1,0.2c-1.9,0-4.1,0-7.1,0"/>
</g>
</svg>
