<?xml version="1.0" encoding="utf-8"?>
<!-- Generator: Adobe Illustrator 22.1.0, SVG Export Plug-In . SVG Version: 6.00 Build 0)  -->
<svg version="1.0" id="Layer_1" xmlns="http://www.w3.org/2000/svg" xmlns:xlink="http://www.w3.org/1999/xlink" x="0px" y="0px"
	 viewBox="0 0 480 480" style="enable-background:new 0 0 480 480;" xml:space="preserve">
<style type="text/css">
	.st0{fill:#FFFFFF;}
	.st1{fill:#0C7F99;}
</style>
<path class="st0" d="M256.6,122.7c0,4.2-1.4,8.2-3.7,11.3l-30.4,0.3c-2.6-3.1-4-7.3-4-11.6c0-10.5,9.5-15.3,19.9-13.8
	C250.1,110.5,256.6,112.2,256.6,122.7z"/>
<path class="st0" d="M311.6,122.7c0,4.2-1.4,8.2-3.7,11.3l-30.4,0.3c-2.6-3.1-4-7.3-4-11.6c0-10.5,8.5-19,19-19
	C303.1,103.6,311.6,112.2,311.6,122.7z"/>
<path d="M242,110.8c-1.3,0.1-2.3,1.1-2.3,2.4c0,1.3,1.1,2.4,2.4,2.4c1.3,0,2.4-1.1,2.4-2.4c0-1.3-1.1-2.4-2.4-2.4
	C242.1,110.8,242,110.8,242,110.8l2.9-1c4.3,0,7.7,3.5,7.7,7.7s-3.5,7.7-7.7,7.7s-7.7-3.5-7.7-7.7s3.5-7.7,7.7-7.7"/>
<path d="M298,107.8c-1.3,0.1-2.3,1.1-2.3,2.4c0,1.3,1.1,2.4,2.4,2.4s2.4-1.1,2.4-2.4c0-1.3-1.1-2.4-2.4-2.4
	C298.1,107.8,298,107.8,298,107.8l2.9-1c4.3,0,7.7,3.5,7.7,7.7s-3.5,7.7-7.7,7.7s-7.7-3.5-7.7-7.7s3.5-7.7,7.7-7.7"/>
<path class="st1" d="M233.4,165.1h64.4c-10.7,64.1-2.1,91.6-4.1,131c-1.3,26.6-32.2,68.1-13.1,81.5c5.5,3.9,6.4,3.4,14.1,2.2
	c5.7-0.9,8.9-2.2,10.6-12.2c5.1-29.9,14.1-51.3,13.3-84.8c-0.4-19.6-19.7-66.3-7.8-117.6h63.8c7.4,0,26-11.6,26-29.8
	c0-12.5-10.7-1-20.9-1H192.4c-13.1,0-40.2,18.8-47.3,40.2c-5.7,17.2,28.5,34.3,31.8,37.3c2.5,2.3,9.7,5,13.1,5c4,0,11-2.6,7.4-5.1
	c-31.6-22.4-34.4-47.8-9.5-46.7h32.5c-12.5,42.7-5.4,92.1-30,188.6c-2.5,9.9-2.8,19.8-2.8,23.2c0,12,18.1,7,23.2,7
	c16.5,0,10.9-17.6,12-23.9c2.8-16.2,1.3-31.5,3.3-57.3L233.4,165.1"/>
<path d="M251.2,156.7c2.5,1.2,1.8-0.5,6.1-0.2c9,0.5,8.1,0.3,15.5,2.3c0,0,0-2.5,0-2.5c-3.1-1-9-5.4-16.1-5.5
	c-4-0.1-5.1,2.2-5.8,2.9"/>
</svg>
