<?xml version="1.0" encoding="utf-8"?>
<!-- Generator: Adobe Illustrator 22.1.0, SVG Export Plug-In . SVG Version: 6.00 Build 0)  -->
<svg version="1.1" id="Layer_1" xmlns="http://www.w3.org/2000/svg" xmlns:xlink="http://www.w3.org/1999/xlink" x="0px" y="0px"
	 viewBox="0 0 480 480" style="enable-background:new 0 0 480 480;" xml:space="preserve">
<style type="text/css">
	.st0{fill:#FFFFFF;}
	.st1{fill:#0C7F99;}
</style>
<g>
	<path class="st0" d="M265.9,121.6c0,3.8-1.5,7.5-3.8,10.2l-30.4-0.1c-2.6-2.9-3.9-6.7-3.9-10.6c0.1-9.6,8.7-17.2,19.2-17.1
		C257.6,104,266,112,265.9,121.6z"/>
	<path class="st0" d="M319.8,123.9c-0.1,3.8-1.6,7.4-4,10.2l-30.4-0.6c-2.5-2.9-3.8-6.8-3.7-10.7c0.3-9.6,9-17.1,19.5-16.8
		C311.8,106.2,320.1,114.3,319.8,123.9z"/>
	<path d="M255.3,113.4c-1.3,0.1-2.3,1.1-2.3,2.4s1.1,2.4,2.4,2.4c1.3,0,2.4-1.1,2.4-2.4S256.7,113.4,255.3,113.4L255.3,113.4l2.9-1
		c4.3,0,7.7,3.5,7.7,7.7s-3.5,7.7-7.7,7.7c-4.2,0-7.7-3.5-7.7-7.7s3.5-7.7,7.7-7.7"/>
	<path d="M309.5,115.6c-1.3,0.1-2.3,1-2.4,2.3c0,1.3,1,2.4,2.3,2.5s2.4-1,2.5-2.3C311.9,116.8,310.9,115.7,309.5,115.6L309.5,115.6
		l2.9-0.9c4.3,0.1,7.6,3.7,7.5,7.9c-0.1,4.2-3.7,7.6-7.9,7.5c-4.2-0.1-7.6-3.7-7.5-7.9c0.1-4.2,3.7-7.6,7.9-7.5"/>
	<path class="st1" d="M240.7,159.7l64.4,1c-15.4,63.8-25.1,104.4-25.1,150c0,8-5.6,51.9,16.1,60.5c12,4.7,29.4,10.2,29.4,0.5
		c0-2.8,0-4-4-12.5c-15.4-39.3-15.4-100.3-15.4-104.3c0-3.4,0-42.9,12-94.1c0,0,28.9,1.2,44.9,1.2c14,1,26.1,10.3,32-2
		c6-10-8-24-26-25c-24,1-169.3-5.9-169.3-5.9c-13.1,0-32.5,0-58.7,27.9c-14.8,16.5-33,46.7-33,50.1s2.8,4.6,6.3,4.6
		c4,0,4.6-1.7,7.4-5.1c29.6-46.7,59.2-46.7,73.5-46.7h32.5c-12.5,42.7-26.8,92.3-73.5,192c-4.6,9.1-4.6,10.3-4.6,13.7
		c0,12,10.3,14.8,15.4,14.8c16.5,0,21.1-14.8,27.9-38.7c9.1-29.1,9.1-30.2,14.8-53L240.7,159.7"/>
	<path d="M258,146c3,3,6.4,5.1,12,5c5-0.1,7-1,8.3-2.1l-0.1-3.1c-2.2,1.2-5.6,2.2-8.2,2.2c-1.9,0-8-2-12-5"/>
</g>
</svg>
