<?xml version="1.0" encoding="utf-8"?>
<!-- Generator: Adobe Illustrator 22.1.0, SVG Export Plug-In . SVG Version: 6.00 Build 0)  -->
<svg version="1.0" id="Layer_1" xmlns="http://www.w3.org/2000/svg" xmlns:xlink="http://www.w3.org/1999/xlink" x="0px" y="0px"
	 viewBox="0 0 480 480" style="enable-background:new 0 0 480 480;" xml:space="preserve">
<style type="text/css">
	.st0{fill:#FFFFFF;}
	.st1{fill:#0C7F99;}
</style>
<g>
	<path class="st0" d="M236.2,89.1c0,4.7-1.6,8.9-4.2,12.3l-34.7,0.3c-3-3.4-6.8-8.6-4.6-12.7c4-7.1,10.6-5.8,21.8-8.4
		C229.4,77.3,236.2,77.7,236.2,89.1z"/>
	<path class="st0" d="M298.9,89.1c3,3.5-1.6,8.9-4.2,12.3l-34.7,0.3c-3-3.4-4.6-7.9-4.6-12.7c0-11.4,10.7-11.2,22.5-9.1
		C290.2,82.1,294.8,84.3,298.9,89.1z"/>
	<path d="M211.5,88.9c-1.5,0.1-2.6,1.3-2.6,2.6c0,1.8,1.8,3.1,3.7,2.5c0.9-0.3,1.5-1,1.7-1.9c0.3-1.7-1-3.2-2.7-3.2H211.5l3.3-1.1
		c4.9,0,8.8,3.8,8.8,8.4c0,4.7-4,8.4-8.8,8.4c-4.8,0-8.8-3.8-8.8-8.4c0-4.7,4-8.4,8.8-8.4"/>
	<path d="M274.2,88c-1.5,0.1-2.6,1.3-2.6,2.5c0,1.4,1.3,2.6,2.7,2.6c1.5,0,2.7-1.1,2.7-2.6c0-1.4-1.3-2.6-2.7-2.6
		C274.4,88,274.2,88,274.2,88l3.3-1c4.9,0,8.8,3.6,8.8,8.1s-4,8.1-8.8,8.1s-8.8-3.6-8.8-8.1s4-8.1,8.8-8.1"/>
	<path class="st1" d="M210.3,138h73.3c-17.6,73-35.6,119.7-28.7,172.7c1.1,9,0,79.5,26.8,79.5c13.7,0,25.4-12.4,25.4-23.5
		c0-3.2,0-4.6-4.6-14.3c-17.6-45-28.1-98.2-28.1-102.8c0-3.9,10.5-53.1,24.3-111.7l34.1-0.1c-66.1,47.8-34.8,44.5-16.2,32.7
		c53.5-34.1,51.9-68.1,26.2-68L163,102.7c-15,0-44.1,12.4-36.2,43.4c5.4,21.1,27.1,27.5,41.8,28.6c13,1,40.4,3.2,44.3,3.2
		c4.6,0,7.3-4.6,2.5-6.3c-45.2-16.2-73.9-33.6-57.7-33.6H195c-14.3,48.9-19,146-84.1,219.7c-7.8,8.7-5.3,11.8-5.3,15.7
		c0,13.7,11.8,16.9,17.6,16.9c18.9,0,28.3-18.1,39-44.4c12.6-30.9,17.5-38,24-64.1L209.9,138"/>
	<path d="M227.8,131.6c3.1-3.5,3.1-5.8,8.8-5.8c5.7,0,8,3.4,12.5,5.7v-3.4c-2.3-1.1-8.7-7-14.8-6.8c-4.6,0.1-5.7,4.6-6.8,6.8"/>
</g>
</svg>
