<?xml version="1.0" encoding="utf-8"?>
<!-- Generator: Adobe Illustrator 22.1.0, SVG Export Plug-In . SVG Version: 6.00 Build 0)  -->
<svg version="1.0" id="Layer_1" xmlns="http://www.w3.org/2000/svg" xmlns:xlink="http://www.w3.org/1999/xlink" x="0px" y="0px"
	 viewBox="0 0 480 480" style="enable-background:new 0 0 480 480;" xml:space="preserve">
<style type="text/css">
	.st0{fill:#FFFFFF;}
	.st1{fill:#0C7F99;}
</style>
<path class="st0" d="M265.6,117.4c0,2.9-1.4,5.5-3.7,7.7l-30.4,0.2c-2.6-2.1-4-4.9-4-7.9c0-7.1,8.5-12.9,19-12.9
	C257.1,104.5,265.6,110.3,265.6,117.4z"/>
<path class="st0" d="M320.6,114.6c0,3.9-1.4,7.5-3.7,10.5l-30.4,0.3c-2.6-2.9-4-6.7-4-10.7c0-9.7,8.5-15,19-17.6
	C311.8,94.5,320.6,104.9,320.6,114.6z"/>
<path d="M253,107.8c-1.3,0.1-2.3,1.1-2.3,2.4c0,1.3,1.1,2.4,2.4,2.4c1.3,0,2.4-1.1,2.4-2.4c0-1.3-1.1-2.4-2.4-2.4
	C253.1,107.8,253,107.8,253,107.8l2.9-1c4.3,0,7.7,3.5,7.7,7.7s-3.5,7.7-7.7,7.7s-7.7-3.5-7.7-7.7s3.5-7.7,7.7-7.7"/>
<path d="M310,105.8c-1.3,0.1-2.3,1.1-2.3,2.4c0,1.3,1.1,2.4,2.4,2.4s2.4-1.1,2.4-2.4c0-1.3-1.1-2.4-2.4-2.4
	C310.1,105.8,310,105.8,310,105.8l2.9-1c4.3,0,7.7,3.5,7.7,7.7s-3.5,7.7-7.7,7.7s-7.7-3.5-7.7-7.7s3.5-7.7,7.7-7.7"/>
<path class="st1" d="M242.4,156.1h64.4c-15.4,63.8-25.1,105.4-25.1,151c0,8,0,69.5,23.4,69.5c12,0,22.2-10.8,22.2-20.5
	c0-2.8,0-4-4-12.5c-15.4-39.3-15.4-88.3-15.4-92.3c0-3.4,0-43.9,12-95.1h63.8c7.4,0,26.2,1,26.2-17.2c0-12.5-10.8-13.5-21.1-13.5
	H201.4c-13.1,0-9.3-12.4-0.5-21.6c19.2-19.9,37.9,1.1,40.9-1.3c3.7-3-11.9-17.9-20.2-21c-6.9-2.6-26,4.5-33.9,16.2
	c-17.5,25.9-5.1,58.4,9.1,58.4h32.5c-12.5,42.7-26.8,92.3-73.5,192c-4.6,9.1-4.6,10.3-4.6,13.7c0,12,10.3,14.8,15.4,14.8
	c16.5,0,21.1-14.8,27.9-38.7c9.1-29.1,9.1-30.2,14.8-53L242.4,156.1"/>
<path d="M242.3,145.1c0.9,0.4,1.7-2.2,4.1-1.8c10.2,1.5,11.8,1.8,15.1,1.7c0,0-0.3-3.1-0.3-3.1c-3.7,0.1-9.4-2.4-14.8-2.4
	c-3.9,0-4.8,1.2-4.5,2.6"/>
</svg>
