<?xml version="1.0" encoding="utf-8"?>
<!-- Generator: Adobe Illustrator 19.1.0, SVG Export Plug-In . SVG Version: 6.00 Build 0)  -->
<svg version="1.1" id="Layer_1" xmlns="http://www.w3.org/2000/svg" xmlns:xlink="http://www.w3.org/1999/xlink" x="0px" y="0px"
	 viewBox="0 0 480 480" style="enable-background:new 0 0 480 480;" xml:space="preserve">
<style type="text/css">
	.st0{fill:#FFFFFF;}
	.st1{fill:#0C7F99;}
</style>
<path class="st0" d="M239.6,118.9c0,4.5-1.4,8.7-3.7,12.1l-30.4,0.3c-2.6-3.3-4-7.7-4-12.4c0-11.2,9.7-15.5,19.4-16.2
	C233,101.9,239.6,107.7,239.6,118.9z"/>
<path class="st0" d="M294.6,120.2c0,4.1-1.4,7.8-3.7,10.8l-30.4,0.3c-2.6-3-4-6.9-4-11.1c0-10,9.8-19.4,20.3-18.2
	C287.1,103.3,294.6,110.2,294.6,120.2z"/>
<path d="M227,104.8c-1.3,0.1-2.3,1.1-2.3,2.4c0,1.3,1.1,2.4,2.4,2.4c1.3,0,2.4-1.1,2.4-2.4c0-1.3-1.1-2.4-2.4-2.4
	C227.1,104.8,227,104.8,227,104.8l2.9-1c4.3,0,7.7,3.5,7.7,7.7s-3.5,7.7-7.7,7.7s-7.7-3.5-7.7-7.7s3.5-7.7,7.7-7.7"/>
<path d="M281,104.8c-1.3,0.1-2.3,1.1-2.3,2.4c0,1.3,1.1,2.4,2.4,2.4s2.4-1.1,2.4-2.4c0-1.3-1.1-2.4-2.4-2.4
	C281.1,104.8,281,104.8,281,104.8l2.9-1c4.3,0,7.7,3.5,7.7,7.7s-3.5,7.7-7.7,7.7s-7.7-3.5-7.7-7.7s3.5-7.7,7.7-7.7"/>
<path class="st1" d="M216.5,161.9h64.4c-10.7,64.1-7.1,91.6-9.1,131c-1.3,26.6-27.2,68.1-8.1,81.5c5.5,3.9,6.4,3.4,14.1,2.2
	c5.7-0.9,8.9-2.2,10.6-12.2c5.1-29.9,5.1-42.3,4.3-75.8c-0.4-19.6-10.7-75.3,1.2-126.6h63.8c7.4,0,26-11.6,26-29.8
	c0-12.5-10.7-1-20.9-1H175.5c-13.1,0-40,8-47.1,29.4c-5.7,17.2,0.6,26.7,6.4,30.6c2.8,1.9,15.8,4.5,19.2,4.5c4,0,11-2.6,7.4-5.1
	c-31.6-22.4-15.4-29.8,9.5-28.7h32.5c-12.5,42.7-5.4,92.1-30,188.6c-2.5,9.9-2.8,19.8-2.8,23.2c0,12,18.1,7,23.2,7
	c16.5,0,10.9-17.6,12-23.9c2.8-16.2,1.3-31.5,3.3-57.3L216.5,161.9"/>
<path d="M229.2,152.7c0.9,1.5,3.2,2.2,5.1,2.3c6.7,0.3,11.2-1.1,16.4-3.2c0,0,0-4.1,0-4.1c-2.9,1.3-7.6,2.4-14.7,2.7
	c-2.5,0.1-6-1.3-7.4-2.9"/>
</svg>
