<?xml version="1.0" encoding="utf-8"?>
<!-- Generator: Adobe Illustrator 22.1.0, SVG Export Plug-In . SVG Version: 6.00 Build 0)  -->
<svg version="1.0" id="Layer_1" xmlns="http://www.w3.org/2000/svg" xmlns:xlink="http://www.w3.org/1999/xlink" x="0px" y="0px"
	 viewBox="0 0 480 480" style="enable-background:new 0 0 480 480;" xml:space="preserve">
<style type="text/css">
	.st0{fill:#FFFFFF;}
	.st1{fill:#0C7F99;}
</style>
<g>
	<path class="st0" d="M242.3,98.4c0,4.8-1.6,9.4-4.2,12.9l-34.7,0.3c-3-3.5-4.6-8.3-4.6-13.2c0-12,9.7-9.9,21.7-11.4
		C232.5,85.4,242.3,86.4,242.3,98.4z"/>
	<path class="st0" d="M305,98.4c0,4.8-1.6,9.4-4.2,12.9l-34.7,0.3c-3-3.5-4.6-8.3-4.6-13.2c0-12,10-14.1,21.7-11.4
		C295.2,89.6,305,86.4,305,98.4z"/>
	<path d="M225.6,95.3c-1.7,0.1-3,1.7-2.5,3.5c0.2,0.6,0.5,1.1,1.1,1.5c2.7,1.8,5.8-1.6,3.5-4.2c-0.4-0.5-1.1-0.8-1.8-0.8H225.6
		l3.3-1.1c6.2,0,10.8,6.4,7.9,12.7c-0.7,1.5-1.9,2.8-3.4,3.6c-6.5,3.5-13.2-1.4-13.2-7.6c0-4.8,4-8.8,8.8-8.8"/>
	<path d="M288.3,95.3c-1.7,0.1-3,1.7-2.5,3.5c0.2,0.6,0.5,1.1,1.1,1.5c2.7,1.8,5.8-1.6,3.5-4.2c-0.4-0.5-1.1-0.8-1.8-0.8H288.3
		l3.3-1.1c6.2,0,10.8,6.4,7.9,12.7c-0.7,1.5-1.9,2.8-3.4,3.6c-6.5,3.5-13.2-1.4-13.2-7.6c0-4.8,4-8.8,8.8-8.8"/>
	<path class="st1" d="M215.1,147.8h74.5c-12.4,32.1-2.1,125.4,8.3,163.4c2.4,8.9-10.4,39.2-24.5,80c-4.5,13,27.2,8.3,34.8,0.2
		c2.2-2.4,3.1-3.3,6.3-13.4c0.1-0.2,0.1-0.5,0.2-0.6c18-45,12-60.6,12-65.2c0-3.9-35.8-105.6-22-164.6h73.5c8.5,0,30.2,0,30.2-21
		c0-14.4-12.4-14.4-24.3-14.4H168.2c-26.9,0.7-43.1,12.2-52.3,31.8c-8.1,17,37.3,65.4,40,68.3c3.8,4.3,12.1,7.6,15.3,5.4
		c4.6-3.3,3.5-1.8,0.5-6c-39.6-55.1-45.4-64.3-8.6-64.1h37.4c-14.5,49.2,6.4,130-3.9,150.8c-5.3,10.5-49.2,82.1-49.2,86
		c0,13.8,11.9,17,17.7,17c19,0,24.5-27.4,38.4-52.4c17.7-32,19.3-29.6,25.9-55.9l-13.9-145.6"/>
	<path d="M227.7,132.2c1.1,3.4,2.2,5.9,11.2,5.8c9.4-0.1,10.5-1.3,15.1-3.5v-3.4c-5.7,3.4-8,3.4-14.1,3.4c-4.4,0-8.7-2.3-12.1-5.7"
		/>
</g>
</svg>
