<?xml version="1.0" encoding="utf-8"?>
<!-- Generator: Adobe Illustrator 22.1.0, SVG Export Plug-In . SVG Version: 6.00 Build 0)  -->
<svg version="1.0" id="Layer_1" xmlns="http://www.w3.org/2000/svg" xmlns:xlink="http://www.w3.org/1999/xlink" x="0px" y="0px"
	 viewBox="0 0 480 480" style="enable-background:new 0 0 480 480;" xml:space="preserve">
<style type="text/css">
	.st0{fill:#FFFFFF;}
	.st1{fill:#0C7F99;}
</style>
<g>
	<path class="st0" d="M230.4,82.9c0,4.8-1.6,9.4-4.2,12.9l-34.7,0.3c-3-3.5-4.6-8.3-4.6-13.2c0-12,11.3-7.5,21.7-13.7
		C219.4,62.8,230.4,71,230.4,82.9z"/>
	<path class="st0" d="M293.1,82.9c0,4.8-1.6,9.4-4.2,12.9l-34.7,0.3c-3-3.5-4.6-8.3-4.6-13.2c0-12,12.1-21,21.7-13.7
		C281,76.4,293.1,71,293.1,82.9z"/>
	<path d="M213.7,79.9c-1.7,0.1-3,1.7-2.5,3.5c0.2,0.6,0.5,1.1,1.1,1.5c2.7,1.8,5.8-1.6,3.5-4.2c-0.4-0.5-1.1-0.8-1.8-0.8L213.7,79.9
		l3.3-1.1c6.2,0,10.8,6.4,7.9,12.7c-0.7,1.5-1.9,2.8-3.4,3.6c-6.5,3.5-13.2-1.4-13.2-7.6c0-4.8,4-8.8,8.8-8.8"/>
	<path d="M276.4,79.9c-1.7,0.1-3,1.7-2.5,3.5c0.2,0.6,0.5,1.1,1.1,1.5c2.7,1.8,5.8-1.6,3.5-4.2c-0.4-0.5-1.1-0.8-1.8-0.8L276.4,79.9
		l3.3-1.1c6.2,0,10.8,6.4,7.9,12.7c-0.7,1.5-1.9,2.8-3.4,3.6c-6.5,3.5-13.2-1.4-13.2-7.6c0-4.8,4-8.8,8.8-8.8"/>
	<path class="st1" d="M203.5,130h73.9c0,0-7.8,118.4-6.6,151.4c0.3,9.1,4.6,50.2-9.5,90.7c-4.4,12.9,26.9,8.2,34.4,0.2
		c2.2-2.4,3.1-3.3,6.3-13.2c0.1-0.2,0.2-0.5,0.2-0.6c2.6-46.2,0.2-48.6-1.9-71.3c-2.3-24-8.1-156.1-8.1-156.1h72.6
		c8.5,0,30.2,0,30.2-21c0-14.4-12.4-14.4-24.3-14.4H157.5c-27,0.6-43.2,12.1-52.5,31.8c-8.1,17.1,3.2,57.2,4.7,60.8
		c2.1,5.3,8.7,11.6,12.5,10.5c5.5-1.5,3.8-0.5,2.5-5.4c0.1-52.9-9.2-62.4,27.5-62.3h36.7c-14.4,48.7-5,118.5-15.3,139
		c-5.2,10.4-37.3,91.6-37.3,95.5c0,13.7,11.7,16.9,17.6,16.9c18.8,0,30.7-24.5,38-51.9c8-29.7,7.8-39.6,14.3-65.6l-2.4-133.9"/>
	<path d="M204.6,116.4c1.1,3.4-1,1.3,8,1.1c9.4-0.1,11.4,4.6,16,2.3v-3.4c-6.8-1.1-10.9-3.4-17.1-3.4c-4.4,0-3.4,0-6.8,0"/>
</g>
</svg>
