<?xml version="1.0" encoding="utf-8"?>
<!-- Generator: Adobe Illustrator 22.1.0, SVG Export Plug-In . SVG Version: 6.00 Build 0)  -->
<svg version="1.0" id="Layer_1" xmlns="http://www.w3.org/2000/svg" xmlns:xlink="http://www.w3.org/1999/xlink" x="0px" y="0px"
	 viewBox="0 0 480 480" style="enable-background:new 0 0 480 480;" xml:space="preserve">
<style type="text/css">
	.st0{fill:#FFFFFF;}
	.st1{fill:#0C7F99;}
</style>
<g>
	<path class="st0" d="M255.7,113.6c0,4.6-1.4,8.8-3.7,12.3l-30.4,0.3c-2.6-3.4-4-7.9-4-12.6c0-11.4,8.5-20.6,19-20.6
		C247.2,93,255.7,102.3,255.7,113.6z"/>
	<path class="st0" d="M310.7,114.6c0,4.2-1.4,8.2-3.7,11.3l-30.4,0.3c-2.6-3.1-4-7.3-4-11.6c0-10.5,8.5-19,19-19
		C302.2,95.5,310.7,104.1,310.7,114.6z"/>
	<path d="M243.1,105.7c-1.3,0.1-2.3,1.1-2.3,2.4s1.1,2.4,2.4,2.4c1.3,0,2.4-1.1,2.4-2.4S244.5,105.7,243.1,105.7L243.1,105.7l2.9-1
		c4.3,0,7.7,3.5,7.7,7.7s-3.5,7.7-7.7,7.7s-7.7-3.5-7.7-7.7s3.5-7.7,7.7-7.7"/>
	<path d="M300.1,103.7c-1.3,0.1-2.3,1.1-2.3,2.4s1.1,2.4,2.4,2.4s2.4-1.1,2.4-2.4s-1.1-2.4-2.4-2.4H300.1l2.9-1
		c4.3,0,7.7,3.5,7.7,7.7s-3.5,7.7-7.7,7.7s-7.7-3.5-7.7-7.7s3.5-7.7,7.7-7.7"/>
	<path class="st1" d="M231.9,157.1h64.4c-15.4,63.8-25.1,105.4-25.1,151c0,8,0,69.5,23.4,69.5c12,0,22.2-10.8,22.2-20.5
		c0-2.8,0-4-4-12.5c-15.4-39.3-15.4-88.3-15.4-92.3c0-3.4,0-43.9,12-95.1h63.8c7.4,0,28.6-15.5,28.6-33.8c0-12.5-13.3,3-23.5,3
		c0,0-163.8-6.3-189.3,5.6c-12.1,5.7-19,11-30,32c-8,19-1.8,53,0.2,55.9c2,2.8,5,2.1,7.8,0c3.2-2.4,3.9-4.1,3-8.5
		c-8.2-36.3,8.7-54.4,23-54.4l25.8,0.2c-12.5,42.7-26.8,92.3-73.5,192c-4.6,9.1-4.6,10.3-4.6,13.7c0,12,10.3,14.8,15.4,14.8
		c16.5,0,21.1-14.8,27.9-38.7c9.1-29.1,9.1-30.2,14.8-53L231.9,157.1"/>
	<path d="M234,149c0.7,1,3,2,5,2c3,0,9,0,9-4l-0.1-2c0.1-2-7.3-3-9.9-3c-1.8,0-4,2-4,5"/>
</g>
</svg>
