<?xml version="1.0" encoding="utf-8"?>
<!-- Generator: Adobe Illustrator 19.1.0, SVG Export Plug-In . SVG Version: 6.00 Build 0)  -->
<svg version="1.1" id="Layer_1" xmlns="http://www.w3.org/2000/svg" xmlns:xlink="http://www.w3.org/1999/xlink" x="0px" y="0px"
	 viewBox="0 0 480 480" style="enable-background:new 0 0 480 480;" xml:space="preserve">
<style type="text/css">
	.st0{fill:#FFFFFF;}
	.st1{fill:#0C7F99;}
</style>
<path class="st0" d="M258.6,128.2c0,3.3-1.4,6.4-3.7,8.9l-30.4,0.2c-2.6-2.4-4-5.7-4-9.1c0-8.3,8.5-10.3,19-10.9
	C249.9,116.7,258.6,119.9,258.6,128.2z"/>
<path class="st0" d="M313.6,128.2c0,3.3-1.4,6.4-3.7,8.9l-30.4,0.2c-2.6-2.4-4-5.7-4-9.1c0-8.3,9.3-10.8,19.3-10.9
	C305.6,117.1,313.6,119.9,313.6,128.2z"/>
<path d="M248,121.4c-1.8,0.1-3.1,2.3-1.6,4.2c2.6,2,5.6-1,3.6-3.6C249.3,121.5,248.7,121.3,248,121.4l2.9-1c6.1,0,10.5,7,5.6,13.4
	c-6.4,4.8-13.4,0.4-13.4-5.6c0-4.3,3.5-7.7,7.7-7.7"/>
<path d="M303,121.4c-1.8,0.1-3.1,2.3-1.6,4.2c2.6,2,5.6-1,3.6-3.6C304.3,121.5,303.7,121.3,303,121.4l2.9-1c6.1,0,10.5,7,5.6,13.4
	c-6.4,4.8-13.4,0.4-13.4-5.6c0-4.3,3.5-7.7,7.7-7.7"/>
<path class="st1" d="M237.2,161.6h64.4c-15.4,63.8-25.1,105.4-25.1,151c0,8,0,69.5,23.4,69.5c12,0,22.2-10.8,22.2-20.5
	c0-2.8,0-4-4-12.5c-15.4-39.3-17.4-88.3-17.4-92.3c0-3.4,2-43.9,14-95.1l17.8-0.2c18.8,3.4,35.2,12.2,35.2-6
	c0-12.5-24.8-18.5-35.1-18.5l-137,0.2c-13.1,0-27.4,9-36.1,40.5c-2.8,10.1-10,44.9-10,48.3s2.8,4.6,6.3,4.6c4,0,6.4-0.8,7.4-5.1
	c11.7-48.7,14.2-63.7,28.5-63.7h32.5c-12.5,42.7-26.8,92.3-73.5,192c-4.6,9.1-4.6,10.3-4.6,13.7c0,12,10.3,14.8,15.4,14.8
	c16.5,0,21.1-14.8,27.9-38.7c9.1-29.1,9.1-30.2,14.8-53L237.2,161.6"/>
<path d="M253.3,155.1c5.5,0,1.9-0.9,13.5-1c10.3-0.1,12.4,0.9,15.7,0.8c0,0-0.3-3.1-0.3-3.1c-3.7,0.1-9.3-0.8-14.7-0.8
	c-3.9,0-8.5,1-14.6,1"/>
</svg>
