<?xml version="1.0" encoding="utf-8"?>
<!-- Generator: Adobe Illustrator 22.1.0, SVG Export Plug-In . SVG Version: 6.00 Build 0)  -->
<svg version="1.0" id="Layer_1" xmlns="http://www.w3.org/2000/svg" xmlns:xlink="http://www.w3.org/1999/xlink" x="0px" y="0px"
	 viewBox="0 0 480 480" style="enable-background:new 0 0 480 480;" xml:space="preserve">
<style type="text/css">
	.st0{fill:#FFFFFF;}
	.st1{fill:#0C7F99;}
</style>
<path class="st0" d="M247.6,102.2c0,4.1-1.4,7.8-3.7,10.8l-30.4,0.3c-2.6-3-4-6.9-4-11.1c0-10,9.3-15.1,19.1-17.4
	C241.7,81.8,247.6,92.2,247.6,102.2z"/>
<path class="st0" d="M302.6,102.2c0,4.1-1.4,7.8-3.7,10.8l-30.4,0.3c-2.6-3-4-6.9-4-11.1c0-10,9.6-20.8,19.7-18
	C300.2,88.5,302.6,92.2,302.6,102.2z"/>
<path d="M230,93c-1.3,0.1-2.3,1.1-2.3,2.3c0,1.3,1.1,2.3,2.4,2.3c1.3,0,2.4-1,2.4-2.3s-1.1-2.3-2.4-2.3C230.1,93,230,93,230,93
	l2.9-1c4.3,0,7.7,3.3,7.7,7.4c0,4.1-3.5,7.4-7.7,7.4s-7.7-3.3-7.7-7.4c0-4.1,3.5-7.4,7.7-7.4"/>
<path d="M285,91.9c-1.3,0.1-2.3,1.1-2.3,2.2c0,1.2,1.1,2.3,2.4,2.3s2.4-1,2.4-2.3c0-1.2-1.1-2.3-2.4-2.3
	C285.1,91.9,285,91.9,285,91.9l2.9-0.9c4.3,0,7.7,3.2,7.7,7.1c0,3.9-3.5,7.1-7.7,7.1s-7.7-3.2-7.7-7.1c0-3.9,3.5-7.1,7.7-7.1"/>
<path class="st1" d="M224.7,144.4h64.4c-15.4,63.8-25.1,105.4-25.1,151c0,8,0,69.5,23.4,69.5c12,0,22.2-10.8,22.2-20.5
	c0-2.8,0-4-4-12.5c-15.4-39.3-15.4-88.3-15.4-92.3c0-3.4,0-43.9,12-95.1l29.8-0.1c-57.8,41.8-30.4,38.9-14.2,28.6
	c46.8-29.8,45.4-59.5,22.9-59.4l-157,0.1c-13.1,0-38.5,10.8-31.6,37.9c4.7,18.4,23.7,24,36.5,25c11.4,0.9,35.3,2.8,38.7,2.8
	c4,0,6.4-4,2.2-5.5c-39.5-14.2-64.6-29.4-50.4-29.4h32.5c-12.5,42.7-26.8,92.3-73.5,192c-4.6,9.1-4.6,10.3-4.6,13.7
	c0,12,10.3,14.8,15.4,14.8c16.5,0,21.1-14.8,27.9-38.7c9.1-29.1,9.1-30.2,14.8-53L224.7,144.4"/>
<path d="M242.3,136.1c5.7,1.6,8.1,2,14.4,2.1c6.6,0.1,11.7-1.2,14.8-2.2c0,0-0.3-3.1-0.3-3.1c-2.9,1.7-9.5,3-14.9,3.1
	c-4,0.1-8.5-0.6-14.4-2.9"/>
</svg>
