<?xml version="1.0" encoding="utf-8"?>
<!-- Generator: Adobe Illustrator 22.1.0, SVG Export Plug-In . SVG Version: 6.00 Build 0)  -->
<svg version="1.0" id="Layer_1" xmlns="http://www.w3.org/2000/svg" xmlns:xlink="http://www.w3.org/1999/xlink" x="0px" y="0px"
	 viewBox="0 0 480 480" style="enable-background:new 0 0 480 480;" xml:space="preserve">
<style type="text/css">
	.st0{fill:#FFFFFF;}
	.st1{fill:#0C7F99;}
</style>
<path class="st0" d="M254.6,115.1c0,3.7-1.4,7.2-3.7,10l-30.4,0.3c-2.6-2.7-4-6.4-4-10.3c0-9.3,9-19.7,19-16.8
	C245,101,254.6,105.8,254.6,115.1z"/>
<path class="st0" d="M309.6,115.1c0,3.7-1.4,7.2-3.7,10l-30.4,0.3c-2.6-2.7-4-6.4-4-10.3c0-9.3,9.5-15.1,19-16.8
	C300.9,96.4,309.6,105.8,309.6,115.1z"/>
<path d="M242,102.8c-1.3,0.1-2.3,1.1-2.3,2.4c0,1.3,1.1,2.4,2.4,2.4c1.3,0,2.4-1.1,2.4-2.4c0-1.3-1.1-2.4-2.4-2.4
	C242.1,102.8,242,102.8,242,102.8l2.9-1c4.3,0,7.7,3.5,7.7,7.7s-3.5,7.7-7.7,7.7s-7.7-3.5-7.7-7.7s3.5-7.7,7.7-7.7"/>
<path d="M297,102.8c-1.3,0.1-2.3,1.1-2.3,2.4c0,1.3,1.1,2.4,2.4,2.4s2.4-1.1,2.4-2.4c0-1.3-1.1-2.4-2.4-2.4
	C297.1,102.8,297,102.8,297,102.8l2.9-1c4.3,0,7.7,3.5,7.7,7.7s-3.5,7.7-7.7,7.7s-7.7-3.5-7.7-7.7s3.5-7.7,7.7-7.7"/>
<path class="st1" d="M231.4,156.1h64.4c-15.4,63.8-25.1,105.4-25.1,151c0,8,0,69.5,23.4,69.5c12,0,22.2-10.8,22.2-20.5
	c0-2.8,0-4-4-12.5c-15.4-39.3-15.4-88.3-15.4-92.3c0-3.4,0-43.9,12-95.1h38.8C314,211,359,181,368,162c5.4-11.3-15.9-36.7-26.2-36.7
	H190.4C171,130,155,141,148.7,153.2c-10.1,19.7,23.1,44.3,26.3,45.6c3.1,1.3,5.3-0.8,6.6-4c1.6-3.7,0.8-5.3-1.8-8.8
	c-21.8-29-8.2-30,6-30h32.5c-12.5,42.7-26.8,92.3-73.5,192c-4.6,9.1-4.6,10.3-4.6,13.7c0,12,10.3,14.8,15.4,14.8
	c16.5,0,21.1-14.8,27.9-38.7c9.1-29.1,9.1-30.2,14.8-53L231.4,156.1"/>
<path d="M248,147c0.7,0.9,7,4,11.8,4.1c10.3,0.2,10.2-1.1,13.2-3.1c0,0,0-3,0-3c-4.3,2.2-7,3-12.4,3c-3.9,0-6.6-1-12.6-4"/>
</svg>
