<?xml version="1.0" encoding="utf-8"?>
<!-- Generator: Adobe Illustrator 22.1.0, SVG Export Plug-In . SVG Version: 6.00 Build 0)  -->
<svg version="1.0" id="Layer_1" xmlns="http://www.w3.org/2000/svg" xmlns:xlink="http://www.w3.org/1999/xlink" x="0px" y="0px"
	 viewBox="0 0 480 480" style="enable-background:new 0 0 480 480;" xml:space="preserve">
<style type="text/css">
	.st0{fill:#FFFFFF;}
	.st1{fill:#0C7F99;}
</style>
<g>
	<path class="st0" d="M270.9,121.4c0,4.2-1.4,8.2-3.7,11.3l-30.4,0.3c-2.6-3.1-4-7.3-4-11.6c0-10.5,8.5-19,19-19
		C262.4,102.3,270.9,110.9,270.9,121.4z"/>
	<path class="st0" d="M325.9,121.4c0,4.2-1.4,8.2-3.7,11.3l-30.4,0.3c-2.6-3.1-4-7.3-4-11.6c0-10.5,8.5-19,19-19
		C317.4,102.3,325.9,110.9,325.9,121.4z"/>
	<path d="M258.3,108.5c-1.3,0.1-2.3,1.1-2.3,2.4s1.1,2.4,2.4,2.4c1.3,0,2.4-1.1,2.4-2.4S259.7,108.5,258.3,108.5L258.3,108.5l2.9-1
		c4.3,0,7.7,3.5,7.7,7.7s-3.5,7.7-7.7,7.7c-4.2,0-7.7-3.5-7.7-7.7s3.5-7.7,7.7-7.7"/>
	<path d="M313.3,108.5c-1.3,0.1-2.3,1.1-2.3,2.4s1.1,2.4,2.4,2.4s2.4-1.1,2.4-2.4s-1.1-2.4-2.4-2.4H313.3l2.9-1
		c4.3,0,7.7,3.5,7.7,7.7s-3.5,7.7-7.7,7.7s-7.7-3.5-7.7-7.7s3.5-7.7,7.7-7.7"/>
	<path class="st1" d="M247.7,163.8h64.4c-15.4,63.8-25.1,105.4-25.1,151c0,8-3.4,36,16.3,48.5c9.9,6.3,29.3,10.1,29.3,0.4
		c0-2.8,0-4-4-12.5c-15.4-39.3-15.4-88.3-15.4-92.3c0-3.4,0-43.9,12-95.1H389c7.4,0,26.2,0,26.2-18.2c0-12.5-10.8-12.5-21.1-12.5
		H206.7c-13.1,0-18.5,0.1-37-4.8c-17.6-4.9-19.7-17.4-33-11.1c-6.3,3-1.3,15.2,7.5,23c17.4,15.1,27.2,16.4,31.4,17.8
		c15.3,4.9,17.6,5.5,26.4,5.9h32.5c-12.5,42.7-26.8,92.3-73.5,192c-4.6,9.1-4.6,10.3-4.6,13.7c0,12,10.3,14.8,15.4,14.8
		c16.5,0,21.1-14.8,27.9-38.7c9.1-29.1,9.1-30.2,14.8-53L247.7,163.8"/>
	<path d="M262,151.1c2.5,1.6,8.6,3.7,14.4,3.6c5.2-0.1,12.8-1.7,15.1-2.9l0.2-3.2c-5.5,2.4-13.1,3.1-15.5,3.1
		c-1.9,0-10.5-1.8-14.1-3.5"/>
</g>
</svg>
