<?xml version="1.0" encoding="utf-8"?>
<!-- Generator: Adobe Illustrator 22.1.0, SVG Export Plug-In . SVG Version: 6.00 Build 0)  -->
<svg version="1.0" id="Layer_1" xmlns="http://www.w3.org/2000/svg" xmlns:xlink="http://www.w3.org/1999/xlink" x="0px" y="0px"
	 viewBox="0 0 480 480" style="enable-background:new 0 0 480 480;" xml:space="preserve">
<style type="text/css">
	.st0{fill:#FFFFFF;}
	.st1{fill:#0C7F99;}
</style>
<g>
	<path class="st0" d="M169.2,154.3c3.1,2.9,4.9,6.7,5.6,10.6L154,187c-4-0.3-8-2.2-11.1-5.2c-7.6-7.3-7.9-19.3-0.6-26.9
		C149.6,147.3,161.6,147,169.2,154.3z"/>
	<path class="st0" d="M207.3,114.6c3.1,2.9,4.9,6.7,5.6,10.6l-20.8,22.1c-4-0.3-8-2.2-11.1-5.2c-7.6-7.3-7.9-19.3-0.6-26.9
		C187.6,107.6,199.7,107.3,207.3,114.6z"/>
	<path d="M149.1,153.9c-0.8,1-0.7,2.4,0.2,3.3c1,0.9,2.5,0.9,3.5-0.1s0.9-2.5-0.1-3.5c-1-0.9-2.5-0.9-3.5,0.1
		C149.2,153.8,149.1,153.8,149.1,153.9l1.3-2.8c2.9-3.1,7.8-3.2,10.9-0.2s3.2,7.8,0.2,10.9c-2.9,3.1-7.8,3.2-10.9,0.2
		c-3.1-2.9-3.2-7.8-0.2-10.9"/>
	<path d="M187.1,114.2c-0.8,1-0.7,2.4,0.2,3.3c1,0.9,2.5,0.9,3.5-0.1c0.9-1,0.9-2.5-0.1-3.5c-1-0.9-2.5-0.9-3.5,0.1
		C187.2,114.1,187.2,114.1,187.1,114.2l1.3-2.8c2.9-3.1,7.8-3.2,10.9-0.2c3.1,2.9,3.2,7.8,0.2,10.9c-2.9,3.1-7.8,3.2-10.9,0.2
		s-3.2-7.8-0.2-10.9"/>
	<path class="st1" d="M183.8,200.4l44.5-46.5C263.7,209.1,287,245,320,276.4c23.3,22.2,98,1.9,91.1-20.4
		c-3.5-11.4-16.9-18-26.2-15.1c-2.7,0.8-3.8,1.2-10.8,7.5c-33,26.3-73.5-26.7-76.3-29.5c-2.5-2.4-31.7-30.3-60.4-74.4l47.1-50.7
		c9.2-10.3,3.3-33.7-9.9-46.3c-9.1-8.7-4.4,19.2-23.1,38.8L133.2,208.7c-9.1,9.5-11.6,12.5-18.7,17.1c-9.7,6.2-20.3,10.4-23.6,11.5
		s-3.5,4.1-2.5,7.3c1.2,3.8,2.7,6,7.1,5.6c47.8-5.3,46.3-6.7,56.8-16.9l22.5-23.5c22.2,38.6,23.4,106.9,24,122.4
		c0.4,10.2,1.2,63.5,2,66.8c2.5,11.7,13.2,12.3,18.2,11.2c16.1-3.5,13.5-15.9,12.7-40.8c-0.9-26.2-3.4-63.4-4.1-67.6
		C221.2,263.5,183.8,200.4,183.8,200.4"/>
	<path d="M185.9,183.7c0.7,0.6,7.5,0.4,15.2-8.2c6.2-7,6.5-9,5.1-13.3l-2.3-3.4c-2.5,2.7-8.5,10.1-12.9,14.3c-3,3-7,7.1-7.5,8"/>
</g>
</svg>
