<?xml version="1.0" encoding="utf-8"?>
<!-- Generator: Adobe Illustrator 22.1.0, SVG Export Plug-In . SVG Version: 6.00 Build 0)  -->
<svg version="1.0" id="Layer_1" xmlns="http://www.w3.org/2000/svg" xmlns:xlink="http://www.w3.org/1999/xlink" x="0px" y="0px"
	 viewBox="0 0 480 480" style="enable-background:new 0 0 480 480;" xml:space="preserve">
<style type="text/css">
	.st0{fill:#FFFFFF;}
	.st1{fill:#0C7F99;}
</style>
<path class="st0" d="M253.6,123c0,3.8-1.4,7.3-3.7,10.1l-30.4,0.3c-2.6-2.8-4-6.4-4-10.3c0-9.3,9.1-13.3,19-16.9
	C244.4,102.5,253.6,113.7,253.6,123z"/>
<path class="st0" d="M308.6,123.6c0,3.5-1.4,6.8-3.7,9.5l-30.4,0.2c-2.6-2.6-4-6-4-9.7c0-8.8,9-19.1,19-15.9
	C299.6,111,308.6,114.8,308.6,123.6z"/>
<path d="M242,114.8c-1.3,0.1-2.3,1.1-2.3,2.4c0,1.3,1.1,2.4,2.4,2.4c1.3,0,2.4-1.1,2.4-2.4c0-1.3-1.1-2.4-2.4-2.4
	C242.1,114.8,242,114.8,242,114.8l2.9-1c4.3,0,7.7,3.5,7.7,7.7s-3.5,7.7-7.7,7.7s-7.7-3.5-7.7-7.7s3.5-7.7,7.7-7.7"/>
<path d="M297,114.8c-1.3,0.1-2.3,1.1-2.3,2.4c0,1.3,1.1,2.4,2.4,2.4s2.4-1.1,2.4-2.4c0-1.3-1.1-2.4-2.4-2.4
	C297.1,114.8,297,114.8,297,114.8l2.9-1c4.3,0,7.7,3.5,7.7,7.7s-3.5,7.7-7.7,7.7s-7.7-3.5-7.7-7.7s3.5-7.7,7.7-7.7"/>
<path class="st1" d="M230.4,164.1h64.4c-15.4,63.8-25.1,105.4-25.1,151c0,8,0,69.5,23.4,69.5c12,0,22.2-10.8,22.2-20.5
	c0-2.8,0-4-4-12.5c-15.4-39.3-15.4-88.3-15.4-92.3c0-3.4,0-43.9,12-95.1l65.7-1.8c7.4,0,18.3,1.8,18.3-16.4
	c0-12.5-5.2-12.7-15.5-12.7l-187,0.1c-13.1,0-27.2,8.6-41.3,25.7c-14.1,17.1-14.5,49.1-12.8,52.1c3,5.2,6,11.4,14.8,8.4
	c3.8-1.3,0.5-4,1-8.4c3.4-29.9,19.5-47.1,33.7-47.1h32.5c-12.5,42.7-2.8,92.3-49.5,192c-4.6,9.1-4.6,10.3-4.6,13.7
	c0,12,10.3,14.8,15.4,14.8c16.5,0,21.1-14.8,27.9-38.7c9.1-29.1,8.1-30.2,13.8-53L230.4,164.1"/>
<path d="M248.3,156.1c5.5,0,8.8-3.1,13.5-3c8.4,0.1,10.6,3,15.7,2.8c0,0-0.3-3.1-0.3-3.1c-3.5-1.7-9.3-2.8-14.7-2.8
	c-3.9,0-8.4,1.3-14.6,3"/>
</svg>
