<?xml version="1.0" encoding="utf-8"?>
<!-- Generator: Adobe Illustrator 22.1.0, SVG Export Plug-In . SVG Version: 6.00 Build 0)  -->
<svg version="1.0" id="Layer_1" xmlns="http://www.w3.org/2000/svg" xmlns:xlink="http://www.w3.org/1999/xlink" x="0px" y="0px"
	 viewBox="0 0 480 480" style="enable-background:new 0 0 480 480;" xml:space="preserve">
<style type="text/css">
	.st0{fill:#FFFFFF;}
	.st1{fill:#0C7F99;}
</style>
<path class="st0" d="M237.6,109.7c0,4.2-1.4,8.2-3.7,11.3l-30.4,0.3c-2.6-3.1-4-7.3-4-11.6c0-10.5,8.5-19,19-19
	C229.1,90.6,237.6,99.2,237.6,109.7z"/>
<path class="st0" d="M292.6,109.7c0,4.2-1.4,8.2-3.7,11.3l-30.4,0.3c-2.6-3.1-4-7.3-4-11.6c0-10.5,8.5-19,19-19
	C284.1,90.6,292.6,99.2,292.6,109.7z"/>
<path d="M224,94.8c-1.3,0.1-2.3,1.1-2.3,2.4c0,1.3,1.1,2.4,2.4,2.4c1.3,0,2.4-1.1,2.4-2.4c0-1.3-1.1-2.4-2.4-2.4
	C224.1,94.8,224,94.8,224,94.8l2.9-1c4.3,0,7.7,3.5,7.7,7.7s-3.5,7.7-7.7,7.7s-7.7-3.5-7.7-7.7s3.5-7.7,7.7-7.7"/>
<path d="M279,94.8c-1.3,0.1-2.3,1.1-2.3,2.4c0,1.3,1.1,2.4,2.4,2.4s2.4-1.1,2.4-2.4c0-1.3-1.1-2.4-2.4-2.4
	C279.1,94.8,279,94.8,279,94.8l2.9-1c4.3,0,7.7,3.5,7.7,7.7s-3.5,7.7-7.7,7.7s-7.7-3.5-7.7-7.7s3.5-7.7,7.7-7.7"/>
<path class="st1" d="M214.4,152.1h64.4c-15.4,63.8-25.1,105.4-25.1,151c0,8,0,69.5,23.4,69.5c12,0,22.2-10.8,22.2-20.5
	c0-2.8,0-4-4-12.5c-15.4-39.3-15.4-88.3-15.4-92.3c0-3.4,0-43.9,12-95.1l69.2-1c13.8-0.4,26.6-20.9,26.6-39.2
	c0-12.5-16.9,10.1-44,10.1l-170.3-0.7c-13.1,0-18.4,0.9-24.3-5.3c-10.2-10.8-4.8-19.3-4.8-22.7c0-3.4-2.8-4.6-6.3-4.6
	c-4,0-6.6,0.8-7.4,5.1c-9.1,47.2,23.5,57.6,38.2,58.2h32.5c-12.5,42.7-26.8,92.3-73.5,192c-4.6,9.1-4.6,10.3-4.6,13.7
	c0,12,10.3,14.8,15.4,14.8c16.5,0,21.1-14.8,27.9-38.7c9.1-29.1,9.1-30.2,14.8-53L214.4,152.1"/>
<path d="M227.9,142c0,0.9,4.9,5.7,16.4,5.3c9.3-0.4,11-1.5,13.1-5.5c0,0,0.9-4,0.9-4c-3.7,0.1-13.2,0.8-19.3,0.6
	c-4.2-0.1-10-0.1-11,0.1"/>
</svg>
