<?xml version="1.0" encoding="utf-8"?>
<!-- Generator: Adobe Illustrator 22.1.0, SVG Export Plug-In . SVG Version: 6.00 Build 0)  -->
<svg version="1.0" id="Layer_1" xmlns="http://www.w3.org/2000/svg" xmlns:xlink="http://www.w3.org/1999/xlink" x="0px" y="0px"
	 viewBox="0 0 480 480" style="enable-background:new 0 0 480 480;" xml:space="preserve">
<style type="text/css">
	.st0{fill:#FFFFFF;}
	.st1{fill:#0C7F99;}
</style>
<path class="st0" d="M267.6,119c0,2.7-1.4,5.1-3.7,7.1l-30.4,0.2c-2.6-2-4-4.6-4-7.3c0-6.6,8.6-11,19-12
	C259,106,267.6,112.4,267.6,119z"/>
<path class="st0" d="M322.6,119c0,2.7-1.4,5.1-3.7,7.1l-30.4,0.2c-2.6-2-4-4.6-4-7.3c0-6.6,8.6-13,19-12
	C314,108,322.6,112.4,322.6,119z"/>
<path d="M256,111.8c-1.3,0.1-2.3,1.1-2.3,2.4c0,1.3,1.1,2.4,2.4,2.4s2.4-1.1,2.4-2.4c0-1.3-1.1-2.4-2.4-2.4
	C256.1,111.8,256,111.8,256,111.8l2.9-1c4.3,0,7.7,3.5,7.7,7.7s-3.5,7.7-7.7,7.7s-7.7-3.5-7.7-7.7s3.5-7.7,7.7-7.7"/>
<path d="M311,111.8c-1.3,0.1-2.3,1.1-2.3,2.4c0,1.3,1.1,2.4,2.4,2.4s2.4-1.1,2.4-2.4c0-1.3-1.1-2.4-2.4-2.4
	C311.1,111.8,311,111.8,311,111.8l2.9-1c4.3,0,7.7,3.5,7.7,7.7s-3.5,7.7-7.7,7.7s-7.7-3.5-7.7-7.7s3.5-7.7,7.7-7.7"/>
<path class="st1" d="M244.4,147.1h64.4c-15.4,63.8-25.1,105.4-25.1,151c0,8,0,69.5,23.4,69.5c12,0,22.2-10.8,22.2-20.5
	c0-2.8,0-4-4-12.5c-15.4-39.3-15.4-88.3-15.4-92.3c0-3.4,0-43.9,12-95.1l43.8,2c7.4,0,23.5,12.2,18.2-5.2C380,131,376,130,371,128
	c-6.5-2.6-167.6-1.7-167.6-1.7c-13.1,0-31.4,16.7-41.7,30.9c-13,18-16.3,39.8-15.3,43.1c0.9,3.3,4,3.6,7.3,2.7
	c3.8-1.1,3.9-2.9,5.7-7c15.6-53.1,39.2-48.9,53.5-48.9h18.5c-12.5,42.7-26.8,92.3-73.5,192c-4.6,9.1-4.6,10.3-4.6,13.7
	c0,12,10.3,14.8,15.4,14.8c16.5,0,21.1-14.8,27.9-38.7c9.1-29.1,9.1-30.2,14.8-53L244.4,147.1"/>
<path d="M262.3,139.1c5.7-1.1,1.9-0.9,13.5-1c10.3-0.1,11.2-0.1,14.7,0.8c0,0,0.7-3.1,0.7-3.1c-3.7,0.1-9.3,0.2-14.7,0.2
	c-3.9,0-8.5,0-14.6,0"/>
</svg>
