<?xml version="1.0" encoding="utf-8"?>
<!-- Generator: Adobe Illustrator 22.1.0, SVG Export Plug-In . SVG Version: 6.00 Build 0)  -->
<svg version="1.0" id="Layer_1" xmlns="http://www.w3.org/2000/svg" xmlns:xlink="http://www.w3.org/1999/xlink" x="0px" y="0px"
	 viewBox="0 0 480 480" style="enable-background:new 0 0 480 480;" xml:space="preserve">
<style type="text/css">
	.st0{fill:#FFFFFF;}
	.st1{fill:#0C7F99;}
</style>
<g>
	<path class="st0" d="M240.3,112.1c0,4.2-1.4,8.1-3.7,11.2l-30.4,0.3c-2.6-3.1-4-7.2-4-11.5c0-10.4,9.4-14.3,19.9-14.7
		C232.3,97.2,240.3,101.7,240.3,112.1z"/>
	<path class="st0" d="M295.3,112.1c0,4.2-1.4,8.1-3.7,11.2l-30.4,0.3c-2.6-3.1-4-7.2-4-11.5c0-10.4,8.2-15.4,18.7-15.4
		S295.3,101.7,295.3,112.1z"/>
	<path d="M227.7,100.4c-1.3,0.1-2.3,1.1-2.3,2.4s1.1,2.4,2.4,2.4c1.3,0,2.4-1.1,2.4-2.4S229.1,100.4,227.7,100.4
		C227.8,100.4,227.7,100.4,227.7,100.4l2.9-1c4.3,0,7.7,3.4,7.7,7.6s-3.5,7.6-7.7,7.6s-7.7-3.4-7.7-7.6s3.5-7.6,7.7-7.6"/>
	<path d="M282.7,100.7c-1.3,0.1-2.3,1-2.3,2.1c0,1.2,1.1,2.1,2.4,2.1s2.4-0.9,2.4-2.1s-1.1-2.1-2.4-2.1H282.7l2.9-0.9
		c4.3,0,7.7,3,7.7,6.6s-3.5,6.6-7.7,6.6s-7.7-3-7.7-6.6s3.5-6.6,7.7-6.6"/>
	<path class="st1" d="M217.1,154.4h64.4c-10.7,64.1-8,90.9-10,130.4c-1.3,26.6-15.3,68.7,3.8,82.1c5.5,3.9,6.4,3.4,14.1,2.2
		c5.7-0.9,8.9-2.2,10.6-12.2c5.1-29.9-3.2-48.6-3.9-82.2c-0.4-19.6-13.5-69-1.5-120.2h63.8c7.4,0,26-5.6,26-23.8
		c0-12.5-10.7-7-20.9-7H176.1c-13.1,0-40.2,18.8-47.3,40.2c-5.7,17.2,28.5,34.3,31.8,37.3c2.5,2.3,9.7,5,13.1,5c4,0,11-2.6,7.4-5.1
		c-31.6-22.4-34.4-47.8-9.5-46.7h32.5c-12.5,42.7-5.4,92.1-30,188.6c-2.5,9.9-2.8,19.8-2.8,23.2c0,12,18.1,7,23.2,7
		c16.5,0,10.9-17.6,12-23.9c2.8-16.2,1.3-31.5,3.3-57.3L217.1,154.4"/>
	<path d="M214.9,146c0.8,0.7,4.5,1.1,8.8,1.2c4,0.1,6.1-0.6,10.7-1.1v-2.5c-5.3-0.2-8.2-1-11.7-1.1c-4-0.1-7.4-0.3-8.2,0.5"/>
</g>
</svg>
