<?xml version="1.0" encoding="utf-8"?>
<!-- Generator: Adobe Illustrator 22.1.0, SVG Export Plug-In . SVG Version: 6.00 Build 0)  -->
<svg version="1.1" id="Layer_1" xmlns="http://www.w3.org/2000/svg" xmlns:xlink="http://www.w3.org/1999/xlink" x="0px" y="0px"
	 viewBox="0 0 480 480" style="enable-background:new 0 0 480 480;" xml:space="preserve">
<style type="text/css">
	.st0{fill:#FFFFFF;}
	.st1{fill:#0C7F99;}
</style>
<path class="st0" d="M261.9,143.3c0,4.2-1.4,8.2-3.7,11.3l-30.4,0.3c-2.6-3.1-4-7.3-4-11.6c0-10.5,8.5-19,19-19
	C253.4,124.2,261.9,132.8,261.9,143.3z"/>
<path class="st0" d="M315.9,144.3c0,4.2-1.4,8.2-3.7,11.3l-30.4,0.3c-2.6-3.1-4-7.3-4-11.6c0-10.5,8.5-19,19-19
	C307.4,125.2,315.9,133.8,315.9,144.3z"/>
<path d="M248.3,128.4c-1.3,0.1-2.3,1.1-2.3,2.4s1.1,2.4,2.4,2.4c1.3,0,2.4-1.1,2.4-2.4S249.7,128.4,248.3,128.4L248.3,128.4l2.9-1
	c4.3,0,7.7,3.5,7.7,7.7s-3.5,7.7-7.7,7.7s-7.7-3.5-7.7-7.7s3.5-7.7,7.7-7.7"/>
<path d="M302.3,129.4c-1.3,0.1-2.3,1.1-2.3,2.4s1.1,2.4,2.4,2.4s2.4-1.1,2.4-2.4s-1.1-2.4-2.4-2.4H302.3l2.9-1
	c4.3,0,7.7,3.5,7.7,7.7s-3.5,7.7-7.7,7.7s-7.7-3.5-7.7-7.7s3.5-7.7,7.7-7.7"/>
<path class="st1" d="M236.7,182.7h64.4c-15.4,63.8-25.1,105.4-25.1,151c0,8-5.6,51.9,16.1,60.5c12,4.7,29.4,10.2,29.4,0.5
	c0-2.8,0-4-4-12.5c-15.4-39.3-15.4-100.3-15.4-104.3c0-3.4,0-43.9,12-95.1c0,0,37.9-1.8,50.9-2.8c14-2,25.1-8.7,31-21
	c2-19-17.3-19.5-25-12c-59,17-175.3,5.1-175.3,5.1c-13.1,0-32.5,0-58.7,27.9c-14.8,16.5-33,46.7-33,50.1s2.8,4.6,6.3,4.6
	c4,0,4.6-1.7,7.4-5.1c29.6-46.7,59.2-46.7,73.5-46.7h32.5c-12.5,42.7-26.8,92.3-73.5,192c-4.6,9.1-4.6,10.3-4.6,13.7
	c0,12,10.3,14.8,15.4,14.8c16.5,0,21.1-14.8,27.9-38.7c9.1-29.1,9.1-30.2,14.8-53L236.7,182.7"/>
<path d="M254,169c3,3,6.4,5.1,12,5c5-0.1,7-1,8.3-2.1l-0.1-3.1c-2.2,1.2-5.6,2.2-8.2,2.2c-1.9,0-8-2-12-5"/>
</svg>
