<?xml version="1.0" encoding="utf-8"?>
<!-- Generator: Adobe Illustrator 22.1.0, SVG Export Plug-In . SVG Version: 6.00 Build 0)  -->
<svg version="1.0" id="Layer_1" xmlns="http://www.w3.org/2000/svg" xmlns:xlink="http://www.w3.org/1999/xlink" x="0px" y="0px"
	 viewBox="0 0 480 480" style="enable-background:new 0 0 480 480;" xml:space="preserve">
<style type="text/css">
	.st0{fill:#FFFFFF;}
	.st1{fill:#0C7F99;}
</style>
<path class="st0" d="M256.6,113.7c0.3,4.2-1.4,8.2-3.7,11.3l-30.4,0.3c-2.6-3.1-4.7-7.3-4-11.6c1.5-9.1,9.9-11.5,20.5-11.6
	C251,102,256,105.4,256.6,113.7z"/>
<path class="st0" d="M311.6,115.4c0,3.6-1.4,7-3.7,9.7l-30.4,0.2c-2.6-2.7-4-6.2-4-9.9c0-9,9-13.4,19.5-13.4
	S311.6,106.4,311.6,115.4z"/>
<path d="M245,101.8c-1.3,0.1-2.3,1.1-2.3,2.4c0,1.3,1.1,2.4,2.4,2.4c1.3,0,2.4-1.1,2.4-2.4c0-1.3-1.1-2.4-2.4-2.4
	C245.1,101.8,245,101.8,245,101.8l2.9-1c4.3,0,7.7,3.5,7.7,7.7s-3.5,7.7-7.7,7.7s-7.7-3.5-7.7-7.7s3.5-7.7,7.7-7.7"/>
<path d="M300,102.8c-1.3,0.1-2.3,1.1-2.3,2.4c0,1.3,1.1,2.4,2.4,2.4s2.4-1.1,2.4-2.4c0-1.3-1.1-2.4-2.4-2.4
	C300.1,102.8,300,102.8,300,102.8l2.9-1c4.3,0,7.7,3.5,7.7,7.7s-3.5,7.7-7.7,7.7s-7.7-3.5-7.7-7.7s3.5-7.7,7.7-7.7"/>
<path class="st1" d="M233.4,156.1h64.4c-10.7,64.1-2.1,91.6-4.1,131c-1.3,26.6-32.2,68.1-13.1,81.5c5.5,3.9,6.4,3.4,14.1,2.2
	c5.7-0.9,8.9-2.2,10.6-12.2c5.1-29.9,14.1-51.3,13.3-84.8c-0.4-19.6-19.7-66.3-7.8-117.6h45.8c7.4,0,24.3,3.9,24.3-9.1
	c0-15-8.9-21.7-19.2-21.7H192.4c-13.1,0-40.2,18.8-47.3,40.2c-5.7,17.2,32.2,20.5,35.9,20.5c6,0,24.5,0.9,28,0.9
	c4,0,11.9-4.9,7.4-5.1C173,180,163,155,187.9,156.1h32.5c-12.5,42.7-5.4,92.1-30,188.6c-2.5,9.9-2.8,19.8-2.8,23.2
	c0,12,18.1,7,23.2,7c16.5,0,10.9-17.6,12-23.9c2.8-16.2,1.3-31.5,3.3-57.3L233.4,156.1"/>
<path d="M236.2,146.7c0.8,1.3-0.6,2,3.8,2.3c9,0.5,9,0,13-2c0,0,0-3,0-3c-3,1-3.9,2.1-11,2c-4-0.1-5.3-3-6.1-2.2"/>
</svg>
