<?xml version="1.0" encoding="utf-8"?>
<!-- Generator: Adobe Illustrator 22.1.0, SVG Export Plug-In . SVG Version: 6.00 Build 0)  -->
<svg version="1.0" id="Layer_1" xmlns="http://www.w3.org/2000/svg" xmlns:xlink="http://www.w3.org/1999/xlink" x="0px" y="0px"
	 viewBox="0 0 480 480" style="enable-background:new 0 0 480 480;" xml:space="preserve">
<style type="text/css">
	.st0{fill:#FFFFFF;}
	.st1{fill:#0C7F99;}
</style>
<path class="st0" d="M249.6,115.7c0,4.2-1.4,8.2-3.7,11.3l-30.4,0.3c-2.6-3.1-4-7.3-4-11.6c0-10.5,8.5-19,19-19
	C241.1,96.6,249.6,105.2,249.6,115.7z"/>
<path class="st0" d="M304.6,115.7c0,4.2-1.4,8.2-3.7,11.3l-30.4,0.3c-2.6-3.1-4-7.3-4-11.6c0-10.5,8.5-19,19-19
	C296.1,96.6,304.6,105.2,304.6,115.7z"/>
<path d="M236,100.8c-1.3,0.1-2.3,1.1-2.3,2.4c0,1.3,1.1,2.4,2.4,2.4c1.3,0,2.4-1.1,2.4-2.4c0-1.3-1.1-2.4-2.4-2.4
	C236.1,100.8,236,100.8,236,100.8l2.9-1c4.3,0,7.7,3.5,7.7,7.7s-3.5,7.7-7.7,7.7s-7.7-3.5-7.7-7.7s3.5-7.7,7.7-7.7"/>
<path d="M291,100.8c-1.3,0.1-2.3,1.1-2.3,2.4c0,1.3,1.1,2.4,2.4,2.4s2.4-1.1,2.4-2.4c0-1.3-1.1-2.4-2.4-2.4
	C291.1,100.8,291,100.8,291,100.8l2.9-1c4.3,0,7.7,3.5,7.7,7.7s-3.5,7.7-7.7,7.7s-7.7-3.5-7.7-7.7s3.5-7.7,7.7-7.7"/>
<path class="st1" d="M226.4,158.1h64.4c-15.4,63.8-25.1,105.4-25.1,151c0,8,0,69.5,23.4,69.5c12,0,22.2-10.8,22.2-20.5
	c0-2.8,0-4-4-12.5c-15.4-39.3-15.4-88.3-15.4-92.3c0-3.4,0-43.9,12-95.1l69.2-1c13.8-0.4,26.6-20.9,26.6-39.2
	c0-12.5-16.9,10.1-44,10.1l-170.3-0.7c-13.1,0-32.5,0-58.7,27.9c-14.8,16.5-14,46.7-14,50.1s2.8,4.6,6.3,4.6c4,0,6.7-0.7,7.4-5.1
	c8-47.3,40.2-46.7,54.5-46.7h32.5c-12.5,42.7-26.8,92.3-73.5,192c-4.6,9.1-4.6,10.3-4.6,13.7c0,12,10.3,14.8,15.4,14.8
	c16.5,0,21.1-14.8,27.9-38.7c9.1-29.1,9.1-30.2,14.8-53L226.4,158.1"/>
<path d="M240.3,148.3c-0.5,3.2-2.1,7.5,9.4,6.2c13.5-1.5,16.9-3.9,21.9-6.6c0,0-0.3-3.1-0.3-3.1c-3.7,0.1-11.5,0.7-16.7-0.4
	c-4.2-0.9-12.8-1-13.3,0.9"/>
</svg>
