<?xml version="1.0" encoding="utf-8"?>
<!-- Generator: Adobe Illustrator 22.1.0, SVG Export Plug-In . SVG Version: 6.00 Build 0)  -->
<svg version="1.0" id="Layer_1" xmlns="http://www.w3.org/2000/svg" xmlns:xlink="http://www.w3.org/1999/xlink" x="0px" y="0px"
	 viewBox="0 0 480 480" style="enable-background:new 0 0 480 480;" xml:space="preserve">
<style type="text/css">
	.st0{fill:#FFFFFF;}
	.st1{fill:#0C7F99;}
</style>
<g>
	<path class="st0" d="M247.4,106.7c1,4.1-1.4,8-3.7,11.1l-30.4,0.3c-2.6-3-4.1-7.1-4-11.4c0.2-9.4,10.1-6.6,16.9-6.3
		C234.3,100.8,244.1,93,247.4,106.7z"/>
	<path class="st0" d="M300.8,106.3c1.8,4.5,0.2,7.8-2.2,11.5l-30.4,0.3c-2.6-3.6-1.7-7-1.5-12.1c0.2-6.1,4.3-5.5,11.5-6
		C291.1,99.1,297.1,97.1,300.8,106.3z"/>
	<path d="M235.9,103.5c-1.5,0.1-2.6,1.5-2.2,3.1c0.2,0.8,0.9,1.5,1.7,1.7c1.8,0.5,3.4-1.1,3-3c-0.2-0.9-0.9-1.6-1.8-1.8
		C236.5,103.5,236.2,103.5,235.9,103.5l2.9-1c4.8,0,8.5,4.3,7.6,9.3c-0.6,3-3,5.4-6,6c-4.9,1-9.3-2.8-9.3-7.6c0-4.3,3.5-7.7,7.7-7.7
		"/>
	<path d="M289.8,102.5c-1.5,0.1-2.6,1.5-2.2,3.1c0.2,0.8,0.9,1.5,1.7,1.7c1.8,0.5,3.4-1.1,3-3c-0.2-0.9-0.9-1.6-1.8-1.8
		C290.3,102.5,290,102.5,289.8,102.5l2.9-1c4.8,0,8.5,4.3,7.6,9.3c-0.6,3-3,5.4-6,6c-4.9,1-9.3-2.8-9.3-7.6c0-4.3,3.5-7.7,7.7-7.7"
		/>
	<path class="st1" d="M224.2,148.9c13.1-14.1,5.8,9.4,64.4,0c2.4-0.4-25.1,105.4-25.1,151c0,8,0,69.5,23.4,69.5
		c12,0,22.2-10.8,22.2-20.5c0-2.8,0-4-4-12.5c-15.4-39.3-15.4-88.3-15.4-92.3c0-3.4,0-43.9,12-95.1h33.8c7.4,0,23.5-0.9,23.5-19.1
		c0-12.5-8.2-11.7-18.4-11.7H183.2c-13.1,0-23.9,13.2-25.6,35.7c-1.1,15.3,13.6,33.1,25.3,30.3c37.1-9.1,40.2-18.4,55.2-35
		c1.3-1.5-6.8-2.9-9.6-1.2c-15.9,10-48,22-49.8,0.9h32.5c-12.5,42.7-26.8,92.3-73.5,192c-4.6,9.1-4.6,10.3-4.6,13.7
		c0,12,10.3,14.8,15.4,14.8c16.5,0,21.1-14.8,27.9-38.7c9.1-29.1,9.1-30.2,14.8-53L224.2,148.9"/>
	<path d="M225.1,137.9c1.3,1.7,5.2,3.2,10.6,3.4c3.5,0.1,6.6,0.1,7.6-0.5l-0.3-3.1c-2.1,0.8-5,1.3-9.7,0.6c-3.5-0.5-3.9-1.1-8.3-3.3
		"/>
</g>
</svg>
