<?xml version="1.0" encoding="utf-8"?>
<!-- Generator: Adobe Illustrator 22.1.0, SVG Export Plug-In . SVG Version: 6.00 Build 0)  -->
<svg version="1.0" id="Layer_1" xmlns="http://www.w3.org/2000/svg" xmlns:xlink="http://www.w3.org/1999/xlink" x="0px" y="0px"
	 viewBox="0 0 480 480" style="enable-background:new 0 0 480 480;" xml:space="preserve">
<style type="text/css">
	.st0{fill:#FFFFFF;}
	.st1{fill:#0C7F99;}
</style>
<path class="st0" d="M256.6,120.7c0,4.2-1.4,8.2-3.7,11.3l-30.4,0.3c-2.6-3.1-4-7.3-4-11.6c0-10.5,8.5-19,19-19
	C248.1,101.6,256.6,110.2,256.6,120.7z"/>
<path class="st0" d="M311.6,120.7c0,4.2-1.4,8.2-3.7,11.3l-30.4,0.3c-2.6-3.1-4-7.3-4-11.6c0-10.5,8.5-19,19-19
	C303.1,101.6,311.6,110.2,311.6,120.7z"/>
<path d="M242,109.8c-1.3,0.1-2.3,1.1-2.3,2.4c0,1.3,1.1,2.4,2.4,2.4c1.3,0,2.4-1.1,2.4-2.4c0-1.3-1.1-2.4-2.4-2.4
	C242.1,109.8,242,109.8,242,109.8l2.9-1c4.3,0,7.7,3.5,7.7,7.7s-3.5,7.7-7.7,7.7s-7.7-3.5-7.7-7.7s3.5-7.7,7.7-7.7"/>
<path d="M296,109.8c-1.3,0.1-2.3,1.1-2.3,2.4c0,1.3,1.1,2.4,2.4,2.4s2.4-1.1,2.4-2.4c0-1.3-1.1-2.4-2.4-2.4
	C296.1,109.8,296,109.8,296,109.8l2.9-1c4.3,0,7.7,3.5,7.7,7.7s-3.5,7.7-7.7,7.7s-7.7-3.5-7.7-7.7s3.5-7.7,7.7-7.7"/>
<path class="st1" d="M234.4,162.6h64.4c-15.4,63.8-25.1,105.4-25.1,151c0,8,0,69.5,23.4,69.5c12,0,22.2-10.8,22.2-20.5
	c0-2.8,0-4-4-12.5c-15.4-39.3-15.4-88.3-15.4-92.3c0-3.4,0-43.9,12-95.1h63.8c7.4,0,22.6-2.7,22.7-20.9c0.1-34.6-23.6-9.6-33.9-9.6
	l-171.1-0.3c-13.1,0-41.8,4.3-50.5-14.3c-9.4-20.1-22.3,1.8-22.3,5.2c0,3.4-1.2,12.5,3.6,18.8c3.3,4.4,10.3,9.4,14.3,11.4
	c19.9,10.2,36.1,9.6,50.3,9.6h32.5c-12.5,42.7-26.8,92.3-73.5,192c-4.6,9.1-4.6,10.3-4.6,13.7c0,12,10.3,14.8,15.4,14.8
	c16.5,0,21.1-14.8,27.9-38.7c9.1-29.1,9.1-30.2,14.8-53L234.4,162.6"/>
<path d="M250.3,156.5c5.1,2.4,3.8,4.2,15.4,4.1c10.3-0.1,10.8-2.2,13.8-4.3c0,0-0.7-4.1-0.7-4.1c-4-0.8-8.7-1.8-14.1-1.8
	c-3.9,0-8,0.4-14.3,1.6"/>
</svg>
