<?xml version="1.0" encoding="utf-8"?>
<!-- Generator: Adobe Illustrator 22.1.0, SVG Export Plug-In . SVG Version: 6.00 Build 0)  -->
<svg version="1.0" id="Layer_1" xmlns="http://www.w3.org/2000/svg" xmlns:xlink="http://www.w3.org/1999/xlink" x="0px" y="0px"
	 viewBox="0 0 480 480" style="enable-background:new 0 0 480 480;" xml:space="preserve">
<style type="text/css">
	.st0{fill:#FFFFFF;}
	.st1{fill:#0C7F99;}
</style>
<g>
	<path class="st0" d="M252.4,112c0,3.5-1.4,6.8-3.7,9.5l-30.4,0.2c-2.6-2.6-4-6.1-4-9.7c0-8.8,8.2-13.1,18.7-13.2
		C245.4,98.6,252.4,103.2,252.4,112z"/>
	<path class="st0" d="M307.4,112c0,3.5-1.4,6.8-3.7,9.5l-30.4,0.2c-2.6-2.6-4-6.1-4-9.7c0-8.8,9.2-16.2,18.9-14.2
		C299.7,99.8,307.4,103.2,307.4,112z"/>
	<path d="M241.9,103.1c-1.3,0.1-2.3,1.1-2.3,2.4s1.1,2.4,2.4,2.4c1.3,0,2.4-1.1,2.4-2.4S243.3,103.1,241.9,103.1L241.9,103.1l2.9-1
		c4.3,0,7.7,3.5,7.7,7.7s-3.5,7.7-7.7,7.7s-7.7-3.5-7.7-7.7s3.5-7.7,7.7-7.7"/>
	<path d="M296.8,103.2c-1.3,0.1-2.3,1.1-2.3,2.4s1.1,2.4,2.4,2.4s2.4-1.1,2.4-2.4s-1.1-2.4-2.4-2.4H296.8l2.9-1
		c4.3,0,7.7,3.5,7.7,7.7s-3.5,7.7-7.7,7.7s-7.7-3.5-7.7-7.7s3.5-7.7,7.7-7.7"/>
	<path class="st1" d="M228.5,152.8h64.4c5.8,98.1,0.1,130.2-10.6,180.1c-2.6,17.3-0.2,36.4,20.8,35.3c11-0.6,11-10.3,9.7-18.6
		c-0.8-5.1-1.3-11.9-2.5-18.7c-4.3-29.2,2.5-48.6,2.9-67.7c0.3-12.2-7.5-55.9-7.2-110.3h63.8c7.4,0,26.2,0,26.2-18.2
		c0-12.5-10.8-12.5-21.1-12.5H187.5c-13.2,0.8-12.2,0.5-25,5.1c-8.8,3.3-28.1,14.9-29.7,30.5c-0.5,11.5,4.1,11.8,15.6,7.4
		c10.1-6,13.3-7.4,16.1-8.2c3-1.1,4.2-4,18.5-4h32.5c-7.4,101.4-0.9,135.4-21.2,177.5c-4.6,14.8-9.3,26.7-9.3,30.1
		c0,12,16.4,9.9,21.5,9.9c16.5,0,12.8-16.3,13.7-35.7c4.2-30,9.1-49.1,9.6-66.4C230.1,250.8,228.5,152.8,228.5,152.8"/>
	<path d="M247.1,143.5c5.5,0,1.9,0.1,13.5,0c10.3-0.1,12.4-0.1,15.7-0.2l-0.3-3.1c-3.7,0.1-9.3,0.2-14.7,0.2c-3.9,0-8.5,0-14.6,0"/>
</g>
</svg>
