<?xml version="1.0" encoding="utf-8"?>
<!-- Generator: Adobe Illustrator 22.1.0, SVG Export Plug-In . SVG Version: 6.00 Build 0)  -->
<svg version="1.0" id="Layer_1" xmlns="http://www.w3.org/2000/svg" xmlns:xlink="http://www.w3.org/1999/xlink" x="0px" y="0px"
	 viewBox="0 0 480 480" style="enable-background:new 0 0 480 480;" xml:space="preserve">
<style type="text/css">
	.st0{fill:#FFFFFF;}
	.st1{fill:#0C7F99;}
</style>
<g>
	<path class="st0" d="M237.5,88.8c0,4.8-1.6,9.4-4.2,12.9l-34.7,0.3c-3-3.5-4.6-8.3-4.6-13.2c0-12,9.8-9.5,21.7-8
		C228.8,82.3,237.5,76.9,237.5,88.8z"/>
	<path class="st0" d="M300.2,88.8c0,4.8-1.6,9.4-4.2,12.9l-34.7,0.3c-3-3.5-4.6-8.3-4.6-13.2c0-12,9.7-6.5,21.7-8
		C290.4,79.3,300.2,76.9,300.2,88.8z"/>
	<path d="M225.4,83.5c-1.7,0.1-3,1.7-2.5,3.5c0.2,0.6,0.5,1.1,1.1,1.5c2.7,1.8,5.8-1.6,3.5-4.2c-0.4-0.5-1.1-0.8-1.8-0.8H225.4
		l3.3-1.1c6.2,0,10.8,6.4,7.9,12.7c-0.7,1.5-1.9,2.8-3.4,3.6c-6.5,3.5-13.2-1.4-13.2-7.6c0-4.8,4-8.8,8.8-8.8"/>
	<path d="M288.1,83.5c-1.7,0.1-3,1.7-2.5,3.5c0.2,0.6,0.5,1.1,1.1,1.5c2.7,1.8,5.8-1.6,3.5-4.2c-0.4-0.5-1.1-0.8-1.8-0.8H288.1
		l3.3-1.1c6.2,0,10.8,6.4,7.9,12.7c-0.7,1.5-1.9,2.8-3.4,3.6c-6.5,3.5-13.2-1.4-13.2-7.6c0-4.8,4-8.8,8.8-8.8"/>
	<path class="st1" d="M210.5,137.1h73.9c0,0-28.6,120.7-28.6,172.7c0,9.1,0,79.3,26.7,79.3c13.7,0,25.3-12.3,25.3-23.4
		c0-3.2,0-4.6-4.6-14.3c-17.6-44.8-17.6-100.7-17.6-105.3c0-3.9,13.7-109.1,13.7-109.1h72.8c8.4,0,55.8-35.9,22-45.7
		c-30.8-8.9-68.4-12.2-16.2,11.4H164.2c-27.8,3-29.7,2.3-0.5-15.9c16-10-14.4-4.9-18.2-4.4s-15.2,3-20.5,13.3
		c-4.6,8.9-9.1,18.9-6.8,23.3c9.1,17.8,24.6,17.9,40.9,17.9h37.1c-14.3,48.7-30.6,105.3-83.8,219c-5.2,10.4-5.2,11.7-5.2,15.6
		c0,13.7,11.7,16.9,17.6,16.9c18.8,0,24.1-16.9,31.8-44.1c10.4-33.2,10.4-34.4,16.9-60.4L211,137"/>
	<path d="M222.3,127.3c5.4-1.3,4.2-1.3,9.9,1c5.7,2.3,11.7-1.1,15.4-1.3l-0.3-3.5c-4.2,0.1-9.7,4-14.5,0.2c-3-2.3-4.1-1.1-10.9,0"/>
</g>
</svg>
