<?xml version="1.0" encoding="utf-8"?>
<!-- Generator: Adobe Illustrator 21.0.2, SVG Export Plug-In . SVG Version: 6.00 Build 0)  -->
<svg version="1.0" id="Layer_1" xmlns="http://www.w3.org/2000/svg" xmlns:xlink="http://www.w3.org/1999/xlink" x="0px" y="0px"
	 viewBox="0 0 480 480" style="enable-background:new 0 0 480 480;" xml:space="preserve">
<style type="text/css">
	.st0{fill:#FFFFFF;}
	.st1{fill:#0C7F99;}
</style>
<g>
	<path class="st0" d="M246.6,117.3c0,3.3-1.4,6.4-3.7,8.8l-30.4,0.2c-2.6-2.4-4-5.6-4-9.1c0-8.2,9.5-19.3,19-14.8
		C237.4,107.1,246.6,109.1,246.6,117.3z"/>
	<path class="st0" d="M301.6,117.3c0,3.3-1.4,6.3-3.7,8.8l-30.4,0.2c-2.6-2.4-4-5.6-4-9c0-8.1,5.4-9.4,19-14.7
		C292.3,98.7,301.6,109.2,301.6,117.3z"/>
	<path d="M233,106.8c-1.3,0.1-2.3,0.8-2.3,1.8s1.1,1.8,2.4,1.8c1.3,0,2.4-0.8,2.4-1.8S234.4,106.8,233,106.8L233,106.8l2.9-0.7
		c4.3,0,7.7,2.5,7.7,5.6s-3.5,5.6-7.7,5.6s-7.7-2.5-7.7-5.6s3.5-5.6,7.7-5.6"/>
	<path d="M289.9,106.4c-1.3,0.1-2.3,0.8-2.3,1.7c0,1,1.1,1.7,2.4,1.7s2.4-0.8,2.4-1.7c0-1-1.1-1.7-2.4-1.7H289.9l2.2-0.5
		c0.6-0.2,1.2-0.2,1.9-0.1c3.7,0.4,6.6,2.7,6.6,5.5c0,3-3.5,5.5-7.7,5.5c-4.3,0-7.7-2.5-7.7-5.5s3.5-5.5,7.7-5.5"/>
	<path class="st1" d="M299.9,157.2l62.5-0.6c7.4,0,41.8-18.9,41.8-37.1c0-12.5-25.1,7-35.4,7H181.4c-13.3,0.6-17.7,1.5-46.6,1.4
		c-11.3,0-22.1-29.8-30.8-32.7c-6.4-2.2,3.1,30.8,8.6,40.2c2.9,4.9,12.5,10.2,16.8,11.5c27.1,8.3,33.2,10.5,47.4,10.5l54.9-0.2
		c-12.5,42.7-19.2,92.5-65.9,192.2c-4.6,9.1-4.6,10.3-4.6,13.7c0,12,10.3,14.8,15.4,14.8c16.5,0,20.8-15.8,28.9-38.7
		c6-19.2,10.5-34.8,16.3-52.7l35.1-128.3"/>
	<path d="M229.3,150.1c5.5-1.4,7.9-3.9,13.5-4c6.9-0.1,9.5,1.8,12.7,2.8l-0.3-3.1c-3.4-1.3-6.3-2.8-11.7-2.8c-3.9,0-8.6,1.6-14.6,4"
		/>
</g>
<g id="Layer_2">
</g>
</svg>
