<?xml version="1.0" encoding="utf-8"?>
<!-- Generator: Adobe Illustrator 21.0.2, SVG Export Plug-In . SVG Version: 6.00 Build 0)  -->
<svg version="1.0" id="Layer_1" xmlns="http://www.w3.org/2000/svg" xmlns:xlink="http://www.w3.org/1999/xlink" x="0px" y="0px"
	 viewBox="0 0 480 480" style="enable-background:new 0 0 480 480;" xml:space="preserve">
<style type="text/css">
	.st0{fill:#FFFFFF;}
	.st1{fill:#0C7F99;}
</style>
<path class="st0" d="M239.2,115.7c0,4.2-1.4,8.2-3.7,11.3l-30.4,0.3c-2.6-3.1-4-7.3-4-11.6c0-10.5,8.5-19,19-19
	C230.6,96.6,239.2,105.2,239.2,115.7z"/>
<path class="st0" d="M294.2,115.7c0,4.2-1.4,8.2-3.7,11.3l-30.4,0.3c-2.6-3.1-4-7.3-4-11.6c0-10.5,8.5-19,19-19
	S294.2,105.2,294.2,115.7z"/>
<path d="M225.6,100.9c-1.3,0.1-2.3,1.1-2.3,2.4c0,1.3,1.1,2.4,2.4,2.4s2.4-1.1,2.4-2.4s-1.1-2.4-2.4-2.4
	C225.7,100.8,225.6,100.8,225.6,100.9l2.9-1c4.3,0,7.7,3.5,7.7,7.7s-3.5,7.7-7.7,7.7c-4.3,0-7.7-3.5-7.7-7.7s3.5-7.7,7.7-7.7"/>
<path d="M280.6,100.9c-1.3,0.1-2.3,1.1-2.3,2.4c0,1.3,1.1,2.4,2.4,2.4c1.3,0,2.4-1.1,2.4-2.4s-1.1-2.4-2.4-2.4
	C280.7,100.8,280.6,100.8,280.6,100.9l2.9-1c4.3,0,7.7,3.5,7.7,7.7s-3.5,7.7-7.7,7.7c-4.3,0-7.7-3.5-7.7-7.7s3.5-7.7,7.7-7.7"/>
<path class="st1" d="M293.5,158.1h63.8c7.4,0,26.2,0,26.2-18.2c0-12.5-10.8-12.5-21.1-12.5H175c-13.1,0-32.5,0-58.7,27.9
	c-14.8,16.5-33,46.7-33,50.1s2.8,4.6,6.3,4.6c4,0,4.6-1.7,7.4-5.1c29.6-46.7,59.2-46.7,73.5-46.7l63,1.7
	c-4.2,43.7-5.8,84-43.9,185.2c-3.6,9.5-5,15.7-5,19.2c0,12,10.3,14.8,15.4,14.8c16.5,0,21.5-14.6,28.8-41.5
	c7.8-28.7,10.9-57.4,17.1-82.6l18.2-96.9"/>
<path d="M233.9,150.1c5.5,0,1.9,0.1,13.5,0c10.3-0.1,12.4-0.1,15.7-0.2c0,0-0.3-3.1-0.3-3.1c-3.7,0.1-9.3,0.2-14.7,0.2
	c-3.9,0-8.5,0-14.6,0"/>
<g id="Layer_2">
</g>
</svg>
