<?xml version="1.0" encoding="utf-8"?>
<!-- Generator: Adobe Illustrator 21.0.2, SVG Export Plug-In . SVG Version: 6.00 Build 0)  -->
<svg version="1.0" id="Layer_1" xmlns="http://www.w3.org/2000/svg" xmlns:xlink="http://www.w3.org/1999/xlink" x="0px" y="0px"
	 viewBox="0 0 480 480" style="enable-background:new 0 0 480 480;" xml:space="preserve">
<style type="text/css">
	.st0{fill:#FFFFFF;}
	.st1{fill:#0C7F99;}
</style>
<path class="st0" d="M247.4,120.7c0,2.9-1.4,5.5-3.7,7.7l-30.4,0.2c-2.6-2.1-4-4.9-4-7.9c0-7.1,8.5-12.9,19-12.9
	C238.9,107.8,247.4,113.6,247.4,120.7z"/>
<path class="st0" d="M302.4,117.8c0,3.9-1.4,7.5-3.7,10.5l-30.4,0.3c-2.6-2.9-4-6.7-4-10.7c0-9.7,8.5-15,19-17.6
	C293.6,97.7,302.4,108.1,302.4,117.8z"/>
<path d="M234.8,111.1c-1.3,0.1-2.3,1.1-2.3,2.4c0,1.3,1.1,2.4,2.4,2.4s2.4-1.1,2.4-2.4s-1.1-2.4-2.4-2.4
	C234.9,111.1,234.9,111.1,234.8,111.1l2.9-1c4.3,0,7.7,3.5,7.7,7.7s-3.5,7.7-7.7,7.7c-4.3,0-7.7-3.5-7.7-7.7s3.5-7.7,7.7-7.7"/>
<path d="M291.8,109.1c-1.3,0.1-2.3,1.1-2.3,2.4c0,1.3,1.1,2.4,2.4,2.4c1.3,0,2.4-1.1,2.4-2.4s-1.1-2.4-2.4-2.4
	C291.9,109.1,291.9,109.1,291.8,109.1l2.9-1c4.3,0,7.7,3.5,7.7,7.7s-3.5,7.7-7.7,7.7c-4.3,0-7.7-3.5-7.7-7.7s3.5-7.7,7.7-7.7"/>
<path class="st1" d="M365.6,159.3c7.4,0,26.2,1,26.2-17.2c0-12.5-10.8-13.5-21.1-13.5H183.3c-13.1,0-9.3-12.4-0.5-21.6
	c19.2-19.9,37.9,1.1,40.9-1.3c3.7-3-11.9-17.9-20.2-21c-6.9-2.6-26,4.5-33.9,16.2c-17.5,25.9-5.1,58.4,9.1,58.4h62.5
	c-12.5,42.7-23.8,92.3-70.5,192c-4.6,9.1-4.6,10.3-4.6,13.7c0,12,10.3,14.8,15.4,14.8c16.5,0,26.1-14.8,32.9-38.7
	c9.1-29.1,9.1-30.2,14.8-53l33-128.7"/>
<path d="M224.2,148.3c0.9,0.4,1.7-2.2,4.1-1.8c10.2,1.5,11.8,1.8,15.1,1.7c0,0-0.3-3.1-0.3-3.1c-3.7,0.1-9.4-2.4-14.8-2.4
	c-3.9,0-4.8,1.2-4.5,2.6"/>
<g id="Layer_2">
</g>
</svg>
