<?xml version="1.0" encoding="utf-8"?>
<!-- Generator: Adobe Illustrator 21.0.2, SVG Export Plug-In . SVG Version: 6.00 Build 0)  -->
<svg version="1.0" id="Layer_1" xmlns="http://www.w3.org/2000/svg" xmlns:xlink="http://www.w3.org/1999/xlink" x="0px" y="0px"
	 viewBox="0 0 480 480" style="enable-background:new 0 0 480 480;" xml:space="preserve">
<style type="text/css">
	.st0{fill:#FFFFFF;}
	.st1{fill:#0C7F99;}
</style>
<path class="st0" d="M242.2,118.7c0,4.2-1.4,8.2-3.7,11.3l-30.4,0.3c-2.6-3.1-4-7.3-4-11.6c0-10.5,8.9-11,18.6-10.9
	C233.5,108,242.2,108.2,242.2,118.7z"/>
<path class="st0" d="M297.2,118.7c0,4.2-1.4,8.2-3.7,11.3l-30.4,0.3c-2.6-3.1-4-7.3-4-11.6c0-10.5,8-11.4,17.7-11.4
	C287.3,107.4,297.2,108.2,297.2,118.7z"/>
<path d="M231.4,117.4c-1.5,0.1-2.6,1.5-2.2,3.1c0.2,0.8,0.9,1.5,1.7,1.7c1.8,0.5,3.4-1.1,3-3c-0.2-0.9-0.9-1.6-1.8-1.8
	C231.9,117.4,231.6,117.4,231.4,117.4l2.9-1c4.8,0,8.5,4.3,7.6,9.3c-0.6,3-3,5.4-6,6c-4.9,1-9.3-2.8-9.3-7.6c0-4.3,3.5-7.7,7.7-7.7"
	/>
<path d="M286.6,116.9c-1.3,0.1-2.3,1.1-2.3,2.4c0,1.3,1.1,2.4,2.4,2.4s2.4-1.1,2.4-2.4s-1.1-2.4-2.4-2.4
	C286.7,116.9,286.7,116.9,286.6,116.9l2.9-1c4.3,0,7.7,3.5,7.7,7.7s-3.5,7.7-7.7,7.7c-4.3,0-7.7-3.5-7.7-7.7s3.5-7.7,7.7-7.7"/>
<path class="st1" d="M330.4,161.1c7.4,0,23.5,13.1,23.5-5.1c0-12.5-8.2-25.7-18.4-25.7H178.1c-13.1,0-28.3,12.9-29.9,35.4
	c-1.1,15.3,6.3,30.2,29.6,30.6c22.6,0.4,37.1-6.4,57.9-14.6c3.7-1.5,10.9-14.3,7.3-11.7c-15.1,11.2-67.6,12.2-69.5-8.9H244
	c-6.4,41.8-14.8,89.3-34.2,197.7c-2,10-1.7,11.1-0.9,14.4c3.1,11.6,13.7,8.7,18.7,7.3c16-4.3,17.1-11.6,18.9-36.4
	c1.3-17.9,1.6-43,3.6-62.3l10.9-120.8"/>
<path d="M222,153.1c5.5,0,1.9,0.1,13.5,0c10.3-0.1,0.4-0.1,3.7-0.2c0,0-0.3-3.1-0.3-3.1c-3.7,0.1,2.7,0.2-2.7,0.2
	c-3.9,0-8.5,0-14.6,0"/>
<g id="Layer_2">
</g>
</svg>
