<?xml version="1.0" encoding="utf-8"?>
<!-- Generator: Adobe Illustrator 21.0.2, SVG Export Plug-In . SVG Version: 6.00 Build 0)  -->
<svg version="1.0" id="Layer_1" xmlns="http://www.w3.org/2000/svg" xmlns:xlink="http://www.w3.org/1999/xlink" x="0px" y="0px"
	 viewBox="0 0 480 480" style="enable-background:new 0 0 480 480;" xml:space="preserve">
<style type="text/css">
	.st0{fill:#FFFFFF;}
	.st1{fill:#0C7F99;}
</style>
<g id="Layer_2">
	<path class="st0" d="M231.8,113.8c0,4.2-1.4,8.2-3.7,11.3l-30.4,0.3c-2.6-3.1-4-7.3-4-11.6c0-10.5,8.5-19,19-19
		C223.3,94.7,231.8,103.3,231.8,113.8z"/>
	<path class="st0" d="M286.8,113.8c0,4.2-1.4,8.2-3.7,11.3l-30.4,0.3c-2.6-3.1-4-7.3-4-11.6c0-10.5,8.5-19,19-19
		C278.3,94.7,286.8,103.3,286.8,113.8z"/>
	<path d="M218.2,98.9c-1.3,0.1-2.3,1.1-2.3,2.4c0,1.3,1.1,2.4,2.4,2.4c1.3,0,2.4-1.1,2.4-2.4c0-1.3-1.1-2.4-2.4-2.4
		C218.3,98.9,218.3,98.9,218.2,98.9l2.9-1c4.3,0,7.7,3.5,7.7,7.7c0,4.3-3.5,7.7-7.7,7.7s-7.7-3.5-7.7-7.7c0-4.3,3.5-7.7,7.7-7.7"/>
	<path d="M273.2,98.9c-1.3,0.1-2.3,1.1-2.3,2.4c0,1.3,1.1,2.4,2.4,2.4s2.4-1.1,2.4-2.4c0-1.3-1.1-2.4-2.4-2.4
		C273.3,98.9,273.3,98.9,273.2,98.9l2.9-1c4.3,0,7.7,3.5,7.7,7.7c0,4.3-3.5,7.7-7.7,7.7s-7.7-3.5-7.7-7.7c0-4.3,3.5-7.7,7.7-7.7"/>
	<path class="st1" d="M286.2,156.2l69.2-1c13.8-0.4,26.6-20.9,26.6-39.2c0-12.5-16.9,10.1-44,10.1l-170.3-0.7
		c-13.1,0-18.4,0.9-24.3-5.3c-10.2-10.8-4.8-19.3-4.8-22.7c0-3.4-2.8-4.6-6.3-4.6c-4,0-6.6,0.8-7.4,5.1
		c-9.1,47.2,23.5,57.6,38.2,58.2h62.5c-12.5,42.7-26.8,92.3-73.5,192c-4.6,9.1-4.6,10.3-4.6,13.7c0,12,10.3,14.8,15.4,14.8
		c16.5,0,20.9-10.4,30.9-36.7c13.2-34.4,16.5-46.2,22.6-65.3l32.3-118.4"/>
	<path d="M222.1,146.1c0,0.9,4.9,5.7,16.4,5.3c9.3-0.4,11-1.5,13.1-5.5c0,0,0.9-4,0.9-4c-3.7,0.1-13.2,0.8-19.3,0.6
		c-4.2-0.1-10-0.1-11,0.1"/>
</g>
</svg>
