<?xml version="1.0" encoding="utf-8"?>
<!-- Generator: Adobe Illustrator 21.0.2, SVG Export Plug-In . SVG Version: 6.00 Build 0)  -->
<svg version="1.0" id="Layer_1" xmlns="http://www.w3.org/2000/svg" xmlns:xlink="http://www.w3.org/1999/xlink" x="0px" y="0px"
	 viewBox="0 0 480 480" style="enable-background:new 0 0 480 480;" xml:space="preserve">
<style type="text/css">
	.st0{fill:#FFFFFF;}
	.st1{fill:#0C7F99;}
</style>
<g>
	<path class="st0" d="M223.8,109.9c0,4.2-1.4,8.2-3.7,11.3l-30.4,0.3c-2.6-3.1-4-7.3-4-11.6c0-10.5,8.5-19,19-19
		C215.3,90.8,223.8,99.4,223.8,109.9z"/>
	<path class="st0" d="M278.8,109.9c0,4.2-1.4,8.2-3.7,11.3l-30.4,0.3c-2.6-3.1-4-7.3-4-11.6c0-10.5,8.5-19,19-19
		C270.3,90.8,278.8,99.4,278.8,109.9z"/>
	<path d="M211.2,97c-1.3,0.1-2.3,1.1-2.3,2.4c0,1.3,1.1,2.4,2.4,2.4s2.4-1.1,2.4-2.4C213.7,98.1,212.6,97,211.2,97l2.9-1
		c4.3,0,7.7,3.5,7.7,7.7c0,4.2-3.5,7.7-7.7,7.7s-7.7-3.5-7.7-7.7c0-4.2,3.5-7.7,7.7-7.7"/>
	<path d="M266.2,97c-1.3,0.1-2.3,1.1-2.3,2.4c0,1.3,1.1,2.4,2.4,2.4s2.4-1.1,2.4-2.4c0-1.3-1.1-2.4-2.4-2.4H266.2l2.9-1
		c4.3,0,7.7,3.5,7.7,7.7c0,4.2-3.5,7.7-7.7,7.7s-7.7-3.5-7.7-7.7c0-4.2,3.5-7.7,7.7-7.7"/>
	<path class="st1" d="M152.3,281.2c-5.7,22.8-5.7,23.9-14.8,53c-6.8,23.9-11.4,38.7-27.9,38.7c-5.1,0-15.4-2.8-15.4-14.8
		c0-3.4,0-4.6,4.6-13.7c46.7-99.7,62.4-147,74.4-191.2l-16.8-0.2c-8.8,0-12.6-1.7-27.9-6.6c-4.2-1.4-14-2.7-31.4-17.8
		c-8.8-7.8-13.8-20-7.5-23c13.3-6.3,15.4,6.2,33,11.1c18.5,4.9,23.9,4.8,37,4.8H347c10.3,0,21.1,0,21.1,12.5
		c0,18.2-18.8,18.2-26.2,18.2h-37.4c-12,51.2-12,91.7-12,95.1c0,4,0,53,15.4,92.3c4,8.5,4,9.7,4,12.5c0,9.7-19.4,5.9-29.3-0.4
		c-19.7-12.5-16.3-40.5-16.3-48.5c0-45.6,4-85.7,19.4-149.5l-33.8-0.1l-8.5,0.2l-22,128.5c-4.7,23.2-6.8,32.1-11.5,52.4
		c-5.2,17.7-4.9,32.7-24.1,32.9c-8.8-1-15-6-15-14.9c-0.2-6.1,2.7-8.8,4.9-14.2c28.9-63.8,35.4-116,54.3-184.9l-46-0.5L152.3,281.2z
		"/>
	<path d="M214.9,139.6c2.5,1.6,8.6,3.7,14.4,3.6c5.2-0.1,12.8-1.7,15.1-2.9l0.2-3.2c-5.5,2.4-13.1,3.1-15.5,3.1
		c-1.9,0-10.5-1.8-14.1-3.5"/>
</g>
</svg>
