<?xml version="1.0" encoding="utf-8"?>
<!-- Generator: Adobe Illustrator 21.0.2, SVG Export Plug-In . SVG Version: 6.00 Build 0)  -->
<svg version="1.0" id="Layer_1" xmlns="http://www.w3.org/2000/svg" xmlns:xlink="http://www.w3.org/1999/xlink" x="0px" y="0px"
	 viewBox="0 0 480 480" style="enable-background:new 0 0 480 480;" xml:space="preserve">
<style type="text/css">
	.st0{fill:#FFFFFF;}
	.st1{fill:#0C7F99;}
</style>
<g>
	<path class="st0" d="M244.3,102.1c0,4.2-1.4,8.2-3.7,11.3l-30.4,0.3c-2.6-3.1-4-7.3-4-11.6c0-10.5,8.5-19,19-19
		C235.8,83,244.3,91.6,244.3,102.1z"/>
	<path class="st0" d="M299.3,102.1c0,4.2-1.4,8.2-3.7,11.3l-30.4,0.3c-2.6-3.1-4-7.3-4-11.6c0-10.5,8.5-19,19-19
		C290.8,83,299.3,91.6,299.3,102.1z"/>
	<path d="M231.7,89.2c-1.3,0.1-2.3,1.1-2.3,2.4c0,1.3,1.1,2.4,2.4,2.4c1.3,0,2.4-1.1,2.4-2.4C234.2,90.3,233.1,89.2,231.7,89.2
		l2.9-1c4.3,0,7.7,3.5,7.7,7.7c0,4.2-3.5,7.7-7.7,7.7c-4.2,0-7.7-3.5-7.7-7.7c0-4.2,3.5-7.7,7.7-7.7"/>
	<path d="M286.7,89.2c-1.3,0.1-2.3,1.1-2.3,2.4c0,1.3,1.1,2.4,2.4,2.4s2.4-1.1,2.4-2.4c0-1.3-1.1-2.4-2.4-2.4H286.7l2.9-1
		c4.3,0,7.7,3.5,7.7,7.7c0,4.2-3.5,7.7-7.7,7.7s-7.7-3.5-7.7-7.7c0-4.2,3.5-7.7,7.7-7.7"/>
	<path class="st1" d="M172.8,273.4c-5.7,22.8-5.7,23.9-14.8,53c-6.8,23.9-11.4,38.7-27.9,38.7c-5.1,0-15.4-2.8-15.4-14.8
		c0-3.4,0-4.6,4.6-13.7c46.7-99.7,62.4-147,74.4-191.2l-8.4,0c-8.8,0-12.1-0.5-17.4-0.1c-6.3,0-18.1,2.5-21.7,5.3
		c-8.7,6.7-21.5,21.5-25.2,19.9c-9.4-3.8,8.1-31.5,18.4-39.8c16.9-11.7,27.7-16.9,40.8-16.9h187.4c10.3,0,21.1,0,21.1,12.5
		c0,18.2-18.8,18.2-26.2,18.2H325c-12,51.2-12,91.7-12,95.1c0,4,0,53,15.4,92.3c4,8.5,4,9.7,4,12.5c0,9.7-19.4,5.9-29.3-0.4
		c-19.7-12.5-16.3-40.5-16.3-48.5c0-45.6,4-85.7,19.4-149.5l-33.8-0.1l-8.5,0.2l-22,128.5c-4.7,23.2-6.8,32.1-11.5,52.4
		c-5.2,17.7-4.9,32.7-24.1,32.9c-8.8-1-15-6-15-14.9c-0.2-6.1,2.7-8.8,4.9-14.2c28.9-63.8,35.4-116,54.3-184.9l-46-0.5L172.8,273.4z
		"/>
	<path d="M235.4,131.8c3.3,0.7,8.6,0.7,14.4,0.6c5.2-0.1,11.2,0.4,15.1,0.1l0.2-3.2c-5.5,0.7-13.1,0.1-15.5,0.1
		c-1.9,0-10.2,0.3-14.1-0.5"/>
</g>
</svg>
